M48
; DRILL file {KiCad 7.0.0-da2b9df05c~163~ubuntu22.04.1} date Mon 20 Feb 2023 10:34:05 PM EST
; FORMAT={-:-/ absolute / metric / decimal}
; #@! TF.CreationDate,2023-02-20T22:34:05-05:00
; #@! TF.GenerationSoftware,Kicad,Pcbnew,7.0.0-da2b9df05c~163~ubuntu22.04.1
; #@! TF.FileFunction,Plated,1,2,PTH
FMAT,2
METRIC
; #@! TA.AperFunction,Plated,PTH,ComponentDrill
T1C0.700
; #@! TA.AperFunction,Plated,PTH,ComponentDrill
T2C0.800
; #@! TA.AperFunction,Plated,PTH,ComponentDrill
T3C0.900
; #@! TA.AperFunction,Plated,PTH,ComponentDrill
T4C1.000
; #@! TA.AperFunction,Plated,PTH,ComponentDrill
T5C1.016
; #@! TA.AperFunction,Plated,PTH,ComponentDrill
T6C1.100
; #@! TA.AperFunction,Plated,PTH,ComponentDrill
T7C1.194
; #@! TA.AperFunction,Plated,PTH,ComponentDrill
T8C3.200
%
G90
G05
T1
X144.45Y-93.65
X144.45Y-143.18
X144.45Y-149.53
X144.45Y-155.88
T2
X63.21Y-160.96
X65.71Y-160.96
X65.72Y-148.27
X65.72Y-155.89
X68.26Y-148.27
X68.26Y-155.89
X69.52Y-160.833
X70.8Y-148.27
X70.8Y-155.89
X70.83Y-144.46
X73.33Y-144.46
X73.34Y-148.27
X73.34Y-155.89
X78.41Y-141.91
X78.41Y-146.99
X79.68Y-160.833
X88.57Y-141.91
X88.57Y-146.99
X93.65Y-141.91
X93.65Y-146.99
X103.81Y-141.91
X103.81Y-146.99
X117.82Y-97.46
X120.32Y-97.46
X124.17Y-96.19
X126.67Y-96.19
X126.67Y-153.34
X129.17Y-153.34
X134.33Y-153.34
X136.83Y-153.34
T3
X56.488Y-133.755
X56.488Y-136.255
X58.988Y-133.755
X58.988Y-136.255
X61.488Y-133.755
X61.488Y-136.255
X66.488Y-133.755
X66.488Y-136.255
X81.488Y-133.755
X81.488Y-136.255
X83.988Y-133.755
X83.988Y-136.255
X86.488Y-133.755
X86.488Y-136.255
X91.488Y-133.755
X91.488Y-136.255
X106.488Y-133.755
X106.488Y-136.255
X108.988Y-133.755
X108.988Y-136.255
X111.488Y-133.755
X111.488Y-136.255
X116.488Y-133.755
X116.488Y-136.255
X123.744Y-88.0
X126.284Y-88.0
T4
X56.82Y-153.975
X58.69Y-122.212
X58.69Y-124.752
X59.32Y-153.975
X61.23Y-122.212
X61.23Y-124.752
X63.77Y-122.212
X63.77Y-124.752
X66.31Y-122.212
X66.31Y-124.752
X79.72Y-153.975
X82.22Y-153.975
X83.69Y-88.212
X83.69Y-90.752
X83.69Y-122.212
X83.69Y-124.752
X86.23Y-88.212
X86.23Y-90.752
X86.23Y-122.212
X86.23Y-124.752
X88.77Y-88.212
X88.77Y-90.752
X88.77Y-122.212
X88.77Y-124.752
X91.31Y-88.212
X91.31Y-90.752
X91.31Y-122.212
X91.31Y-124.752
X92.42Y-153.975
X94.92Y-153.975
X105.12Y-153.975
X107.62Y-153.975
X108.69Y-122.212
X108.69Y-124.752
X111.23Y-122.212
X111.23Y-124.752
X113.77Y-122.212
X113.77Y-124.752
X116.31Y-122.212
X116.31Y-124.752
X117.82Y-153.975
X120.32Y-153.975
T5
X129.92Y-122.23
X129.92Y-124.77
X132.46Y-122.23
X132.46Y-124.77
X135.0Y-122.23
X135.0Y-124.77
X137.54Y-122.23
X137.54Y-124.77
X140.08Y-122.23
X140.08Y-124.77
T6
X118.415Y-86.665
X118.415Y-89.205
X118.415Y-91.745
X126.67Y-146.99
X126.67Y-159.69
X136.83Y-146.99
X136.83Y-159.69
T7
X56.252Y-102.511
X56.252Y-107.489
X68.748Y-102.511
X68.748Y-107.489
X81.252Y-102.511
X81.252Y-107.489
X93.748Y-102.511
X93.748Y-107.489
X106.252Y-102.511
X106.252Y-107.489
X118.748Y-102.511
X118.748Y-107.489
X131.252Y-102.511
X131.252Y-107.489
X131.252Y-132.511
X131.252Y-137.489
X143.748Y-102.511
X143.748Y-107.489
X143.748Y-132.511
X143.748Y-137.489
T8
X56.0Y-83.0
X56.0Y-162.0
X144.0Y-83.0
X144.0Y-162.0
T0
M30
