M48
; DRILL file {KiCad 6.0.9-8da3e8f707~116~ubuntu22.04.1} date Sat Nov 12 12:36:30 2022
; FORMAT={-:-/ absolute / metric / decimal}
; #@! TF.CreationDate,2022-11-12T12:36:30-05:00
; #@! TF.GenerationSoftware,Kicad,Pcbnew,6.0.9-8da3e8f707~116~ubuntu22.04.1
; #@! TF.FileFunction,MixedPlating,1,2
FMAT,2
METRIC
; #@! TA.AperFunction,Plated,PTH,ComponentDrill
T1C0.700
; #@! TA.AperFunction,Plated,PTH,ComponentDrill
T2C0.800
; #@! TA.AperFunction,Plated,PTH,ComponentDrill
T3C0.900
; #@! TA.AperFunction,Plated,PTH,ComponentDrill
T4C1.000
; #@! TA.AperFunction,Plated,PTH,ComponentDrill
T5C1.016
; #@! TA.AperFunction,Plated,PTH,ComponentDrill
T6C1.100
; #@! TA.AperFunction,Plated,PTH,ComponentDrill
T7C1.194
; #@! TA.AperFunction,Plated,PTH,ComponentDrill
T8C3.200
; #@! TA.AperFunction,NonPlated,NPTH,ComponentDrill
T9C1.400
%
G90
G05
T1
X91.11Y-162.23
X97.46Y-162.23
X103.81Y-162.23
X110.16Y-162.23
T2
X65.71Y-159.7
X65.72Y-148.27
X65.72Y-155.89
X68.21Y-159.7
X68.26Y-148.27
X68.26Y-155.89
X70.8Y-148.27
X70.8Y-155.89
X70.83Y-144.46
X73.33Y-144.46
X73.34Y-148.27
X73.34Y-155.89
X84.76Y-143.18
X84.76Y-146.99
X94.92Y-143.18
X94.92Y-146.99
X112.7Y-146.99
X112.7Y-153.34
X112.7Y-155.84
X115.24Y-146.99
X117.78Y-146.99
X117.78Y-153.34
X117.78Y-155.84
X126.67Y-153.34
X129.17Y-153.34
X134.33Y-153.34
X136.83Y-153.34
T3
X56.488Y-133.755
X56.488Y-136.255
X58.988Y-133.755
X58.988Y-136.255
X61.488Y-133.755
X61.488Y-136.255
X66.488Y-133.755
X66.488Y-136.255
X81.488Y-133.755
X81.488Y-136.255
X83.988Y-133.755
X83.988Y-136.255
X86.488Y-133.755
X86.488Y-136.255
X91.488Y-133.755
X91.488Y-136.255
X106.488Y-133.755
X106.488Y-136.255
X108.988Y-133.755
X108.988Y-136.255
X111.488Y-133.755
X111.488Y-136.255
X116.488Y-133.755
X116.488Y-136.255
X123.725Y-88.0
X126.265Y-88.0
T4
X56.82Y-153.975
X58.69Y-122.212
X58.69Y-124.752
X59.32Y-153.975
X61.23Y-122.212
X61.23Y-124.752
X63.77Y-122.212
X63.77Y-124.752
X66.31Y-122.212
X66.31Y-124.752
X79.72Y-153.975
X82.22Y-153.975
X83.69Y-88.212
X83.69Y-90.752
X83.69Y-122.212
X83.69Y-124.752
X86.23Y-88.212
X86.23Y-90.752
X86.23Y-122.212
X86.23Y-124.752
X88.77Y-88.212
X88.77Y-90.752
X88.77Y-122.212
X88.77Y-124.752
X91.31Y-88.212
X91.31Y-90.752
X91.31Y-122.212
X91.31Y-124.752
X92.42Y-153.975
X94.92Y-153.975
X105.12Y-153.975
X107.62Y-153.975
X108.69Y-122.212
X108.69Y-124.752
X111.23Y-122.212
X111.23Y-124.752
X113.77Y-122.212
X113.77Y-124.752
X116.31Y-122.212
X116.31Y-124.752
T5
X129.92Y-122.23
X129.92Y-124.77
X132.46Y-122.23
X132.46Y-124.77
X135.0Y-122.23
X135.0Y-124.77
X137.54Y-122.23
X137.54Y-124.77
X140.08Y-122.23
X140.08Y-124.77
T6
X126.67Y-146.99
X126.67Y-160.96
X136.83Y-146.99
X136.83Y-160.96
T7
X56.252Y-102.511
X56.252Y-107.489
X68.748Y-102.511
X68.748Y-107.489
X81.252Y-102.511
X81.252Y-107.489
X93.748Y-102.511
X93.748Y-107.489
X106.252Y-102.511
X106.252Y-107.489
X118.748Y-102.511
X118.748Y-107.489
X131.252Y-102.511
X131.252Y-107.489
X131.252Y-132.511
X131.252Y-137.489
X143.748Y-102.511
X143.748Y-107.489
X143.748Y-132.511
X143.748Y-137.489
T8
X56.0Y-83.0
X56.0Y-162.0
X144.0Y-83.0
X144.0Y-162.0
T9
X54.388Y-137.805
X70.588Y-132.205
X79.388Y-137.805
X95.588Y-132.205
X104.388Y-137.805
X120.588Y-132.205
T0
M30
