%TF.GenerationSoftware,KiCad,Pcbnew,7.0.0-da2b9df05c~163~ubuntu22.04.1*%
%TF.CreationDate,2023-02-20T22:34:06-05:00*%
%TF.ProjectId,dso138,64736f31-3338-42e6-9b69-6361645f7063,rev?*%
%TF.SameCoordinates,Original*%
%TF.FileFunction,Drillmap*%
%TF.FilePolarity,Positive*%
%FSLAX45Y45*%
G04 Gerber Fmt 4.5, Leading zero omitted, Abs format (unit mm)*
G04 Created by KiCad (PCBNEW 7.0.0-da2b9df05c~163~ubuntu22.04.1) date 2023-02-20 22:34:06*
%MOMM*%
%LPD*%
G01*
G04 APERTURE LIST*
%ADD10C,0.100000*%
%ADD11C,0.200000*%
%ADD12C,0.140000*%
%ADD13C,0.350000*%
G04 APERTURE END LIST*
D10*
X5300000Y-8000000D02*
X14700000Y-8000000D01*
X14700000Y-8000000D02*
X14700000Y-16500000D01*
X14700000Y-16500000D02*
X5300000Y-16500000D01*
X5300000Y-16500000D02*
X5300000Y-8000000D01*
D11*
D12*
X5368780Y-13710540D02*
X5508780Y-13850540D01*
X5508780Y-13710540D02*
X5368780Y-13850540D01*
X6988780Y-13150540D02*
X7128780Y-13290540D01*
X7128780Y-13150540D02*
X6988780Y-13290540D01*
X7868780Y-13710540D02*
X8008780Y-13850540D01*
X8008780Y-13710540D02*
X7868780Y-13850540D01*
X9488780Y-13150540D02*
X9628780Y-13290540D01*
X9628780Y-13150540D02*
X9488780Y-13290540D01*
X10368780Y-13710540D02*
X10508780Y-13850540D01*
X10508780Y-13710540D02*
X10368780Y-13850540D01*
X11988780Y-13150540D02*
X12128780Y-13290540D01*
X12128780Y-13150540D02*
X11988780Y-13290540D01*
D13*
X10350500Y-8920500D02*
G75*
G03*
X10350500Y-8920500I-175000J0D01*
G01*
D11*
X5542619Y-16798476D02*
X5542619Y-16598476D01*
X5542619Y-16598476D02*
X5590238Y-16598476D01*
X5590238Y-16598476D02*
X5618809Y-16608000D01*
X5618809Y-16608000D02*
X5637857Y-16627048D01*
X5637857Y-16627048D02*
X5647381Y-16646095D01*
X5647381Y-16646095D02*
X5656905Y-16684190D01*
X5656905Y-16684190D02*
X5656905Y-16712762D01*
X5656905Y-16712762D02*
X5647381Y-16750857D01*
X5647381Y-16750857D02*
X5637857Y-16769905D01*
X5637857Y-16769905D02*
X5618809Y-16788952D01*
X5618809Y-16788952D02*
X5590238Y-16798476D01*
X5590238Y-16798476D02*
X5542619Y-16798476D01*
X5742619Y-16798476D02*
X5742619Y-16665143D01*
X5742619Y-16703238D02*
X5752143Y-16684190D01*
X5752143Y-16684190D02*
X5761667Y-16674667D01*
X5761667Y-16674667D02*
X5780714Y-16665143D01*
X5780714Y-16665143D02*
X5799762Y-16665143D01*
X5866428Y-16798476D02*
X5866428Y-16665143D01*
X5866428Y-16598476D02*
X5856905Y-16608000D01*
X5856905Y-16608000D02*
X5866428Y-16617524D01*
X5866428Y-16617524D02*
X5875952Y-16608000D01*
X5875952Y-16608000D02*
X5866428Y-16598476D01*
X5866428Y-16598476D02*
X5866428Y-16617524D01*
X5990238Y-16798476D02*
X5971190Y-16788952D01*
X5971190Y-16788952D02*
X5961667Y-16769905D01*
X5961667Y-16769905D02*
X5961667Y-16598476D01*
X6095000Y-16798476D02*
X6075952Y-16788952D01*
X6075952Y-16788952D02*
X6066428Y-16769905D01*
X6066428Y-16769905D02*
X6066428Y-16598476D01*
X6291190Y-16798476D02*
X6291190Y-16598476D01*
X6291190Y-16598476D02*
X6357857Y-16741333D01*
X6357857Y-16741333D02*
X6424524Y-16598476D01*
X6424524Y-16598476D02*
X6424524Y-16798476D01*
X6605476Y-16798476D02*
X6605476Y-16693714D01*
X6605476Y-16693714D02*
X6595952Y-16674667D01*
X6595952Y-16674667D02*
X6576905Y-16665143D01*
X6576905Y-16665143D02*
X6538809Y-16665143D01*
X6538809Y-16665143D02*
X6519762Y-16674667D01*
X6605476Y-16788952D02*
X6586428Y-16798476D01*
X6586428Y-16798476D02*
X6538809Y-16798476D01*
X6538809Y-16798476D02*
X6519762Y-16788952D01*
X6519762Y-16788952D02*
X6510238Y-16769905D01*
X6510238Y-16769905D02*
X6510238Y-16750857D01*
X6510238Y-16750857D02*
X6519762Y-16731809D01*
X6519762Y-16731809D02*
X6538809Y-16722286D01*
X6538809Y-16722286D02*
X6586428Y-16722286D01*
X6586428Y-16722286D02*
X6605476Y-16712762D01*
X6700714Y-16665143D02*
X6700714Y-16865143D01*
X6700714Y-16674667D02*
X6719762Y-16665143D01*
X6719762Y-16665143D02*
X6757857Y-16665143D01*
X6757857Y-16665143D02*
X6776905Y-16674667D01*
X6776905Y-16674667D02*
X6786428Y-16684190D01*
X6786428Y-16684190D02*
X6795952Y-16703238D01*
X6795952Y-16703238D02*
X6795952Y-16760381D01*
X6795952Y-16760381D02*
X6786428Y-16779429D01*
X6786428Y-16779429D02*
X6776905Y-16788952D01*
X6776905Y-16788952D02*
X6757857Y-16798476D01*
X6757857Y-16798476D02*
X6719762Y-16798476D01*
X6719762Y-16798476D02*
X6700714Y-16788952D01*
X6881667Y-16779429D02*
X6891190Y-16788952D01*
X6891190Y-16788952D02*
X6881667Y-16798476D01*
X6881667Y-16798476D02*
X6872143Y-16788952D01*
X6872143Y-16788952D02*
X6881667Y-16779429D01*
X6881667Y-16779429D02*
X6881667Y-16798476D01*
X6881667Y-16674667D02*
X6891190Y-16684190D01*
X6891190Y-16684190D02*
X6881667Y-16693714D01*
X6881667Y-16693714D02*
X6872143Y-16684190D01*
X6872143Y-16684190D02*
X6881667Y-16674667D01*
X6881667Y-16674667D02*
X6881667Y-16693714D01*
D12*
X5155000Y-17075000D02*
X5295000Y-17215000D01*
X5295000Y-17075000D02*
X5155000Y-17215000D01*
D11*
X5647381Y-17218476D02*
X5533095Y-17218476D01*
X5590238Y-17218476D02*
X5590238Y-17018476D01*
X5590238Y-17018476D02*
X5571190Y-17047048D01*
X5571190Y-17047048D02*
X5552143Y-17066095D01*
X5552143Y-17066095D02*
X5533095Y-17075619D01*
X5733095Y-17199429D02*
X5742619Y-17208952D01*
X5742619Y-17208952D02*
X5733095Y-17218476D01*
X5733095Y-17218476D02*
X5723571Y-17208952D01*
X5723571Y-17208952D02*
X5733095Y-17199429D01*
X5733095Y-17199429D02*
X5733095Y-17218476D01*
X5914048Y-17085143D02*
X5914048Y-17218476D01*
X5866428Y-17008952D02*
X5818809Y-17151810D01*
X5818809Y-17151810D02*
X5942619Y-17151810D01*
X6056905Y-17018476D02*
X6075952Y-17018476D01*
X6075952Y-17018476D02*
X6095000Y-17028000D01*
X6095000Y-17028000D02*
X6104524Y-17037524D01*
X6104524Y-17037524D02*
X6114048Y-17056571D01*
X6114048Y-17056571D02*
X6123571Y-17094667D01*
X6123571Y-17094667D02*
X6123571Y-17142286D01*
X6123571Y-17142286D02*
X6114048Y-17180381D01*
X6114048Y-17180381D02*
X6104524Y-17199429D01*
X6104524Y-17199429D02*
X6095000Y-17208952D01*
X6095000Y-17208952D02*
X6075952Y-17218476D01*
X6075952Y-17218476D02*
X6056905Y-17218476D01*
X6056905Y-17218476D02*
X6037857Y-17208952D01*
X6037857Y-17208952D02*
X6028333Y-17199429D01*
X6028333Y-17199429D02*
X6018809Y-17180381D01*
X6018809Y-17180381D02*
X6009286Y-17142286D01*
X6009286Y-17142286D02*
X6009286Y-17094667D01*
X6009286Y-17094667D02*
X6018809Y-17056571D01*
X6018809Y-17056571D02*
X6028333Y-17037524D01*
X6028333Y-17037524D02*
X6037857Y-17028000D01*
X6037857Y-17028000D02*
X6056905Y-17018476D01*
X6247381Y-17018476D02*
X6266429Y-17018476D01*
X6266429Y-17018476D02*
X6285476Y-17028000D01*
X6285476Y-17028000D02*
X6295000Y-17037524D01*
X6295000Y-17037524D02*
X6304524Y-17056571D01*
X6304524Y-17056571D02*
X6314048Y-17094667D01*
X6314048Y-17094667D02*
X6314048Y-17142286D01*
X6314048Y-17142286D02*
X6304524Y-17180381D01*
X6304524Y-17180381D02*
X6295000Y-17199429D01*
X6295000Y-17199429D02*
X6285476Y-17208952D01*
X6285476Y-17208952D02*
X6266429Y-17218476D01*
X6266429Y-17218476D02*
X6247381Y-17218476D01*
X6247381Y-17218476D02*
X6228333Y-17208952D01*
X6228333Y-17208952D02*
X6218809Y-17199429D01*
X6218809Y-17199429D02*
X6209286Y-17180381D01*
X6209286Y-17180381D02*
X6199762Y-17142286D01*
X6199762Y-17142286D02*
X6199762Y-17094667D01*
X6199762Y-17094667D02*
X6209286Y-17056571D01*
X6209286Y-17056571D02*
X6218809Y-17037524D01*
X6218809Y-17037524D02*
X6228333Y-17028000D01*
X6228333Y-17028000D02*
X6247381Y-17018476D01*
X6399762Y-17218476D02*
X6399762Y-17085143D01*
X6399762Y-17104190D02*
X6409286Y-17094667D01*
X6409286Y-17094667D02*
X6428333Y-17085143D01*
X6428333Y-17085143D02*
X6456905Y-17085143D01*
X6456905Y-17085143D02*
X6475952Y-17094667D01*
X6475952Y-17094667D02*
X6485476Y-17113714D01*
X6485476Y-17113714D02*
X6485476Y-17218476D01*
X6485476Y-17113714D02*
X6495000Y-17094667D01*
X6495000Y-17094667D02*
X6514048Y-17085143D01*
X6514048Y-17085143D02*
X6542619Y-17085143D01*
X6542619Y-17085143D02*
X6561667Y-17094667D01*
X6561667Y-17094667D02*
X6571190Y-17113714D01*
X6571190Y-17113714D02*
X6571190Y-17218476D01*
X6666429Y-17218476D02*
X6666429Y-17085143D01*
X6666429Y-17104190D02*
X6675952Y-17094667D01*
X6675952Y-17094667D02*
X6695000Y-17085143D01*
X6695000Y-17085143D02*
X6723571Y-17085143D01*
X6723571Y-17085143D02*
X6742619Y-17094667D01*
X6742619Y-17094667D02*
X6752143Y-17113714D01*
X6752143Y-17113714D02*
X6752143Y-17218476D01*
X6752143Y-17113714D02*
X6761667Y-17094667D01*
X6761667Y-17094667D02*
X6780714Y-17085143D01*
X6780714Y-17085143D02*
X6809286Y-17085143D01*
X6809286Y-17085143D02*
X6828333Y-17094667D01*
X6828333Y-17094667D02*
X6837857Y-17113714D01*
X6837857Y-17113714D02*
X6837857Y-17218476D01*
X7195952Y-17008952D02*
X7024524Y-17266095D01*
X7420714Y-17018476D02*
X7439762Y-17018476D01*
X7439762Y-17018476D02*
X7458810Y-17028000D01*
X7458810Y-17028000D02*
X7468333Y-17037524D01*
X7468333Y-17037524D02*
X7477857Y-17056571D01*
X7477857Y-17056571D02*
X7487381Y-17094667D01*
X7487381Y-17094667D02*
X7487381Y-17142286D01*
X7487381Y-17142286D02*
X7477857Y-17180381D01*
X7477857Y-17180381D02*
X7468333Y-17199429D01*
X7468333Y-17199429D02*
X7458810Y-17208952D01*
X7458810Y-17208952D02*
X7439762Y-17218476D01*
X7439762Y-17218476D02*
X7420714Y-17218476D01*
X7420714Y-17218476D02*
X7401667Y-17208952D01*
X7401667Y-17208952D02*
X7392143Y-17199429D01*
X7392143Y-17199429D02*
X7382619Y-17180381D01*
X7382619Y-17180381D02*
X7373095Y-17142286D01*
X7373095Y-17142286D02*
X7373095Y-17094667D01*
X7373095Y-17094667D02*
X7382619Y-17056571D01*
X7382619Y-17056571D02*
X7392143Y-17037524D01*
X7392143Y-17037524D02*
X7401667Y-17028000D01*
X7401667Y-17028000D02*
X7420714Y-17018476D01*
X7573095Y-17199429D02*
X7582619Y-17208952D01*
X7582619Y-17208952D02*
X7573095Y-17218476D01*
X7573095Y-17218476D02*
X7563571Y-17208952D01*
X7563571Y-17208952D02*
X7573095Y-17199429D01*
X7573095Y-17199429D02*
X7573095Y-17218476D01*
X7706429Y-17018476D02*
X7725476Y-17018476D01*
X7725476Y-17018476D02*
X7744524Y-17028000D01*
X7744524Y-17028000D02*
X7754048Y-17037524D01*
X7754048Y-17037524D02*
X7763571Y-17056571D01*
X7763571Y-17056571D02*
X7773095Y-17094667D01*
X7773095Y-17094667D02*
X7773095Y-17142286D01*
X7773095Y-17142286D02*
X7763571Y-17180381D01*
X7763571Y-17180381D02*
X7754048Y-17199429D01*
X7754048Y-17199429D02*
X7744524Y-17208952D01*
X7744524Y-17208952D02*
X7725476Y-17218476D01*
X7725476Y-17218476D02*
X7706429Y-17218476D01*
X7706429Y-17218476D02*
X7687381Y-17208952D01*
X7687381Y-17208952D02*
X7677857Y-17199429D01*
X7677857Y-17199429D02*
X7668333Y-17180381D01*
X7668333Y-17180381D02*
X7658810Y-17142286D01*
X7658810Y-17142286D02*
X7658810Y-17094667D01*
X7658810Y-17094667D02*
X7668333Y-17056571D01*
X7668333Y-17056571D02*
X7677857Y-17037524D01*
X7677857Y-17037524D02*
X7687381Y-17028000D01*
X7687381Y-17028000D02*
X7706429Y-17018476D01*
X7954048Y-17018476D02*
X7858810Y-17018476D01*
X7858810Y-17018476D02*
X7849286Y-17113714D01*
X7849286Y-17113714D02*
X7858810Y-17104190D01*
X7858810Y-17104190D02*
X7877857Y-17094667D01*
X7877857Y-17094667D02*
X7925476Y-17094667D01*
X7925476Y-17094667D02*
X7944524Y-17104190D01*
X7944524Y-17104190D02*
X7954048Y-17113714D01*
X7954048Y-17113714D02*
X7963571Y-17132762D01*
X7963571Y-17132762D02*
X7963571Y-17180381D01*
X7963571Y-17180381D02*
X7954048Y-17199429D01*
X7954048Y-17199429D02*
X7944524Y-17208952D01*
X7944524Y-17208952D02*
X7925476Y-17218476D01*
X7925476Y-17218476D02*
X7877857Y-17218476D01*
X7877857Y-17218476D02*
X7858810Y-17208952D01*
X7858810Y-17208952D02*
X7849286Y-17199429D01*
X8144524Y-17018476D02*
X8049286Y-17018476D01*
X8049286Y-17018476D02*
X8039762Y-17113714D01*
X8039762Y-17113714D02*
X8049286Y-17104190D01*
X8049286Y-17104190D02*
X8068333Y-17094667D01*
X8068333Y-17094667D02*
X8115952Y-17094667D01*
X8115952Y-17094667D02*
X8135000Y-17104190D01*
X8135000Y-17104190D02*
X8144524Y-17113714D01*
X8144524Y-17113714D02*
X8154048Y-17132762D01*
X8154048Y-17132762D02*
X8154048Y-17180381D01*
X8154048Y-17180381D02*
X8144524Y-17199429D01*
X8144524Y-17199429D02*
X8135000Y-17208952D01*
X8135000Y-17208952D02*
X8115952Y-17218476D01*
X8115952Y-17218476D02*
X8068333Y-17218476D01*
X8068333Y-17218476D02*
X8049286Y-17208952D01*
X8049286Y-17208952D02*
X8039762Y-17199429D01*
X8344524Y-17218476D02*
X8230238Y-17218476D01*
X8287381Y-17218476D02*
X8287381Y-17018476D01*
X8287381Y-17018476D02*
X8268333Y-17047048D01*
X8268333Y-17047048D02*
X8249286Y-17066095D01*
X8249286Y-17066095D02*
X8230238Y-17075619D01*
X8420714Y-17018476D02*
X8420714Y-17056571D01*
X8496905Y-17018476D02*
X8496905Y-17056571D01*
X8759762Y-17294667D02*
X8750238Y-17285143D01*
X8750238Y-17285143D02*
X8731191Y-17256571D01*
X8731191Y-17256571D02*
X8721667Y-17237524D01*
X8721667Y-17237524D02*
X8712143Y-17208952D01*
X8712143Y-17208952D02*
X8702619Y-17161333D01*
X8702619Y-17161333D02*
X8702619Y-17123238D01*
X8702619Y-17123238D02*
X8712143Y-17075619D01*
X8712143Y-17075619D02*
X8721667Y-17047048D01*
X8721667Y-17047048D02*
X8731191Y-17028000D01*
X8731191Y-17028000D02*
X8750238Y-16999429D01*
X8750238Y-16999429D02*
X8759762Y-16989905D01*
X8921667Y-17018476D02*
X8883572Y-17018476D01*
X8883572Y-17018476D02*
X8864524Y-17028000D01*
X8864524Y-17028000D02*
X8855000Y-17037524D01*
X8855000Y-17037524D02*
X8835953Y-17066095D01*
X8835953Y-17066095D02*
X8826429Y-17104190D01*
X8826429Y-17104190D02*
X8826429Y-17180381D01*
X8826429Y-17180381D02*
X8835953Y-17199429D01*
X8835953Y-17199429D02*
X8845476Y-17208952D01*
X8845476Y-17208952D02*
X8864524Y-17218476D01*
X8864524Y-17218476D02*
X8902619Y-17218476D01*
X8902619Y-17218476D02*
X8921667Y-17208952D01*
X8921667Y-17208952D02*
X8931191Y-17199429D01*
X8931191Y-17199429D02*
X8940714Y-17180381D01*
X8940714Y-17180381D02*
X8940714Y-17132762D01*
X8940714Y-17132762D02*
X8931191Y-17113714D01*
X8931191Y-17113714D02*
X8921667Y-17104190D01*
X8921667Y-17104190D02*
X8902619Y-17094667D01*
X8902619Y-17094667D02*
X8864524Y-17094667D01*
X8864524Y-17094667D02*
X8845476Y-17104190D01*
X8845476Y-17104190D02*
X8835953Y-17113714D01*
X8835953Y-17113714D02*
X8826429Y-17132762D01*
X9146429Y-17218476D02*
X9146429Y-17018476D01*
X9232143Y-17218476D02*
X9232143Y-17113714D01*
X9232143Y-17113714D02*
X9222619Y-17094667D01*
X9222619Y-17094667D02*
X9203572Y-17085143D01*
X9203572Y-17085143D02*
X9175000Y-17085143D01*
X9175000Y-17085143D02*
X9155953Y-17094667D01*
X9155953Y-17094667D02*
X9146429Y-17104190D01*
X9355953Y-17218476D02*
X9336905Y-17208952D01*
X9336905Y-17208952D02*
X9327381Y-17199429D01*
X9327381Y-17199429D02*
X9317857Y-17180381D01*
X9317857Y-17180381D02*
X9317857Y-17123238D01*
X9317857Y-17123238D02*
X9327381Y-17104190D01*
X9327381Y-17104190D02*
X9336905Y-17094667D01*
X9336905Y-17094667D02*
X9355953Y-17085143D01*
X9355953Y-17085143D02*
X9384524Y-17085143D01*
X9384524Y-17085143D02*
X9403572Y-17094667D01*
X9403572Y-17094667D02*
X9413095Y-17104190D01*
X9413095Y-17104190D02*
X9422619Y-17123238D01*
X9422619Y-17123238D02*
X9422619Y-17180381D01*
X9422619Y-17180381D02*
X9413095Y-17199429D01*
X9413095Y-17199429D02*
X9403572Y-17208952D01*
X9403572Y-17208952D02*
X9384524Y-17218476D01*
X9384524Y-17218476D02*
X9355953Y-17218476D01*
X9536905Y-17218476D02*
X9517857Y-17208952D01*
X9517857Y-17208952D02*
X9508334Y-17189905D01*
X9508334Y-17189905D02*
X9508334Y-17018476D01*
X9689286Y-17208952D02*
X9670238Y-17218476D01*
X9670238Y-17218476D02*
X9632143Y-17218476D01*
X9632143Y-17218476D02*
X9613095Y-17208952D01*
X9613095Y-17208952D02*
X9603572Y-17189905D01*
X9603572Y-17189905D02*
X9603572Y-17113714D01*
X9603572Y-17113714D02*
X9613095Y-17094667D01*
X9613095Y-17094667D02*
X9632143Y-17085143D01*
X9632143Y-17085143D02*
X9670238Y-17085143D01*
X9670238Y-17085143D02*
X9689286Y-17094667D01*
X9689286Y-17094667D02*
X9698810Y-17113714D01*
X9698810Y-17113714D02*
X9698810Y-17132762D01*
X9698810Y-17132762D02*
X9603572Y-17151810D01*
X9775000Y-17208952D02*
X9794048Y-17218476D01*
X9794048Y-17218476D02*
X9832143Y-17218476D01*
X9832143Y-17218476D02*
X9851191Y-17208952D01*
X9851191Y-17208952D02*
X9860715Y-17189905D01*
X9860715Y-17189905D02*
X9860715Y-17180381D01*
X9860715Y-17180381D02*
X9851191Y-17161333D01*
X9851191Y-17161333D02*
X9832143Y-17151810D01*
X9832143Y-17151810D02*
X9803572Y-17151810D01*
X9803572Y-17151810D02*
X9784524Y-17142286D01*
X9784524Y-17142286D02*
X9775000Y-17123238D01*
X9775000Y-17123238D02*
X9775000Y-17113714D01*
X9775000Y-17113714D02*
X9784524Y-17094667D01*
X9784524Y-17094667D02*
X9803572Y-17085143D01*
X9803572Y-17085143D02*
X9832143Y-17085143D01*
X9832143Y-17085143D02*
X9851191Y-17094667D01*
X9927381Y-17294667D02*
X9936905Y-17285143D01*
X9936905Y-17285143D02*
X9955953Y-17256571D01*
X9955953Y-17256571D02*
X9965476Y-17237524D01*
X9965476Y-17237524D02*
X9975000Y-17208952D01*
X9975000Y-17208952D02*
X9984524Y-17161333D01*
X9984524Y-17161333D02*
X9984524Y-17123238D01*
X9984524Y-17123238D02*
X9975000Y-17075619D01*
X9975000Y-17075619D02*
X9965476Y-17047048D01*
X9965476Y-17047048D02*
X9955953Y-17028000D01*
X9955953Y-17028000D02*
X9936905Y-16999429D01*
X9936905Y-16999429D02*
X9927381Y-16989905D01*
X10256905Y-17294667D02*
X10247381Y-17285143D01*
X10247381Y-17285143D02*
X10228334Y-17256571D01*
X10228334Y-17256571D02*
X10218810Y-17237524D01*
X10218810Y-17237524D02*
X10209286Y-17208952D01*
X10209286Y-17208952D02*
X10199762Y-17161333D01*
X10199762Y-17161333D02*
X10199762Y-17123238D01*
X10199762Y-17123238D02*
X10209286Y-17075619D01*
X10209286Y-17075619D02*
X10218810Y-17047048D01*
X10218810Y-17047048D02*
X10228334Y-17028000D01*
X10228334Y-17028000D02*
X10247381Y-16999429D01*
X10247381Y-16999429D02*
X10256905Y-16989905D01*
X10333095Y-17085143D02*
X10333095Y-17218476D01*
X10333095Y-17104190D02*
X10342619Y-17094667D01*
X10342619Y-17094667D02*
X10361667Y-17085143D01*
X10361667Y-17085143D02*
X10390238Y-17085143D01*
X10390238Y-17085143D02*
X10409286Y-17094667D01*
X10409286Y-17094667D02*
X10418810Y-17113714D01*
X10418810Y-17113714D02*
X10418810Y-17218476D01*
X10542619Y-17218476D02*
X10523572Y-17208952D01*
X10523572Y-17208952D02*
X10514048Y-17199429D01*
X10514048Y-17199429D02*
X10504524Y-17180381D01*
X10504524Y-17180381D02*
X10504524Y-17123238D01*
X10504524Y-17123238D02*
X10514048Y-17104190D01*
X10514048Y-17104190D02*
X10523572Y-17094667D01*
X10523572Y-17094667D02*
X10542619Y-17085143D01*
X10542619Y-17085143D02*
X10571191Y-17085143D01*
X10571191Y-17085143D02*
X10590238Y-17094667D01*
X10590238Y-17094667D02*
X10599762Y-17104190D01*
X10599762Y-17104190D02*
X10609286Y-17123238D01*
X10609286Y-17123238D02*
X10609286Y-17180381D01*
X10609286Y-17180381D02*
X10599762Y-17199429D01*
X10599762Y-17199429D02*
X10590238Y-17208952D01*
X10590238Y-17208952D02*
X10571191Y-17218476D01*
X10571191Y-17218476D02*
X10542619Y-17218476D01*
X10666429Y-17085143D02*
X10742619Y-17085143D01*
X10695000Y-17018476D02*
X10695000Y-17189905D01*
X10695000Y-17189905D02*
X10704524Y-17208952D01*
X10704524Y-17208952D02*
X10723572Y-17218476D01*
X10723572Y-17218476D02*
X10742619Y-17218476D01*
X10929286Y-17085143D02*
X10929286Y-17285143D01*
X10929286Y-17094667D02*
X10948334Y-17085143D01*
X10948334Y-17085143D02*
X10986429Y-17085143D01*
X10986429Y-17085143D02*
X11005476Y-17094667D01*
X11005476Y-17094667D02*
X11015000Y-17104190D01*
X11015000Y-17104190D02*
X11024524Y-17123238D01*
X11024524Y-17123238D02*
X11024524Y-17180381D01*
X11024524Y-17180381D02*
X11015000Y-17199429D01*
X11015000Y-17199429D02*
X11005476Y-17208952D01*
X11005476Y-17208952D02*
X10986429Y-17218476D01*
X10986429Y-17218476D02*
X10948334Y-17218476D01*
X10948334Y-17218476D02*
X10929286Y-17208952D01*
X11138810Y-17218476D02*
X11119762Y-17208952D01*
X11119762Y-17208952D02*
X11110238Y-17189905D01*
X11110238Y-17189905D02*
X11110238Y-17018476D01*
X11300714Y-17218476D02*
X11300714Y-17113714D01*
X11300714Y-17113714D02*
X11291191Y-17094667D01*
X11291191Y-17094667D02*
X11272143Y-17085143D01*
X11272143Y-17085143D02*
X11234048Y-17085143D01*
X11234048Y-17085143D02*
X11215000Y-17094667D01*
X11300714Y-17208952D02*
X11281667Y-17218476D01*
X11281667Y-17218476D02*
X11234048Y-17218476D01*
X11234048Y-17218476D02*
X11215000Y-17208952D01*
X11215000Y-17208952D02*
X11205476Y-17189905D01*
X11205476Y-17189905D02*
X11205476Y-17170857D01*
X11205476Y-17170857D02*
X11215000Y-17151810D01*
X11215000Y-17151810D02*
X11234048Y-17142286D01*
X11234048Y-17142286D02*
X11281667Y-17142286D01*
X11281667Y-17142286D02*
X11300714Y-17132762D01*
X11367381Y-17085143D02*
X11443572Y-17085143D01*
X11395953Y-17018476D02*
X11395953Y-17189905D01*
X11395953Y-17189905D02*
X11405476Y-17208952D01*
X11405476Y-17208952D02*
X11424524Y-17218476D01*
X11424524Y-17218476D02*
X11443572Y-17218476D01*
X11586429Y-17208952D02*
X11567381Y-17218476D01*
X11567381Y-17218476D02*
X11529286Y-17218476D01*
X11529286Y-17218476D02*
X11510238Y-17208952D01*
X11510238Y-17208952D02*
X11500714Y-17189905D01*
X11500714Y-17189905D02*
X11500714Y-17113714D01*
X11500714Y-17113714D02*
X11510238Y-17094667D01*
X11510238Y-17094667D02*
X11529286Y-17085143D01*
X11529286Y-17085143D02*
X11567381Y-17085143D01*
X11567381Y-17085143D02*
X11586429Y-17094667D01*
X11586429Y-17094667D02*
X11595953Y-17113714D01*
X11595953Y-17113714D02*
X11595953Y-17132762D01*
X11595953Y-17132762D02*
X11500714Y-17151810D01*
X11767381Y-17218476D02*
X11767381Y-17018476D01*
X11767381Y-17208952D02*
X11748334Y-17218476D01*
X11748334Y-17218476D02*
X11710238Y-17218476D01*
X11710238Y-17218476D02*
X11691191Y-17208952D01*
X11691191Y-17208952D02*
X11681667Y-17199429D01*
X11681667Y-17199429D02*
X11672143Y-17180381D01*
X11672143Y-17180381D02*
X11672143Y-17123238D01*
X11672143Y-17123238D02*
X11681667Y-17104190D01*
X11681667Y-17104190D02*
X11691191Y-17094667D01*
X11691191Y-17094667D02*
X11710238Y-17085143D01*
X11710238Y-17085143D02*
X11748334Y-17085143D01*
X11748334Y-17085143D02*
X11767381Y-17094667D01*
X11843572Y-17294667D02*
X11853095Y-17285143D01*
X11853095Y-17285143D02*
X11872143Y-17256571D01*
X11872143Y-17256571D02*
X11881667Y-17237524D01*
X11881667Y-17237524D02*
X11891191Y-17208952D01*
X11891191Y-17208952D02*
X11900714Y-17161333D01*
X11900714Y-17161333D02*
X11900714Y-17123238D01*
X11900714Y-17123238D02*
X11891191Y-17075619D01*
X11891191Y-17075619D02*
X11881667Y-17047048D01*
X11881667Y-17047048D02*
X11872143Y-17028000D01*
X11872143Y-17028000D02*
X11853095Y-16999429D01*
X11853095Y-16999429D02*
X11843572Y-16989905D01*
X5295000Y-17409000D02*
G75*
G03*
X5295000Y-17409000I-100000J0D01*
G01*
X5523571Y-17282476D02*
X5647381Y-17282476D01*
X5647381Y-17282476D02*
X5580714Y-17358667D01*
X5580714Y-17358667D02*
X5609286Y-17358667D01*
X5609286Y-17358667D02*
X5628333Y-17368190D01*
X5628333Y-17368190D02*
X5637857Y-17377714D01*
X5637857Y-17377714D02*
X5647381Y-17396762D01*
X5647381Y-17396762D02*
X5647381Y-17444381D01*
X5647381Y-17444381D02*
X5637857Y-17463429D01*
X5637857Y-17463429D02*
X5628333Y-17472952D01*
X5628333Y-17472952D02*
X5609286Y-17482476D01*
X5609286Y-17482476D02*
X5552143Y-17482476D01*
X5552143Y-17482476D02*
X5533095Y-17472952D01*
X5533095Y-17472952D02*
X5523571Y-17463429D01*
X5733095Y-17463429D02*
X5742619Y-17472952D01*
X5742619Y-17472952D02*
X5733095Y-17482476D01*
X5733095Y-17482476D02*
X5723571Y-17472952D01*
X5723571Y-17472952D02*
X5733095Y-17463429D01*
X5733095Y-17463429D02*
X5733095Y-17482476D01*
X5923571Y-17282476D02*
X5828333Y-17282476D01*
X5828333Y-17282476D02*
X5818809Y-17377714D01*
X5818809Y-17377714D02*
X5828333Y-17368190D01*
X5828333Y-17368190D02*
X5847381Y-17358667D01*
X5847381Y-17358667D02*
X5895000Y-17358667D01*
X5895000Y-17358667D02*
X5914048Y-17368190D01*
X5914048Y-17368190D02*
X5923571Y-17377714D01*
X5923571Y-17377714D02*
X5933095Y-17396762D01*
X5933095Y-17396762D02*
X5933095Y-17444381D01*
X5933095Y-17444381D02*
X5923571Y-17463429D01*
X5923571Y-17463429D02*
X5914048Y-17472952D01*
X5914048Y-17472952D02*
X5895000Y-17482476D01*
X5895000Y-17482476D02*
X5847381Y-17482476D01*
X5847381Y-17482476D02*
X5828333Y-17472952D01*
X5828333Y-17472952D02*
X5818809Y-17463429D01*
X6056905Y-17282476D02*
X6075952Y-17282476D01*
X6075952Y-17282476D02*
X6095000Y-17292000D01*
X6095000Y-17292000D02*
X6104524Y-17301524D01*
X6104524Y-17301524D02*
X6114048Y-17320571D01*
X6114048Y-17320571D02*
X6123571Y-17358667D01*
X6123571Y-17358667D02*
X6123571Y-17406286D01*
X6123571Y-17406286D02*
X6114048Y-17444381D01*
X6114048Y-17444381D02*
X6104524Y-17463429D01*
X6104524Y-17463429D02*
X6095000Y-17472952D01*
X6095000Y-17472952D02*
X6075952Y-17482476D01*
X6075952Y-17482476D02*
X6056905Y-17482476D01*
X6056905Y-17482476D02*
X6037857Y-17472952D01*
X6037857Y-17472952D02*
X6028333Y-17463429D01*
X6028333Y-17463429D02*
X6018809Y-17444381D01*
X6018809Y-17444381D02*
X6009286Y-17406286D01*
X6009286Y-17406286D02*
X6009286Y-17358667D01*
X6009286Y-17358667D02*
X6018809Y-17320571D01*
X6018809Y-17320571D02*
X6028333Y-17301524D01*
X6028333Y-17301524D02*
X6037857Y-17292000D01*
X6037857Y-17292000D02*
X6056905Y-17282476D01*
X6247381Y-17282476D02*
X6266429Y-17282476D01*
X6266429Y-17282476D02*
X6285476Y-17292000D01*
X6285476Y-17292000D02*
X6295000Y-17301524D01*
X6295000Y-17301524D02*
X6304524Y-17320571D01*
X6304524Y-17320571D02*
X6314048Y-17358667D01*
X6314048Y-17358667D02*
X6314048Y-17406286D01*
X6314048Y-17406286D02*
X6304524Y-17444381D01*
X6304524Y-17444381D02*
X6295000Y-17463429D01*
X6295000Y-17463429D02*
X6285476Y-17472952D01*
X6285476Y-17472952D02*
X6266429Y-17482476D01*
X6266429Y-17482476D02*
X6247381Y-17482476D01*
X6247381Y-17482476D02*
X6228333Y-17472952D01*
X6228333Y-17472952D02*
X6218809Y-17463429D01*
X6218809Y-17463429D02*
X6209286Y-17444381D01*
X6209286Y-17444381D02*
X6199762Y-17406286D01*
X6199762Y-17406286D02*
X6199762Y-17358667D01*
X6199762Y-17358667D02*
X6209286Y-17320571D01*
X6209286Y-17320571D02*
X6218809Y-17301524D01*
X6218809Y-17301524D02*
X6228333Y-17292000D01*
X6228333Y-17292000D02*
X6247381Y-17282476D01*
X6399762Y-17482476D02*
X6399762Y-17349143D01*
X6399762Y-17368190D02*
X6409286Y-17358667D01*
X6409286Y-17358667D02*
X6428333Y-17349143D01*
X6428333Y-17349143D02*
X6456905Y-17349143D01*
X6456905Y-17349143D02*
X6475952Y-17358667D01*
X6475952Y-17358667D02*
X6485476Y-17377714D01*
X6485476Y-17377714D02*
X6485476Y-17482476D01*
X6485476Y-17377714D02*
X6495000Y-17358667D01*
X6495000Y-17358667D02*
X6514048Y-17349143D01*
X6514048Y-17349143D02*
X6542619Y-17349143D01*
X6542619Y-17349143D02*
X6561667Y-17358667D01*
X6561667Y-17358667D02*
X6571190Y-17377714D01*
X6571190Y-17377714D02*
X6571190Y-17482476D01*
X6666429Y-17482476D02*
X6666429Y-17349143D01*
X6666429Y-17368190D02*
X6675952Y-17358667D01*
X6675952Y-17358667D02*
X6695000Y-17349143D01*
X6695000Y-17349143D02*
X6723571Y-17349143D01*
X6723571Y-17349143D02*
X6742619Y-17358667D01*
X6742619Y-17358667D02*
X6752143Y-17377714D01*
X6752143Y-17377714D02*
X6752143Y-17482476D01*
X6752143Y-17377714D02*
X6761667Y-17358667D01*
X6761667Y-17358667D02*
X6780714Y-17349143D01*
X6780714Y-17349143D02*
X6809286Y-17349143D01*
X6809286Y-17349143D02*
X6828333Y-17358667D01*
X6828333Y-17358667D02*
X6837857Y-17377714D01*
X6837857Y-17377714D02*
X6837857Y-17482476D01*
X7195952Y-17272952D02*
X7024524Y-17530095D01*
X7420714Y-17282476D02*
X7439762Y-17282476D01*
X7439762Y-17282476D02*
X7458810Y-17292000D01*
X7458810Y-17292000D02*
X7468333Y-17301524D01*
X7468333Y-17301524D02*
X7477857Y-17320571D01*
X7477857Y-17320571D02*
X7487381Y-17358667D01*
X7487381Y-17358667D02*
X7487381Y-17406286D01*
X7487381Y-17406286D02*
X7477857Y-17444381D01*
X7477857Y-17444381D02*
X7468333Y-17463429D01*
X7468333Y-17463429D02*
X7458810Y-17472952D01*
X7458810Y-17472952D02*
X7439762Y-17482476D01*
X7439762Y-17482476D02*
X7420714Y-17482476D01*
X7420714Y-17482476D02*
X7401667Y-17472952D01*
X7401667Y-17472952D02*
X7392143Y-17463429D01*
X7392143Y-17463429D02*
X7382619Y-17444381D01*
X7382619Y-17444381D02*
X7373095Y-17406286D01*
X7373095Y-17406286D02*
X7373095Y-17358667D01*
X7373095Y-17358667D02*
X7382619Y-17320571D01*
X7382619Y-17320571D02*
X7392143Y-17301524D01*
X7392143Y-17301524D02*
X7401667Y-17292000D01*
X7401667Y-17292000D02*
X7420714Y-17282476D01*
X7573095Y-17463429D02*
X7582619Y-17472952D01*
X7582619Y-17472952D02*
X7573095Y-17482476D01*
X7573095Y-17482476D02*
X7563571Y-17472952D01*
X7563571Y-17472952D02*
X7573095Y-17463429D01*
X7573095Y-17463429D02*
X7573095Y-17482476D01*
X7773095Y-17482476D02*
X7658810Y-17482476D01*
X7715952Y-17482476D02*
X7715952Y-17282476D01*
X7715952Y-17282476D02*
X7696905Y-17311048D01*
X7696905Y-17311048D02*
X7677857Y-17330095D01*
X7677857Y-17330095D02*
X7658810Y-17339619D01*
X7839762Y-17282476D02*
X7963571Y-17282476D01*
X7963571Y-17282476D02*
X7896905Y-17358667D01*
X7896905Y-17358667D02*
X7925476Y-17358667D01*
X7925476Y-17358667D02*
X7944524Y-17368190D01*
X7944524Y-17368190D02*
X7954048Y-17377714D01*
X7954048Y-17377714D02*
X7963571Y-17396762D01*
X7963571Y-17396762D02*
X7963571Y-17444381D01*
X7963571Y-17444381D02*
X7954048Y-17463429D01*
X7954048Y-17463429D02*
X7944524Y-17472952D01*
X7944524Y-17472952D02*
X7925476Y-17482476D01*
X7925476Y-17482476D02*
X7868333Y-17482476D01*
X7868333Y-17482476D02*
X7849286Y-17472952D01*
X7849286Y-17472952D02*
X7839762Y-17463429D01*
X8030238Y-17282476D02*
X8163571Y-17282476D01*
X8163571Y-17282476D02*
X8077857Y-17482476D01*
X8268333Y-17368190D02*
X8249286Y-17358667D01*
X8249286Y-17358667D02*
X8239762Y-17349143D01*
X8239762Y-17349143D02*
X8230238Y-17330095D01*
X8230238Y-17330095D02*
X8230238Y-17320571D01*
X8230238Y-17320571D02*
X8239762Y-17301524D01*
X8239762Y-17301524D02*
X8249286Y-17292000D01*
X8249286Y-17292000D02*
X8268333Y-17282476D01*
X8268333Y-17282476D02*
X8306429Y-17282476D01*
X8306429Y-17282476D02*
X8325476Y-17292000D01*
X8325476Y-17292000D02*
X8335000Y-17301524D01*
X8335000Y-17301524D02*
X8344524Y-17320571D01*
X8344524Y-17320571D02*
X8344524Y-17330095D01*
X8344524Y-17330095D02*
X8335000Y-17349143D01*
X8335000Y-17349143D02*
X8325476Y-17358667D01*
X8325476Y-17358667D02*
X8306429Y-17368190D01*
X8306429Y-17368190D02*
X8268333Y-17368190D01*
X8268333Y-17368190D02*
X8249286Y-17377714D01*
X8249286Y-17377714D02*
X8239762Y-17387238D01*
X8239762Y-17387238D02*
X8230238Y-17406286D01*
X8230238Y-17406286D02*
X8230238Y-17444381D01*
X8230238Y-17444381D02*
X8239762Y-17463429D01*
X8239762Y-17463429D02*
X8249286Y-17472952D01*
X8249286Y-17472952D02*
X8268333Y-17482476D01*
X8268333Y-17482476D02*
X8306429Y-17482476D01*
X8306429Y-17482476D02*
X8325476Y-17472952D01*
X8325476Y-17472952D02*
X8335000Y-17463429D01*
X8335000Y-17463429D02*
X8344524Y-17444381D01*
X8344524Y-17444381D02*
X8344524Y-17406286D01*
X8344524Y-17406286D02*
X8335000Y-17387238D01*
X8335000Y-17387238D02*
X8325476Y-17377714D01*
X8325476Y-17377714D02*
X8306429Y-17368190D01*
X8420714Y-17282476D02*
X8420714Y-17320571D01*
X8496905Y-17282476D02*
X8496905Y-17320571D01*
X8759762Y-17558667D02*
X8750238Y-17549143D01*
X8750238Y-17549143D02*
X8731191Y-17520571D01*
X8731191Y-17520571D02*
X8721667Y-17501524D01*
X8721667Y-17501524D02*
X8712143Y-17472952D01*
X8712143Y-17472952D02*
X8702619Y-17425333D01*
X8702619Y-17425333D02*
X8702619Y-17387238D01*
X8702619Y-17387238D02*
X8712143Y-17339619D01*
X8712143Y-17339619D02*
X8721667Y-17311048D01*
X8721667Y-17311048D02*
X8731191Y-17292000D01*
X8731191Y-17292000D02*
X8750238Y-17263429D01*
X8750238Y-17263429D02*
X8759762Y-17253905D01*
X8940714Y-17482476D02*
X8826429Y-17482476D01*
X8883572Y-17482476D02*
X8883572Y-17282476D01*
X8883572Y-17282476D02*
X8864524Y-17311048D01*
X8864524Y-17311048D02*
X8845476Y-17330095D01*
X8845476Y-17330095D02*
X8826429Y-17339619D01*
X9146429Y-17482476D02*
X9146429Y-17282476D01*
X9232143Y-17482476D02*
X9232143Y-17377714D01*
X9232143Y-17377714D02*
X9222619Y-17358667D01*
X9222619Y-17358667D02*
X9203572Y-17349143D01*
X9203572Y-17349143D02*
X9175000Y-17349143D01*
X9175000Y-17349143D02*
X9155953Y-17358667D01*
X9155953Y-17358667D02*
X9146429Y-17368190D01*
X9355953Y-17482476D02*
X9336905Y-17472952D01*
X9336905Y-17472952D02*
X9327381Y-17463429D01*
X9327381Y-17463429D02*
X9317857Y-17444381D01*
X9317857Y-17444381D02*
X9317857Y-17387238D01*
X9317857Y-17387238D02*
X9327381Y-17368190D01*
X9327381Y-17368190D02*
X9336905Y-17358667D01*
X9336905Y-17358667D02*
X9355953Y-17349143D01*
X9355953Y-17349143D02*
X9384524Y-17349143D01*
X9384524Y-17349143D02*
X9403572Y-17358667D01*
X9403572Y-17358667D02*
X9413095Y-17368190D01*
X9413095Y-17368190D02*
X9422619Y-17387238D01*
X9422619Y-17387238D02*
X9422619Y-17444381D01*
X9422619Y-17444381D02*
X9413095Y-17463429D01*
X9413095Y-17463429D02*
X9403572Y-17472952D01*
X9403572Y-17472952D02*
X9384524Y-17482476D01*
X9384524Y-17482476D02*
X9355953Y-17482476D01*
X9536905Y-17482476D02*
X9517857Y-17472952D01*
X9517857Y-17472952D02*
X9508334Y-17453905D01*
X9508334Y-17453905D02*
X9508334Y-17282476D01*
X9689286Y-17472952D02*
X9670238Y-17482476D01*
X9670238Y-17482476D02*
X9632143Y-17482476D01*
X9632143Y-17482476D02*
X9613095Y-17472952D01*
X9613095Y-17472952D02*
X9603572Y-17453905D01*
X9603572Y-17453905D02*
X9603572Y-17377714D01*
X9603572Y-17377714D02*
X9613095Y-17358667D01*
X9613095Y-17358667D02*
X9632143Y-17349143D01*
X9632143Y-17349143D02*
X9670238Y-17349143D01*
X9670238Y-17349143D02*
X9689286Y-17358667D01*
X9689286Y-17358667D02*
X9698810Y-17377714D01*
X9698810Y-17377714D02*
X9698810Y-17396762D01*
X9698810Y-17396762D02*
X9603572Y-17415810D01*
X9765476Y-17558667D02*
X9775000Y-17549143D01*
X9775000Y-17549143D02*
X9794048Y-17520571D01*
X9794048Y-17520571D02*
X9803572Y-17501524D01*
X9803572Y-17501524D02*
X9813095Y-17472952D01*
X9813095Y-17472952D02*
X9822619Y-17425333D01*
X9822619Y-17425333D02*
X9822619Y-17387238D01*
X9822619Y-17387238D02*
X9813095Y-17339619D01*
X9813095Y-17339619D02*
X9803572Y-17311048D01*
X9803572Y-17311048D02*
X9794048Y-17292000D01*
X9794048Y-17292000D02*
X9775000Y-17263429D01*
X9775000Y-17263429D02*
X9765476Y-17253905D01*
X10095000Y-17558667D02*
X10085476Y-17549143D01*
X10085476Y-17549143D02*
X10066429Y-17520571D01*
X10066429Y-17520571D02*
X10056905Y-17501524D01*
X10056905Y-17501524D02*
X10047381Y-17472952D01*
X10047381Y-17472952D02*
X10037857Y-17425333D01*
X10037857Y-17425333D02*
X10037857Y-17387238D01*
X10037857Y-17387238D02*
X10047381Y-17339619D01*
X10047381Y-17339619D02*
X10056905Y-17311048D01*
X10056905Y-17311048D02*
X10066429Y-17292000D01*
X10066429Y-17292000D02*
X10085476Y-17263429D01*
X10085476Y-17263429D02*
X10095000Y-17253905D01*
X10171191Y-17349143D02*
X10171191Y-17482476D01*
X10171191Y-17368190D02*
X10180714Y-17358667D01*
X10180714Y-17358667D02*
X10199762Y-17349143D01*
X10199762Y-17349143D02*
X10228334Y-17349143D01*
X10228334Y-17349143D02*
X10247381Y-17358667D01*
X10247381Y-17358667D02*
X10256905Y-17377714D01*
X10256905Y-17377714D02*
X10256905Y-17482476D01*
X10380714Y-17482476D02*
X10361667Y-17472952D01*
X10361667Y-17472952D02*
X10352143Y-17463429D01*
X10352143Y-17463429D02*
X10342619Y-17444381D01*
X10342619Y-17444381D02*
X10342619Y-17387238D01*
X10342619Y-17387238D02*
X10352143Y-17368190D01*
X10352143Y-17368190D02*
X10361667Y-17358667D01*
X10361667Y-17358667D02*
X10380714Y-17349143D01*
X10380714Y-17349143D02*
X10409286Y-17349143D01*
X10409286Y-17349143D02*
X10428334Y-17358667D01*
X10428334Y-17358667D02*
X10437857Y-17368190D01*
X10437857Y-17368190D02*
X10447381Y-17387238D01*
X10447381Y-17387238D02*
X10447381Y-17444381D01*
X10447381Y-17444381D02*
X10437857Y-17463429D01*
X10437857Y-17463429D02*
X10428334Y-17472952D01*
X10428334Y-17472952D02*
X10409286Y-17482476D01*
X10409286Y-17482476D02*
X10380714Y-17482476D01*
X10504524Y-17349143D02*
X10580714Y-17349143D01*
X10533095Y-17282476D02*
X10533095Y-17453905D01*
X10533095Y-17453905D02*
X10542619Y-17472952D01*
X10542619Y-17472952D02*
X10561667Y-17482476D01*
X10561667Y-17482476D02*
X10580714Y-17482476D01*
X10767381Y-17349143D02*
X10767381Y-17549143D01*
X10767381Y-17358667D02*
X10786429Y-17349143D01*
X10786429Y-17349143D02*
X10824524Y-17349143D01*
X10824524Y-17349143D02*
X10843572Y-17358667D01*
X10843572Y-17358667D02*
X10853095Y-17368190D01*
X10853095Y-17368190D02*
X10862619Y-17387238D01*
X10862619Y-17387238D02*
X10862619Y-17444381D01*
X10862619Y-17444381D02*
X10853095Y-17463429D01*
X10853095Y-17463429D02*
X10843572Y-17472952D01*
X10843572Y-17472952D02*
X10824524Y-17482476D01*
X10824524Y-17482476D02*
X10786429Y-17482476D01*
X10786429Y-17482476D02*
X10767381Y-17472952D01*
X10976905Y-17482476D02*
X10957857Y-17472952D01*
X10957857Y-17472952D02*
X10948334Y-17453905D01*
X10948334Y-17453905D02*
X10948334Y-17282476D01*
X11138810Y-17482476D02*
X11138810Y-17377714D01*
X11138810Y-17377714D02*
X11129286Y-17358667D01*
X11129286Y-17358667D02*
X11110238Y-17349143D01*
X11110238Y-17349143D02*
X11072143Y-17349143D01*
X11072143Y-17349143D02*
X11053095Y-17358667D01*
X11138810Y-17472952D02*
X11119762Y-17482476D01*
X11119762Y-17482476D02*
X11072143Y-17482476D01*
X11072143Y-17482476D02*
X11053095Y-17472952D01*
X11053095Y-17472952D02*
X11043572Y-17453905D01*
X11043572Y-17453905D02*
X11043572Y-17434857D01*
X11043572Y-17434857D02*
X11053095Y-17415810D01*
X11053095Y-17415810D02*
X11072143Y-17406286D01*
X11072143Y-17406286D02*
X11119762Y-17406286D01*
X11119762Y-17406286D02*
X11138810Y-17396762D01*
X11205476Y-17349143D02*
X11281667Y-17349143D01*
X11234048Y-17282476D02*
X11234048Y-17453905D01*
X11234048Y-17453905D02*
X11243572Y-17472952D01*
X11243572Y-17472952D02*
X11262619Y-17482476D01*
X11262619Y-17482476D02*
X11281667Y-17482476D01*
X11424524Y-17472952D02*
X11405476Y-17482476D01*
X11405476Y-17482476D02*
X11367381Y-17482476D01*
X11367381Y-17482476D02*
X11348333Y-17472952D01*
X11348333Y-17472952D02*
X11338810Y-17453905D01*
X11338810Y-17453905D02*
X11338810Y-17377714D01*
X11338810Y-17377714D02*
X11348333Y-17358667D01*
X11348333Y-17358667D02*
X11367381Y-17349143D01*
X11367381Y-17349143D02*
X11405476Y-17349143D01*
X11405476Y-17349143D02*
X11424524Y-17358667D01*
X11424524Y-17358667D02*
X11434048Y-17377714D01*
X11434048Y-17377714D02*
X11434048Y-17396762D01*
X11434048Y-17396762D02*
X11338810Y-17415810D01*
X11605476Y-17482476D02*
X11605476Y-17282476D01*
X11605476Y-17472952D02*
X11586429Y-17482476D01*
X11586429Y-17482476D02*
X11548333Y-17482476D01*
X11548333Y-17482476D02*
X11529286Y-17472952D01*
X11529286Y-17472952D02*
X11519762Y-17463429D01*
X11519762Y-17463429D02*
X11510238Y-17444381D01*
X11510238Y-17444381D02*
X11510238Y-17387238D01*
X11510238Y-17387238D02*
X11519762Y-17368190D01*
X11519762Y-17368190D02*
X11529286Y-17358667D01*
X11529286Y-17358667D02*
X11548333Y-17349143D01*
X11548333Y-17349143D02*
X11586429Y-17349143D01*
X11586429Y-17349143D02*
X11605476Y-17358667D01*
X11681667Y-17558667D02*
X11691191Y-17549143D01*
X11691191Y-17549143D02*
X11710238Y-17520571D01*
X11710238Y-17520571D02*
X11719762Y-17501524D01*
X11719762Y-17501524D02*
X11729286Y-17472952D01*
X11729286Y-17472952D02*
X11738810Y-17425333D01*
X11738810Y-17425333D02*
X11738810Y-17387238D01*
X11738810Y-17387238D02*
X11729286Y-17339619D01*
X11729286Y-17339619D02*
X11719762Y-17311048D01*
X11719762Y-17311048D02*
X11710238Y-17292000D01*
X11710238Y-17292000D02*
X11691191Y-17263429D01*
X11691191Y-17263429D02*
X11681667Y-17253905D01*
M02*
