%TF.GenerationSoftware,KiCad,Pcbnew,7.0.0-da2b9df05c~165~ubuntu22.04.1*%
%TF.CreationDate,2023-02-23T21:53:42-05:00*%
%TF.ProjectId,dso138,64736f31-3338-42e6-9b69-6361645f7063,rev?*%
%TF.SameCoordinates,Original*%
%TF.FileFunction,Legend,Top*%
%TF.FilePolarity,Positive*%
%FSLAX46Y46*%
G04 Gerber Fmt 4.6, Leading zero omitted, Abs format (unit mm)*
G04 Created by KiCad (PCBNEW 7.0.0-da2b9df05c~165~ubuntu22.04.1) date 2023-02-23 21:53:42*
%MOMM*%
%LPD*%
G01*
G04 APERTURE LIST*
G04 Aperture macros list*
%AMRoundRect*
0 Rectangle with rounded corners*
0 $1 Rounding radius*
0 $2 $3 $4 $5 $6 $7 $8 $9 X,Y pos of 4 corners*
0 Add a 4 corners polygon primitive as box body*
4,1,4,$2,$3,$4,$5,$6,$7,$8,$9,$2,$3,0*
0 Add four circle primitives for the rounded corners*
1,1,$1+$1,$2,$3*
1,1,$1+$1,$4,$5*
1,1,$1+$1,$6,$7*
1,1,$1+$1,$8,$9*
0 Add four rect primitives between the rounded corners*
20,1,$1+$1,$2,$3,$4,$5,0*
20,1,$1+$1,$4,$5,$6,$7,0*
20,1,$1+$1,$6,$7,$8,$9,0*
20,1,$1+$1,$8,$9,$2,$3,0*%
G04 Aperture macros list end*
%ADD10C,0.150000*%
%ADD11C,0.120000*%
%ADD12C,0.152400*%
%ADD13C,0.050800*%
%ADD14C,5.600000*%
%ADD15C,1.500000*%
%ADD16O,3.810000X2.006600*%
%ADD17R,1.800000X1.800000*%
%ADD18C,1.800000*%
%ADD19C,1.600000*%
%ADD20R,1.600000X1.600000*%
%ADD21RoundRect,0.250000X0.600000X-0.600000X0.600000X0.600000X-0.600000X0.600000X-0.600000X-0.600000X0*%
%ADD22C,1.700000*%
%ADD23RoundRect,0.250000X-0.600000X-0.750000X0.600000X-0.750000X0.600000X0.750000X-0.600000X0.750000X0*%
%ADD24O,1.700000X2.000000*%
%ADD25O,3.500000X3.500000*%
%ADD26R,2.000000X1.905000*%
%ADD27O,2.000000X1.905000*%
%ADD28R,2.200000X2.200000*%
%ADD29O,2.200000X2.200000*%
%ADD30O,1.600000X1.600000*%
%ADD31R,1.600000X2.400000*%
%ADD32O,1.600000X2.400000*%
%ADD33R,1.727200X1.727200*%
%ADD34O,1.727200X1.727200*%
G04 APERTURE END LIST*
D10*
%TO.C,TP3*%
X140927535Y-156826428D02*
X140927535Y-156397857D01*
X141677535Y-156612142D02*
X140927535Y-156612142D01*
X141677535Y-156147856D02*
X140927535Y-156147856D01*
X140927535Y-156147856D02*
X140927535Y-155862142D01*
X140927535Y-155862142D02*
X140963250Y-155790713D01*
X140963250Y-155790713D02*
X140998964Y-155754999D01*
X140998964Y-155754999D02*
X141070392Y-155719285D01*
X141070392Y-155719285D02*
X141177535Y-155719285D01*
X141177535Y-155719285D02*
X141248964Y-155754999D01*
X141248964Y-155754999D02*
X141284678Y-155790713D01*
X141284678Y-155790713D02*
X141320392Y-155862142D01*
X141320392Y-155862142D02*
X141320392Y-156147856D01*
X140927535Y-155469285D02*
X140927535Y-155004999D01*
X140927535Y-155004999D02*
X141213250Y-155254999D01*
X141213250Y-155254999D02*
X141213250Y-155147856D01*
X141213250Y-155147856D02*
X141248964Y-155076428D01*
X141248964Y-155076428D02*
X141284678Y-155040713D01*
X141284678Y-155040713D02*
X141356107Y-155004999D01*
X141356107Y-155004999D02*
X141534678Y-155004999D01*
X141534678Y-155004999D02*
X141606107Y-155040713D01*
X141606107Y-155040713D02*
X141641821Y-155076428D01*
X141641821Y-155076428D02*
X141677535Y-155147856D01*
X141677535Y-155147856D02*
X141677535Y-155362142D01*
X141677535Y-155362142D02*
X141641821Y-155433570D01*
X141641821Y-155433570D02*
X141606107Y-155469285D01*
X142407821Y-157201428D02*
X142407821Y-156630000D01*
X142693535Y-155880000D02*
X142693535Y-156308571D01*
X142693535Y-156094286D02*
X141943535Y-156094286D01*
X141943535Y-156094286D02*
X142050678Y-156165714D01*
X142050678Y-156165714D02*
X142122107Y-156237143D01*
X142122107Y-156237143D02*
X142157821Y-156308571D01*
X142014964Y-155594285D02*
X141979250Y-155558571D01*
X141979250Y-155558571D02*
X141943535Y-155487143D01*
X141943535Y-155487143D02*
X141943535Y-155308571D01*
X141943535Y-155308571D02*
X141979250Y-155237143D01*
X141979250Y-155237143D02*
X142014964Y-155201428D01*
X142014964Y-155201428D02*
X142086392Y-155165714D01*
X142086392Y-155165714D02*
X142157821Y-155165714D01*
X142157821Y-155165714D02*
X142264964Y-155201428D01*
X142264964Y-155201428D02*
X142693535Y-155630000D01*
X142693535Y-155630000D02*
X142693535Y-155165714D01*
X141943535Y-154951428D02*
X142693535Y-154701428D01*
X142693535Y-154701428D02*
X141943535Y-154451428D01*
%TO.C,SW5*%
X107562857Y-97816071D02*
X107670000Y-97851785D01*
X107670000Y-97851785D02*
X107848571Y-97851785D01*
X107848571Y-97851785D02*
X107920000Y-97816071D01*
X107920000Y-97816071D02*
X107955714Y-97780357D01*
X107955714Y-97780357D02*
X107991428Y-97708928D01*
X107991428Y-97708928D02*
X107991428Y-97637500D01*
X107991428Y-97637500D02*
X107955714Y-97566071D01*
X107955714Y-97566071D02*
X107920000Y-97530357D01*
X107920000Y-97530357D02*
X107848571Y-97494642D01*
X107848571Y-97494642D02*
X107705714Y-97458928D01*
X107705714Y-97458928D02*
X107634285Y-97423214D01*
X107634285Y-97423214D02*
X107598571Y-97387500D01*
X107598571Y-97387500D02*
X107562857Y-97316071D01*
X107562857Y-97316071D02*
X107562857Y-97244642D01*
X107562857Y-97244642D02*
X107598571Y-97173214D01*
X107598571Y-97173214D02*
X107634285Y-97137500D01*
X107634285Y-97137500D02*
X107705714Y-97101785D01*
X107705714Y-97101785D02*
X107884285Y-97101785D01*
X107884285Y-97101785D02*
X107991428Y-97137500D01*
X108241428Y-97101785D02*
X108420000Y-97851785D01*
X108420000Y-97851785D02*
X108562857Y-97316071D01*
X108562857Y-97316071D02*
X108705714Y-97851785D01*
X108705714Y-97851785D02*
X108884286Y-97101785D01*
X109527143Y-97101785D02*
X109170000Y-97101785D01*
X109170000Y-97101785D02*
X109134286Y-97458928D01*
X109134286Y-97458928D02*
X109170000Y-97423214D01*
X109170000Y-97423214D02*
X109241429Y-97387500D01*
X109241429Y-97387500D02*
X109420000Y-97387500D01*
X109420000Y-97387500D02*
X109491429Y-97423214D01*
X109491429Y-97423214D02*
X109527143Y-97458928D01*
X109527143Y-97458928D02*
X109562857Y-97530357D01*
X109562857Y-97530357D02*
X109562857Y-97708928D01*
X109562857Y-97708928D02*
X109527143Y-97780357D01*
X109527143Y-97780357D02*
X109491429Y-97816071D01*
X109491429Y-97816071D02*
X109420000Y-97851785D01*
X109420000Y-97851785D02*
X109241429Y-97851785D01*
X109241429Y-97851785D02*
X109170000Y-97816071D01*
X109170000Y-97816071D02*
X109134286Y-97780357D01*
X110214286Y-113039821D02*
X110321429Y-113075535D01*
X110321429Y-113075535D02*
X110500000Y-113075535D01*
X110500000Y-113075535D02*
X110571429Y-113039821D01*
X110571429Y-113039821D02*
X110607143Y-113004107D01*
X110607143Y-113004107D02*
X110642857Y-112932678D01*
X110642857Y-112932678D02*
X110642857Y-112861250D01*
X110642857Y-112861250D02*
X110607143Y-112789821D01*
X110607143Y-112789821D02*
X110571429Y-112754107D01*
X110571429Y-112754107D02*
X110500000Y-112718392D01*
X110500000Y-112718392D02*
X110357143Y-112682678D01*
X110357143Y-112682678D02*
X110285714Y-112646964D01*
X110285714Y-112646964D02*
X110250000Y-112611250D01*
X110250000Y-112611250D02*
X110214286Y-112539821D01*
X110214286Y-112539821D02*
X110214286Y-112468392D01*
X110214286Y-112468392D02*
X110250000Y-112396964D01*
X110250000Y-112396964D02*
X110285714Y-112361250D01*
X110285714Y-112361250D02*
X110357143Y-112325535D01*
X110357143Y-112325535D02*
X110535714Y-112325535D01*
X110535714Y-112325535D02*
X110642857Y-112361250D01*
X110892857Y-112325535D02*
X111071429Y-113075535D01*
X111071429Y-113075535D02*
X111214286Y-112539821D01*
X111214286Y-112539821D02*
X111357143Y-113075535D01*
X111357143Y-113075535D02*
X111535715Y-112325535D01*
X111642858Y-113146964D02*
X112214286Y-113146964D01*
X112392858Y-113075535D02*
X112392858Y-112325535D01*
X112392858Y-112325535D02*
X112678572Y-112325535D01*
X112678572Y-112325535D02*
X112750001Y-112361250D01*
X112750001Y-112361250D02*
X112785715Y-112396964D01*
X112785715Y-112396964D02*
X112821429Y-112468392D01*
X112821429Y-112468392D02*
X112821429Y-112575535D01*
X112821429Y-112575535D02*
X112785715Y-112646964D01*
X112785715Y-112646964D02*
X112750001Y-112682678D01*
X112750001Y-112682678D02*
X112678572Y-112718392D01*
X112678572Y-112718392D02*
X112392858Y-112718392D01*
X113464287Y-112575535D02*
X113464287Y-113075535D01*
X113142858Y-112575535D02*
X113142858Y-112968392D01*
X113142858Y-112968392D02*
X113178572Y-113039821D01*
X113178572Y-113039821D02*
X113250001Y-113075535D01*
X113250001Y-113075535D02*
X113357144Y-113075535D01*
X113357144Y-113075535D02*
X113428572Y-113039821D01*
X113428572Y-113039821D02*
X113464287Y-113004107D01*
X113785715Y-113039821D02*
X113857143Y-113075535D01*
X113857143Y-113075535D02*
X114000000Y-113075535D01*
X114000000Y-113075535D02*
X114071429Y-113039821D01*
X114071429Y-113039821D02*
X114107143Y-112968392D01*
X114107143Y-112968392D02*
X114107143Y-112932678D01*
X114107143Y-112932678D02*
X114071429Y-112861250D01*
X114071429Y-112861250D02*
X114000000Y-112825535D01*
X114000000Y-112825535D02*
X113892858Y-112825535D01*
X113892858Y-112825535D02*
X113821429Y-112789821D01*
X113821429Y-112789821D02*
X113785715Y-112718392D01*
X113785715Y-112718392D02*
X113785715Y-112682678D01*
X113785715Y-112682678D02*
X113821429Y-112611250D01*
X113821429Y-112611250D02*
X113892858Y-112575535D01*
X113892858Y-112575535D02*
X114000000Y-112575535D01*
X114000000Y-112575535D02*
X114071429Y-112611250D01*
X114428572Y-113075535D02*
X114428572Y-112325535D01*
X114750001Y-113075535D02*
X114750001Y-112682678D01*
X114750001Y-112682678D02*
X114714286Y-112611250D01*
X114714286Y-112611250D02*
X114642858Y-112575535D01*
X114642858Y-112575535D02*
X114535715Y-112575535D01*
X114535715Y-112575535D02*
X114464286Y-112611250D01*
X114464286Y-112611250D02*
X114428572Y-112646964D01*
%TO.C,SW4*%
X57562857Y-97816071D02*
X57670000Y-97851785D01*
X57670000Y-97851785D02*
X57848571Y-97851785D01*
X57848571Y-97851785D02*
X57920000Y-97816071D01*
X57920000Y-97816071D02*
X57955714Y-97780357D01*
X57955714Y-97780357D02*
X57991428Y-97708928D01*
X57991428Y-97708928D02*
X57991428Y-97637500D01*
X57991428Y-97637500D02*
X57955714Y-97566071D01*
X57955714Y-97566071D02*
X57920000Y-97530357D01*
X57920000Y-97530357D02*
X57848571Y-97494642D01*
X57848571Y-97494642D02*
X57705714Y-97458928D01*
X57705714Y-97458928D02*
X57634285Y-97423214D01*
X57634285Y-97423214D02*
X57598571Y-97387500D01*
X57598571Y-97387500D02*
X57562857Y-97316071D01*
X57562857Y-97316071D02*
X57562857Y-97244642D01*
X57562857Y-97244642D02*
X57598571Y-97173214D01*
X57598571Y-97173214D02*
X57634285Y-97137500D01*
X57634285Y-97137500D02*
X57705714Y-97101785D01*
X57705714Y-97101785D02*
X57884285Y-97101785D01*
X57884285Y-97101785D02*
X57991428Y-97137500D01*
X58241428Y-97101785D02*
X58420000Y-97851785D01*
X58420000Y-97851785D02*
X58562857Y-97316071D01*
X58562857Y-97316071D02*
X58705714Y-97851785D01*
X58705714Y-97851785D02*
X58884286Y-97101785D01*
X59491429Y-97351785D02*
X59491429Y-97851785D01*
X59312857Y-97066071D02*
X59134286Y-97601785D01*
X59134286Y-97601785D02*
X59598571Y-97601785D01*
X60214286Y-113039821D02*
X60321429Y-113075535D01*
X60321429Y-113075535D02*
X60500000Y-113075535D01*
X60500000Y-113075535D02*
X60571429Y-113039821D01*
X60571429Y-113039821D02*
X60607143Y-113004107D01*
X60607143Y-113004107D02*
X60642857Y-112932678D01*
X60642857Y-112932678D02*
X60642857Y-112861250D01*
X60642857Y-112861250D02*
X60607143Y-112789821D01*
X60607143Y-112789821D02*
X60571429Y-112754107D01*
X60571429Y-112754107D02*
X60500000Y-112718392D01*
X60500000Y-112718392D02*
X60357143Y-112682678D01*
X60357143Y-112682678D02*
X60285714Y-112646964D01*
X60285714Y-112646964D02*
X60250000Y-112611250D01*
X60250000Y-112611250D02*
X60214286Y-112539821D01*
X60214286Y-112539821D02*
X60214286Y-112468392D01*
X60214286Y-112468392D02*
X60250000Y-112396964D01*
X60250000Y-112396964D02*
X60285714Y-112361250D01*
X60285714Y-112361250D02*
X60357143Y-112325535D01*
X60357143Y-112325535D02*
X60535714Y-112325535D01*
X60535714Y-112325535D02*
X60642857Y-112361250D01*
X60892857Y-112325535D02*
X61071429Y-113075535D01*
X61071429Y-113075535D02*
X61214286Y-112539821D01*
X61214286Y-112539821D02*
X61357143Y-113075535D01*
X61357143Y-113075535D02*
X61535715Y-112325535D01*
X61642858Y-113146964D02*
X62214286Y-113146964D01*
X62392858Y-113075535D02*
X62392858Y-112325535D01*
X62392858Y-112325535D02*
X62678572Y-112325535D01*
X62678572Y-112325535D02*
X62750001Y-112361250D01*
X62750001Y-112361250D02*
X62785715Y-112396964D01*
X62785715Y-112396964D02*
X62821429Y-112468392D01*
X62821429Y-112468392D02*
X62821429Y-112575535D01*
X62821429Y-112575535D02*
X62785715Y-112646964D01*
X62785715Y-112646964D02*
X62750001Y-112682678D01*
X62750001Y-112682678D02*
X62678572Y-112718392D01*
X62678572Y-112718392D02*
X62392858Y-112718392D01*
X63464287Y-112575535D02*
X63464287Y-113075535D01*
X63142858Y-112575535D02*
X63142858Y-112968392D01*
X63142858Y-112968392D02*
X63178572Y-113039821D01*
X63178572Y-113039821D02*
X63250001Y-113075535D01*
X63250001Y-113075535D02*
X63357144Y-113075535D01*
X63357144Y-113075535D02*
X63428572Y-113039821D01*
X63428572Y-113039821D02*
X63464287Y-113004107D01*
X63785715Y-113039821D02*
X63857143Y-113075535D01*
X63857143Y-113075535D02*
X64000000Y-113075535D01*
X64000000Y-113075535D02*
X64071429Y-113039821D01*
X64071429Y-113039821D02*
X64107143Y-112968392D01*
X64107143Y-112968392D02*
X64107143Y-112932678D01*
X64107143Y-112932678D02*
X64071429Y-112861250D01*
X64071429Y-112861250D02*
X64000000Y-112825535D01*
X64000000Y-112825535D02*
X63892858Y-112825535D01*
X63892858Y-112825535D02*
X63821429Y-112789821D01*
X63821429Y-112789821D02*
X63785715Y-112718392D01*
X63785715Y-112718392D02*
X63785715Y-112682678D01*
X63785715Y-112682678D02*
X63821429Y-112611250D01*
X63821429Y-112611250D02*
X63892858Y-112575535D01*
X63892858Y-112575535D02*
X64000000Y-112575535D01*
X64000000Y-112575535D02*
X64071429Y-112611250D01*
X64428572Y-113075535D02*
X64428572Y-112325535D01*
X64750001Y-113075535D02*
X64750001Y-112682678D01*
X64750001Y-112682678D02*
X64714286Y-112611250D01*
X64714286Y-112611250D02*
X64642858Y-112575535D01*
X64642858Y-112575535D02*
X64535715Y-112575535D01*
X64535715Y-112575535D02*
X64464286Y-112611250D01*
X64464286Y-112611250D02*
X64428572Y-112646964D01*
%TO.C,D3*%
X124460428Y-84315535D02*
X124460428Y-83565535D01*
X124460428Y-83565535D02*
X124638999Y-83565535D01*
X124638999Y-83565535D02*
X124746142Y-83601250D01*
X124746142Y-83601250D02*
X124817571Y-83672678D01*
X124817571Y-83672678D02*
X124853285Y-83744107D01*
X124853285Y-83744107D02*
X124888999Y-83886964D01*
X124888999Y-83886964D02*
X124888999Y-83994107D01*
X124888999Y-83994107D02*
X124853285Y-84136964D01*
X124853285Y-84136964D02*
X124817571Y-84208392D01*
X124817571Y-84208392D02*
X124746142Y-84279821D01*
X124746142Y-84279821D02*
X124638999Y-84315535D01*
X124638999Y-84315535D02*
X124460428Y-84315535D01*
X125138999Y-83565535D02*
X125603285Y-83565535D01*
X125603285Y-83565535D02*
X125353285Y-83851250D01*
X125353285Y-83851250D02*
X125460428Y-83851250D01*
X125460428Y-83851250D02*
X125531857Y-83886964D01*
X125531857Y-83886964D02*
X125567571Y-83922678D01*
X125567571Y-83922678D02*
X125603285Y-83994107D01*
X125603285Y-83994107D02*
X125603285Y-84172678D01*
X125603285Y-84172678D02*
X125567571Y-84244107D01*
X125567571Y-84244107D02*
X125531857Y-84279821D01*
X125531857Y-84279821D02*
X125460428Y-84315535D01*
X125460428Y-84315535D02*
X125246142Y-84315535D01*
X125246142Y-84315535D02*
X125174714Y-84279821D01*
X125174714Y-84279821D02*
X125138999Y-84244107D01*
X120847571Y-88275535D02*
X120847571Y-87525535D01*
X121276142Y-88275535D02*
X120954714Y-87846964D01*
X121276142Y-87525535D02*
X120847571Y-87954107D01*
%TO.C,TP4*%
X140927535Y-94596428D02*
X140927535Y-94167857D01*
X141677535Y-94382142D02*
X140927535Y-94382142D01*
X141677535Y-93917856D02*
X140927535Y-93917856D01*
X140927535Y-93917856D02*
X140927535Y-93632142D01*
X140927535Y-93632142D02*
X140963250Y-93560713D01*
X140963250Y-93560713D02*
X140998964Y-93524999D01*
X140998964Y-93524999D02*
X141070392Y-93489285D01*
X141070392Y-93489285D02*
X141177535Y-93489285D01*
X141177535Y-93489285D02*
X141248964Y-93524999D01*
X141248964Y-93524999D02*
X141284678Y-93560713D01*
X141284678Y-93560713D02*
X141320392Y-93632142D01*
X141320392Y-93632142D02*
X141320392Y-93917856D01*
X141177535Y-92846428D02*
X141677535Y-92846428D01*
X140891821Y-93024999D02*
X141427535Y-93203570D01*
X141427535Y-93203570D02*
X141427535Y-92739285D01*
X142407821Y-94614285D02*
X142407821Y-94042857D01*
X142693535Y-94328571D02*
X142122107Y-94328571D01*
X142693535Y-93650000D02*
X142693535Y-93507143D01*
X142693535Y-93507143D02*
X142657821Y-93435714D01*
X142657821Y-93435714D02*
X142622107Y-93400000D01*
X142622107Y-93400000D02*
X142514964Y-93328571D01*
X142514964Y-93328571D02*
X142372107Y-93292857D01*
X142372107Y-93292857D02*
X142086392Y-93292857D01*
X142086392Y-93292857D02*
X142014964Y-93328571D01*
X142014964Y-93328571D02*
X141979250Y-93364286D01*
X141979250Y-93364286D02*
X141943535Y-93435714D01*
X141943535Y-93435714D02*
X141943535Y-93578571D01*
X141943535Y-93578571D02*
X141979250Y-93650000D01*
X141979250Y-93650000D02*
X142014964Y-93685714D01*
X142014964Y-93685714D02*
X142086392Y-93721428D01*
X142086392Y-93721428D02*
X142264964Y-93721428D01*
X142264964Y-93721428D02*
X142336392Y-93685714D01*
X142336392Y-93685714D02*
X142372107Y-93650000D01*
X142372107Y-93650000D02*
X142407821Y-93578571D01*
X142407821Y-93578571D02*
X142407821Y-93435714D01*
X142407821Y-93435714D02*
X142372107Y-93364286D01*
X142372107Y-93364286D02*
X142336392Y-93328571D01*
X142336392Y-93328571D02*
X142264964Y-93292857D01*
X141943535Y-93078571D02*
X142693535Y-92828571D01*
X142693535Y-92828571D02*
X141943535Y-92578571D01*
%TO.C,SW6*%
X82562857Y-97816071D02*
X82670000Y-97851785D01*
X82670000Y-97851785D02*
X82848571Y-97851785D01*
X82848571Y-97851785D02*
X82920000Y-97816071D01*
X82920000Y-97816071D02*
X82955714Y-97780357D01*
X82955714Y-97780357D02*
X82991428Y-97708928D01*
X82991428Y-97708928D02*
X82991428Y-97637500D01*
X82991428Y-97637500D02*
X82955714Y-97566071D01*
X82955714Y-97566071D02*
X82920000Y-97530357D01*
X82920000Y-97530357D02*
X82848571Y-97494642D01*
X82848571Y-97494642D02*
X82705714Y-97458928D01*
X82705714Y-97458928D02*
X82634285Y-97423214D01*
X82634285Y-97423214D02*
X82598571Y-97387500D01*
X82598571Y-97387500D02*
X82562857Y-97316071D01*
X82562857Y-97316071D02*
X82562857Y-97244642D01*
X82562857Y-97244642D02*
X82598571Y-97173214D01*
X82598571Y-97173214D02*
X82634285Y-97137500D01*
X82634285Y-97137500D02*
X82705714Y-97101785D01*
X82705714Y-97101785D02*
X82884285Y-97101785D01*
X82884285Y-97101785D02*
X82991428Y-97137500D01*
X83241428Y-97101785D02*
X83420000Y-97851785D01*
X83420000Y-97851785D02*
X83562857Y-97316071D01*
X83562857Y-97316071D02*
X83705714Y-97851785D01*
X83705714Y-97851785D02*
X83884286Y-97101785D01*
X84491429Y-97101785D02*
X84348571Y-97101785D01*
X84348571Y-97101785D02*
X84277143Y-97137500D01*
X84277143Y-97137500D02*
X84241429Y-97173214D01*
X84241429Y-97173214D02*
X84170000Y-97280357D01*
X84170000Y-97280357D02*
X84134286Y-97423214D01*
X84134286Y-97423214D02*
X84134286Y-97708928D01*
X84134286Y-97708928D02*
X84170000Y-97780357D01*
X84170000Y-97780357D02*
X84205714Y-97816071D01*
X84205714Y-97816071D02*
X84277143Y-97851785D01*
X84277143Y-97851785D02*
X84420000Y-97851785D01*
X84420000Y-97851785D02*
X84491429Y-97816071D01*
X84491429Y-97816071D02*
X84527143Y-97780357D01*
X84527143Y-97780357D02*
X84562857Y-97708928D01*
X84562857Y-97708928D02*
X84562857Y-97530357D01*
X84562857Y-97530357D02*
X84527143Y-97458928D01*
X84527143Y-97458928D02*
X84491429Y-97423214D01*
X84491429Y-97423214D02*
X84420000Y-97387500D01*
X84420000Y-97387500D02*
X84277143Y-97387500D01*
X84277143Y-97387500D02*
X84205714Y-97423214D01*
X84205714Y-97423214D02*
X84170000Y-97458928D01*
X84170000Y-97458928D02*
X84134286Y-97530357D01*
X85214286Y-113039821D02*
X85321429Y-113075535D01*
X85321429Y-113075535D02*
X85500000Y-113075535D01*
X85500000Y-113075535D02*
X85571429Y-113039821D01*
X85571429Y-113039821D02*
X85607143Y-113004107D01*
X85607143Y-113004107D02*
X85642857Y-112932678D01*
X85642857Y-112932678D02*
X85642857Y-112861250D01*
X85642857Y-112861250D02*
X85607143Y-112789821D01*
X85607143Y-112789821D02*
X85571429Y-112754107D01*
X85571429Y-112754107D02*
X85500000Y-112718392D01*
X85500000Y-112718392D02*
X85357143Y-112682678D01*
X85357143Y-112682678D02*
X85285714Y-112646964D01*
X85285714Y-112646964D02*
X85250000Y-112611250D01*
X85250000Y-112611250D02*
X85214286Y-112539821D01*
X85214286Y-112539821D02*
X85214286Y-112468392D01*
X85214286Y-112468392D02*
X85250000Y-112396964D01*
X85250000Y-112396964D02*
X85285714Y-112361250D01*
X85285714Y-112361250D02*
X85357143Y-112325535D01*
X85357143Y-112325535D02*
X85535714Y-112325535D01*
X85535714Y-112325535D02*
X85642857Y-112361250D01*
X85892857Y-112325535D02*
X86071429Y-113075535D01*
X86071429Y-113075535D02*
X86214286Y-112539821D01*
X86214286Y-112539821D02*
X86357143Y-113075535D01*
X86357143Y-113075535D02*
X86535715Y-112325535D01*
X86642858Y-113146964D02*
X87214286Y-113146964D01*
X87392858Y-113075535D02*
X87392858Y-112325535D01*
X87392858Y-112325535D02*
X87678572Y-112325535D01*
X87678572Y-112325535D02*
X87750001Y-112361250D01*
X87750001Y-112361250D02*
X87785715Y-112396964D01*
X87785715Y-112396964D02*
X87821429Y-112468392D01*
X87821429Y-112468392D02*
X87821429Y-112575535D01*
X87821429Y-112575535D02*
X87785715Y-112646964D01*
X87785715Y-112646964D02*
X87750001Y-112682678D01*
X87750001Y-112682678D02*
X87678572Y-112718392D01*
X87678572Y-112718392D02*
X87392858Y-112718392D01*
X88464287Y-112575535D02*
X88464287Y-113075535D01*
X88142858Y-112575535D02*
X88142858Y-112968392D01*
X88142858Y-112968392D02*
X88178572Y-113039821D01*
X88178572Y-113039821D02*
X88250001Y-113075535D01*
X88250001Y-113075535D02*
X88357144Y-113075535D01*
X88357144Y-113075535D02*
X88428572Y-113039821D01*
X88428572Y-113039821D02*
X88464287Y-113004107D01*
X88785715Y-113039821D02*
X88857143Y-113075535D01*
X88857143Y-113075535D02*
X89000000Y-113075535D01*
X89000000Y-113075535D02*
X89071429Y-113039821D01*
X89071429Y-113039821D02*
X89107143Y-112968392D01*
X89107143Y-112968392D02*
X89107143Y-112932678D01*
X89107143Y-112932678D02*
X89071429Y-112861250D01*
X89071429Y-112861250D02*
X89000000Y-112825535D01*
X89000000Y-112825535D02*
X88892858Y-112825535D01*
X88892858Y-112825535D02*
X88821429Y-112789821D01*
X88821429Y-112789821D02*
X88785715Y-112718392D01*
X88785715Y-112718392D02*
X88785715Y-112682678D01*
X88785715Y-112682678D02*
X88821429Y-112611250D01*
X88821429Y-112611250D02*
X88892858Y-112575535D01*
X88892858Y-112575535D02*
X89000000Y-112575535D01*
X89000000Y-112575535D02*
X89071429Y-112611250D01*
X89428572Y-113075535D02*
X89428572Y-112325535D01*
X89750001Y-113075535D02*
X89750001Y-112682678D01*
X89750001Y-112682678D02*
X89714286Y-112611250D01*
X89714286Y-112611250D02*
X89642858Y-112575535D01*
X89642858Y-112575535D02*
X89535715Y-112575535D01*
X89535715Y-112575535D02*
X89464286Y-112611250D01*
X89464286Y-112611250D02*
X89428572Y-112646964D01*
%TO.C,SW2*%
X85709467Y-139750161D02*
X85852324Y-139797780D01*
X85852324Y-139797780D02*
X86090419Y-139797780D01*
X86090419Y-139797780D02*
X86185657Y-139750161D01*
X86185657Y-139750161D02*
X86233276Y-139702542D01*
X86233276Y-139702542D02*
X86280895Y-139607304D01*
X86280895Y-139607304D02*
X86280895Y-139512066D01*
X86280895Y-139512066D02*
X86233276Y-139416828D01*
X86233276Y-139416828D02*
X86185657Y-139369209D01*
X86185657Y-139369209D02*
X86090419Y-139321590D01*
X86090419Y-139321590D02*
X85899943Y-139273971D01*
X85899943Y-139273971D02*
X85804705Y-139226352D01*
X85804705Y-139226352D02*
X85757086Y-139178733D01*
X85757086Y-139178733D02*
X85709467Y-139083495D01*
X85709467Y-139083495D02*
X85709467Y-138988257D01*
X85709467Y-138988257D02*
X85757086Y-138893019D01*
X85757086Y-138893019D02*
X85804705Y-138845400D01*
X85804705Y-138845400D02*
X85899943Y-138797780D01*
X85899943Y-138797780D02*
X86138038Y-138797780D01*
X86138038Y-138797780D02*
X86280895Y-138845400D01*
X86614229Y-138797780D02*
X86852324Y-139797780D01*
X86852324Y-139797780D02*
X87042800Y-139083495D01*
X87042800Y-139083495D02*
X87233276Y-139797780D01*
X87233276Y-139797780D02*
X87471372Y-138797780D01*
X87804705Y-138893019D02*
X87852324Y-138845400D01*
X87852324Y-138845400D02*
X87947562Y-138797780D01*
X87947562Y-138797780D02*
X88185657Y-138797780D01*
X88185657Y-138797780D02*
X88280895Y-138845400D01*
X88280895Y-138845400D02*
X88328514Y-138893019D01*
X88328514Y-138893019D02*
X88376133Y-138988257D01*
X88376133Y-138988257D02*
X88376133Y-139083495D01*
X88376133Y-139083495D02*
X88328514Y-139226352D01*
X88328514Y-139226352D02*
X87757086Y-139797780D01*
X87757086Y-139797780D02*
X88376133Y-139797780D01*
%TO.C,TP1*%
X140927535Y-144126428D02*
X140927535Y-143697857D01*
X141677535Y-143912142D02*
X140927535Y-143912142D01*
X141677535Y-143447856D02*
X140927535Y-143447856D01*
X140927535Y-143447856D02*
X140927535Y-143162142D01*
X140927535Y-143162142D02*
X140963250Y-143090713D01*
X140963250Y-143090713D02*
X140998964Y-143054999D01*
X140998964Y-143054999D02*
X141070392Y-143019285D01*
X141070392Y-143019285D02*
X141177535Y-143019285D01*
X141177535Y-143019285D02*
X141248964Y-143054999D01*
X141248964Y-143054999D02*
X141284678Y-143090713D01*
X141284678Y-143090713D02*
X141320392Y-143162142D01*
X141320392Y-143162142D02*
X141320392Y-143447856D01*
X141677535Y-142304999D02*
X141677535Y-142733570D01*
X141677535Y-142519285D02*
X140927535Y-142519285D01*
X140927535Y-142519285D02*
X141034678Y-142590713D01*
X141034678Y-142590713D02*
X141106107Y-142662142D01*
X141106107Y-142662142D02*
X141141821Y-142733570D01*
X142407821Y-144501428D02*
X142407821Y-143930000D01*
X142693535Y-144215714D02*
X142122107Y-144215714D01*
X142693535Y-143180000D02*
X142693535Y-143608571D01*
X142693535Y-143394286D02*
X141943535Y-143394286D01*
X141943535Y-143394286D02*
X142050678Y-143465714D01*
X142050678Y-143465714D02*
X142122107Y-143537143D01*
X142122107Y-143537143D02*
X142157821Y-143608571D01*
X142014964Y-142894285D02*
X141979250Y-142858571D01*
X141979250Y-142858571D02*
X141943535Y-142787143D01*
X141943535Y-142787143D02*
X141943535Y-142608571D01*
X141943535Y-142608571D02*
X141979250Y-142537143D01*
X141979250Y-142537143D02*
X142014964Y-142501428D01*
X142014964Y-142501428D02*
X142086392Y-142465714D01*
X142086392Y-142465714D02*
X142157821Y-142465714D01*
X142157821Y-142465714D02*
X142264964Y-142501428D01*
X142264964Y-142501428D02*
X142693535Y-142930000D01*
X142693535Y-142930000D02*
X142693535Y-142465714D01*
X141943535Y-142251428D02*
X142693535Y-142001428D01*
X142693535Y-142001428D02*
X141943535Y-141751428D01*
%TO.C,SW3*%
X110709467Y-139750161D02*
X110852324Y-139797780D01*
X110852324Y-139797780D02*
X111090419Y-139797780D01*
X111090419Y-139797780D02*
X111185657Y-139750161D01*
X111185657Y-139750161D02*
X111233276Y-139702542D01*
X111233276Y-139702542D02*
X111280895Y-139607304D01*
X111280895Y-139607304D02*
X111280895Y-139512066D01*
X111280895Y-139512066D02*
X111233276Y-139416828D01*
X111233276Y-139416828D02*
X111185657Y-139369209D01*
X111185657Y-139369209D02*
X111090419Y-139321590D01*
X111090419Y-139321590D02*
X110899943Y-139273971D01*
X110899943Y-139273971D02*
X110804705Y-139226352D01*
X110804705Y-139226352D02*
X110757086Y-139178733D01*
X110757086Y-139178733D02*
X110709467Y-139083495D01*
X110709467Y-139083495D02*
X110709467Y-138988257D01*
X110709467Y-138988257D02*
X110757086Y-138893019D01*
X110757086Y-138893019D02*
X110804705Y-138845400D01*
X110804705Y-138845400D02*
X110899943Y-138797780D01*
X110899943Y-138797780D02*
X111138038Y-138797780D01*
X111138038Y-138797780D02*
X111280895Y-138845400D01*
X111614229Y-138797780D02*
X111852324Y-139797780D01*
X111852324Y-139797780D02*
X112042800Y-139083495D01*
X112042800Y-139083495D02*
X112233276Y-139797780D01*
X112233276Y-139797780D02*
X112471372Y-138797780D01*
X112757086Y-138797780D02*
X113376133Y-138797780D01*
X113376133Y-138797780D02*
X113042800Y-139178733D01*
X113042800Y-139178733D02*
X113185657Y-139178733D01*
X113185657Y-139178733D02*
X113280895Y-139226352D01*
X113280895Y-139226352D02*
X113328514Y-139273971D01*
X113328514Y-139273971D02*
X113376133Y-139369209D01*
X113376133Y-139369209D02*
X113376133Y-139607304D01*
X113376133Y-139607304D02*
X113328514Y-139702542D01*
X113328514Y-139702542D02*
X113280895Y-139750161D01*
X113280895Y-139750161D02*
X113185657Y-139797780D01*
X113185657Y-139797780D02*
X112899943Y-139797780D01*
X112899943Y-139797780D02*
X112804705Y-139750161D01*
X112804705Y-139750161D02*
X112757086Y-139702542D01*
%TO.C,SW7*%
X132562857Y-97816071D02*
X132670000Y-97851785D01*
X132670000Y-97851785D02*
X132848571Y-97851785D01*
X132848571Y-97851785D02*
X132920000Y-97816071D01*
X132920000Y-97816071D02*
X132955714Y-97780357D01*
X132955714Y-97780357D02*
X132991428Y-97708928D01*
X132991428Y-97708928D02*
X132991428Y-97637500D01*
X132991428Y-97637500D02*
X132955714Y-97566071D01*
X132955714Y-97566071D02*
X132920000Y-97530357D01*
X132920000Y-97530357D02*
X132848571Y-97494642D01*
X132848571Y-97494642D02*
X132705714Y-97458928D01*
X132705714Y-97458928D02*
X132634285Y-97423214D01*
X132634285Y-97423214D02*
X132598571Y-97387500D01*
X132598571Y-97387500D02*
X132562857Y-97316071D01*
X132562857Y-97316071D02*
X132562857Y-97244642D01*
X132562857Y-97244642D02*
X132598571Y-97173214D01*
X132598571Y-97173214D02*
X132634285Y-97137500D01*
X132634285Y-97137500D02*
X132705714Y-97101785D01*
X132705714Y-97101785D02*
X132884285Y-97101785D01*
X132884285Y-97101785D02*
X132991428Y-97137500D01*
X133241428Y-97101785D02*
X133420000Y-97851785D01*
X133420000Y-97851785D02*
X133562857Y-97316071D01*
X133562857Y-97316071D02*
X133705714Y-97851785D01*
X133705714Y-97851785D02*
X133884286Y-97101785D01*
X134098571Y-97101785D02*
X134598571Y-97101785D01*
X134598571Y-97101785D02*
X134277143Y-97851785D01*
X135214286Y-113039821D02*
X135321429Y-113075535D01*
X135321429Y-113075535D02*
X135500000Y-113075535D01*
X135500000Y-113075535D02*
X135571429Y-113039821D01*
X135571429Y-113039821D02*
X135607143Y-113004107D01*
X135607143Y-113004107D02*
X135642857Y-112932678D01*
X135642857Y-112932678D02*
X135642857Y-112861250D01*
X135642857Y-112861250D02*
X135607143Y-112789821D01*
X135607143Y-112789821D02*
X135571429Y-112754107D01*
X135571429Y-112754107D02*
X135500000Y-112718392D01*
X135500000Y-112718392D02*
X135357143Y-112682678D01*
X135357143Y-112682678D02*
X135285714Y-112646964D01*
X135285714Y-112646964D02*
X135250000Y-112611250D01*
X135250000Y-112611250D02*
X135214286Y-112539821D01*
X135214286Y-112539821D02*
X135214286Y-112468392D01*
X135214286Y-112468392D02*
X135250000Y-112396964D01*
X135250000Y-112396964D02*
X135285714Y-112361250D01*
X135285714Y-112361250D02*
X135357143Y-112325535D01*
X135357143Y-112325535D02*
X135535714Y-112325535D01*
X135535714Y-112325535D02*
X135642857Y-112361250D01*
X135892857Y-112325535D02*
X136071429Y-113075535D01*
X136071429Y-113075535D02*
X136214286Y-112539821D01*
X136214286Y-112539821D02*
X136357143Y-113075535D01*
X136357143Y-113075535D02*
X136535715Y-112325535D01*
X136642858Y-113146964D02*
X137214286Y-113146964D01*
X137392858Y-113075535D02*
X137392858Y-112325535D01*
X137392858Y-112325535D02*
X137678572Y-112325535D01*
X137678572Y-112325535D02*
X137750001Y-112361250D01*
X137750001Y-112361250D02*
X137785715Y-112396964D01*
X137785715Y-112396964D02*
X137821429Y-112468392D01*
X137821429Y-112468392D02*
X137821429Y-112575535D01*
X137821429Y-112575535D02*
X137785715Y-112646964D01*
X137785715Y-112646964D02*
X137750001Y-112682678D01*
X137750001Y-112682678D02*
X137678572Y-112718392D01*
X137678572Y-112718392D02*
X137392858Y-112718392D01*
X138464287Y-112575535D02*
X138464287Y-113075535D01*
X138142858Y-112575535D02*
X138142858Y-112968392D01*
X138142858Y-112968392D02*
X138178572Y-113039821D01*
X138178572Y-113039821D02*
X138250001Y-113075535D01*
X138250001Y-113075535D02*
X138357144Y-113075535D01*
X138357144Y-113075535D02*
X138428572Y-113039821D01*
X138428572Y-113039821D02*
X138464287Y-113004107D01*
X138785715Y-113039821D02*
X138857143Y-113075535D01*
X138857143Y-113075535D02*
X139000000Y-113075535D01*
X139000000Y-113075535D02*
X139071429Y-113039821D01*
X139071429Y-113039821D02*
X139107143Y-112968392D01*
X139107143Y-112968392D02*
X139107143Y-112932678D01*
X139107143Y-112932678D02*
X139071429Y-112861250D01*
X139071429Y-112861250D02*
X139000000Y-112825535D01*
X139000000Y-112825535D02*
X138892858Y-112825535D01*
X138892858Y-112825535D02*
X138821429Y-112789821D01*
X138821429Y-112789821D02*
X138785715Y-112718392D01*
X138785715Y-112718392D02*
X138785715Y-112682678D01*
X138785715Y-112682678D02*
X138821429Y-112611250D01*
X138821429Y-112611250D02*
X138892858Y-112575535D01*
X138892858Y-112575535D02*
X139000000Y-112575535D01*
X139000000Y-112575535D02*
X139071429Y-112611250D01*
X139428572Y-113075535D02*
X139428572Y-112325535D01*
X139750001Y-113075535D02*
X139750001Y-112682678D01*
X139750001Y-112682678D02*
X139714286Y-112611250D01*
X139714286Y-112611250D02*
X139642858Y-112575535D01*
X139642858Y-112575535D02*
X139535715Y-112575535D01*
X139535715Y-112575535D02*
X139464286Y-112611250D01*
X139464286Y-112611250D02*
X139428572Y-112646964D01*
%TO.C,SW1*%
X60709467Y-139750161D02*
X60852324Y-139797780D01*
X60852324Y-139797780D02*
X61090419Y-139797780D01*
X61090419Y-139797780D02*
X61185657Y-139750161D01*
X61185657Y-139750161D02*
X61233276Y-139702542D01*
X61233276Y-139702542D02*
X61280895Y-139607304D01*
X61280895Y-139607304D02*
X61280895Y-139512066D01*
X61280895Y-139512066D02*
X61233276Y-139416828D01*
X61233276Y-139416828D02*
X61185657Y-139369209D01*
X61185657Y-139369209D02*
X61090419Y-139321590D01*
X61090419Y-139321590D02*
X60899943Y-139273971D01*
X60899943Y-139273971D02*
X60804705Y-139226352D01*
X60804705Y-139226352D02*
X60757086Y-139178733D01*
X60757086Y-139178733D02*
X60709467Y-139083495D01*
X60709467Y-139083495D02*
X60709467Y-138988257D01*
X60709467Y-138988257D02*
X60757086Y-138893019D01*
X60757086Y-138893019D02*
X60804705Y-138845400D01*
X60804705Y-138845400D02*
X60899943Y-138797780D01*
X60899943Y-138797780D02*
X61138038Y-138797780D01*
X61138038Y-138797780D02*
X61280895Y-138845400D01*
X61614229Y-138797780D02*
X61852324Y-139797780D01*
X61852324Y-139797780D02*
X62042800Y-139083495D01*
X62042800Y-139083495D02*
X62233276Y-139797780D01*
X62233276Y-139797780D02*
X62471372Y-138797780D01*
X63376133Y-139797780D02*
X62804705Y-139797780D01*
X63090419Y-139797780D02*
X63090419Y-138797780D01*
X63090419Y-138797780D02*
X62995181Y-138940638D01*
X62995181Y-138940638D02*
X62899943Y-139035876D01*
X62899943Y-139035876D02*
X62804705Y-139083495D01*
%TO.C,TP2*%
X140927535Y-150476428D02*
X140927535Y-150047857D01*
X141677535Y-150262142D02*
X140927535Y-150262142D01*
X141677535Y-149797856D02*
X140927535Y-149797856D01*
X140927535Y-149797856D02*
X140927535Y-149512142D01*
X140927535Y-149512142D02*
X140963250Y-149440713D01*
X140963250Y-149440713D02*
X140998964Y-149404999D01*
X140998964Y-149404999D02*
X141070392Y-149369285D01*
X141070392Y-149369285D02*
X141177535Y-149369285D01*
X141177535Y-149369285D02*
X141248964Y-149404999D01*
X141248964Y-149404999D02*
X141284678Y-149440713D01*
X141284678Y-149440713D02*
X141320392Y-149512142D01*
X141320392Y-149512142D02*
X141320392Y-149797856D01*
X140998964Y-149083570D02*
X140963250Y-149047856D01*
X140963250Y-149047856D02*
X140927535Y-148976428D01*
X140927535Y-148976428D02*
X140927535Y-148797856D01*
X140927535Y-148797856D02*
X140963250Y-148726428D01*
X140963250Y-148726428D02*
X140998964Y-148690713D01*
X140998964Y-148690713D02*
X141070392Y-148654999D01*
X141070392Y-148654999D02*
X141141821Y-148654999D01*
X141141821Y-148654999D02*
X141248964Y-148690713D01*
X141248964Y-148690713D02*
X141677535Y-149119285D01*
X141677535Y-149119285D02*
X141677535Y-148654999D01*
X141979250Y-150101428D02*
X141943535Y-150172857D01*
X141943535Y-150172857D02*
X141943535Y-150279999D01*
X141943535Y-150279999D02*
X141979250Y-150387142D01*
X141979250Y-150387142D02*
X142050678Y-150458571D01*
X142050678Y-150458571D02*
X142122107Y-150494285D01*
X142122107Y-150494285D02*
X142264964Y-150529999D01*
X142264964Y-150529999D02*
X142372107Y-150529999D01*
X142372107Y-150529999D02*
X142514964Y-150494285D01*
X142514964Y-150494285D02*
X142586392Y-150458571D01*
X142586392Y-150458571D02*
X142657821Y-150387142D01*
X142657821Y-150387142D02*
X142693535Y-150279999D01*
X142693535Y-150279999D02*
X142693535Y-150208571D01*
X142693535Y-150208571D02*
X142657821Y-150101428D01*
X142657821Y-150101428D02*
X142622107Y-150065714D01*
X142622107Y-150065714D02*
X142372107Y-150065714D01*
X142372107Y-150065714D02*
X142372107Y-150208571D01*
X142693535Y-149744285D02*
X141943535Y-149744285D01*
X141943535Y-149744285D02*
X142693535Y-149315714D01*
X142693535Y-149315714D02*
X141943535Y-149315714D01*
X142693535Y-148958571D02*
X141943535Y-148958571D01*
X141943535Y-148958571D02*
X141943535Y-148780000D01*
X141943535Y-148780000D02*
X141979250Y-148672857D01*
X141979250Y-148672857D02*
X142050678Y-148601428D01*
X142050678Y-148601428D02*
X142122107Y-148565714D01*
X142122107Y-148565714D02*
X142264964Y-148530000D01*
X142264964Y-148530000D02*
X142372107Y-148530000D01*
X142372107Y-148530000D02*
X142514964Y-148565714D01*
X142514964Y-148565714D02*
X142586392Y-148601428D01*
X142586392Y-148601428D02*
X142657821Y-148672857D01*
X142657821Y-148672857D02*
X142693535Y-148780000D01*
X142693535Y-148780000D02*
X142693535Y-148958571D01*
%TO.C,SW8*%
X132562857Y-127816071D02*
X132670000Y-127851785D01*
X132670000Y-127851785D02*
X132848571Y-127851785D01*
X132848571Y-127851785D02*
X132920000Y-127816071D01*
X132920000Y-127816071D02*
X132955714Y-127780357D01*
X132955714Y-127780357D02*
X132991428Y-127708928D01*
X132991428Y-127708928D02*
X132991428Y-127637500D01*
X132991428Y-127637500D02*
X132955714Y-127566071D01*
X132955714Y-127566071D02*
X132920000Y-127530357D01*
X132920000Y-127530357D02*
X132848571Y-127494642D01*
X132848571Y-127494642D02*
X132705714Y-127458928D01*
X132705714Y-127458928D02*
X132634285Y-127423214D01*
X132634285Y-127423214D02*
X132598571Y-127387500D01*
X132598571Y-127387500D02*
X132562857Y-127316071D01*
X132562857Y-127316071D02*
X132562857Y-127244642D01*
X132562857Y-127244642D02*
X132598571Y-127173214D01*
X132598571Y-127173214D02*
X132634285Y-127137500D01*
X132634285Y-127137500D02*
X132705714Y-127101785D01*
X132705714Y-127101785D02*
X132884285Y-127101785D01*
X132884285Y-127101785D02*
X132991428Y-127137500D01*
X133241428Y-127101785D02*
X133420000Y-127851785D01*
X133420000Y-127851785D02*
X133562857Y-127316071D01*
X133562857Y-127316071D02*
X133705714Y-127851785D01*
X133705714Y-127851785D02*
X133884286Y-127101785D01*
X134277143Y-127423214D02*
X134205714Y-127387500D01*
X134205714Y-127387500D02*
X134170000Y-127351785D01*
X134170000Y-127351785D02*
X134134286Y-127280357D01*
X134134286Y-127280357D02*
X134134286Y-127244642D01*
X134134286Y-127244642D02*
X134170000Y-127173214D01*
X134170000Y-127173214D02*
X134205714Y-127137500D01*
X134205714Y-127137500D02*
X134277143Y-127101785D01*
X134277143Y-127101785D02*
X134420000Y-127101785D01*
X134420000Y-127101785D02*
X134491429Y-127137500D01*
X134491429Y-127137500D02*
X134527143Y-127173214D01*
X134527143Y-127173214D02*
X134562857Y-127244642D01*
X134562857Y-127244642D02*
X134562857Y-127280357D01*
X134562857Y-127280357D02*
X134527143Y-127351785D01*
X134527143Y-127351785D02*
X134491429Y-127387500D01*
X134491429Y-127387500D02*
X134420000Y-127423214D01*
X134420000Y-127423214D02*
X134277143Y-127423214D01*
X134277143Y-127423214D02*
X134205714Y-127458928D01*
X134205714Y-127458928D02*
X134170000Y-127494642D01*
X134170000Y-127494642D02*
X134134286Y-127566071D01*
X134134286Y-127566071D02*
X134134286Y-127708928D01*
X134134286Y-127708928D02*
X134170000Y-127780357D01*
X134170000Y-127780357D02*
X134205714Y-127816071D01*
X134205714Y-127816071D02*
X134277143Y-127851785D01*
X134277143Y-127851785D02*
X134420000Y-127851785D01*
X134420000Y-127851785D02*
X134491429Y-127816071D01*
X134491429Y-127816071D02*
X134527143Y-127780357D01*
X134527143Y-127780357D02*
X134562857Y-127708928D01*
X134562857Y-127708928D02*
X134562857Y-127566071D01*
X134562857Y-127566071D02*
X134527143Y-127494642D01*
X134527143Y-127494642D02*
X134491429Y-127458928D01*
X134491429Y-127458928D02*
X134420000Y-127423214D01*
X135214286Y-143039821D02*
X135321429Y-143075535D01*
X135321429Y-143075535D02*
X135500000Y-143075535D01*
X135500000Y-143075535D02*
X135571429Y-143039821D01*
X135571429Y-143039821D02*
X135607143Y-143004107D01*
X135607143Y-143004107D02*
X135642857Y-142932678D01*
X135642857Y-142932678D02*
X135642857Y-142861250D01*
X135642857Y-142861250D02*
X135607143Y-142789821D01*
X135607143Y-142789821D02*
X135571429Y-142754107D01*
X135571429Y-142754107D02*
X135500000Y-142718392D01*
X135500000Y-142718392D02*
X135357143Y-142682678D01*
X135357143Y-142682678D02*
X135285714Y-142646964D01*
X135285714Y-142646964D02*
X135250000Y-142611250D01*
X135250000Y-142611250D02*
X135214286Y-142539821D01*
X135214286Y-142539821D02*
X135214286Y-142468392D01*
X135214286Y-142468392D02*
X135250000Y-142396964D01*
X135250000Y-142396964D02*
X135285714Y-142361250D01*
X135285714Y-142361250D02*
X135357143Y-142325535D01*
X135357143Y-142325535D02*
X135535714Y-142325535D01*
X135535714Y-142325535D02*
X135642857Y-142361250D01*
X135892857Y-142325535D02*
X136071429Y-143075535D01*
X136071429Y-143075535D02*
X136214286Y-142539821D01*
X136214286Y-142539821D02*
X136357143Y-143075535D01*
X136357143Y-143075535D02*
X136535715Y-142325535D01*
X136642858Y-143146964D02*
X137214286Y-143146964D01*
X137392858Y-143075535D02*
X137392858Y-142325535D01*
X137392858Y-142325535D02*
X137678572Y-142325535D01*
X137678572Y-142325535D02*
X137750001Y-142361250D01*
X137750001Y-142361250D02*
X137785715Y-142396964D01*
X137785715Y-142396964D02*
X137821429Y-142468392D01*
X137821429Y-142468392D02*
X137821429Y-142575535D01*
X137821429Y-142575535D02*
X137785715Y-142646964D01*
X137785715Y-142646964D02*
X137750001Y-142682678D01*
X137750001Y-142682678D02*
X137678572Y-142718392D01*
X137678572Y-142718392D02*
X137392858Y-142718392D01*
X138464287Y-142575535D02*
X138464287Y-143075535D01*
X138142858Y-142575535D02*
X138142858Y-142968392D01*
X138142858Y-142968392D02*
X138178572Y-143039821D01*
X138178572Y-143039821D02*
X138250001Y-143075535D01*
X138250001Y-143075535D02*
X138357144Y-143075535D01*
X138357144Y-143075535D02*
X138428572Y-143039821D01*
X138428572Y-143039821D02*
X138464287Y-143004107D01*
X138785715Y-143039821D02*
X138857143Y-143075535D01*
X138857143Y-143075535D02*
X139000000Y-143075535D01*
X139000000Y-143075535D02*
X139071429Y-143039821D01*
X139071429Y-143039821D02*
X139107143Y-142968392D01*
X139107143Y-142968392D02*
X139107143Y-142932678D01*
X139107143Y-142932678D02*
X139071429Y-142861250D01*
X139071429Y-142861250D02*
X139000000Y-142825535D01*
X139000000Y-142825535D02*
X138892858Y-142825535D01*
X138892858Y-142825535D02*
X138821429Y-142789821D01*
X138821429Y-142789821D02*
X138785715Y-142718392D01*
X138785715Y-142718392D02*
X138785715Y-142682678D01*
X138785715Y-142682678D02*
X138821429Y-142611250D01*
X138821429Y-142611250D02*
X138892858Y-142575535D01*
X138892858Y-142575535D02*
X139000000Y-142575535D01*
X139000000Y-142575535D02*
X139071429Y-142611250D01*
X139428572Y-143075535D02*
X139428572Y-142325535D01*
X139750001Y-143075535D02*
X139750001Y-142682678D01*
X139750001Y-142682678D02*
X139714286Y-142611250D01*
X139714286Y-142611250D02*
X139642858Y-142575535D01*
X139642858Y-142575535D02*
X139535715Y-142575535D01*
X139535715Y-142575535D02*
X139464286Y-142611250D01*
X139464286Y-142611250D02*
X139428572Y-142646964D01*
D11*
%TO.C,TP3*%
X145400000Y-155880000D02*
G75*
G03*
X145400000Y-155880000I-950000J0D01*
G01*
D12*
%TO.C,SW5*%
X106404000Y-99920000D02*
X106404000Y-101190000D01*
X106404000Y-103857000D02*
X106404000Y-106143000D01*
X106404000Y-108810000D02*
X106404000Y-110080000D01*
X106404000Y-110080000D02*
X107420000Y-111096000D01*
X107420000Y-98904000D02*
X106404000Y-99920000D01*
X107420000Y-98904000D02*
X107674000Y-98650000D01*
X107420000Y-98904000D02*
X110722000Y-98904000D01*
X107420000Y-111096000D02*
X110722000Y-111096000D01*
X107674000Y-111350000D02*
X107420000Y-111096000D01*
X110595000Y-103095000D02*
X110595000Y-106905000D01*
X110595000Y-103095000D02*
X114405000Y-103095000D01*
X110722000Y-98650000D02*
X107674000Y-98650000D01*
X110722000Y-98650000D02*
X110722000Y-98904000D01*
X110722000Y-98904000D02*
X111484000Y-98904000D01*
X110722000Y-111096000D02*
X110722000Y-111350000D01*
X110722000Y-111096000D02*
X111484000Y-111096000D01*
X110722000Y-111350000D02*
X107674000Y-111350000D01*
D13*
X110849000Y-103349000D02*
X110849000Y-106651000D01*
X110849000Y-103349000D02*
X114151000Y-103349000D01*
D12*
X111484000Y-98523000D02*
X113516000Y-98523000D01*
X111484000Y-98904000D02*
X111484000Y-98523000D01*
X111484000Y-98904000D02*
X113516000Y-98904000D01*
X111484000Y-111096000D02*
X113516000Y-111096000D01*
X111484000Y-111477000D02*
X111484000Y-111096000D01*
X111484000Y-111477000D02*
X113516000Y-111477000D01*
X113516000Y-98523000D02*
X113516000Y-98904000D01*
X113516000Y-111096000D02*
X113516000Y-111477000D01*
X113516000Y-111096000D02*
X114278000Y-111096000D01*
D13*
X114151000Y-106651000D02*
X110849000Y-106651000D01*
X114151000Y-106651000D02*
X114151000Y-103349000D01*
D12*
X114278000Y-98650000D02*
X114278000Y-98904000D01*
X114278000Y-98904000D02*
X113516000Y-98904000D01*
X114278000Y-111096000D02*
X114278000Y-111350000D01*
X114278000Y-111096000D02*
X117580000Y-111096000D01*
X114405000Y-106905000D02*
X110595000Y-106905000D01*
X114405000Y-106905000D02*
X114405000Y-103095000D01*
X117326000Y-98650000D02*
X114278000Y-98650000D01*
X117326000Y-111350000D02*
X114278000Y-111350000D01*
X117580000Y-98904000D02*
X114278000Y-98904000D01*
X117580000Y-98904000D02*
X117326000Y-98650000D01*
X117580000Y-111096000D02*
X117326000Y-111350000D01*
X117580000Y-111096000D02*
X118596000Y-110080000D01*
X118596000Y-99920000D02*
X117580000Y-98904000D01*
X118596000Y-99920000D02*
X118596000Y-101190000D01*
X118596000Y-103857000D02*
X118596000Y-106143000D01*
X118596000Y-110080000D02*
X118596000Y-108810000D01*
D13*
X113262000Y-105000000D02*
G75*
G03*
X113262000Y-105000000I-762000J0D01*
G01*
X113516000Y-105000000D02*
G75*
G03*
X113516000Y-105000000I-1016000J0D01*
G01*
D12*
X116056000Y-105000000D02*
G75*
G03*
X116056000Y-105000000I-3556000J0D01*
G01*
G36*
X110214000Y-99158000D02*
G01*
X108055000Y-99158000D01*
X108055000Y-98650000D01*
X110214000Y-98650000D01*
X110214000Y-99158000D01*
G37*
G36*
X110214000Y-111350000D02*
G01*
X108055000Y-111350000D01*
X108055000Y-110842000D01*
X110214000Y-110842000D01*
X110214000Y-111350000D01*
G37*
G36*
X116945000Y-99158000D02*
G01*
X114786000Y-99158000D01*
X114786000Y-98650000D01*
X116945000Y-98650000D01*
X116945000Y-99158000D01*
G37*
G36*
X116945000Y-111350000D02*
G01*
X114786000Y-111350000D01*
X114786000Y-110842000D01*
X116945000Y-110842000D01*
X116945000Y-111350000D01*
G37*
%TO.C,SW4*%
X56404000Y-99920000D02*
X56404000Y-101190000D01*
X56404000Y-103857000D02*
X56404000Y-106143000D01*
X56404000Y-108810000D02*
X56404000Y-110080000D01*
X56404000Y-110080000D02*
X57420000Y-111096000D01*
X57420000Y-98904000D02*
X56404000Y-99920000D01*
X57420000Y-98904000D02*
X57674000Y-98650000D01*
X57420000Y-98904000D02*
X60722000Y-98904000D01*
X57420000Y-111096000D02*
X60722000Y-111096000D01*
X57674000Y-111350000D02*
X57420000Y-111096000D01*
X60595000Y-103095000D02*
X60595000Y-106905000D01*
X60595000Y-103095000D02*
X64405000Y-103095000D01*
X60722000Y-98650000D02*
X57674000Y-98650000D01*
X60722000Y-98650000D02*
X60722000Y-98904000D01*
X60722000Y-98904000D02*
X61484000Y-98904000D01*
X60722000Y-111096000D02*
X60722000Y-111350000D01*
X60722000Y-111096000D02*
X61484000Y-111096000D01*
X60722000Y-111350000D02*
X57674000Y-111350000D01*
D13*
X60849000Y-103349000D02*
X60849000Y-106651000D01*
X60849000Y-103349000D02*
X64151000Y-103349000D01*
D12*
X61484000Y-98523000D02*
X63516000Y-98523000D01*
X61484000Y-98904000D02*
X61484000Y-98523000D01*
X61484000Y-98904000D02*
X63516000Y-98904000D01*
X61484000Y-111096000D02*
X63516000Y-111096000D01*
X61484000Y-111477000D02*
X61484000Y-111096000D01*
X61484000Y-111477000D02*
X63516000Y-111477000D01*
X63516000Y-98523000D02*
X63516000Y-98904000D01*
X63516000Y-111096000D02*
X63516000Y-111477000D01*
X63516000Y-111096000D02*
X64278000Y-111096000D01*
D13*
X64151000Y-106651000D02*
X60849000Y-106651000D01*
X64151000Y-106651000D02*
X64151000Y-103349000D01*
D12*
X64278000Y-98650000D02*
X64278000Y-98904000D01*
X64278000Y-98904000D02*
X63516000Y-98904000D01*
X64278000Y-111096000D02*
X64278000Y-111350000D01*
X64278000Y-111096000D02*
X67580000Y-111096000D01*
X64405000Y-106905000D02*
X60595000Y-106905000D01*
X64405000Y-106905000D02*
X64405000Y-103095000D01*
X67326000Y-98650000D02*
X64278000Y-98650000D01*
X67326000Y-111350000D02*
X64278000Y-111350000D01*
X67580000Y-98904000D02*
X64278000Y-98904000D01*
X67580000Y-98904000D02*
X67326000Y-98650000D01*
X67580000Y-111096000D02*
X67326000Y-111350000D01*
X67580000Y-111096000D02*
X68596000Y-110080000D01*
X68596000Y-99920000D02*
X67580000Y-98904000D01*
X68596000Y-99920000D02*
X68596000Y-101190000D01*
X68596000Y-103857000D02*
X68596000Y-106143000D01*
X68596000Y-110080000D02*
X68596000Y-108810000D01*
D13*
X63262000Y-105000000D02*
G75*
G03*
X63262000Y-105000000I-762000J0D01*
G01*
X63516000Y-105000000D02*
G75*
G03*
X63516000Y-105000000I-1016000J0D01*
G01*
D12*
X66056000Y-105000000D02*
G75*
G03*
X66056000Y-105000000I-3556000J0D01*
G01*
G36*
X60214000Y-99158000D02*
G01*
X58055000Y-99158000D01*
X58055000Y-98650000D01*
X60214000Y-98650000D01*
X60214000Y-99158000D01*
G37*
G36*
X60214000Y-111350000D02*
G01*
X58055000Y-111350000D01*
X58055000Y-110842000D01*
X60214000Y-110842000D01*
X60214000Y-111350000D01*
G37*
G36*
X66945000Y-99158000D02*
G01*
X64786000Y-99158000D01*
X64786000Y-98650000D01*
X66945000Y-98650000D01*
X66945000Y-99158000D01*
G37*
G36*
X66945000Y-111350000D02*
G01*
X64786000Y-111350000D01*
X64786000Y-110842000D01*
X66945000Y-110842000D01*
X66945000Y-111350000D01*
G37*
D11*
%TO.C,D3*%
X122454000Y-86455000D02*
X122454000Y-89545000D01*
X128003999Y-88000462D02*
G75*
G03*
X122454001Y-86455170I-2989999J462D01*
G01*
X122454000Y-89544830D02*
G75*
G03*
X128004000Y-87999538I2560000J1544830D01*
G01*
X127514000Y-88000000D02*
G75*
G03*
X127514000Y-88000000I-2500000J0D01*
G01*
%TO.C,TP4*%
X145400000Y-93650000D02*
G75*
G03*
X145400000Y-93650000I-950000J0D01*
G01*
D12*
%TO.C,SW6*%
X81404000Y-99920000D02*
X81404000Y-101190000D01*
X81404000Y-103857000D02*
X81404000Y-106143000D01*
X81404000Y-108810000D02*
X81404000Y-110080000D01*
X81404000Y-110080000D02*
X82420000Y-111096000D01*
X82420000Y-98904000D02*
X81404000Y-99920000D01*
X82420000Y-98904000D02*
X82674000Y-98650000D01*
X82420000Y-98904000D02*
X85722000Y-98904000D01*
X82420000Y-111096000D02*
X85722000Y-111096000D01*
X82674000Y-111350000D02*
X82420000Y-111096000D01*
X85595000Y-103095000D02*
X85595000Y-106905000D01*
X85595000Y-103095000D02*
X89405000Y-103095000D01*
X85722000Y-98650000D02*
X82674000Y-98650000D01*
X85722000Y-98650000D02*
X85722000Y-98904000D01*
X85722000Y-98904000D02*
X86484000Y-98904000D01*
X85722000Y-111096000D02*
X85722000Y-111350000D01*
X85722000Y-111096000D02*
X86484000Y-111096000D01*
X85722000Y-111350000D02*
X82674000Y-111350000D01*
D13*
X85849000Y-103349000D02*
X85849000Y-106651000D01*
X85849000Y-103349000D02*
X89151000Y-103349000D01*
D12*
X86484000Y-98523000D02*
X88516000Y-98523000D01*
X86484000Y-98904000D02*
X86484000Y-98523000D01*
X86484000Y-98904000D02*
X88516000Y-98904000D01*
X86484000Y-111096000D02*
X88516000Y-111096000D01*
X86484000Y-111477000D02*
X86484000Y-111096000D01*
X86484000Y-111477000D02*
X88516000Y-111477000D01*
X88516000Y-98523000D02*
X88516000Y-98904000D01*
X88516000Y-111096000D02*
X88516000Y-111477000D01*
X88516000Y-111096000D02*
X89278000Y-111096000D01*
D13*
X89151000Y-106651000D02*
X85849000Y-106651000D01*
X89151000Y-106651000D02*
X89151000Y-103349000D01*
D12*
X89278000Y-98650000D02*
X89278000Y-98904000D01*
X89278000Y-98904000D02*
X88516000Y-98904000D01*
X89278000Y-111096000D02*
X89278000Y-111350000D01*
X89278000Y-111096000D02*
X92580000Y-111096000D01*
X89405000Y-106905000D02*
X85595000Y-106905000D01*
X89405000Y-106905000D02*
X89405000Y-103095000D01*
X92326000Y-98650000D02*
X89278000Y-98650000D01*
X92326000Y-111350000D02*
X89278000Y-111350000D01*
X92580000Y-98904000D02*
X89278000Y-98904000D01*
X92580000Y-98904000D02*
X92326000Y-98650000D01*
X92580000Y-111096000D02*
X92326000Y-111350000D01*
X92580000Y-111096000D02*
X93596000Y-110080000D01*
X93596000Y-99920000D02*
X92580000Y-98904000D01*
X93596000Y-99920000D02*
X93596000Y-101190000D01*
X93596000Y-103857000D02*
X93596000Y-106143000D01*
X93596000Y-110080000D02*
X93596000Y-108810000D01*
D13*
X88262000Y-105000000D02*
G75*
G03*
X88262000Y-105000000I-762000J0D01*
G01*
X88516000Y-105000000D02*
G75*
G03*
X88516000Y-105000000I-1016000J0D01*
G01*
D12*
X91056000Y-105000000D02*
G75*
G03*
X91056000Y-105000000I-3556000J0D01*
G01*
G36*
X85214000Y-99158000D02*
G01*
X83055000Y-99158000D01*
X83055000Y-98650000D01*
X85214000Y-98650000D01*
X85214000Y-99158000D01*
G37*
G36*
X85214000Y-111350000D02*
G01*
X83055000Y-111350000D01*
X83055000Y-110842000D01*
X85214000Y-110842000D01*
X85214000Y-111350000D01*
G37*
G36*
X91945000Y-99158000D02*
G01*
X89786000Y-99158000D01*
X89786000Y-98650000D01*
X91945000Y-98650000D01*
X91945000Y-99158000D01*
G37*
G36*
X91945000Y-111350000D02*
G01*
X89786000Y-111350000D01*
X89786000Y-110842000D01*
X91945000Y-110842000D01*
X91945000Y-111350000D01*
G37*
D11*
%TO.C,SW2*%
X96387800Y-134205400D02*
X96387800Y-133005400D01*
X96087800Y-138105400D02*
X96087800Y-133005400D01*
X96087800Y-138105400D02*
X80237800Y-138105400D01*
X94737800Y-131905400D02*
X78887800Y-131905400D01*
X94737800Y-131605400D02*
X93537800Y-131605400D01*
X78887800Y-131905400D02*
X78887800Y-137005400D01*
%TO.C,TP1*%
X145400000Y-143180000D02*
G75*
G03*
X145400000Y-143180000I-950000J0D01*
G01*
%TO.C,SW3*%
X121387800Y-134205400D02*
X121387800Y-133005400D01*
X121087800Y-138105400D02*
X121087800Y-133005400D01*
X121087800Y-138105400D02*
X105237800Y-138105400D01*
X119737800Y-131905400D02*
X103887800Y-131905400D01*
X119737800Y-131605400D02*
X118537800Y-131605400D01*
X103887800Y-131905400D02*
X103887800Y-137005400D01*
D12*
%TO.C,SW7*%
X131404000Y-99920000D02*
X131404000Y-101190000D01*
X131404000Y-103857000D02*
X131404000Y-106143000D01*
X131404000Y-108810000D02*
X131404000Y-110080000D01*
X131404000Y-110080000D02*
X132420000Y-111096000D01*
X132420000Y-98904000D02*
X131404000Y-99920000D01*
X132420000Y-98904000D02*
X132674000Y-98650000D01*
X132420000Y-98904000D02*
X135722000Y-98904000D01*
X132420000Y-111096000D02*
X135722000Y-111096000D01*
X132674000Y-111350000D02*
X132420000Y-111096000D01*
X135595000Y-103095000D02*
X135595000Y-106905000D01*
X135595000Y-103095000D02*
X139405000Y-103095000D01*
X135722000Y-98650000D02*
X132674000Y-98650000D01*
X135722000Y-98650000D02*
X135722000Y-98904000D01*
X135722000Y-98904000D02*
X136484000Y-98904000D01*
X135722000Y-111096000D02*
X135722000Y-111350000D01*
X135722000Y-111096000D02*
X136484000Y-111096000D01*
X135722000Y-111350000D02*
X132674000Y-111350000D01*
D13*
X135849000Y-103349000D02*
X135849000Y-106651000D01*
X135849000Y-103349000D02*
X139151000Y-103349000D01*
D12*
X136484000Y-98523000D02*
X138516000Y-98523000D01*
X136484000Y-98904000D02*
X136484000Y-98523000D01*
X136484000Y-98904000D02*
X138516000Y-98904000D01*
X136484000Y-111096000D02*
X138516000Y-111096000D01*
X136484000Y-111477000D02*
X136484000Y-111096000D01*
X136484000Y-111477000D02*
X138516000Y-111477000D01*
X138516000Y-98523000D02*
X138516000Y-98904000D01*
X138516000Y-111096000D02*
X138516000Y-111477000D01*
X138516000Y-111096000D02*
X139278000Y-111096000D01*
D13*
X139151000Y-106651000D02*
X135849000Y-106651000D01*
X139151000Y-106651000D02*
X139151000Y-103349000D01*
D12*
X139278000Y-98650000D02*
X139278000Y-98904000D01*
X139278000Y-98904000D02*
X138516000Y-98904000D01*
X139278000Y-111096000D02*
X139278000Y-111350000D01*
X139278000Y-111096000D02*
X142580000Y-111096000D01*
X139405000Y-106905000D02*
X135595000Y-106905000D01*
X139405000Y-106905000D02*
X139405000Y-103095000D01*
X142326000Y-98650000D02*
X139278000Y-98650000D01*
X142326000Y-111350000D02*
X139278000Y-111350000D01*
X142580000Y-98904000D02*
X139278000Y-98904000D01*
X142580000Y-98904000D02*
X142326000Y-98650000D01*
X142580000Y-111096000D02*
X142326000Y-111350000D01*
X142580000Y-111096000D02*
X143596000Y-110080000D01*
X143596000Y-99920000D02*
X142580000Y-98904000D01*
X143596000Y-99920000D02*
X143596000Y-101190000D01*
X143596000Y-103857000D02*
X143596000Y-106143000D01*
X143596000Y-110080000D02*
X143596000Y-108810000D01*
D13*
X138262000Y-105000000D02*
G75*
G03*
X138262000Y-105000000I-762000J0D01*
G01*
X138516000Y-105000000D02*
G75*
G03*
X138516000Y-105000000I-1016000J0D01*
G01*
D12*
X141056000Y-105000000D02*
G75*
G03*
X141056000Y-105000000I-3556000J0D01*
G01*
G36*
X135214000Y-99158000D02*
G01*
X133055000Y-99158000D01*
X133055000Y-98650000D01*
X135214000Y-98650000D01*
X135214000Y-99158000D01*
G37*
G36*
X135214000Y-111350000D02*
G01*
X133055000Y-111350000D01*
X133055000Y-110842000D01*
X135214000Y-110842000D01*
X135214000Y-111350000D01*
G37*
G36*
X141945000Y-99158000D02*
G01*
X139786000Y-99158000D01*
X139786000Y-98650000D01*
X141945000Y-98650000D01*
X141945000Y-99158000D01*
G37*
G36*
X141945000Y-111350000D02*
G01*
X139786000Y-111350000D01*
X139786000Y-110842000D01*
X141945000Y-110842000D01*
X141945000Y-111350000D01*
G37*
D11*
%TO.C,SW1*%
X71387800Y-134205400D02*
X71387800Y-133005400D01*
X71087800Y-138105400D02*
X71087800Y-133005400D01*
X71087800Y-138105400D02*
X55237800Y-138105400D01*
X69737800Y-131905400D02*
X53887800Y-131905400D01*
X69737800Y-131605400D02*
X68537800Y-131605400D01*
X53887800Y-131905400D02*
X53887800Y-137005400D01*
%TO.C,TP2*%
X145400000Y-149530000D02*
G75*
G03*
X145400000Y-149530000I-950000J0D01*
G01*
D12*
%TO.C,SW8*%
X131404000Y-129920000D02*
X131404000Y-131190000D01*
X131404000Y-133857000D02*
X131404000Y-136143000D01*
X131404000Y-138810000D02*
X131404000Y-140080000D01*
X131404000Y-140080000D02*
X132420000Y-141096000D01*
X132420000Y-128904000D02*
X131404000Y-129920000D01*
X132420000Y-128904000D02*
X132674000Y-128650000D01*
X132420000Y-128904000D02*
X135722000Y-128904000D01*
X132420000Y-141096000D02*
X135722000Y-141096000D01*
X132674000Y-141350000D02*
X132420000Y-141096000D01*
X135595000Y-133095000D02*
X135595000Y-136905000D01*
X135595000Y-133095000D02*
X139405000Y-133095000D01*
X135722000Y-128650000D02*
X132674000Y-128650000D01*
X135722000Y-128650000D02*
X135722000Y-128904000D01*
X135722000Y-128904000D02*
X136484000Y-128904000D01*
X135722000Y-141096000D02*
X135722000Y-141350000D01*
X135722000Y-141096000D02*
X136484000Y-141096000D01*
X135722000Y-141350000D02*
X132674000Y-141350000D01*
D13*
X135849000Y-133349000D02*
X135849000Y-136651000D01*
X135849000Y-133349000D02*
X139151000Y-133349000D01*
D12*
X136484000Y-128523000D02*
X138516000Y-128523000D01*
X136484000Y-128904000D02*
X136484000Y-128523000D01*
X136484000Y-128904000D02*
X138516000Y-128904000D01*
X136484000Y-141096000D02*
X138516000Y-141096000D01*
X136484000Y-141477000D02*
X136484000Y-141096000D01*
X136484000Y-141477000D02*
X138516000Y-141477000D01*
X138516000Y-128523000D02*
X138516000Y-128904000D01*
X138516000Y-141096000D02*
X138516000Y-141477000D01*
X138516000Y-141096000D02*
X139278000Y-141096000D01*
D13*
X139151000Y-136651000D02*
X135849000Y-136651000D01*
X139151000Y-136651000D02*
X139151000Y-133349000D01*
D12*
X139278000Y-128650000D02*
X139278000Y-128904000D01*
X139278000Y-128904000D02*
X138516000Y-128904000D01*
X139278000Y-141096000D02*
X139278000Y-141350000D01*
X139278000Y-141096000D02*
X142580000Y-141096000D01*
X139405000Y-136905000D02*
X135595000Y-136905000D01*
X139405000Y-136905000D02*
X139405000Y-133095000D01*
X142326000Y-128650000D02*
X139278000Y-128650000D01*
X142326000Y-141350000D02*
X139278000Y-141350000D01*
X142580000Y-128904000D02*
X139278000Y-128904000D01*
X142580000Y-128904000D02*
X142326000Y-128650000D01*
X142580000Y-141096000D02*
X142326000Y-141350000D01*
X142580000Y-141096000D02*
X143596000Y-140080000D01*
X143596000Y-129920000D02*
X142580000Y-128904000D01*
X143596000Y-129920000D02*
X143596000Y-131190000D01*
X143596000Y-133857000D02*
X143596000Y-136143000D01*
X143596000Y-140080000D02*
X143596000Y-138810000D01*
D13*
X138262000Y-135000000D02*
G75*
G03*
X138262000Y-135000000I-762000J0D01*
G01*
X138516000Y-135000000D02*
G75*
G03*
X138516000Y-135000000I-1016000J0D01*
G01*
D12*
X141056000Y-135000000D02*
G75*
G03*
X141056000Y-135000000I-3556000J0D01*
G01*
G36*
X135214000Y-129158000D02*
G01*
X133055000Y-129158000D01*
X133055000Y-128650000D01*
X135214000Y-128650000D01*
X135214000Y-129158000D01*
G37*
G36*
X135214000Y-141350000D02*
G01*
X133055000Y-141350000D01*
X133055000Y-140842000D01*
X135214000Y-140842000D01*
X135214000Y-141350000D01*
G37*
G36*
X141945000Y-129158000D02*
G01*
X139786000Y-129158000D01*
X139786000Y-128650000D01*
X141945000Y-128650000D01*
X141945000Y-129158000D01*
G37*
G36*
X141945000Y-141350000D02*
G01*
X139786000Y-141350000D01*
X139786000Y-140842000D01*
X141945000Y-140842000D01*
X141945000Y-141350000D01*
G37*
%TD*%
%LPC*%
D14*
%TO.C,H4*%
X144000000Y-162000000D03*
%TD*%
%TO.C,H2*%
X144000000Y-83000000D03*
%TD*%
D15*
%TO.C,TP3*%
X144450000Y-155880000D03*
%TD*%
D16*
%TO.C,SW5*%
X106251599Y-102510799D03*
X118748399Y-102510799D03*
X106251599Y-107489199D03*
X118748399Y-107489199D03*
%TD*%
%TO.C,SW4*%
X56251599Y-102510799D03*
X68748399Y-102510799D03*
X56251599Y-107489199D03*
X68748399Y-107489199D03*
%TD*%
D17*
%TO.C,D3*%
X123743999Y-87999999D03*
D18*
X126284000Y-88000000D03*
%TD*%
D15*
%TO.C,TP4*%
X144450000Y-93650000D03*
%TD*%
D16*
%TO.C,SW6*%
X81251599Y-102510799D03*
X93748399Y-102510799D03*
X81251599Y-107489199D03*
X93748399Y-107489199D03*
%TD*%
D14*
%TO.C,H3*%
X56000000Y-162000000D03*
%TD*%
D19*
%TO.C,SW2*%
X95587800Y-132205400D03*
X79387800Y-137805400D03*
D20*
X91487799Y-133755399D03*
D19*
X86487800Y-133755400D03*
X83987800Y-133755400D03*
X81487800Y-133755400D03*
X91487800Y-136255400D03*
X86487800Y-136255400D03*
X83987800Y-136255400D03*
X81487800Y-136255400D03*
%TD*%
D15*
%TO.C,TP1*%
X144450000Y-143180000D03*
%TD*%
D19*
%TO.C,SW3*%
X120587800Y-132205400D03*
X104387800Y-137805400D03*
D20*
X116487799Y-133755399D03*
D19*
X111487800Y-133755400D03*
X108987800Y-133755400D03*
X106487800Y-133755400D03*
X116487800Y-136255400D03*
X111487800Y-136255400D03*
X108987800Y-136255400D03*
X106487800Y-136255400D03*
%TD*%
D14*
%TO.C,H1*%
X56000000Y-83000000D03*
%TD*%
D16*
%TO.C,SW7*%
X131251599Y-102510799D03*
X143748399Y-102510799D03*
X131251599Y-107489199D03*
X143748399Y-107489199D03*
%TD*%
D19*
%TO.C,SW1*%
X70587800Y-132205400D03*
X54387800Y-137805400D03*
D20*
X66487799Y-133755399D03*
D19*
X61487800Y-133755400D03*
X58987800Y-133755400D03*
X56487800Y-133755400D03*
X66487800Y-136255400D03*
X61487800Y-136255400D03*
X58987800Y-136255400D03*
X56487800Y-136255400D03*
%TD*%
D15*
%TO.C,TP2*%
X144450000Y-149530000D03*
%TD*%
D16*
%TO.C,SW8*%
X131251599Y-132510799D03*
X143748399Y-132510799D03*
X131251599Y-137489199D03*
X143748399Y-137489199D03*
%TD*%
D21*
%TO.C,J13*%
X91310000Y-90752500D03*
D22*
X91310000Y-88212500D03*
X88770000Y-90752500D03*
X88770000Y-88212500D03*
X86230000Y-90752500D03*
X86230000Y-88212500D03*
X83690000Y-90752500D03*
X83690000Y-88212500D03*
%TD*%
D23*
%TO.C,J7*%
X79720000Y-153975000D03*
D24*
X82219999Y-153974999D03*
%TD*%
D25*
%TO.C,U2*%
X101754999Y-89204999D03*
D26*
X118414999Y-86664999D03*
D27*
X118414999Y-89204999D03*
X118414999Y-91744999D03*
%TD*%
D28*
%TO.C,D2*%
X136829999Y-146989999D03*
D29*
X126669999Y-146989999D03*
%TD*%
D20*
%TO.C,C1*%
X134329999Y-153339999D03*
D19*
X136830000Y-153340000D03*
%TD*%
D23*
%TO.C,J6*%
X56820000Y-153975000D03*
D24*
X59319999Y-153974999D03*
%TD*%
D21*
%TO.C,J11*%
X91310000Y-124752500D03*
D22*
X91310000Y-122212500D03*
X88770000Y-124752500D03*
X88770000Y-122212500D03*
X86230000Y-124752500D03*
X86230000Y-122212500D03*
X83690000Y-124752500D03*
X83690000Y-122212500D03*
%TD*%
D21*
%TO.C,J12*%
X116310000Y-124752500D03*
D22*
X116310000Y-122212500D03*
X113770000Y-124752500D03*
X113770000Y-122212500D03*
X111230000Y-124752500D03*
X111230000Y-122212500D03*
X108690000Y-124752500D03*
X108690000Y-122212500D03*
%TD*%
D20*
%TO.C,C2*%
X126669999Y-153339999D03*
D19*
X129170000Y-153340000D03*
%TD*%
D23*
%TO.C,J8*%
X92420000Y-153975000D03*
D24*
X94919999Y-153974999D03*
%TD*%
D19*
%TO.C,R2*%
X88570000Y-141910000D03*
D30*
X78409999Y-141909999D03*
%TD*%
D19*
%TO.C,R5*%
X93650000Y-146990000D03*
D30*
X103809999Y-146989999D03*
%TD*%
D19*
%TO.C,R3*%
X88570000Y-146990000D03*
D30*
X78409999Y-146989999D03*
%TD*%
D28*
%TO.C,D1*%
X126669999Y-159689999D03*
D29*
X136829999Y-159689999D03*
%TD*%
D31*
%TO.C,U1*%
X65719999Y-148269999D03*
D32*
X68259999Y-148269999D03*
X70799999Y-148269999D03*
X73339999Y-148269999D03*
X73339999Y-155889999D03*
X70799999Y-155889999D03*
X68259999Y-155889999D03*
X65719999Y-155889999D03*
%TD*%
D20*
%TO.C,C5*%
X124169999Y-96189999D03*
D19*
X126670000Y-96190000D03*
%TD*%
%TO.C,C4*%
X70830000Y-144460000D03*
X73330000Y-144460000D03*
%TD*%
%TO.C,R4*%
X79680000Y-160833000D03*
D30*
X69519999Y-160832999D03*
%TD*%
D21*
%TO.C,J10*%
X66310000Y-124752500D03*
D22*
X66310000Y-122212500D03*
X63770000Y-124752500D03*
X63770000Y-122212500D03*
X61230000Y-124752500D03*
X61230000Y-122212500D03*
X58690000Y-124752500D03*
X58690000Y-122212500D03*
%TD*%
D33*
%TO.C,J20*%
X140079999Y-124769999D03*
D34*
X140079999Y-122229999D03*
X137539999Y-124769999D03*
X137539999Y-122229999D03*
X134999999Y-124769999D03*
X134999999Y-122229999D03*
X132459999Y-124769999D03*
X132459999Y-122229999D03*
X129919999Y-124769999D03*
X129919999Y-122229999D03*
%TD*%
D19*
%TO.C,C6*%
X120320000Y-97460000D03*
X117820000Y-97460000D03*
%TD*%
D23*
%TO.C,J14*%
X105120000Y-153975000D03*
D24*
X107619999Y-153974999D03*
%TD*%
D23*
%TO.C,J9*%
X117820000Y-153975000D03*
D24*
X120319999Y-153974999D03*
%TD*%
D19*
%TO.C,C3*%
X65710000Y-160960000D03*
X63210000Y-160960000D03*
%TD*%
%TO.C,R1*%
X93650000Y-141910000D03*
D30*
X103809999Y-141909999D03*
%TD*%
M02*
