%TF.GenerationSoftware,KiCad,Pcbnew,7.0.0-da2b9df05c~163~ubuntu22.04.1*%
%TF.CreationDate,2023-02-20T22:34:06-05:00*%
%TF.ProjectId,dso138,64736f31-3338-42e6-9b69-6361645f7063,rev?*%
%TF.SameCoordinates,Original*%
%TF.FileFunction,Drillmap*%
%TF.FilePolarity,Positive*%
%FSLAX45Y45*%
G04 Gerber Fmt 4.5, Leading zero omitted, Abs format (unit mm)*
G04 Created by KiCad (PCBNEW 7.0.0-da2b9df05c~163~ubuntu22.04.1) date 2023-02-20 22:34:06*
%MOMM*%
%LPD*%
G01*
G04 APERTURE LIST*
%ADD10C,0.100000*%
%ADD11C,0.200000*%
%ADD12C,0.070000*%
%ADD13C,0.080000*%
%ADD14C,0.090000*%
%ADD15C,0.101600*%
%ADD16C,0.110000*%
%ADD17C,0.119380*%
%ADD18C,0.320000*%
G04 APERTURE END LIST*
D10*
X5300000Y-8000000D02*
X14700000Y-8000000D01*
X14700000Y-8000000D02*
X14700000Y-16500000D01*
X14700000Y-16500000D02*
X5300000Y-16500000D01*
X5300000Y-16500000D02*
X5300000Y-8000000D01*
D11*
D12*
X14410000Y-9330000D02*
X14480000Y-9400000D01*
X14480000Y-9330000D02*
X14410000Y-9400000D01*
X14410000Y-14283000D02*
X14480000Y-14353000D01*
X14480000Y-14283000D02*
X14410000Y-14353000D01*
X14410000Y-14918000D02*
X14480000Y-14988000D01*
X14480000Y-14918000D02*
X14410000Y-14988000D01*
X14410000Y-15553000D02*
X14480000Y-15623000D01*
X14480000Y-15553000D02*
X14410000Y-15623000D01*
D13*
X6361000Y-16096000D02*
G75*
G03*
X6361000Y-16096000I-40000J0D01*
G01*
X6611000Y-16096000D02*
G75*
G03*
X6611000Y-16096000I-40000J0D01*
G01*
X6612000Y-14827000D02*
G75*
G03*
X6612000Y-14827000I-40000J0D01*
G01*
X6612000Y-15589000D02*
G75*
G03*
X6612000Y-15589000I-40000J0D01*
G01*
X6866000Y-14827000D02*
G75*
G03*
X6866000Y-14827000I-40000J0D01*
G01*
X6866000Y-15589000D02*
G75*
G03*
X6866000Y-15589000I-40000J0D01*
G01*
X6992000Y-16083300D02*
G75*
G03*
X6992000Y-16083300I-40000J0D01*
G01*
X7120000Y-14827000D02*
G75*
G03*
X7120000Y-14827000I-40000J0D01*
G01*
X7120000Y-15589000D02*
G75*
G03*
X7120000Y-15589000I-40000J0D01*
G01*
X7123000Y-14446000D02*
G75*
G03*
X7123000Y-14446000I-40000J0D01*
G01*
X7373000Y-14446000D02*
G75*
G03*
X7373000Y-14446000I-40000J0D01*
G01*
X7374000Y-14827000D02*
G75*
G03*
X7374000Y-14827000I-40000J0D01*
G01*
X7374000Y-15589000D02*
G75*
G03*
X7374000Y-15589000I-40000J0D01*
G01*
X7881000Y-14191000D02*
G75*
G03*
X7881000Y-14191000I-40000J0D01*
G01*
X7881000Y-14699000D02*
G75*
G03*
X7881000Y-14699000I-40000J0D01*
G01*
X8008000Y-16083300D02*
G75*
G03*
X8008000Y-16083300I-40000J0D01*
G01*
X8897000Y-14191000D02*
G75*
G03*
X8897000Y-14191000I-40000J0D01*
G01*
X8897000Y-14699000D02*
G75*
G03*
X8897000Y-14699000I-40000J0D01*
G01*
X9405000Y-14191000D02*
G75*
G03*
X9405000Y-14191000I-40000J0D01*
G01*
X9405000Y-14699000D02*
G75*
G03*
X9405000Y-14699000I-40000J0D01*
G01*
X10421000Y-14191000D02*
G75*
G03*
X10421000Y-14191000I-40000J0D01*
G01*
X10421000Y-14699000D02*
G75*
G03*
X10421000Y-14699000I-40000J0D01*
G01*
X11822000Y-9746000D02*
G75*
G03*
X11822000Y-9746000I-40000J0D01*
G01*
X12072000Y-9746000D02*
G75*
G03*
X12072000Y-9746000I-40000J0D01*
G01*
X12457000Y-9619000D02*
G75*
G03*
X12457000Y-9619000I-40000J0D01*
G01*
X12707000Y-9619000D02*
G75*
G03*
X12707000Y-9619000I-40000J0D01*
G01*
X12707000Y-15334000D02*
G75*
G03*
X12707000Y-15334000I-40000J0D01*
G01*
X12957000Y-15334000D02*
G75*
G03*
X12957000Y-15334000I-40000J0D01*
G01*
X13473000Y-15334000D02*
G75*
G03*
X13473000Y-15334000I-40000J0D01*
G01*
X13723000Y-15334000D02*
G75*
G03*
X13723000Y-15334000I-40000J0D01*
G01*
D14*
X5648780Y-13330540D02*
X5648780Y-13420540D01*
X5603780Y-13375540D02*
X5693780Y-13375540D01*
X5648780Y-13580540D02*
X5648780Y-13670540D01*
X5603780Y-13625540D02*
X5693780Y-13625540D01*
X5898780Y-13330540D02*
X5898780Y-13420540D01*
X5853780Y-13375540D02*
X5943780Y-13375540D01*
X5898780Y-13580540D02*
X5898780Y-13670540D01*
X5853780Y-13625540D02*
X5943780Y-13625540D01*
X6148780Y-13330540D02*
X6148780Y-13420540D01*
X6103780Y-13375540D02*
X6193780Y-13375540D01*
X6148780Y-13580540D02*
X6148780Y-13670540D01*
X6103780Y-13625540D02*
X6193780Y-13625540D01*
X6648780Y-13330540D02*
X6648780Y-13420540D01*
X6603780Y-13375540D02*
X6693780Y-13375540D01*
X6648780Y-13580540D02*
X6648780Y-13670540D01*
X6603780Y-13625540D02*
X6693780Y-13625540D01*
X8148780Y-13330540D02*
X8148780Y-13420540D01*
X8103780Y-13375540D02*
X8193780Y-13375540D01*
X8148780Y-13580540D02*
X8148780Y-13670540D01*
X8103780Y-13625540D02*
X8193780Y-13625540D01*
X8398780Y-13330540D02*
X8398780Y-13420540D01*
X8353780Y-13375540D02*
X8443780Y-13375540D01*
X8398780Y-13580540D02*
X8398780Y-13670540D01*
X8353780Y-13625540D02*
X8443780Y-13625540D01*
X8648780Y-13330540D02*
X8648780Y-13420540D01*
X8603780Y-13375540D02*
X8693780Y-13375540D01*
X8648780Y-13580540D02*
X8648780Y-13670540D01*
X8603780Y-13625540D02*
X8693780Y-13625540D01*
X9148780Y-13330540D02*
X9148780Y-13420540D01*
X9103780Y-13375540D02*
X9193780Y-13375540D01*
X9148780Y-13580540D02*
X9148780Y-13670540D01*
X9103780Y-13625540D02*
X9193780Y-13625540D01*
X10648780Y-13330540D02*
X10648780Y-13420540D01*
X10603780Y-13375540D02*
X10693780Y-13375540D01*
X10648780Y-13580540D02*
X10648780Y-13670540D01*
X10603780Y-13625540D02*
X10693780Y-13625540D01*
X10898780Y-13330540D02*
X10898780Y-13420540D01*
X10853780Y-13375540D02*
X10943780Y-13375540D01*
X10898780Y-13580540D02*
X10898780Y-13670540D01*
X10853780Y-13625540D02*
X10943780Y-13625540D01*
X11148780Y-13330540D02*
X11148780Y-13420540D01*
X11103780Y-13375540D02*
X11193780Y-13375540D01*
X11148780Y-13580540D02*
X11148780Y-13670540D01*
X11103780Y-13625540D02*
X11193780Y-13625540D01*
X11648780Y-13330540D02*
X11648780Y-13420540D01*
X11603780Y-13375540D02*
X11693780Y-13375540D01*
X11648780Y-13580540D02*
X11648780Y-13670540D01*
X11603780Y-13625540D02*
X11693780Y-13625540D01*
X12374400Y-8755000D02*
X12374400Y-8845000D01*
X12329400Y-8800000D02*
X12419400Y-8800000D01*
X12628400Y-8755000D02*
X12628400Y-8845000D01*
X12583400Y-8800000D02*
X12673400Y-8800000D01*
D10*
X5717356Y-15432856D02*
X5717356Y-15362144D01*
X5646644Y-15362144D01*
X5646644Y-15432856D01*
X5717356Y-15432856D01*
X5904356Y-12256606D02*
X5904356Y-12185894D01*
X5833644Y-12185894D01*
X5833644Y-12256606D01*
X5904356Y-12256606D01*
X5904356Y-12510606D02*
X5904356Y-12439894D01*
X5833644Y-12439894D01*
X5833644Y-12510606D01*
X5904356Y-12510606D01*
X5967356Y-15432856D02*
X5967356Y-15362144D01*
X5896644Y-15362144D01*
X5896644Y-15432856D01*
X5967356Y-15432856D01*
X6158356Y-12256606D02*
X6158356Y-12185894D01*
X6087644Y-12185894D01*
X6087644Y-12256606D01*
X6158356Y-12256606D01*
X6158356Y-12510606D02*
X6158356Y-12439894D01*
X6087644Y-12439894D01*
X6087644Y-12510606D01*
X6158356Y-12510606D01*
X6412356Y-12256606D02*
X6412356Y-12185894D01*
X6341644Y-12185894D01*
X6341644Y-12256606D01*
X6412356Y-12256606D01*
X6412356Y-12510606D02*
X6412356Y-12439894D01*
X6341644Y-12439894D01*
X6341644Y-12510606D01*
X6412356Y-12510606D01*
X6666356Y-12256606D02*
X6666356Y-12185894D01*
X6595644Y-12185894D01*
X6595644Y-12256606D01*
X6666356Y-12256606D01*
X6666356Y-12510606D02*
X6666356Y-12439894D01*
X6595644Y-12439894D01*
X6595644Y-12510606D01*
X6666356Y-12510606D01*
X8007356Y-15432856D02*
X8007356Y-15362144D01*
X7936644Y-15362144D01*
X7936644Y-15432856D01*
X8007356Y-15432856D01*
X8257356Y-15432856D02*
X8257356Y-15362144D01*
X8186644Y-15362144D01*
X8186644Y-15432856D01*
X8257356Y-15432856D01*
X8404356Y-8856606D02*
X8404356Y-8785894D01*
X8333644Y-8785894D01*
X8333644Y-8856606D01*
X8404356Y-8856606D01*
X8404356Y-9110606D02*
X8404356Y-9039894D01*
X8333644Y-9039894D01*
X8333644Y-9110606D01*
X8404356Y-9110606D01*
X8404356Y-12256606D02*
X8404356Y-12185894D01*
X8333644Y-12185894D01*
X8333644Y-12256606D01*
X8404356Y-12256606D01*
X8404356Y-12510606D02*
X8404356Y-12439894D01*
X8333644Y-12439894D01*
X8333644Y-12510606D01*
X8404356Y-12510606D01*
X8658356Y-8856606D02*
X8658356Y-8785894D01*
X8587644Y-8785894D01*
X8587644Y-8856606D01*
X8658356Y-8856606D01*
X8658356Y-9110606D02*
X8658356Y-9039894D01*
X8587644Y-9039894D01*
X8587644Y-9110606D01*
X8658356Y-9110606D01*
X8658356Y-12256606D02*
X8658356Y-12185894D01*
X8587644Y-12185894D01*
X8587644Y-12256606D01*
X8658356Y-12256606D01*
X8658356Y-12510606D02*
X8658356Y-12439894D01*
X8587644Y-12439894D01*
X8587644Y-12510606D01*
X8658356Y-12510606D01*
X8912356Y-8856606D02*
X8912356Y-8785894D01*
X8841644Y-8785894D01*
X8841644Y-8856606D01*
X8912356Y-8856606D01*
X8912356Y-9110606D02*
X8912356Y-9039894D01*
X8841644Y-9039894D01*
X8841644Y-9110606D01*
X8912356Y-9110606D01*
X8912356Y-12256606D02*
X8912356Y-12185894D01*
X8841644Y-12185894D01*
X8841644Y-12256606D01*
X8912356Y-12256606D01*
X8912356Y-12510606D02*
X8912356Y-12439894D01*
X8841644Y-12439894D01*
X8841644Y-12510606D01*
X8912356Y-12510606D01*
X9166356Y-8856606D02*
X9166356Y-8785894D01*
X9095644Y-8785894D01*
X9095644Y-8856606D01*
X9166356Y-8856606D01*
X9166356Y-9110606D02*
X9166356Y-9039894D01*
X9095644Y-9039894D01*
X9095644Y-9110606D01*
X9166356Y-9110606D01*
X9166356Y-12256606D02*
X9166356Y-12185894D01*
X9095644Y-12185894D01*
X9095644Y-12256606D01*
X9166356Y-12256606D01*
X9166356Y-12510606D02*
X9166356Y-12439894D01*
X9095644Y-12439894D01*
X9095644Y-12510606D01*
X9166356Y-12510606D01*
X9277356Y-15432856D02*
X9277356Y-15362144D01*
X9206644Y-15362144D01*
X9206644Y-15432856D01*
X9277356Y-15432856D01*
X9527356Y-15432856D02*
X9527356Y-15362144D01*
X9456644Y-15362144D01*
X9456644Y-15432856D01*
X9527356Y-15432856D01*
X10547356Y-15432856D02*
X10547356Y-15362144D01*
X10476644Y-15362144D01*
X10476644Y-15432856D01*
X10547356Y-15432856D01*
X10797356Y-15432856D02*
X10797356Y-15362144D01*
X10726644Y-15362144D01*
X10726644Y-15432856D01*
X10797356Y-15432856D01*
X10904356Y-12256606D02*
X10904356Y-12185894D01*
X10833644Y-12185894D01*
X10833644Y-12256606D01*
X10904356Y-12256606D01*
X10904356Y-12510606D02*
X10904356Y-12439894D01*
X10833644Y-12439894D01*
X10833644Y-12510606D01*
X10904356Y-12510606D01*
X11158356Y-12256606D02*
X11158356Y-12185894D01*
X11087644Y-12185894D01*
X11087644Y-12256606D01*
X11158356Y-12256606D01*
X11158356Y-12510606D02*
X11158356Y-12439894D01*
X11087644Y-12439894D01*
X11087644Y-12510606D01*
X11158356Y-12510606D01*
X11412356Y-12256606D02*
X11412356Y-12185894D01*
X11341644Y-12185894D01*
X11341644Y-12256606D01*
X11412356Y-12256606D01*
X11412356Y-12510606D02*
X11412356Y-12439894D01*
X11341644Y-12439894D01*
X11341644Y-12510606D01*
X11412356Y-12510606D01*
X11666356Y-12256606D02*
X11666356Y-12185894D01*
X11595644Y-12185894D01*
X11595644Y-12256606D01*
X11666356Y-12256606D01*
X11666356Y-12510606D02*
X11666356Y-12439894D01*
X11595644Y-12439894D01*
X11595644Y-12510606D01*
X11666356Y-12510606D01*
X11817356Y-15432856D02*
X11817356Y-15362144D01*
X11746644Y-15362144D01*
X11746644Y-15432856D01*
X11817356Y-15432856D01*
X12067356Y-15432856D02*
X12067356Y-15362144D01*
X11996644Y-15362144D01*
X11996644Y-15432856D01*
X12067356Y-15432856D01*
D15*
X12992000Y-12273800D02*
X13042800Y-12223000D01*
X12992000Y-12172200D01*
X12941200Y-12223000D01*
X12992000Y-12273800D01*
X12992000Y-12527800D02*
X13042800Y-12477000D01*
X12992000Y-12426200D01*
X12941200Y-12477000D01*
X12992000Y-12527800D01*
X13246000Y-12273800D02*
X13296800Y-12223000D01*
X13246000Y-12172200D01*
X13195200Y-12223000D01*
X13246000Y-12273800D01*
X13246000Y-12527800D02*
X13296800Y-12477000D01*
X13246000Y-12426200D01*
X13195200Y-12477000D01*
X13246000Y-12527800D01*
X13500000Y-12273800D02*
X13550800Y-12223000D01*
X13500000Y-12172200D01*
X13449200Y-12223000D01*
X13500000Y-12273800D01*
X13500000Y-12527800D02*
X13550800Y-12477000D01*
X13500000Y-12426200D01*
X13449200Y-12477000D01*
X13500000Y-12527800D01*
X13754000Y-12273800D02*
X13804800Y-12223000D01*
X13754000Y-12172200D01*
X13703200Y-12223000D01*
X13754000Y-12273800D01*
X13754000Y-12527800D02*
X13804800Y-12477000D01*
X13754000Y-12426200D01*
X13703200Y-12477000D01*
X13754000Y-12527800D01*
X14008000Y-12273800D02*
X14058800Y-12223000D01*
X14008000Y-12172200D01*
X13957200Y-12223000D01*
X14008000Y-12273800D01*
X14008000Y-12527800D02*
X14058800Y-12477000D01*
X14008000Y-12426200D01*
X13957200Y-12477000D01*
X14008000Y-12527800D01*
D16*
X11786500Y-8611500D02*
X11896500Y-8721500D01*
X11896500Y-8611500D02*
X11786500Y-8721500D01*
X11896500Y-8666500D02*
G75*
G03*
X11896500Y-8666500I-55000J0D01*
G01*
X11786500Y-8865500D02*
X11896500Y-8975500D01*
X11896500Y-8865500D02*
X11786500Y-8975500D01*
X11896500Y-8920500D02*
G75*
G03*
X11896500Y-8920500I-55000J0D01*
G01*
X11786500Y-9119500D02*
X11896500Y-9229500D01*
X11896500Y-9119500D02*
X11786500Y-9229500D01*
X11896500Y-9174500D02*
G75*
G03*
X11896500Y-9174500I-55000J0D01*
G01*
X12612000Y-14644000D02*
X12722000Y-14754000D01*
X12722000Y-14644000D02*
X12612000Y-14754000D01*
X12722000Y-14699000D02*
G75*
G03*
X12722000Y-14699000I-55000J0D01*
G01*
X12612000Y-15914000D02*
X12722000Y-16024000D01*
X12722000Y-15914000D02*
X12612000Y-16024000D01*
X12722000Y-15969000D02*
G75*
G03*
X12722000Y-15969000I-55000J0D01*
G01*
X13628000Y-14644000D02*
X13738000Y-14754000D01*
X13738000Y-14644000D02*
X13628000Y-14754000D01*
X13738000Y-14699000D02*
G75*
G03*
X13738000Y-14699000I-55000J0D01*
G01*
X13628000Y-15914000D02*
X13738000Y-16024000D01*
X13738000Y-15914000D02*
X13628000Y-16024000D01*
X13738000Y-15969000D02*
G75*
G03*
X13738000Y-15969000I-55000J0D01*
G01*
D17*
X5565470Y-10191390D02*
X5684850Y-10310770D01*
X5684850Y-10191390D02*
X5565470Y-10310770D01*
X5625160Y-10191390D02*
X5625160Y-10310770D01*
X5565470Y-10251080D02*
X5684850Y-10251080D01*
X5565470Y-10689230D02*
X5684850Y-10808610D01*
X5684850Y-10689230D02*
X5565470Y-10808610D01*
X5625160Y-10689230D02*
X5625160Y-10808610D01*
X5565470Y-10748920D02*
X5684850Y-10748920D01*
X6815150Y-10191390D02*
X6934530Y-10310770D01*
X6934530Y-10191390D02*
X6815150Y-10310770D01*
X6874840Y-10191390D02*
X6874840Y-10310770D01*
X6815150Y-10251080D02*
X6934530Y-10251080D01*
X6815150Y-10689230D02*
X6934530Y-10808610D01*
X6934530Y-10689230D02*
X6815150Y-10808610D01*
X6874840Y-10689230D02*
X6874840Y-10808610D01*
X6815150Y-10748920D02*
X6934530Y-10748920D01*
X8065470Y-10191390D02*
X8184850Y-10310770D01*
X8184850Y-10191390D02*
X8065470Y-10310770D01*
X8125160Y-10191390D02*
X8125160Y-10310770D01*
X8065470Y-10251080D02*
X8184850Y-10251080D01*
X8065470Y-10689230D02*
X8184850Y-10808610D01*
X8184850Y-10689230D02*
X8065470Y-10808610D01*
X8125160Y-10689230D02*
X8125160Y-10808610D01*
X8065470Y-10748920D02*
X8184850Y-10748920D01*
X9315150Y-10191390D02*
X9434530Y-10310770D01*
X9434530Y-10191390D02*
X9315150Y-10310770D01*
X9374840Y-10191390D02*
X9374840Y-10310770D01*
X9315150Y-10251080D02*
X9434530Y-10251080D01*
X9315150Y-10689230D02*
X9434530Y-10808610D01*
X9434530Y-10689230D02*
X9315150Y-10808610D01*
X9374840Y-10689230D02*
X9374840Y-10808610D01*
X9315150Y-10748920D02*
X9434530Y-10748920D01*
X10565470Y-10191390D02*
X10684850Y-10310770D01*
X10684850Y-10191390D02*
X10565470Y-10310770D01*
X10625160Y-10191390D02*
X10625160Y-10310770D01*
X10565470Y-10251080D02*
X10684850Y-10251080D01*
X10565470Y-10689230D02*
X10684850Y-10808610D01*
X10684850Y-10689230D02*
X10565470Y-10808610D01*
X10625160Y-10689230D02*
X10625160Y-10808610D01*
X10565470Y-10748920D02*
X10684850Y-10748920D01*
X11815150Y-10191390D02*
X11934530Y-10310770D01*
X11934530Y-10191390D02*
X11815150Y-10310770D01*
X11874840Y-10191390D02*
X11874840Y-10310770D01*
X11815150Y-10251080D02*
X11934530Y-10251080D01*
X11815150Y-10689230D02*
X11934530Y-10808610D01*
X11934530Y-10689230D02*
X11815150Y-10808610D01*
X11874840Y-10689230D02*
X11874840Y-10808610D01*
X11815150Y-10748920D02*
X11934530Y-10748920D01*
X13065470Y-10191390D02*
X13184850Y-10310770D01*
X13184850Y-10191390D02*
X13065470Y-10310770D01*
X13125160Y-10191390D02*
X13125160Y-10310770D01*
X13065470Y-10251080D02*
X13184850Y-10251080D01*
X13065470Y-10689230D02*
X13184850Y-10808610D01*
X13184850Y-10689230D02*
X13065470Y-10808610D01*
X13125160Y-10689230D02*
X13125160Y-10808610D01*
X13065470Y-10748920D02*
X13184850Y-10748920D01*
X13065470Y-13191390D02*
X13184850Y-13310770D01*
X13184850Y-13191390D02*
X13065470Y-13310770D01*
X13125160Y-13191390D02*
X13125160Y-13310770D01*
X13065470Y-13251080D02*
X13184850Y-13251080D01*
X13065470Y-13689230D02*
X13184850Y-13808610D01*
X13184850Y-13689230D02*
X13065470Y-13808610D01*
X13125160Y-13689230D02*
X13125160Y-13808610D01*
X13065470Y-13748920D02*
X13184850Y-13748920D01*
X14315150Y-10191390D02*
X14434530Y-10310770D01*
X14434530Y-10191390D02*
X14315150Y-10310770D01*
X14374840Y-10191390D02*
X14374840Y-10310770D01*
X14315150Y-10251080D02*
X14434530Y-10251080D01*
X14315150Y-10689230D02*
X14434530Y-10808610D01*
X14434530Y-10689230D02*
X14315150Y-10808610D01*
X14374840Y-10689230D02*
X14374840Y-10808610D01*
X14315150Y-10748920D02*
X14434530Y-10748920D01*
X14315150Y-13191390D02*
X14434530Y-13310770D01*
X14434530Y-13191390D02*
X14315150Y-13310770D01*
X14374840Y-13191390D02*
X14374840Y-13310770D01*
X14315150Y-13251080D02*
X14434530Y-13251080D01*
X14315150Y-13689230D02*
X14434530Y-13808610D01*
X14434530Y-13689230D02*
X14315150Y-13808610D01*
X14374840Y-13689230D02*
X14374840Y-13808610D01*
X14315150Y-13748920D02*
X14434530Y-13748920D01*
D18*
X5440000Y-8140000D02*
X5760000Y-8460000D01*
X5760000Y-8140000D02*
X5440000Y-8460000D01*
X5713138Y-8413138D02*
X5713138Y-8186862D01*
X5486862Y-8186862D01*
X5486862Y-8413138D01*
X5713138Y-8413138D01*
X5440000Y-16040000D02*
X5760000Y-16360000D01*
X5760000Y-16040000D02*
X5440000Y-16360000D01*
X5713138Y-16313138D02*
X5713138Y-16086862D01*
X5486862Y-16086862D01*
X5486862Y-16313138D01*
X5713138Y-16313138D01*
X14240000Y-8140000D02*
X14560000Y-8460000D01*
X14560000Y-8140000D02*
X14240000Y-8460000D01*
X14513138Y-8413138D02*
X14513138Y-8186862D01*
X14286862Y-8186862D01*
X14286862Y-8413138D01*
X14513138Y-8413138D01*
X14240000Y-16040000D02*
X14560000Y-16360000D01*
X14560000Y-16040000D02*
X14240000Y-16360000D01*
X14513138Y-16313138D02*
X14513138Y-16086862D01*
X14286862Y-16086862D01*
X14286862Y-16313138D01*
X14513138Y-16313138D01*
D11*
X5542619Y-16798476D02*
X5542619Y-16598476D01*
X5542619Y-16598476D02*
X5590238Y-16598476D01*
X5590238Y-16598476D02*
X5618809Y-16608000D01*
X5618809Y-16608000D02*
X5637857Y-16627048D01*
X5637857Y-16627048D02*
X5647381Y-16646095D01*
X5647381Y-16646095D02*
X5656905Y-16684190D01*
X5656905Y-16684190D02*
X5656905Y-16712762D01*
X5656905Y-16712762D02*
X5647381Y-16750857D01*
X5647381Y-16750857D02*
X5637857Y-16769905D01*
X5637857Y-16769905D02*
X5618809Y-16788952D01*
X5618809Y-16788952D02*
X5590238Y-16798476D01*
X5590238Y-16798476D02*
X5542619Y-16798476D01*
X5742619Y-16798476D02*
X5742619Y-16665143D01*
X5742619Y-16703238D02*
X5752143Y-16684190D01*
X5752143Y-16684190D02*
X5761667Y-16674667D01*
X5761667Y-16674667D02*
X5780714Y-16665143D01*
X5780714Y-16665143D02*
X5799762Y-16665143D01*
X5866428Y-16798476D02*
X5866428Y-16665143D01*
X5866428Y-16598476D02*
X5856905Y-16608000D01*
X5856905Y-16608000D02*
X5866428Y-16617524D01*
X5866428Y-16617524D02*
X5875952Y-16608000D01*
X5875952Y-16608000D02*
X5866428Y-16598476D01*
X5866428Y-16598476D02*
X5866428Y-16617524D01*
X5990238Y-16798476D02*
X5971190Y-16788952D01*
X5971190Y-16788952D02*
X5961667Y-16769905D01*
X5961667Y-16769905D02*
X5961667Y-16598476D01*
X6095000Y-16798476D02*
X6075952Y-16788952D01*
X6075952Y-16788952D02*
X6066428Y-16769905D01*
X6066428Y-16769905D02*
X6066428Y-16598476D01*
X6291190Y-16798476D02*
X6291190Y-16598476D01*
X6291190Y-16598476D02*
X6357857Y-16741333D01*
X6357857Y-16741333D02*
X6424524Y-16598476D01*
X6424524Y-16598476D02*
X6424524Y-16798476D01*
X6605476Y-16798476D02*
X6605476Y-16693714D01*
X6605476Y-16693714D02*
X6595952Y-16674667D01*
X6595952Y-16674667D02*
X6576905Y-16665143D01*
X6576905Y-16665143D02*
X6538809Y-16665143D01*
X6538809Y-16665143D02*
X6519762Y-16674667D01*
X6605476Y-16788952D02*
X6586428Y-16798476D01*
X6586428Y-16798476D02*
X6538809Y-16798476D01*
X6538809Y-16798476D02*
X6519762Y-16788952D01*
X6519762Y-16788952D02*
X6510238Y-16769905D01*
X6510238Y-16769905D02*
X6510238Y-16750857D01*
X6510238Y-16750857D02*
X6519762Y-16731809D01*
X6519762Y-16731809D02*
X6538809Y-16722286D01*
X6538809Y-16722286D02*
X6586428Y-16722286D01*
X6586428Y-16722286D02*
X6605476Y-16712762D01*
X6700714Y-16665143D02*
X6700714Y-16865143D01*
X6700714Y-16674667D02*
X6719762Y-16665143D01*
X6719762Y-16665143D02*
X6757857Y-16665143D01*
X6757857Y-16665143D02*
X6776905Y-16674667D01*
X6776905Y-16674667D02*
X6786428Y-16684190D01*
X6786428Y-16684190D02*
X6795952Y-16703238D01*
X6795952Y-16703238D02*
X6795952Y-16760381D01*
X6795952Y-16760381D02*
X6786428Y-16779429D01*
X6786428Y-16779429D02*
X6776905Y-16788952D01*
X6776905Y-16788952D02*
X6757857Y-16798476D01*
X6757857Y-16798476D02*
X6719762Y-16798476D01*
X6719762Y-16798476D02*
X6700714Y-16788952D01*
X6881667Y-16779429D02*
X6891190Y-16788952D01*
X6891190Y-16788952D02*
X6881667Y-16798476D01*
X6881667Y-16798476D02*
X6872143Y-16788952D01*
X6872143Y-16788952D02*
X6881667Y-16779429D01*
X6881667Y-16779429D02*
X6881667Y-16798476D01*
X6881667Y-16674667D02*
X6891190Y-16684190D01*
X6891190Y-16684190D02*
X6881667Y-16693714D01*
X6881667Y-16693714D02*
X6872143Y-16684190D01*
X6872143Y-16684190D02*
X6881667Y-16674667D01*
X6881667Y-16674667D02*
X6881667Y-16693714D01*
D12*
X5225000Y-17110000D02*
X5295000Y-17180000D01*
X5295000Y-17110000D02*
X5225000Y-17180000D01*
D11*
X5580714Y-17018476D02*
X5599762Y-17018476D01*
X5599762Y-17018476D02*
X5618809Y-17028000D01*
X5618809Y-17028000D02*
X5628333Y-17037524D01*
X5628333Y-17037524D02*
X5637857Y-17056571D01*
X5637857Y-17056571D02*
X5647381Y-17094667D01*
X5647381Y-17094667D02*
X5647381Y-17142286D01*
X5647381Y-17142286D02*
X5637857Y-17180381D01*
X5637857Y-17180381D02*
X5628333Y-17199429D01*
X5628333Y-17199429D02*
X5618809Y-17208952D01*
X5618809Y-17208952D02*
X5599762Y-17218476D01*
X5599762Y-17218476D02*
X5580714Y-17218476D01*
X5580714Y-17218476D02*
X5561667Y-17208952D01*
X5561667Y-17208952D02*
X5552143Y-17199429D01*
X5552143Y-17199429D02*
X5542619Y-17180381D01*
X5542619Y-17180381D02*
X5533095Y-17142286D01*
X5533095Y-17142286D02*
X5533095Y-17094667D01*
X5533095Y-17094667D02*
X5542619Y-17056571D01*
X5542619Y-17056571D02*
X5552143Y-17037524D01*
X5552143Y-17037524D02*
X5561667Y-17028000D01*
X5561667Y-17028000D02*
X5580714Y-17018476D01*
X5733095Y-17199429D02*
X5742619Y-17208952D01*
X5742619Y-17208952D02*
X5733095Y-17218476D01*
X5733095Y-17218476D02*
X5723571Y-17208952D01*
X5723571Y-17208952D02*
X5733095Y-17199429D01*
X5733095Y-17199429D02*
X5733095Y-17218476D01*
X5809286Y-17018476D02*
X5942619Y-17018476D01*
X5942619Y-17018476D02*
X5856905Y-17218476D01*
X6056905Y-17018476D02*
X6075952Y-17018476D01*
X6075952Y-17018476D02*
X6095000Y-17028000D01*
X6095000Y-17028000D02*
X6104524Y-17037524D01*
X6104524Y-17037524D02*
X6114048Y-17056571D01*
X6114048Y-17056571D02*
X6123571Y-17094667D01*
X6123571Y-17094667D02*
X6123571Y-17142286D01*
X6123571Y-17142286D02*
X6114048Y-17180381D01*
X6114048Y-17180381D02*
X6104524Y-17199429D01*
X6104524Y-17199429D02*
X6095000Y-17208952D01*
X6095000Y-17208952D02*
X6075952Y-17218476D01*
X6075952Y-17218476D02*
X6056905Y-17218476D01*
X6056905Y-17218476D02*
X6037857Y-17208952D01*
X6037857Y-17208952D02*
X6028333Y-17199429D01*
X6028333Y-17199429D02*
X6018809Y-17180381D01*
X6018809Y-17180381D02*
X6009286Y-17142286D01*
X6009286Y-17142286D02*
X6009286Y-17094667D01*
X6009286Y-17094667D02*
X6018809Y-17056571D01*
X6018809Y-17056571D02*
X6028333Y-17037524D01*
X6028333Y-17037524D02*
X6037857Y-17028000D01*
X6037857Y-17028000D02*
X6056905Y-17018476D01*
X6247381Y-17018476D02*
X6266429Y-17018476D01*
X6266429Y-17018476D02*
X6285476Y-17028000D01*
X6285476Y-17028000D02*
X6295000Y-17037524D01*
X6295000Y-17037524D02*
X6304524Y-17056571D01*
X6304524Y-17056571D02*
X6314048Y-17094667D01*
X6314048Y-17094667D02*
X6314048Y-17142286D01*
X6314048Y-17142286D02*
X6304524Y-17180381D01*
X6304524Y-17180381D02*
X6295000Y-17199429D01*
X6295000Y-17199429D02*
X6285476Y-17208952D01*
X6285476Y-17208952D02*
X6266429Y-17218476D01*
X6266429Y-17218476D02*
X6247381Y-17218476D01*
X6247381Y-17218476D02*
X6228333Y-17208952D01*
X6228333Y-17208952D02*
X6218809Y-17199429D01*
X6218809Y-17199429D02*
X6209286Y-17180381D01*
X6209286Y-17180381D02*
X6199762Y-17142286D01*
X6199762Y-17142286D02*
X6199762Y-17094667D01*
X6199762Y-17094667D02*
X6209286Y-17056571D01*
X6209286Y-17056571D02*
X6218809Y-17037524D01*
X6218809Y-17037524D02*
X6228333Y-17028000D01*
X6228333Y-17028000D02*
X6247381Y-17018476D01*
X6399762Y-17218476D02*
X6399762Y-17085143D01*
X6399762Y-17104190D02*
X6409286Y-17094667D01*
X6409286Y-17094667D02*
X6428333Y-17085143D01*
X6428333Y-17085143D02*
X6456905Y-17085143D01*
X6456905Y-17085143D02*
X6475952Y-17094667D01*
X6475952Y-17094667D02*
X6485476Y-17113714D01*
X6485476Y-17113714D02*
X6485476Y-17218476D01*
X6485476Y-17113714D02*
X6495000Y-17094667D01*
X6495000Y-17094667D02*
X6514048Y-17085143D01*
X6514048Y-17085143D02*
X6542619Y-17085143D01*
X6542619Y-17085143D02*
X6561667Y-17094667D01*
X6561667Y-17094667D02*
X6571190Y-17113714D01*
X6571190Y-17113714D02*
X6571190Y-17218476D01*
X6666429Y-17218476D02*
X6666429Y-17085143D01*
X6666429Y-17104190D02*
X6675952Y-17094667D01*
X6675952Y-17094667D02*
X6695000Y-17085143D01*
X6695000Y-17085143D02*
X6723571Y-17085143D01*
X6723571Y-17085143D02*
X6742619Y-17094667D01*
X6742619Y-17094667D02*
X6752143Y-17113714D01*
X6752143Y-17113714D02*
X6752143Y-17218476D01*
X6752143Y-17113714D02*
X6761667Y-17094667D01*
X6761667Y-17094667D02*
X6780714Y-17085143D01*
X6780714Y-17085143D02*
X6809286Y-17085143D01*
X6809286Y-17085143D02*
X6828333Y-17094667D01*
X6828333Y-17094667D02*
X6837857Y-17113714D01*
X6837857Y-17113714D02*
X6837857Y-17218476D01*
X7195952Y-17008952D02*
X7024524Y-17266095D01*
X7420714Y-17018476D02*
X7439762Y-17018476D01*
X7439762Y-17018476D02*
X7458810Y-17028000D01*
X7458810Y-17028000D02*
X7468333Y-17037524D01*
X7468333Y-17037524D02*
X7477857Y-17056571D01*
X7477857Y-17056571D02*
X7487381Y-17094667D01*
X7487381Y-17094667D02*
X7487381Y-17142286D01*
X7487381Y-17142286D02*
X7477857Y-17180381D01*
X7477857Y-17180381D02*
X7468333Y-17199429D01*
X7468333Y-17199429D02*
X7458810Y-17208952D01*
X7458810Y-17208952D02*
X7439762Y-17218476D01*
X7439762Y-17218476D02*
X7420714Y-17218476D01*
X7420714Y-17218476D02*
X7401667Y-17208952D01*
X7401667Y-17208952D02*
X7392143Y-17199429D01*
X7392143Y-17199429D02*
X7382619Y-17180381D01*
X7382619Y-17180381D02*
X7373095Y-17142286D01*
X7373095Y-17142286D02*
X7373095Y-17094667D01*
X7373095Y-17094667D02*
X7382619Y-17056571D01*
X7382619Y-17056571D02*
X7392143Y-17037524D01*
X7392143Y-17037524D02*
X7401667Y-17028000D01*
X7401667Y-17028000D02*
X7420714Y-17018476D01*
X7573095Y-17199429D02*
X7582619Y-17208952D01*
X7582619Y-17208952D02*
X7573095Y-17218476D01*
X7573095Y-17218476D02*
X7563571Y-17208952D01*
X7563571Y-17208952D02*
X7573095Y-17199429D01*
X7573095Y-17199429D02*
X7573095Y-17218476D01*
X7706429Y-17018476D02*
X7725476Y-17018476D01*
X7725476Y-17018476D02*
X7744524Y-17028000D01*
X7744524Y-17028000D02*
X7754048Y-17037524D01*
X7754048Y-17037524D02*
X7763571Y-17056571D01*
X7763571Y-17056571D02*
X7773095Y-17094667D01*
X7773095Y-17094667D02*
X7773095Y-17142286D01*
X7773095Y-17142286D02*
X7763571Y-17180381D01*
X7763571Y-17180381D02*
X7754048Y-17199429D01*
X7754048Y-17199429D02*
X7744524Y-17208952D01*
X7744524Y-17208952D02*
X7725476Y-17218476D01*
X7725476Y-17218476D02*
X7706429Y-17218476D01*
X7706429Y-17218476D02*
X7687381Y-17208952D01*
X7687381Y-17208952D02*
X7677857Y-17199429D01*
X7677857Y-17199429D02*
X7668333Y-17180381D01*
X7668333Y-17180381D02*
X7658810Y-17142286D01*
X7658810Y-17142286D02*
X7658810Y-17094667D01*
X7658810Y-17094667D02*
X7668333Y-17056571D01*
X7668333Y-17056571D02*
X7677857Y-17037524D01*
X7677857Y-17037524D02*
X7687381Y-17028000D01*
X7687381Y-17028000D02*
X7706429Y-17018476D01*
X7849286Y-17037524D02*
X7858810Y-17028000D01*
X7858810Y-17028000D02*
X7877857Y-17018476D01*
X7877857Y-17018476D02*
X7925476Y-17018476D01*
X7925476Y-17018476D02*
X7944524Y-17028000D01*
X7944524Y-17028000D02*
X7954048Y-17037524D01*
X7954048Y-17037524D02*
X7963571Y-17056571D01*
X7963571Y-17056571D02*
X7963571Y-17075619D01*
X7963571Y-17075619D02*
X7954048Y-17104190D01*
X7954048Y-17104190D02*
X7839762Y-17218476D01*
X7839762Y-17218476D02*
X7963571Y-17218476D01*
X8030238Y-17018476D02*
X8163571Y-17018476D01*
X8163571Y-17018476D02*
X8077857Y-17218476D01*
X8325476Y-17018476D02*
X8287381Y-17018476D01*
X8287381Y-17018476D02*
X8268333Y-17028000D01*
X8268333Y-17028000D02*
X8258810Y-17037524D01*
X8258810Y-17037524D02*
X8239762Y-17066095D01*
X8239762Y-17066095D02*
X8230238Y-17104190D01*
X8230238Y-17104190D02*
X8230238Y-17180381D01*
X8230238Y-17180381D02*
X8239762Y-17199429D01*
X8239762Y-17199429D02*
X8249286Y-17208952D01*
X8249286Y-17208952D02*
X8268333Y-17218476D01*
X8268333Y-17218476D02*
X8306429Y-17218476D01*
X8306429Y-17218476D02*
X8325476Y-17208952D01*
X8325476Y-17208952D02*
X8335000Y-17199429D01*
X8335000Y-17199429D02*
X8344524Y-17180381D01*
X8344524Y-17180381D02*
X8344524Y-17132762D01*
X8344524Y-17132762D02*
X8335000Y-17113714D01*
X8335000Y-17113714D02*
X8325476Y-17104190D01*
X8325476Y-17104190D02*
X8306429Y-17094667D01*
X8306429Y-17094667D02*
X8268333Y-17094667D01*
X8268333Y-17094667D02*
X8249286Y-17104190D01*
X8249286Y-17104190D02*
X8239762Y-17113714D01*
X8239762Y-17113714D02*
X8230238Y-17132762D01*
X8420714Y-17018476D02*
X8420714Y-17056571D01*
X8496905Y-17018476D02*
X8496905Y-17056571D01*
X8759762Y-17294667D02*
X8750238Y-17285143D01*
X8750238Y-17285143D02*
X8731191Y-17256571D01*
X8731191Y-17256571D02*
X8721667Y-17237524D01*
X8721667Y-17237524D02*
X8712143Y-17208952D01*
X8712143Y-17208952D02*
X8702619Y-17161333D01*
X8702619Y-17161333D02*
X8702619Y-17123238D01*
X8702619Y-17123238D02*
X8712143Y-17075619D01*
X8712143Y-17075619D02*
X8721667Y-17047048D01*
X8721667Y-17047048D02*
X8731191Y-17028000D01*
X8731191Y-17028000D02*
X8750238Y-16999429D01*
X8750238Y-16999429D02*
X8759762Y-16989905D01*
X8921667Y-17085143D02*
X8921667Y-17218476D01*
X8874048Y-17008952D02*
X8826429Y-17151810D01*
X8826429Y-17151810D02*
X8950238Y-17151810D01*
X9146429Y-17218476D02*
X9146429Y-17018476D01*
X9232143Y-17218476D02*
X9232143Y-17113714D01*
X9232143Y-17113714D02*
X9222619Y-17094667D01*
X9222619Y-17094667D02*
X9203572Y-17085143D01*
X9203572Y-17085143D02*
X9175000Y-17085143D01*
X9175000Y-17085143D02*
X9155953Y-17094667D01*
X9155953Y-17094667D02*
X9146429Y-17104190D01*
X9355953Y-17218476D02*
X9336905Y-17208952D01*
X9336905Y-17208952D02*
X9327381Y-17199429D01*
X9327381Y-17199429D02*
X9317857Y-17180381D01*
X9317857Y-17180381D02*
X9317857Y-17123238D01*
X9317857Y-17123238D02*
X9327381Y-17104190D01*
X9327381Y-17104190D02*
X9336905Y-17094667D01*
X9336905Y-17094667D02*
X9355953Y-17085143D01*
X9355953Y-17085143D02*
X9384524Y-17085143D01*
X9384524Y-17085143D02*
X9403572Y-17094667D01*
X9403572Y-17094667D02*
X9413095Y-17104190D01*
X9413095Y-17104190D02*
X9422619Y-17123238D01*
X9422619Y-17123238D02*
X9422619Y-17180381D01*
X9422619Y-17180381D02*
X9413095Y-17199429D01*
X9413095Y-17199429D02*
X9403572Y-17208952D01*
X9403572Y-17208952D02*
X9384524Y-17218476D01*
X9384524Y-17218476D02*
X9355953Y-17218476D01*
X9536905Y-17218476D02*
X9517857Y-17208952D01*
X9517857Y-17208952D02*
X9508334Y-17189905D01*
X9508334Y-17189905D02*
X9508334Y-17018476D01*
X9689286Y-17208952D02*
X9670238Y-17218476D01*
X9670238Y-17218476D02*
X9632143Y-17218476D01*
X9632143Y-17218476D02*
X9613095Y-17208952D01*
X9613095Y-17208952D02*
X9603572Y-17189905D01*
X9603572Y-17189905D02*
X9603572Y-17113714D01*
X9603572Y-17113714D02*
X9613095Y-17094667D01*
X9613095Y-17094667D02*
X9632143Y-17085143D01*
X9632143Y-17085143D02*
X9670238Y-17085143D01*
X9670238Y-17085143D02*
X9689286Y-17094667D01*
X9689286Y-17094667D02*
X9698810Y-17113714D01*
X9698810Y-17113714D02*
X9698810Y-17132762D01*
X9698810Y-17132762D02*
X9603572Y-17151810D01*
X9775000Y-17208952D02*
X9794048Y-17218476D01*
X9794048Y-17218476D02*
X9832143Y-17218476D01*
X9832143Y-17218476D02*
X9851191Y-17208952D01*
X9851191Y-17208952D02*
X9860715Y-17189905D01*
X9860715Y-17189905D02*
X9860715Y-17180381D01*
X9860715Y-17180381D02*
X9851191Y-17161333D01*
X9851191Y-17161333D02*
X9832143Y-17151810D01*
X9832143Y-17151810D02*
X9803572Y-17151810D01*
X9803572Y-17151810D02*
X9784524Y-17142286D01*
X9784524Y-17142286D02*
X9775000Y-17123238D01*
X9775000Y-17123238D02*
X9775000Y-17113714D01*
X9775000Y-17113714D02*
X9784524Y-17094667D01*
X9784524Y-17094667D02*
X9803572Y-17085143D01*
X9803572Y-17085143D02*
X9832143Y-17085143D01*
X9832143Y-17085143D02*
X9851191Y-17094667D01*
X9927381Y-17294667D02*
X9936905Y-17285143D01*
X9936905Y-17285143D02*
X9955953Y-17256571D01*
X9955953Y-17256571D02*
X9965476Y-17237524D01*
X9965476Y-17237524D02*
X9975000Y-17208952D01*
X9975000Y-17208952D02*
X9984524Y-17161333D01*
X9984524Y-17161333D02*
X9984524Y-17123238D01*
X9984524Y-17123238D02*
X9975000Y-17075619D01*
X9975000Y-17075619D02*
X9965476Y-17047048D01*
X9965476Y-17047048D02*
X9955953Y-17028000D01*
X9955953Y-17028000D02*
X9936905Y-16999429D01*
X9936905Y-16999429D02*
X9927381Y-16989905D01*
D13*
X5295000Y-17409000D02*
G75*
G03*
X5295000Y-17409000I-40000J0D01*
G01*
D11*
X5580714Y-17282476D02*
X5599762Y-17282476D01*
X5599762Y-17282476D02*
X5618809Y-17292000D01*
X5618809Y-17292000D02*
X5628333Y-17301524D01*
X5628333Y-17301524D02*
X5637857Y-17320571D01*
X5637857Y-17320571D02*
X5647381Y-17358667D01*
X5647381Y-17358667D02*
X5647381Y-17406286D01*
X5647381Y-17406286D02*
X5637857Y-17444381D01*
X5637857Y-17444381D02*
X5628333Y-17463429D01*
X5628333Y-17463429D02*
X5618809Y-17472952D01*
X5618809Y-17472952D02*
X5599762Y-17482476D01*
X5599762Y-17482476D02*
X5580714Y-17482476D01*
X5580714Y-17482476D02*
X5561667Y-17472952D01*
X5561667Y-17472952D02*
X5552143Y-17463429D01*
X5552143Y-17463429D02*
X5542619Y-17444381D01*
X5542619Y-17444381D02*
X5533095Y-17406286D01*
X5533095Y-17406286D02*
X5533095Y-17358667D01*
X5533095Y-17358667D02*
X5542619Y-17320571D01*
X5542619Y-17320571D02*
X5552143Y-17301524D01*
X5552143Y-17301524D02*
X5561667Y-17292000D01*
X5561667Y-17292000D02*
X5580714Y-17282476D01*
X5733095Y-17463429D02*
X5742619Y-17472952D01*
X5742619Y-17472952D02*
X5733095Y-17482476D01*
X5733095Y-17482476D02*
X5723571Y-17472952D01*
X5723571Y-17472952D02*
X5733095Y-17463429D01*
X5733095Y-17463429D02*
X5733095Y-17482476D01*
X5856905Y-17368190D02*
X5837857Y-17358667D01*
X5837857Y-17358667D02*
X5828333Y-17349143D01*
X5828333Y-17349143D02*
X5818809Y-17330095D01*
X5818809Y-17330095D02*
X5818809Y-17320571D01*
X5818809Y-17320571D02*
X5828333Y-17301524D01*
X5828333Y-17301524D02*
X5837857Y-17292000D01*
X5837857Y-17292000D02*
X5856905Y-17282476D01*
X5856905Y-17282476D02*
X5895000Y-17282476D01*
X5895000Y-17282476D02*
X5914048Y-17292000D01*
X5914048Y-17292000D02*
X5923571Y-17301524D01*
X5923571Y-17301524D02*
X5933095Y-17320571D01*
X5933095Y-17320571D02*
X5933095Y-17330095D01*
X5933095Y-17330095D02*
X5923571Y-17349143D01*
X5923571Y-17349143D02*
X5914048Y-17358667D01*
X5914048Y-17358667D02*
X5895000Y-17368190D01*
X5895000Y-17368190D02*
X5856905Y-17368190D01*
X5856905Y-17368190D02*
X5837857Y-17377714D01*
X5837857Y-17377714D02*
X5828333Y-17387238D01*
X5828333Y-17387238D02*
X5818809Y-17406286D01*
X5818809Y-17406286D02*
X5818809Y-17444381D01*
X5818809Y-17444381D02*
X5828333Y-17463429D01*
X5828333Y-17463429D02*
X5837857Y-17472952D01*
X5837857Y-17472952D02*
X5856905Y-17482476D01*
X5856905Y-17482476D02*
X5895000Y-17482476D01*
X5895000Y-17482476D02*
X5914048Y-17472952D01*
X5914048Y-17472952D02*
X5923571Y-17463429D01*
X5923571Y-17463429D02*
X5933095Y-17444381D01*
X5933095Y-17444381D02*
X5933095Y-17406286D01*
X5933095Y-17406286D02*
X5923571Y-17387238D01*
X5923571Y-17387238D02*
X5914048Y-17377714D01*
X5914048Y-17377714D02*
X5895000Y-17368190D01*
X6056905Y-17282476D02*
X6075952Y-17282476D01*
X6075952Y-17282476D02*
X6095000Y-17292000D01*
X6095000Y-17292000D02*
X6104524Y-17301524D01*
X6104524Y-17301524D02*
X6114048Y-17320571D01*
X6114048Y-17320571D02*
X6123571Y-17358667D01*
X6123571Y-17358667D02*
X6123571Y-17406286D01*
X6123571Y-17406286D02*
X6114048Y-17444381D01*
X6114048Y-17444381D02*
X6104524Y-17463429D01*
X6104524Y-17463429D02*
X6095000Y-17472952D01*
X6095000Y-17472952D02*
X6075952Y-17482476D01*
X6075952Y-17482476D02*
X6056905Y-17482476D01*
X6056905Y-17482476D02*
X6037857Y-17472952D01*
X6037857Y-17472952D02*
X6028333Y-17463429D01*
X6028333Y-17463429D02*
X6018809Y-17444381D01*
X6018809Y-17444381D02*
X6009286Y-17406286D01*
X6009286Y-17406286D02*
X6009286Y-17358667D01*
X6009286Y-17358667D02*
X6018809Y-17320571D01*
X6018809Y-17320571D02*
X6028333Y-17301524D01*
X6028333Y-17301524D02*
X6037857Y-17292000D01*
X6037857Y-17292000D02*
X6056905Y-17282476D01*
X6247381Y-17282476D02*
X6266429Y-17282476D01*
X6266429Y-17282476D02*
X6285476Y-17292000D01*
X6285476Y-17292000D02*
X6295000Y-17301524D01*
X6295000Y-17301524D02*
X6304524Y-17320571D01*
X6304524Y-17320571D02*
X6314048Y-17358667D01*
X6314048Y-17358667D02*
X6314048Y-17406286D01*
X6314048Y-17406286D02*
X6304524Y-17444381D01*
X6304524Y-17444381D02*
X6295000Y-17463429D01*
X6295000Y-17463429D02*
X6285476Y-17472952D01*
X6285476Y-17472952D02*
X6266429Y-17482476D01*
X6266429Y-17482476D02*
X6247381Y-17482476D01*
X6247381Y-17482476D02*
X6228333Y-17472952D01*
X6228333Y-17472952D02*
X6218809Y-17463429D01*
X6218809Y-17463429D02*
X6209286Y-17444381D01*
X6209286Y-17444381D02*
X6199762Y-17406286D01*
X6199762Y-17406286D02*
X6199762Y-17358667D01*
X6199762Y-17358667D02*
X6209286Y-17320571D01*
X6209286Y-17320571D02*
X6218809Y-17301524D01*
X6218809Y-17301524D02*
X6228333Y-17292000D01*
X6228333Y-17292000D02*
X6247381Y-17282476D01*
X6399762Y-17482476D02*
X6399762Y-17349143D01*
X6399762Y-17368190D02*
X6409286Y-17358667D01*
X6409286Y-17358667D02*
X6428333Y-17349143D01*
X6428333Y-17349143D02*
X6456905Y-17349143D01*
X6456905Y-17349143D02*
X6475952Y-17358667D01*
X6475952Y-17358667D02*
X6485476Y-17377714D01*
X6485476Y-17377714D02*
X6485476Y-17482476D01*
X6485476Y-17377714D02*
X6495000Y-17358667D01*
X6495000Y-17358667D02*
X6514048Y-17349143D01*
X6514048Y-17349143D02*
X6542619Y-17349143D01*
X6542619Y-17349143D02*
X6561667Y-17358667D01*
X6561667Y-17358667D02*
X6571190Y-17377714D01*
X6571190Y-17377714D02*
X6571190Y-17482476D01*
X6666429Y-17482476D02*
X6666429Y-17349143D01*
X6666429Y-17368190D02*
X6675952Y-17358667D01*
X6675952Y-17358667D02*
X6695000Y-17349143D01*
X6695000Y-17349143D02*
X6723571Y-17349143D01*
X6723571Y-17349143D02*
X6742619Y-17358667D01*
X6742619Y-17358667D02*
X6752143Y-17377714D01*
X6752143Y-17377714D02*
X6752143Y-17482476D01*
X6752143Y-17377714D02*
X6761667Y-17358667D01*
X6761667Y-17358667D02*
X6780714Y-17349143D01*
X6780714Y-17349143D02*
X6809286Y-17349143D01*
X6809286Y-17349143D02*
X6828333Y-17358667D01*
X6828333Y-17358667D02*
X6837857Y-17377714D01*
X6837857Y-17377714D02*
X6837857Y-17482476D01*
X7195952Y-17272952D02*
X7024524Y-17530095D01*
X7420714Y-17282476D02*
X7439762Y-17282476D01*
X7439762Y-17282476D02*
X7458810Y-17292000D01*
X7458810Y-17292000D02*
X7468333Y-17301524D01*
X7468333Y-17301524D02*
X7477857Y-17320571D01*
X7477857Y-17320571D02*
X7487381Y-17358667D01*
X7487381Y-17358667D02*
X7487381Y-17406286D01*
X7487381Y-17406286D02*
X7477857Y-17444381D01*
X7477857Y-17444381D02*
X7468333Y-17463429D01*
X7468333Y-17463429D02*
X7458810Y-17472952D01*
X7458810Y-17472952D02*
X7439762Y-17482476D01*
X7439762Y-17482476D02*
X7420714Y-17482476D01*
X7420714Y-17482476D02*
X7401667Y-17472952D01*
X7401667Y-17472952D02*
X7392143Y-17463429D01*
X7392143Y-17463429D02*
X7382619Y-17444381D01*
X7382619Y-17444381D02*
X7373095Y-17406286D01*
X7373095Y-17406286D02*
X7373095Y-17358667D01*
X7373095Y-17358667D02*
X7382619Y-17320571D01*
X7382619Y-17320571D02*
X7392143Y-17301524D01*
X7392143Y-17301524D02*
X7401667Y-17292000D01*
X7401667Y-17292000D02*
X7420714Y-17282476D01*
X7573095Y-17463429D02*
X7582619Y-17472952D01*
X7582619Y-17472952D02*
X7573095Y-17482476D01*
X7573095Y-17482476D02*
X7563571Y-17472952D01*
X7563571Y-17472952D02*
X7573095Y-17463429D01*
X7573095Y-17463429D02*
X7573095Y-17482476D01*
X7706429Y-17282476D02*
X7725476Y-17282476D01*
X7725476Y-17282476D02*
X7744524Y-17292000D01*
X7744524Y-17292000D02*
X7754048Y-17301524D01*
X7754048Y-17301524D02*
X7763571Y-17320571D01*
X7763571Y-17320571D02*
X7773095Y-17358667D01*
X7773095Y-17358667D02*
X7773095Y-17406286D01*
X7773095Y-17406286D02*
X7763571Y-17444381D01*
X7763571Y-17444381D02*
X7754048Y-17463429D01*
X7754048Y-17463429D02*
X7744524Y-17472952D01*
X7744524Y-17472952D02*
X7725476Y-17482476D01*
X7725476Y-17482476D02*
X7706429Y-17482476D01*
X7706429Y-17482476D02*
X7687381Y-17472952D01*
X7687381Y-17472952D02*
X7677857Y-17463429D01*
X7677857Y-17463429D02*
X7668333Y-17444381D01*
X7668333Y-17444381D02*
X7658810Y-17406286D01*
X7658810Y-17406286D02*
X7658810Y-17358667D01*
X7658810Y-17358667D02*
X7668333Y-17320571D01*
X7668333Y-17320571D02*
X7677857Y-17301524D01*
X7677857Y-17301524D02*
X7687381Y-17292000D01*
X7687381Y-17292000D02*
X7706429Y-17282476D01*
X7839762Y-17282476D02*
X7963571Y-17282476D01*
X7963571Y-17282476D02*
X7896905Y-17358667D01*
X7896905Y-17358667D02*
X7925476Y-17358667D01*
X7925476Y-17358667D02*
X7944524Y-17368190D01*
X7944524Y-17368190D02*
X7954048Y-17377714D01*
X7954048Y-17377714D02*
X7963571Y-17396762D01*
X7963571Y-17396762D02*
X7963571Y-17444381D01*
X7963571Y-17444381D02*
X7954048Y-17463429D01*
X7954048Y-17463429D02*
X7944524Y-17472952D01*
X7944524Y-17472952D02*
X7925476Y-17482476D01*
X7925476Y-17482476D02*
X7868333Y-17482476D01*
X7868333Y-17482476D02*
X7849286Y-17472952D01*
X7849286Y-17472952D02*
X7839762Y-17463429D01*
X8154048Y-17482476D02*
X8039762Y-17482476D01*
X8096905Y-17482476D02*
X8096905Y-17282476D01*
X8096905Y-17282476D02*
X8077857Y-17311048D01*
X8077857Y-17311048D02*
X8058810Y-17330095D01*
X8058810Y-17330095D02*
X8039762Y-17339619D01*
X8335000Y-17282476D02*
X8239762Y-17282476D01*
X8239762Y-17282476D02*
X8230238Y-17377714D01*
X8230238Y-17377714D02*
X8239762Y-17368190D01*
X8239762Y-17368190D02*
X8258810Y-17358667D01*
X8258810Y-17358667D02*
X8306429Y-17358667D01*
X8306429Y-17358667D02*
X8325476Y-17368190D01*
X8325476Y-17368190D02*
X8335000Y-17377714D01*
X8335000Y-17377714D02*
X8344524Y-17396762D01*
X8344524Y-17396762D02*
X8344524Y-17444381D01*
X8344524Y-17444381D02*
X8335000Y-17463429D01*
X8335000Y-17463429D02*
X8325476Y-17472952D01*
X8325476Y-17472952D02*
X8306429Y-17482476D01*
X8306429Y-17482476D02*
X8258810Y-17482476D01*
X8258810Y-17482476D02*
X8239762Y-17472952D01*
X8239762Y-17472952D02*
X8230238Y-17463429D01*
X8420714Y-17282476D02*
X8420714Y-17320571D01*
X8496905Y-17282476D02*
X8496905Y-17320571D01*
X8759762Y-17558667D02*
X8750238Y-17549143D01*
X8750238Y-17549143D02*
X8731191Y-17520571D01*
X8731191Y-17520571D02*
X8721667Y-17501524D01*
X8721667Y-17501524D02*
X8712143Y-17472952D01*
X8712143Y-17472952D02*
X8702619Y-17425333D01*
X8702619Y-17425333D02*
X8702619Y-17387238D01*
X8702619Y-17387238D02*
X8712143Y-17339619D01*
X8712143Y-17339619D02*
X8721667Y-17311048D01*
X8721667Y-17311048D02*
X8731191Y-17292000D01*
X8731191Y-17292000D02*
X8750238Y-17263429D01*
X8750238Y-17263429D02*
X8759762Y-17253905D01*
X8816905Y-17282476D02*
X8940714Y-17282476D01*
X8940714Y-17282476D02*
X8874048Y-17358667D01*
X8874048Y-17358667D02*
X8902619Y-17358667D01*
X8902619Y-17358667D02*
X8921667Y-17368190D01*
X8921667Y-17368190D02*
X8931191Y-17377714D01*
X8931191Y-17377714D02*
X8940714Y-17396762D01*
X8940714Y-17396762D02*
X8940714Y-17444381D01*
X8940714Y-17444381D02*
X8931191Y-17463429D01*
X8931191Y-17463429D02*
X8921667Y-17472952D01*
X8921667Y-17472952D02*
X8902619Y-17482476D01*
X8902619Y-17482476D02*
X8845476Y-17482476D01*
X8845476Y-17482476D02*
X8826429Y-17472952D01*
X8826429Y-17472952D02*
X8816905Y-17463429D01*
X9064524Y-17282476D02*
X9083572Y-17282476D01*
X9083572Y-17282476D02*
X9102619Y-17292000D01*
X9102619Y-17292000D02*
X9112143Y-17301524D01*
X9112143Y-17301524D02*
X9121667Y-17320571D01*
X9121667Y-17320571D02*
X9131191Y-17358667D01*
X9131191Y-17358667D02*
X9131191Y-17406286D01*
X9131191Y-17406286D02*
X9121667Y-17444381D01*
X9121667Y-17444381D02*
X9112143Y-17463429D01*
X9112143Y-17463429D02*
X9102619Y-17472952D01*
X9102619Y-17472952D02*
X9083572Y-17482476D01*
X9083572Y-17482476D02*
X9064524Y-17482476D01*
X9064524Y-17482476D02*
X9045476Y-17472952D01*
X9045476Y-17472952D02*
X9035953Y-17463429D01*
X9035953Y-17463429D02*
X9026429Y-17444381D01*
X9026429Y-17444381D02*
X9016905Y-17406286D01*
X9016905Y-17406286D02*
X9016905Y-17358667D01*
X9016905Y-17358667D02*
X9026429Y-17320571D01*
X9026429Y-17320571D02*
X9035953Y-17301524D01*
X9035953Y-17301524D02*
X9045476Y-17292000D01*
X9045476Y-17292000D02*
X9064524Y-17282476D01*
X9336905Y-17482476D02*
X9336905Y-17282476D01*
X9422619Y-17482476D02*
X9422619Y-17377714D01*
X9422619Y-17377714D02*
X9413095Y-17358667D01*
X9413095Y-17358667D02*
X9394048Y-17349143D01*
X9394048Y-17349143D02*
X9365476Y-17349143D01*
X9365476Y-17349143D02*
X9346429Y-17358667D01*
X9346429Y-17358667D02*
X9336905Y-17368190D01*
X9546429Y-17482476D02*
X9527381Y-17472952D01*
X9527381Y-17472952D02*
X9517857Y-17463429D01*
X9517857Y-17463429D02*
X9508334Y-17444381D01*
X9508334Y-17444381D02*
X9508334Y-17387238D01*
X9508334Y-17387238D02*
X9517857Y-17368190D01*
X9517857Y-17368190D02*
X9527381Y-17358667D01*
X9527381Y-17358667D02*
X9546429Y-17349143D01*
X9546429Y-17349143D02*
X9575000Y-17349143D01*
X9575000Y-17349143D02*
X9594048Y-17358667D01*
X9594048Y-17358667D02*
X9603572Y-17368190D01*
X9603572Y-17368190D02*
X9613095Y-17387238D01*
X9613095Y-17387238D02*
X9613095Y-17444381D01*
X9613095Y-17444381D02*
X9603572Y-17463429D01*
X9603572Y-17463429D02*
X9594048Y-17472952D01*
X9594048Y-17472952D02*
X9575000Y-17482476D01*
X9575000Y-17482476D02*
X9546429Y-17482476D01*
X9727381Y-17482476D02*
X9708334Y-17472952D01*
X9708334Y-17472952D02*
X9698810Y-17453905D01*
X9698810Y-17453905D02*
X9698810Y-17282476D01*
X9879762Y-17472952D02*
X9860715Y-17482476D01*
X9860715Y-17482476D02*
X9822619Y-17482476D01*
X9822619Y-17482476D02*
X9803572Y-17472952D01*
X9803572Y-17472952D02*
X9794048Y-17453905D01*
X9794048Y-17453905D02*
X9794048Y-17377714D01*
X9794048Y-17377714D02*
X9803572Y-17358667D01*
X9803572Y-17358667D02*
X9822619Y-17349143D01*
X9822619Y-17349143D02*
X9860715Y-17349143D01*
X9860715Y-17349143D02*
X9879762Y-17358667D01*
X9879762Y-17358667D02*
X9889286Y-17377714D01*
X9889286Y-17377714D02*
X9889286Y-17396762D01*
X9889286Y-17396762D02*
X9794048Y-17415810D01*
X9965476Y-17472952D02*
X9984524Y-17482476D01*
X9984524Y-17482476D02*
X10022619Y-17482476D01*
X10022619Y-17482476D02*
X10041667Y-17472952D01*
X10041667Y-17472952D02*
X10051191Y-17453905D01*
X10051191Y-17453905D02*
X10051191Y-17444381D01*
X10051191Y-17444381D02*
X10041667Y-17425333D01*
X10041667Y-17425333D02*
X10022619Y-17415810D01*
X10022619Y-17415810D02*
X9994048Y-17415810D01*
X9994048Y-17415810D02*
X9975000Y-17406286D01*
X9975000Y-17406286D02*
X9965476Y-17387238D01*
X9965476Y-17387238D02*
X9965476Y-17377714D01*
X9965476Y-17377714D02*
X9975000Y-17358667D01*
X9975000Y-17358667D02*
X9994048Y-17349143D01*
X9994048Y-17349143D02*
X10022619Y-17349143D01*
X10022619Y-17349143D02*
X10041667Y-17358667D01*
X10117857Y-17558667D02*
X10127381Y-17549143D01*
X10127381Y-17549143D02*
X10146429Y-17520571D01*
X10146429Y-17520571D02*
X10155953Y-17501524D01*
X10155953Y-17501524D02*
X10165476Y-17472952D01*
X10165476Y-17472952D02*
X10175000Y-17425333D01*
X10175000Y-17425333D02*
X10175000Y-17387238D01*
X10175000Y-17387238D02*
X10165476Y-17339619D01*
X10165476Y-17339619D02*
X10155953Y-17311048D01*
X10155953Y-17311048D02*
X10146429Y-17292000D01*
X10146429Y-17292000D02*
X10127381Y-17263429D01*
X10127381Y-17263429D02*
X10117857Y-17253905D01*
D14*
X5250000Y-17628000D02*
X5250000Y-17718000D01*
X5205000Y-17673000D02*
X5295000Y-17673000D01*
D11*
X5580714Y-17546476D02*
X5599762Y-17546476D01*
X5599762Y-17546476D02*
X5618809Y-17556000D01*
X5618809Y-17556000D02*
X5628333Y-17565524D01*
X5628333Y-17565524D02*
X5637857Y-17584571D01*
X5637857Y-17584571D02*
X5647381Y-17622667D01*
X5647381Y-17622667D02*
X5647381Y-17670286D01*
X5647381Y-17670286D02*
X5637857Y-17708381D01*
X5637857Y-17708381D02*
X5628333Y-17727429D01*
X5628333Y-17727429D02*
X5618809Y-17736952D01*
X5618809Y-17736952D02*
X5599762Y-17746476D01*
X5599762Y-17746476D02*
X5580714Y-17746476D01*
X5580714Y-17746476D02*
X5561667Y-17736952D01*
X5561667Y-17736952D02*
X5552143Y-17727429D01*
X5552143Y-17727429D02*
X5542619Y-17708381D01*
X5542619Y-17708381D02*
X5533095Y-17670286D01*
X5533095Y-17670286D02*
X5533095Y-17622667D01*
X5533095Y-17622667D02*
X5542619Y-17584571D01*
X5542619Y-17584571D02*
X5552143Y-17565524D01*
X5552143Y-17565524D02*
X5561667Y-17556000D01*
X5561667Y-17556000D02*
X5580714Y-17546476D01*
X5733095Y-17727429D02*
X5742619Y-17736952D01*
X5742619Y-17736952D02*
X5733095Y-17746476D01*
X5733095Y-17746476D02*
X5723571Y-17736952D01*
X5723571Y-17736952D02*
X5733095Y-17727429D01*
X5733095Y-17727429D02*
X5733095Y-17746476D01*
X5837857Y-17746476D02*
X5875952Y-17746476D01*
X5875952Y-17746476D02*
X5895000Y-17736952D01*
X5895000Y-17736952D02*
X5904524Y-17727429D01*
X5904524Y-17727429D02*
X5923571Y-17698857D01*
X5923571Y-17698857D02*
X5933095Y-17660762D01*
X5933095Y-17660762D02*
X5933095Y-17584571D01*
X5933095Y-17584571D02*
X5923571Y-17565524D01*
X5923571Y-17565524D02*
X5914048Y-17556000D01*
X5914048Y-17556000D02*
X5895000Y-17546476D01*
X5895000Y-17546476D02*
X5856905Y-17546476D01*
X5856905Y-17546476D02*
X5837857Y-17556000D01*
X5837857Y-17556000D02*
X5828333Y-17565524D01*
X5828333Y-17565524D02*
X5818809Y-17584571D01*
X5818809Y-17584571D02*
X5818809Y-17632190D01*
X5818809Y-17632190D02*
X5828333Y-17651238D01*
X5828333Y-17651238D02*
X5837857Y-17660762D01*
X5837857Y-17660762D02*
X5856905Y-17670286D01*
X5856905Y-17670286D02*
X5895000Y-17670286D01*
X5895000Y-17670286D02*
X5914048Y-17660762D01*
X5914048Y-17660762D02*
X5923571Y-17651238D01*
X5923571Y-17651238D02*
X5933095Y-17632190D01*
X6056905Y-17546476D02*
X6075952Y-17546476D01*
X6075952Y-17546476D02*
X6095000Y-17556000D01*
X6095000Y-17556000D02*
X6104524Y-17565524D01*
X6104524Y-17565524D02*
X6114048Y-17584571D01*
X6114048Y-17584571D02*
X6123571Y-17622667D01*
X6123571Y-17622667D02*
X6123571Y-17670286D01*
X6123571Y-17670286D02*
X6114048Y-17708381D01*
X6114048Y-17708381D02*
X6104524Y-17727429D01*
X6104524Y-17727429D02*
X6095000Y-17736952D01*
X6095000Y-17736952D02*
X6075952Y-17746476D01*
X6075952Y-17746476D02*
X6056905Y-17746476D01*
X6056905Y-17746476D02*
X6037857Y-17736952D01*
X6037857Y-17736952D02*
X6028333Y-17727429D01*
X6028333Y-17727429D02*
X6018809Y-17708381D01*
X6018809Y-17708381D02*
X6009286Y-17670286D01*
X6009286Y-17670286D02*
X6009286Y-17622667D01*
X6009286Y-17622667D02*
X6018809Y-17584571D01*
X6018809Y-17584571D02*
X6028333Y-17565524D01*
X6028333Y-17565524D02*
X6037857Y-17556000D01*
X6037857Y-17556000D02*
X6056905Y-17546476D01*
X6247381Y-17546476D02*
X6266429Y-17546476D01*
X6266429Y-17546476D02*
X6285476Y-17556000D01*
X6285476Y-17556000D02*
X6295000Y-17565524D01*
X6295000Y-17565524D02*
X6304524Y-17584571D01*
X6304524Y-17584571D02*
X6314048Y-17622667D01*
X6314048Y-17622667D02*
X6314048Y-17670286D01*
X6314048Y-17670286D02*
X6304524Y-17708381D01*
X6304524Y-17708381D02*
X6295000Y-17727429D01*
X6295000Y-17727429D02*
X6285476Y-17736952D01*
X6285476Y-17736952D02*
X6266429Y-17746476D01*
X6266429Y-17746476D02*
X6247381Y-17746476D01*
X6247381Y-17746476D02*
X6228333Y-17736952D01*
X6228333Y-17736952D02*
X6218809Y-17727429D01*
X6218809Y-17727429D02*
X6209286Y-17708381D01*
X6209286Y-17708381D02*
X6199762Y-17670286D01*
X6199762Y-17670286D02*
X6199762Y-17622667D01*
X6199762Y-17622667D02*
X6209286Y-17584571D01*
X6209286Y-17584571D02*
X6218809Y-17565524D01*
X6218809Y-17565524D02*
X6228333Y-17556000D01*
X6228333Y-17556000D02*
X6247381Y-17546476D01*
X6399762Y-17746476D02*
X6399762Y-17613143D01*
X6399762Y-17632190D02*
X6409286Y-17622667D01*
X6409286Y-17622667D02*
X6428333Y-17613143D01*
X6428333Y-17613143D02*
X6456905Y-17613143D01*
X6456905Y-17613143D02*
X6475952Y-17622667D01*
X6475952Y-17622667D02*
X6485476Y-17641714D01*
X6485476Y-17641714D02*
X6485476Y-17746476D01*
X6485476Y-17641714D02*
X6495000Y-17622667D01*
X6495000Y-17622667D02*
X6514048Y-17613143D01*
X6514048Y-17613143D02*
X6542619Y-17613143D01*
X6542619Y-17613143D02*
X6561667Y-17622667D01*
X6561667Y-17622667D02*
X6571190Y-17641714D01*
X6571190Y-17641714D02*
X6571190Y-17746476D01*
X6666429Y-17746476D02*
X6666429Y-17613143D01*
X6666429Y-17632190D02*
X6675952Y-17622667D01*
X6675952Y-17622667D02*
X6695000Y-17613143D01*
X6695000Y-17613143D02*
X6723571Y-17613143D01*
X6723571Y-17613143D02*
X6742619Y-17622667D01*
X6742619Y-17622667D02*
X6752143Y-17641714D01*
X6752143Y-17641714D02*
X6752143Y-17746476D01*
X6752143Y-17641714D02*
X6761667Y-17622667D01*
X6761667Y-17622667D02*
X6780714Y-17613143D01*
X6780714Y-17613143D02*
X6809286Y-17613143D01*
X6809286Y-17613143D02*
X6828333Y-17622667D01*
X6828333Y-17622667D02*
X6837857Y-17641714D01*
X6837857Y-17641714D02*
X6837857Y-17746476D01*
X7195952Y-17536952D02*
X7024524Y-17794095D01*
X7420714Y-17546476D02*
X7439762Y-17546476D01*
X7439762Y-17546476D02*
X7458810Y-17556000D01*
X7458810Y-17556000D02*
X7468333Y-17565524D01*
X7468333Y-17565524D02*
X7477857Y-17584571D01*
X7477857Y-17584571D02*
X7487381Y-17622667D01*
X7487381Y-17622667D02*
X7487381Y-17670286D01*
X7487381Y-17670286D02*
X7477857Y-17708381D01*
X7477857Y-17708381D02*
X7468333Y-17727429D01*
X7468333Y-17727429D02*
X7458810Y-17736952D01*
X7458810Y-17736952D02*
X7439762Y-17746476D01*
X7439762Y-17746476D02*
X7420714Y-17746476D01*
X7420714Y-17746476D02*
X7401667Y-17736952D01*
X7401667Y-17736952D02*
X7392143Y-17727429D01*
X7392143Y-17727429D02*
X7382619Y-17708381D01*
X7382619Y-17708381D02*
X7373095Y-17670286D01*
X7373095Y-17670286D02*
X7373095Y-17622667D01*
X7373095Y-17622667D02*
X7382619Y-17584571D01*
X7382619Y-17584571D02*
X7392143Y-17565524D01*
X7392143Y-17565524D02*
X7401667Y-17556000D01*
X7401667Y-17556000D02*
X7420714Y-17546476D01*
X7573095Y-17727429D02*
X7582619Y-17736952D01*
X7582619Y-17736952D02*
X7573095Y-17746476D01*
X7573095Y-17746476D02*
X7563571Y-17736952D01*
X7563571Y-17736952D02*
X7573095Y-17727429D01*
X7573095Y-17727429D02*
X7573095Y-17746476D01*
X7706429Y-17546476D02*
X7725476Y-17546476D01*
X7725476Y-17546476D02*
X7744524Y-17556000D01*
X7744524Y-17556000D02*
X7754048Y-17565524D01*
X7754048Y-17565524D02*
X7763571Y-17584571D01*
X7763571Y-17584571D02*
X7773095Y-17622667D01*
X7773095Y-17622667D02*
X7773095Y-17670286D01*
X7773095Y-17670286D02*
X7763571Y-17708381D01*
X7763571Y-17708381D02*
X7754048Y-17727429D01*
X7754048Y-17727429D02*
X7744524Y-17736952D01*
X7744524Y-17736952D02*
X7725476Y-17746476D01*
X7725476Y-17746476D02*
X7706429Y-17746476D01*
X7706429Y-17746476D02*
X7687381Y-17736952D01*
X7687381Y-17736952D02*
X7677857Y-17727429D01*
X7677857Y-17727429D02*
X7668333Y-17708381D01*
X7668333Y-17708381D02*
X7658810Y-17670286D01*
X7658810Y-17670286D02*
X7658810Y-17622667D01*
X7658810Y-17622667D02*
X7668333Y-17584571D01*
X7668333Y-17584571D02*
X7677857Y-17565524D01*
X7677857Y-17565524D02*
X7687381Y-17556000D01*
X7687381Y-17556000D02*
X7706429Y-17546476D01*
X7839762Y-17546476D02*
X7963571Y-17546476D01*
X7963571Y-17546476D02*
X7896905Y-17622667D01*
X7896905Y-17622667D02*
X7925476Y-17622667D01*
X7925476Y-17622667D02*
X7944524Y-17632190D01*
X7944524Y-17632190D02*
X7954048Y-17641714D01*
X7954048Y-17641714D02*
X7963571Y-17660762D01*
X7963571Y-17660762D02*
X7963571Y-17708381D01*
X7963571Y-17708381D02*
X7954048Y-17727429D01*
X7954048Y-17727429D02*
X7944524Y-17736952D01*
X7944524Y-17736952D02*
X7925476Y-17746476D01*
X7925476Y-17746476D02*
X7868333Y-17746476D01*
X7868333Y-17746476D02*
X7849286Y-17736952D01*
X7849286Y-17736952D02*
X7839762Y-17727429D01*
X8144524Y-17546476D02*
X8049286Y-17546476D01*
X8049286Y-17546476D02*
X8039762Y-17641714D01*
X8039762Y-17641714D02*
X8049286Y-17632190D01*
X8049286Y-17632190D02*
X8068333Y-17622667D01*
X8068333Y-17622667D02*
X8115952Y-17622667D01*
X8115952Y-17622667D02*
X8135000Y-17632190D01*
X8135000Y-17632190D02*
X8144524Y-17641714D01*
X8144524Y-17641714D02*
X8154048Y-17660762D01*
X8154048Y-17660762D02*
X8154048Y-17708381D01*
X8154048Y-17708381D02*
X8144524Y-17727429D01*
X8144524Y-17727429D02*
X8135000Y-17736952D01*
X8135000Y-17736952D02*
X8115952Y-17746476D01*
X8115952Y-17746476D02*
X8068333Y-17746476D01*
X8068333Y-17746476D02*
X8049286Y-17736952D01*
X8049286Y-17736952D02*
X8039762Y-17727429D01*
X8325476Y-17613143D02*
X8325476Y-17746476D01*
X8277857Y-17536952D02*
X8230238Y-17679810D01*
X8230238Y-17679810D02*
X8354048Y-17679810D01*
X8420714Y-17546476D02*
X8420714Y-17584571D01*
X8496905Y-17546476D02*
X8496905Y-17584571D01*
X8759762Y-17822667D02*
X8750238Y-17813143D01*
X8750238Y-17813143D02*
X8731191Y-17784571D01*
X8731191Y-17784571D02*
X8721667Y-17765524D01*
X8721667Y-17765524D02*
X8712143Y-17736952D01*
X8712143Y-17736952D02*
X8702619Y-17689333D01*
X8702619Y-17689333D02*
X8702619Y-17651238D01*
X8702619Y-17651238D02*
X8712143Y-17603619D01*
X8712143Y-17603619D02*
X8721667Y-17575048D01*
X8721667Y-17575048D02*
X8731191Y-17556000D01*
X8731191Y-17556000D02*
X8750238Y-17527429D01*
X8750238Y-17527429D02*
X8759762Y-17517905D01*
X8826429Y-17565524D02*
X8835953Y-17556000D01*
X8835953Y-17556000D02*
X8855000Y-17546476D01*
X8855000Y-17546476D02*
X8902619Y-17546476D01*
X8902619Y-17546476D02*
X8921667Y-17556000D01*
X8921667Y-17556000D02*
X8931191Y-17565524D01*
X8931191Y-17565524D02*
X8940714Y-17584571D01*
X8940714Y-17584571D02*
X8940714Y-17603619D01*
X8940714Y-17603619D02*
X8931191Y-17632190D01*
X8931191Y-17632190D02*
X8816905Y-17746476D01*
X8816905Y-17746476D02*
X8940714Y-17746476D01*
X9112143Y-17546476D02*
X9074048Y-17546476D01*
X9074048Y-17546476D02*
X9055000Y-17556000D01*
X9055000Y-17556000D02*
X9045476Y-17565524D01*
X9045476Y-17565524D02*
X9026429Y-17594095D01*
X9026429Y-17594095D02*
X9016905Y-17632190D01*
X9016905Y-17632190D02*
X9016905Y-17708381D01*
X9016905Y-17708381D02*
X9026429Y-17727429D01*
X9026429Y-17727429D02*
X9035953Y-17736952D01*
X9035953Y-17736952D02*
X9055000Y-17746476D01*
X9055000Y-17746476D02*
X9093095Y-17746476D01*
X9093095Y-17746476D02*
X9112143Y-17736952D01*
X9112143Y-17736952D02*
X9121667Y-17727429D01*
X9121667Y-17727429D02*
X9131191Y-17708381D01*
X9131191Y-17708381D02*
X9131191Y-17660762D01*
X9131191Y-17660762D02*
X9121667Y-17641714D01*
X9121667Y-17641714D02*
X9112143Y-17632190D01*
X9112143Y-17632190D02*
X9093095Y-17622667D01*
X9093095Y-17622667D02*
X9055000Y-17622667D01*
X9055000Y-17622667D02*
X9035953Y-17632190D01*
X9035953Y-17632190D02*
X9026429Y-17641714D01*
X9026429Y-17641714D02*
X9016905Y-17660762D01*
X9336905Y-17746476D02*
X9336905Y-17546476D01*
X9422619Y-17746476D02*
X9422619Y-17641714D01*
X9422619Y-17641714D02*
X9413095Y-17622667D01*
X9413095Y-17622667D02*
X9394048Y-17613143D01*
X9394048Y-17613143D02*
X9365476Y-17613143D01*
X9365476Y-17613143D02*
X9346429Y-17622667D01*
X9346429Y-17622667D02*
X9336905Y-17632190D01*
X9546429Y-17746476D02*
X9527381Y-17736952D01*
X9527381Y-17736952D02*
X9517857Y-17727429D01*
X9517857Y-17727429D02*
X9508334Y-17708381D01*
X9508334Y-17708381D02*
X9508334Y-17651238D01*
X9508334Y-17651238D02*
X9517857Y-17632190D01*
X9517857Y-17632190D02*
X9527381Y-17622667D01*
X9527381Y-17622667D02*
X9546429Y-17613143D01*
X9546429Y-17613143D02*
X9575000Y-17613143D01*
X9575000Y-17613143D02*
X9594048Y-17622667D01*
X9594048Y-17622667D02*
X9603572Y-17632190D01*
X9603572Y-17632190D02*
X9613095Y-17651238D01*
X9613095Y-17651238D02*
X9613095Y-17708381D01*
X9613095Y-17708381D02*
X9603572Y-17727429D01*
X9603572Y-17727429D02*
X9594048Y-17736952D01*
X9594048Y-17736952D02*
X9575000Y-17746476D01*
X9575000Y-17746476D02*
X9546429Y-17746476D01*
X9727381Y-17746476D02*
X9708334Y-17736952D01*
X9708334Y-17736952D02*
X9698810Y-17717905D01*
X9698810Y-17717905D02*
X9698810Y-17546476D01*
X9879762Y-17736952D02*
X9860715Y-17746476D01*
X9860715Y-17746476D02*
X9822619Y-17746476D01*
X9822619Y-17746476D02*
X9803572Y-17736952D01*
X9803572Y-17736952D02*
X9794048Y-17717905D01*
X9794048Y-17717905D02*
X9794048Y-17641714D01*
X9794048Y-17641714D02*
X9803572Y-17622667D01*
X9803572Y-17622667D02*
X9822619Y-17613143D01*
X9822619Y-17613143D02*
X9860715Y-17613143D01*
X9860715Y-17613143D02*
X9879762Y-17622667D01*
X9879762Y-17622667D02*
X9889286Y-17641714D01*
X9889286Y-17641714D02*
X9889286Y-17660762D01*
X9889286Y-17660762D02*
X9794048Y-17679810D01*
X9965476Y-17736952D02*
X9984524Y-17746476D01*
X9984524Y-17746476D02*
X10022619Y-17746476D01*
X10022619Y-17746476D02*
X10041667Y-17736952D01*
X10041667Y-17736952D02*
X10051191Y-17717905D01*
X10051191Y-17717905D02*
X10051191Y-17708381D01*
X10051191Y-17708381D02*
X10041667Y-17689333D01*
X10041667Y-17689333D02*
X10022619Y-17679810D01*
X10022619Y-17679810D02*
X9994048Y-17679810D01*
X9994048Y-17679810D02*
X9975000Y-17670286D01*
X9975000Y-17670286D02*
X9965476Y-17651238D01*
X9965476Y-17651238D02*
X9965476Y-17641714D01*
X9965476Y-17641714D02*
X9975000Y-17622667D01*
X9975000Y-17622667D02*
X9994048Y-17613143D01*
X9994048Y-17613143D02*
X10022619Y-17613143D01*
X10022619Y-17613143D02*
X10041667Y-17622667D01*
X10117857Y-17822667D02*
X10127381Y-17813143D01*
X10127381Y-17813143D02*
X10146429Y-17784571D01*
X10146429Y-17784571D02*
X10155953Y-17765524D01*
X10155953Y-17765524D02*
X10165476Y-17736952D01*
X10165476Y-17736952D02*
X10175000Y-17689333D01*
X10175000Y-17689333D02*
X10175000Y-17651238D01*
X10175000Y-17651238D02*
X10165476Y-17603619D01*
X10165476Y-17603619D02*
X10155953Y-17575048D01*
X10155953Y-17575048D02*
X10146429Y-17556000D01*
X10146429Y-17556000D02*
X10127381Y-17527429D01*
X10127381Y-17527429D02*
X10117857Y-17517905D01*
D10*
X5280356Y-17972356D02*
X5280356Y-17901644D01*
X5209644Y-17901644D01*
X5209644Y-17972356D01*
X5280356Y-17972356D01*
D11*
X5647381Y-18010476D02*
X5533095Y-18010476D01*
X5590238Y-18010476D02*
X5590238Y-17810476D01*
X5590238Y-17810476D02*
X5571190Y-17839048D01*
X5571190Y-17839048D02*
X5552143Y-17858095D01*
X5552143Y-17858095D02*
X5533095Y-17867619D01*
X5733095Y-17991429D02*
X5742619Y-18000952D01*
X5742619Y-18000952D02*
X5733095Y-18010476D01*
X5733095Y-18010476D02*
X5723571Y-18000952D01*
X5723571Y-18000952D02*
X5733095Y-17991429D01*
X5733095Y-17991429D02*
X5733095Y-18010476D01*
X5866428Y-17810476D02*
X5885476Y-17810476D01*
X5885476Y-17810476D02*
X5904524Y-17820000D01*
X5904524Y-17820000D02*
X5914048Y-17829524D01*
X5914048Y-17829524D02*
X5923571Y-17848571D01*
X5923571Y-17848571D02*
X5933095Y-17886667D01*
X5933095Y-17886667D02*
X5933095Y-17934286D01*
X5933095Y-17934286D02*
X5923571Y-17972381D01*
X5923571Y-17972381D02*
X5914048Y-17991429D01*
X5914048Y-17991429D02*
X5904524Y-18000952D01*
X5904524Y-18000952D02*
X5885476Y-18010476D01*
X5885476Y-18010476D02*
X5866428Y-18010476D01*
X5866428Y-18010476D02*
X5847381Y-18000952D01*
X5847381Y-18000952D02*
X5837857Y-17991429D01*
X5837857Y-17991429D02*
X5828333Y-17972381D01*
X5828333Y-17972381D02*
X5818809Y-17934286D01*
X5818809Y-17934286D02*
X5818809Y-17886667D01*
X5818809Y-17886667D02*
X5828333Y-17848571D01*
X5828333Y-17848571D02*
X5837857Y-17829524D01*
X5837857Y-17829524D02*
X5847381Y-17820000D01*
X5847381Y-17820000D02*
X5866428Y-17810476D01*
X6056905Y-17810476D02*
X6075952Y-17810476D01*
X6075952Y-17810476D02*
X6095000Y-17820000D01*
X6095000Y-17820000D02*
X6104524Y-17829524D01*
X6104524Y-17829524D02*
X6114048Y-17848571D01*
X6114048Y-17848571D02*
X6123571Y-17886667D01*
X6123571Y-17886667D02*
X6123571Y-17934286D01*
X6123571Y-17934286D02*
X6114048Y-17972381D01*
X6114048Y-17972381D02*
X6104524Y-17991429D01*
X6104524Y-17991429D02*
X6095000Y-18000952D01*
X6095000Y-18000952D02*
X6075952Y-18010476D01*
X6075952Y-18010476D02*
X6056905Y-18010476D01*
X6056905Y-18010476D02*
X6037857Y-18000952D01*
X6037857Y-18000952D02*
X6028333Y-17991429D01*
X6028333Y-17991429D02*
X6018809Y-17972381D01*
X6018809Y-17972381D02*
X6009286Y-17934286D01*
X6009286Y-17934286D02*
X6009286Y-17886667D01*
X6009286Y-17886667D02*
X6018809Y-17848571D01*
X6018809Y-17848571D02*
X6028333Y-17829524D01*
X6028333Y-17829524D02*
X6037857Y-17820000D01*
X6037857Y-17820000D02*
X6056905Y-17810476D01*
X6247381Y-17810476D02*
X6266429Y-17810476D01*
X6266429Y-17810476D02*
X6285476Y-17820000D01*
X6285476Y-17820000D02*
X6295000Y-17829524D01*
X6295000Y-17829524D02*
X6304524Y-17848571D01*
X6304524Y-17848571D02*
X6314048Y-17886667D01*
X6314048Y-17886667D02*
X6314048Y-17934286D01*
X6314048Y-17934286D02*
X6304524Y-17972381D01*
X6304524Y-17972381D02*
X6295000Y-17991429D01*
X6295000Y-17991429D02*
X6285476Y-18000952D01*
X6285476Y-18000952D02*
X6266429Y-18010476D01*
X6266429Y-18010476D02*
X6247381Y-18010476D01*
X6247381Y-18010476D02*
X6228333Y-18000952D01*
X6228333Y-18000952D02*
X6218809Y-17991429D01*
X6218809Y-17991429D02*
X6209286Y-17972381D01*
X6209286Y-17972381D02*
X6199762Y-17934286D01*
X6199762Y-17934286D02*
X6199762Y-17886667D01*
X6199762Y-17886667D02*
X6209286Y-17848571D01*
X6209286Y-17848571D02*
X6218809Y-17829524D01*
X6218809Y-17829524D02*
X6228333Y-17820000D01*
X6228333Y-17820000D02*
X6247381Y-17810476D01*
X6399762Y-18010476D02*
X6399762Y-17877143D01*
X6399762Y-17896190D02*
X6409286Y-17886667D01*
X6409286Y-17886667D02*
X6428333Y-17877143D01*
X6428333Y-17877143D02*
X6456905Y-17877143D01*
X6456905Y-17877143D02*
X6475952Y-17886667D01*
X6475952Y-17886667D02*
X6485476Y-17905714D01*
X6485476Y-17905714D02*
X6485476Y-18010476D01*
X6485476Y-17905714D02*
X6495000Y-17886667D01*
X6495000Y-17886667D02*
X6514048Y-17877143D01*
X6514048Y-17877143D02*
X6542619Y-17877143D01*
X6542619Y-17877143D02*
X6561667Y-17886667D01*
X6561667Y-17886667D02*
X6571190Y-17905714D01*
X6571190Y-17905714D02*
X6571190Y-18010476D01*
X6666429Y-18010476D02*
X6666429Y-17877143D01*
X6666429Y-17896190D02*
X6675952Y-17886667D01*
X6675952Y-17886667D02*
X6695000Y-17877143D01*
X6695000Y-17877143D02*
X6723571Y-17877143D01*
X6723571Y-17877143D02*
X6742619Y-17886667D01*
X6742619Y-17886667D02*
X6752143Y-17905714D01*
X6752143Y-17905714D02*
X6752143Y-18010476D01*
X6752143Y-17905714D02*
X6761667Y-17886667D01*
X6761667Y-17886667D02*
X6780714Y-17877143D01*
X6780714Y-17877143D02*
X6809286Y-17877143D01*
X6809286Y-17877143D02*
X6828333Y-17886667D01*
X6828333Y-17886667D02*
X6837857Y-17905714D01*
X6837857Y-17905714D02*
X6837857Y-18010476D01*
X7195952Y-17800952D02*
X7024524Y-18058095D01*
X7420714Y-17810476D02*
X7439762Y-17810476D01*
X7439762Y-17810476D02*
X7458810Y-17820000D01*
X7458810Y-17820000D02*
X7468333Y-17829524D01*
X7468333Y-17829524D02*
X7477857Y-17848571D01*
X7477857Y-17848571D02*
X7487381Y-17886667D01*
X7487381Y-17886667D02*
X7487381Y-17934286D01*
X7487381Y-17934286D02*
X7477857Y-17972381D01*
X7477857Y-17972381D02*
X7468333Y-17991429D01*
X7468333Y-17991429D02*
X7458810Y-18000952D01*
X7458810Y-18000952D02*
X7439762Y-18010476D01*
X7439762Y-18010476D02*
X7420714Y-18010476D01*
X7420714Y-18010476D02*
X7401667Y-18000952D01*
X7401667Y-18000952D02*
X7392143Y-17991429D01*
X7392143Y-17991429D02*
X7382619Y-17972381D01*
X7382619Y-17972381D02*
X7373095Y-17934286D01*
X7373095Y-17934286D02*
X7373095Y-17886667D01*
X7373095Y-17886667D02*
X7382619Y-17848571D01*
X7382619Y-17848571D02*
X7392143Y-17829524D01*
X7392143Y-17829524D02*
X7401667Y-17820000D01*
X7401667Y-17820000D02*
X7420714Y-17810476D01*
X7573095Y-17991429D02*
X7582619Y-18000952D01*
X7582619Y-18000952D02*
X7573095Y-18010476D01*
X7573095Y-18010476D02*
X7563571Y-18000952D01*
X7563571Y-18000952D02*
X7573095Y-17991429D01*
X7573095Y-17991429D02*
X7573095Y-18010476D01*
X7706429Y-17810476D02*
X7725476Y-17810476D01*
X7725476Y-17810476D02*
X7744524Y-17820000D01*
X7744524Y-17820000D02*
X7754048Y-17829524D01*
X7754048Y-17829524D02*
X7763571Y-17848571D01*
X7763571Y-17848571D02*
X7773095Y-17886667D01*
X7773095Y-17886667D02*
X7773095Y-17934286D01*
X7773095Y-17934286D02*
X7763571Y-17972381D01*
X7763571Y-17972381D02*
X7754048Y-17991429D01*
X7754048Y-17991429D02*
X7744524Y-18000952D01*
X7744524Y-18000952D02*
X7725476Y-18010476D01*
X7725476Y-18010476D02*
X7706429Y-18010476D01*
X7706429Y-18010476D02*
X7687381Y-18000952D01*
X7687381Y-18000952D02*
X7677857Y-17991429D01*
X7677857Y-17991429D02*
X7668333Y-17972381D01*
X7668333Y-17972381D02*
X7658810Y-17934286D01*
X7658810Y-17934286D02*
X7658810Y-17886667D01*
X7658810Y-17886667D02*
X7668333Y-17848571D01*
X7668333Y-17848571D02*
X7677857Y-17829524D01*
X7677857Y-17829524D02*
X7687381Y-17820000D01*
X7687381Y-17820000D02*
X7706429Y-17810476D01*
X7839762Y-17810476D02*
X7963571Y-17810476D01*
X7963571Y-17810476D02*
X7896905Y-17886667D01*
X7896905Y-17886667D02*
X7925476Y-17886667D01*
X7925476Y-17886667D02*
X7944524Y-17896190D01*
X7944524Y-17896190D02*
X7954048Y-17905714D01*
X7954048Y-17905714D02*
X7963571Y-17924762D01*
X7963571Y-17924762D02*
X7963571Y-17972381D01*
X7963571Y-17972381D02*
X7954048Y-17991429D01*
X7954048Y-17991429D02*
X7944524Y-18000952D01*
X7944524Y-18000952D02*
X7925476Y-18010476D01*
X7925476Y-18010476D02*
X7868333Y-18010476D01*
X7868333Y-18010476D02*
X7849286Y-18000952D01*
X7849286Y-18000952D02*
X7839762Y-17991429D01*
X8058810Y-18010476D02*
X8096905Y-18010476D01*
X8096905Y-18010476D02*
X8115952Y-18000952D01*
X8115952Y-18000952D02*
X8125476Y-17991429D01*
X8125476Y-17991429D02*
X8144524Y-17962857D01*
X8144524Y-17962857D02*
X8154048Y-17924762D01*
X8154048Y-17924762D02*
X8154048Y-17848571D01*
X8154048Y-17848571D02*
X8144524Y-17829524D01*
X8144524Y-17829524D02*
X8135000Y-17820000D01*
X8135000Y-17820000D02*
X8115952Y-17810476D01*
X8115952Y-17810476D02*
X8077857Y-17810476D01*
X8077857Y-17810476D02*
X8058810Y-17820000D01*
X8058810Y-17820000D02*
X8049286Y-17829524D01*
X8049286Y-17829524D02*
X8039762Y-17848571D01*
X8039762Y-17848571D02*
X8039762Y-17896190D01*
X8039762Y-17896190D02*
X8049286Y-17915238D01*
X8049286Y-17915238D02*
X8058810Y-17924762D01*
X8058810Y-17924762D02*
X8077857Y-17934286D01*
X8077857Y-17934286D02*
X8115952Y-17934286D01*
X8115952Y-17934286D02*
X8135000Y-17924762D01*
X8135000Y-17924762D02*
X8144524Y-17915238D01*
X8144524Y-17915238D02*
X8154048Y-17896190D01*
X8325476Y-17877143D02*
X8325476Y-18010476D01*
X8277857Y-17800952D02*
X8230238Y-17943810D01*
X8230238Y-17943810D02*
X8354048Y-17943810D01*
X8420714Y-17810476D02*
X8420714Y-17848571D01*
X8496905Y-17810476D02*
X8496905Y-17848571D01*
X8759762Y-18086667D02*
X8750238Y-18077143D01*
X8750238Y-18077143D02*
X8731191Y-18048571D01*
X8731191Y-18048571D02*
X8721667Y-18029524D01*
X8721667Y-18029524D02*
X8712143Y-18000952D01*
X8712143Y-18000952D02*
X8702619Y-17953333D01*
X8702619Y-17953333D02*
X8702619Y-17915238D01*
X8702619Y-17915238D02*
X8712143Y-17867619D01*
X8712143Y-17867619D02*
X8721667Y-17839048D01*
X8721667Y-17839048D02*
X8731191Y-17820000D01*
X8731191Y-17820000D02*
X8750238Y-17791429D01*
X8750238Y-17791429D02*
X8759762Y-17781905D01*
X8921667Y-17877143D02*
X8921667Y-18010476D01*
X8874048Y-17800952D02*
X8826429Y-17943810D01*
X8826429Y-17943810D02*
X8950238Y-17943810D01*
X9016905Y-17829524D02*
X9026429Y-17820000D01*
X9026429Y-17820000D02*
X9045476Y-17810476D01*
X9045476Y-17810476D02*
X9093095Y-17810476D01*
X9093095Y-17810476D02*
X9112143Y-17820000D01*
X9112143Y-17820000D02*
X9121667Y-17829524D01*
X9121667Y-17829524D02*
X9131191Y-17848571D01*
X9131191Y-17848571D02*
X9131191Y-17867619D01*
X9131191Y-17867619D02*
X9121667Y-17896190D01*
X9121667Y-17896190D02*
X9007381Y-18010476D01*
X9007381Y-18010476D02*
X9131191Y-18010476D01*
X9336905Y-18010476D02*
X9336905Y-17810476D01*
X9422619Y-18010476D02*
X9422619Y-17905714D01*
X9422619Y-17905714D02*
X9413095Y-17886667D01*
X9413095Y-17886667D02*
X9394048Y-17877143D01*
X9394048Y-17877143D02*
X9365476Y-17877143D01*
X9365476Y-17877143D02*
X9346429Y-17886667D01*
X9346429Y-17886667D02*
X9336905Y-17896190D01*
X9546429Y-18010476D02*
X9527381Y-18000952D01*
X9527381Y-18000952D02*
X9517857Y-17991429D01*
X9517857Y-17991429D02*
X9508334Y-17972381D01*
X9508334Y-17972381D02*
X9508334Y-17915238D01*
X9508334Y-17915238D02*
X9517857Y-17896190D01*
X9517857Y-17896190D02*
X9527381Y-17886667D01*
X9527381Y-17886667D02*
X9546429Y-17877143D01*
X9546429Y-17877143D02*
X9575000Y-17877143D01*
X9575000Y-17877143D02*
X9594048Y-17886667D01*
X9594048Y-17886667D02*
X9603572Y-17896190D01*
X9603572Y-17896190D02*
X9613095Y-17915238D01*
X9613095Y-17915238D02*
X9613095Y-17972381D01*
X9613095Y-17972381D02*
X9603572Y-17991429D01*
X9603572Y-17991429D02*
X9594048Y-18000952D01*
X9594048Y-18000952D02*
X9575000Y-18010476D01*
X9575000Y-18010476D02*
X9546429Y-18010476D01*
X9727381Y-18010476D02*
X9708334Y-18000952D01*
X9708334Y-18000952D02*
X9698810Y-17981905D01*
X9698810Y-17981905D02*
X9698810Y-17810476D01*
X9879762Y-18000952D02*
X9860715Y-18010476D01*
X9860715Y-18010476D02*
X9822619Y-18010476D01*
X9822619Y-18010476D02*
X9803572Y-18000952D01*
X9803572Y-18000952D02*
X9794048Y-17981905D01*
X9794048Y-17981905D02*
X9794048Y-17905714D01*
X9794048Y-17905714D02*
X9803572Y-17886667D01*
X9803572Y-17886667D02*
X9822619Y-17877143D01*
X9822619Y-17877143D02*
X9860715Y-17877143D01*
X9860715Y-17877143D02*
X9879762Y-17886667D01*
X9879762Y-17886667D02*
X9889286Y-17905714D01*
X9889286Y-17905714D02*
X9889286Y-17924762D01*
X9889286Y-17924762D02*
X9794048Y-17943810D01*
X9965476Y-18000952D02*
X9984524Y-18010476D01*
X9984524Y-18010476D02*
X10022619Y-18010476D01*
X10022619Y-18010476D02*
X10041667Y-18000952D01*
X10041667Y-18000952D02*
X10051191Y-17981905D01*
X10051191Y-17981905D02*
X10051191Y-17972381D01*
X10051191Y-17972381D02*
X10041667Y-17953333D01*
X10041667Y-17953333D02*
X10022619Y-17943810D01*
X10022619Y-17943810D02*
X9994048Y-17943810D01*
X9994048Y-17943810D02*
X9975000Y-17934286D01*
X9975000Y-17934286D02*
X9965476Y-17915238D01*
X9965476Y-17915238D02*
X9965476Y-17905714D01*
X9965476Y-17905714D02*
X9975000Y-17886667D01*
X9975000Y-17886667D02*
X9994048Y-17877143D01*
X9994048Y-17877143D02*
X10022619Y-17877143D01*
X10022619Y-17877143D02*
X10041667Y-17886667D01*
X10117857Y-18086667D02*
X10127381Y-18077143D01*
X10127381Y-18077143D02*
X10146429Y-18048571D01*
X10146429Y-18048571D02*
X10155953Y-18029524D01*
X10155953Y-18029524D02*
X10165476Y-18000952D01*
X10165476Y-18000952D02*
X10175000Y-17953333D01*
X10175000Y-17953333D02*
X10175000Y-17915238D01*
X10175000Y-17915238D02*
X10165476Y-17867619D01*
X10165476Y-17867619D02*
X10155953Y-17839048D01*
X10155953Y-17839048D02*
X10146429Y-17820000D01*
X10146429Y-17820000D02*
X10127381Y-17791429D01*
X10127381Y-17791429D02*
X10117857Y-17781905D01*
D15*
X5244200Y-18251800D02*
X5295000Y-18201000D01*
X5244200Y-18150200D01*
X5193400Y-18201000D01*
X5244200Y-18251800D01*
D11*
X5647381Y-18274476D02*
X5533095Y-18274476D01*
X5590238Y-18274476D02*
X5590238Y-18074476D01*
X5590238Y-18074476D02*
X5571190Y-18103048D01*
X5571190Y-18103048D02*
X5552143Y-18122095D01*
X5552143Y-18122095D02*
X5533095Y-18131619D01*
X5733095Y-18255429D02*
X5742619Y-18264952D01*
X5742619Y-18264952D02*
X5733095Y-18274476D01*
X5733095Y-18274476D02*
X5723571Y-18264952D01*
X5723571Y-18264952D02*
X5733095Y-18255429D01*
X5733095Y-18255429D02*
X5733095Y-18274476D01*
X5866428Y-18074476D02*
X5885476Y-18074476D01*
X5885476Y-18074476D02*
X5904524Y-18084000D01*
X5904524Y-18084000D02*
X5914048Y-18093524D01*
X5914048Y-18093524D02*
X5923571Y-18112571D01*
X5923571Y-18112571D02*
X5933095Y-18150667D01*
X5933095Y-18150667D02*
X5933095Y-18198286D01*
X5933095Y-18198286D02*
X5923571Y-18236381D01*
X5923571Y-18236381D02*
X5914048Y-18255429D01*
X5914048Y-18255429D02*
X5904524Y-18264952D01*
X5904524Y-18264952D02*
X5885476Y-18274476D01*
X5885476Y-18274476D02*
X5866428Y-18274476D01*
X5866428Y-18274476D02*
X5847381Y-18264952D01*
X5847381Y-18264952D02*
X5837857Y-18255429D01*
X5837857Y-18255429D02*
X5828333Y-18236381D01*
X5828333Y-18236381D02*
X5818809Y-18198286D01*
X5818809Y-18198286D02*
X5818809Y-18150667D01*
X5818809Y-18150667D02*
X5828333Y-18112571D01*
X5828333Y-18112571D02*
X5837857Y-18093524D01*
X5837857Y-18093524D02*
X5847381Y-18084000D01*
X5847381Y-18084000D02*
X5866428Y-18074476D01*
X6123571Y-18274476D02*
X6009286Y-18274476D01*
X6066428Y-18274476D02*
X6066428Y-18074476D01*
X6066428Y-18074476D02*
X6047381Y-18103048D01*
X6047381Y-18103048D02*
X6028333Y-18122095D01*
X6028333Y-18122095D02*
X6009286Y-18131619D01*
X6295000Y-18074476D02*
X6256905Y-18074476D01*
X6256905Y-18074476D02*
X6237857Y-18084000D01*
X6237857Y-18084000D02*
X6228333Y-18093524D01*
X6228333Y-18093524D02*
X6209286Y-18122095D01*
X6209286Y-18122095D02*
X6199762Y-18160190D01*
X6199762Y-18160190D02*
X6199762Y-18236381D01*
X6199762Y-18236381D02*
X6209286Y-18255429D01*
X6209286Y-18255429D02*
X6218809Y-18264952D01*
X6218809Y-18264952D02*
X6237857Y-18274476D01*
X6237857Y-18274476D02*
X6275952Y-18274476D01*
X6275952Y-18274476D02*
X6295000Y-18264952D01*
X6295000Y-18264952D02*
X6304524Y-18255429D01*
X6304524Y-18255429D02*
X6314048Y-18236381D01*
X6314048Y-18236381D02*
X6314048Y-18188762D01*
X6314048Y-18188762D02*
X6304524Y-18169714D01*
X6304524Y-18169714D02*
X6295000Y-18160190D01*
X6295000Y-18160190D02*
X6275952Y-18150667D01*
X6275952Y-18150667D02*
X6237857Y-18150667D01*
X6237857Y-18150667D02*
X6218809Y-18160190D01*
X6218809Y-18160190D02*
X6209286Y-18169714D01*
X6209286Y-18169714D02*
X6199762Y-18188762D01*
X6399762Y-18274476D02*
X6399762Y-18141143D01*
X6399762Y-18160190D02*
X6409286Y-18150667D01*
X6409286Y-18150667D02*
X6428333Y-18141143D01*
X6428333Y-18141143D02*
X6456905Y-18141143D01*
X6456905Y-18141143D02*
X6475952Y-18150667D01*
X6475952Y-18150667D02*
X6485476Y-18169714D01*
X6485476Y-18169714D02*
X6485476Y-18274476D01*
X6485476Y-18169714D02*
X6495000Y-18150667D01*
X6495000Y-18150667D02*
X6514048Y-18141143D01*
X6514048Y-18141143D02*
X6542619Y-18141143D01*
X6542619Y-18141143D02*
X6561667Y-18150667D01*
X6561667Y-18150667D02*
X6571190Y-18169714D01*
X6571190Y-18169714D02*
X6571190Y-18274476D01*
X6666429Y-18274476D02*
X6666429Y-18141143D01*
X6666429Y-18160190D02*
X6675952Y-18150667D01*
X6675952Y-18150667D02*
X6695000Y-18141143D01*
X6695000Y-18141143D02*
X6723571Y-18141143D01*
X6723571Y-18141143D02*
X6742619Y-18150667D01*
X6742619Y-18150667D02*
X6752143Y-18169714D01*
X6752143Y-18169714D02*
X6752143Y-18274476D01*
X6752143Y-18169714D02*
X6761667Y-18150667D01*
X6761667Y-18150667D02*
X6780714Y-18141143D01*
X6780714Y-18141143D02*
X6809286Y-18141143D01*
X6809286Y-18141143D02*
X6828333Y-18150667D01*
X6828333Y-18150667D02*
X6837857Y-18169714D01*
X6837857Y-18169714D02*
X6837857Y-18274476D01*
X7195952Y-18064952D02*
X7024524Y-18322095D01*
X7420714Y-18074476D02*
X7439762Y-18074476D01*
X7439762Y-18074476D02*
X7458810Y-18084000D01*
X7458810Y-18084000D02*
X7468333Y-18093524D01*
X7468333Y-18093524D02*
X7477857Y-18112571D01*
X7477857Y-18112571D02*
X7487381Y-18150667D01*
X7487381Y-18150667D02*
X7487381Y-18198286D01*
X7487381Y-18198286D02*
X7477857Y-18236381D01*
X7477857Y-18236381D02*
X7468333Y-18255429D01*
X7468333Y-18255429D02*
X7458810Y-18264952D01*
X7458810Y-18264952D02*
X7439762Y-18274476D01*
X7439762Y-18274476D02*
X7420714Y-18274476D01*
X7420714Y-18274476D02*
X7401667Y-18264952D01*
X7401667Y-18264952D02*
X7392143Y-18255429D01*
X7392143Y-18255429D02*
X7382619Y-18236381D01*
X7382619Y-18236381D02*
X7373095Y-18198286D01*
X7373095Y-18198286D02*
X7373095Y-18150667D01*
X7373095Y-18150667D02*
X7382619Y-18112571D01*
X7382619Y-18112571D02*
X7392143Y-18093524D01*
X7392143Y-18093524D02*
X7401667Y-18084000D01*
X7401667Y-18084000D02*
X7420714Y-18074476D01*
X7573095Y-18255429D02*
X7582619Y-18264952D01*
X7582619Y-18264952D02*
X7573095Y-18274476D01*
X7573095Y-18274476D02*
X7563571Y-18264952D01*
X7563571Y-18264952D02*
X7573095Y-18255429D01*
X7573095Y-18255429D02*
X7573095Y-18274476D01*
X7706429Y-18074476D02*
X7725476Y-18074476D01*
X7725476Y-18074476D02*
X7744524Y-18084000D01*
X7744524Y-18084000D02*
X7754048Y-18093524D01*
X7754048Y-18093524D02*
X7763571Y-18112571D01*
X7763571Y-18112571D02*
X7773095Y-18150667D01*
X7773095Y-18150667D02*
X7773095Y-18198286D01*
X7773095Y-18198286D02*
X7763571Y-18236381D01*
X7763571Y-18236381D02*
X7754048Y-18255429D01*
X7754048Y-18255429D02*
X7744524Y-18264952D01*
X7744524Y-18264952D02*
X7725476Y-18274476D01*
X7725476Y-18274476D02*
X7706429Y-18274476D01*
X7706429Y-18274476D02*
X7687381Y-18264952D01*
X7687381Y-18264952D02*
X7677857Y-18255429D01*
X7677857Y-18255429D02*
X7668333Y-18236381D01*
X7668333Y-18236381D02*
X7658810Y-18198286D01*
X7658810Y-18198286D02*
X7658810Y-18150667D01*
X7658810Y-18150667D02*
X7668333Y-18112571D01*
X7668333Y-18112571D02*
X7677857Y-18093524D01*
X7677857Y-18093524D02*
X7687381Y-18084000D01*
X7687381Y-18084000D02*
X7706429Y-18074476D01*
X7944524Y-18141143D02*
X7944524Y-18274476D01*
X7896905Y-18064952D02*
X7849286Y-18207810D01*
X7849286Y-18207810D02*
X7973095Y-18207810D01*
X8087381Y-18074476D02*
X8106429Y-18074476D01*
X8106429Y-18074476D02*
X8125476Y-18084000D01*
X8125476Y-18084000D02*
X8135000Y-18093524D01*
X8135000Y-18093524D02*
X8144524Y-18112571D01*
X8144524Y-18112571D02*
X8154048Y-18150667D01*
X8154048Y-18150667D02*
X8154048Y-18198286D01*
X8154048Y-18198286D02*
X8144524Y-18236381D01*
X8144524Y-18236381D02*
X8135000Y-18255429D01*
X8135000Y-18255429D02*
X8125476Y-18264952D01*
X8125476Y-18264952D02*
X8106429Y-18274476D01*
X8106429Y-18274476D02*
X8087381Y-18274476D01*
X8087381Y-18274476D02*
X8068333Y-18264952D01*
X8068333Y-18264952D02*
X8058810Y-18255429D01*
X8058810Y-18255429D02*
X8049286Y-18236381D01*
X8049286Y-18236381D02*
X8039762Y-18198286D01*
X8039762Y-18198286D02*
X8039762Y-18150667D01*
X8039762Y-18150667D02*
X8049286Y-18112571D01*
X8049286Y-18112571D02*
X8058810Y-18093524D01*
X8058810Y-18093524D02*
X8068333Y-18084000D01*
X8068333Y-18084000D02*
X8087381Y-18074476D01*
X8277857Y-18074476D02*
X8296905Y-18074476D01*
X8296905Y-18074476D02*
X8315952Y-18084000D01*
X8315952Y-18084000D02*
X8325476Y-18093524D01*
X8325476Y-18093524D02*
X8335000Y-18112571D01*
X8335000Y-18112571D02*
X8344524Y-18150667D01*
X8344524Y-18150667D02*
X8344524Y-18198286D01*
X8344524Y-18198286D02*
X8335000Y-18236381D01*
X8335000Y-18236381D02*
X8325476Y-18255429D01*
X8325476Y-18255429D02*
X8315952Y-18264952D01*
X8315952Y-18264952D02*
X8296905Y-18274476D01*
X8296905Y-18274476D02*
X8277857Y-18274476D01*
X8277857Y-18274476D02*
X8258810Y-18264952D01*
X8258810Y-18264952D02*
X8249286Y-18255429D01*
X8249286Y-18255429D02*
X8239762Y-18236381D01*
X8239762Y-18236381D02*
X8230238Y-18198286D01*
X8230238Y-18198286D02*
X8230238Y-18150667D01*
X8230238Y-18150667D02*
X8239762Y-18112571D01*
X8239762Y-18112571D02*
X8249286Y-18093524D01*
X8249286Y-18093524D02*
X8258810Y-18084000D01*
X8258810Y-18084000D02*
X8277857Y-18074476D01*
X8420714Y-18074476D02*
X8420714Y-18112571D01*
X8496905Y-18074476D02*
X8496905Y-18112571D01*
X8759762Y-18350667D02*
X8750238Y-18341143D01*
X8750238Y-18341143D02*
X8731191Y-18312571D01*
X8731191Y-18312571D02*
X8721667Y-18293524D01*
X8721667Y-18293524D02*
X8712143Y-18264952D01*
X8712143Y-18264952D02*
X8702619Y-18217333D01*
X8702619Y-18217333D02*
X8702619Y-18179238D01*
X8702619Y-18179238D02*
X8712143Y-18131619D01*
X8712143Y-18131619D02*
X8721667Y-18103048D01*
X8721667Y-18103048D02*
X8731191Y-18084000D01*
X8731191Y-18084000D02*
X8750238Y-18055429D01*
X8750238Y-18055429D02*
X8759762Y-18045905D01*
X8940714Y-18274476D02*
X8826429Y-18274476D01*
X8883572Y-18274476D02*
X8883572Y-18074476D01*
X8883572Y-18074476D02*
X8864524Y-18103048D01*
X8864524Y-18103048D02*
X8845476Y-18122095D01*
X8845476Y-18122095D02*
X8826429Y-18131619D01*
X9064524Y-18074476D02*
X9083572Y-18074476D01*
X9083572Y-18074476D02*
X9102619Y-18084000D01*
X9102619Y-18084000D02*
X9112143Y-18093524D01*
X9112143Y-18093524D02*
X9121667Y-18112571D01*
X9121667Y-18112571D02*
X9131191Y-18150667D01*
X9131191Y-18150667D02*
X9131191Y-18198286D01*
X9131191Y-18198286D02*
X9121667Y-18236381D01*
X9121667Y-18236381D02*
X9112143Y-18255429D01*
X9112143Y-18255429D02*
X9102619Y-18264952D01*
X9102619Y-18264952D02*
X9083572Y-18274476D01*
X9083572Y-18274476D02*
X9064524Y-18274476D01*
X9064524Y-18274476D02*
X9045476Y-18264952D01*
X9045476Y-18264952D02*
X9035953Y-18255429D01*
X9035953Y-18255429D02*
X9026429Y-18236381D01*
X9026429Y-18236381D02*
X9016905Y-18198286D01*
X9016905Y-18198286D02*
X9016905Y-18150667D01*
X9016905Y-18150667D02*
X9026429Y-18112571D01*
X9026429Y-18112571D02*
X9035953Y-18093524D01*
X9035953Y-18093524D02*
X9045476Y-18084000D01*
X9045476Y-18084000D02*
X9064524Y-18074476D01*
X9336905Y-18274476D02*
X9336905Y-18074476D01*
X9422619Y-18274476D02*
X9422619Y-18169714D01*
X9422619Y-18169714D02*
X9413095Y-18150667D01*
X9413095Y-18150667D02*
X9394048Y-18141143D01*
X9394048Y-18141143D02*
X9365476Y-18141143D01*
X9365476Y-18141143D02*
X9346429Y-18150667D01*
X9346429Y-18150667D02*
X9336905Y-18160190D01*
X9546429Y-18274476D02*
X9527381Y-18264952D01*
X9527381Y-18264952D02*
X9517857Y-18255429D01*
X9517857Y-18255429D02*
X9508334Y-18236381D01*
X9508334Y-18236381D02*
X9508334Y-18179238D01*
X9508334Y-18179238D02*
X9517857Y-18160190D01*
X9517857Y-18160190D02*
X9527381Y-18150667D01*
X9527381Y-18150667D02*
X9546429Y-18141143D01*
X9546429Y-18141143D02*
X9575000Y-18141143D01*
X9575000Y-18141143D02*
X9594048Y-18150667D01*
X9594048Y-18150667D02*
X9603572Y-18160190D01*
X9603572Y-18160190D02*
X9613095Y-18179238D01*
X9613095Y-18179238D02*
X9613095Y-18236381D01*
X9613095Y-18236381D02*
X9603572Y-18255429D01*
X9603572Y-18255429D02*
X9594048Y-18264952D01*
X9594048Y-18264952D02*
X9575000Y-18274476D01*
X9575000Y-18274476D02*
X9546429Y-18274476D01*
X9727381Y-18274476D02*
X9708334Y-18264952D01*
X9708334Y-18264952D02*
X9698810Y-18245905D01*
X9698810Y-18245905D02*
X9698810Y-18074476D01*
X9879762Y-18264952D02*
X9860715Y-18274476D01*
X9860715Y-18274476D02*
X9822619Y-18274476D01*
X9822619Y-18274476D02*
X9803572Y-18264952D01*
X9803572Y-18264952D02*
X9794048Y-18245905D01*
X9794048Y-18245905D02*
X9794048Y-18169714D01*
X9794048Y-18169714D02*
X9803572Y-18150667D01*
X9803572Y-18150667D02*
X9822619Y-18141143D01*
X9822619Y-18141143D02*
X9860715Y-18141143D01*
X9860715Y-18141143D02*
X9879762Y-18150667D01*
X9879762Y-18150667D02*
X9889286Y-18169714D01*
X9889286Y-18169714D02*
X9889286Y-18188762D01*
X9889286Y-18188762D02*
X9794048Y-18207810D01*
X9965476Y-18264952D02*
X9984524Y-18274476D01*
X9984524Y-18274476D02*
X10022619Y-18274476D01*
X10022619Y-18274476D02*
X10041667Y-18264952D01*
X10041667Y-18264952D02*
X10051191Y-18245905D01*
X10051191Y-18245905D02*
X10051191Y-18236381D01*
X10051191Y-18236381D02*
X10041667Y-18217333D01*
X10041667Y-18217333D02*
X10022619Y-18207810D01*
X10022619Y-18207810D02*
X9994048Y-18207810D01*
X9994048Y-18207810D02*
X9975000Y-18198286D01*
X9975000Y-18198286D02*
X9965476Y-18179238D01*
X9965476Y-18179238D02*
X9965476Y-18169714D01*
X9965476Y-18169714D02*
X9975000Y-18150667D01*
X9975000Y-18150667D02*
X9994048Y-18141143D01*
X9994048Y-18141143D02*
X10022619Y-18141143D01*
X10022619Y-18141143D02*
X10041667Y-18150667D01*
X10117857Y-18350667D02*
X10127381Y-18341143D01*
X10127381Y-18341143D02*
X10146429Y-18312571D01*
X10146429Y-18312571D02*
X10155953Y-18293524D01*
X10155953Y-18293524D02*
X10165476Y-18264952D01*
X10165476Y-18264952D02*
X10175000Y-18217333D01*
X10175000Y-18217333D02*
X10175000Y-18179238D01*
X10175000Y-18179238D02*
X10165476Y-18131619D01*
X10165476Y-18131619D02*
X10155953Y-18103048D01*
X10155953Y-18103048D02*
X10146429Y-18084000D01*
X10146429Y-18084000D02*
X10127381Y-18055429D01*
X10127381Y-18055429D02*
X10117857Y-18045905D01*
D16*
X5185000Y-18410000D02*
X5295000Y-18520000D01*
X5295000Y-18410000D02*
X5185000Y-18520000D01*
X5295000Y-18465000D02*
G75*
G03*
X5295000Y-18465000I-55000J0D01*
G01*
D11*
X5647381Y-18538476D02*
X5533095Y-18538476D01*
X5590238Y-18538476D02*
X5590238Y-18338476D01*
X5590238Y-18338476D02*
X5571190Y-18367048D01*
X5571190Y-18367048D02*
X5552143Y-18386095D01*
X5552143Y-18386095D02*
X5533095Y-18395619D01*
X5733095Y-18519429D02*
X5742619Y-18528952D01*
X5742619Y-18528952D02*
X5733095Y-18538476D01*
X5733095Y-18538476D02*
X5723571Y-18528952D01*
X5723571Y-18528952D02*
X5733095Y-18519429D01*
X5733095Y-18519429D02*
X5733095Y-18538476D01*
X5933095Y-18538476D02*
X5818809Y-18538476D01*
X5875952Y-18538476D02*
X5875952Y-18338476D01*
X5875952Y-18338476D02*
X5856905Y-18367048D01*
X5856905Y-18367048D02*
X5837857Y-18386095D01*
X5837857Y-18386095D02*
X5818809Y-18395619D01*
X6056905Y-18338476D02*
X6075952Y-18338476D01*
X6075952Y-18338476D02*
X6095000Y-18348000D01*
X6095000Y-18348000D02*
X6104524Y-18357524D01*
X6104524Y-18357524D02*
X6114048Y-18376571D01*
X6114048Y-18376571D02*
X6123571Y-18414667D01*
X6123571Y-18414667D02*
X6123571Y-18462286D01*
X6123571Y-18462286D02*
X6114048Y-18500381D01*
X6114048Y-18500381D02*
X6104524Y-18519429D01*
X6104524Y-18519429D02*
X6095000Y-18528952D01*
X6095000Y-18528952D02*
X6075952Y-18538476D01*
X6075952Y-18538476D02*
X6056905Y-18538476D01*
X6056905Y-18538476D02*
X6037857Y-18528952D01*
X6037857Y-18528952D02*
X6028333Y-18519429D01*
X6028333Y-18519429D02*
X6018809Y-18500381D01*
X6018809Y-18500381D02*
X6009286Y-18462286D01*
X6009286Y-18462286D02*
X6009286Y-18414667D01*
X6009286Y-18414667D02*
X6018809Y-18376571D01*
X6018809Y-18376571D02*
X6028333Y-18357524D01*
X6028333Y-18357524D02*
X6037857Y-18348000D01*
X6037857Y-18348000D02*
X6056905Y-18338476D01*
X6247381Y-18338476D02*
X6266429Y-18338476D01*
X6266429Y-18338476D02*
X6285476Y-18348000D01*
X6285476Y-18348000D02*
X6295000Y-18357524D01*
X6295000Y-18357524D02*
X6304524Y-18376571D01*
X6304524Y-18376571D02*
X6314048Y-18414667D01*
X6314048Y-18414667D02*
X6314048Y-18462286D01*
X6314048Y-18462286D02*
X6304524Y-18500381D01*
X6304524Y-18500381D02*
X6295000Y-18519429D01*
X6295000Y-18519429D02*
X6285476Y-18528952D01*
X6285476Y-18528952D02*
X6266429Y-18538476D01*
X6266429Y-18538476D02*
X6247381Y-18538476D01*
X6247381Y-18538476D02*
X6228333Y-18528952D01*
X6228333Y-18528952D02*
X6218809Y-18519429D01*
X6218809Y-18519429D02*
X6209286Y-18500381D01*
X6209286Y-18500381D02*
X6199762Y-18462286D01*
X6199762Y-18462286D02*
X6199762Y-18414667D01*
X6199762Y-18414667D02*
X6209286Y-18376571D01*
X6209286Y-18376571D02*
X6218809Y-18357524D01*
X6218809Y-18357524D02*
X6228333Y-18348000D01*
X6228333Y-18348000D02*
X6247381Y-18338476D01*
X6399762Y-18538476D02*
X6399762Y-18405143D01*
X6399762Y-18424190D02*
X6409286Y-18414667D01*
X6409286Y-18414667D02*
X6428333Y-18405143D01*
X6428333Y-18405143D02*
X6456905Y-18405143D01*
X6456905Y-18405143D02*
X6475952Y-18414667D01*
X6475952Y-18414667D02*
X6485476Y-18433714D01*
X6485476Y-18433714D02*
X6485476Y-18538476D01*
X6485476Y-18433714D02*
X6495000Y-18414667D01*
X6495000Y-18414667D02*
X6514048Y-18405143D01*
X6514048Y-18405143D02*
X6542619Y-18405143D01*
X6542619Y-18405143D02*
X6561667Y-18414667D01*
X6561667Y-18414667D02*
X6571190Y-18433714D01*
X6571190Y-18433714D02*
X6571190Y-18538476D01*
X6666429Y-18538476D02*
X6666429Y-18405143D01*
X6666429Y-18424190D02*
X6675952Y-18414667D01*
X6675952Y-18414667D02*
X6695000Y-18405143D01*
X6695000Y-18405143D02*
X6723571Y-18405143D01*
X6723571Y-18405143D02*
X6742619Y-18414667D01*
X6742619Y-18414667D02*
X6752143Y-18433714D01*
X6752143Y-18433714D02*
X6752143Y-18538476D01*
X6752143Y-18433714D02*
X6761667Y-18414667D01*
X6761667Y-18414667D02*
X6780714Y-18405143D01*
X6780714Y-18405143D02*
X6809286Y-18405143D01*
X6809286Y-18405143D02*
X6828333Y-18414667D01*
X6828333Y-18414667D02*
X6837857Y-18433714D01*
X6837857Y-18433714D02*
X6837857Y-18538476D01*
X7195952Y-18328952D02*
X7024524Y-18586095D01*
X7420714Y-18338476D02*
X7439762Y-18338476D01*
X7439762Y-18338476D02*
X7458810Y-18348000D01*
X7458810Y-18348000D02*
X7468333Y-18357524D01*
X7468333Y-18357524D02*
X7477857Y-18376571D01*
X7477857Y-18376571D02*
X7487381Y-18414667D01*
X7487381Y-18414667D02*
X7487381Y-18462286D01*
X7487381Y-18462286D02*
X7477857Y-18500381D01*
X7477857Y-18500381D02*
X7468333Y-18519429D01*
X7468333Y-18519429D02*
X7458810Y-18528952D01*
X7458810Y-18528952D02*
X7439762Y-18538476D01*
X7439762Y-18538476D02*
X7420714Y-18538476D01*
X7420714Y-18538476D02*
X7401667Y-18528952D01*
X7401667Y-18528952D02*
X7392143Y-18519429D01*
X7392143Y-18519429D02*
X7382619Y-18500381D01*
X7382619Y-18500381D02*
X7373095Y-18462286D01*
X7373095Y-18462286D02*
X7373095Y-18414667D01*
X7373095Y-18414667D02*
X7382619Y-18376571D01*
X7382619Y-18376571D02*
X7392143Y-18357524D01*
X7392143Y-18357524D02*
X7401667Y-18348000D01*
X7401667Y-18348000D02*
X7420714Y-18338476D01*
X7573095Y-18519429D02*
X7582619Y-18528952D01*
X7582619Y-18528952D02*
X7573095Y-18538476D01*
X7573095Y-18538476D02*
X7563571Y-18528952D01*
X7563571Y-18528952D02*
X7573095Y-18519429D01*
X7573095Y-18519429D02*
X7573095Y-18538476D01*
X7706429Y-18338476D02*
X7725476Y-18338476D01*
X7725476Y-18338476D02*
X7744524Y-18348000D01*
X7744524Y-18348000D02*
X7754048Y-18357524D01*
X7754048Y-18357524D02*
X7763571Y-18376571D01*
X7763571Y-18376571D02*
X7773095Y-18414667D01*
X7773095Y-18414667D02*
X7773095Y-18462286D01*
X7773095Y-18462286D02*
X7763571Y-18500381D01*
X7763571Y-18500381D02*
X7754048Y-18519429D01*
X7754048Y-18519429D02*
X7744524Y-18528952D01*
X7744524Y-18528952D02*
X7725476Y-18538476D01*
X7725476Y-18538476D02*
X7706429Y-18538476D01*
X7706429Y-18538476D02*
X7687381Y-18528952D01*
X7687381Y-18528952D02*
X7677857Y-18519429D01*
X7677857Y-18519429D02*
X7668333Y-18500381D01*
X7668333Y-18500381D02*
X7658810Y-18462286D01*
X7658810Y-18462286D02*
X7658810Y-18414667D01*
X7658810Y-18414667D02*
X7668333Y-18376571D01*
X7668333Y-18376571D02*
X7677857Y-18357524D01*
X7677857Y-18357524D02*
X7687381Y-18348000D01*
X7687381Y-18348000D02*
X7706429Y-18338476D01*
X7944524Y-18405143D02*
X7944524Y-18538476D01*
X7896905Y-18328952D02*
X7849286Y-18471810D01*
X7849286Y-18471810D02*
X7973095Y-18471810D01*
X8030238Y-18338476D02*
X8154048Y-18338476D01*
X8154048Y-18338476D02*
X8087381Y-18414667D01*
X8087381Y-18414667D02*
X8115952Y-18414667D01*
X8115952Y-18414667D02*
X8135000Y-18424190D01*
X8135000Y-18424190D02*
X8144524Y-18433714D01*
X8144524Y-18433714D02*
X8154048Y-18452762D01*
X8154048Y-18452762D02*
X8154048Y-18500381D01*
X8154048Y-18500381D02*
X8144524Y-18519429D01*
X8144524Y-18519429D02*
X8135000Y-18528952D01*
X8135000Y-18528952D02*
X8115952Y-18538476D01*
X8115952Y-18538476D02*
X8058810Y-18538476D01*
X8058810Y-18538476D02*
X8039762Y-18528952D01*
X8039762Y-18528952D02*
X8030238Y-18519429D01*
X8220714Y-18338476D02*
X8344524Y-18338476D01*
X8344524Y-18338476D02*
X8277857Y-18414667D01*
X8277857Y-18414667D02*
X8306429Y-18414667D01*
X8306429Y-18414667D02*
X8325476Y-18424190D01*
X8325476Y-18424190D02*
X8335000Y-18433714D01*
X8335000Y-18433714D02*
X8344524Y-18452762D01*
X8344524Y-18452762D02*
X8344524Y-18500381D01*
X8344524Y-18500381D02*
X8335000Y-18519429D01*
X8335000Y-18519429D02*
X8325476Y-18528952D01*
X8325476Y-18528952D02*
X8306429Y-18538476D01*
X8306429Y-18538476D02*
X8249286Y-18538476D01*
X8249286Y-18538476D02*
X8230238Y-18528952D01*
X8230238Y-18528952D02*
X8220714Y-18519429D01*
X8420714Y-18338476D02*
X8420714Y-18376571D01*
X8496905Y-18338476D02*
X8496905Y-18376571D01*
X8759762Y-18614667D02*
X8750238Y-18605143D01*
X8750238Y-18605143D02*
X8731191Y-18576571D01*
X8731191Y-18576571D02*
X8721667Y-18557524D01*
X8721667Y-18557524D02*
X8712143Y-18528952D01*
X8712143Y-18528952D02*
X8702619Y-18481333D01*
X8702619Y-18481333D02*
X8702619Y-18443238D01*
X8702619Y-18443238D02*
X8712143Y-18395619D01*
X8712143Y-18395619D02*
X8721667Y-18367048D01*
X8721667Y-18367048D02*
X8731191Y-18348000D01*
X8731191Y-18348000D02*
X8750238Y-18319429D01*
X8750238Y-18319429D02*
X8759762Y-18309905D01*
X8816905Y-18338476D02*
X8950238Y-18338476D01*
X8950238Y-18338476D02*
X8864524Y-18538476D01*
X9146429Y-18538476D02*
X9146429Y-18338476D01*
X9232143Y-18538476D02*
X9232143Y-18433714D01*
X9232143Y-18433714D02*
X9222619Y-18414667D01*
X9222619Y-18414667D02*
X9203572Y-18405143D01*
X9203572Y-18405143D02*
X9175000Y-18405143D01*
X9175000Y-18405143D02*
X9155953Y-18414667D01*
X9155953Y-18414667D02*
X9146429Y-18424190D01*
X9355953Y-18538476D02*
X9336905Y-18528952D01*
X9336905Y-18528952D02*
X9327381Y-18519429D01*
X9327381Y-18519429D02*
X9317857Y-18500381D01*
X9317857Y-18500381D02*
X9317857Y-18443238D01*
X9317857Y-18443238D02*
X9327381Y-18424190D01*
X9327381Y-18424190D02*
X9336905Y-18414667D01*
X9336905Y-18414667D02*
X9355953Y-18405143D01*
X9355953Y-18405143D02*
X9384524Y-18405143D01*
X9384524Y-18405143D02*
X9403572Y-18414667D01*
X9403572Y-18414667D02*
X9413095Y-18424190D01*
X9413095Y-18424190D02*
X9422619Y-18443238D01*
X9422619Y-18443238D02*
X9422619Y-18500381D01*
X9422619Y-18500381D02*
X9413095Y-18519429D01*
X9413095Y-18519429D02*
X9403572Y-18528952D01*
X9403572Y-18528952D02*
X9384524Y-18538476D01*
X9384524Y-18538476D02*
X9355953Y-18538476D01*
X9536905Y-18538476D02*
X9517857Y-18528952D01*
X9517857Y-18528952D02*
X9508334Y-18509905D01*
X9508334Y-18509905D02*
X9508334Y-18338476D01*
X9689286Y-18528952D02*
X9670238Y-18538476D01*
X9670238Y-18538476D02*
X9632143Y-18538476D01*
X9632143Y-18538476D02*
X9613095Y-18528952D01*
X9613095Y-18528952D02*
X9603572Y-18509905D01*
X9603572Y-18509905D02*
X9603572Y-18433714D01*
X9603572Y-18433714D02*
X9613095Y-18414667D01*
X9613095Y-18414667D02*
X9632143Y-18405143D01*
X9632143Y-18405143D02*
X9670238Y-18405143D01*
X9670238Y-18405143D02*
X9689286Y-18414667D01*
X9689286Y-18414667D02*
X9698810Y-18433714D01*
X9698810Y-18433714D02*
X9698810Y-18452762D01*
X9698810Y-18452762D02*
X9603572Y-18471810D01*
X9775000Y-18528952D02*
X9794048Y-18538476D01*
X9794048Y-18538476D02*
X9832143Y-18538476D01*
X9832143Y-18538476D02*
X9851191Y-18528952D01*
X9851191Y-18528952D02*
X9860715Y-18509905D01*
X9860715Y-18509905D02*
X9860715Y-18500381D01*
X9860715Y-18500381D02*
X9851191Y-18481333D01*
X9851191Y-18481333D02*
X9832143Y-18471810D01*
X9832143Y-18471810D02*
X9803572Y-18471810D01*
X9803572Y-18471810D02*
X9784524Y-18462286D01*
X9784524Y-18462286D02*
X9775000Y-18443238D01*
X9775000Y-18443238D02*
X9775000Y-18433714D01*
X9775000Y-18433714D02*
X9784524Y-18414667D01*
X9784524Y-18414667D02*
X9803572Y-18405143D01*
X9803572Y-18405143D02*
X9832143Y-18405143D01*
X9832143Y-18405143D02*
X9851191Y-18414667D01*
X9927381Y-18614667D02*
X9936905Y-18605143D01*
X9936905Y-18605143D02*
X9955953Y-18576571D01*
X9955953Y-18576571D02*
X9965476Y-18557524D01*
X9965476Y-18557524D02*
X9975000Y-18528952D01*
X9975000Y-18528952D02*
X9984524Y-18481333D01*
X9984524Y-18481333D02*
X9984524Y-18443238D01*
X9984524Y-18443238D02*
X9975000Y-18395619D01*
X9975000Y-18395619D02*
X9965476Y-18367048D01*
X9965476Y-18367048D02*
X9955953Y-18348000D01*
X9955953Y-18348000D02*
X9936905Y-18319429D01*
X9936905Y-18319429D02*
X9927381Y-18309905D01*
D17*
X5175620Y-18669310D02*
X5295000Y-18788690D01*
X5295000Y-18669310D02*
X5175620Y-18788690D01*
X5235310Y-18669310D02*
X5235310Y-18788690D01*
X5175620Y-18729000D02*
X5295000Y-18729000D01*
D11*
X5647381Y-18802476D02*
X5533095Y-18802476D01*
X5590238Y-18802476D02*
X5590238Y-18602476D01*
X5590238Y-18602476D02*
X5571190Y-18631048D01*
X5571190Y-18631048D02*
X5552143Y-18650095D01*
X5552143Y-18650095D02*
X5533095Y-18659619D01*
X5733095Y-18783429D02*
X5742619Y-18792952D01*
X5742619Y-18792952D02*
X5733095Y-18802476D01*
X5733095Y-18802476D02*
X5723571Y-18792952D01*
X5723571Y-18792952D02*
X5733095Y-18783429D01*
X5733095Y-18783429D02*
X5733095Y-18802476D01*
X5933095Y-18802476D02*
X5818809Y-18802476D01*
X5875952Y-18802476D02*
X5875952Y-18602476D01*
X5875952Y-18602476D02*
X5856905Y-18631048D01*
X5856905Y-18631048D02*
X5837857Y-18650095D01*
X5837857Y-18650095D02*
X5818809Y-18659619D01*
X6028333Y-18802476D02*
X6066428Y-18802476D01*
X6066428Y-18802476D02*
X6085476Y-18792952D01*
X6085476Y-18792952D02*
X6095000Y-18783429D01*
X6095000Y-18783429D02*
X6114048Y-18754857D01*
X6114048Y-18754857D02*
X6123571Y-18716762D01*
X6123571Y-18716762D02*
X6123571Y-18640571D01*
X6123571Y-18640571D02*
X6114048Y-18621524D01*
X6114048Y-18621524D02*
X6104524Y-18612000D01*
X6104524Y-18612000D02*
X6085476Y-18602476D01*
X6085476Y-18602476D02*
X6047381Y-18602476D01*
X6047381Y-18602476D02*
X6028333Y-18612000D01*
X6028333Y-18612000D02*
X6018809Y-18621524D01*
X6018809Y-18621524D02*
X6009286Y-18640571D01*
X6009286Y-18640571D02*
X6009286Y-18688190D01*
X6009286Y-18688190D02*
X6018809Y-18707238D01*
X6018809Y-18707238D02*
X6028333Y-18716762D01*
X6028333Y-18716762D02*
X6047381Y-18726286D01*
X6047381Y-18726286D02*
X6085476Y-18726286D01*
X6085476Y-18726286D02*
X6104524Y-18716762D01*
X6104524Y-18716762D02*
X6114048Y-18707238D01*
X6114048Y-18707238D02*
X6123571Y-18688190D01*
X6295000Y-18669143D02*
X6295000Y-18802476D01*
X6247381Y-18592952D02*
X6199762Y-18735810D01*
X6199762Y-18735810D02*
X6323571Y-18735810D01*
X6399762Y-18802476D02*
X6399762Y-18669143D01*
X6399762Y-18688190D02*
X6409286Y-18678667D01*
X6409286Y-18678667D02*
X6428333Y-18669143D01*
X6428333Y-18669143D02*
X6456905Y-18669143D01*
X6456905Y-18669143D02*
X6475952Y-18678667D01*
X6475952Y-18678667D02*
X6485476Y-18697714D01*
X6485476Y-18697714D02*
X6485476Y-18802476D01*
X6485476Y-18697714D02*
X6495000Y-18678667D01*
X6495000Y-18678667D02*
X6514048Y-18669143D01*
X6514048Y-18669143D02*
X6542619Y-18669143D01*
X6542619Y-18669143D02*
X6561667Y-18678667D01*
X6561667Y-18678667D02*
X6571190Y-18697714D01*
X6571190Y-18697714D02*
X6571190Y-18802476D01*
X6666429Y-18802476D02*
X6666429Y-18669143D01*
X6666429Y-18688190D02*
X6675952Y-18678667D01*
X6675952Y-18678667D02*
X6695000Y-18669143D01*
X6695000Y-18669143D02*
X6723571Y-18669143D01*
X6723571Y-18669143D02*
X6742619Y-18678667D01*
X6742619Y-18678667D02*
X6752143Y-18697714D01*
X6752143Y-18697714D02*
X6752143Y-18802476D01*
X6752143Y-18697714D02*
X6761667Y-18678667D01*
X6761667Y-18678667D02*
X6780714Y-18669143D01*
X6780714Y-18669143D02*
X6809286Y-18669143D01*
X6809286Y-18669143D02*
X6828333Y-18678667D01*
X6828333Y-18678667D02*
X6837857Y-18697714D01*
X6837857Y-18697714D02*
X6837857Y-18802476D01*
X7195952Y-18592952D02*
X7024524Y-18850095D01*
X7420714Y-18602476D02*
X7439762Y-18602476D01*
X7439762Y-18602476D02*
X7458810Y-18612000D01*
X7458810Y-18612000D02*
X7468333Y-18621524D01*
X7468333Y-18621524D02*
X7477857Y-18640571D01*
X7477857Y-18640571D02*
X7487381Y-18678667D01*
X7487381Y-18678667D02*
X7487381Y-18726286D01*
X7487381Y-18726286D02*
X7477857Y-18764381D01*
X7477857Y-18764381D02*
X7468333Y-18783429D01*
X7468333Y-18783429D02*
X7458810Y-18792952D01*
X7458810Y-18792952D02*
X7439762Y-18802476D01*
X7439762Y-18802476D02*
X7420714Y-18802476D01*
X7420714Y-18802476D02*
X7401667Y-18792952D01*
X7401667Y-18792952D02*
X7392143Y-18783429D01*
X7392143Y-18783429D02*
X7382619Y-18764381D01*
X7382619Y-18764381D02*
X7373095Y-18726286D01*
X7373095Y-18726286D02*
X7373095Y-18678667D01*
X7373095Y-18678667D02*
X7382619Y-18640571D01*
X7382619Y-18640571D02*
X7392143Y-18621524D01*
X7392143Y-18621524D02*
X7401667Y-18612000D01*
X7401667Y-18612000D02*
X7420714Y-18602476D01*
X7573095Y-18783429D02*
X7582619Y-18792952D01*
X7582619Y-18792952D02*
X7573095Y-18802476D01*
X7573095Y-18802476D02*
X7563571Y-18792952D01*
X7563571Y-18792952D02*
X7573095Y-18783429D01*
X7573095Y-18783429D02*
X7573095Y-18802476D01*
X7706429Y-18602476D02*
X7725476Y-18602476D01*
X7725476Y-18602476D02*
X7744524Y-18612000D01*
X7744524Y-18612000D02*
X7754048Y-18621524D01*
X7754048Y-18621524D02*
X7763571Y-18640571D01*
X7763571Y-18640571D02*
X7773095Y-18678667D01*
X7773095Y-18678667D02*
X7773095Y-18726286D01*
X7773095Y-18726286D02*
X7763571Y-18764381D01*
X7763571Y-18764381D02*
X7754048Y-18783429D01*
X7754048Y-18783429D02*
X7744524Y-18792952D01*
X7744524Y-18792952D02*
X7725476Y-18802476D01*
X7725476Y-18802476D02*
X7706429Y-18802476D01*
X7706429Y-18802476D02*
X7687381Y-18792952D01*
X7687381Y-18792952D02*
X7677857Y-18783429D01*
X7677857Y-18783429D02*
X7668333Y-18764381D01*
X7668333Y-18764381D02*
X7658810Y-18726286D01*
X7658810Y-18726286D02*
X7658810Y-18678667D01*
X7658810Y-18678667D02*
X7668333Y-18640571D01*
X7668333Y-18640571D02*
X7677857Y-18621524D01*
X7677857Y-18621524D02*
X7687381Y-18612000D01*
X7687381Y-18612000D02*
X7706429Y-18602476D01*
X7944524Y-18669143D02*
X7944524Y-18802476D01*
X7896905Y-18592952D02*
X7849286Y-18735810D01*
X7849286Y-18735810D02*
X7973095Y-18735810D01*
X8030238Y-18602476D02*
X8163571Y-18602476D01*
X8163571Y-18602476D02*
X8077857Y-18802476D01*
X8277857Y-18602476D02*
X8296905Y-18602476D01*
X8296905Y-18602476D02*
X8315952Y-18612000D01*
X8315952Y-18612000D02*
X8325476Y-18621524D01*
X8325476Y-18621524D02*
X8335000Y-18640571D01*
X8335000Y-18640571D02*
X8344524Y-18678667D01*
X8344524Y-18678667D02*
X8344524Y-18726286D01*
X8344524Y-18726286D02*
X8335000Y-18764381D01*
X8335000Y-18764381D02*
X8325476Y-18783429D01*
X8325476Y-18783429D02*
X8315952Y-18792952D01*
X8315952Y-18792952D02*
X8296905Y-18802476D01*
X8296905Y-18802476D02*
X8277857Y-18802476D01*
X8277857Y-18802476D02*
X8258810Y-18792952D01*
X8258810Y-18792952D02*
X8249286Y-18783429D01*
X8249286Y-18783429D02*
X8239762Y-18764381D01*
X8239762Y-18764381D02*
X8230238Y-18726286D01*
X8230238Y-18726286D02*
X8230238Y-18678667D01*
X8230238Y-18678667D02*
X8239762Y-18640571D01*
X8239762Y-18640571D02*
X8249286Y-18621524D01*
X8249286Y-18621524D02*
X8258810Y-18612000D01*
X8258810Y-18612000D02*
X8277857Y-18602476D01*
X8420714Y-18602476D02*
X8420714Y-18640571D01*
X8496905Y-18602476D02*
X8496905Y-18640571D01*
X8759762Y-18878667D02*
X8750238Y-18869143D01*
X8750238Y-18869143D02*
X8731191Y-18840571D01*
X8731191Y-18840571D02*
X8721667Y-18821524D01*
X8721667Y-18821524D02*
X8712143Y-18792952D01*
X8712143Y-18792952D02*
X8702619Y-18745333D01*
X8702619Y-18745333D02*
X8702619Y-18707238D01*
X8702619Y-18707238D02*
X8712143Y-18659619D01*
X8712143Y-18659619D02*
X8721667Y-18631048D01*
X8721667Y-18631048D02*
X8731191Y-18612000D01*
X8731191Y-18612000D02*
X8750238Y-18583429D01*
X8750238Y-18583429D02*
X8759762Y-18573905D01*
X8826429Y-18621524D02*
X8835953Y-18612000D01*
X8835953Y-18612000D02*
X8855000Y-18602476D01*
X8855000Y-18602476D02*
X8902619Y-18602476D01*
X8902619Y-18602476D02*
X8921667Y-18612000D01*
X8921667Y-18612000D02*
X8931191Y-18621524D01*
X8931191Y-18621524D02*
X8940714Y-18640571D01*
X8940714Y-18640571D02*
X8940714Y-18659619D01*
X8940714Y-18659619D02*
X8931191Y-18688190D01*
X8931191Y-18688190D02*
X8816905Y-18802476D01*
X8816905Y-18802476D02*
X8940714Y-18802476D01*
X9064524Y-18602476D02*
X9083572Y-18602476D01*
X9083572Y-18602476D02*
X9102619Y-18612000D01*
X9102619Y-18612000D02*
X9112143Y-18621524D01*
X9112143Y-18621524D02*
X9121667Y-18640571D01*
X9121667Y-18640571D02*
X9131191Y-18678667D01*
X9131191Y-18678667D02*
X9131191Y-18726286D01*
X9131191Y-18726286D02*
X9121667Y-18764381D01*
X9121667Y-18764381D02*
X9112143Y-18783429D01*
X9112143Y-18783429D02*
X9102619Y-18792952D01*
X9102619Y-18792952D02*
X9083572Y-18802476D01*
X9083572Y-18802476D02*
X9064524Y-18802476D01*
X9064524Y-18802476D02*
X9045476Y-18792952D01*
X9045476Y-18792952D02*
X9035953Y-18783429D01*
X9035953Y-18783429D02*
X9026429Y-18764381D01*
X9026429Y-18764381D02*
X9016905Y-18726286D01*
X9016905Y-18726286D02*
X9016905Y-18678667D01*
X9016905Y-18678667D02*
X9026429Y-18640571D01*
X9026429Y-18640571D02*
X9035953Y-18621524D01*
X9035953Y-18621524D02*
X9045476Y-18612000D01*
X9045476Y-18612000D02*
X9064524Y-18602476D01*
X9336905Y-18802476D02*
X9336905Y-18602476D01*
X9422619Y-18802476D02*
X9422619Y-18697714D01*
X9422619Y-18697714D02*
X9413095Y-18678667D01*
X9413095Y-18678667D02*
X9394048Y-18669143D01*
X9394048Y-18669143D02*
X9365476Y-18669143D01*
X9365476Y-18669143D02*
X9346429Y-18678667D01*
X9346429Y-18678667D02*
X9336905Y-18688190D01*
X9546429Y-18802476D02*
X9527381Y-18792952D01*
X9527381Y-18792952D02*
X9517857Y-18783429D01*
X9517857Y-18783429D02*
X9508334Y-18764381D01*
X9508334Y-18764381D02*
X9508334Y-18707238D01*
X9508334Y-18707238D02*
X9517857Y-18688190D01*
X9517857Y-18688190D02*
X9527381Y-18678667D01*
X9527381Y-18678667D02*
X9546429Y-18669143D01*
X9546429Y-18669143D02*
X9575000Y-18669143D01*
X9575000Y-18669143D02*
X9594048Y-18678667D01*
X9594048Y-18678667D02*
X9603572Y-18688190D01*
X9603572Y-18688190D02*
X9613095Y-18707238D01*
X9613095Y-18707238D02*
X9613095Y-18764381D01*
X9613095Y-18764381D02*
X9603572Y-18783429D01*
X9603572Y-18783429D02*
X9594048Y-18792952D01*
X9594048Y-18792952D02*
X9575000Y-18802476D01*
X9575000Y-18802476D02*
X9546429Y-18802476D01*
X9727381Y-18802476D02*
X9708334Y-18792952D01*
X9708334Y-18792952D02*
X9698810Y-18773905D01*
X9698810Y-18773905D02*
X9698810Y-18602476D01*
X9879762Y-18792952D02*
X9860715Y-18802476D01*
X9860715Y-18802476D02*
X9822619Y-18802476D01*
X9822619Y-18802476D02*
X9803572Y-18792952D01*
X9803572Y-18792952D02*
X9794048Y-18773905D01*
X9794048Y-18773905D02*
X9794048Y-18697714D01*
X9794048Y-18697714D02*
X9803572Y-18678667D01*
X9803572Y-18678667D02*
X9822619Y-18669143D01*
X9822619Y-18669143D02*
X9860715Y-18669143D01*
X9860715Y-18669143D02*
X9879762Y-18678667D01*
X9879762Y-18678667D02*
X9889286Y-18697714D01*
X9889286Y-18697714D02*
X9889286Y-18716762D01*
X9889286Y-18716762D02*
X9794048Y-18735810D01*
X9965476Y-18792952D02*
X9984524Y-18802476D01*
X9984524Y-18802476D02*
X10022619Y-18802476D01*
X10022619Y-18802476D02*
X10041667Y-18792952D01*
X10041667Y-18792952D02*
X10051191Y-18773905D01*
X10051191Y-18773905D02*
X10051191Y-18764381D01*
X10051191Y-18764381D02*
X10041667Y-18745333D01*
X10041667Y-18745333D02*
X10022619Y-18735810D01*
X10022619Y-18735810D02*
X9994048Y-18735810D01*
X9994048Y-18735810D02*
X9975000Y-18726286D01*
X9975000Y-18726286D02*
X9965476Y-18707238D01*
X9965476Y-18707238D02*
X9965476Y-18697714D01*
X9965476Y-18697714D02*
X9975000Y-18678667D01*
X9975000Y-18678667D02*
X9994048Y-18669143D01*
X9994048Y-18669143D02*
X10022619Y-18669143D01*
X10022619Y-18669143D02*
X10041667Y-18678667D01*
X10117857Y-18878667D02*
X10127381Y-18869143D01*
X10127381Y-18869143D02*
X10146429Y-18840571D01*
X10146429Y-18840571D02*
X10155953Y-18821524D01*
X10155953Y-18821524D02*
X10165476Y-18792952D01*
X10165476Y-18792952D02*
X10175000Y-18745333D01*
X10175000Y-18745333D02*
X10175000Y-18707238D01*
X10175000Y-18707238D02*
X10165476Y-18659619D01*
X10165476Y-18659619D02*
X10155953Y-18631048D01*
X10155953Y-18631048D02*
X10146429Y-18612000D01*
X10146429Y-18612000D02*
X10127381Y-18583429D01*
X10127381Y-18583429D02*
X10117857Y-18573905D01*
X5095000Y-18893000D02*
X5295000Y-19093000D01*
X5295000Y-18893000D02*
X5095000Y-19093000D01*
X5265711Y-19063711D02*
X5265711Y-18922289D01*
X5124289Y-18922289D01*
X5124289Y-19063711D01*
X5265711Y-19063711D01*
X5523571Y-18866476D02*
X5647381Y-18866476D01*
X5647381Y-18866476D02*
X5580714Y-18942667D01*
X5580714Y-18942667D02*
X5609286Y-18942667D01*
X5609286Y-18942667D02*
X5628333Y-18952190D01*
X5628333Y-18952190D02*
X5637857Y-18961714D01*
X5637857Y-18961714D02*
X5647381Y-18980762D01*
X5647381Y-18980762D02*
X5647381Y-19028381D01*
X5647381Y-19028381D02*
X5637857Y-19047429D01*
X5637857Y-19047429D02*
X5628333Y-19056952D01*
X5628333Y-19056952D02*
X5609286Y-19066476D01*
X5609286Y-19066476D02*
X5552143Y-19066476D01*
X5552143Y-19066476D02*
X5533095Y-19056952D01*
X5533095Y-19056952D02*
X5523571Y-19047429D01*
X5733095Y-19047429D02*
X5742619Y-19056952D01*
X5742619Y-19056952D02*
X5733095Y-19066476D01*
X5733095Y-19066476D02*
X5723571Y-19056952D01*
X5723571Y-19056952D02*
X5733095Y-19047429D01*
X5733095Y-19047429D02*
X5733095Y-19066476D01*
X5818809Y-18885524D02*
X5828333Y-18876000D01*
X5828333Y-18876000D02*
X5847381Y-18866476D01*
X5847381Y-18866476D02*
X5895000Y-18866476D01*
X5895000Y-18866476D02*
X5914048Y-18876000D01*
X5914048Y-18876000D02*
X5923571Y-18885524D01*
X5923571Y-18885524D02*
X5933095Y-18904571D01*
X5933095Y-18904571D02*
X5933095Y-18923619D01*
X5933095Y-18923619D02*
X5923571Y-18952190D01*
X5923571Y-18952190D02*
X5809286Y-19066476D01*
X5809286Y-19066476D02*
X5933095Y-19066476D01*
X6056905Y-18866476D02*
X6075952Y-18866476D01*
X6075952Y-18866476D02*
X6095000Y-18876000D01*
X6095000Y-18876000D02*
X6104524Y-18885524D01*
X6104524Y-18885524D02*
X6114048Y-18904571D01*
X6114048Y-18904571D02*
X6123571Y-18942667D01*
X6123571Y-18942667D02*
X6123571Y-18990286D01*
X6123571Y-18990286D02*
X6114048Y-19028381D01*
X6114048Y-19028381D02*
X6104524Y-19047429D01*
X6104524Y-19047429D02*
X6095000Y-19056952D01*
X6095000Y-19056952D02*
X6075952Y-19066476D01*
X6075952Y-19066476D02*
X6056905Y-19066476D01*
X6056905Y-19066476D02*
X6037857Y-19056952D01*
X6037857Y-19056952D02*
X6028333Y-19047429D01*
X6028333Y-19047429D02*
X6018809Y-19028381D01*
X6018809Y-19028381D02*
X6009286Y-18990286D01*
X6009286Y-18990286D02*
X6009286Y-18942667D01*
X6009286Y-18942667D02*
X6018809Y-18904571D01*
X6018809Y-18904571D02*
X6028333Y-18885524D01*
X6028333Y-18885524D02*
X6037857Y-18876000D01*
X6037857Y-18876000D02*
X6056905Y-18866476D01*
X6247381Y-18866476D02*
X6266429Y-18866476D01*
X6266429Y-18866476D02*
X6285476Y-18876000D01*
X6285476Y-18876000D02*
X6295000Y-18885524D01*
X6295000Y-18885524D02*
X6304524Y-18904571D01*
X6304524Y-18904571D02*
X6314048Y-18942667D01*
X6314048Y-18942667D02*
X6314048Y-18990286D01*
X6314048Y-18990286D02*
X6304524Y-19028381D01*
X6304524Y-19028381D02*
X6295000Y-19047429D01*
X6295000Y-19047429D02*
X6285476Y-19056952D01*
X6285476Y-19056952D02*
X6266429Y-19066476D01*
X6266429Y-19066476D02*
X6247381Y-19066476D01*
X6247381Y-19066476D02*
X6228333Y-19056952D01*
X6228333Y-19056952D02*
X6218809Y-19047429D01*
X6218809Y-19047429D02*
X6209286Y-19028381D01*
X6209286Y-19028381D02*
X6199762Y-18990286D01*
X6199762Y-18990286D02*
X6199762Y-18942667D01*
X6199762Y-18942667D02*
X6209286Y-18904571D01*
X6209286Y-18904571D02*
X6218809Y-18885524D01*
X6218809Y-18885524D02*
X6228333Y-18876000D01*
X6228333Y-18876000D02*
X6247381Y-18866476D01*
X6399762Y-19066476D02*
X6399762Y-18933143D01*
X6399762Y-18952190D02*
X6409286Y-18942667D01*
X6409286Y-18942667D02*
X6428333Y-18933143D01*
X6428333Y-18933143D02*
X6456905Y-18933143D01*
X6456905Y-18933143D02*
X6475952Y-18942667D01*
X6475952Y-18942667D02*
X6485476Y-18961714D01*
X6485476Y-18961714D02*
X6485476Y-19066476D01*
X6485476Y-18961714D02*
X6495000Y-18942667D01*
X6495000Y-18942667D02*
X6514048Y-18933143D01*
X6514048Y-18933143D02*
X6542619Y-18933143D01*
X6542619Y-18933143D02*
X6561667Y-18942667D01*
X6561667Y-18942667D02*
X6571190Y-18961714D01*
X6571190Y-18961714D02*
X6571190Y-19066476D01*
X6666429Y-19066476D02*
X6666429Y-18933143D01*
X6666429Y-18952190D02*
X6675952Y-18942667D01*
X6675952Y-18942667D02*
X6695000Y-18933143D01*
X6695000Y-18933143D02*
X6723571Y-18933143D01*
X6723571Y-18933143D02*
X6742619Y-18942667D01*
X6742619Y-18942667D02*
X6752143Y-18961714D01*
X6752143Y-18961714D02*
X6752143Y-19066476D01*
X6752143Y-18961714D02*
X6761667Y-18942667D01*
X6761667Y-18942667D02*
X6780714Y-18933143D01*
X6780714Y-18933143D02*
X6809286Y-18933143D01*
X6809286Y-18933143D02*
X6828333Y-18942667D01*
X6828333Y-18942667D02*
X6837857Y-18961714D01*
X6837857Y-18961714D02*
X6837857Y-19066476D01*
X7195952Y-18856952D02*
X7024524Y-19114095D01*
X7420714Y-18866476D02*
X7439762Y-18866476D01*
X7439762Y-18866476D02*
X7458810Y-18876000D01*
X7458810Y-18876000D02*
X7468333Y-18885524D01*
X7468333Y-18885524D02*
X7477857Y-18904571D01*
X7477857Y-18904571D02*
X7487381Y-18942667D01*
X7487381Y-18942667D02*
X7487381Y-18990286D01*
X7487381Y-18990286D02*
X7477857Y-19028381D01*
X7477857Y-19028381D02*
X7468333Y-19047429D01*
X7468333Y-19047429D02*
X7458810Y-19056952D01*
X7458810Y-19056952D02*
X7439762Y-19066476D01*
X7439762Y-19066476D02*
X7420714Y-19066476D01*
X7420714Y-19066476D02*
X7401667Y-19056952D01*
X7401667Y-19056952D02*
X7392143Y-19047429D01*
X7392143Y-19047429D02*
X7382619Y-19028381D01*
X7382619Y-19028381D02*
X7373095Y-18990286D01*
X7373095Y-18990286D02*
X7373095Y-18942667D01*
X7373095Y-18942667D02*
X7382619Y-18904571D01*
X7382619Y-18904571D02*
X7392143Y-18885524D01*
X7392143Y-18885524D02*
X7401667Y-18876000D01*
X7401667Y-18876000D02*
X7420714Y-18866476D01*
X7573095Y-19047429D02*
X7582619Y-19056952D01*
X7582619Y-19056952D02*
X7573095Y-19066476D01*
X7573095Y-19066476D02*
X7563571Y-19056952D01*
X7563571Y-19056952D02*
X7573095Y-19047429D01*
X7573095Y-19047429D02*
X7573095Y-19066476D01*
X7773095Y-19066476D02*
X7658810Y-19066476D01*
X7715952Y-19066476D02*
X7715952Y-18866476D01*
X7715952Y-18866476D02*
X7696905Y-18895048D01*
X7696905Y-18895048D02*
X7677857Y-18914095D01*
X7677857Y-18914095D02*
X7658810Y-18923619D01*
X7849286Y-18885524D02*
X7858810Y-18876000D01*
X7858810Y-18876000D02*
X7877857Y-18866476D01*
X7877857Y-18866476D02*
X7925476Y-18866476D01*
X7925476Y-18866476D02*
X7944524Y-18876000D01*
X7944524Y-18876000D02*
X7954048Y-18885524D01*
X7954048Y-18885524D02*
X7963571Y-18904571D01*
X7963571Y-18904571D02*
X7963571Y-18923619D01*
X7963571Y-18923619D02*
X7954048Y-18952190D01*
X7954048Y-18952190D02*
X7839762Y-19066476D01*
X7839762Y-19066476D02*
X7963571Y-19066476D01*
X8135000Y-18866476D02*
X8096905Y-18866476D01*
X8096905Y-18866476D02*
X8077857Y-18876000D01*
X8077857Y-18876000D02*
X8068333Y-18885524D01*
X8068333Y-18885524D02*
X8049286Y-18914095D01*
X8049286Y-18914095D02*
X8039762Y-18952190D01*
X8039762Y-18952190D02*
X8039762Y-19028381D01*
X8039762Y-19028381D02*
X8049286Y-19047429D01*
X8049286Y-19047429D02*
X8058810Y-19056952D01*
X8058810Y-19056952D02*
X8077857Y-19066476D01*
X8077857Y-19066476D02*
X8115952Y-19066476D01*
X8115952Y-19066476D02*
X8135000Y-19056952D01*
X8135000Y-19056952D02*
X8144524Y-19047429D01*
X8144524Y-19047429D02*
X8154048Y-19028381D01*
X8154048Y-19028381D02*
X8154048Y-18980762D01*
X8154048Y-18980762D02*
X8144524Y-18961714D01*
X8144524Y-18961714D02*
X8135000Y-18952190D01*
X8135000Y-18952190D02*
X8115952Y-18942667D01*
X8115952Y-18942667D02*
X8077857Y-18942667D01*
X8077857Y-18942667D02*
X8058810Y-18952190D01*
X8058810Y-18952190D02*
X8049286Y-18961714D01*
X8049286Y-18961714D02*
X8039762Y-18980762D01*
X8277857Y-18866476D02*
X8296905Y-18866476D01*
X8296905Y-18866476D02*
X8315952Y-18876000D01*
X8315952Y-18876000D02*
X8325476Y-18885524D01*
X8325476Y-18885524D02*
X8335000Y-18904571D01*
X8335000Y-18904571D02*
X8344524Y-18942667D01*
X8344524Y-18942667D02*
X8344524Y-18990286D01*
X8344524Y-18990286D02*
X8335000Y-19028381D01*
X8335000Y-19028381D02*
X8325476Y-19047429D01*
X8325476Y-19047429D02*
X8315952Y-19056952D01*
X8315952Y-19056952D02*
X8296905Y-19066476D01*
X8296905Y-19066476D02*
X8277857Y-19066476D01*
X8277857Y-19066476D02*
X8258810Y-19056952D01*
X8258810Y-19056952D02*
X8249286Y-19047429D01*
X8249286Y-19047429D02*
X8239762Y-19028381D01*
X8239762Y-19028381D02*
X8230238Y-18990286D01*
X8230238Y-18990286D02*
X8230238Y-18942667D01*
X8230238Y-18942667D02*
X8239762Y-18904571D01*
X8239762Y-18904571D02*
X8249286Y-18885524D01*
X8249286Y-18885524D02*
X8258810Y-18876000D01*
X8258810Y-18876000D02*
X8277857Y-18866476D01*
X8420714Y-18866476D02*
X8420714Y-18904571D01*
X8496905Y-18866476D02*
X8496905Y-18904571D01*
X8759762Y-19142667D02*
X8750238Y-19133143D01*
X8750238Y-19133143D02*
X8731191Y-19104571D01*
X8731191Y-19104571D02*
X8721667Y-19085524D01*
X8721667Y-19085524D02*
X8712143Y-19056952D01*
X8712143Y-19056952D02*
X8702619Y-19009333D01*
X8702619Y-19009333D02*
X8702619Y-18971238D01*
X8702619Y-18971238D02*
X8712143Y-18923619D01*
X8712143Y-18923619D02*
X8721667Y-18895048D01*
X8721667Y-18895048D02*
X8731191Y-18876000D01*
X8731191Y-18876000D02*
X8750238Y-18847429D01*
X8750238Y-18847429D02*
X8759762Y-18837905D01*
X8921667Y-18933143D02*
X8921667Y-19066476D01*
X8874048Y-18856952D02*
X8826429Y-18999810D01*
X8826429Y-18999810D02*
X8950238Y-18999810D01*
X9146429Y-19066476D02*
X9146429Y-18866476D01*
X9232143Y-19066476D02*
X9232143Y-18961714D01*
X9232143Y-18961714D02*
X9222619Y-18942667D01*
X9222619Y-18942667D02*
X9203572Y-18933143D01*
X9203572Y-18933143D02*
X9175000Y-18933143D01*
X9175000Y-18933143D02*
X9155953Y-18942667D01*
X9155953Y-18942667D02*
X9146429Y-18952190D01*
X9355953Y-19066476D02*
X9336905Y-19056952D01*
X9336905Y-19056952D02*
X9327381Y-19047429D01*
X9327381Y-19047429D02*
X9317857Y-19028381D01*
X9317857Y-19028381D02*
X9317857Y-18971238D01*
X9317857Y-18971238D02*
X9327381Y-18952190D01*
X9327381Y-18952190D02*
X9336905Y-18942667D01*
X9336905Y-18942667D02*
X9355953Y-18933143D01*
X9355953Y-18933143D02*
X9384524Y-18933143D01*
X9384524Y-18933143D02*
X9403572Y-18942667D01*
X9403572Y-18942667D02*
X9413095Y-18952190D01*
X9413095Y-18952190D02*
X9422619Y-18971238D01*
X9422619Y-18971238D02*
X9422619Y-19028381D01*
X9422619Y-19028381D02*
X9413095Y-19047429D01*
X9413095Y-19047429D02*
X9403572Y-19056952D01*
X9403572Y-19056952D02*
X9384524Y-19066476D01*
X9384524Y-19066476D02*
X9355953Y-19066476D01*
X9536905Y-19066476D02*
X9517857Y-19056952D01*
X9517857Y-19056952D02*
X9508334Y-19037905D01*
X9508334Y-19037905D02*
X9508334Y-18866476D01*
X9689286Y-19056952D02*
X9670238Y-19066476D01*
X9670238Y-19066476D02*
X9632143Y-19066476D01*
X9632143Y-19066476D02*
X9613095Y-19056952D01*
X9613095Y-19056952D02*
X9603572Y-19037905D01*
X9603572Y-19037905D02*
X9603572Y-18961714D01*
X9603572Y-18961714D02*
X9613095Y-18942667D01*
X9613095Y-18942667D02*
X9632143Y-18933143D01*
X9632143Y-18933143D02*
X9670238Y-18933143D01*
X9670238Y-18933143D02*
X9689286Y-18942667D01*
X9689286Y-18942667D02*
X9698810Y-18961714D01*
X9698810Y-18961714D02*
X9698810Y-18980762D01*
X9698810Y-18980762D02*
X9603572Y-18999810D01*
X9775000Y-19056952D02*
X9794048Y-19066476D01*
X9794048Y-19066476D02*
X9832143Y-19066476D01*
X9832143Y-19066476D02*
X9851191Y-19056952D01*
X9851191Y-19056952D02*
X9860715Y-19037905D01*
X9860715Y-19037905D02*
X9860715Y-19028381D01*
X9860715Y-19028381D02*
X9851191Y-19009333D01*
X9851191Y-19009333D02*
X9832143Y-18999810D01*
X9832143Y-18999810D02*
X9803572Y-18999810D01*
X9803572Y-18999810D02*
X9784524Y-18990286D01*
X9784524Y-18990286D02*
X9775000Y-18971238D01*
X9775000Y-18971238D02*
X9775000Y-18961714D01*
X9775000Y-18961714D02*
X9784524Y-18942667D01*
X9784524Y-18942667D02*
X9803572Y-18933143D01*
X9803572Y-18933143D02*
X9832143Y-18933143D01*
X9832143Y-18933143D02*
X9851191Y-18942667D01*
X9927381Y-19142667D02*
X9936905Y-19133143D01*
X9936905Y-19133143D02*
X9955953Y-19104571D01*
X9955953Y-19104571D02*
X9965476Y-19085524D01*
X9965476Y-19085524D02*
X9975000Y-19056952D01*
X9975000Y-19056952D02*
X9984524Y-19009333D01*
X9984524Y-19009333D02*
X9984524Y-18971238D01*
X9984524Y-18971238D02*
X9975000Y-18923619D01*
X9975000Y-18923619D02*
X9965476Y-18895048D01*
X9965476Y-18895048D02*
X9955953Y-18876000D01*
X9955953Y-18876000D02*
X9936905Y-18847429D01*
X9936905Y-18847429D02*
X9927381Y-18837905D01*
M02*
