G04 #@! TF.GenerationSoftware,KiCad,Pcbnew,6.0.9-8da3e8f707~117~ubuntu22.04.1*
G04 #@! TF.CreationDate,2022-11-29T22:26:16-05:00*
G04 #@! TF.ProjectId,dso138_panel,64736f31-3338-45f7-9061-6e656c2e6b69,rev?*
G04 #@! TF.SameCoordinates,Original*
G04 #@! TF.FileFunction,Profile,NP*
%FSLAX46Y46*%
G04 Gerber Fmt 4.6, Leading zero omitted, Abs format (unit mm)*
G04 Created by KiCad (PCBNEW 6.0.9-8da3e8f707~117~ubuntu22.04.1) date 2022-11-29 22:26:16*
%MOMM*%
%LPD*%
G01*
G04 APERTURE LIST*
G04 #@! TA.AperFunction,Profile*
%ADD10C,0.100000*%
G04 #@! TD*
G04 #@! TA.AperFunction,Profile*
%ADD11C,0.050000*%
G04 #@! TD*
G04 APERTURE END LIST*
D10*
X33900000Y207600000D02*
X133900000Y207600000D01*
X133900000Y207600000D02*
X133900000Y7600000D01*
X133900000Y7600000D02*
X33900000Y7600000D01*
X33900000Y7600000D02*
X33900000Y207600000D01*
X54400000Y178350000D02*
X113400000Y178350000D01*
X113400000Y178350000D02*
X113400000Y136850000D01*
X113400000Y136850000D02*
X54400000Y136850000D01*
X54400000Y136850000D02*
X54400000Y178350000D01*
G04 #@! TO.C,H1*
X39900000Y109100000D02*
X52900000Y109100000D01*
X52900000Y109100000D02*
X52900000Y96100000D01*
X52900000Y96100000D02*
X39900000Y96100000D01*
X39900000Y96100000D02*
X39900000Y109100000D01*
G04 #@! TO.C,H16*
X114900000Y79100000D02*
X127900000Y79100000D01*
X127900000Y79100000D02*
X127900000Y66100000D01*
X127900000Y66100000D02*
X114900000Y66100000D01*
X114900000Y66100000D02*
X114900000Y79100000D01*
G04 #@! TO.C,H15*
X114900000Y109100000D02*
X127900000Y109100000D01*
X127900000Y109100000D02*
X127900000Y96100000D01*
X127900000Y96100000D02*
X114900000Y96100000D01*
X114900000Y96100000D02*
X114900000Y109100000D01*
D11*
G04 #@! TO.C,H2*
X40900000Y74600000D02*
X51900000Y74600000D01*
X51900000Y74600000D02*
X51900000Y70600000D01*
X51900000Y70600000D02*
X40900000Y70600000D01*
X40900000Y70600000D02*
X40900000Y74600000D01*
G04 #@! TO.C,H4*
X52900000Y32600000D02*
G75*
G03*
X52900000Y32600000I-6500000J0D01*
G01*
G04 #@! TO.C,H9*
X88800000Y32600000D02*
G75*
G03*
X88800000Y32600000I-4900000J0D01*
G01*
D10*
G04 #@! TO.C,H11*
X89900000Y109100000D02*
X102900000Y109100000D01*
X102900000Y109100000D02*
X102900000Y96100000D01*
X102900000Y96100000D02*
X89900000Y96100000D01*
X89900000Y96100000D02*
X89900000Y109100000D01*
D11*
G04 #@! TO.C,H5*
X69450000Y32600000D02*
G75*
G03*
X69450000Y32600000I-3300000J0D01*
G01*
G04 #@! TO.C,H14*
X126300000Y32600000D02*
G75*
G03*
X126300000Y32600000I-4900000J0D01*
G01*
D10*
G04 #@! TO.C,H6*
X64900000Y109100000D02*
X77900000Y109100000D01*
X77900000Y109100000D02*
X77900000Y96100000D01*
X77900000Y96100000D02*
X64900000Y96100000D01*
X64900000Y96100000D02*
X64900000Y109100000D01*
D11*
G04 #@! TO.C,H7*
X65900000Y74600000D02*
X76900000Y74600000D01*
X76900000Y74600000D02*
X76900000Y70600000D01*
X76900000Y70600000D02*
X65900000Y70600000D01*
X65900000Y70600000D02*
X65900000Y74600000D01*
G04 #@! TO.C,H12*
X90900000Y74600000D02*
X101900000Y74600000D01*
X101900000Y74600000D02*
X101900000Y70600000D01*
X101900000Y70600000D02*
X90900000Y70600000D01*
X90900000Y70600000D02*
X90900000Y74600000D01*
G04 #@! TO.C,H10*
X49700000Y157850000D02*
G75*
G03*
X49700000Y157850000I-3300000J0D01*
G01*
G04 #@! TD*
M02*
