M48
; DRILL file {KiCad 6.0.9-8da3e8f707~117~ubuntu22.04.1} date Tue Nov 29 22:26:16 2022
; FORMAT={-:-/ absolute / metric / decimal}
; #@! TF.CreationDate,2022-11-29T22:26:16-05:00
; #@! TF.GenerationSoftware,Kicad,Pcbnew,6.0.9-8da3e8f707~117~ubuntu22.04.1
; #@! TF.FileFunction,MixedPlating,1,2
FMAT,2
METRIC
; #@! TA.AperFunction,Plated,PTH,ComponentDrill
T1C0.600
; #@! TA.AperFunction,Plated,PTH,ComponentDrill
T2C2.500
; #@! TA.AperFunction,Plated,PTH,ComponentDrill
T3C3.200
; #@! TA.AperFunction,NonPlated,NPTH,ComponentDrill
T4C5.000
%
G90
G05
T1
X38.7Y32.6
X41.0Y38.0
X41.0Y27.2
X41.9Y157.85
X43.2Y161.05
X43.2Y154.65
X46.4Y162.35
X46.4Y153.35
X46.4Y40.3
X46.4Y24.9
X49.5Y154.55
X49.6Y161.05
X50.9Y157.85
X51.7Y27.1
X51.8Y38.0
X54.1Y32.6
X61.65Y32.6
X62.95Y35.8
X62.95Y29.4
X66.15Y37.1
X66.15Y28.1
X69.25Y29.3
X69.35Y35.8
X70.65Y32.6
X77.8Y32.6
X79.6Y36.9
X79.6Y28.3
X83.9Y38.7
X83.9Y26.5
X88.1Y28.2
X88.2Y36.9
X90.0Y32.6
X115.3Y32.6
X117.1Y36.9
X117.1Y28.3
X121.4Y38.7
X121.4Y26.5
X125.6Y28.2
X125.7Y36.9
X127.5Y32.6
T2
X56.0Y181.06
X56.0Y132.8
X111.88Y181.06
X111.88Y132.8
T3
X39.9Y124.6
X39.9Y45.6
X127.9Y124.6
X127.9Y45.6
T4
X108.9Y119.6
T3
X36.9Y204.6G85X39.7Y204.6
G05
X36.9Y10.6G85X39.7Y10.6
G05
X130.9Y204.6G85X128.1Y204.6
G05
X130.9Y10.6G85X128.1Y10.6
G05
T0
M30
