G04 #@! TF.GenerationSoftware,KiCad,Pcbnew,6.0.9-8da3e8f707~117~ubuntu22.04.1*
G04 #@! TF.CreationDate,2022-11-29T22:26:16-05:00*
G04 #@! TF.ProjectId,dso138_panel,64736f31-3338-45f7-9061-6e656c2e6b69,rev?*
G04 #@! TF.SameCoordinates,Original*
G04 #@! TF.FileFunction,Legend,Bot*
G04 #@! TF.FilePolarity,Positive*
%FSLAX46Y46*%
G04 Gerber Fmt 4.6, Leading zero omitted, Abs format (unit mm)*
G04 Created by KiCad (PCBNEW 6.0.9-8da3e8f707~117~ubuntu22.04.1) date 2022-11-29 22:26:16*
%MOMM*%
%LPD*%
G01*
G04 APERTURE LIST*
%ADD10C,0.150000*%
%ADD11C,0.010000*%
G04 APERTURE END LIST*
D10*
X68114285Y23000239D02*
X67971428Y22952620D01*
X67733333Y22952620D01*
X67638095Y23000239D01*
X67590476Y23047858D01*
X67542857Y23143096D01*
X67542857Y23238334D01*
X67590476Y23333572D01*
X67638095Y23381191D01*
X67733333Y23428810D01*
X67923809Y23476429D01*
X68019047Y23524048D01*
X68066666Y23571667D01*
X68114285Y23666905D01*
X68114285Y23762143D01*
X68066666Y23857381D01*
X68019047Y23905000D01*
X67923809Y23952620D01*
X67685714Y23952620D01*
X67542857Y23905000D01*
X67209523Y23619286D02*
X67019047Y22952620D01*
X66828571Y23428810D01*
X66638095Y22952620D01*
X66447619Y23619286D01*
X66066666Y22952620D02*
X66066666Y23619286D01*
X66066666Y23952620D02*
X66114285Y23905000D01*
X66066666Y23857381D01*
X66019047Y23905000D01*
X66066666Y23952620D01*
X66066666Y23857381D01*
X65733333Y23619286D02*
X65352380Y23619286D01*
X65590476Y23952620D02*
X65590476Y23095477D01*
X65542857Y23000239D01*
X65447619Y22952620D01*
X65352380Y22952620D01*
X64590476Y23000239D02*
X64685714Y22952620D01*
X64876190Y22952620D01*
X64971428Y23000239D01*
X65019047Y23047858D01*
X65066666Y23143096D01*
X65066666Y23428810D01*
X65019047Y23524048D01*
X64971428Y23571667D01*
X64876190Y23619286D01*
X64685714Y23619286D01*
X64590476Y23571667D01*
X64161904Y22952620D02*
X64161904Y23952620D01*
X63733333Y22952620D02*
X63733333Y23476429D01*
X63780952Y23571667D01*
X63876190Y23619286D01*
X64019047Y23619286D01*
X64114285Y23571667D01*
X64161904Y23524048D01*
X79138095Y22009286D02*
X78757142Y22009286D01*
X78995238Y22342620D02*
X78995238Y21485477D01*
X78947619Y21390239D01*
X78852380Y21342620D01*
X78757142Y21342620D01*
X78280952Y21342620D02*
X78376190Y21390239D01*
X78423809Y21437858D01*
X78471428Y21533096D01*
X78471428Y21818810D01*
X78423809Y21914048D01*
X78376190Y21961667D01*
X78280952Y22009286D01*
X78138095Y22009286D01*
X78042857Y21961667D01*
X77995238Y21914048D01*
X77947619Y21818810D01*
X77947619Y21533096D01*
X77995238Y21437858D01*
X78042857Y21390239D01*
X78138095Y21342620D01*
X78280952Y21342620D01*
X76423809Y21866429D02*
X76280952Y21818810D01*
X76233333Y21771191D01*
X76185714Y21675953D01*
X76185714Y21533096D01*
X76233333Y21437858D01*
X76280952Y21390239D01*
X76376190Y21342620D01*
X76757142Y21342620D01*
X76757142Y22342620D01*
X76423809Y22342620D01*
X76328571Y22295000D01*
X76280952Y22247381D01*
X76233333Y22152143D01*
X76233333Y22056905D01*
X76280952Y21961667D01*
X76328571Y21914048D01*
X76423809Y21866429D01*
X76757142Y21866429D01*
X75757142Y21342620D02*
X75757142Y22342620D01*
X75185714Y21342620D01*
X75185714Y22342620D01*
X74138095Y21437858D02*
X74185714Y21390239D01*
X74328571Y21342620D01*
X74423809Y21342620D01*
X74566666Y21390239D01*
X74661904Y21485477D01*
X74709523Y21580715D01*
X74757142Y21771191D01*
X74757142Y21914048D01*
X74709523Y22104524D01*
X74661904Y22199762D01*
X74566666Y22295000D01*
X74423809Y22342620D01*
X74328571Y22342620D01*
X74185714Y22295000D01*
X74138095Y22247381D01*
X72947619Y22009286D02*
X72947619Y21152143D01*
X72995238Y21056905D01*
X73090476Y21009286D01*
X73138095Y21009286D01*
X72947619Y22342620D02*
X72995238Y22295000D01*
X72947619Y22247381D01*
X72900000Y22295000D01*
X72947619Y22342620D01*
X72947619Y22247381D01*
X72042857Y21342620D02*
X72042857Y21866429D01*
X72090476Y21961667D01*
X72185714Y22009286D01*
X72376190Y22009286D01*
X72471428Y21961667D01*
X72042857Y21390239D02*
X72138095Y21342620D01*
X72376190Y21342620D01*
X72471428Y21390239D01*
X72519047Y21485477D01*
X72519047Y21580715D01*
X72471428Y21675953D01*
X72376190Y21723572D01*
X72138095Y21723572D01*
X72042857Y21771191D01*
X71138095Y21390239D02*
X71233333Y21342620D01*
X71423809Y21342620D01*
X71519047Y21390239D01*
X71566666Y21437858D01*
X71614285Y21533096D01*
X71614285Y21818810D01*
X71566666Y21914048D01*
X71519047Y21961667D01*
X71423809Y22009286D01*
X71233333Y22009286D01*
X71138095Y21961667D01*
X70709523Y21342620D02*
X70709523Y22342620D01*
X70614285Y21723572D02*
X70328571Y21342620D01*
X70328571Y22009286D02*
X70709523Y21628334D01*
X68423809Y22390239D02*
X69280952Y21104524D01*
X67328571Y21342620D02*
X67328571Y22342620D01*
X66852380Y21342620D02*
X66852380Y22342620D01*
X66280952Y21342620D01*
X66280952Y22342620D01*
X65804761Y21342620D02*
X65804761Y22342620D01*
X65423809Y22342620D01*
X65328571Y22295000D01*
X65280952Y22247381D01*
X65233333Y22152143D01*
X65233333Y22009286D01*
X65280952Y21914048D01*
X65328571Y21866429D01*
X65423809Y21818810D01*
X65804761Y21818810D01*
X64804761Y22342620D02*
X64804761Y21533096D01*
X64757142Y21437858D01*
X64709523Y21390239D01*
X64614285Y21342620D01*
X64423809Y21342620D01*
X64328571Y21390239D01*
X64280952Y21437858D01*
X64233333Y21533096D01*
X64233333Y22342620D01*
X63900000Y22342620D02*
X63328571Y22342620D01*
X63614285Y21342620D02*
X63614285Y22342620D01*
X61519047Y22390239D02*
X62376190Y21104524D01*
X60471428Y21628334D02*
X59995238Y21628334D01*
X60566666Y21342620D02*
X60233333Y22342620D01*
X59900000Y21342620D01*
X59566666Y22342620D02*
X59566666Y21533096D01*
X59519047Y21437858D01*
X59471428Y21390239D01*
X59376190Y21342620D01*
X59185714Y21342620D01*
X59090476Y21390239D01*
X59042857Y21437858D01*
X58995238Y21533096D01*
X58995238Y22342620D01*
X58519047Y21342620D02*
X58519047Y22342620D01*
X58280952Y22342620D01*
X58138095Y22295000D01*
X58042857Y22199762D01*
X57995238Y22104524D01*
X57947619Y21914048D01*
X57947619Y21771191D01*
X57995238Y21580715D01*
X58042857Y21485477D01*
X58138095Y21390239D01*
X58280952Y21342620D01*
X58519047Y21342620D01*
X57519047Y21342620D02*
X57519047Y22342620D01*
X56852380Y22342620D02*
X56661904Y22342620D01*
X56566666Y22295000D01*
X56471428Y22199762D01*
X56423809Y22009286D01*
X56423809Y21675953D01*
X56471428Y21485477D01*
X56566666Y21390239D01*
X56661904Y21342620D01*
X56852380Y21342620D01*
X56947619Y21390239D01*
X57042857Y21485477D01*
X57090476Y21675953D01*
X57090476Y22009286D01*
X57042857Y22199762D01*
X56947619Y22295000D01*
X56852380Y22342620D01*
X56233333Y21247381D02*
X55471428Y21247381D01*
X54900000Y21866429D02*
X54757142Y21818810D01*
X54709523Y21771191D01*
X54661904Y21675953D01*
X54661904Y21533096D01*
X54709523Y21437858D01*
X54757142Y21390239D01*
X54852380Y21342620D01*
X55233333Y21342620D01*
X55233333Y22342620D01*
X54900000Y22342620D01*
X54804761Y22295000D01*
X54757142Y22247381D01*
X54709523Y22152143D01*
X54709523Y22056905D01*
X54757142Y21961667D01*
X54804761Y21914048D01*
X54900000Y21866429D01*
X55233333Y21866429D01*
X54233333Y22342620D02*
X54233333Y21533096D01*
X54185714Y21437858D01*
X54138095Y21390239D01*
X54042857Y21342620D01*
X53852380Y21342620D01*
X53757142Y21390239D01*
X53709523Y21437858D01*
X53661904Y21533096D01*
X53661904Y22342620D01*
X52852380Y21866429D02*
X53185714Y21866429D01*
X53185714Y21342620D02*
X53185714Y22342620D01*
X52709523Y22342620D01*
X95700000Y13757620D02*
X95700000Y14757620D01*
X95319047Y14757620D01*
X95223809Y14710000D01*
X95176190Y14662381D01*
X95128571Y14567143D01*
X95128571Y14424286D01*
X95176190Y14329048D01*
X95223809Y14281429D01*
X95319047Y14233810D01*
X95700000Y14233810D01*
X94271428Y13757620D02*
X94271428Y14281429D01*
X94319047Y14376667D01*
X94414285Y14424286D01*
X94604761Y14424286D01*
X94700000Y14376667D01*
X94271428Y13805239D02*
X94366666Y13757620D01*
X94604761Y13757620D01*
X94700000Y13805239D01*
X94747619Y13900477D01*
X94747619Y13995715D01*
X94700000Y14090953D01*
X94604761Y14138572D01*
X94366666Y14138572D01*
X94271428Y14186191D01*
X93795238Y14424286D02*
X93795238Y13757620D01*
X93795238Y14329048D02*
X93747619Y14376667D01*
X93652380Y14424286D01*
X93509523Y14424286D01*
X93414285Y14376667D01*
X93366666Y14281429D01*
X93366666Y13757620D01*
X92509523Y13805239D02*
X92604761Y13757620D01*
X92795238Y13757620D01*
X92890476Y13805239D01*
X92938095Y13900477D01*
X92938095Y14281429D01*
X92890476Y14376667D01*
X92795238Y14424286D01*
X92604761Y14424286D01*
X92509523Y14376667D01*
X92461904Y14281429D01*
X92461904Y14186191D01*
X92938095Y14090953D01*
X91890476Y13757620D02*
X91985714Y13805239D01*
X92033333Y13900477D01*
X92033333Y14757620D01*
X90319047Y13757620D02*
X90319047Y14757620D01*
X90319047Y13805239D02*
X90414285Y13757620D01*
X90604761Y13757620D01*
X90700000Y13805239D01*
X90747619Y13852858D01*
X90795238Y13948096D01*
X90795238Y14233810D01*
X90747619Y14329048D01*
X90700000Y14376667D01*
X90604761Y14424286D01*
X90414285Y14424286D01*
X90319047Y14376667D01*
X89461904Y13805239D02*
X89557142Y13757620D01*
X89747619Y13757620D01*
X89842857Y13805239D01*
X89890476Y13900477D01*
X89890476Y14281429D01*
X89842857Y14376667D01*
X89747619Y14424286D01*
X89557142Y14424286D01*
X89461904Y14376667D01*
X89414285Y14281429D01*
X89414285Y14186191D01*
X89890476Y14090953D01*
X89033333Y13805239D02*
X88938095Y13757620D01*
X88747619Y13757620D01*
X88652380Y13805239D01*
X88604761Y13900477D01*
X88604761Y13948096D01*
X88652380Y14043334D01*
X88747619Y14090953D01*
X88890476Y14090953D01*
X88985714Y14138572D01*
X89033333Y14233810D01*
X89033333Y14281429D01*
X88985714Y14376667D01*
X88890476Y14424286D01*
X88747619Y14424286D01*
X88652380Y14376667D01*
X88176190Y13757620D02*
X88176190Y14424286D01*
X88176190Y14757620D02*
X88223809Y14710000D01*
X88176190Y14662381D01*
X88128571Y14710000D01*
X88176190Y14757620D01*
X88176190Y14662381D01*
X87271428Y14424286D02*
X87271428Y13614762D01*
X87319047Y13519524D01*
X87366666Y13471905D01*
X87461904Y13424286D01*
X87604761Y13424286D01*
X87700000Y13471905D01*
X87271428Y13805239D02*
X87366666Y13757620D01*
X87557142Y13757620D01*
X87652380Y13805239D01*
X87700000Y13852858D01*
X87747619Y13948096D01*
X87747619Y14233810D01*
X87700000Y14329048D01*
X87652380Y14376667D01*
X87557142Y14424286D01*
X87366666Y14424286D01*
X87271428Y14376667D01*
X86795238Y14424286D02*
X86795238Y13757620D01*
X86795238Y14329048D02*
X86747619Y14376667D01*
X86652380Y14424286D01*
X86509523Y14424286D01*
X86414285Y14376667D01*
X86366666Y14281429D01*
X86366666Y13757620D01*
X85128571Y13757620D02*
X85128571Y14757620D01*
X85128571Y14376667D02*
X85033333Y14424286D01*
X84842857Y14424286D01*
X84747619Y14376667D01*
X84700000Y14329048D01*
X84652380Y14233810D01*
X84652380Y13948096D01*
X84700000Y13852858D01*
X84747619Y13805239D01*
X84842857Y13757620D01*
X85033333Y13757620D01*
X85128571Y13805239D01*
X84319047Y14424286D02*
X84080952Y13757620D01*
X83842857Y14424286D02*
X84080952Y13757620D01*
X84176190Y13519524D01*
X84223809Y13471905D01*
X84319047Y13424286D01*
X82128571Y13757620D02*
X82461904Y14233810D01*
X82700000Y13757620D02*
X82700000Y14757620D01*
X82319047Y14757620D01*
X82223809Y14710000D01*
X82176190Y14662381D01*
X82128571Y14567143D01*
X82128571Y14424286D01*
X82176190Y14329048D01*
X82223809Y14281429D01*
X82319047Y14233810D01*
X82700000Y14233810D01*
X81700000Y13757620D02*
X81700000Y14424286D01*
X81700000Y14757620D02*
X81747619Y14710000D01*
X81700000Y14662381D01*
X81652380Y14710000D01*
X81700000Y14757620D01*
X81700000Y14662381D01*
X80795238Y13805239D02*
X80890476Y13757620D01*
X81080952Y13757620D01*
X81176190Y13805239D01*
X81223809Y13852858D01*
X81271428Y13948096D01*
X81271428Y14233810D01*
X81223809Y14329048D01*
X81176190Y14376667D01*
X81080952Y14424286D01*
X80890476Y14424286D01*
X80795238Y14376667D01*
X80366666Y13757620D02*
X80366666Y14757620D01*
X79938095Y13757620D02*
X79938095Y14281429D01*
X79985714Y14376667D01*
X80080952Y14424286D01*
X80223809Y14424286D01*
X80319047Y14376667D01*
X80366666Y14329048D01*
X78700000Y13757620D02*
X78700000Y14757620D01*
X78700000Y14281429D02*
X78128571Y14281429D01*
X78128571Y13757620D02*
X78128571Y14757620D01*
X77509523Y13757620D02*
X77604761Y13805239D01*
X77652380Y13852858D01*
X77700000Y13948096D01*
X77700000Y14233810D01*
X77652380Y14329048D01*
X77604761Y14376667D01*
X77509523Y14424286D01*
X77366666Y14424286D01*
X77271428Y14376667D01*
X77223809Y14329048D01*
X77176190Y14233810D01*
X77176190Y13948096D01*
X77223809Y13852858D01*
X77271428Y13805239D01*
X77366666Y13757620D01*
X77509523Y13757620D01*
X76604761Y13757620D02*
X76700000Y13805239D01*
X76747619Y13900477D01*
X76747619Y14757620D01*
X76223809Y13757620D02*
X76223809Y14424286D01*
X76223809Y14329048D02*
X76176190Y14376667D01*
X76080952Y14424286D01*
X75938095Y14424286D01*
X75842857Y14376667D01*
X75795238Y14281429D01*
X75795238Y13757620D01*
X75795238Y14281429D02*
X75747619Y14376667D01*
X75652380Y14424286D01*
X75509523Y14424286D01*
X75414285Y14376667D01*
X75366666Y14281429D01*
X75366666Y13757620D01*
X74509523Y13805239D02*
X74604761Y13757620D01*
X74795238Y13757620D01*
X74890476Y13805239D01*
X74938095Y13900477D01*
X74938095Y14281429D01*
X74890476Y14376667D01*
X74795238Y14424286D01*
X74604761Y14424286D01*
X74509523Y14376667D01*
X74461904Y14281429D01*
X74461904Y14186191D01*
X74938095Y14090953D01*
X74080952Y13805239D02*
X73985714Y13757620D01*
X73795238Y13757620D01*
X73700000Y13805239D01*
X73652380Y13900477D01*
X73652380Y13948096D01*
X73700000Y14043334D01*
X73795238Y14090953D01*
X73938095Y14090953D01*
X74033333Y14138572D01*
X74080952Y14233810D01*
X74080952Y14281429D01*
X74033333Y14376667D01*
X73938095Y14424286D01*
X73795238Y14424286D01*
X73700000Y14376667D01*
X90747619Y12147620D02*
X91319047Y12147620D01*
X91033333Y12147620D02*
X91033333Y13147620D01*
X91128571Y13004762D01*
X91223809Y12909524D01*
X91319047Y12861905D01*
X89795238Y12147620D02*
X90366666Y12147620D01*
X90080952Y12147620D02*
X90080952Y13147620D01*
X90176190Y13004762D01*
X90271428Y12909524D01*
X90366666Y12861905D01*
X88652380Y13195239D02*
X89509523Y11909524D01*
X88366666Y13052381D02*
X88319047Y13100000D01*
X88223809Y13147620D01*
X87985714Y13147620D01*
X87890476Y13100000D01*
X87842857Y13052381D01*
X87795238Y12957143D01*
X87795238Y12861905D01*
X87842857Y12719048D01*
X88414285Y12147620D01*
X87795238Y12147620D01*
X87176190Y13147620D02*
X87080952Y13147620D01*
X86985714Y13100000D01*
X86938095Y13052381D01*
X86890476Y12957143D01*
X86842857Y12766667D01*
X86842857Y12528572D01*
X86890476Y12338096D01*
X86938095Y12242858D01*
X86985714Y12195239D01*
X87080952Y12147620D01*
X87176190Y12147620D01*
X87271428Y12195239D01*
X87319047Y12242858D01*
X87366666Y12338096D01*
X87414285Y12528572D01*
X87414285Y12766667D01*
X87366666Y12957143D01*
X87319047Y13052381D01*
X87271428Y13100000D01*
X87176190Y13147620D01*
X86461904Y13052381D02*
X86414285Y13100000D01*
X86319047Y13147620D01*
X86080952Y13147620D01*
X85985714Y13100000D01*
X85938095Y13052381D01*
X85890476Y12957143D01*
X85890476Y12861905D01*
X85938095Y12719048D01*
X86509523Y12147620D01*
X85890476Y12147620D01*
X85509523Y13052381D02*
X85461904Y13100000D01*
X85366666Y13147620D01*
X85128571Y13147620D01*
X85033333Y13100000D01*
X84985714Y13052381D01*
X84938095Y12957143D01*
X84938095Y12861905D01*
X84985714Y12719048D01*
X85557142Y12147620D01*
X84938095Y12147620D01*
X83176190Y12242858D02*
X83223809Y12195239D01*
X83366666Y12147620D01*
X83461904Y12147620D01*
X83604761Y12195239D01*
X83700000Y12290477D01*
X83747619Y12385715D01*
X83795238Y12576191D01*
X83795238Y12719048D01*
X83747619Y12909524D01*
X83700000Y13004762D01*
X83604761Y13100000D01*
X83461904Y13147620D01*
X83366666Y13147620D01*
X83223809Y13100000D01*
X83176190Y13052381D01*
X82176190Y12242858D02*
X82223809Y12195239D01*
X82366666Y12147620D01*
X82461904Y12147620D01*
X82604761Y12195239D01*
X82700000Y12290477D01*
X82747619Y12385715D01*
X82795238Y12576191D01*
X82795238Y12719048D01*
X82747619Y12909524D01*
X82700000Y13004762D01*
X82604761Y13100000D01*
X82461904Y13147620D01*
X82366666Y13147620D01*
X82223809Y13100000D01*
X82176190Y13052381D01*
X81557142Y13147620D02*
X81461904Y13147620D01*
X81366666Y13100000D01*
X81319047Y13052381D01*
X81271428Y12957143D01*
X81223809Y12766667D01*
X81223809Y12528572D01*
X81271428Y12338096D01*
X81319047Y12242858D01*
X81366666Y12195239D01*
X81461904Y12147620D01*
X81557142Y12147620D01*
X81652380Y12195239D01*
X81700000Y12242858D01*
X81747619Y12338096D01*
X81795238Y12528572D01*
X81795238Y12766667D01*
X81747619Y12957143D01*
X81700000Y13052381D01*
X81652380Y13100000D01*
X81557142Y13147620D01*
X79509523Y12147620D02*
X80080952Y12147620D01*
X79795238Y12147620D02*
X79795238Y13147620D01*
X79890476Y13004762D01*
X79985714Y12909524D01*
X80080952Y12861905D01*
X79080952Y12242858D02*
X79033333Y12195239D01*
X79080952Y12147620D01*
X79128571Y12195239D01*
X79080952Y12242858D01*
X79080952Y12147620D01*
X78414285Y13147620D02*
X78319047Y13147620D01*
X78223809Y13100000D01*
X78176190Y13052381D01*
X78128571Y12957143D01*
X78080952Y12766667D01*
X78080952Y12528572D01*
X78128571Y12338096D01*
X78176190Y12242858D01*
X78223809Y12195239D01*
X78319047Y12147620D01*
X78414285Y12147620D01*
X78509523Y12195239D01*
X78557142Y12242858D01*
X78604761Y12338096D01*
X78652380Y12528572D01*
X78652380Y12766667D01*
X78604761Y12957143D01*
X78557142Y13052381D01*
X78509523Y13100000D01*
X78414285Y13147620D01*
X89319047Y11537620D02*
X89319047Y10823334D01*
X89366666Y10680477D01*
X89461904Y10585239D01*
X89604761Y10537620D01*
X89700000Y10537620D01*
X88366666Y10537620D02*
X88842857Y10537620D01*
X88842857Y11537620D01*
X87461904Y10632858D02*
X87509523Y10585239D01*
X87652380Y10537620D01*
X87747619Y10537620D01*
X87890476Y10585239D01*
X87985714Y10680477D01*
X88033333Y10775715D01*
X88080952Y10966191D01*
X88080952Y11109048D01*
X88033333Y11299524D01*
X87985714Y11394762D01*
X87890476Y11490000D01*
X87747619Y11537620D01*
X87652380Y11537620D01*
X87509523Y11490000D01*
X87461904Y11442381D01*
X86747619Y11537620D02*
X86747619Y10823334D01*
X86795238Y10680477D01*
X86890476Y10585239D01*
X87033333Y10537620D01*
X87128571Y10537620D01*
X85795238Y10537620D02*
X86271428Y10537620D01*
X86271428Y11537620D01*
X84890476Y10632858D02*
X84938095Y10585239D01*
X85080952Y10537620D01*
X85176190Y10537620D01*
X85319047Y10585239D01*
X85414285Y10680477D01*
X85461904Y10775715D01*
X85509523Y10966191D01*
X85509523Y11109048D01*
X85461904Y11299524D01*
X85414285Y11394762D01*
X85319047Y11490000D01*
X85176190Y11537620D01*
X85080952Y11537620D01*
X84938095Y11490000D01*
X84890476Y11442381D01*
X84176190Y11537620D02*
X84176190Y10823334D01*
X84223809Y10680477D01*
X84319047Y10585239D01*
X84461904Y10537620D01*
X84557142Y10537620D01*
X83223809Y10537620D02*
X83700000Y10537620D01*
X83700000Y11537620D01*
X82319047Y10632858D02*
X82366666Y10585239D01*
X82509523Y10537620D01*
X82604761Y10537620D01*
X82747619Y10585239D01*
X82842857Y10680477D01*
X82890476Y10775715D01*
X82938095Y10966191D01*
X82938095Y11109048D01*
X82890476Y11299524D01*
X82842857Y11394762D01*
X82747619Y11490000D01*
X82604761Y11537620D01*
X82509523Y11537620D01*
X82366666Y11490000D01*
X82319047Y11442381D01*
X81604761Y11537620D02*
X81604761Y10823334D01*
X81652380Y10680477D01*
X81747619Y10585239D01*
X81890476Y10537620D01*
X81985714Y10537620D01*
X80652380Y10537620D02*
X81128571Y10537620D01*
X81128571Y11537620D01*
X79747619Y10632858D02*
X79795238Y10585239D01*
X79938095Y10537620D01*
X80033333Y10537620D01*
X80176190Y10585239D01*
X80271428Y10680477D01*
X80319047Y10775715D01*
X80366666Y10966191D01*
X80366666Y11109048D01*
X80319047Y11299524D01*
X80271428Y11394762D01*
X80176190Y11490000D01*
X80033333Y11537620D01*
X79938095Y11537620D01*
X79795238Y11490000D01*
X79747619Y11442381D01*
X125638095Y19238334D02*
X125161904Y19238334D01*
X125733333Y18952620D02*
X125400000Y19952620D01*
X125066666Y18952620D01*
X124304761Y19619286D02*
X124304761Y18952620D01*
X124733333Y19619286D02*
X124733333Y19095477D01*
X124685714Y19000239D01*
X124590476Y18952620D01*
X124447619Y18952620D01*
X124352380Y19000239D01*
X124304761Y19047858D01*
X123400000Y18952620D02*
X123400000Y19952620D01*
X123400000Y19000239D02*
X123495238Y18952620D01*
X123685714Y18952620D01*
X123780952Y19000239D01*
X123828571Y19047858D01*
X123876190Y19143096D01*
X123876190Y19428810D01*
X123828571Y19524048D01*
X123780952Y19571667D01*
X123685714Y19619286D01*
X123495238Y19619286D01*
X123400000Y19571667D01*
X122923809Y18952620D02*
X122923809Y19619286D01*
X122923809Y19952620D02*
X122971428Y19905000D01*
X122923809Y19857381D01*
X122876190Y19905000D01*
X122923809Y19952620D01*
X122923809Y19857381D01*
X122304761Y18952620D02*
X122400000Y19000239D01*
X122447619Y19047858D01*
X122495238Y19143096D01*
X122495238Y19428810D01*
X122447619Y19524048D01*
X122400000Y19571667D01*
X122304761Y19619286D01*
X122161904Y19619286D01*
X122066666Y19571667D01*
X122019047Y19524048D01*
X121971428Y19428810D01*
X121971428Y19143096D01*
X122019047Y19047858D01*
X122066666Y19000239D01*
X122161904Y18952620D01*
X122304761Y18952620D01*
X120780952Y19619286D02*
X120780952Y18762143D01*
X120828571Y18666905D01*
X120923809Y18619286D01*
X120971428Y18619286D01*
X120780952Y19952620D02*
X120828571Y19905000D01*
X120780952Y19857381D01*
X120733333Y19905000D01*
X120780952Y19952620D01*
X120780952Y19857381D01*
X119876190Y18952620D02*
X119876190Y19476429D01*
X119923809Y19571667D01*
X120019047Y19619286D01*
X120209523Y19619286D01*
X120304761Y19571667D01*
X119876190Y19000239D02*
X119971428Y18952620D01*
X120209523Y18952620D01*
X120304761Y19000239D01*
X120352380Y19095477D01*
X120352380Y19190715D01*
X120304761Y19285953D01*
X120209523Y19333572D01*
X119971428Y19333572D01*
X119876190Y19381191D01*
X118971428Y19000239D02*
X119066666Y18952620D01*
X119257142Y18952620D01*
X119352380Y19000239D01*
X119400000Y19047858D01*
X119447619Y19143096D01*
X119447619Y19428810D01*
X119400000Y19524048D01*
X119352380Y19571667D01*
X119257142Y19619286D01*
X119066666Y19619286D01*
X118971428Y19571667D01*
X118542857Y18952620D02*
X118542857Y19952620D01*
X118447619Y19333572D02*
X118161904Y18952620D01*
X118161904Y19619286D02*
X118542857Y19238334D01*
X128995238Y18009286D02*
X128614285Y18009286D01*
X128852380Y18342620D02*
X128852380Y17485477D01*
X128804761Y17390239D01*
X128709523Y17342620D01*
X128614285Y17342620D01*
X128138095Y17342620D02*
X128233333Y17390239D01*
X128280952Y17437858D01*
X128328571Y17533096D01*
X128328571Y17818810D01*
X128280952Y17914048D01*
X128233333Y17961667D01*
X128138095Y18009286D01*
X127995238Y18009286D01*
X127900000Y17961667D01*
X127852380Y17914048D01*
X127804761Y17818810D01*
X127804761Y17533096D01*
X127852380Y17437858D01*
X127900000Y17390239D01*
X127995238Y17342620D01*
X128138095Y17342620D01*
X126661904Y17628334D02*
X126185714Y17628334D01*
X126757142Y17342620D02*
X126423809Y18342620D01*
X126090476Y17342620D01*
X125757142Y18342620D02*
X125757142Y17533096D01*
X125709523Y17437858D01*
X125661904Y17390239D01*
X125566666Y17342620D01*
X125376190Y17342620D01*
X125280952Y17390239D01*
X125233333Y17437858D01*
X125185714Y17533096D01*
X125185714Y18342620D01*
X124709523Y17342620D02*
X124709523Y18342620D01*
X124471428Y18342620D01*
X124328571Y18295000D01*
X124233333Y18199762D01*
X124185714Y18104524D01*
X124138095Y17914048D01*
X124138095Y17771191D01*
X124185714Y17580715D01*
X124233333Y17485477D01*
X124328571Y17390239D01*
X124471428Y17342620D01*
X124709523Y17342620D01*
X123709523Y17342620D02*
X123709523Y18342620D01*
X123042857Y18342620D02*
X122852380Y18342620D01*
X122757142Y18295000D01*
X122661904Y18199762D01*
X122614285Y18009286D01*
X122614285Y17675953D01*
X122661904Y17485477D01*
X122757142Y17390239D01*
X122852380Y17342620D01*
X123042857Y17342620D01*
X123138095Y17390239D01*
X123233333Y17485477D01*
X123280952Y17675953D01*
X123280952Y18009286D01*
X123233333Y18199762D01*
X123138095Y18295000D01*
X123042857Y18342620D01*
X122423809Y17247381D02*
X121661904Y17247381D01*
X121566666Y18342620D02*
X120995238Y18342620D01*
X121280952Y17342620D02*
X121280952Y18342620D01*
X120661904Y17342620D02*
X120661904Y18342620D01*
X120661904Y17866429D02*
X120090476Y17866429D01*
X120090476Y17342620D02*
X120090476Y18342620D01*
X119042857Y17342620D02*
X119376190Y17818810D01*
X119614285Y17342620D02*
X119614285Y18342620D01*
X119233333Y18342620D01*
X119138095Y18295000D01*
X119090476Y18247381D01*
X119042857Y18152143D01*
X119042857Y18009286D01*
X119090476Y17914048D01*
X119138095Y17866429D01*
X119233333Y17818810D01*
X119614285Y17818810D01*
X118423809Y18342620D02*
X118233333Y18342620D01*
X118138095Y18295000D01*
X118042857Y18199762D01*
X117995238Y18009286D01*
X117995238Y17675953D01*
X118042857Y17485477D01*
X118138095Y17390239D01*
X118233333Y17342620D01*
X118423809Y17342620D01*
X118519047Y17390239D01*
X118614285Y17485477D01*
X118661904Y17675953D01*
X118661904Y18009286D01*
X118614285Y18199762D01*
X118519047Y18295000D01*
X118423809Y18342620D01*
X117566666Y18342620D02*
X117566666Y17533096D01*
X117519047Y17437858D01*
X117471428Y17390239D01*
X117376190Y17342620D01*
X117185714Y17342620D01*
X117090476Y17390239D01*
X117042857Y17437858D01*
X116995238Y17533096D01*
X116995238Y18342620D01*
X115995238Y18295000D02*
X116090476Y18342620D01*
X116233333Y18342620D01*
X116376190Y18295000D01*
X116471428Y18199762D01*
X116519047Y18104524D01*
X116566666Y17914048D01*
X116566666Y17771191D01*
X116519047Y17580715D01*
X116471428Y17485477D01*
X116376190Y17390239D01*
X116233333Y17342620D01*
X116138095Y17342620D01*
X115995238Y17390239D01*
X115947619Y17437858D01*
X115947619Y17771191D01*
X116138095Y17771191D01*
X115519047Y17342620D02*
X115519047Y18342620D01*
X115519047Y17866429D02*
X114947619Y17866429D01*
X114947619Y17342620D02*
X114947619Y18342620D01*
X48757142Y19476429D02*
X48614285Y19428810D01*
X48566666Y19381191D01*
X48519047Y19285953D01*
X48519047Y19143096D01*
X48566666Y19047858D01*
X48614285Y19000239D01*
X48709523Y18952620D01*
X49090476Y18952620D01*
X49090476Y19952620D01*
X48757142Y19952620D01*
X48661904Y19905000D01*
X48614285Y19857381D01*
X48566666Y19762143D01*
X48566666Y19666905D01*
X48614285Y19571667D01*
X48661904Y19524048D01*
X48757142Y19476429D01*
X49090476Y19476429D01*
X48090476Y18952620D02*
X48090476Y19952620D01*
X47519047Y18952620D01*
X47519047Y19952620D01*
X46471428Y19047858D02*
X46519047Y19000239D01*
X46661904Y18952620D01*
X46757142Y18952620D01*
X46900000Y19000239D01*
X46995238Y19095477D01*
X47042857Y19190715D01*
X47090476Y19381191D01*
X47090476Y19524048D01*
X47042857Y19714524D01*
X46995238Y19809762D01*
X46900000Y19905000D01*
X46757142Y19952620D01*
X46661904Y19952620D01*
X46519047Y19905000D01*
X46471428Y19857381D01*
X45280952Y19619286D02*
X45280952Y18762143D01*
X45328571Y18666905D01*
X45423809Y18619286D01*
X45471428Y18619286D01*
X45280952Y19952620D02*
X45328571Y19905000D01*
X45280952Y19857381D01*
X45233333Y19905000D01*
X45280952Y19952620D01*
X45280952Y19857381D01*
X44376190Y18952620D02*
X44376190Y19476429D01*
X44423809Y19571667D01*
X44519047Y19619286D01*
X44709523Y19619286D01*
X44804761Y19571667D01*
X44376190Y19000239D02*
X44471428Y18952620D01*
X44709523Y18952620D01*
X44804761Y19000239D01*
X44852380Y19095477D01*
X44852380Y19190715D01*
X44804761Y19285953D01*
X44709523Y19333572D01*
X44471428Y19333572D01*
X44376190Y19381191D01*
X43471428Y19000239D02*
X43566666Y18952620D01*
X43757142Y18952620D01*
X43852380Y19000239D01*
X43900000Y19047858D01*
X43947619Y19143096D01*
X43947619Y19428810D01*
X43900000Y19524048D01*
X43852380Y19571667D01*
X43757142Y19619286D01*
X43566666Y19619286D01*
X43471428Y19571667D01*
X43042857Y18952620D02*
X43042857Y19952620D01*
X42947619Y19333572D02*
X42661904Y18952620D01*
X42661904Y19619286D02*
X43042857Y19238334D01*
X49257142Y18009286D02*
X48876190Y18009286D01*
X49114285Y18342620D02*
X49114285Y17485477D01*
X49066666Y17390239D01*
X48971428Y17342620D01*
X48876190Y17342620D01*
X48400000Y17342620D02*
X48495238Y17390239D01*
X48542857Y17437858D01*
X48590476Y17533096D01*
X48590476Y17818810D01*
X48542857Y17914048D01*
X48495238Y17961667D01*
X48400000Y18009286D01*
X48257142Y18009286D01*
X48161904Y17961667D01*
X48114285Y17914048D01*
X48066666Y17818810D01*
X48066666Y17533096D01*
X48114285Y17437858D01*
X48161904Y17390239D01*
X48257142Y17342620D01*
X48400000Y17342620D01*
X46923809Y17390239D02*
X46828571Y17342620D01*
X46638095Y17342620D01*
X46542857Y17390239D01*
X46495238Y17485477D01*
X46495238Y17533096D01*
X46542857Y17628334D01*
X46638095Y17675953D01*
X46780952Y17675953D01*
X46876190Y17723572D01*
X46923809Y17818810D01*
X46923809Y17866429D01*
X46876190Y17961667D01*
X46780952Y18009286D01*
X46638095Y18009286D01*
X46542857Y17961667D01*
X46161904Y18009286D02*
X45971428Y17342620D01*
X45780952Y17818810D01*
X45590476Y17342620D01*
X45399999Y18009286D01*
X45019047Y17342620D02*
X45019047Y18009286D01*
X45019047Y18342620D02*
X45066666Y18295000D01*
X45019047Y18247381D01*
X44971428Y18295000D01*
X45019047Y18342620D01*
X45019047Y18247381D01*
X44685714Y18009286D02*
X44304761Y18009286D01*
X44542857Y18342620D02*
X44542857Y17485477D01*
X44495238Y17390239D01*
X44399999Y17342620D01*
X44304761Y17342620D01*
X43542857Y17390239D02*
X43638095Y17342620D01*
X43828571Y17342620D01*
X43923809Y17390239D01*
X43971428Y17437858D01*
X44019047Y17533096D01*
X44019047Y17818810D01*
X43971428Y17914048D01*
X43923809Y17961667D01*
X43828571Y18009286D01*
X43638095Y18009286D01*
X43542857Y17961667D01*
X43114285Y17342620D02*
X43114285Y18342620D01*
X42685714Y17342620D02*
X42685714Y17866429D01*
X42733333Y17961667D01*
X42828571Y18009286D01*
X42971428Y18009286D01*
X43066666Y17961667D01*
X43114285Y17914048D01*
X37252619Y152909524D02*
X38252619Y152909524D01*
X38252619Y153290477D01*
X38205000Y153385715D01*
X38157380Y153433334D01*
X38062142Y153480953D01*
X37919285Y153480953D01*
X37824047Y153433334D01*
X37776428Y153385715D01*
X37728809Y153290477D01*
X37728809Y152909524D01*
X37252619Y154052381D02*
X37300238Y153957143D01*
X37347857Y153909524D01*
X37443095Y153861905D01*
X37728809Y153861905D01*
X37824047Y153909524D01*
X37871666Y153957143D01*
X37919285Y154052381D01*
X37919285Y154195239D01*
X37871666Y154290477D01*
X37824047Y154338096D01*
X37728809Y154385715D01*
X37443095Y154385715D01*
X37347857Y154338096D01*
X37300238Y154290477D01*
X37252619Y154195239D01*
X37252619Y154052381D01*
X37919285Y154719048D02*
X37252619Y154909524D01*
X37728809Y155100000D01*
X37252619Y155290477D01*
X37919285Y155480953D01*
X37300238Y156242858D02*
X37252619Y156147620D01*
X37252619Y155957143D01*
X37300238Y155861905D01*
X37395476Y155814286D01*
X37776428Y155814286D01*
X37871666Y155861905D01*
X37919285Y155957143D01*
X37919285Y156147620D01*
X37871666Y156242858D01*
X37776428Y156290477D01*
X37681190Y156290477D01*
X37585952Y155814286D01*
X37252619Y156719048D02*
X37919285Y156719048D01*
X37728809Y156719048D02*
X37824047Y156766667D01*
X37871666Y156814286D01*
X37919285Y156909524D01*
X37919285Y157004762D01*
X37300238Y158052381D02*
X37252619Y158147620D01*
X37252619Y158338096D01*
X37300238Y158433334D01*
X37395476Y158480953D01*
X37443095Y158480953D01*
X37538333Y158433334D01*
X37585952Y158338096D01*
X37585952Y158195239D01*
X37633571Y158100000D01*
X37728809Y158052381D01*
X37776428Y158052381D01*
X37871666Y158100000D01*
X37919285Y158195239D01*
X37919285Y158338096D01*
X37871666Y158433334D01*
X37919285Y158814286D02*
X37252619Y159004762D01*
X37728809Y159195239D01*
X37252619Y159385715D01*
X37919285Y159576191D01*
X37252619Y159957143D02*
X37919285Y159957143D01*
X38252619Y159957143D02*
X38205000Y159909524D01*
X38157380Y159957143D01*
X38205000Y160004762D01*
X38252619Y159957143D01*
X38157380Y159957143D01*
X37919285Y160290477D02*
X37919285Y160671429D01*
X38252619Y160433334D02*
X37395476Y160433334D01*
X37300238Y160480953D01*
X37252619Y160576191D01*
X37252619Y160671429D01*
X37300238Y161433334D02*
X37252619Y161338096D01*
X37252619Y161147620D01*
X37300238Y161052381D01*
X37347857Y161004762D01*
X37443095Y160957143D01*
X37728809Y160957143D01*
X37824047Y161004762D01*
X37871666Y161052381D01*
X37919285Y161147620D01*
X37919285Y161338096D01*
X37871666Y161433334D01*
X37252619Y161861905D02*
X38252619Y161861905D01*
X37252619Y162290477D02*
X37776428Y162290477D01*
X37871666Y162242858D01*
X37919285Y162147620D01*
X37919285Y162004762D01*
X37871666Y161909524D01*
X37824047Y161861905D01*
X36309285Y147647620D02*
X36309285Y148028572D01*
X36642619Y147790477D02*
X35785476Y147790477D01*
X35690238Y147838096D01*
X35642619Y147933334D01*
X35642619Y148028572D01*
X35642619Y148504762D02*
X35690238Y148409524D01*
X35737857Y148361905D01*
X35833095Y148314286D01*
X36118809Y148314286D01*
X36214047Y148361905D01*
X36261666Y148409524D01*
X36309285Y148504762D01*
X36309285Y148647620D01*
X36261666Y148742858D01*
X36214047Y148790477D01*
X36118809Y148838096D01*
X35833095Y148838096D01*
X35737857Y148790477D01*
X35690238Y148742858D01*
X35642619Y148647620D01*
X35642619Y148504762D01*
X35642619Y150076191D02*
X35642619Y150266667D01*
X35690238Y150361905D01*
X35737857Y150409524D01*
X35880714Y150504762D01*
X36071190Y150552381D01*
X36452142Y150552381D01*
X36547380Y150504762D01*
X36595000Y150457143D01*
X36642619Y150361905D01*
X36642619Y150171429D01*
X36595000Y150076191D01*
X36547380Y150028572D01*
X36452142Y149980953D01*
X36214047Y149980953D01*
X36118809Y150028572D01*
X36071190Y150076191D01*
X36023571Y150171429D01*
X36023571Y150361905D01*
X36071190Y150457143D01*
X36118809Y150504762D01*
X36214047Y150552381D01*
X36642619Y150838096D02*
X35642619Y151171429D01*
X36642619Y151504762D01*
X35642619Y152600000D02*
X36309285Y152600000D01*
X36214047Y152600000D02*
X36261666Y152647620D01*
X36309285Y152742858D01*
X36309285Y152885715D01*
X36261666Y152980953D01*
X36166428Y153028572D01*
X35642619Y153028572D01*
X36166428Y153028572D02*
X36261666Y153076191D01*
X36309285Y153171429D01*
X36309285Y153314286D01*
X36261666Y153409524D01*
X36166428Y153457143D01*
X35642619Y153457143D01*
X35642619Y154361905D02*
X36166428Y154361905D01*
X36261666Y154314286D01*
X36309285Y154219048D01*
X36309285Y154028572D01*
X36261666Y153933334D01*
X35690238Y154361905D02*
X35642619Y154266667D01*
X35642619Y154028572D01*
X35690238Y153933334D01*
X35785476Y153885715D01*
X35880714Y153885715D01*
X35975952Y153933334D01*
X36023571Y154028572D01*
X36023571Y154266667D01*
X36071190Y154361905D01*
X35642619Y154838096D02*
X36309285Y154838096D01*
X36642619Y154838096D02*
X36595000Y154790477D01*
X36547380Y154838096D01*
X36595000Y154885715D01*
X36642619Y154838096D01*
X36547380Y154838096D01*
X36309285Y155314286D02*
X35642619Y155314286D01*
X36214047Y155314286D02*
X36261666Y155361905D01*
X36309285Y155457143D01*
X36309285Y155600000D01*
X36261666Y155695239D01*
X36166428Y155742858D01*
X35642619Y155742858D01*
X36690238Y157695239D02*
X35404523Y156838096D01*
X35642619Y158838096D02*
X35642619Y159028572D01*
X35690238Y159123810D01*
X35737857Y159171429D01*
X35880714Y159266667D01*
X36071190Y159314286D01*
X36452142Y159314286D01*
X36547380Y159266667D01*
X36595000Y159219048D01*
X36642619Y159123810D01*
X36642619Y158933334D01*
X36595000Y158838096D01*
X36547380Y158790477D01*
X36452142Y158742858D01*
X36214047Y158742858D01*
X36118809Y158790477D01*
X36071190Y158838096D01*
X36023571Y158933334D01*
X36023571Y159123810D01*
X36071190Y159219048D01*
X36118809Y159266667D01*
X36214047Y159314286D01*
X36642619Y159600000D02*
X35642619Y159933334D01*
X36642619Y160266667D01*
X35642619Y161790477D02*
X36642619Y161790477D01*
X35690238Y161790477D02*
X35642619Y161695239D01*
X35642619Y161504762D01*
X35690238Y161409524D01*
X35737857Y161361905D01*
X35833095Y161314286D01*
X36118809Y161314286D01*
X36214047Y161361905D01*
X36261666Y161409524D01*
X36309285Y161504762D01*
X36309285Y161695239D01*
X36261666Y161790477D01*
X35642619Y162695239D02*
X36166428Y162695239D01*
X36261666Y162647620D01*
X36309285Y162552381D01*
X36309285Y162361905D01*
X36261666Y162266667D01*
X35690238Y162695239D02*
X35642619Y162600000D01*
X35642619Y162361905D01*
X35690238Y162266667D01*
X35785476Y162219048D01*
X35880714Y162219048D01*
X35975952Y162266667D01*
X36023571Y162361905D01*
X36023571Y162600000D01*
X36071190Y162695239D01*
X36309285Y163600000D02*
X35642619Y163600000D01*
X36309285Y163171429D02*
X35785476Y163171429D01*
X35690238Y163219048D01*
X35642619Y163314286D01*
X35642619Y163457143D01*
X35690238Y163552381D01*
X35737857Y163600000D01*
X36690238Y165552381D02*
X35404523Y164695239D01*
X36023571Y166647620D02*
X36023571Y167409524D01*
X87638095Y19238334D02*
X87161904Y19238334D01*
X87733333Y18952620D02*
X87400000Y19952620D01*
X87066666Y18952620D01*
X86304761Y19619286D02*
X86304761Y18952620D01*
X86733333Y19619286D02*
X86733333Y19095477D01*
X86685714Y19000239D01*
X86590476Y18952620D01*
X86447619Y18952620D01*
X86352380Y19000239D01*
X86304761Y19047858D01*
X85400000Y18952620D02*
X85400000Y19952620D01*
X85400000Y19000239D02*
X85495238Y18952620D01*
X85685714Y18952620D01*
X85780952Y19000239D01*
X85828571Y19047858D01*
X85876190Y19143096D01*
X85876190Y19428810D01*
X85828571Y19524048D01*
X85780952Y19571667D01*
X85685714Y19619286D01*
X85495238Y19619286D01*
X85400000Y19571667D01*
X84923809Y18952620D02*
X84923809Y19619286D01*
X84923809Y19952620D02*
X84971428Y19905000D01*
X84923809Y19857381D01*
X84876190Y19905000D01*
X84923809Y19952620D01*
X84923809Y19857381D01*
X84304761Y18952620D02*
X84400000Y19000239D01*
X84447619Y19047858D01*
X84495238Y19143096D01*
X84495238Y19428810D01*
X84447619Y19524048D01*
X84400000Y19571667D01*
X84304761Y19619286D01*
X84161904Y19619286D01*
X84066666Y19571667D01*
X84019047Y19524048D01*
X83971428Y19428810D01*
X83971428Y19143096D01*
X84019047Y19047858D01*
X84066666Y19000239D01*
X84161904Y18952620D01*
X84304761Y18952620D01*
X82780952Y19619286D02*
X82780952Y18762143D01*
X82828571Y18666905D01*
X82923809Y18619286D01*
X82971428Y18619286D01*
X82780952Y19952620D02*
X82828571Y19905000D01*
X82780952Y19857381D01*
X82733333Y19905000D01*
X82780952Y19952620D01*
X82780952Y19857381D01*
X81876190Y18952620D02*
X81876190Y19476429D01*
X81923809Y19571667D01*
X82019047Y19619286D01*
X82209523Y19619286D01*
X82304761Y19571667D01*
X81876190Y19000239D02*
X81971428Y18952620D01*
X82209523Y18952620D01*
X82304761Y19000239D01*
X82352380Y19095477D01*
X82352380Y19190715D01*
X82304761Y19285953D01*
X82209523Y19333572D01*
X81971428Y19333572D01*
X81876190Y19381191D01*
X80971428Y19000239D02*
X81066666Y18952620D01*
X81257142Y18952620D01*
X81352380Y19000239D01*
X81400000Y19047858D01*
X81447619Y19143096D01*
X81447619Y19428810D01*
X81400000Y19524048D01*
X81352380Y19571667D01*
X81257142Y19619286D01*
X81066666Y19619286D01*
X80971428Y19571667D01*
X80542857Y18952620D02*
X80542857Y19952620D01*
X80447619Y19333572D02*
X80161904Y18952620D01*
X80161904Y19619286D02*
X80542857Y19238334D01*
X88280952Y18009286D02*
X87900000Y18009286D01*
X88138095Y18342620D02*
X88138095Y17485477D01*
X88090476Y17390239D01*
X87995238Y17342620D01*
X87900000Y17342620D01*
X87423809Y17342620D02*
X87519047Y17390239D01*
X87566666Y17437858D01*
X87614285Y17533096D01*
X87614285Y17818810D01*
X87566666Y17914048D01*
X87519047Y17961667D01*
X87423809Y18009286D01*
X87280952Y18009286D01*
X87185714Y17961667D01*
X87138095Y17914048D01*
X87090476Y17818810D01*
X87090476Y17533096D01*
X87138095Y17437858D01*
X87185714Y17390239D01*
X87280952Y17342620D01*
X87423809Y17342620D01*
X85947619Y17628334D02*
X85471428Y17628334D01*
X86042857Y17342620D02*
X85709523Y18342620D01*
X85376190Y17342620D01*
X85042857Y18342620D02*
X85042857Y17533096D01*
X84995238Y17437858D01*
X84947619Y17390239D01*
X84852380Y17342620D01*
X84661904Y17342620D01*
X84566666Y17390239D01*
X84519047Y17437858D01*
X84471428Y17533096D01*
X84471428Y18342620D01*
X83995238Y17342620D02*
X83995238Y18342620D01*
X83757142Y18342620D01*
X83614285Y18295000D01*
X83519047Y18199762D01*
X83471428Y18104524D01*
X83423809Y17914048D01*
X83423809Y17771191D01*
X83471428Y17580715D01*
X83519047Y17485477D01*
X83614285Y17390239D01*
X83757142Y17342620D01*
X83995238Y17342620D01*
X82995238Y17342620D02*
X82995238Y18342620D01*
X82328571Y18342620D02*
X82138095Y18342620D01*
X82042857Y18295000D01*
X81947619Y18199762D01*
X81900000Y18009286D01*
X81900000Y17675953D01*
X81947619Y17485477D01*
X82042857Y17390239D01*
X82138095Y17342620D01*
X82328571Y17342620D01*
X82423809Y17390239D01*
X82519047Y17485477D01*
X82566666Y17675953D01*
X82566666Y18009286D01*
X82519047Y18199762D01*
X82423809Y18295000D01*
X82328571Y18342620D01*
X81709523Y17247381D02*
X80947619Y17247381D01*
X80709523Y17342620D02*
X80709523Y18342620D01*
X80233333Y17342620D02*
X80233333Y18342620D01*
X79661904Y17342620D01*
X79661904Y18342620D01*
G04 #@! TO.C,GRAF3*
G36*
X75014239Y11309698D02*
G01*
X74951194Y11085750D01*
X74852401Y10873057D01*
X74718861Y10674527D01*
X74551575Y10493065D01*
X74550519Y10492078D01*
X74372932Y10350072D01*
X74174960Y10234097D01*
X73965147Y10148385D01*
X73752036Y10097165D01*
X73692831Y10090350D01*
X73561804Y10085460D01*
X73417661Y10090156D01*
X73276333Y10103688D01*
X73153751Y10125308D01*
X73011382Y10167096D01*
X72800450Y10260683D01*
X72604617Y10385872D01*
X72428345Y10538596D01*
X72276092Y10714788D01*
X72152320Y10910381D01*
X72061488Y11121308D01*
X72041101Y11185328D01*
X72026685Y11242145D01*
X72017274Y11300745D01*
X72011786Y11370450D01*
X72009141Y11460582D01*
X72008257Y11580462D01*
X72008456Y11600000D01*
X72264724Y11600000D01*
X72270085Y11439532D01*
X72293839Y11279846D01*
X72339983Y11134843D01*
X72412259Y10993186D01*
X72514407Y10843543D01*
X72584202Y10761585D01*
X72719642Y10639701D01*
X72876986Y10532760D01*
X73045852Y10447466D01*
X73215852Y10390528D01*
X73258637Y10381938D01*
X73340787Y10370552D01*
X73433045Y10361869D01*
X73523233Y10356736D01*
X73599174Y10355996D01*
X73648692Y10360495D01*
X73671304Y10365415D01*
X73727822Y10377061D01*
X73795231Y10390473D01*
X73811196Y10394010D01*
X73886608Y10416680D01*
X73976119Y10450105D01*
X74063640Y10488414D01*
X74085539Y10499184D01*
X74261307Y10609053D01*
X74418836Y10749446D01*
X74553427Y10914701D01*
X74660380Y11099157D01*
X74734995Y11297154D01*
X74748612Y11361948D01*
X74760389Y11480220D01*
X74762601Y11613629D01*
X74755631Y11748830D01*
X74739862Y11872479D01*
X74715676Y11971231D01*
X74670203Y12084902D01*
X74567892Y12269200D01*
X74439315Y12434985D01*
X74289038Y12578174D01*
X74121627Y12694685D01*
X73941649Y12780435D01*
X73753669Y12831343D01*
X73659944Y12842644D01*
X73517025Y12847316D01*
X73370736Y12840097D01*
X73234844Y12821816D01*
X73123114Y12793304D01*
X73057005Y12768227D01*
X72856439Y12665990D01*
X72680224Y12533990D01*
X72530477Y12374366D01*
X72409318Y12189261D01*
X72318866Y11980813D01*
X72304547Y11937020D01*
X72284761Y11864156D01*
X72272805Y11792678D01*
X72266764Y11709115D01*
X72264724Y11600000D01*
X72008456Y11600000D01*
X72009665Y11718713D01*
X72016892Y11849886D01*
X72031999Y11960933D01*
X72056951Y12061868D01*
X72093712Y12162705D01*
X72144249Y12273459D01*
X72157089Y12299156D01*
X72281589Y12501304D01*
X72433628Y12678271D01*
X72609636Y12828177D01*
X72806042Y12949139D01*
X73019275Y13039275D01*
X73245762Y13096705D01*
X73481934Y13119547D01*
X73724219Y13105919D01*
X73752752Y13101896D01*
X73978478Y13051842D01*
X74183837Y12970769D01*
X74374249Y12856065D01*
X74555132Y12705115D01*
X74584913Y12676060D01*
X74745439Y12492109D01*
X74870059Y12295081D01*
X74960541Y12081714D01*
X75018648Y11848748D01*
X75029080Y11779741D01*
X75037084Y11613629D01*
X75040535Y11541997D01*
X75014239Y11309698D01*
G37*
D11*
X75014239Y11309698D02*
X74951194Y11085750D01*
X74852401Y10873057D01*
X74718861Y10674527D01*
X74551575Y10493065D01*
X74550519Y10492078D01*
X74372932Y10350072D01*
X74174960Y10234097D01*
X73965147Y10148385D01*
X73752036Y10097165D01*
X73692831Y10090350D01*
X73561804Y10085460D01*
X73417661Y10090156D01*
X73276333Y10103688D01*
X73153751Y10125308D01*
X73011382Y10167096D01*
X72800450Y10260683D01*
X72604617Y10385872D01*
X72428345Y10538596D01*
X72276092Y10714788D01*
X72152320Y10910381D01*
X72061488Y11121308D01*
X72041101Y11185328D01*
X72026685Y11242145D01*
X72017274Y11300745D01*
X72011786Y11370450D01*
X72009141Y11460582D01*
X72008257Y11580462D01*
X72008456Y11600000D01*
X72264724Y11600000D01*
X72270085Y11439532D01*
X72293839Y11279846D01*
X72339983Y11134843D01*
X72412259Y10993186D01*
X72514407Y10843543D01*
X72584202Y10761585D01*
X72719642Y10639701D01*
X72876986Y10532760D01*
X73045852Y10447466D01*
X73215852Y10390528D01*
X73258637Y10381938D01*
X73340787Y10370552D01*
X73433045Y10361869D01*
X73523233Y10356736D01*
X73599174Y10355996D01*
X73648692Y10360495D01*
X73671304Y10365415D01*
X73727822Y10377061D01*
X73795231Y10390473D01*
X73811196Y10394010D01*
X73886608Y10416680D01*
X73976119Y10450105D01*
X74063640Y10488414D01*
X74085539Y10499184D01*
X74261307Y10609053D01*
X74418836Y10749446D01*
X74553427Y10914701D01*
X74660380Y11099157D01*
X74734995Y11297154D01*
X74748612Y11361948D01*
X74760389Y11480220D01*
X74762601Y11613629D01*
X74755631Y11748830D01*
X74739862Y11872479D01*
X74715676Y11971231D01*
X74670203Y12084902D01*
X74567892Y12269200D01*
X74439315Y12434985D01*
X74289038Y12578174D01*
X74121627Y12694685D01*
X73941649Y12780435D01*
X73753669Y12831343D01*
X73659944Y12842644D01*
X73517025Y12847316D01*
X73370736Y12840097D01*
X73234844Y12821816D01*
X73123114Y12793304D01*
X73057005Y12768227D01*
X72856439Y12665990D01*
X72680224Y12533990D01*
X72530477Y12374366D01*
X72409318Y12189261D01*
X72318866Y11980813D01*
X72304547Y11937020D01*
X72284761Y11864156D01*
X72272805Y11792678D01*
X72266764Y11709115D01*
X72264724Y11600000D01*
X72008456Y11600000D01*
X72009665Y11718713D01*
X72016892Y11849886D01*
X72031999Y11960933D01*
X72056951Y12061868D01*
X72093712Y12162705D01*
X72144249Y12273459D01*
X72157089Y12299156D01*
X72281589Y12501304D01*
X72433628Y12678271D01*
X72609636Y12828177D01*
X72806042Y12949139D01*
X73019275Y13039275D01*
X73245762Y13096705D01*
X73481934Y13119547D01*
X73724219Y13105919D01*
X73752752Y13101896D01*
X73978478Y13051842D01*
X74183837Y12970769D01*
X74374249Y12856065D01*
X74555132Y12705115D01*
X74584913Y12676060D01*
X74745439Y12492109D01*
X74870059Y12295081D01*
X74960541Y12081714D01*
X75018648Y11848748D01*
X75029080Y11779741D01*
X75037084Y11613629D01*
X75040535Y11541997D01*
X75014239Y11309698D01*
G36*
X70742941Y10977745D02*
G01*
X70652785Y10872566D01*
X70609094Y10834515D01*
X70546195Y10788905D01*
X70484600Y10760219D01*
X70409283Y10740295D01*
X70331329Y10731033D01*
X70218276Y10733381D01*
X70105941Y10749724D01*
X70012792Y10778294D01*
X69966924Y10801654D01*
X69860509Y10885658D01*
X69773289Y11001809D01*
X69706600Y11148036D01*
X69661779Y11322268D01*
X69649484Y11398644D01*
X69636482Y11536518D01*
X69637998Y11652198D01*
X69989697Y11652198D01*
X69992197Y11541157D01*
X70001250Y11426641D01*
X70015890Y11322777D01*
X70035151Y11243692D01*
X70045795Y11217091D01*
X70083099Y11151207D01*
X70125245Y11102038D01*
X70158571Y11079666D01*
X70225111Y11056996D01*
X70293708Y11054069D01*
X70354685Y11069342D01*
X70398366Y11101269D01*
X70415077Y11148306D01*
X70414629Y11150679D01*
X70401331Y11180640D01*
X70371760Y11237632D01*
X70328881Y11316202D01*
X70275656Y11410896D01*
X70215052Y11516262D01*
X70015027Y11860298D01*
X69998892Y11774111D01*
X69994716Y11745638D01*
X69989697Y11652198D01*
X69637998Y11652198D01*
X69638268Y11672822D01*
X69654570Y11826536D01*
X69672779Y11931117D01*
X69715128Y12074566D01*
X70172053Y12074566D01*
X70176125Y12046033D01*
X70190655Y12005094D01*
X70217835Y11946344D01*
X70259859Y11864381D01*
X70318921Y11753804D01*
X70367438Y11663737D01*
X70424124Y11558955D01*
X70465921Y11483836D01*
X70495189Y11435670D01*
X70514288Y11411746D01*
X70525578Y11409355D01*
X70531418Y11425788D01*
X70534167Y11458334D01*
X70536185Y11504284D01*
X70538146Y11565016D01*
X70533451Y11727314D01*
X70514163Y11867465D01*
X70481276Y11981603D01*
X70435785Y12065864D01*
X70378683Y12116383D01*
X70344564Y12131648D01*
X70272173Y12147355D01*
X70214080Y12136803D01*
X70178145Y12100611D01*
X70176246Y12096092D01*
X70172053Y12074566D01*
X69715128Y12074566D01*
X69722002Y12097849D01*
X69792347Y12233030D01*
X69884604Y12338004D01*
X69999562Y12414116D01*
X70058500Y12440803D01*
X70116567Y12458563D01*
X70181189Y12466259D01*
X70268539Y12467075D01*
X70379434Y12460181D01*
X70479519Y12437758D01*
X70566009Y12395416D01*
X70651492Y12328604D01*
X70699538Y12279494D01*
X70782214Y12155661D01*
X70840721Y12002862D01*
X70875312Y11820322D01*
X70886238Y11607269D01*
X70884805Y11565016D01*
X70881480Y11466959D01*
X70856836Y11273517D01*
X70821390Y11148306D01*
X70810807Y11110920D01*
X70742941Y10977745D01*
G37*
X70742941Y10977745D02*
X70652785Y10872566D01*
X70609094Y10834515D01*
X70546195Y10788905D01*
X70484600Y10760219D01*
X70409283Y10740295D01*
X70331329Y10731033D01*
X70218276Y10733381D01*
X70105941Y10749724D01*
X70012792Y10778294D01*
X69966924Y10801654D01*
X69860509Y10885658D01*
X69773289Y11001809D01*
X69706600Y11148036D01*
X69661779Y11322268D01*
X69649484Y11398644D01*
X69636482Y11536518D01*
X69637998Y11652198D01*
X69989697Y11652198D01*
X69992197Y11541157D01*
X70001250Y11426641D01*
X70015890Y11322777D01*
X70035151Y11243692D01*
X70045795Y11217091D01*
X70083099Y11151207D01*
X70125245Y11102038D01*
X70158571Y11079666D01*
X70225111Y11056996D01*
X70293708Y11054069D01*
X70354685Y11069342D01*
X70398366Y11101269D01*
X70415077Y11148306D01*
X70414629Y11150679D01*
X70401331Y11180640D01*
X70371760Y11237632D01*
X70328881Y11316202D01*
X70275656Y11410896D01*
X70215052Y11516262D01*
X70015027Y11860298D01*
X69998892Y11774111D01*
X69994716Y11745638D01*
X69989697Y11652198D01*
X69637998Y11652198D01*
X69638268Y11672822D01*
X69654570Y11826536D01*
X69672779Y11931117D01*
X69715128Y12074566D01*
X70172053Y12074566D01*
X70176125Y12046033D01*
X70190655Y12005094D01*
X70217835Y11946344D01*
X70259859Y11864381D01*
X70318921Y11753804D01*
X70367438Y11663737D01*
X70424124Y11558955D01*
X70465921Y11483836D01*
X70495189Y11435670D01*
X70514288Y11411746D01*
X70525578Y11409355D01*
X70531418Y11425788D01*
X70534167Y11458334D01*
X70536185Y11504284D01*
X70538146Y11565016D01*
X70533451Y11727314D01*
X70514163Y11867465D01*
X70481276Y11981603D01*
X70435785Y12065864D01*
X70378683Y12116383D01*
X70344564Y12131648D01*
X70272173Y12147355D01*
X70214080Y12136803D01*
X70178145Y12100611D01*
X70176246Y12096092D01*
X70172053Y12074566D01*
X69715128Y12074566D01*
X69722002Y12097849D01*
X69792347Y12233030D01*
X69884604Y12338004D01*
X69999562Y12414116D01*
X70058500Y12440803D01*
X70116567Y12458563D01*
X70181189Y12466259D01*
X70268539Y12467075D01*
X70379434Y12460181D01*
X70479519Y12437758D01*
X70566009Y12395416D01*
X70651492Y12328604D01*
X70699538Y12279494D01*
X70782214Y12155661D01*
X70840721Y12002862D01*
X70875312Y11820322D01*
X70886238Y11607269D01*
X70884805Y11565016D01*
X70881480Y11466959D01*
X70856836Y11273517D01*
X70821390Y11148306D01*
X70810807Y11110920D01*
X70742941Y10977745D01*
G36*
X73135087Y12062447D02*
G01*
X73239475Y12032072D01*
X73264117Y12019804D01*
X73361800Y11945922D01*
X73436905Y11845772D01*
X73485124Y11726514D01*
X73502154Y11595306D01*
X73488536Y11471655D01*
X73442881Y11351809D01*
X73367214Y11253859D01*
X73263723Y11181605D01*
X73180352Y11149063D01*
X73048419Y11131507D01*
X72909070Y11152208D01*
X72886973Y11160330D01*
X72831448Y11191053D01*
X72771639Y11233759D01*
X72717095Y11280601D01*
X72677365Y11323728D01*
X72662000Y11355291D01*
X72664706Y11362751D01*
X72692090Y11387699D01*
X72739444Y11414065D01*
X72816888Y11448987D01*
X72886663Y11387725D01*
X72906578Y11371594D01*
X72984451Y11332327D01*
X73059213Y11328155D01*
X73125937Y11356004D01*
X73179697Y11412803D01*
X73215565Y11495480D01*
X73228616Y11600962D01*
X73228177Y11623042D01*
X73210986Y11728382D01*
X73170310Y11807135D01*
X73108245Y11856466D01*
X73026890Y11873539D01*
X72973913Y11860146D01*
X72913678Y11824964D01*
X72864922Y11778217D01*
X72858361Y11770720D01*
X72838765Y11763009D01*
X72806758Y11772940D01*
X72752388Y11802677D01*
X72740859Y11809511D01*
X72693686Y11841428D01*
X72675227Y11865623D01*
X72679557Y11889126D01*
X72725953Y11949289D01*
X72808378Y12008030D01*
X72910240Y12048053D01*
X73022242Y12066983D01*
X73135087Y12062447D01*
G37*
X73135087Y12062447D02*
X73239475Y12032072D01*
X73264117Y12019804D01*
X73361800Y11945922D01*
X73436905Y11845772D01*
X73485124Y11726514D01*
X73502154Y11595306D01*
X73488536Y11471655D01*
X73442881Y11351809D01*
X73367214Y11253859D01*
X73263723Y11181605D01*
X73180352Y11149063D01*
X73048419Y11131507D01*
X72909070Y11152208D01*
X72886973Y11160330D01*
X72831448Y11191053D01*
X72771639Y11233759D01*
X72717095Y11280601D01*
X72677365Y11323728D01*
X72662000Y11355291D01*
X72664706Y11362751D01*
X72692090Y11387699D01*
X72739444Y11414065D01*
X72816888Y11448987D01*
X72886663Y11387725D01*
X72906578Y11371594D01*
X72984451Y11332327D01*
X73059213Y11328155D01*
X73125937Y11356004D01*
X73179697Y11412803D01*
X73215565Y11495480D01*
X73228616Y11600962D01*
X73228177Y11623042D01*
X73210986Y11728382D01*
X73170310Y11807135D01*
X73108245Y11856466D01*
X73026890Y11873539D01*
X72973913Y11860146D01*
X72913678Y11824964D01*
X72864922Y11778217D01*
X72858361Y11770720D01*
X72838765Y11763009D01*
X72806758Y11772940D01*
X72752388Y11802677D01*
X72740859Y11809511D01*
X72693686Y11841428D01*
X72675227Y11865623D01*
X72679557Y11889126D01*
X72725953Y11949289D01*
X72808378Y12008030D01*
X72910240Y12048053D01*
X73022242Y12066983D01*
X73135087Y12062447D01*
G36*
X71728098Y11186270D02*
G01*
X71650979Y10973761D01*
X71541960Y10773849D01*
X71401565Y10590550D01*
X71230318Y10427878D01*
X71158665Y10373200D01*
X70948814Y10246066D01*
X70722036Y10153243D01*
X70482701Y10096667D01*
X70429245Y10090413D01*
X70297718Y10086072D01*
X70151603Y10092691D01*
X70006088Y10109313D01*
X69876363Y10134976D01*
X69789193Y10160597D01*
X69583462Y10247037D01*
X69387535Y10364633D01*
X69208404Y10508097D01*
X69053060Y10672145D01*
X68928497Y10851491D01*
X68921923Y10863033D01*
X68830753Y11063591D01*
X68771660Y11280000D01*
X68744543Y11506302D01*
X68746503Y11601025D01*
X69007932Y11601025D01*
X69022905Y11399380D01*
X69071467Y11201314D01*
X69154299Y11010977D01*
X69272085Y10832522D01*
X69311618Y10785903D01*
X69445288Y10660157D01*
X69602582Y10548959D01*
X69772303Y10459542D01*
X69943253Y10399137D01*
X70060214Y10374402D01*
X70279243Y10357377D01*
X70495157Y10378008D01*
X70703936Y10435746D01*
X70901557Y10530042D01*
X70908876Y10534439D01*
X71000350Y10600080D01*
X71100572Y10687678D01*
X71198995Y10786686D01*
X71285076Y10886559D01*
X71348267Y10976751D01*
X71432679Y11149310D01*
X71494064Y11354249D01*
X71519198Y11565394D01*
X71507517Y11777567D01*
X71458456Y11985589D01*
X71433123Y12052718D01*
X71350390Y12212840D01*
X71241458Y12368022D01*
X71113615Y12509758D01*
X70974147Y12629542D01*
X70830339Y12718866D01*
X70774013Y12745050D01*
X70572769Y12812681D01*
X70363972Y12846007D01*
X70153455Y12845378D01*
X69947052Y12811144D01*
X69750595Y12743654D01*
X69569918Y12643259D01*
X69412983Y12517615D01*
X69270259Y12360353D01*
X69157710Y12185911D01*
X69076017Y11998442D01*
X69025863Y11802096D01*
X69007932Y11601025D01*
X68746503Y11601025D01*
X68749306Y11736541D01*
X68785850Y11964759D01*
X68854077Y12185001D01*
X68953888Y12391308D01*
X69020353Y12489018D01*
X69117359Y12604866D01*
X69228792Y12718507D01*
X69344068Y12819221D01*
X69452602Y12896292D01*
X69522761Y12936055D01*
X69734872Y13027681D01*
X69962551Y13088413D01*
X70198289Y13117147D01*
X70434579Y13112781D01*
X70663914Y13074212D01*
X70685476Y13068540D01*
X70865418Y13002374D01*
X71045551Y12905304D01*
X71217123Y12783446D01*
X71371384Y12642922D01*
X71499584Y12489849D01*
X71616833Y12297244D01*
X71707082Y12081975D01*
X71762808Y11859228D01*
X71784536Y11633018D01*
X71781016Y11565394D01*
X71772791Y11407361D01*
X71728098Y11186270D01*
G37*
X71728098Y11186270D02*
X71650979Y10973761D01*
X71541960Y10773849D01*
X71401565Y10590550D01*
X71230318Y10427878D01*
X71158665Y10373200D01*
X70948814Y10246066D01*
X70722036Y10153243D01*
X70482701Y10096667D01*
X70429245Y10090413D01*
X70297718Y10086072D01*
X70151603Y10092691D01*
X70006088Y10109313D01*
X69876363Y10134976D01*
X69789193Y10160597D01*
X69583462Y10247037D01*
X69387535Y10364633D01*
X69208404Y10508097D01*
X69053060Y10672145D01*
X68928497Y10851491D01*
X68921923Y10863033D01*
X68830753Y11063591D01*
X68771660Y11280000D01*
X68744543Y11506302D01*
X68746503Y11601025D01*
X69007932Y11601025D01*
X69022905Y11399380D01*
X69071467Y11201314D01*
X69154299Y11010977D01*
X69272085Y10832522D01*
X69311618Y10785903D01*
X69445288Y10660157D01*
X69602582Y10548959D01*
X69772303Y10459542D01*
X69943253Y10399137D01*
X70060214Y10374402D01*
X70279243Y10357377D01*
X70495157Y10378008D01*
X70703936Y10435746D01*
X70901557Y10530042D01*
X70908876Y10534439D01*
X71000350Y10600080D01*
X71100572Y10687678D01*
X71198995Y10786686D01*
X71285076Y10886559D01*
X71348267Y10976751D01*
X71432679Y11149310D01*
X71494064Y11354249D01*
X71519198Y11565394D01*
X71507517Y11777567D01*
X71458456Y11985589D01*
X71433123Y12052718D01*
X71350390Y12212840D01*
X71241458Y12368022D01*
X71113615Y12509758D01*
X70974147Y12629542D01*
X70830339Y12718866D01*
X70774013Y12745050D01*
X70572769Y12812681D01*
X70363972Y12846007D01*
X70153455Y12845378D01*
X69947052Y12811144D01*
X69750595Y12743654D01*
X69569918Y12643259D01*
X69412983Y12517615D01*
X69270259Y12360353D01*
X69157710Y12185911D01*
X69076017Y11998442D01*
X69025863Y11802096D01*
X69007932Y11601025D01*
X68746503Y11601025D01*
X68749306Y11736541D01*
X68785850Y11964759D01*
X68854077Y12185001D01*
X68953888Y12391308D01*
X69020353Y12489018D01*
X69117359Y12604866D01*
X69228792Y12718507D01*
X69344068Y12819221D01*
X69452602Y12896292D01*
X69522761Y12936055D01*
X69734872Y13027681D01*
X69962551Y13088413D01*
X70198289Y13117147D01*
X70434579Y13112781D01*
X70663914Y13074212D01*
X70685476Y13068540D01*
X70865418Y13002374D01*
X71045551Y12905304D01*
X71217123Y12783446D01*
X71371384Y12642922D01*
X71499584Y12489849D01*
X71616833Y12297244D01*
X71707082Y12081975D01*
X71762808Y11859228D01*
X71784536Y11633018D01*
X71781016Y11565394D01*
X71772791Y11407361D01*
X71728098Y11186270D01*
G36*
X74011332Y12061567D02*
G01*
X74130981Y12025953D01*
X74233280Y11960131D01*
X74312411Y11866102D01*
X74313931Y11863602D01*
X74349251Y11795064D01*
X74368911Y11725283D01*
X74378269Y11635499D01*
X74379597Y11593165D01*
X74365242Y11453264D01*
X74320464Y11337682D01*
X74245027Y11245966D01*
X74138695Y11177666D01*
X74123988Y11171084D01*
X73994244Y11135058D01*
X73865441Y11137199D01*
X73741914Y11176863D01*
X73627998Y11253408D01*
X73590081Y11288552D01*
X73554834Y11325922D01*
X73541231Y11347264D01*
X73544755Y11354204D01*
X73573096Y11377504D01*
X73620557Y11405214D01*
X73699883Y11445683D01*
X73767775Y11386072D01*
X73803904Y11358482D01*
X73881404Y11327451D01*
X73957933Y11335456D01*
X74033179Y11382501D01*
X74064231Y11413099D01*
X74085977Y11447999D01*
X74097588Y11495290D01*
X74104160Y11568313D01*
X74105949Y11633610D01*
X74094410Y11731222D01*
X74062338Y11800425D01*
X74008372Y11845153D01*
X73932889Y11870561D01*
X73860737Y11861481D01*
X73788507Y11814977D01*
X73721809Y11756415D01*
X73631679Y11806789D01*
X73609064Y11819701D01*
X73568257Y11847419D01*
X73554405Y11869539D01*
X73561191Y11893865D01*
X73577964Y11918156D01*
X73634173Y11970000D01*
X73707960Y12016229D01*
X73785462Y12047357D01*
X73880151Y12064970D01*
X74011332Y12061567D01*
G37*
X74011332Y12061567D02*
X74130981Y12025953D01*
X74233280Y11960131D01*
X74312411Y11866102D01*
X74313931Y11863602D01*
X74349251Y11795064D01*
X74368911Y11725283D01*
X74378269Y11635499D01*
X74379597Y11593165D01*
X74365242Y11453264D01*
X74320464Y11337682D01*
X74245027Y11245966D01*
X74138695Y11177666D01*
X74123988Y11171084D01*
X73994244Y11135058D01*
X73865441Y11137199D01*
X73741914Y11176863D01*
X73627998Y11253408D01*
X73590081Y11288552D01*
X73554834Y11325922D01*
X73541231Y11347264D01*
X73544755Y11354204D01*
X73573096Y11377504D01*
X73620557Y11405214D01*
X73699883Y11445683D01*
X73767775Y11386072D01*
X73803904Y11358482D01*
X73881404Y11327451D01*
X73957933Y11335456D01*
X74033179Y11382501D01*
X74064231Y11413099D01*
X74085977Y11447999D01*
X74097588Y11495290D01*
X74104160Y11568313D01*
X74105949Y11633610D01*
X74094410Y11731222D01*
X74062338Y11800425D01*
X74008372Y11845153D01*
X73932889Y11870561D01*
X73860737Y11861481D01*
X73788507Y11814977D01*
X73721809Y11756415D01*
X73631679Y11806789D01*
X73609064Y11819701D01*
X73568257Y11847419D01*
X73554405Y11869539D01*
X73561191Y11893865D01*
X73577964Y11918156D01*
X73634173Y11970000D01*
X73707960Y12016229D01*
X73785462Y12047357D01*
X73880151Y12064970D01*
X74011332Y12061567D01*
G04 #@! TD*
M02*
