%TF.GenerationSoftware,KiCad,Pcbnew,7.0.0-da2b9df05c~163~ubuntu22.04.1*%
%TF.CreationDate,2023-02-19T09:56:45-05:00*%
%TF.ProjectId,dso138_panel,64736f31-3338-45f7-9061-6e656c2e6b69,rev?*%
%TF.SameCoordinates,Original*%
%TF.FileFunction,Soldermask,Top*%
%TF.FilePolarity,Negative*%
%FSLAX46Y46*%
G04 Gerber Fmt 4.6, Leading zero omitted, Abs format (unit mm)*
G04 Created by KiCad (PCBNEW 7.0.0-da2b9df05c~163~ubuntu22.04.1) date 2023-02-19 09:56:45*
%MOMM*%
%LPD*%
G01*
G04 APERTURE LIST*
G04 Aperture macros list*
%AMFreePoly0*
4,1,179,8.575837,8.706056,9.155382,8.628115,9.728426,8.511638,10.292411,8.357147,10.844818,8.165330,11.383179,7.937045,11.905090,7.673312,12.408221,7.375307,12.890323,7.044363,13.349244,6.681957,13.782934,6.289707,14.189456,5.869366,14.566995,5.422812,14.913864,4.952037,15.228514,4.459146,15.509540,3.946339,15.755687,3.415906,15.965855,2.870218,16.139105,2.311710,16.274665,1.742877,
16.371928,1.166261,16.430460,0.584436,16.450000,0.000000,16.430460,-0.584436,16.371928,-1.166261,16.274665,-1.742877,16.139105,-2.311710,15.965855,-2.870218,15.755687,-3.415906,15.509540,-3.946339,15.228514,-4.459146,14.913864,-4.952037,14.566995,-5.422812,14.189456,-5.869366,13.782934,-6.289707,13.349244,-6.681957,12.890323,-7.044363,12.408221,-7.375307,11.905090,-7.673312,11.383179,-7.937045,
10.844818,-8.165330,10.292411,-8.357147,9.728426,-8.511638,9.155382,-8.628115,8.575837,-8.706056,7.992381,-8.745114,7.407619,-8.745114,6.824163,-8.706056,6.244618,-8.628115,5.671574,-8.511638,5.107589,-8.357147,4.555182,-8.165330,4.016821,-7.937045,3.494910,-7.673312,2.991779,-7.375307,2.509677,-7.044363,2.050756,-6.681957,1.617066,-6.289707,1.210544,-5.869366,0.833005,-5.422812,
0.486136,-4.952037,0.171486,-4.459146,-0.109540,-3.946339,-0.355687,-3.415906,-0.565855,-2.870218,-0.739105,-2.311710,-0.874665,-1.742877,-0.971928,-1.166261,-1.030460,-0.584436,-1.050000,0.000000,1.045117,0.000000,1.064644,-0.509426,1.123109,-1.015863,1.220171,-1.516338,1.355259,-2.007915,1.527580,-2.487709,1.736123,-2.952904,1.979665,-3.400770,2.256776,-3.828678,2.565830,-4.234119,
2.905013,-4.614712,3.272335,-4.968224,3.665641,-5.292581,4.082622,-5.585879,4.520831,-5.846396,4.977696,-6.072605,5.450537,-6.263177,5.936579,-6.416994,6.432969,-6.533154,6.936795,-6.610975,7.445100,-6.650000,7.954900,-6.650000,8.463205,-6.610975,8.967031,-6.533154,9.463421,-6.416994,9.949463,-6.263177,10.422304,-6.072605,10.879169,-5.846396,11.317378,-5.585879,11.734359,-5.292581,
12.127665,-4.968224,12.494987,-4.614712,12.834170,-4.234119,13.143224,-3.828678,13.420335,-3.400770,13.663877,-2.952904,13.872420,-2.487709,14.044741,-2.007915,14.179829,-1.516338,14.276891,-1.015863,14.335356,-0.509426,14.354883,0.000000,14.335356,0.509426,14.276891,1.015863,14.179829,1.516338,14.044741,2.007915,13.872420,2.487709,13.663877,2.952904,13.420335,3.400770,13.143224,3.828678,
12.834170,4.234119,12.494987,4.614712,12.127665,4.968224,11.734359,5.292581,11.317378,5.585879,10.879169,5.846396,10.422304,6.072605,9.949463,6.263177,9.463421,6.416994,8.967031,6.533154,8.463205,6.610975,7.954900,6.650000,7.445100,6.650000,6.936795,6.610975,6.432969,6.533154,5.936579,6.416994,5.450537,6.263177,4.977696,6.072605,4.520831,5.846396,4.082622,5.585879,
3.665641,5.292581,3.272335,4.968224,2.905013,4.614712,2.565830,4.234119,2.256776,3.828678,1.979665,3.400770,1.736123,2.952904,1.527580,2.487709,1.355259,2.007915,1.220171,1.516338,1.123109,1.015863,1.064644,0.509426,1.045117,0.000000,-1.050000,0.000000,-1.030460,0.584436,-0.971928,1.166261,-0.874665,1.742877,-0.739105,2.311710,-0.565855,2.870218,-0.355687,3.415906,
-0.109540,3.946339,0.171486,4.459146,0.486136,4.952037,0.833005,5.422812,1.210544,5.869366,1.617066,6.289707,2.050756,6.681957,2.509677,7.044363,2.991779,7.375307,3.494910,7.673312,4.016821,7.937045,4.555182,8.165330,5.107589,8.357147,5.671574,8.511638,6.244618,8.628115,6.824163,8.706056,7.407619,8.745114,7.992381,8.745114,8.575837,8.706056,8.575837,8.706056,
$1*%
%AMFreePoly1*
4,1,159,6.626847,7.030287,7.150748,6.971257,7.668773,6.873242,8.178024,6.736788,8.675654,6.562660,9.158880,6.351831,9.625000,6.105479,10.071406,5.824983,10.495603,5.511912,10.895218,5.168016,11.268016,4.795218,11.611912,4.395603,11.924983,3.971406,12.205479,3.525000,12.451831,3.058880,12.662660,2.575654,12.836788,2.078024,12.973242,1.568773,13.071257,1.050748,13.130287,0.526847,
13.150000,0.000000,13.130287,-0.526847,13.071257,-1.050748,12.973242,-1.568773,12.836788,-2.078024,12.662660,-2.575654,12.451831,-3.058880,12.205479,-3.525000,11.924983,-3.971406,11.611912,-4.395603,11.268016,-4.795218,10.895218,-5.168016,10.495603,-5.511912,10.071406,-5.824983,9.625000,-6.105479,9.158880,-6.351831,8.675654,-6.562660,8.178024,-6.736788,7.668773,-6.873242,7.150748,-6.971257,
6.626847,-7.030287,6.100000,-7.050000,5.573153,-7.030287,5.049252,-6.971257,4.531227,-6.873242,4.021976,-6.736788,3.524346,-6.562660,3.041120,-6.351831,2.575000,-6.105479,2.128594,-5.824983,1.704397,-5.511912,1.304782,-5.168016,0.931984,-4.795218,0.588088,-4.395603,0.275017,-3.971406,-0.005479,-3.525000,-0.251831,-3.058880,-0.462660,-2.575654,-0.636788,-2.078024,-0.773242,-1.568773,
-0.871257,-1.050748,-0.930287,-0.526847,-0.950000,0.000000,0.945094,0.000000,0.964710,-0.449280,1.023409,-0.895140,1.120743,-1.334188,1.255973,-1.763082,1.428069,-2.178557,1.635720,-2.577453,1.877348,-2.956733,2.151113,-3.313510,2.454931,-3.645069,2.786490,-3.948887,3.143267,-4.222652,3.522547,-4.464280,3.921443,-4.671931,4.336918,-4.844027,4.765812,-4.979257,5.204860,-5.076591,
5.650720,-5.135290,6.100000,-5.154906,6.549280,-5.135290,6.995140,-5.076591,7.434188,-4.979257,7.863082,-4.844027,8.278557,-4.671931,8.677453,-4.464280,9.056733,-4.222652,9.413510,-3.948887,9.745069,-3.645069,10.048887,-3.313510,10.322652,-2.956733,10.564280,-2.577453,10.771931,-2.178557,10.944027,-1.763082,11.079257,-1.334188,11.176591,-0.895140,11.235290,-0.449280,11.254906,0.000000,
11.235290,0.449280,11.176591,0.895140,11.079257,1.334188,10.944027,1.763082,10.771931,2.178557,10.564280,2.577453,10.322652,2.956733,10.048887,3.313510,9.745069,3.645069,9.413510,3.948887,9.056733,4.222652,8.677453,4.464280,8.278557,4.671931,7.863082,4.844027,7.434188,4.979257,6.995140,5.076591,6.549280,5.135290,6.100000,5.154906,5.650720,5.135290,5.204860,5.076591,
4.765812,4.979257,4.336918,4.844027,3.921443,4.671931,3.522547,4.464280,3.143267,4.222652,2.786490,3.948887,2.454931,3.645069,2.151113,3.313510,1.877348,2.956733,1.635720,2.577453,1.428069,2.178557,1.255973,1.763082,1.120743,1.334188,1.023409,0.895140,0.964710,0.449280,0.945094,0.000000,-0.950000,0.000000,-0.930287,0.526847,-0.871257,1.050748,-0.773242,1.568773,
-0.636788,2.078024,-0.462660,2.575654,-0.251831,3.058880,-0.005479,3.525000,0.275017,3.971406,0.588088,4.395603,0.931984,4.795218,1.304782,5.168016,1.704397,5.511912,2.128594,5.824983,2.575000,6.105479,3.041120,6.351831,3.524346,6.562660,4.021976,6.736788,4.531227,6.873242,5.049252,6.971257,5.573153,7.030287,6.100000,7.050000,6.626847,7.030287,6.626847,7.030287,
$1*%
%AMFreePoly2*
4,1,137,5.198598,5.455452,5.658736,5.376554,6.110525,5.258917,6.550711,5.103390,6.976121,4.911092,7.383690,4.683410,7.770482,4.421984,8.133711,4.128698,8.470759,3.805664,8.779197,3.455210,9.056803,3.079861,9.301578,2.682322,9.511757,2.265457,9.685826,1.832269,9.822531,1.385879,9.920888,0.929505,9.980186,0.466433,10.000000,0.000000,9.980186,-0.466433,9.920888,-0.929505,
9.822531,-1.385879,9.685826,-1.832269,9.511757,-2.265457,9.301578,-2.682322,9.056803,-3.079861,8.779197,-3.455210,8.470759,-3.805664,8.133711,-4.128698,7.770482,-4.421984,7.383690,-4.683410,6.976121,-4.911092,6.550711,-5.103390,6.110525,-5.258917,5.658736,-5.376554,5.198598,-5.455452,4.733427,-5.495044,4.266573,-5.495044,3.801402,-5.455452,3.341264,-5.376554,2.889475,-5.258917,
2.449289,-5.103390,2.023879,-4.911092,1.616310,-4.683410,1.229518,-4.421984,0.866289,-4.128698,0.529241,-3.805664,0.220803,-3.455210,-0.056803,-3.079861,-0.301578,-2.682322,-0.511757,-2.265457,-0.685826,-1.832269,-0.822531,-1.385879,-0.920888,-0.929505,-0.980186,-0.466433,-1.000000,0.000000,0.995197,0.000000,1.014397,-0.366352,1.071785,-0.728690,1.166734,-1.083044,1.298203,-1.425532,
1.464752,-1.752402,1.664555,-2.060072,1.895424,-2.345171,2.154829,-2.604576,2.439928,-2.835445,2.747598,-3.035248,3.074468,-3.201797,3.416956,-3.333266,3.771310,-3.428215,4.133648,-3.485603,4.500000,-3.504803,4.866352,-3.485603,5.228690,-3.428215,5.583044,-3.333266,5.925532,-3.201797,6.252402,-3.035248,6.560072,-2.835445,6.845171,-2.604576,7.104576,-2.345171,7.335445,-2.060072,
7.535248,-1.752402,7.701797,-1.425532,7.833266,-1.083044,7.928215,-0.728690,7.985603,-0.366352,8.004803,0.000000,7.985603,0.366352,7.928215,0.728690,7.833266,1.083044,7.701797,1.425532,7.535248,1.752401,7.335445,2.060072,7.104576,2.345171,6.845171,2.604576,6.560072,2.835445,6.252402,3.035248,5.925532,3.201797,5.583044,3.333266,5.228690,3.428215,4.866352,3.485603,
4.500000,3.504803,4.133648,3.485603,3.771310,3.428215,3.416956,3.333266,3.074468,3.201797,2.747599,3.035248,2.439928,2.835445,2.154829,2.604576,1.895424,2.345171,1.664555,2.060072,1.464752,1.752401,1.298203,1.425532,1.166734,1.083044,1.071785,0.728690,1.014397,0.366352,0.995197,0.000000,-1.000000,0.000000,-0.980186,0.466433,-0.920888,0.929505,-0.822531,1.385879,
-0.685826,1.832269,-0.511757,2.265457,-0.301578,2.682322,-0.056803,3.079861,0.220803,3.455210,0.529241,3.805664,0.866289,4.128698,1.229518,4.421984,1.616310,4.683410,2.023879,4.911092,2.449289,5.103390,2.889475,5.258917,3.341264,5.376554,3.801402,5.455452,4.266573,5.495044,4.733427,5.495044,5.198598,5.455452,5.198598,5.455452,$1*%
G04 Aperture macros list end*
%ADD10C,5.000000*%
%ADD11C,4.500000*%
%ADD12C,5.400000*%
%ADD13FreePoly0,0.000000*%
%ADD14C,0.800000*%
%ADD15FreePoly1,0.000000*%
%ADD16FreePoly2,0.000000*%
%ADD17O,6.800000X4.000000*%
G04 APERTURE END LIST*
D10*
%TO.C,H22*%
X125000000Y-88000000D03*
%TD*%
D11*
%TO.C,H8*%
X144000000Y-83000000D03*
%TD*%
%TO.C,H13*%
X56000000Y-162000000D03*
%TD*%
%TO.C,H3*%
X56000000Y-83000000D03*
%TD*%
D12*
%TO.C,H20*%
X124880000Y-25800000D03*
%TD*%
%TO.C,H19*%
X124880000Y-74030000D03*
%TD*%
D13*
%TO.C,H4*%
X54800000Y-175000000D03*
D14*
X54800000Y-175000000D03*
X57100000Y-169600000D03*
X57100000Y-180400000D03*
X62500000Y-167300000D03*
X62500000Y-182700000D03*
X67800000Y-180500000D03*
X67900000Y-169600000D03*
X70200000Y-175000000D03*
%TD*%
D15*
%TO.C,H9*%
X103900000Y-175000000D03*
D14*
X103900000Y-175000000D03*
X105700000Y-170700000D03*
X105700000Y-179300000D03*
X110000000Y-168900000D03*
X110000000Y-181100000D03*
X114200000Y-179400000D03*
X114300000Y-170700000D03*
X116100000Y-175000000D03*
%TD*%
D12*
%TO.C,H18*%
X69000000Y-74030000D03*
%TD*%
D16*
%TO.C,H5*%
X82750000Y-175000000D03*
D14*
X82750000Y-175000000D03*
X84050000Y-171800000D03*
X84050000Y-178200000D03*
X87250000Y-170500000D03*
X87250000Y-179500000D03*
X90350000Y-178300000D03*
X90450000Y-171800000D03*
X91750000Y-175000000D03*
%TD*%
D17*
%TO.C,H23*%
X54399999Y-2999999D03*
X54399999Y-196999999D03*
%TD*%
D12*
%TO.C,H21*%
X69000000Y-25800000D03*
%TD*%
D15*
%TO.C,H14*%
X131400000Y-175000000D03*
D14*
X131400000Y-175000000D03*
X133200000Y-170700000D03*
X133200000Y-179300000D03*
X137500000Y-168900000D03*
X137500000Y-181100000D03*
X141700000Y-179400000D03*
X141800000Y-170700000D03*
X143600000Y-175000000D03*
%TD*%
D11*
%TO.C,H17*%
X144000000Y-162000000D03*
%TD*%
D17*
%TO.C,H24*%
X145599999Y-196999999D03*
X145599999Y-2999999D03*
%TD*%
D16*
%TO.C,H10*%
X53000000Y-50000000D03*
D14*
X53000000Y-50000000D03*
X54300000Y-46800000D03*
X54300000Y-53200000D03*
X57500000Y-45500000D03*
X57500000Y-54500000D03*
X60600000Y-53300000D03*
X60700000Y-46800000D03*
X62000000Y-50000000D03*
%TD*%
M02*
