M48
; DRILL file {KiCad 7.0.0-da2b9df05c~163~ubuntu22.04.1} date Sun 19 Feb 2023 09:52:57 AM EST
; FORMAT={-:-/ absolute / metric / decimal}
; #@! TF.CreationDate,2023-02-19T09:52:57-05:00
; #@! TF.GenerationSoftware,Kicad,Pcbnew,7.0.0-da2b9df05c~163~ubuntu22.04.1
; #@! TF.FileFunction,Plated,1,2,PTH
FMAT,2
METRIC
; #@! TA.AperFunction,Plated,PTH,ComponentDrill
T1C0.600
; #@! TA.AperFunction,Plated,PTH,ComponentDrill
T2C3.000
; #@! TA.AperFunction,Plated,PTH,ComponentDrill
T3C3.200
; #@! TA.AperFunction,Plated,PTH,ComponentDrill
T4C3.700
%
G90
G05
T1
X53.0Y-50.0
X54.3Y-46.8
X54.3Y-53.2
X54.8Y-175.0
X57.1Y-169.6
X57.1Y-180.4
X57.5Y-45.5
X57.5Y-54.5
X60.6Y-53.3
X60.7Y-46.8
X62.0Y-50.0
X62.5Y-167.3
X62.5Y-182.7
X67.8Y-180.5
X67.9Y-169.6
X70.2Y-175.0
X82.75Y-175.0
X84.05Y-171.8
X84.05Y-178.2
X87.25Y-170.5
X87.25Y-179.5
X90.35Y-178.3
X90.45Y-171.8
X91.75Y-175.0
X103.9Y-175.0
X105.7Y-170.7
X105.7Y-179.3
X110.0Y-168.9
X110.0Y-181.1
X114.2Y-179.4
X114.3Y-170.7
X116.1Y-175.0
X131.4Y-175.0
X133.2Y-170.7
X133.2Y-179.3
X137.5Y-168.9
X137.5Y-181.1
X141.7Y-179.4
X141.8Y-170.7
X143.6Y-175.0
T2
X69.0Y-25.8
X69.0Y-74.03
X124.88Y-25.8
X124.88Y-74.03
T4
X56.0Y-83.0
X56.0Y-162.0
X144.0Y-83.0
X144.0Y-162.0
T3
X53.0Y-3.0G85X55.8Y-3.0
G05
X53.0Y-197.0G85X55.8Y-197.0
G05
X147.0Y-3.0G85X144.2Y-3.0
G05
X147.0Y-197.0G85X144.2Y-197.0
G05
T0
M30
