%TF.GenerationSoftware,KiCad,Pcbnew,7.0.0-da2b9df05c~163~ubuntu22.04.1*%
%TF.CreationDate,2023-02-19T09:56:45-05:00*%
%TF.ProjectId,dso138_panel,64736f31-3338-45f7-9061-6e656c2e6b69,rev?*%
%TF.SameCoordinates,Original*%
%TF.FileFunction,Legend,Bot*%
%TF.FilePolarity,Positive*%
%FSLAX46Y46*%
G04 Gerber Fmt 4.6, Leading zero omitted, Abs format (unit mm)*
G04 Created by KiCad (PCBNEW 7.0.0-da2b9df05c~163~ubuntu22.04.1) date 2023-02-19 09:56:45*
%MOMM*%
%LPD*%
G01*
G04 APERTURE LIST*
G04 Aperture macros list*
%AMFreePoly0*
4,1,179,8.575837,8.706056,9.155382,8.628115,9.728426,8.511638,10.292411,8.357147,10.844818,8.165330,11.383179,7.937045,11.905090,7.673312,12.408221,7.375307,12.890323,7.044363,13.349244,6.681957,13.782934,6.289707,14.189456,5.869366,14.566995,5.422812,14.913864,4.952037,15.228514,4.459146,15.509540,3.946339,15.755687,3.415906,15.965855,2.870218,16.139105,2.311710,16.274665,1.742877,
16.371928,1.166261,16.430460,0.584436,16.450000,0.000000,16.430460,-0.584436,16.371928,-1.166261,16.274665,-1.742877,16.139105,-2.311710,15.965855,-2.870218,15.755687,-3.415906,15.509540,-3.946339,15.228514,-4.459146,14.913864,-4.952037,14.566995,-5.422812,14.189456,-5.869366,13.782934,-6.289707,13.349244,-6.681957,12.890323,-7.044363,12.408221,-7.375307,11.905090,-7.673312,11.383179,-7.937045,
10.844818,-8.165330,10.292411,-8.357147,9.728426,-8.511638,9.155382,-8.628115,8.575837,-8.706056,7.992381,-8.745114,7.407619,-8.745114,6.824163,-8.706056,6.244618,-8.628115,5.671574,-8.511638,5.107589,-8.357147,4.555182,-8.165330,4.016821,-7.937045,3.494910,-7.673312,2.991779,-7.375307,2.509677,-7.044363,2.050756,-6.681957,1.617066,-6.289707,1.210544,-5.869366,0.833005,-5.422812,
0.486136,-4.952037,0.171486,-4.459146,-0.109540,-3.946339,-0.355687,-3.415906,-0.565855,-2.870218,-0.739105,-2.311710,-0.874665,-1.742877,-0.971928,-1.166261,-1.030460,-0.584436,-1.050000,0.000000,1.045117,0.000000,1.064644,-0.509426,1.123109,-1.015863,1.220171,-1.516338,1.355259,-2.007915,1.527580,-2.487709,1.736123,-2.952904,1.979665,-3.400770,2.256776,-3.828678,2.565830,-4.234119,
2.905013,-4.614712,3.272335,-4.968224,3.665641,-5.292581,4.082622,-5.585879,4.520831,-5.846396,4.977696,-6.072605,5.450537,-6.263177,5.936579,-6.416994,6.432969,-6.533154,6.936795,-6.610975,7.445100,-6.650000,7.954900,-6.650000,8.463205,-6.610975,8.967031,-6.533154,9.463421,-6.416994,9.949463,-6.263177,10.422304,-6.072605,10.879169,-5.846396,11.317378,-5.585879,11.734359,-5.292581,
12.127665,-4.968224,12.494987,-4.614712,12.834170,-4.234119,13.143224,-3.828678,13.420335,-3.400770,13.663877,-2.952904,13.872420,-2.487709,14.044741,-2.007915,14.179829,-1.516338,14.276891,-1.015863,14.335356,-0.509426,14.354883,0.000000,14.335356,0.509426,14.276891,1.015863,14.179829,1.516338,14.044741,2.007915,13.872420,2.487709,13.663877,2.952904,13.420335,3.400770,13.143224,3.828678,
12.834170,4.234119,12.494987,4.614712,12.127665,4.968224,11.734359,5.292581,11.317378,5.585879,10.879169,5.846396,10.422304,6.072605,9.949463,6.263177,9.463421,6.416994,8.967031,6.533154,8.463205,6.610975,7.954900,6.650000,7.445100,6.650000,6.936795,6.610975,6.432969,6.533154,5.936579,6.416994,5.450537,6.263177,4.977696,6.072605,4.520831,5.846396,4.082622,5.585879,
3.665641,5.292581,3.272335,4.968224,2.905013,4.614712,2.565830,4.234119,2.256776,3.828678,1.979665,3.400770,1.736123,2.952904,1.527580,2.487709,1.355259,2.007915,1.220171,1.516338,1.123109,1.015863,1.064644,0.509426,1.045117,0.000000,-1.050000,0.000000,-1.030460,0.584436,-0.971928,1.166261,-0.874665,1.742877,-0.739105,2.311710,-0.565855,2.870218,-0.355687,3.415906,
-0.109540,3.946339,0.171486,4.459146,0.486136,4.952037,0.833005,5.422812,1.210544,5.869366,1.617066,6.289707,2.050756,6.681957,2.509677,7.044363,2.991779,7.375307,3.494910,7.673312,4.016821,7.937045,4.555182,8.165330,5.107589,8.357147,5.671574,8.511638,6.244618,8.628115,6.824163,8.706056,7.407619,8.745114,7.992381,8.745114,8.575837,8.706056,8.575837,8.706056,
$1*%
%AMFreePoly1*
4,1,159,6.626847,7.030287,7.150748,6.971257,7.668773,6.873242,8.178024,6.736788,8.675654,6.562660,9.158880,6.351831,9.625000,6.105479,10.071406,5.824983,10.495603,5.511912,10.895218,5.168016,11.268016,4.795218,11.611912,4.395603,11.924983,3.971406,12.205479,3.525000,12.451831,3.058880,12.662660,2.575654,12.836788,2.078024,12.973242,1.568773,13.071257,1.050748,13.130287,0.526847,
13.150000,0.000000,13.130287,-0.526847,13.071257,-1.050748,12.973242,-1.568773,12.836788,-2.078024,12.662660,-2.575654,12.451831,-3.058880,12.205479,-3.525000,11.924983,-3.971406,11.611912,-4.395603,11.268016,-4.795218,10.895218,-5.168016,10.495603,-5.511912,10.071406,-5.824983,9.625000,-6.105479,9.158880,-6.351831,8.675654,-6.562660,8.178024,-6.736788,7.668773,-6.873242,7.150748,-6.971257,
6.626847,-7.030287,6.100000,-7.050000,5.573153,-7.030287,5.049252,-6.971257,4.531227,-6.873242,4.021976,-6.736788,3.524346,-6.562660,3.041120,-6.351831,2.575000,-6.105479,2.128594,-5.824983,1.704397,-5.511912,1.304782,-5.168016,0.931984,-4.795218,0.588088,-4.395603,0.275017,-3.971406,-0.005479,-3.525000,-0.251831,-3.058880,-0.462660,-2.575654,-0.636788,-2.078024,-0.773242,-1.568773,
-0.871257,-1.050748,-0.930287,-0.526847,-0.950000,0.000000,0.945094,0.000000,0.964710,-0.449280,1.023409,-0.895140,1.120743,-1.334188,1.255973,-1.763082,1.428069,-2.178557,1.635720,-2.577453,1.877348,-2.956733,2.151113,-3.313510,2.454931,-3.645069,2.786490,-3.948887,3.143267,-4.222652,3.522547,-4.464280,3.921443,-4.671931,4.336918,-4.844027,4.765812,-4.979257,5.204860,-5.076591,
5.650720,-5.135290,6.100000,-5.154906,6.549280,-5.135290,6.995140,-5.076591,7.434188,-4.979257,7.863082,-4.844027,8.278557,-4.671931,8.677453,-4.464280,9.056733,-4.222652,9.413510,-3.948887,9.745069,-3.645069,10.048887,-3.313510,10.322652,-2.956733,10.564280,-2.577453,10.771931,-2.178557,10.944027,-1.763082,11.079257,-1.334188,11.176591,-0.895140,11.235290,-0.449280,11.254906,0.000000,
11.235290,0.449280,11.176591,0.895140,11.079257,1.334188,10.944027,1.763082,10.771931,2.178557,10.564280,2.577453,10.322652,2.956733,10.048887,3.313510,9.745069,3.645069,9.413510,3.948887,9.056733,4.222652,8.677453,4.464280,8.278557,4.671931,7.863082,4.844027,7.434188,4.979257,6.995140,5.076591,6.549280,5.135290,6.100000,5.154906,5.650720,5.135290,5.204860,5.076591,
4.765812,4.979257,4.336918,4.844027,3.921443,4.671931,3.522547,4.464280,3.143267,4.222652,2.786490,3.948887,2.454931,3.645069,2.151113,3.313510,1.877348,2.956733,1.635720,2.577453,1.428069,2.178557,1.255973,1.763082,1.120743,1.334188,1.023409,0.895140,0.964710,0.449280,0.945094,0.000000,-0.950000,0.000000,-0.930287,0.526847,-0.871257,1.050748,-0.773242,1.568773,
-0.636788,2.078024,-0.462660,2.575654,-0.251831,3.058880,-0.005479,3.525000,0.275017,3.971406,0.588088,4.395603,0.931984,4.795218,1.304782,5.168016,1.704397,5.511912,2.128594,5.824983,2.575000,6.105479,3.041120,6.351831,3.524346,6.562660,4.021976,6.736788,4.531227,6.873242,5.049252,6.971257,5.573153,7.030287,6.100000,7.050000,6.626847,7.030287,6.626847,7.030287,
$1*%
%AMFreePoly2*
4,1,137,5.198598,5.455452,5.658736,5.376554,6.110525,5.258917,6.550711,5.103390,6.976121,4.911092,7.383690,4.683410,7.770482,4.421984,8.133711,4.128698,8.470759,3.805664,8.779197,3.455210,9.056803,3.079861,9.301578,2.682322,9.511757,2.265457,9.685826,1.832269,9.822531,1.385879,9.920888,0.929505,9.980186,0.466433,10.000000,0.000000,9.980186,-0.466433,9.920888,-0.929505,
9.822531,-1.385879,9.685826,-1.832269,9.511757,-2.265457,9.301578,-2.682322,9.056803,-3.079861,8.779197,-3.455210,8.470759,-3.805664,8.133711,-4.128698,7.770482,-4.421984,7.383690,-4.683410,6.976121,-4.911092,6.550711,-5.103390,6.110525,-5.258917,5.658736,-5.376554,5.198598,-5.455452,4.733427,-5.495044,4.266573,-5.495044,3.801402,-5.455452,3.341264,-5.376554,2.889475,-5.258917,
2.449289,-5.103390,2.023879,-4.911092,1.616310,-4.683410,1.229518,-4.421984,0.866289,-4.128698,0.529241,-3.805664,0.220803,-3.455210,-0.056803,-3.079861,-0.301578,-2.682322,-0.511757,-2.265457,-0.685826,-1.832269,-0.822531,-1.385879,-0.920888,-0.929505,-0.980186,-0.466433,-1.000000,0.000000,0.995197,0.000000,1.014397,-0.366352,1.071785,-0.728690,1.166734,-1.083044,1.298203,-1.425532,
1.464752,-1.752402,1.664555,-2.060072,1.895424,-2.345171,2.154829,-2.604576,2.439928,-2.835445,2.747598,-3.035248,3.074468,-3.201797,3.416956,-3.333266,3.771310,-3.428215,4.133648,-3.485603,4.500000,-3.504803,4.866352,-3.485603,5.228690,-3.428215,5.583044,-3.333266,5.925532,-3.201797,6.252402,-3.035248,6.560072,-2.835445,6.845171,-2.604576,7.104576,-2.345171,7.335445,-2.060072,
7.535248,-1.752402,7.701797,-1.425532,7.833266,-1.083044,7.928215,-0.728690,7.985603,-0.366352,8.004803,0.000000,7.985603,0.366352,7.928215,0.728690,7.833266,1.083044,7.701797,1.425532,7.535248,1.752401,7.335445,2.060072,7.104576,2.345171,6.845171,2.604576,6.560072,2.835445,6.252402,3.035248,5.925532,3.201797,5.583044,3.333266,5.228690,3.428215,4.866352,3.485603,
4.500000,3.504803,4.133648,3.485603,3.771310,3.428215,3.416956,3.333266,3.074468,3.201797,2.747599,3.035248,2.439928,2.835445,2.154829,2.604576,1.895424,2.345171,1.664555,2.060072,1.464752,1.752401,1.298203,1.425532,1.166734,1.083044,1.071785,0.728690,1.014397,0.366352,0.995197,0.000000,-1.000000,0.000000,-0.980186,0.466433,-0.920888,0.929505,-0.822531,1.385879,
-0.685826,1.832269,-0.511757,2.265457,-0.301578,2.682322,-0.056803,3.079861,0.220803,3.455210,0.529241,3.805664,0.866289,4.128698,1.229518,4.421984,1.616310,4.683410,2.023879,4.911092,2.449289,5.103390,2.889475,5.258917,3.341264,5.376554,3.801402,5.455452,4.266573,5.495044,4.733427,5.495044,5.198598,5.455452,5.198598,5.455452,$1*%
G04 Aperture macros list end*
%ADD10C,0.150000*%
%ADD11C,0.010000*%
%ADD12C,5.000000*%
%ADD13C,4.500000*%
%ADD14C,5.400000*%
%ADD15FreePoly0,0.000000*%
%ADD16C,0.800000*%
%ADD17FreePoly1,0.000000*%
%ADD18FreePoly2,0.000000*%
%ADD19O,6.800000X4.000000*%
G04 APERTURE END LIST*
D10*
X89464285Y-184259761D02*
X89321428Y-184307380D01*
X89321428Y-184307380D02*
X89083333Y-184307380D01*
X89083333Y-184307380D02*
X88988095Y-184259761D01*
X88988095Y-184259761D02*
X88940476Y-184212142D01*
X88940476Y-184212142D02*
X88892857Y-184116904D01*
X88892857Y-184116904D02*
X88892857Y-184021666D01*
X88892857Y-184021666D02*
X88940476Y-183926428D01*
X88940476Y-183926428D02*
X88988095Y-183878809D01*
X88988095Y-183878809D02*
X89083333Y-183831190D01*
X89083333Y-183831190D02*
X89273809Y-183783571D01*
X89273809Y-183783571D02*
X89369047Y-183735952D01*
X89369047Y-183735952D02*
X89416666Y-183688333D01*
X89416666Y-183688333D02*
X89464285Y-183593095D01*
X89464285Y-183593095D02*
X89464285Y-183497857D01*
X89464285Y-183497857D02*
X89416666Y-183402619D01*
X89416666Y-183402619D02*
X89369047Y-183355000D01*
X89369047Y-183355000D02*
X89273809Y-183307380D01*
X89273809Y-183307380D02*
X89035714Y-183307380D01*
X89035714Y-183307380D02*
X88892857Y-183355000D01*
X88559523Y-183640714D02*
X88369047Y-184307380D01*
X88369047Y-184307380D02*
X88178571Y-183831190D01*
X88178571Y-183831190D02*
X87988095Y-184307380D01*
X87988095Y-184307380D02*
X87797619Y-183640714D01*
X87416666Y-184307380D02*
X87416666Y-183640714D01*
X87416666Y-183307380D02*
X87464285Y-183355000D01*
X87464285Y-183355000D02*
X87416666Y-183402619D01*
X87416666Y-183402619D02*
X87369047Y-183355000D01*
X87369047Y-183355000D02*
X87416666Y-183307380D01*
X87416666Y-183307380D02*
X87416666Y-183402619D01*
X87083333Y-183640714D02*
X86702381Y-183640714D01*
X86940476Y-183307380D02*
X86940476Y-184164523D01*
X86940476Y-184164523D02*
X86892857Y-184259761D01*
X86892857Y-184259761D02*
X86797619Y-184307380D01*
X86797619Y-184307380D02*
X86702381Y-184307380D01*
X85940476Y-184259761D02*
X86035714Y-184307380D01*
X86035714Y-184307380D02*
X86226190Y-184307380D01*
X86226190Y-184307380D02*
X86321428Y-184259761D01*
X86321428Y-184259761D02*
X86369047Y-184212142D01*
X86369047Y-184212142D02*
X86416666Y-184116904D01*
X86416666Y-184116904D02*
X86416666Y-183831190D01*
X86416666Y-183831190D02*
X86369047Y-183735952D01*
X86369047Y-183735952D02*
X86321428Y-183688333D01*
X86321428Y-183688333D02*
X86226190Y-183640714D01*
X86226190Y-183640714D02*
X86035714Y-183640714D01*
X86035714Y-183640714D02*
X85940476Y-183688333D01*
X85511904Y-184307380D02*
X85511904Y-183307380D01*
X85083333Y-184307380D02*
X85083333Y-183783571D01*
X85083333Y-183783571D02*
X85130952Y-183688333D01*
X85130952Y-183688333D02*
X85226190Y-183640714D01*
X85226190Y-183640714D02*
X85369047Y-183640714D01*
X85369047Y-183640714D02*
X85464285Y-183688333D01*
X85464285Y-183688333D02*
X85511904Y-183735952D01*
X100002380Y-185260714D02*
X99621428Y-185260714D01*
X99859523Y-184927380D02*
X99859523Y-185784523D01*
X99859523Y-185784523D02*
X99811904Y-185879761D01*
X99811904Y-185879761D02*
X99716666Y-185927380D01*
X99716666Y-185927380D02*
X99621428Y-185927380D01*
X99145237Y-185927380D02*
X99240475Y-185879761D01*
X99240475Y-185879761D02*
X99288094Y-185832142D01*
X99288094Y-185832142D02*
X99335713Y-185736904D01*
X99335713Y-185736904D02*
X99335713Y-185451190D01*
X99335713Y-185451190D02*
X99288094Y-185355952D01*
X99288094Y-185355952D02*
X99240475Y-185308333D01*
X99240475Y-185308333D02*
X99145237Y-185260714D01*
X99145237Y-185260714D02*
X99002380Y-185260714D01*
X99002380Y-185260714D02*
X98907142Y-185308333D01*
X98907142Y-185308333D02*
X98859523Y-185355952D01*
X98859523Y-185355952D02*
X98811904Y-185451190D01*
X98811904Y-185451190D02*
X98811904Y-185736904D01*
X98811904Y-185736904D02*
X98859523Y-185832142D01*
X98859523Y-185832142D02*
X98907142Y-185879761D01*
X98907142Y-185879761D02*
X99002380Y-185927380D01*
X99002380Y-185927380D02*
X99145237Y-185927380D01*
X97449999Y-185403571D02*
X97307142Y-185451190D01*
X97307142Y-185451190D02*
X97259523Y-185498809D01*
X97259523Y-185498809D02*
X97211904Y-185594047D01*
X97211904Y-185594047D02*
X97211904Y-185736904D01*
X97211904Y-185736904D02*
X97259523Y-185832142D01*
X97259523Y-185832142D02*
X97307142Y-185879761D01*
X97307142Y-185879761D02*
X97402380Y-185927380D01*
X97402380Y-185927380D02*
X97783332Y-185927380D01*
X97783332Y-185927380D02*
X97783332Y-184927380D01*
X97783332Y-184927380D02*
X97449999Y-184927380D01*
X97449999Y-184927380D02*
X97354761Y-184975000D01*
X97354761Y-184975000D02*
X97307142Y-185022619D01*
X97307142Y-185022619D02*
X97259523Y-185117857D01*
X97259523Y-185117857D02*
X97259523Y-185213095D01*
X97259523Y-185213095D02*
X97307142Y-185308333D01*
X97307142Y-185308333D02*
X97354761Y-185355952D01*
X97354761Y-185355952D02*
X97449999Y-185403571D01*
X97449999Y-185403571D02*
X97783332Y-185403571D01*
X96783332Y-185927380D02*
X96783332Y-184927380D01*
X96783332Y-184927380D02*
X96211904Y-185927380D01*
X96211904Y-185927380D02*
X96211904Y-184927380D01*
X95164285Y-185832142D02*
X95211904Y-185879761D01*
X95211904Y-185879761D02*
X95354761Y-185927380D01*
X95354761Y-185927380D02*
X95449999Y-185927380D01*
X95449999Y-185927380D02*
X95592856Y-185879761D01*
X95592856Y-185879761D02*
X95688094Y-185784523D01*
X95688094Y-185784523D02*
X95735713Y-185689285D01*
X95735713Y-185689285D02*
X95783332Y-185498809D01*
X95783332Y-185498809D02*
X95783332Y-185355952D01*
X95783332Y-185355952D02*
X95735713Y-185165476D01*
X95735713Y-185165476D02*
X95688094Y-185070238D01*
X95688094Y-185070238D02*
X95592856Y-184975000D01*
X95592856Y-184975000D02*
X95449999Y-184927380D01*
X95449999Y-184927380D02*
X95354761Y-184927380D01*
X95354761Y-184927380D02*
X95211904Y-184975000D01*
X95211904Y-184975000D02*
X95164285Y-185022619D01*
X94135713Y-185260714D02*
X94135713Y-186117857D01*
X94135713Y-186117857D02*
X94183332Y-186213095D01*
X94183332Y-186213095D02*
X94278570Y-186260714D01*
X94278570Y-186260714D02*
X94326189Y-186260714D01*
X94135713Y-184927380D02*
X94183332Y-184975000D01*
X94183332Y-184975000D02*
X94135713Y-185022619D01*
X94135713Y-185022619D02*
X94088094Y-184975000D01*
X94088094Y-184975000D02*
X94135713Y-184927380D01*
X94135713Y-184927380D02*
X94135713Y-185022619D01*
X93230952Y-185927380D02*
X93230952Y-185403571D01*
X93230952Y-185403571D02*
X93278571Y-185308333D01*
X93278571Y-185308333D02*
X93373809Y-185260714D01*
X93373809Y-185260714D02*
X93564285Y-185260714D01*
X93564285Y-185260714D02*
X93659523Y-185308333D01*
X93230952Y-185879761D02*
X93326190Y-185927380D01*
X93326190Y-185927380D02*
X93564285Y-185927380D01*
X93564285Y-185927380D02*
X93659523Y-185879761D01*
X93659523Y-185879761D02*
X93707142Y-185784523D01*
X93707142Y-185784523D02*
X93707142Y-185689285D01*
X93707142Y-185689285D02*
X93659523Y-185594047D01*
X93659523Y-185594047D02*
X93564285Y-185546428D01*
X93564285Y-185546428D02*
X93326190Y-185546428D01*
X93326190Y-185546428D02*
X93230952Y-185498809D01*
X92326190Y-185879761D02*
X92421428Y-185927380D01*
X92421428Y-185927380D02*
X92611904Y-185927380D01*
X92611904Y-185927380D02*
X92707142Y-185879761D01*
X92707142Y-185879761D02*
X92754761Y-185832142D01*
X92754761Y-185832142D02*
X92802380Y-185736904D01*
X92802380Y-185736904D02*
X92802380Y-185451190D01*
X92802380Y-185451190D02*
X92754761Y-185355952D01*
X92754761Y-185355952D02*
X92707142Y-185308333D01*
X92707142Y-185308333D02*
X92611904Y-185260714D01*
X92611904Y-185260714D02*
X92421428Y-185260714D01*
X92421428Y-185260714D02*
X92326190Y-185308333D01*
X91897618Y-185927380D02*
X91897618Y-184927380D01*
X91802380Y-185546428D02*
X91516666Y-185927380D01*
X91516666Y-185260714D02*
X91897618Y-185641666D01*
X89773809Y-184879761D02*
X90630951Y-186165476D01*
X88840475Y-185927380D02*
X88840475Y-184927380D01*
X88364285Y-185927380D02*
X88364285Y-184927380D01*
X88364285Y-184927380D02*
X87792857Y-185927380D01*
X87792857Y-185927380D02*
X87792857Y-184927380D01*
X87316666Y-185927380D02*
X87316666Y-184927380D01*
X87316666Y-184927380D02*
X86935714Y-184927380D01*
X86935714Y-184927380D02*
X86840476Y-184975000D01*
X86840476Y-184975000D02*
X86792857Y-185022619D01*
X86792857Y-185022619D02*
X86745238Y-185117857D01*
X86745238Y-185117857D02*
X86745238Y-185260714D01*
X86745238Y-185260714D02*
X86792857Y-185355952D01*
X86792857Y-185355952D02*
X86840476Y-185403571D01*
X86840476Y-185403571D02*
X86935714Y-185451190D01*
X86935714Y-185451190D02*
X87316666Y-185451190D01*
X86316666Y-184927380D02*
X86316666Y-185736904D01*
X86316666Y-185736904D02*
X86269047Y-185832142D01*
X86269047Y-185832142D02*
X86221428Y-185879761D01*
X86221428Y-185879761D02*
X86126190Y-185927380D01*
X86126190Y-185927380D02*
X85935714Y-185927380D01*
X85935714Y-185927380D02*
X85840476Y-185879761D01*
X85840476Y-185879761D02*
X85792857Y-185832142D01*
X85792857Y-185832142D02*
X85745238Y-185736904D01*
X85745238Y-185736904D02*
X85745238Y-184927380D01*
X85411904Y-184927380D02*
X84840476Y-184927380D01*
X85126190Y-185927380D02*
X85126190Y-184927380D01*
X83192857Y-184879761D02*
X84049999Y-186165476D01*
X82307142Y-185641666D02*
X81830952Y-185641666D01*
X82402380Y-185927380D02*
X82069047Y-184927380D01*
X82069047Y-184927380D02*
X81735714Y-185927380D01*
X81402380Y-184927380D02*
X81402380Y-185736904D01*
X81402380Y-185736904D02*
X81354761Y-185832142D01*
X81354761Y-185832142D02*
X81307142Y-185879761D01*
X81307142Y-185879761D02*
X81211904Y-185927380D01*
X81211904Y-185927380D02*
X81021428Y-185927380D01*
X81021428Y-185927380D02*
X80926190Y-185879761D01*
X80926190Y-185879761D02*
X80878571Y-185832142D01*
X80878571Y-185832142D02*
X80830952Y-185736904D01*
X80830952Y-185736904D02*
X80830952Y-184927380D01*
X80354761Y-185927380D02*
X80354761Y-184927380D01*
X80354761Y-184927380D02*
X80116666Y-184927380D01*
X80116666Y-184927380D02*
X79973809Y-184975000D01*
X79973809Y-184975000D02*
X79878571Y-185070238D01*
X79878571Y-185070238D02*
X79830952Y-185165476D01*
X79830952Y-185165476D02*
X79783333Y-185355952D01*
X79783333Y-185355952D02*
X79783333Y-185498809D01*
X79783333Y-185498809D02*
X79830952Y-185689285D01*
X79830952Y-185689285D02*
X79878571Y-185784523D01*
X79878571Y-185784523D02*
X79973809Y-185879761D01*
X79973809Y-185879761D02*
X80116666Y-185927380D01*
X80116666Y-185927380D02*
X80354761Y-185927380D01*
X79354761Y-185927380D02*
X79354761Y-184927380D01*
X78688095Y-184927380D02*
X78497619Y-184927380D01*
X78497619Y-184927380D02*
X78402381Y-184975000D01*
X78402381Y-184975000D02*
X78307143Y-185070238D01*
X78307143Y-185070238D02*
X78259524Y-185260714D01*
X78259524Y-185260714D02*
X78259524Y-185594047D01*
X78259524Y-185594047D02*
X78307143Y-185784523D01*
X78307143Y-185784523D02*
X78402381Y-185879761D01*
X78402381Y-185879761D02*
X78497619Y-185927380D01*
X78497619Y-185927380D02*
X78688095Y-185927380D01*
X78688095Y-185927380D02*
X78783333Y-185879761D01*
X78783333Y-185879761D02*
X78878571Y-185784523D01*
X78878571Y-185784523D02*
X78926190Y-185594047D01*
X78926190Y-185594047D02*
X78926190Y-185260714D01*
X78926190Y-185260714D02*
X78878571Y-185070238D01*
X78878571Y-185070238D02*
X78783333Y-184975000D01*
X78783333Y-184975000D02*
X78688095Y-184927380D01*
X78069048Y-186022619D02*
X77307143Y-186022619D01*
X76735714Y-185403571D02*
X76592857Y-185451190D01*
X76592857Y-185451190D02*
X76545238Y-185498809D01*
X76545238Y-185498809D02*
X76497619Y-185594047D01*
X76497619Y-185594047D02*
X76497619Y-185736904D01*
X76497619Y-185736904D02*
X76545238Y-185832142D01*
X76545238Y-185832142D02*
X76592857Y-185879761D01*
X76592857Y-185879761D02*
X76688095Y-185927380D01*
X76688095Y-185927380D02*
X77069047Y-185927380D01*
X77069047Y-185927380D02*
X77069047Y-184927380D01*
X77069047Y-184927380D02*
X76735714Y-184927380D01*
X76735714Y-184927380D02*
X76640476Y-184975000D01*
X76640476Y-184975000D02*
X76592857Y-185022619D01*
X76592857Y-185022619D02*
X76545238Y-185117857D01*
X76545238Y-185117857D02*
X76545238Y-185213095D01*
X76545238Y-185213095D02*
X76592857Y-185308333D01*
X76592857Y-185308333D02*
X76640476Y-185355952D01*
X76640476Y-185355952D02*
X76735714Y-185403571D01*
X76735714Y-185403571D02*
X77069047Y-185403571D01*
X76069047Y-184927380D02*
X76069047Y-185736904D01*
X76069047Y-185736904D02*
X76021428Y-185832142D01*
X76021428Y-185832142D02*
X75973809Y-185879761D01*
X75973809Y-185879761D02*
X75878571Y-185927380D01*
X75878571Y-185927380D02*
X75688095Y-185927380D01*
X75688095Y-185927380D02*
X75592857Y-185879761D01*
X75592857Y-185879761D02*
X75545238Y-185832142D01*
X75545238Y-185832142D02*
X75497619Y-185736904D01*
X75497619Y-185736904D02*
X75497619Y-184927380D01*
X74688095Y-185403571D02*
X75021428Y-185403571D01*
X75021428Y-185927380D02*
X75021428Y-184927380D01*
X75021428Y-184927380D02*
X74545238Y-184927380D01*
X111476190Y-193747380D02*
X111476190Y-192747380D01*
X111476190Y-192747380D02*
X111095238Y-192747380D01*
X111095238Y-192747380D02*
X111000000Y-192795000D01*
X111000000Y-192795000D02*
X110952381Y-192842619D01*
X110952381Y-192842619D02*
X110904762Y-192937857D01*
X110904762Y-192937857D02*
X110904762Y-193080714D01*
X110904762Y-193080714D02*
X110952381Y-193175952D01*
X110952381Y-193175952D02*
X111000000Y-193223571D01*
X111000000Y-193223571D02*
X111095238Y-193271190D01*
X111095238Y-193271190D02*
X111476190Y-193271190D01*
X110047619Y-193747380D02*
X110047619Y-193223571D01*
X110047619Y-193223571D02*
X110095238Y-193128333D01*
X110095238Y-193128333D02*
X110190476Y-193080714D01*
X110190476Y-193080714D02*
X110380952Y-193080714D01*
X110380952Y-193080714D02*
X110476190Y-193128333D01*
X110047619Y-193699761D02*
X110142857Y-193747380D01*
X110142857Y-193747380D02*
X110380952Y-193747380D01*
X110380952Y-193747380D02*
X110476190Y-193699761D01*
X110476190Y-193699761D02*
X110523809Y-193604523D01*
X110523809Y-193604523D02*
X110523809Y-193509285D01*
X110523809Y-193509285D02*
X110476190Y-193414047D01*
X110476190Y-193414047D02*
X110380952Y-193366428D01*
X110380952Y-193366428D02*
X110142857Y-193366428D01*
X110142857Y-193366428D02*
X110047619Y-193318809D01*
X109571428Y-193080714D02*
X109571428Y-193747380D01*
X109571428Y-193175952D02*
X109523809Y-193128333D01*
X109523809Y-193128333D02*
X109428571Y-193080714D01*
X109428571Y-193080714D02*
X109285714Y-193080714D01*
X109285714Y-193080714D02*
X109190476Y-193128333D01*
X109190476Y-193128333D02*
X109142857Y-193223571D01*
X109142857Y-193223571D02*
X109142857Y-193747380D01*
X108285714Y-193699761D02*
X108380952Y-193747380D01*
X108380952Y-193747380D02*
X108571428Y-193747380D01*
X108571428Y-193747380D02*
X108666666Y-193699761D01*
X108666666Y-193699761D02*
X108714285Y-193604523D01*
X108714285Y-193604523D02*
X108714285Y-193223571D01*
X108714285Y-193223571D02*
X108666666Y-193128333D01*
X108666666Y-193128333D02*
X108571428Y-193080714D01*
X108571428Y-193080714D02*
X108380952Y-193080714D01*
X108380952Y-193080714D02*
X108285714Y-193128333D01*
X108285714Y-193128333D02*
X108238095Y-193223571D01*
X108238095Y-193223571D02*
X108238095Y-193318809D01*
X108238095Y-193318809D02*
X108714285Y-193414047D01*
X107666666Y-193747380D02*
X107761904Y-193699761D01*
X107761904Y-193699761D02*
X107809523Y-193604523D01*
X107809523Y-193604523D02*
X107809523Y-192747380D01*
X106257142Y-193747380D02*
X106257142Y-192747380D01*
X106257142Y-193699761D02*
X106352380Y-193747380D01*
X106352380Y-193747380D02*
X106542856Y-193747380D01*
X106542856Y-193747380D02*
X106638094Y-193699761D01*
X106638094Y-193699761D02*
X106685713Y-193652142D01*
X106685713Y-193652142D02*
X106733332Y-193556904D01*
X106733332Y-193556904D02*
X106733332Y-193271190D01*
X106733332Y-193271190D02*
X106685713Y-193175952D01*
X106685713Y-193175952D02*
X106638094Y-193128333D01*
X106638094Y-193128333D02*
X106542856Y-193080714D01*
X106542856Y-193080714D02*
X106352380Y-193080714D01*
X106352380Y-193080714D02*
X106257142Y-193128333D01*
X105399999Y-193699761D02*
X105495237Y-193747380D01*
X105495237Y-193747380D02*
X105685713Y-193747380D01*
X105685713Y-193747380D02*
X105780951Y-193699761D01*
X105780951Y-193699761D02*
X105828570Y-193604523D01*
X105828570Y-193604523D02*
X105828570Y-193223571D01*
X105828570Y-193223571D02*
X105780951Y-193128333D01*
X105780951Y-193128333D02*
X105685713Y-193080714D01*
X105685713Y-193080714D02*
X105495237Y-193080714D01*
X105495237Y-193080714D02*
X105399999Y-193128333D01*
X105399999Y-193128333D02*
X105352380Y-193223571D01*
X105352380Y-193223571D02*
X105352380Y-193318809D01*
X105352380Y-193318809D02*
X105828570Y-193414047D01*
X104971427Y-193699761D02*
X104876189Y-193747380D01*
X104876189Y-193747380D02*
X104685713Y-193747380D01*
X104685713Y-193747380D02*
X104590475Y-193699761D01*
X104590475Y-193699761D02*
X104542856Y-193604523D01*
X104542856Y-193604523D02*
X104542856Y-193556904D01*
X104542856Y-193556904D02*
X104590475Y-193461666D01*
X104590475Y-193461666D02*
X104685713Y-193414047D01*
X104685713Y-193414047D02*
X104828570Y-193414047D01*
X104828570Y-193414047D02*
X104923808Y-193366428D01*
X104923808Y-193366428D02*
X104971427Y-193271190D01*
X104971427Y-193271190D02*
X104971427Y-193223571D01*
X104971427Y-193223571D02*
X104923808Y-193128333D01*
X104923808Y-193128333D02*
X104828570Y-193080714D01*
X104828570Y-193080714D02*
X104685713Y-193080714D01*
X104685713Y-193080714D02*
X104590475Y-193128333D01*
X104114284Y-193747380D02*
X104114284Y-193080714D01*
X104114284Y-192747380D02*
X104161903Y-192795000D01*
X104161903Y-192795000D02*
X104114284Y-192842619D01*
X104114284Y-192842619D02*
X104066665Y-192795000D01*
X104066665Y-192795000D02*
X104114284Y-192747380D01*
X104114284Y-192747380D02*
X104114284Y-192842619D01*
X103209523Y-193080714D02*
X103209523Y-193890238D01*
X103209523Y-193890238D02*
X103257142Y-193985476D01*
X103257142Y-193985476D02*
X103304761Y-194033095D01*
X103304761Y-194033095D02*
X103399999Y-194080714D01*
X103399999Y-194080714D02*
X103542856Y-194080714D01*
X103542856Y-194080714D02*
X103638094Y-194033095D01*
X103209523Y-193699761D02*
X103304761Y-193747380D01*
X103304761Y-193747380D02*
X103495237Y-193747380D01*
X103495237Y-193747380D02*
X103590475Y-193699761D01*
X103590475Y-193699761D02*
X103638094Y-193652142D01*
X103638094Y-193652142D02*
X103685713Y-193556904D01*
X103685713Y-193556904D02*
X103685713Y-193271190D01*
X103685713Y-193271190D02*
X103638094Y-193175952D01*
X103638094Y-193175952D02*
X103590475Y-193128333D01*
X103590475Y-193128333D02*
X103495237Y-193080714D01*
X103495237Y-193080714D02*
X103304761Y-193080714D01*
X103304761Y-193080714D02*
X103209523Y-193128333D01*
X102733332Y-193080714D02*
X102733332Y-193747380D01*
X102733332Y-193175952D02*
X102685713Y-193128333D01*
X102685713Y-193128333D02*
X102590475Y-193080714D01*
X102590475Y-193080714D02*
X102447618Y-193080714D01*
X102447618Y-193080714D02*
X102352380Y-193128333D01*
X102352380Y-193128333D02*
X102304761Y-193223571D01*
X102304761Y-193223571D02*
X102304761Y-193747380D01*
X101228570Y-193747380D02*
X101228570Y-192747380D01*
X101228570Y-193128333D02*
X101133332Y-193080714D01*
X101133332Y-193080714D02*
X100942856Y-193080714D01*
X100942856Y-193080714D02*
X100847618Y-193128333D01*
X100847618Y-193128333D02*
X100799999Y-193175952D01*
X100799999Y-193175952D02*
X100752380Y-193271190D01*
X100752380Y-193271190D02*
X100752380Y-193556904D01*
X100752380Y-193556904D02*
X100799999Y-193652142D01*
X100799999Y-193652142D02*
X100847618Y-193699761D01*
X100847618Y-193699761D02*
X100942856Y-193747380D01*
X100942856Y-193747380D02*
X101133332Y-193747380D01*
X101133332Y-193747380D02*
X101228570Y-193699761D01*
X100419046Y-193080714D02*
X100180951Y-193747380D01*
X99942856Y-193080714D02*
X100180951Y-193747380D01*
X100180951Y-193747380D02*
X100276189Y-193985476D01*
X100276189Y-193985476D02*
X100323808Y-194033095D01*
X100323808Y-194033095D02*
X100419046Y-194080714D01*
X98390475Y-193747380D02*
X98723808Y-193271190D01*
X98961903Y-193747380D02*
X98961903Y-192747380D01*
X98961903Y-192747380D02*
X98580951Y-192747380D01*
X98580951Y-192747380D02*
X98485713Y-192795000D01*
X98485713Y-192795000D02*
X98438094Y-192842619D01*
X98438094Y-192842619D02*
X98390475Y-192937857D01*
X98390475Y-192937857D02*
X98390475Y-193080714D01*
X98390475Y-193080714D02*
X98438094Y-193175952D01*
X98438094Y-193175952D02*
X98485713Y-193223571D01*
X98485713Y-193223571D02*
X98580951Y-193271190D01*
X98580951Y-193271190D02*
X98961903Y-193271190D01*
X97961903Y-193747380D02*
X97961903Y-193080714D01*
X97961903Y-192747380D02*
X98009522Y-192795000D01*
X98009522Y-192795000D02*
X97961903Y-192842619D01*
X97961903Y-192842619D02*
X97914284Y-192795000D01*
X97914284Y-192795000D02*
X97961903Y-192747380D01*
X97961903Y-192747380D02*
X97961903Y-192842619D01*
X97057142Y-193699761D02*
X97152380Y-193747380D01*
X97152380Y-193747380D02*
X97342856Y-193747380D01*
X97342856Y-193747380D02*
X97438094Y-193699761D01*
X97438094Y-193699761D02*
X97485713Y-193652142D01*
X97485713Y-193652142D02*
X97533332Y-193556904D01*
X97533332Y-193556904D02*
X97533332Y-193271190D01*
X97533332Y-193271190D02*
X97485713Y-193175952D01*
X97485713Y-193175952D02*
X97438094Y-193128333D01*
X97438094Y-193128333D02*
X97342856Y-193080714D01*
X97342856Y-193080714D02*
X97152380Y-193080714D01*
X97152380Y-193080714D02*
X97057142Y-193128333D01*
X96628570Y-193747380D02*
X96628570Y-192747380D01*
X96199999Y-193747380D02*
X96199999Y-193223571D01*
X96199999Y-193223571D02*
X96247618Y-193128333D01*
X96247618Y-193128333D02*
X96342856Y-193080714D01*
X96342856Y-193080714D02*
X96485713Y-193080714D01*
X96485713Y-193080714D02*
X96580951Y-193128333D01*
X96580951Y-193128333D02*
X96628570Y-193175952D01*
X95123808Y-193747380D02*
X95123808Y-192747380D01*
X95123808Y-193223571D02*
X94552380Y-193223571D01*
X94552380Y-193747380D02*
X94552380Y-192747380D01*
X93933332Y-193747380D02*
X94028570Y-193699761D01*
X94028570Y-193699761D02*
X94076189Y-193652142D01*
X94076189Y-193652142D02*
X94123808Y-193556904D01*
X94123808Y-193556904D02*
X94123808Y-193271190D01*
X94123808Y-193271190D02*
X94076189Y-193175952D01*
X94076189Y-193175952D02*
X94028570Y-193128333D01*
X94028570Y-193128333D02*
X93933332Y-193080714D01*
X93933332Y-193080714D02*
X93790475Y-193080714D01*
X93790475Y-193080714D02*
X93695237Y-193128333D01*
X93695237Y-193128333D02*
X93647618Y-193175952D01*
X93647618Y-193175952D02*
X93599999Y-193271190D01*
X93599999Y-193271190D02*
X93599999Y-193556904D01*
X93599999Y-193556904D02*
X93647618Y-193652142D01*
X93647618Y-193652142D02*
X93695237Y-193699761D01*
X93695237Y-193699761D02*
X93790475Y-193747380D01*
X93790475Y-193747380D02*
X93933332Y-193747380D01*
X93028570Y-193747380D02*
X93123808Y-193699761D01*
X93123808Y-193699761D02*
X93171427Y-193604523D01*
X93171427Y-193604523D02*
X93171427Y-192747380D01*
X92647617Y-193747380D02*
X92647617Y-193080714D01*
X92647617Y-193175952D02*
X92599998Y-193128333D01*
X92599998Y-193128333D02*
X92504760Y-193080714D01*
X92504760Y-193080714D02*
X92361903Y-193080714D01*
X92361903Y-193080714D02*
X92266665Y-193128333D01*
X92266665Y-193128333D02*
X92219046Y-193223571D01*
X92219046Y-193223571D02*
X92219046Y-193747380D01*
X92219046Y-193223571D02*
X92171427Y-193128333D01*
X92171427Y-193128333D02*
X92076189Y-193080714D01*
X92076189Y-193080714D02*
X91933332Y-193080714D01*
X91933332Y-193080714D02*
X91838093Y-193128333D01*
X91838093Y-193128333D02*
X91790474Y-193223571D01*
X91790474Y-193223571D02*
X91790474Y-193747380D01*
X90933332Y-193699761D02*
X91028570Y-193747380D01*
X91028570Y-193747380D02*
X91219046Y-193747380D01*
X91219046Y-193747380D02*
X91314284Y-193699761D01*
X91314284Y-193699761D02*
X91361903Y-193604523D01*
X91361903Y-193604523D02*
X91361903Y-193223571D01*
X91361903Y-193223571D02*
X91314284Y-193128333D01*
X91314284Y-193128333D02*
X91219046Y-193080714D01*
X91219046Y-193080714D02*
X91028570Y-193080714D01*
X91028570Y-193080714D02*
X90933332Y-193128333D01*
X90933332Y-193128333D02*
X90885713Y-193223571D01*
X90885713Y-193223571D02*
X90885713Y-193318809D01*
X90885713Y-193318809D02*
X91361903Y-193414047D01*
X90504760Y-193699761D02*
X90409522Y-193747380D01*
X90409522Y-193747380D02*
X90219046Y-193747380D01*
X90219046Y-193747380D02*
X90123808Y-193699761D01*
X90123808Y-193699761D02*
X90076189Y-193604523D01*
X90076189Y-193604523D02*
X90076189Y-193556904D01*
X90076189Y-193556904D02*
X90123808Y-193461666D01*
X90123808Y-193461666D02*
X90219046Y-193414047D01*
X90219046Y-193414047D02*
X90361903Y-193414047D01*
X90361903Y-193414047D02*
X90457141Y-193366428D01*
X90457141Y-193366428D02*
X90504760Y-193271190D01*
X90504760Y-193271190D02*
X90504760Y-193223571D01*
X90504760Y-193223571D02*
X90457141Y-193128333D01*
X90457141Y-193128333D02*
X90361903Y-193080714D01*
X90361903Y-193080714D02*
X90219046Y-193080714D01*
X90219046Y-193080714D02*
X90123808Y-193128333D01*
X107019047Y-194367380D02*
X106923809Y-194367380D01*
X106923809Y-194367380D02*
X106828571Y-194415000D01*
X106828571Y-194415000D02*
X106780952Y-194462619D01*
X106780952Y-194462619D02*
X106733333Y-194557857D01*
X106733333Y-194557857D02*
X106685714Y-194748333D01*
X106685714Y-194748333D02*
X106685714Y-194986428D01*
X106685714Y-194986428D02*
X106733333Y-195176904D01*
X106733333Y-195176904D02*
X106780952Y-195272142D01*
X106780952Y-195272142D02*
X106828571Y-195319761D01*
X106828571Y-195319761D02*
X106923809Y-195367380D01*
X106923809Y-195367380D02*
X107019047Y-195367380D01*
X107019047Y-195367380D02*
X107114285Y-195319761D01*
X107114285Y-195319761D02*
X107161904Y-195272142D01*
X107161904Y-195272142D02*
X107209523Y-195176904D01*
X107209523Y-195176904D02*
X107257142Y-194986428D01*
X107257142Y-194986428D02*
X107257142Y-194748333D01*
X107257142Y-194748333D02*
X107209523Y-194557857D01*
X107209523Y-194557857D02*
X107161904Y-194462619D01*
X107161904Y-194462619D02*
X107114285Y-194415000D01*
X107114285Y-194415000D02*
X107019047Y-194367380D01*
X106304761Y-194462619D02*
X106257142Y-194415000D01*
X106257142Y-194415000D02*
X106161904Y-194367380D01*
X106161904Y-194367380D02*
X105923809Y-194367380D01*
X105923809Y-194367380D02*
X105828571Y-194415000D01*
X105828571Y-194415000D02*
X105780952Y-194462619D01*
X105780952Y-194462619D02*
X105733333Y-194557857D01*
X105733333Y-194557857D02*
X105733333Y-194653095D01*
X105733333Y-194653095D02*
X105780952Y-194795952D01*
X105780952Y-194795952D02*
X106352380Y-195367380D01*
X106352380Y-195367380D02*
X105733333Y-195367380D01*
X104590476Y-194319761D02*
X105447618Y-195605476D01*
X104304761Y-194462619D02*
X104257142Y-194415000D01*
X104257142Y-194415000D02*
X104161904Y-194367380D01*
X104161904Y-194367380D02*
X103923809Y-194367380D01*
X103923809Y-194367380D02*
X103828571Y-194415000D01*
X103828571Y-194415000D02*
X103780952Y-194462619D01*
X103780952Y-194462619D02*
X103733333Y-194557857D01*
X103733333Y-194557857D02*
X103733333Y-194653095D01*
X103733333Y-194653095D02*
X103780952Y-194795952D01*
X103780952Y-194795952D02*
X104352380Y-195367380D01*
X104352380Y-195367380D02*
X103733333Y-195367380D01*
X103114285Y-194367380D02*
X103019047Y-194367380D01*
X103019047Y-194367380D02*
X102923809Y-194415000D01*
X102923809Y-194415000D02*
X102876190Y-194462619D01*
X102876190Y-194462619D02*
X102828571Y-194557857D01*
X102828571Y-194557857D02*
X102780952Y-194748333D01*
X102780952Y-194748333D02*
X102780952Y-194986428D01*
X102780952Y-194986428D02*
X102828571Y-195176904D01*
X102828571Y-195176904D02*
X102876190Y-195272142D01*
X102876190Y-195272142D02*
X102923809Y-195319761D01*
X102923809Y-195319761D02*
X103019047Y-195367380D01*
X103019047Y-195367380D02*
X103114285Y-195367380D01*
X103114285Y-195367380D02*
X103209523Y-195319761D01*
X103209523Y-195319761D02*
X103257142Y-195272142D01*
X103257142Y-195272142D02*
X103304761Y-195176904D01*
X103304761Y-195176904D02*
X103352380Y-194986428D01*
X103352380Y-194986428D02*
X103352380Y-194748333D01*
X103352380Y-194748333D02*
X103304761Y-194557857D01*
X103304761Y-194557857D02*
X103257142Y-194462619D01*
X103257142Y-194462619D02*
X103209523Y-194415000D01*
X103209523Y-194415000D02*
X103114285Y-194367380D01*
X102399999Y-194462619D02*
X102352380Y-194415000D01*
X102352380Y-194415000D02*
X102257142Y-194367380D01*
X102257142Y-194367380D02*
X102019047Y-194367380D01*
X102019047Y-194367380D02*
X101923809Y-194415000D01*
X101923809Y-194415000D02*
X101876190Y-194462619D01*
X101876190Y-194462619D02*
X101828571Y-194557857D01*
X101828571Y-194557857D02*
X101828571Y-194653095D01*
X101828571Y-194653095D02*
X101876190Y-194795952D01*
X101876190Y-194795952D02*
X102447618Y-195367380D01*
X102447618Y-195367380D02*
X101828571Y-195367380D01*
X101495237Y-194367380D02*
X100876190Y-194367380D01*
X100876190Y-194367380D02*
X101209523Y-194748333D01*
X101209523Y-194748333D02*
X101066666Y-194748333D01*
X101066666Y-194748333D02*
X100971428Y-194795952D01*
X100971428Y-194795952D02*
X100923809Y-194843571D01*
X100923809Y-194843571D02*
X100876190Y-194938809D01*
X100876190Y-194938809D02*
X100876190Y-195176904D01*
X100876190Y-195176904D02*
X100923809Y-195272142D01*
X100923809Y-195272142D02*
X100971428Y-195319761D01*
X100971428Y-195319761D02*
X101066666Y-195367380D01*
X101066666Y-195367380D02*
X101352380Y-195367380D01*
X101352380Y-195367380D02*
X101447618Y-195319761D01*
X101447618Y-195319761D02*
X101495237Y-195272142D01*
X99276190Y-195272142D02*
X99323809Y-195319761D01*
X99323809Y-195319761D02*
X99466666Y-195367380D01*
X99466666Y-195367380D02*
X99561904Y-195367380D01*
X99561904Y-195367380D02*
X99704761Y-195319761D01*
X99704761Y-195319761D02*
X99799999Y-195224523D01*
X99799999Y-195224523D02*
X99847618Y-195129285D01*
X99847618Y-195129285D02*
X99895237Y-194938809D01*
X99895237Y-194938809D02*
X99895237Y-194795952D01*
X99895237Y-194795952D02*
X99847618Y-194605476D01*
X99847618Y-194605476D02*
X99799999Y-194510238D01*
X99799999Y-194510238D02*
X99704761Y-194415000D01*
X99704761Y-194415000D02*
X99561904Y-194367380D01*
X99561904Y-194367380D02*
X99466666Y-194367380D01*
X99466666Y-194367380D02*
X99323809Y-194415000D01*
X99323809Y-194415000D02*
X99276190Y-194462619D01*
X98276190Y-195272142D02*
X98323809Y-195319761D01*
X98323809Y-195319761D02*
X98466666Y-195367380D01*
X98466666Y-195367380D02*
X98561904Y-195367380D01*
X98561904Y-195367380D02*
X98704761Y-195319761D01*
X98704761Y-195319761D02*
X98799999Y-195224523D01*
X98799999Y-195224523D02*
X98847618Y-195129285D01*
X98847618Y-195129285D02*
X98895237Y-194938809D01*
X98895237Y-194938809D02*
X98895237Y-194795952D01*
X98895237Y-194795952D02*
X98847618Y-194605476D01*
X98847618Y-194605476D02*
X98799999Y-194510238D01*
X98799999Y-194510238D02*
X98704761Y-194415000D01*
X98704761Y-194415000D02*
X98561904Y-194367380D01*
X98561904Y-194367380D02*
X98466666Y-194367380D01*
X98466666Y-194367380D02*
X98323809Y-194415000D01*
X98323809Y-194415000D02*
X98276190Y-194462619D01*
X97657142Y-194367380D02*
X97561904Y-194367380D01*
X97561904Y-194367380D02*
X97466666Y-194415000D01*
X97466666Y-194415000D02*
X97419047Y-194462619D01*
X97419047Y-194462619D02*
X97371428Y-194557857D01*
X97371428Y-194557857D02*
X97323809Y-194748333D01*
X97323809Y-194748333D02*
X97323809Y-194986428D01*
X97323809Y-194986428D02*
X97371428Y-195176904D01*
X97371428Y-195176904D02*
X97419047Y-195272142D01*
X97419047Y-195272142D02*
X97466666Y-195319761D01*
X97466666Y-195319761D02*
X97561904Y-195367380D01*
X97561904Y-195367380D02*
X97657142Y-195367380D01*
X97657142Y-195367380D02*
X97752380Y-195319761D01*
X97752380Y-195319761D02*
X97799999Y-195272142D01*
X97799999Y-195272142D02*
X97847618Y-195176904D01*
X97847618Y-195176904D02*
X97895237Y-194986428D01*
X97895237Y-194986428D02*
X97895237Y-194748333D01*
X97895237Y-194748333D02*
X97847618Y-194557857D01*
X97847618Y-194557857D02*
X97799999Y-194462619D01*
X97799999Y-194462619D02*
X97752380Y-194415000D01*
X97752380Y-194415000D02*
X97657142Y-194367380D01*
X95771428Y-195367380D02*
X96342856Y-195367380D01*
X96057142Y-195367380D02*
X96057142Y-194367380D01*
X96057142Y-194367380D02*
X96152380Y-194510238D01*
X96152380Y-194510238D02*
X96247618Y-194605476D01*
X96247618Y-194605476D02*
X96342856Y-194653095D01*
X95342856Y-195272142D02*
X95295237Y-195319761D01*
X95295237Y-195319761D02*
X95342856Y-195367380D01*
X95342856Y-195367380D02*
X95390475Y-195319761D01*
X95390475Y-195319761D02*
X95342856Y-195272142D01*
X95342856Y-195272142D02*
X95342856Y-195367380D01*
X94676190Y-194367380D02*
X94580952Y-194367380D01*
X94580952Y-194367380D02*
X94485714Y-194415000D01*
X94485714Y-194415000D02*
X94438095Y-194462619D01*
X94438095Y-194462619D02*
X94390476Y-194557857D01*
X94390476Y-194557857D02*
X94342857Y-194748333D01*
X94342857Y-194748333D02*
X94342857Y-194986428D01*
X94342857Y-194986428D02*
X94390476Y-195176904D01*
X94390476Y-195176904D02*
X94438095Y-195272142D01*
X94438095Y-195272142D02*
X94485714Y-195319761D01*
X94485714Y-195319761D02*
X94580952Y-195367380D01*
X94580952Y-195367380D02*
X94676190Y-195367380D01*
X94676190Y-195367380D02*
X94771428Y-195319761D01*
X94771428Y-195319761D02*
X94819047Y-195272142D01*
X94819047Y-195272142D02*
X94866666Y-195176904D01*
X94866666Y-195176904D02*
X94914285Y-194986428D01*
X94914285Y-194986428D02*
X94914285Y-194748333D01*
X94914285Y-194748333D02*
X94866666Y-194557857D01*
X94866666Y-194557857D02*
X94819047Y-194462619D01*
X94819047Y-194462619D02*
X94771428Y-194415000D01*
X94771428Y-194415000D02*
X94676190Y-194367380D01*
X105419048Y-195987380D02*
X105419048Y-196701666D01*
X105419048Y-196701666D02*
X105466667Y-196844523D01*
X105466667Y-196844523D02*
X105561905Y-196939761D01*
X105561905Y-196939761D02*
X105704762Y-196987380D01*
X105704762Y-196987380D02*
X105800000Y-196987380D01*
X104466667Y-196987380D02*
X104942857Y-196987380D01*
X104942857Y-196987380D02*
X104942857Y-195987380D01*
X103561905Y-196892142D02*
X103609524Y-196939761D01*
X103609524Y-196939761D02*
X103752381Y-196987380D01*
X103752381Y-196987380D02*
X103847619Y-196987380D01*
X103847619Y-196987380D02*
X103990476Y-196939761D01*
X103990476Y-196939761D02*
X104085714Y-196844523D01*
X104085714Y-196844523D02*
X104133333Y-196749285D01*
X104133333Y-196749285D02*
X104180952Y-196558809D01*
X104180952Y-196558809D02*
X104180952Y-196415952D01*
X104180952Y-196415952D02*
X104133333Y-196225476D01*
X104133333Y-196225476D02*
X104085714Y-196130238D01*
X104085714Y-196130238D02*
X103990476Y-196035000D01*
X103990476Y-196035000D02*
X103847619Y-195987380D01*
X103847619Y-195987380D02*
X103752381Y-195987380D01*
X103752381Y-195987380D02*
X103609524Y-196035000D01*
X103609524Y-196035000D02*
X103561905Y-196082619D01*
X102847619Y-195987380D02*
X102847619Y-196701666D01*
X102847619Y-196701666D02*
X102895238Y-196844523D01*
X102895238Y-196844523D02*
X102990476Y-196939761D01*
X102990476Y-196939761D02*
X103133333Y-196987380D01*
X103133333Y-196987380D02*
X103228571Y-196987380D01*
X101895238Y-196987380D02*
X102371428Y-196987380D01*
X102371428Y-196987380D02*
X102371428Y-195987380D01*
X100990476Y-196892142D02*
X101038095Y-196939761D01*
X101038095Y-196939761D02*
X101180952Y-196987380D01*
X101180952Y-196987380D02*
X101276190Y-196987380D01*
X101276190Y-196987380D02*
X101419047Y-196939761D01*
X101419047Y-196939761D02*
X101514285Y-196844523D01*
X101514285Y-196844523D02*
X101561904Y-196749285D01*
X101561904Y-196749285D02*
X101609523Y-196558809D01*
X101609523Y-196558809D02*
X101609523Y-196415952D01*
X101609523Y-196415952D02*
X101561904Y-196225476D01*
X101561904Y-196225476D02*
X101514285Y-196130238D01*
X101514285Y-196130238D02*
X101419047Y-196035000D01*
X101419047Y-196035000D02*
X101276190Y-195987380D01*
X101276190Y-195987380D02*
X101180952Y-195987380D01*
X101180952Y-195987380D02*
X101038095Y-196035000D01*
X101038095Y-196035000D02*
X100990476Y-196082619D01*
X100276190Y-195987380D02*
X100276190Y-196701666D01*
X100276190Y-196701666D02*
X100323809Y-196844523D01*
X100323809Y-196844523D02*
X100419047Y-196939761D01*
X100419047Y-196939761D02*
X100561904Y-196987380D01*
X100561904Y-196987380D02*
X100657142Y-196987380D01*
X99323809Y-196987380D02*
X99799999Y-196987380D01*
X99799999Y-196987380D02*
X99799999Y-195987380D01*
X98419047Y-196892142D02*
X98466666Y-196939761D01*
X98466666Y-196939761D02*
X98609523Y-196987380D01*
X98609523Y-196987380D02*
X98704761Y-196987380D01*
X98704761Y-196987380D02*
X98847618Y-196939761D01*
X98847618Y-196939761D02*
X98942856Y-196844523D01*
X98942856Y-196844523D02*
X98990475Y-196749285D01*
X98990475Y-196749285D02*
X99038094Y-196558809D01*
X99038094Y-196558809D02*
X99038094Y-196415952D01*
X99038094Y-196415952D02*
X98990475Y-196225476D01*
X98990475Y-196225476D02*
X98942856Y-196130238D01*
X98942856Y-196130238D02*
X98847618Y-196035000D01*
X98847618Y-196035000D02*
X98704761Y-195987380D01*
X98704761Y-195987380D02*
X98609523Y-195987380D01*
X98609523Y-195987380D02*
X98466666Y-196035000D01*
X98466666Y-196035000D02*
X98419047Y-196082619D01*
X97704761Y-195987380D02*
X97704761Y-196701666D01*
X97704761Y-196701666D02*
X97752380Y-196844523D01*
X97752380Y-196844523D02*
X97847618Y-196939761D01*
X97847618Y-196939761D02*
X97990475Y-196987380D01*
X97990475Y-196987380D02*
X98085713Y-196987380D01*
X96752380Y-196987380D02*
X97228570Y-196987380D01*
X97228570Y-196987380D02*
X97228570Y-195987380D01*
X95847618Y-196892142D02*
X95895237Y-196939761D01*
X95895237Y-196939761D02*
X96038094Y-196987380D01*
X96038094Y-196987380D02*
X96133332Y-196987380D01*
X96133332Y-196987380D02*
X96276189Y-196939761D01*
X96276189Y-196939761D02*
X96371427Y-196844523D01*
X96371427Y-196844523D02*
X96419046Y-196749285D01*
X96419046Y-196749285D02*
X96466665Y-196558809D01*
X96466665Y-196558809D02*
X96466665Y-196415952D01*
X96466665Y-196415952D02*
X96419046Y-196225476D01*
X96419046Y-196225476D02*
X96371427Y-196130238D01*
X96371427Y-196130238D02*
X96276189Y-196035000D01*
X96276189Y-196035000D02*
X96133332Y-195987380D01*
X96133332Y-195987380D02*
X96038094Y-195987380D01*
X96038094Y-195987380D02*
X95895237Y-196035000D01*
X95895237Y-196035000D02*
X95847618Y-196082619D01*
X141657142Y-186271666D02*
X141180952Y-186271666D01*
X141752380Y-186557380D02*
X141419047Y-185557380D01*
X141419047Y-185557380D02*
X141085714Y-186557380D01*
X140323809Y-185890714D02*
X140323809Y-186557380D01*
X140752380Y-185890714D02*
X140752380Y-186414523D01*
X140752380Y-186414523D02*
X140704761Y-186509761D01*
X140704761Y-186509761D02*
X140609523Y-186557380D01*
X140609523Y-186557380D02*
X140466666Y-186557380D01*
X140466666Y-186557380D02*
X140371428Y-186509761D01*
X140371428Y-186509761D02*
X140323809Y-186462142D01*
X139419047Y-186557380D02*
X139419047Y-185557380D01*
X139419047Y-186509761D02*
X139514285Y-186557380D01*
X139514285Y-186557380D02*
X139704761Y-186557380D01*
X139704761Y-186557380D02*
X139799999Y-186509761D01*
X139799999Y-186509761D02*
X139847618Y-186462142D01*
X139847618Y-186462142D02*
X139895237Y-186366904D01*
X139895237Y-186366904D02*
X139895237Y-186081190D01*
X139895237Y-186081190D02*
X139847618Y-185985952D01*
X139847618Y-185985952D02*
X139799999Y-185938333D01*
X139799999Y-185938333D02*
X139704761Y-185890714D01*
X139704761Y-185890714D02*
X139514285Y-185890714D01*
X139514285Y-185890714D02*
X139419047Y-185938333D01*
X138942856Y-186557380D02*
X138942856Y-185890714D01*
X138942856Y-185557380D02*
X138990475Y-185605000D01*
X138990475Y-185605000D02*
X138942856Y-185652619D01*
X138942856Y-185652619D02*
X138895237Y-185605000D01*
X138895237Y-185605000D02*
X138942856Y-185557380D01*
X138942856Y-185557380D02*
X138942856Y-185652619D01*
X138323809Y-186557380D02*
X138419047Y-186509761D01*
X138419047Y-186509761D02*
X138466666Y-186462142D01*
X138466666Y-186462142D02*
X138514285Y-186366904D01*
X138514285Y-186366904D02*
X138514285Y-186081190D01*
X138514285Y-186081190D02*
X138466666Y-185985952D01*
X138466666Y-185985952D02*
X138419047Y-185938333D01*
X138419047Y-185938333D02*
X138323809Y-185890714D01*
X138323809Y-185890714D02*
X138180952Y-185890714D01*
X138180952Y-185890714D02*
X138085714Y-185938333D01*
X138085714Y-185938333D02*
X138038095Y-185985952D01*
X138038095Y-185985952D02*
X137990476Y-186081190D01*
X137990476Y-186081190D02*
X137990476Y-186366904D01*
X137990476Y-186366904D02*
X138038095Y-186462142D01*
X138038095Y-186462142D02*
X138085714Y-186509761D01*
X138085714Y-186509761D02*
X138180952Y-186557380D01*
X138180952Y-186557380D02*
X138323809Y-186557380D01*
X136961904Y-185890714D02*
X136961904Y-186747857D01*
X136961904Y-186747857D02*
X137009523Y-186843095D01*
X137009523Y-186843095D02*
X137104761Y-186890714D01*
X137104761Y-186890714D02*
X137152380Y-186890714D01*
X136961904Y-185557380D02*
X137009523Y-185605000D01*
X137009523Y-185605000D02*
X136961904Y-185652619D01*
X136961904Y-185652619D02*
X136914285Y-185605000D01*
X136914285Y-185605000D02*
X136961904Y-185557380D01*
X136961904Y-185557380D02*
X136961904Y-185652619D01*
X136057143Y-186557380D02*
X136057143Y-186033571D01*
X136057143Y-186033571D02*
X136104762Y-185938333D01*
X136104762Y-185938333D02*
X136200000Y-185890714D01*
X136200000Y-185890714D02*
X136390476Y-185890714D01*
X136390476Y-185890714D02*
X136485714Y-185938333D01*
X136057143Y-186509761D02*
X136152381Y-186557380D01*
X136152381Y-186557380D02*
X136390476Y-186557380D01*
X136390476Y-186557380D02*
X136485714Y-186509761D01*
X136485714Y-186509761D02*
X136533333Y-186414523D01*
X136533333Y-186414523D02*
X136533333Y-186319285D01*
X136533333Y-186319285D02*
X136485714Y-186224047D01*
X136485714Y-186224047D02*
X136390476Y-186176428D01*
X136390476Y-186176428D02*
X136152381Y-186176428D01*
X136152381Y-186176428D02*
X136057143Y-186128809D01*
X135152381Y-186509761D02*
X135247619Y-186557380D01*
X135247619Y-186557380D02*
X135438095Y-186557380D01*
X135438095Y-186557380D02*
X135533333Y-186509761D01*
X135533333Y-186509761D02*
X135580952Y-186462142D01*
X135580952Y-186462142D02*
X135628571Y-186366904D01*
X135628571Y-186366904D02*
X135628571Y-186081190D01*
X135628571Y-186081190D02*
X135580952Y-185985952D01*
X135580952Y-185985952D02*
X135533333Y-185938333D01*
X135533333Y-185938333D02*
X135438095Y-185890714D01*
X135438095Y-185890714D02*
X135247619Y-185890714D01*
X135247619Y-185890714D02*
X135152381Y-185938333D01*
X134723809Y-186557380D02*
X134723809Y-185557380D01*
X134628571Y-186176428D02*
X134342857Y-186557380D01*
X134342857Y-185890714D02*
X134723809Y-186271666D01*
X145014285Y-187510714D02*
X144633333Y-187510714D01*
X144871428Y-187177380D02*
X144871428Y-188034523D01*
X144871428Y-188034523D02*
X144823809Y-188129761D01*
X144823809Y-188129761D02*
X144728571Y-188177380D01*
X144728571Y-188177380D02*
X144633333Y-188177380D01*
X144157142Y-188177380D02*
X144252380Y-188129761D01*
X144252380Y-188129761D02*
X144299999Y-188082142D01*
X144299999Y-188082142D02*
X144347618Y-187986904D01*
X144347618Y-187986904D02*
X144347618Y-187701190D01*
X144347618Y-187701190D02*
X144299999Y-187605952D01*
X144299999Y-187605952D02*
X144252380Y-187558333D01*
X144252380Y-187558333D02*
X144157142Y-187510714D01*
X144157142Y-187510714D02*
X144014285Y-187510714D01*
X144014285Y-187510714D02*
X143919047Y-187558333D01*
X143919047Y-187558333D02*
X143871428Y-187605952D01*
X143871428Y-187605952D02*
X143823809Y-187701190D01*
X143823809Y-187701190D02*
X143823809Y-187986904D01*
X143823809Y-187986904D02*
X143871428Y-188082142D01*
X143871428Y-188082142D02*
X143919047Y-188129761D01*
X143919047Y-188129761D02*
X144014285Y-188177380D01*
X144014285Y-188177380D02*
X144157142Y-188177380D01*
X142842856Y-187891666D02*
X142366666Y-187891666D01*
X142938094Y-188177380D02*
X142604761Y-187177380D01*
X142604761Y-187177380D02*
X142271428Y-188177380D01*
X141938094Y-187177380D02*
X141938094Y-187986904D01*
X141938094Y-187986904D02*
X141890475Y-188082142D01*
X141890475Y-188082142D02*
X141842856Y-188129761D01*
X141842856Y-188129761D02*
X141747618Y-188177380D01*
X141747618Y-188177380D02*
X141557142Y-188177380D01*
X141557142Y-188177380D02*
X141461904Y-188129761D01*
X141461904Y-188129761D02*
X141414285Y-188082142D01*
X141414285Y-188082142D02*
X141366666Y-187986904D01*
X141366666Y-187986904D02*
X141366666Y-187177380D01*
X140890475Y-188177380D02*
X140890475Y-187177380D01*
X140890475Y-187177380D02*
X140652380Y-187177380D01*
X140652380Y-187177380D02*
X140509523Y-187225000D01*
X140509523Y-187225000D02*
X140414285Y-187320238D01*
X140414285Y-187320238D02*
X140366666Y-187415476D01*
X140366666Y-187415476D02*
X140319047Y-187605952D01*
X140319047Y-187605952D02*
X140319047Y-187748809D01*
X140319047Y-187748809D02*
X140366666Y-187939285D01*
X140366666Y-187939285D02*
X140414285Y-188034523D01*
X140414285Y-188034523D02*
X140509523Y-188129761D01*
X140509523Y-188129761D02*
X140652380Y-188177380D01*
X140652380Y-188177380D02*
X140890475Y-188177380D01*
X139890475Y-188177380D02*
X139890475Y-187177380D01*
X139223809Y-187177380D02*
X139033333Y-187177380D01*
X139033333Y-187177380D02*
X138938095Y-187225000D01*
X138938095Y-187225000D02*
X138842857Y-187320238D01*
X138842857Y-187320238D02*
X138795238Y-187510714D01*
X138795238Y-187510714D02*
X138795238Y-187844047D01*
X138795238Y-187844047D02*
X138842857Y-188034523D01*
X138842857Y-188034523D02*
X138938095Y-188129761D01*
X138938095Y-188129761D02*
X139033333Y-188177380D01*
X139033333Y-188177380D02*
X139223809Y-188177380D01*
X139223809Y-188177380D02*
X139319047Y-188129761D01*
X139319047Y-188129761D02*
X139414285Y-188034523D01*
X139414285Y-188034523D02*
X139461904Y-187844047D01*
X139461904Y-187844047D02*
X139461904Y-187510714D01*
X139461904Y-187510714D02*
X139414285Y-187320238D01*
X139414285Y-187320238D02*
X139319047Y-187225000D01*
X139319047Y-187225000D02*
X139223809Y-187177380D01*
X138604762Y-188272619D02*
X137842857Y-188272619D01*
X137747618Y-187177380D02*
X137176190Y-187177380D01*
X137461904Y-188177380D02*
X137461904Y-187177380D01*
X136842856Y-188177380D02*
X136842856Y-187177380D01*
X136842856Y-187653571D02*
X136271428Y-187653571D01*
X136271428Y-188177380D02*
X136271428Y-187177380D01*
X135223809Y-188177380D02*
X135557142Y-187701190D01*
X135795237Y-188177380D02*
X135795237Y-187177380D01*
X135795237Y-187177380D02*
X135414285Y-187177380D01*
X135414285Y-187177380D02*
X135319047Y-187225000D01*
X135319047Y-187225000D02*
X135271428Y-187272619D01*
X135271428Y-187272619D02*
X135223809Y-187367857D01*
X135223809Y-187367857D02*
X135223809Y-187510714D01*
X135223809Y-187510714D02*
X135271428Y-187605952D01*
X135271428Y-187605952D02*
X135319047Y-187653571D01*
X135319047Y-187653571D02*
X135414285Y-187701190D01*
X135414285Y-187701190D02*
X135795237Y-187701190D01*
X134604761Y-187177380D02*
X134414285Y-187177380D01*
X134414285Y-187177380D02*
X134319047Y-187225000D01*
X134319047Y-187225000D02*
X134223809Y-187320238D01*
X134223809Y-187320238D02*
X134176190Y-187510714D01*
X134176190Y-187510714D02*
X134176190Y-187844047D01*
X134176190Y-187844047D02*
X134223809Y-188034523D01*
X134223809Y-188034523D02*
X134319047Y-188129761D01*
X134319047Y-188129761D02*
X134414285Y-188177380D01*
X134414285Y-188177380D02*
X134604761Y-188177380D01*
X134604761Y-188177380D02*
X134699999Y-188129761D01*
X134699999Y-188129761D02*
X134795237Y-188034523D01*
X134795237Y-188034523D02*
X134842856Y-187844047D01*
X134842856Y-187844047D02*
X134842856Y-187510714D01*
X134842856Y-187510714D02*
X134795237Y-187320238D01*
X134795237Y-187320238D02*
X134699999Y-187225000D01*
X134699999Y-187225000D02*
X134604761Y-187177380D01*
X133747618Y-187177380D02*
X133747618Y-187986904D01*
X133747618Y-187986904D02*
X133699999Y-188082142D01*
X133699999Y-188082142D02*
X133652380Y-188129761D01*
X133652380Y-188129761D02*
X133557142Y-188177380D01*
X133557142Y-188177380D02*
X133366666Y-188177380D01*
X133366666Y-188177380D02*
X133271428Y-188129761D01*
X133271428Y-188129761D02*
X133223809Y-188082142D01*
X133223809Y-188082142D02*
X133176190Y-187986904D01*
X133176190Y-187986904D02*
X133176190Y-187177380D01*
X132176190Y-187225000D02*
X132271428Y-187177380D01*
X132271428Y-187177380D02*
X132414285Y-187177380D01*
X132414285Y-187177380D02*
X132557142Y-187225000D01*
X132557142Y-187225000D02*
X132652380Y-187320238D01*
X132652380Y-187320238D02*
X132699999Y-187415476D01*
X132699999Y-187415476D02*
X132747618Y-187605952D01*
X132747618Y-187605952D02*
X132747618Y-187748809D01*
X132747618Y-187748809D02*
X132699999Y-187939285D01*
X132699999Y-187939285D02*
X132652380Y-188034523D01*
X132652380Y-188034523D02*
X132557142Y-188129761D01*
X132557142Y-188129761D02*
X132414285Y-188177380D01*
X132414285Y-188177380D02*
X132319047Y-188177380D01*
X132319047Y-188177380D02*
X132176190Y-188129761D01*
X132176190Y-188129761D02*
X132128571Y-188082142D01*
X132128571Y-188082142D02*
X132128571Y-187748809D01*
X132128571Y-187748809D02*
X132319047Y-187748809D01*
X131699999Y-188177380D02*
X131699999Y-187177380D01*
X131699999Y-187653571D02*
X131128571Y-187653571D01*
X131128571Y-188177380D02*
X131128571Y-187177380D01*
X64776190Y-188033571D02*
X64633333Y-188081190D01*
X64633333Y-188081190D02*
X64585714Y-188128809D01*
X64585714Y-188128809D02*
X64538095Y-188224047D01*
X64538095Y-188224047D02*
X64538095Y-188366904D01*
X64538095Y-188366904D02*
X64585714Y-188462142D01*
X64585714Y-188462142D02*
X64633333Y-188509761D01*
X64633333Y-188509761D02*
X64728571Y-188557380D01*
X64728571Y-188557380D02*
X65109523Y-188557380D01*
X65109523Y-188557380D02*
X65109523Y-187557380D01*
X65109523Y-187557380D02*
X64776190Y-187557380D01*
X64776190Y-187557380D02*
X64680952Y-187605000D01*
X64680952Y-187605000D02*
X64633333Y-187652619D01*
X64633333Y-187652619D02*
X64585714Y-187747857D01*
X64585714Y-187747857D02*
X64585714Y-187843095D01*
X64585714Y-187843095D02*
X64633333Y-187938333D01*
X64633333Y-187938333D02*
X64680952Y-187985952D01*
X64680952Y-187985952D02*
X64776190Y-188033571D01*
X64776190Y-188033571D02*
X65109523Y-188033571D01*
X64109523Y-188557380D02*
X64109523Y-187557380D01*
X64109523Y-187557380D02*
X63538095Y-188557380D01*
X63538095Y-188557380D02*
X63538095Y-187557380D01*
X62490476Y-188462142D02*
X62538095Y-188509761D01*
X62538095Y-188509761D02*
X62680952Y-188557380D01*
X62680952Y-188557380D02*
X62776190Y-188557380D01*
X62776190Y-188557380D02*
X62919047Y-188509761D01*
X62919047Y-188509761D02*
X63014285Y-188414523D01*
X63014285Y-188414523D02*
X63061904Y-188319285D01*
X63061904Y-188319285D02*
X63109523Y-188128809D01*
X63109523Y-188128809D02*
X63109523Y-187985952D01*
X63109523Y-187985952D02*
X63061904Y-187795476D01*
X63061904Y-187795476D02*
X63014285Y-187700238D01*
X63014285Y-187700238D02*
X62919047Y-187605000D01*
X62919047Y-187605000D02*
X62776190Y-187557380D01*
X62776190Y-187557380D02*
X62680952Y-187557380D01*
X62680952Y-187557380D02*
X62538095Y-187605000D01*
X62538095Y-187605000D02*
X62490476Y-187652619D01*
X61461904Y-187890714D02*
X61461904Y-188747857D01*
X61461904Y-188747857D02*
X61509523Y-188843095D01*
X61509523Y-188843095D02*
X61604761Y-188890714D01*
X61604761Y-188890714D02*
X61652380Y-188890714D01*
X61461904Y-187557380D02*
X61509523Y-187605000D01*
X61509523Y-187605000D02*
X61461904Y-187652619D01*
X61461904Y-187652619D02*
X61414285Y-187605000D01*
X61414285Y-187605000D02*
X61461904Y-187557380D01*
X61461904Y-187557380D02*
X61461904Y-187652619D01*
X60557143Y-188557380D02*
X60557143Y-188033571D01*
X60557143Y-188033571D02*
X60604762Y-187938333D01*
X60604762Y-187938333D02*
X60700000Y-187890714D01*
X60700000Y-187890714D02*
X60890476Y-187890714D01*
X60890476Y-187890714D02*
X60985714Y-187938333D01*
X60557143Y-188509761D02*
X60652381Y-188557380D01*
X60652381Y-188557380D02*
X60890476Y-188557380D01*
X60890476Y-188557380D02*
X60985714Y-188509761D01*
X60985714Y-188509761D02*
X61033333Y-188414523D01*
X61033333Y-188414523D02*
X61033333Y-188319285D01*
X61033333Y-188319285D02*
X60985714Y-188224047D01*
X60985714Y-188224047D02*
X60890476Y-188176428D01*
X60890476Y-188176428D02*
X60652381Y-188176428D01*
X60652381Y-188176428D02*
X60557143Y-188128809D01*
X59652381Y-188509761D02*
X59747619Y-188557380D01*
X59747619Y-188557380D02*
X59938095Y-188557380D01*
X59938095Y-188557380D02*
X60033333Y-188509761D01*
X60033333Y-188509761D02*
X60080952Y-188462142D01*
X60080952Y-188462142D02*
X60128571Y-188366904D01*
X60128571Y-188366904D02*
X60128571Y-188081190D01*
X60128571Y-188081190D02*
X60080952Y-187985952D01*
X60080952Y-187985952D02*
X60033333Y-187938333D01*
X60033333Y-187938333D02*
X59938095Y-187890714D01*
X59938095Y-187890714D02*
X59747619Y-187890714D01*
X59747619Y-187890714D02*
X59652381Y-187938333D01*
X59223809Y-188557380D02*
X59223809Y-187557380D01*
X59128571Y-188176428D02*
X58842857Y-188557380D01*
X58842857Y-187890714D02*
X59223809Y-188271666D01*
X65276190Y-189510714D02*
X64895238Y-189510714D01*
X65133333Y-189177380D02*
X65133333Y-190034523D01*
X65133333Y-190034523D02*
X65085714Y-190129761D01*
X65085714Y-190129761D02*
X64990476Y-190177380D01*
X64990476Y-190177380D02*
X64895238Y-190177380D01*
X64419047Y-190177380D02*
X64514285Y-190129761D01*
X64514285Y-190129761D02*
X64561904Y-190082142D01*
X64561904Y-190082142D02*
X64609523Y-189986904D01*
X64609523Y-189986904D02*
X64609523Y-189701190D01*
X64609523Y-189701190D02*
X64561904Y-189605952D01*
X64561904Y-189605952D02*
X64514285Y-189558333D01*
X64514285Y-189558333D02*
X64419047Y-189510714D01*
X64419047Y-189510714D02*
X64276190Y-189510714D01*
X64276190Y-189510714D02*
X64180952Y-189558333D01*
X64180952Y-189558333D02*
X64133333Y-189605952D01*
X64133333Y-189605952D02*
X64085714Y-189701190D01*
X64085714Y-189701190D02*
X64085714Y-189986904D01*
X64085714Y-189986904D02*
X64133333Y-190082142D01*
X64133333Y-190082142D02*
X64180952Y-190129761D01*
X64180952Y-190129761D02*
X64276190Y-190177380D01*
X64276190Y-190177380D02*
X64419047Y-190177380D01*
X63104761Y-190129761D02*
X63009523Y-190177380D01*
X63009523Y-190177380D02*
X62819047Y-190177380D01*
X62819047Y-190177380D02*
X62723809Y-190129761D01*
X62723809Y-190129761D02*
X62676190Y-190034523D01*
X62676190Y-190034523D02*
X62676190Y-189986904D01*
X62676190Y-189986904D02*
X62723809Y-189891666D01*
X62723809Y-189891666D02*
X62819047Y-189844047D01*
X62819047Y-189844047D02*
X62961904Y-189844047D01*
X62961904Y-189844047D02*
X63057142Y-189796428D01*
X63057142Y-189796428D02*
X63104761Y-189701190D01*
X63104761Y-189701190D02*
X63104761Y-189653571D01*
X63104761Y-189653571D02*
X63057142Y-189558333D01*
X63057142Y-189558333D02*
X62961904Y-189510714D01*
X62961904Y-189510714D02*
X62819047Y-189510714D01*
X62819047Y-189510714D02*
X62723809Y-189558333D01*
X62342856Y-189510714D02*
X62152380Y-190177380D01*
X62152380Y-190177380D02*
X61961904Y-189701190D01*
X61961904Y-189701190D02*
X61771428Y-190177380D01*
X61771428Y-190177380D02*
X61580952Y-189510714D01*
X61199999Y-190177380D02*
X61199999Y-189510714D01*
X61199999Y-189177380D02*
X61247618Y-189225000D01*
X61247618Y-189225000D02*
X61199999Y-189272619D01*
X61199999Y-189272619D02*
X61152380Y-189225000D01*
X61152380Y-189225000D02*
X61199999Y-189177380D01*
X61199999Y-189177380D02*
X61199999Y-189272619D01*
X60866666Y-189510714D02*
X60485714Y-189510714D01*
X60723809Y-189177380D02*
X60723809Y-190034523D01*
X60723809Y-190034523D02*
X60676190Y-190129761D01*
X60676190Y-190129761D02*
X60580952Y-190177380D01*
X60580952Y-190177380D02*
X60485714Y-190177380D01*
X59723809Y-190129761D02*
X59819047Y-190177380D01*
X59819047Y-190177380D02*
X60009523Y-190177380D01*
X60009523Y-190177380D02*
X60104761Y-190129761D01*
X60104761Y-190129761D02*
X60152380Y-190082142D01*
X60152380Y-190082142D02*
X60199999Y-189986904D01*
X60199999Y-189986904D02*
X60199999Y-189701190D01*
X60199999Y-189701190D02*
X60152380Y-189605952D01*
X60152380Y-189605952D02*
X60104761Y-189558333D01*
X60104761Y-189558333D02*
X60009523Y-189510714D01*
X60009523Y-189510714D02*
X59819047Y-189510714D01*
X59819047Y-189510714D02*
X59723809Y-189558333D01*
X59295237Y-190177380D02*
X59295237Y-189177380D01*
X58866666Y-190177380D02*
X58866666Y-189653571D01*
X58866666Y-189653571D02*
X58914285Y-189558333D01*
X58914285Y-189558333D02*
X59009523Y-189510714D01*
X59009523Y-189510714D02*
X59152380Y-189510714D01*
X59152380Y-189510714D02*
X59247618Y-189558333D01*
X59247618Y-189558333D02*
X59295237Y-189605952D01*
X62109523Y-57247380D02*
X62109523Y-56247380D01*
X62109523Y-56247380D02*
X61728571Y-56247380D01*
X61728571Y-56247380D02*
X61633333Y-56295000D01*
X61633333Y-56295000D02*
X61585714Y-56342619D01*
X61585714Y-56342619D02*
X61538095Y-56437857D01*
X61538095Y-56437857D02*
X61538095Y-56580714D01*
X61538095Y-56580714D02*
X61585714Y-56675952D01*
X61585714Y-56675952D02*
X61633333Y-56723571D01*
X61633333Y-56723571D02*
X61728571Y-56771190D01*
X61728571Y-56771190D02*
X62109523Y-56771190D01*
X60966666Y-57247380D02*
X61061904Y-57199761D01*
X61061904Y-57199761D02*
X61109523Y-57152142D01*
X61109523Y-57152142D02*
X61157142Y-57056904D01*
X61157142Y-57056904D02*
X61157142Y-56771190D01*
X61157142Y-56771190D02*
X61109523Y-56675952D01*
X61109523Y-56675952D02*
X61061904Y-56628333D01*
X61061904Y-56628333D02*
X60966666Y-56580714D01*
X60966666Y-56580714D02*
X60823809Y-56580714D01*
X60823809Y-56580714D02*
X60728571Y-56628333D01*
X60728571Y-56628333D02*
X60680952Y-56675952D01*
X60680952Y-56675952D02*
X60633333Y-56771190D01*
X60633333Y-56771190D02*
X60633333Y-57056904D01*
X60633333Y-57056904D02*
X60680952Y-57152142D01*
X60680952Y-57152142D02*
X60728571Y-57199761D01*
X60728571Y-57199761D02*
X60823809Y-57247380D01*
X60823809Y-57247380D02*
X60966666Y-57247380D01*
X60299999Y-56580714D02*
X60109523Y-57247380D01*
X60109523Y-57247380D02*
X59919047Y-56771190D01*
X59919047Y-56771190D02*
X59728571Y-57247380D01*
X59728571Y-57247380D02*
X59538095Y-56580714D01*
X58776190Y-57199761D02*
X58871428Y-57247380D01*
X58871428Y-57247380D02*
X59061904Y-57247380D01*
X59061904Y-57247380D02*
X59157142Y-57199761D01*
X59157142Y-57199761D02*
X59204761Y-57104523D01*
X59204761Y-57104523D02*
X59204761Y-56723571D01*
X59204761Y-56723571D02*
X59157142Y-56628333D01*
X59157142Y-56628333D02*
X59061904Y-56580714D01*
X59061904Y-56580714D02*
X58871428Y-56580714D01*
X58871428Y-56580714D02*
X58776190Y-56628333D01*
X58776190Y-56628333D02*
X58728571Y-56723571D01*
X58728571Y-56723571D02*
X58728571Y-56818809D01*
X58728571Y-56818809D02*
X59204761Y-56914047D01*
X58299999Y-57247380D02*
X58299999Y-56580714D01*
X58299999Y-56771190D02*
X58252380Y-56675952D01*
X58252380Y-56675952D02*
X58204761Y-56628333D01*
X58204761Y-56628333D02*
X58109523Y-56580714D01*
X58109523Y-56580714D02*
X58014285Y-56580714D01*
X57128570Y-57199761D02*
X57033332Y-57247380D01*
X57033332Y-57247380D02*
X56842856Y-57247380D01*
X56842856Y-57247380D02*
X56747618Y-57199761D01*
X56747618Y-57199761D02*
X56699999Y-57104523D01*
X56699999Y-57104523D02*
X56699999Y-57056904D01*
X56699999Y-57056904D02*
X56747618Y-56961666D01*
X56747618Y-56961666D02*
X56842856Y-56914047D01*
X56842856Y-56914047D02*
X56985713Y-56914047D01*
X56985713Y-56914047D02*
X57080951Y-56866428D01*
X57080951Y-56866428D02*
X57128570Y-56771190D01*
X57128570Y-56771190D02*
X57128570Y-56723571D01*
X57128570Y-56723571D02*
X57080951Y-56628333D01*
X57080951Y-56628333D02*
X56985713Y-56580714D01*
X56985713Y-56580714D02*
X56842856Y-56580714D01*
X56842856Y-56580714D02*
X56747618Y-56628333D01*
X56366665Y-56580714D02*
X56176189Y-57247380D01*
X56176189Y-57247380D02*
X55985713Y-56771190D01*
X55985713Y-56771190D02*
X55795237Y-57247380D01*
X55795237Y-57247380D02*
X55604761Y-56580714D01*
X55223808Y-57247380D02*
X55223808Y-56580714D01*
X55223808Y-56247380D02*
X55271427Y-56295000D01*
X55271427Y-56295000D02*
X55223808Y-56342619D01*
X55223808Y-56342619D02*
X55176189Y-56295000D01*
X55176189Y-56295000D02*
X55223808Y-56247380D01*
X55223808Y-56247380D02*
X55223808Y-56342619D01*
X54890475Y-56580714D02*
X54509523Y-56580714D01*
X54747618Y-56247380D02*
X54747618Y-57104523D01*
X54747618Y-57104523D02*
X54699999Y-57199761D01*
X54699999Y-57199761D02*
X54604761Y-57247380D01*
X54604761Y-57247380D02*
X54509523Y-57247380D01*
X53747618Y-57199761D02*
X53842856Y-57247380D01*
X53842856Y-57247380D02*
X54033332Y-57247380D01*
X54033332Y-57247380D02*
X54128570Y-57199761D01*
X54128570Y-57199761D02*
X54176189Y-57152142D01*
X54176189Y-57152142D02*
X54223808Y-57056904D01*
X54223808Y-57056904D02*
X54223808Y-56771190D01*
X54223808Y-56771190D02*
X54176189Y-56675952D01*
X54176189Y-56675952D02*
X54128570Y-56628333D01*
X54128570Y-56628333D02*
X54033332Y-56580714D01*
X54033332Y-56580714D02*
X53842856Y-56580714D01*
X53842856Y-56580714D02*
X53747618Y-56628333D01*
X53319046Y-57247380D02*
X53319046Y-56247380D01*
X52890475Y-57247380D02*
X52890475Y-56723571D01*
X52890475Y-56723571D02*
X52938094Y-56628333D01*
X52938094Y-56628333D02*
X53033332Y-56580714D01*
X53033332Y-56580714D02*
X53176189Y-56580714D01*
X53176189Y-56580714D02*
X53271427Y-56628333D01*
X53271427Y-56628333D02*
X53319046Y-56675952D01*
X62280951Y-58200714D02*
X61899999Y-58200714D01*
X62138094Y-57867380D02*
X62138094Y-58724523D01*
X62138094Y-58724523D02*
X62090475Y-58819761D01*
X62090475Y-58819761D02*
X61995237Y-58867380D01*
X61995237Y-58867380D02*
X61899999Y-58867380D01*
X61423808Y-58867380D02*
X61519046Y-58819761D01*
X61519046Y-58819761D02*
X61566665Y-58772142D01*
X61566665Y-58772142D02*
X61614284Y-58676904D01*
X61614284Y-58676904D02*
X61614284Y-58391190D01*
X61614284Y-58391190D02*
X61566665Y-58295952D01*
X61566665Y-58295952D02*
X61519046Y-58248333D01*
X61519046Y-58248333D02*
X61423808Y-58200714D01*
X61423808Y-58200714D02*
X61280951Y-58200714D01*
X61280951Y-58200714D02*
X61185713Y-58248333D01*
X61185713Y-58248333D02*
X61138094Y-58295952D01*
X61138094Y-58295952D02*
X61090475Y-58391190D01*
X61090475Y-58391190D02*
X61090475Y-58676904D01*
X61090475Y-58676904D02*
X61138094Y-58772142D01*
X61138094Y-58772142D02*
X61185713Y-58819761D01*
X61185713Y-58819761D02*
X61280951Y-58867380D01*
X61280951Y-58867380D02*
X61423808Y-58867380D01*
X60014284Y-58867380D02*
X59823808Y-58867380D01*
X59823808Y-58867380D02*
X59728570Y-58819761D01*
X59728570Y-58819761D02*
X59680951Y-58772142D01*
X59680951Y-58772142D02*
X59585713Y-58629285D01*
X59585713Y-58629285D02*
X59538094Y-58438809D01*
X59538094Y-58438809D02*
X59538094Y-58057857D01*
X59538094Y-58057857D02*
X59585713Y-57962619D01*
X59585713Y-57962619D02*
X59633332Y-57915000D01*
X59633332Y-57915000D02*
X59728570Y-57867380D01*
X59728570Y-57867380D02*
X59919046Y-57867380D01*
X59919046Y-57867380D02*
X60014284Y-57915000D01*
X60014284Y-57915000D02*
X60061903Y-57962619D01*
X60061903Y-57962619D02*
X60109522Y-58057857D01*
X60109522Y-58057857D02*
X60109522Y-58295952D01*
X60109522Y-58295952D02*
X60061903Y-58391190D01*
X60061903Y-58391190D02*
X60014284Y-58438809D01*
X60014284Y-58438809D02*
X59919046Y-58486428D01*
X59919046Y-58486428D02*
X59728570Y-58486428D01*
X59728570Y-58486428D02*
X59633332Y-58438809D01*
X59633332Y-58438809D02*
X59585713Y-58391190D01*
X59585713Y-58391190D02*
X59538094Y-58295952D01*
X59252379Y-57867380D02*
X58919046Y-58867380D01*
X58919046Y-58867380D02*
X58585713Y-57867380D01*
X57652379Y-58867380D02*
X57652379Y-58200714D01*
X57652379Y-58295952D02*
X57604760Y-58248333D01*
X57604760Y-58248333D02*
X57509522Y-58200714D01*
X57509522Y-58200714D02*
X57366665Y-58200714D01*
X57366665Y-58200714D02*
X57271427Y-58248333D01*
X57271427Y-58248333D02*
X57223808Y-58343571D01*
X57223808Y-58343571D02*
X57223808Y-58867380D01*
X57223808Y-58343571D02*
X57176189Y-58248333D01*
X57176189Y-58248333D02*
X57080951Y-58200714D01*
X57080951Y-58200714D02*
X56938094Y-58200714D01*
X56938094Y-58200714D02*
X56842855Y-58248333D01*
X56842855Y-58248333D02*
X56795236Y-58343571D01*
X56795236Y-58343571D02*
X56795236Y-58867380D01*
X55890475Y-58867380D02*
X55890475Y-58343571D01*
X55890475Y-58343571D02*
X55938094Y-58248333D01*
X55938094Y-58248333D02*
X56033332Y-58200714D01*
X56033332Y-58200714D02*
X56223808Y-58200714D01*
X56223808Y-58200714D02*
X56319046Y-58248333D01*
X55890475Y-58819761D02*
X55985713Y-58867380D01*
X55985713Y-58867380D02*
X56223808Y-58867380D01*
X56223808Y-58867380D02*
X56319046Y-58819761D01*
X56319046Y-58819761D02*
X56366665Y-58724523D01*
X56366665Y-58724523D02*
X56366665Y-58629285D01*
X56366665Y-58629285D02*
X56319046Y-58534047D01*
X56319046Y-58534047D02*
X56223808Y-58486428D01*
X56223808Y-58486428D02*
X55985713Y-58486428D01*
X55985713Y-58486428D02*
X55890475Y-58438809D01*
X55414284Y-58867380D02*
X55414284Y-58200714D01*
X55414284Y-57867380D02*
X55461903Y-57915000D01*
X55461903Y-57915000D02*
X55414284Y-57962619D01*
X55414284Y-57962619D02*
X55366665Y-57915000D01*
X55366665Y-57915000D02*
X55414284Y-57867380D01*
X55414284Y-57867380D02*
X55414284Y-57962619D01*
X54938094Y-58200714D02*
X54938094Y-58867380D01*
X54938094Y-58295952D02*
X54890475Y-58248333D01*
X54890475Y-58248333D02*
X54795237Y-58200714D01*
X54795237Y-58200714D02*
X54652380Y-58200714D01*
X54652380Y-58200714D02*
X54557142Y-58248333D01*
X54557142Y-58248333D02*
X54509523Y-58343571D01*
X54509523Y-58343571D02*
X54509523Y-58867380D01*
X52719047Y-57819761D02*
X53576189Y-59105476D01*
X61519047Y-60487380D02*
X61328571Y-60487380D01*
X61328571Y-60487380D02*
X61233333Y-60439761D01*
X61233333Y-60439761D02*
X61185714Y-60392142D01*
X61185714Y-60392142D02*
X61090476Y-60249285D01*
X61090476Y-60249285D02*
X61042857Y-60058809D01*
X61042857Y-60058809D02*
X61042857Y-59677857D01*
X61042857Y-59677857D02*
X61090476Y-59582619D01*
X61090476Y-59582619D02*
X61138095Y-59535000D01*
X61138095Y-59535000D02*
X61233333Y-59487380D01*
X61233333Y-59487380D02*
X61423809Y-59487380D01*
X61423809Y-59487380D02*
X61519047Y-59535000D01*
X61519047Y-59535000D02*
X61566666Y-59582619D01*
X61566666Y-59582619D02*
X61614285Y-59677857D01*
X61614285Y-59677857D02*
X61614285Y-59915952D01*
X61614285Y-59915952D02*
X61566666Y-60011190D01*
X61566666Y-60011190D02*
X61519047Y-60058809D01*
X61519047Y-60058809D02*
X61423809Y-60106428D01*
X61423809Y-60106428D02*
X61233333Y-60106428D01*
X61233333Y-60106428D02*
X61138095Y-60058809D01*
X61138095Y-60058809D02*
X61090476Y-60011190D01*
X61090476Y-60011190D02*
X61042857Y-59915952D01*
X60757142Y-59487380D02*
X60423809Y-60487380D01*
X60423809Y-60487380D02*
X60090476Y-59487380D01*
X58728571Y-60487380D02*
X58728571Y-59487380D01*
X58728571Y-60439761D02*
X58823809Y-60487380D01*
X58823809Y-60487380D02*
X59014285Y-60487380D01*
X59014285Y-60487380D02*
X59109523Y-60439761D01*
X59109523Y-60439761D02*
X59157142Y-60392142D01*
X59157142Y-60392142D02*
X59204761Y-60296904D01*
X59204761Y-60296904D02*
X59204761Y-60011190D01*
X59204761Y-60011190D02*
X59157142Y-59915952D01*
X59157142Y-59915952D02*
X59109523Y-59868333D01*
X59109523Y-59868333D02*
X59014285Y-59820714D01*
X59014285Y-59820714D02*
X58823809Y-59820714D01*
X58823809Y-59820714D02*
X58728571Y-59868333D01*
X57823809Y-60487380D02*
X57823809Y-59963571D01*
X57823809Y-59963571D02*
X57871428Y-59868333D01*
X57871428Y-59868333D02*
X57966666Y-59820714D01*
X57966666Y-59820714D02*
X58157142Y-59820714D01*
X58157142Y-59820714D02*
X58252380Y-59868333D01*
X57823809Y-60439761D02*
X57919047Y-60487380D01*
X57919047Y-60487380D02*
X58157142Y-60487380D01*
X58157142Y-60487380D02*
X58252380Y-60439761D01*
X58252380Y-60439761D02*
X58299999Y-60344523D01*
X58299999Y-60344523D02*
X58299999Y-60249285D01*
X58299999Y-60249285D02*
X58252380Y-60154047D01*
X58252380Y-60154047D02*
X58157142Y-60106428D01*
X58157142Y-60106428D02*
X57919047Y-60106428D01*
X57919047Y-60106428D02*
X57823809Y-60058809D01*
X56919047Y-59820714D02*
X56919047Y-60487380D01*
X57347618Y-59820714D02*
X57347618Y-60344523D01*
X57347618Y-60344523D02*
X57299999Y-60439761D01*
X57299999Y-60439761D02*
X57204761Y-60487380D01*
X57204761Y-60487380D02*
X57061904Y-60487380D01*
X57061904Y-60487380D02*
X56966666Y-60439761D01*
X56966666Y-60439761D02*
X56919047Y-60392142D01*
X55128571Y-59439761D02*
X55985713Y-60725476D01*
X54195237Y-60106428D02*
X53433333Y-60106428D01*
X113907142Y-186271666D02*
X113430952Y-186271666D01*
X114002380Y-186557380D02*
X113669047Y-185557380D01*
X113669047Y-185557380D02*
X113335714Y-186557380D01*
X112573809Y-185890714D02*
X112573809Y-186557380D01*
X113002380Y-185890714D02*
X113002380Y-186414523D01*
X113002380Y-186414523D02*
X112954761Y-186509761D01*
X112954761Y-186509761D02*
X112859523Y-186557380D01*
X112859523Y-186557380D02*
X112716666Y-186557380D01*
X112716666Y-186557380D02*
X112621428Y-186509761D01*
X112621428Y-186509761D02*
X112573809Y-186462142D01*
X111669047Y-186557380D02*
X111669047Y-185557380D01*
X111669047Y-186509761D02*
X111764285Y-186557380D01*
X111764285Y-186557380D02*
X111954761Y-186557380D01*
X111954761Y-186557380D02*
X112049999Y-186509761D01*
X112049999Y-186509761D02*
X112097618Y-186462142D01*
X112097618Y-186462142D02*
X112145237Y-186366904D01*
X112145237Y-186366904D02*
X112145237Y-186081190D01*
X112145237Y-186081190D02*
X112097618Y-185985952D01*
X112097618Y-185985952D02*
X112049999Y-185938333D01*
X112049999Y-185938333D02*
X111954761Y-185890714D01*
X111954761Y-185890714D02*
X111764285Y-185890714D01*
X111764285Y-185890714D02*
X111669047Y-185938333D01*
X111192856Y-186557380D02*
X111192856Y-185890714D01*
X111192856Y-185557380D02*
X111240475Y-185605000D01*
X111240475Y-185605000D02*
X111192856Y-185652619D01*
X111192856Y-185652619D02*
X111145237Y-185605000D01*
X111145237Y-185605000D02*
X111192856Y-185557380D01*
X111192856Y-185557380D02*
X111192856Y-185652619D01*
X110573809Y-186557380D02*
X110669047Y-186509761D01*
X110669047Y-186509761D02*
X110716666Y-186462142D01*
X110716666Y-186462142D02*
X110764285Y-186366904D01*
X110764285Y-186366904D02*
X110764285Y-186081190D01*
X110764285Y-186081190D02*
X110716666Y-185985952D01*
X110716666Y-185985952D02*
X110669047Y-185938333D01*
X110669047Y-185938333D02*
X110573809Y-185890714D01*
X110573809Y-185890714D02*
X110430952Y-185890714D01*
X110430952Y-185890714D02*
X110335714Y-185938333D01*
X110335714Y-185938333D02*
X110288095Y-185985952D01*
X110288095Y-185985952D02*
X110240476Y-186081190D01*
X110240476Y-186081190D02*
X110240476Y-186366904D01*
X110240476Y-186366904D02*
X110288095Y-186462142D01*
X110288095Y-186462142D02*
X110335714Y-186509761D01*
X110335714Y-186509761D02*
X110430952Y-186557380D01*
X110430952Y-186557380D02*
X110573809Y-186557380D01*
X109211904Y-185890714D02*
X109211904Y-186747857D01*
X109211904Y-186747857D02*
X109259523Y-186843095D01*
X109259523Y-186843095D02*
X109354761Y-186890714D01*
X109354761Y-186890714D02*
X109402380Y-186890714D01*
X109211904Y-185557380D02*
X109259523Y-185605000D01*
X109259523Y-185605000D02*
X109211904Y-185652619D01*
X109211904Y-185652619D02*
X109164285Y-185605000D01*
X109164285Y-185605000D02*
X109211904Y-185557380D01*
X109211904Y-185557380D02*
X109211904Y-185652619D01*
X108307143Y-186557380D02*
X108307143Y-186033571D01*
X108307143Y-186033571D02*
X108354762Y-185938333D01*
X108354762Y-185938333D02*
X108450000Y-185890714D01*
X108450000Y-185890714D02*
X108640476Y-185890714D01*
X108640476Y-185890714D02*
X108735714Y-185938333D01*
X108307143Y-186509761D02*
X108402381Y-186557380D01*
X108402381Y-186557380D02*
X108640476Y-186557380D01*
X108640476Y-186557380D02*
X108735714Y-186509761D01*
X108735714Y-186509761D02*
X108783333Y-186414523D01*
X108783333Y-186414523D02*
X108783333Y-186319285D01*
X108783333Y-186319285D02*
X108735714Y-186224047D01*
X108735714Y-186224047D02*
X108640476Y-186176428D01*
X108640476Y-186176428D02*
X108402381Y-186176428D01*
X108402381Y-186176428D02*
X108307143Y-186128809D01*
X107402381Y-186509761D02*
X107497619Y-186557380D01*
X107497619Y-186557380D02*
X107688095Y-186557380D01*
X107688095Y-186557380D02*
X107783333Y-186509761D01*
X107783333Y-186509761D02*
X107830952Y-186462142D01*
X107830952Y-186462142D02*
X107878571Y-186366904D01*
X107878571Y-186366904D02*
X107878571Y-186081190D01*
X107878571Y-186081190D02*
X107830952Y-185985952D01*
X107830952Y-185985952D02*
X107783333Y-185938333D01*
X107783333Y-185938333D02*
X107688095Y-185890714D01*
X107688095Y-185890714D02*
X107497619Y-185890714D01*
X107497619Y-185890714D02*
X107402381Y-185938333D01*
X106973809Y-186557380D02*
X106973809Y-185557380D01*
X106878571Y-186176428D02*
X106592857Y-186557380D01*
X106592857Y-185890714D02*
X106973809Y-186271666D01*
X114549999Y-187510714D02*
X114169047Y-187510714D01*
X114407142Y-187177380D02*
X114407142Y-188034523D01*
X114407142Y-188034523D02*
X114359523Y-188129761D01*
X114359523Y-188129761D02*
X114264285Y-188177380D01*
X114264285Y-188177380D02*
X114169047Y-188177380D01*
X113692856Y-188177380D02*
X113788094Y-188129761D01*
X113788094Y-188129761D02*
X113835713Y-188082142D01*
X113835713Y-188082142D02*
X113883332Y-187986904D01*
X113883332Y-187986904D02*
X113883332Y-187701190D01*
X113883332Y-187701190D02*
X113835713Y-187605952D01*
X113835713Y-187605952D02*
X113788094Y-187558333D01*
X113788094Y-187558333D02*
X113692856Y-187510714D01*
X113692856Y-187510714D02*
X113549999Y-187510714D01*
X113549999Y-187510714D02*
X113454761Y-187558333D01*
X113454761Y-187558333D02*
X113407142Y-187605952D01*
X113407142Y-187605952D02*
X113359523Y-187701190D01*
X113359523Y-187701190D02*
X113359523Y-187986904D01*
X113359523Y-187986904D02*
X113407142Y-188082142D01*
X113407142Y-188082142D02*
X113454761Y-188129761D01*
X113454761Y-188129761D02*
X113549999Y-188177380D01*
X113549999Y-188177380D02*
X113692856Y-188177380D01*
X112378570Y-187891666D02*
X111902380Y-187891666D01*
X112473808Y-188177380D02*
X112140475Y-187177380D01*
X112140475Y-187177380D02*
X111807142Y-188177380D01*
X111473808Y-187177380D02*
X111473808Y-187986904D01*
X111473808Y-187986904D02*
X111426189Y-188082142D01*
X111426189Y-188082142D02*
X111378570Y-188129761D01*
X111378570Y-188129761D02*
X111283332Y-188177380D01*
X111283332Y-188177380D02*
X111092856Y-188177380D01*
X111092856Y-188177380D02*
X110997618Y-188129761D01*
X110997618Y-188129761D02*
X110949999Y-188082142D01*
X110949999Y-188082142D02*
X110902380Y-187986904D01*
X110902380Y-187986904D02*
X110902380Y-187177380D01*
X110426189Y-188177380D02*
X110426189Y-187177380D01*
X110426189Y-187177380D02*
X110188094Y-187177380D01*
X110188094Y-187177380D02*
X110045237Y-187225000D01*
X110045237Y-187225000D02*
X109949999Y-187320238D01*
X109949999Y-187320238D02*
X109902380Y-187415476D01*
X109902380Y-187415476D02*
X109854761Y-187605952D01*
X109854761Y-187605952D02*
X109854761Y-187748809D01*
X109854761Y-187748809D02*
X109902380Y-187939285D01*
X109902380Y-187939285D02*
X109949999Y-188034523D01*
X109949999Y-188034523D02*
X110045237Y-188129761D01*
X110045237Y-188129761D02*
X110188094Y-188177380D01*
X110188094Y-188177380D02*
X110426189Y-188177380D01*
X109426189Y-188177380D02*
X109426189Y-187177380D01*
X108759523Y-187177380D02*
X108569047Y-187177380D01*
X108569047Y-187177380D02*
X108473809Y-187225000D01*
X108473809Y-187225000D02*
X108378571Y-187320238D01*
X108378571Y-187320238D02*
X108330952Y-187510714D01*
X108330952Y-187510714D02*
X108330952Y-187844047D01*
X108330952Y-187844047D02*
X108378571Y-188034523D01*
X108378571Y-188034523D02*
X108473809Y-188129761D01*
X108473809Y-188129761D02*
X108569047Y-188177380D01*
X108569047Y-188177380D02*
X108759523Y-188177380D01*
X108759523Y-188177380D02*
X108854761Y-188129761D01*
X108854761Y-188129761D02*
X108949999Y-188034523D01*
X108949999Y-188034523D02*
X108997618Y-187844047D01*
X108997618Y-187844047D02*
X108997618Y-187510714D01*
X108997618Y-187510714D02*
X108949999Y-187320238D01*
X108949999Y-187320238D02*
X108854761Y-187225000D01*
X108854761Y-187225000D02*
X108759523Y-187177380D01*
X108140476Y-188272619D02*
X107378571Y-188272619D01*
X107140475Y-188177380D02*
X107140475Y-187177380D01*
X106664285Y-188177380D02*
X106664285Y-187177380D01*
X106664285Y-187177380D02*
X106092857Y-188177380D01*
X106092857Y-188177380D02*
X106092857Y-187177380D01*
%TO.C,GRAF3*%
G36*
X90111332Y-195538433D02*
G01*
X90230981Y-195574047D01*
X90333280Y-195639869D01*
X90412411Y-195733898D01*
X90413931Y-195736398D01*
X90449251Y-195804936D01*
X90468911Y-195874717D01*
X90478269Y-195964501D01*
X90479597Y-196006835D01*
X90465242Y-196146736D01*
X90420464Y-196262318D01*
X90345027Y-196354034D01*
X90238695Y-196422334D01*
X90223988Y-196428916D01*
X90094244Y-196464942D01*
X89965441Y-196462801D01*
X89841914Y-196423137D01*
X89727998Y-196346592D01*
X89690081Y-196311448D01*
X89654834Y-196274078D01*
X89641231Y-196252736D01*
X89644755Y-196245796D01*
X89673096Y-196222496D01*
X89720557Y-196194786D01*
X89799883Y-196154317D01*
X89867775Y-196213928D01*
X89903904Y-196241518D01*
X89981404Y-196272549D01*
X90057933Y-196264544D01*
X90133179Y-196217499D01*
X90164231Y-196186901D01*
X90185977Y-196152001D01*
X90197588Y-196104710D01*
X90204160Y-196031687D01*
X90205949Y-195966390D01*
X90194410Y-195868778D01*
X90162338Y-195799575D01*
X90108372Y-195754847D01*
X90032889Y-195729439D01*
X89960737Y-195738519D01*
X89888507Y-195785023D01*
X89821809Y-195843585D01*
X89731679Y-195793211D01*
X89709064Y-195780299D01*
X89668257Y-195752581D01*
X89654405Y-195730461D01*
X89661191Y-195706135D01*
X89677964Y-195681844D01*
X89734173Y-195630000D01*
X89807960Y-195583771D01*
X89885462Y-195552643D01*
X89980151Y-195535030D01*
X90111332Y-195538433D01*
G37*
D11*
X90111332Y-195538433D02*
X90230981Y-195574047D01*
X90333280Y-195639869D01*
X90412411Y-195733898D01*
X90413931Y-195736398D01*
X90449251Y-195804936D01*
X90468911Y-195874717D01*
X90478269Y-195964501D01*
X90479597Y-196006835D01*
X90465242Y-196146736D01*
X90420464Y-196262318D01*
X90345027Y-196354034D01*
X90238695Y-196422334D01*
X90223988Y-196428916D01*
X90094244Y-196464942D01*
X89965441Y-196462801D01*
X89841914Y-196423137D01*
X89727998Y-196346592D01*
X89690081Y-196311448D01*
X89654834Y-196274078D01*
X89641231Y-196252736D01*
X89644755Y-196245796D01*
X89673096Y-196222496D01*
X89720557Y-196194786D01*
X89799883Y-196154317D01*
X89867775Y-196213928D01*
X89903904Y-196241518D01*
X89981404Y-196272549D01*
X90057933Y-196264544D01*
X90133179Y-196217499D01*
X90164231Y-196186901D01*
X90185977Y-196152001D01*
X90197588Y-196104710D01*
X90204160Y-196031687D01*
X90205949Y-195966390D01*
X90194410Y-195868778D01*
X90162338Y-195799575D01*
X90108372Y-195754847D01*
X90032889Y-195729439D01*
X89960737Y-195738519D01*
X89888507Y-195785023D01*
X89821809Y-195843585D01*
X89731679Y-195793211D01*
X89709064Y-195780299D01*
X89668257Y-195752581D01*
X89654405Y-195730461D01*
X89661191Y-195706135D01*
X89677964Y-195681844D01*
X89734173Y-195630000D01*
X89807960Y-195583771D01*
X89885462Y-195552643D01*
X89980151Y-195535030D01*
X90111332Y-195538433D01*
G36*
X89235087Y-195537553D02*
G01*
X89339475Y-195567928D01*
X89364117Y-195580196D01*
X89461800Y-195654078D01*
X89536905Y-195754228D01*
X89585124Y-195873486D01*
X89602154Y-196004694D01*
X89588536Y-196128345D01*
X89542881Y-196248191D01*
X89467214Y-196346141D01*
X89363723Y-196418395D01*
X89280352Y-196450937D01*
X89148419Y-196468493D01*
X89009070Y-196447792D01*
X88986973Y-196439670D01*
X88931448Y-196408947D01*
X88871639Y-196366241D01*
X88817095Y-196319399D01*
X88777365Y-196276272D01*
X88762000Y-196244709D01*
X88764706Y-196237249D01*
X88792090Y-196212301D01*
X88839444Y-196185935D01*
X88916888Y-196151013D01*
X88986663Y-196212275D01*
X89006578Y-196228406D01*
X89084451Y-196267673D01*
X89159213Y-196271845D01*
X89225937Y-196243996D01*
X89279697Y-196187197D01*
X89315565Y-196104520D01*
X89328616Y-195999038D01*
X89328177Y-195976958D01*
X89310986Y-195871618D01*
X89270310Y-195792865D01*
X89208245Y-195743534D01*
X89126890Y-195726461D01*
X89073913Y-195739854D01*
X89013678Y-195775036D01*
X88964922Y-195821783D01*
X88958361Y-195829280D01*
X88938765Y-195836991D01*
X88906758Y-195827060D01*
X88852388Y-195797323D01*
X88840859Y-195790489D01*
X88793686Y-195758572D01*
X88775227Y-195734377D01*
X88779557Y-195710874D01*
X88825953Y-195650711D01*
X88908378Y-195591970D01*
X89010240Y-195551947D01*
X89122242Y-195533017D01*
X89235087Y-195537553D01*
G37*
X89235087Y-195537553D02*
X89339475Y-195567928D01*
X89364117Y-195580196D01*
X89461800Y-195654078D01*
X89536905Y-195754228D01*
X89585124Y-195873486D01*
X89602154Y-196004694D01*
X89588536Y-196128345D01*
X89542881Y-196248191D01*
X89467214Y-196346141D01*
X89363723Y-196418395D01*
X89280352Y-196450937D01*
X89148419Y-196468493D01*
X89009070Y-196447792D01*
X88986973Y-196439670D01*
X88931448Y-196408947D01*
X88871639Y-196366241D01*
X88817095Y-196319399D01*
X88777365Y-196276272D01*
X88762000Y-196244709D01*
X88764706Y-196237249D01*
X88792090Y-196212301D01*
X88839444Y-196185935D01*
X88916888Y-196151013D01*
X88986663Y-196212275D01*
X89006578Y-196228406D01*
X89084451Y-196267673D01*
X89159213Y-196271845D01*
X89225937Y-196243996D01*
X89279697Y-196187197D01*
X89315565Y-196104520D01*
X89328616Y-195999038D01*
X89328177Y-195976958D01*
X89310986Y-195871618D01*
X89270310Y-195792865D01*
X89208245Y-195743534D01*
X89126890Y-195726461D01*
X89073913Y-195739854D01*
X89013678Y-195775036D01*
X88964922Y-195821783D01*
X88958361Y-195829280D01*
X88938765Y-195836991D01*
X88906758Y-195827060D01*
X88852388Y-195797323D01*
X88840859Y-195790489D01*
X88793686Y-195758572D01*
X88775227Y-195734377D01*
X88779557Y-195710874D01*
X88825953Y-195650711D01*
X88908378Y-195591970D01*
X89010240Y-195551947D01*
X89122242Y-195533017D01*
X89235087Y-195537553D01*
G36*
X86984805Y-196034984D02*
G01*
X86981480Y-196133041D01*
X86956836Y-196326483D01*
X86921390Y-196451694D01*
X86910807Y-196489080D01*
X86842941Y-196622255D01*
X86752785Y-196727434D01*
X86709094Y-196765485D01*
X86646195Y-196811095D01*
X86584600Y-196839781D01*
X86509283Y-196859705D01*
X86431329Y-196868967D01*
X86318276Y-196866619D01*
X86205941Y-196850276D01*
X86112792Y-196821706D01*
X86066924Y-196798346D01*
X85960509Y-196714342D01*
X85873289Y-196598191D01*
X85806600Y-196451964D01*
X85761779Y-196277732D01*
X85749484Y-196201356D01*
X85736482Y-196063482D01*
X85737998Y-195947802D01*
X86089697Y-195947802D01*
X86092197Y-196058843D01*
X86101250Y-196173359D01*
X86115890Y-196277223D01*
X86135151Y-196356308D01*
X86145795Y-196382909D01*
X86183099Y-196448793D01*
X86225245Y-196497962D01*
X86258571Y-196520334D01*
X86325111Y-196543004D01*
X86393708Y-196545931D01*
X86454685Y-196530658D01*
X86498366Y-196498731D01*
X86515077Y-196451694D01*
X86514629Y-196449321D01*
X86501331Y-196419360D01*
X86471760Y-196362368D01*
X86428881Y-196283798D01*
X86375656Y-196189104D01*
X86315052Y-196083738D01*
X86115027Y-195739702D01*
X86098892Y-195825889D01*
X86094716Y-195854362D01*
X86089697Y-195947802D01*
X85737998Y-195947802D01*
X85738268Y-195927178D01*
X85754570Y-195773464D01*
X85772779Y-195668883D01*
X85815128Y-195525434D01*
X86272053Y-195525434D01*
X86276125Y-195553967D01*
X86290655Y-195594906D01*
X86317835Y-195653656D01*
X86359859Y-195735619D01*
X86418921Y-195846196D01*
X86467438Y-195936263D01*
X86524124Y-196041045D01*
X86565921Y-196116164D01*
X86595189Y-196164330D01*
X86614288Y-196188254D01*
X86625578Y-196190645D01*
X86631418Y-196174212D01*
X86634167Y-196141666D01*
X86636185Y-196095716D01*
X86638146Y-196034984D01*
X86633451Y-195872686D01*
X86614163Y-195732535D01*
X86581276Y-195618397D01*
X86535785Y-195534136D01*
X86478683Y-195483617D01*
X86444564Y-195468352D01*
X86372173Y-195452645D01*
X86314080Y-195463197D01*
X86278145Y-195499389D01*
X86276246Y-195503908D01*
X86272053Y-195525434D01*
X85815128Y-195525434D01*
X85822002Y-195502151D01*
X85892347Y-195366970D01*
X85984604Y-195261996D01*
X86099562Y-195185884D01*
X86158500Y-195159197D01*
X86216567Y-195141437D01*
X86281189Y-195133741D01*
X86368539Y-195132925D01*
X86479434Y-195139819D01*
X86579519Y-195162242D01*
X86666009Y-195204584D01*
X86751492Y-195271396D01*
X86799538Y-195320506D01*
X86882214Y-195444339D01*
X86940721Y-195597138D01*
X86975312Y-195779678D01*
X86986238Y-195992731D01*
X86984805Y-196034984D01*
G37*
X86984805Y-196034984D02*
X86981480Y-196133041D01*
X86956836Y-196326483D01*
X86921390Y-196451694D01*
X86910807Y-196489080D01*
X86842941Y-196622255D01*
X86752785Y-196727434D01*
X86709094Y-196765485D01*
X86646195Y-196811095D01*
X86584600Y-196839781D01*
X86509283Y-196859705D01*
X86431329Y-196868967D01*
X86318276Y-196866619D01*
X86205941Y-196850276D01*
X86112792Y-196821706D01*
X86066924Y-196798346D01*
X85960509Y-196714342D01*
X85873289Y-196598191D01*
X85806600Y-196451964D01*
X85761779Y-196277732D01*
X85749484Y-196201356D01*
X85736482Y-196063482D01*
X85737998Y-195947802D01*
X86089697Y-195947802D01*
X86092197Y-196058843D01*
X86101250Y-196173359D01*
X86115890Y-196277223D01*
X86135151Y-196356308D01*
X86145795Y-196382909D01*
X86183099Y-196448793D01*
X86225245Y-196497962D01*
X86258571Y-196520334D01*
X86325111Y-196543004D01*
X86393708Y-196545931D01*
X86454685Y-196530658D01*
X86498366Y-196498731D01*
X86515077Y-196451694D01*
X86514629Y-196449321D01*
X86501331Y-196419360D01*
X86471760Y-196362368D01*
X86428881Y-196283798D01*
X86375656Y-196189104D01*
X86315052Y-196083738D01*
X86115027Y-195739702D01*
X86098892Y-195825889D01*
X86094716Y-195854362D01*
X86089697Y-195947802D01*
X85737998Y-195947802D01*
X85738268Y-195927178D01*
X85754570Y-195773464D01*
X85772779Y-195668883D01*
X85815128Y-195525434D01*
X86272053Y-195525434D01*
X86276125Y-195553967D01*
X86290655Y-195594906D01*
X86317835Y-195653656D01*
X86359859Y-195735619D01*
X86418921Y-195846196D01*
X86467438Y-195936263D01*
X86524124Y-196041045D01*
X86565921Y-196116164D01*
X86595189Y-196164330D01*
X86614288Y-196188254D01*
X86625578Y-196190645D01*
X86631418Y-196174212D01*
X86634167Y-196141666D01*
X86636185Y-196095716D01*
X86638146Y-196034984D01*
X86633451Y-195872686D01*
X86614163Y-195732535D01*
X86581276Y-195618397D01*
X86535785Y-195534136D01*
X86478683Y-195483617D01*
X86444564Y-195468352D01*
X86372173Y-195452645D01*
X86314080Y-195463197D01*
X86278145Y-195499389D01*
X86276246Y-195503908D01*
X86272053Y-195525434D01*
X85815128Y-195525434D01*
X85822002Y-195502151D01*
X85892347Y-195366970D01*
X85984604Y-195261996D01*
X86099562Y-195185884D01*
X86158500Y-195159197D01*
X86216567Y-195141437D01*
X86281189Y-195133741D01*
X86368539Y-195132925D01*
X86479434Y-195139819D01*
X86579519Y-195162242D01*
X86666009Y-195204584D01*
X86751492Y-195271396D01*
X86799538Y-195320506D01*
X86882214Y-195444339D01*
X86940721Y-195597138D01*
X86975312Y-195779678D01*
X86986238Y-195992731D01*
X86984805Y-196034984D01*
G36*
X87881016Y-196034606D02*
G01*
X87872791Y-196192639D01*
X87828098Y-196413730D01*
X87750979Y-196626239D01*
X87641960Y-196826151D01*
X87501565Y-197009450D01*
X87330318Y-197172122D01*
X87258665Y-197226800D01*
X87048814Y-197353934D01*
X86822036Y-197446757D01*
X86582701Y-197503333D01*
X86529245Y-197509587D01*
X86397718Y-197513928D01*
X86251603Y-197507309D01*
X86106088Y-197490687D01*
X85976363Y-197465024D01*
X85889193Y-197439403D01*
X85683462Y-197352963D01*
X85487535Y-197235367D01*
X85308404Y-197091903D01*
X85153060Y-196927855D01*
X85028497Y-196748509D01*
X85021923Y-196736967D01*
X84930753Y-196536409D01*
X84871660Y-196320000D01*
X84844543Y-196093698D01*
X84846503Y-195998975D01*
X85107932Y-195998975D01*
X85122905Y-196200620D01*
X85171467Y-196398686D01*
X85254299Y-196589023D01*
X85372085Y-196767478D01*
X85411618Y-196814097D01*
X85545288Y-196939843D01*
X85702582Y-197051041D01*
X85872303Y-197140458D01*
X86043253Y-197200863D01*
X86160214Y-197225598D01*
X86379243Y-197242623D01*
X86595157Y-197221992D01*
X86803936Y-197164254D01*
X87001557Y-197069958D01*
X87008876Y-197065561D01*
X87100350Y-196999920D01*
X87200572Y-196912322D01*
X87298995Y-196813314D01*
X87385076Y-196713441D01*
X87448267Y-196623249D01*
X87532679Y-196450690D01*
X87594064Y-196245751D01*
X87619198Y-196034606D01*
X87607517Y-195822433D01*
X87558456Y-195614411D01*
X87533123Y-195547282D01*
X87450390Y-195387160D01*
X87341458Y-195231978D01*
X87213615Y-195090242D01*
X87074147Y-194970458D01*
X86930339Y-194881134D01*
X86874013Y-194854950D01*
X86672769Y-194787319D01*
X86463972Y-194753993D01*
X86253455Y-194754622D01*
X86047052Y-194788856D01*
X85850595Y-194856346D01*
X85669918Y-194956741D01*
X85512983Y-195082385D01*
X85370259Y-195239647D01*
X85257710Y-195414089D01*
X85176017Y-195601558D01*
X85125863Y-195797904D01*
X85107932Y-195998975D01*
X84846503Y-195998975D01*
X84849306Y-195863459D01*
X84885850Y-195635241D01*
X84954077Y-195414999D01*
X85053888Y-195208692D01*
X85120353Y-195110982D01*
X85217359Y-194995134D01*
X85328792Y-194881493D01*
X85444068Y-194780779D01*
X85552602Y-194703708D01*
X85622761Y-194663945D01*
X85834872Y-194572319D01*
X86062551Y-194511587D01*
X86298289Y-194482853D01*
X86534579Y-194487219D01*
X86763914Y-194525788D01*
X86785476Y-194531460D01*
X86965418Y-194597626D01*
X87145551Y-194694696D01*
X87317123Y-194816554D01*
X87471384Y-194957078D01*
X87599584Y-195110151D01*
X87716833Y-195302756D01*
X87807082Y-195518025D01*
X87862808Y-195740772D01*
X87884536Y-195966982D01*
X87881016Y-196034606D01*
G37*
X87881016Y-196034606D02*
X87872791Y-196192639D01*
X87828098Y-196413730D01*
X87750979Y-196626239D01*
X87641960Y-196826151D01*
X87501565Y-197009450D01*
X87330318Y-197172122D01*
X87258665Y-197226800D01*
X87048814Y-197353934D01*
X86822036Y-197446757D01*
X86582701Y-197503333D01*
X86529245Y-197509587D01*
X86397718Y-197513928D01*
X86251603Y-197507309D01*
X86106088Y-197490687D01*
X85976363Y-197465024D01*
X85889193Y-197439403D01*
X85683462Y-197352963D01*
X85487535Y-197235367D01*
X85308404Y-197091903D01*
X85153060Y-196927855D01*
X85028497Y-196748509D01*
X85021923Y-196736967D01*
X84930753Y-196536409D01*
X84871660Y-196320000D01*
X84844543Y-196093698D01*
X84846503Y-195998975D01*
X85107932Y-195998975D01*
X85122905Y-196200620D01*
X85171467Y-196398686D01*
X85254299Y-196589023D01*
X85372085Y-196767478D01*
X85411618Y-196814097D01*
X85545288Y-196939843D01*
X85702582Y-197051041D01*
X85872303Y-197140458D01*
X86043253Y-197200863D01*
X86160214Y-197225598D01*
X86379243Y-197242623D01*
X86595157Y-197221992D01*
X86803936Y-197164254D01*
X87001557Y-197069958D01*
X87008876Y-197065561D01*
X87100350Y-196999920D01*
X87200572Y-196912322D01*
X87298995Y-196813314D01*
X87385076Y-196713441D01*
X87448267Y-196623249D01*
X87532679Y-196450690D01*
X87594064Y-196245751D01*
X87619198Y-196034606D01*
X87607517Y-195822433D01*
X87558456Y-195614411D01*
X87533123Y-195547282D01*
X87450390Y-195387160D01*
X87341458Y-195231978D01*
X87213615Y-195090242D01*
X87074147Y-194970458D01*
X86930339Y-194881134D01*
X86874013Y-194854950D01*
X86672769Y-194787319D01*
X86463972Y-194753993D01*
X86253455Y-194754622D01*
X86047052Y-194788856D01*
X85850595Y-194856346D01*
X85669918Y-194956741D01*
X85512983Y-195082385D01*
X85370259Y-195239647D01*
X85257710Y-195414089D01*
X85176017Y-195601558D01*
X85125863Y-195797904D01*
X85107932Y-195998975D01*
X84846503Y-195998975D01*
X84849306Y-195863459D01*
X84885850Y-195635241D01*
X84954077Y-195414999D01*
X85053888Y-195208692D01*
X85120353Y-195110982D01*
X85217359Y-194995134D01*
X85328792Y-194881493D01*
X85444068Y-194780779D01*
X85552602Y-194703708D01*
X85622761Y-194663945D01*
X85834872Y-194572319D01*
X86062551Y-194511587D01*
X86298289Y-194482853D01*
X86534579Y-194487219D01*
X86763914Y-194525788D01*
X86785476Y-194531460D01*
X86965418Y-194597626D01*
X87145551Y-194694696D01*
X87317123Y-194816554D01*
X87471384Y-194957078D01*
X87599584Y-195110151D01*
X87716833Y-195302756D01*
X87807082Y-195518025D01*
X87862808Y-195740772D01*
X87884536Y-195966982D01*
X87881016Y-196034606D01*
G36*
X91137084Y-195986371D02*
G01*
X91140535Y-196058003D01*
X91114239Y-196290302D01*
X91051194Y-196514250D01*
X90952401Y-196726943D01*
X90818861Y-196925473D01*
X90651575Y-197106935D01*
X90650519Y-197107922D01*
X90472932Y-197249928D01*
X90274960Y-197365903D01*
X90065147Y-197451615D01*
X89852036Y-197502835D01*
X89792831Y-197509650D01*
X89661804Y-197514540D01*
X89517661Y-197509844D01*
X89376333Y-197496312D01*
X89253751Y-197474692D01*
X89111382Y-197432904D01*
X88900450Y-197339317D01*
X88704617Y-197214128D01*
X88528345Y-197061404D01*
X88376092Y-196885212D01*
X88252320Y-196689619D01*
X88161488Y-196478692D01*
X88141101Y-196414672D01*
X88126685Y-196357855D01*
X88117274Y-196299255D01*
X88111786Y-196229550D01*
X88109141Y-196139418D01*
X88108257Y-196019538D01*
X88108456Y-196000000D01*
X88364724Y-196000000D01*
X88370085Y-196160468D01*
X88393839Y-196320154D01*
X88439983Y-196465157D01*
X88512259Y-196606814D01*
X88614407Y-196756457D01*
X88684202Y-196838415D01*
X88819642Y-196960299D01*
X88976986Y-197067240D01*
X89145852Y-197152534D01*
X89315852Y-197209472D01*
X89358637Y-197218062D01*
X89440787Y-197229448D01*
X89533045Y-197238131D01*
X89623233Y-197243264D01*
X89699174Y-197244004D01*
X89748692Y-197239505D01*
X89771304Y-197234585D01*
X89827822Y-197222939D01*
X89895231Y-197209527D01*
X89911196Y-197205990D01*
X89986608Y-197183320D01*
X90076119Y-197149895D01*
X90163640Y-197111586D01*
X90185539Y-197100816D01*
X90361307Y-196990947D01*
X90518836Y-196850554D01*
X90653427Y-196685299D01*
X90760380Y-196500843D01*
X90834995Y-196302846D01*
X90848612Y-196238052D01*
X90860389Y-196119780D01*
X90862601Y-195986371D01*
X90855631Y-195851170D01*
X90839862Y-195727521D01*
X90815676Y-195628769D01*
X90770203Y-195515098D01*
X90667892Y-195330800D01*
X90539315Y-195165015D01*
X90389038Y-195021826D01*
X90221627Y-194905315D01*
X90041649Y-194819565D01*
X89853669Y-194768657D01*
X89759944Y-194757356D01*
X89617025Y-194752684D01*
X89470736Y-194759903D01*
X89334844Y-194778184D01*
X89223114Y-194806696D01*
X89157005Y-194831773D01*
X88956439Y-194934010D01*
X88780224Y-195066010D01*
X88630477Y-195225634D01*
X88509318Y-195410739D01*
X88418866Y-195619187D01*
X88404547Y-195662980D01*
X88384761Y-195735844D01*
X88372805Y-195807322D01*
X88366764Y-195890885D01*
X88364724Y-196000000D01*
X88108456Y-196000000D01*
X88109665Y-195881287D01*
X88116892Y-195750114D01*
X88131999Y-195639067D01*
X88156951Y-195538132D01*
X88193712Y-195437295D01*
X88244249Y-195326541D01*
X88257089Y-195300844D01*
X88381589Y-195098696D01*
X88533628Y-194921729D01*
X88709636Y-194771823D01*
X88906042Y-194650861D01*
X89119275Y-194560725D01*
X89345762Y-194503295D01*
X89581934Y-194480453D01*
X89824219Y-194494081D01*
X89852752Y-194498104D01*
X90078478Y-194548158D01*
X90283837Y-194629231D01*
X90474249Y-194743935D01*
X90655132Y-194894885D01*
X90684913Y-194923940D01*
X90845439Y-195107891D01*
X90970059Y-195304919D01*
X91060541Y-195518286D01*
X91118648Y-195751252D01*
X91129080Y-195820259D01*
X91137084Y-195986371D01*
G37*
X91137084Y-195986371D02*
X91140535Y-196058003D01*
X91114239Y-196290302D01*
X91051194Y-196514250D01*
X90952401Y-196726943D01*
X90818861Y-196925473D01*
X90651575Y-197106935D01*
X90650519Y-197107922D01*
X90472932Y-197249928D01*
X90274960Y-197365903D01*
X90065147Y-197451615D01*
X89852036Y-197502835D01*
X89792831Y-197509650D01*
X89661804Y-197514540D01*
X89517661Y-197509844D01*
X89376333Y-197496312D01*
X89253751Y-197474692D01*
X89111382Y-197432904D01*
X88900450Y-197339317D01*
X88704617Y-197214128D01*
X88528345Y-197061404D01*
X88376092Y-196885212D01*
X88252320Y-196689619D01*
X88161488Y-196478692D01*
X88141101Y-196414672D01*
X88126685Y-196357855D01*
X88117274Y-196299255D01*
X88111786Y-196229550D01*
X88109141Y-196139418D01*
X88108257Y-196019538D01*
X88108456Y-196000000D01*
X88364724Y-196000000D01*
X88370085Y-196160468D01*
X88393839Y-196320154D01*
X88439983Y-196465157D01*
X88512259Y-196606814D01*
X88614407Y-196756457D01*
X88684202Y-196838415D01*
X88819642Y-196960299D01*
X88976986Y-197067240D01*
X89145852Y-197152534D01*
X89315852Y-197209472D01*
X89358637Y-197218062D01*
X89440787Y-197229448D01*
X89533045Y-197238131D01*
X89623233Y-197243264D01*
X89699174Y-197244004D01*
X89748692Y-197239505D01*
X89771304Y-197234585D01*
X89827822Y-197222939D01*
X89895231Y-197209527D01*
X89911196Y-197205990D01*
X89986608Y-197183320D01*
X90076119Y-197149895D01*
X90163640Y-197111586D01*
X90185539Y-197100816D01*
X90361307Y-196990947D01*
X90518836Y-196850554D01*
X90653427Y-196685299D01*
X90760380Y-196500843D01*
X90834995Y-196302846D01*
X90848612Y-196238052D01*
X90860389Y-196119780D01*
X90862601Y-195986371D01*
X90855631Y-195851170D01*
X90839862Y-195727521D01*
X90815676Y-195628769D01*
X90770203Y-195515098D01*
X90667892Y-195330800D01*
X90539315Y-195165015D01*
X90389038Y-195021826D01*
X90221627Y-194905315D01*
X90041649Y-194819565D01*
X89853669Y-194768657D01*
X89759944Y-194757356D01*
X89617025Y-194752684D01*
X89470736Y-194759903D01*
X89334844Y-194778184D01*
X89223114Y-194806696D01*
X89157005Y-194831773D01*
X88956439Y-194934010D01*
X88780224Y-195066010D01*
X88630477Y-195225634D01*
X88509318Y-195410739D01*
X88418866Y-195619187D01*
X88404547Y-195662980D01*
X88384761Y-195735844D01*
X88372805Y-195807322D01*
X88366764Y-195890885D01*
X88364724Y-196000000D01*
X88108456Y-196000000D01*
X88109665Y-195881287D01*
X88116892Y-195750114D01*
X88131999Y-195639067D01*
X88156951Y-195538132D01*
X88193712Y-195437295D01*
X88244249Y-195326541D01*
X88257089Y-195300844D01*
X88381589Y-195098696D01*
X88533628Y-194921729D01*
X88709636Y-194771823D01*
X88906042Y-194650861D01*
X89119275Y-194560725D01*
X89345762Y-194503295D01*
X89581934Y-194480453D01*
X89824219Y-194494081D01*
X89852752Y-194498104D01*
X90078478Y-194548158D01*
X90283837Y-194629231D01*
X90474249Y-194743935D01*
X90655132Y-194894885D01*
X90684913Y-194923940D01*
X90845439Y-195107891D01*
X90970059Y-195304919D01*
X91060541Y-195518286D01*
X91118648Y-195751252D01*
X91129080Y-195820259D01*
X91137084Y-195986371D01*
%TD*%
%LPC*%
D12*
%TO.C,H22*%
X125000000Y-88000000D03*
%TD*%
D13*
%TO.C,H8*%
X144000000Y-83000000D03*
%TD*%
%TO.C,H13*%
X56000000Y-162000000D03*
%TD*%
%TO.C,H3*%
X56000000Y-83000000D03*
%TD*%
D14*
%TO.C,H20*%
X124880000Y-25800000D03*
%TD*%
%TO.C,H19*%
X124880000Y-74030000D03*
%TD*%
D15*
%TO.C,H4*%
X54800000Y-175000000D03*
D16*
X54800000Y-175000000D03*
X57100000Y-169600000D03*
X57100000Y-180400000D03*
X62500000Y-167300000D03*
X62500000Y-182700000D03*
X67800000Y-180500000D03*
X67900000Y-169600000D03*
X70200000Y-175000000D03*
%TD*%
D17*
%TO.C,H9*%
X103900000Y-175000000D03*
D16*
X103900000Y-175000000D03*
X105700000Y-170700000D03*
X105700000Y-179300000D03*
X110000000Y-168900000D03*
X110000000Y-181100000D03*
X114200000Y-179400000D03*
X114300000Y-170700000D03*
X116100000Y-175000000D03*
%TD*%
D14*
%TO.C,H18*%
X69000000Y-74030000D03*
%TD*%
D18*
%TO.C,H5*%
X82750000Y-175000000D03*
D16*
X82750000Y-175000000D03*
X84050000Y-171800000D03*
X84050000Y-178200000D03*
X87250000Y-170500000D03*
X87250000Y-179500000D03*
X90350000Y-178300000D03*
X90450000Y-171800000D03*
X91750000Y-175000000D03*
%TD*%
D19*
%TO.C,H23*%
X54399999Y-2999999D03*
X54399999Y-196999999D03*
%TD*%
D14*
%TO.C,H21*%
X69000000Y-25800000D03*
%TD*%
D17*
%TO.C,H14*%
X131400000Y-175000000D03*
D16*
X131400000Y-175000000D03*
X133200000Y-170700000D03*
X133200000Y-179300000D03*
X137500000Y-168900000D03*
X137500000Y-181100000D03*
X141700000Y-179400000D03*
X141800000Y-170700000D03*
X143600000Y-175000000D03*
%TD*%
D13*
%TO.C,H17*%
X144000000Y-162000000D03*
%TD*%
D19*
%TO.C,H24*%
X145599999Y-196999999D03*
X145599999Y-2999999D03*
%TD*%
D18*
%TO.C,H10*%
X53000000Y-50000000D03*
D16*
X53000000Y-50000000D03*
X54300000Y-46800000D03*
X54300000Y-53200000D03*
X57500000Y-45500000D03*
X57500000Y-54500000D03*
X60600000Y-53300000D03*
X60700000Y-46800000D03*
X62000000Y-50000000D03*
%TD*%
M02*
