%TF.GenerationSoftware,KiCad,Pcbnew,7.0.0-da2b9df05c~163~ubuntu22.04.1*%
%TF.CreationDate,2023-02-19T09:56:45-05:00*%
%TF.ProjectId,dso138_panel,64736f31-3338-45f7-9061-6e656c2e6b69,rev?*%
%TF.SameCoordinates,Original*%
%TF.FileFunction,Profile,NP*%
%FSLAX46Y46*%
G04 Gerber Fmt 4.6, Leading zero omitted, Abs format (unit mm)*
G04 Created by KiCad (PCBNEW 7.0.0-da2b9df05c~163~ubuntu22.04.1) date 2023-02-19 09:56:45*
%MOMM*%
%LPD*%
G01*
G04 APERTURE LIST*
%TA.AperFunction,Profile*%
%ADD10C,0.100000*%
%TD*%
%TA.AperFunction,Profile*%
%ADD11C,0.050000*%
%TD*%
G04 APERTURE END LIST*
D10*
X75100000Y-29800000D02*
X125100000Y-29800000D01*
X125100000Y-29800000D02*
X125100000Y-69800000D01*
X125100000Y-69800000D02*
X75100000Y-69800000D01*
X75100000Y-69800000D02*
X75100000Y-29800000D01*
X50000000Y0D02*
X150000000Y0D01*
X150000000Y0D02*
X150000000Y-200000000D01*
X150000000Y-200000000D02*
X50000000Y-200000000D01*
X50000000Y-200000000D02*
X50000000Y0D01*
%TO.C,H1*%
X56000000Y-98500000D02*
X69000000Y-98500000D01*
X69000000Y-98500000D02*
X69000000Y-111500000D01*
X69000000Y-111500000D02*
X56000000Y-111500000D01*
X56000000Y-111500000D02*
X56000000Y-98500000D01*
%TO.C,H16*%
X131000000Y-128500000D02*
X144000000Y-128500000D01*
X144000000Y-128500000D02*
X144000000Y-141500000D01*
X144000000Y-141500000D02*
X131000000Y-141500000D01*
X131000000Y-141500000D02*
X131000000Y-128500000D01*
%TO.C,H15*%
X131000000Y-98500000D02*
X144000000Y-98500000D01*
X144000000Y-98500000D02*
X144000000Y-111500000D01*
X144000000Y-111500000D02*
X131000000Y-111500000D01*
X131000000Y-111500000D02*
X131000000Y-98500000D01*
D11*
%TO.C,H2*%
X57000000Y-133000000D02*
X68000000Y-133000000D01*
X68000000Y-133000000D02*
X68000000Y-137000000D01*
X68000000Y-137000000D02*
X57000000Y-137000000D01*
X57000000Y-137000000D02*
X57000000Y-133000000D01*
%TO.C,H4*%
X69000000Y-175000000D02*
G75*
G03*
X69000000Y-175000000I-6500000J0D01*
G01*
%TO.C,H9*%
X114900000Y-175000000D02*
G75*
G03*
X114900000Y-175000000I-4900000J0D01*
G01*
D10*
%TO.C,H11*%
X106000000Y-98500000D02*
X119000000Y-98500000D01*
X119000000Y-98500000D02*
X119000000Y-111500000D01*
X119000000Y-111500000D02*
X106000000Y-111500000D01*
X106000000Y-111500000D02*
X106000000Y-98500000D01*
D11*
%TO.C,H5*%
X90550000Y-175000000D02*
G75*
G03*
X90550000Y-175000000I-3300000J0D01*
G01*
%TO.C,H14*%
X142400000Y-175000000D02*
G75*
G03*
X142400000Y-175000000I-4900000J0D01*
G01*
D10*
%TO.C,H6*%
X81000000Y-98500000D02*
X94000000Y-98500000D01*
X94000000Y-98500000D02*
X94000000Y-111500000D01*
X94000000Y-111500000D02*
X81000000Y-111500000D01*
X81000000Y-111500000D02*
X81000000Y-98500000D01*
D11*
%TO.C,H7*%
X82000000Y-133000000D02*
X93000000Y-133000000D01*
X93000000Y-133000000D02*
X93000000Y-137000000D01*
X93000000Y-137000000D02*
X82000000Y-137000000D01*
X82000000Y-137000000D02*
X82000000Y-133000000D01*
%TO.C,H12*%
X107000000Y-133000000D02*
X118000000Y-133000000D01*
X118000000Y-133000000D02*
X118000000Y-137000000D01*
X118000000Y-137000000D02*
X107000000Y-137000000D01*
X107000000Y-137000000D02*
X107000000Y-133000000D01*
%TO.C,H10*%
X60800000Y-50000000D02*
G75*
G03*
X60800000Y-50000000I-3300000J0D01*
G01*
%TD*%
M02*
