%TF.GenerationSoftware,KiCad,Pcbnew,7.0.0-da2b9df05c~163~ubuntu22.04.1*%
%TF.CreationDate,2023-02-19T09:53:21-05:00*%
%TF.ProjectId,dso138_panel,64736f31-3338-45f7-9061-6e656c2e6b69,rev?*%
%TF.SameCoordinates,Original*%
%TF.FileFunction,Drillmap*%
%TF.FilePolarity,Positive*%
%FSLAX45Y45*%
G04 Gerber Fmt 4.5, Leading zero omitted, Abs format (unit mm)*
G04 Created by KiCad (PCBNEW 7.0.0-da2b9df05c~163~ubuntu22.04.1) date 2023-02-19 09:53:21*
%MOMM*%
%LPD*%
G01*
G04 APERTURE LIST*
%ADD10C,0.100000*%
%ADD11C,0.200000*%
%ADD12C,0.060000*%
%ADD13C,0.300000*%
%ADD14C,0.320000*%
%ADD15C,0.370000*%
G04 APERTURE END LIST*
D10*
X7510000Y-2980000D02*
X12510000Y-2980000D01*
X12510000Y-2980000D02*
X12510000Y-6980000D01*
X12510000Y-6980000D02*
X7510000Y-6980000D01*
X7510000Y-6980000D02*
X7510000Y-2980000D01*
X5000000Y0D02*
X15000000Y0D01*
X15000000Y0D02*
X15000000Y-20000000D01*
X15000000Y-20000000D02*
X5000000Y-20000000D01*
X5000000Y-20000000D02*
X5000000Y0D01*
D11*
D12*
X5270000Y-4970000D02*
X5330000Y-5030000D01*
X5330000Y-4970000D02*
X5270000Y-5030000D01*
X5400000Y-4650000D02*
X5460000Y-4710000D01*
X5460000Y-4650000D02*
X5400000Y-4710000D01*
X5400000Y-5290000D02*
X5460000Y-5350000D01*
X5460000Y-5290000D02*
X5400000Y-5350000D01*
X5450000Y-17470000D02*
X5510000Y-17530000D01*
X5510000Y-17470000D02*
X5450000Y-17530000D01*
X5680000Y-16930000D02*
X5740000Y-16990000D01*
X5740000Y-16930000D02*
X5680000Y-16990000D01*
X5680000Y-18010000D02*
X5740000Y-18070000D01*
X5740000Y-18010000D02*
X5680000Y-18070000D01*
X5720000Y-4520000D02*
X5780000Y-4580000D01*
X5780000Y-4520000D02*
X5720000Y-4580000D01*
X5720000Y-5420000D02*
X5780000Y-5480000D01*
X5780000Y-5420000D02*
X5720000Y-5480000D01*
X6030000Y-5300000D02*
X6090000Y-5360000D01*
X6090000Y-5300000D02*
X6030000Y-5360000D01*
X6040000Y-4650000D02*
X6100000Y-4710000D01*
X6100000Y-4650000D02*
X6040000Y-4710000D01*
X6170000Y-4970000D02*
X6230000Y-5030000D01*
X6230000Y-4970000D02*
X6170000Y-5030000D01*
X6220000Y-16700000D02*
X6280000Y-16760000D01*
X6280000Y-16700000D02*
X6220000Y-16760000D01*
X6220000Y-18240000D02*
X6280000Y-18300000D01*
X6280000Y-18240000D02*
X6220000Y-18300000D01*
X6750000Y-18020000D02*
X6810000Y-18080000D01*
X6810000Y-18020000D02*
X6750000Y-18080000D01*
X6760000Y-16930000D02*
X6820000Y-16990000D01*
X6820000Y-16930000D02*
X6760000Y-16990000D01*
X6990000Y-17470000D02*
X7050000Y-17530000D01*
X7050000Y-17470000D02*
X6990000Y-17530000D01*
X8245000Y-17470000D02*
X8305000Y-17530000D01*
X8305000Y-17470000D02*
X8245000Y-17530000D01*
X8375000Y-17150000D02*
X8435000Y-17210000D01*
X8435000Y-17150000D02*
X8375000Y-17210000D01*
X8375000Y-17790000D02*
X8435000Y-17850000D01*
X8435000Y-17790000D02*
X8375000Y-17850000D01*
X8695000Y-17020000D02*
X8755000Y-17080000D01*
X8755000Y-17020000D02*
X8695000Y-17080000D01*
X8695000Y-17920000D02*
X8755000Y-17980000D01*
X8755000Y-17920000D02*
X8695000Y-17980000D01*
X9005000Y-17800000D02*
X9065000Y-17860000D01*
X9065000Y-17800000D02*
X9005000Y-17860000D01*
X9015000Y-17150000D02*
X9075000Y-17210000D01*
X9075000Y-17150000D02*
X9015000Y-17210000D01*
X9145000Y-17470000D02*
X9205000Y-17530000D01*
X9205000Y-17470000D02*
X9145000Y-17530000D01*
X10360000Y-17470000D02*
X10420000Y-17530000D01*
X10420000Y-17470000D02*
X10360000Y-17530000D01*
X10540000Y-17040000D02*
X10600000Y-17100000D01*
X10600000Y-17040000D02*
X10540000Y-17100000D01*
X10540000Y-17900000D02*
X10600000Y-17960000D01*
X10600000Y-17900000D02*
X10540000Y-17960000D01*
X10970000Y-16860000D02*
X11030000Y-16920000D01*
X11030000Y-16860000D02*
X10970000Y-16920000D01*
X10970000Y-18080000D02*
X11030000Y-18140000D01*
X11030000Y-18080000D02*
X10970000Y-18140000D01*
X11390000Y-17910000D02*
X11450000Y-17970000D01*
X11450000Y-17910000D02*
X11390000Y-17970000D01*
X11400000Y-17040000D02*
X11460000Y-17100000D01*
X11460000Y-17040000D02*
X11400000Y-17100000D01*
X11580000Y-17470000D02*
X11640000Y-17530000D01*
X11640000Y-17470000D02*
X11580000Y-17530000D01*
X13110000Y-17470000D02*
X13170000Y-17530000D01*
X13170000Y-17470000D02*
X13110000Y-17530000D01*
X13290000Y-17040000D02*
X13350000Y-17100000D01*
X13350000Y-17040000D02*
X13290000Y-17100000D01*
X13290000Y-17900000D02*
X13350000Y-17960000D01*
X13350000Y-17900000D02*
X13290000Y-17960000D01*
X13720000Y-16860000D02*
X13780000Y-16920000D01*
X13780000Y-16860000D02*
X13720000Y-16920000D01*
X13720000Y-18080000D02*
X13780000Y-18140000D01*
X13780000Y-18080000D02*
X13720000Y-18140000D01*
X14140000Y-17910000D02*
X14200000Y-17970000D01*
X14200000Y-17910000D02*
X14140000Y-17970000D01*
X14150000Y-17040000D02*
X14210000Y-17100000D01*
X14210000Y-17040000D02*
X14150000Y-17100000D01*
X14330000Y-17470000D02*
X14390000Y-17530000D01*
X14390000Y-17470000D02*
X14330000Y-17530000D01*
D13*
X7050000Y-2580000D02*
G75*
G03*
X7050000Y-2580000I-150000J0D01*
G01*
X7050000Y-7403000D02*
G75*
G03*
X7050000Y-7403000I-150000J0D01*
G01*
X12638000Y-2580000D02*
G75*
G03*
X12638000Y-2580000I-150000J0D01*
G01*
X12638000Y-7403000D02*
G75*
G03*
X12638000Y-7403000I-150000J0D01*
G01*
D14*
X5440000Y-140000D02*
X5440000Y-460000D01*
X5280000Y-300000D02*
X5600000Y-300000D01*
D11*
X5300000Y-460000D02*
X5580000Y-460000D01*
X5580000Y-460000D02*
G75*
G03*
X5580000Y-140000I0J160000D01*
G01*
X5580000Y-140000D02*
X5300000Y-140000D01*
X5300000Y-140000D02*
G75*
G03*
X5300000Y-460000I0J-160000D01*
G01*
D14*
X5440000Y-19540000D02*
X5440000Y-19860000D01*
X5280000Y-19700000D02*
X5600000Y-19700000D01*
D11*
X5300000Y-19860000D02*
X5580000Y-19860000D01*
X5580000Y-19860000D02*
G75*
G03*
X5580000Y-19540000I0J160000D01*
G01*
X5580000Y-19540000D02*
X5300000Y-19540000D01*
X5300000Y-19540000D02*
G75*
G03*
X5300000Y-19860000I0J-160000D01*
G01*
D14*
X14560000Y-140000D02*
X14560000Y-460000D01*
X14400000Y-300000D02*
X14720000Y-300000D01*
D11*
X14700000Y-140000D02*
X14420000Y-140000D01*
X14420000Y-140000D02*
G75*
G03*
X14420000Y-460000I0J-160000D01*
G01*
X14420000Y-460000D02*
X14700000Y-460000D01*
X14700000Y-460000D02*
G75*
G03*
X14700000Y-140000I0J160000D01*
G01*
D14*
X14560000Y-19540000D02*
X14560000Y-19860000D01*
X14400000Y-19700000D02*
X14720000Y-19700000D01*
D11*
X14700000Y-19540000D02*
X14420000Y-19540000D01*
X14420000Y-19540000D02*
G75*
G03*
X14420000Y-19860000I0J-160000D01*
G01*
X14420000Y-19860000D02*
X14700000Y-19860000D01*
X14700000Y-19860000D02*
G75*
G03*
X14700000Y-19540000I0J160000D01*
G01*
D15*
X5730816Y-8430816D02*
X5730816Y-8169184D01*
X5469184Y-8169184D01*
X5469184Y-8430816D01*
X5730816Y-8430816D01*
X5730816Y-16330816D02*
X5730816Y-16069184D01*
X5469184Y-16069184D01*
X5469184Y-16330816D01*
X5730816Y-16330816D01*
X14530816Y-8430816D02*
X14530816Y-8169184D01*
X14269184Y-8169184D01*
X14269184Y-8430816D01*
X14530816Y-8430816D01*
X14530816Y-16330816D02*
X14530816Y-16069184D01*
X14269184Y-16069184D01*
X14269184Y-16330816D01*
X14530816Y-16330816D01*
D11*
X5242619Y-20298476D02*
X5242619Y-20098476D01*
X5242619Y-20098476D02*
X5290238Y-20098476D01*
X5290238Y-20098476D02*
X5318810Y-20108000D01*
X5318810Y-20108000D02*
X5337857Y-20127048D01*
X5337857Y-20127048D02*
X5347381Y-20146095D01*
X5347381Y-20146095D02*
X5356905Y-20184190D01*
X5356905Y-20184190D02*
X5356905Y-20212762D01*
X5356905Y-20212762D02*
X5347381Y-20250857D01*
X5347381Y-20250857D02*
X5337857Y-20269905D01*
X5337857Y-20269905D02*
X5318810Y-20288952D01*
X5318810Y-20288952D02*
X5290238Y-20298476D01*
X5290238Y-20298476D02*
X5242619Y-20298476D01*
X5442619Y-20298476D02*
X5442619Y-20165143D01*
X5442619Y-20203238D02*
X5452143Y-20184190D01*
X5452143Y-20184190D02*
X5461667Y-20174667D01*
X5461667Y-20174667D02*
X5480714Y-20165143D01*
X5480714Y-20165143D02*
X5499762Y-20165143D01*
X5566429Y-20298476D02*
X5566429Y-20165143D01*
X5566429Y-20098476D02*
X5556905Y-20108000D01*
X5556905Y-20108000D02*
X5566429Y-20117524D01*
X5566429Y-20117524D02*
X5575952Y-20108000D01*
X5575952Y-20108000D02*
X5566429Y-20098476D01*
X5566429Y-20098476D02*
X5566429Y-20117524D01*
X5690238Y-20298476D02*
X5671190Y-20288952D01*
X5671190Y-20288952D02*
X5661667Y-20269905D01*
X5661667Y-20269905D02*
X5661667Y-20098476D01*
X5795000Y-20298476D02*
X5775952Y-20288952D01*
X5775952Y-20288952D02*
X5766428Y-20269905D01*
X5766428Y-20269905D02*
X5766428Y-20098476D01*
X5991190Y-20298476D02*
X5991190Y-20098476D01*
X5991190Y-20098476D02*
X6057857Y-20241333D01*
X6057857Y-20241333D02*
X6124524Y-20098476D01*
X6124524Y-20098476D02*
X6124524Y-20298476D01*
X6305476Y-20298476D02*
X6305476Y-20193714D01*
X6305476Y-20193714D02*
X6295952Y-20174667D01*
X6295952Y-20174667D02*
X6276905Y-20165143D01*
X6276905Y-20165143D02*
X6238809Y-20165143D01*
X6238809Y-20165143D02*
X6219762Y-20174667D01*
X6305476Y-20288952D02*
X6286428Y-20298476D01*
X6286428Y-20298476D02*
X6238809Y-20298476D01*
X6238809Y-20298476D02*
X6219762Y-20288952D01*
X6219762Y-20288952D02*
X6210238Y-20269905D01*
X6210238Y-20269905D02*
X6210238Y-20250857D01*
X6210238Y-20250857D02*
X6219762Y-20231810D01*
X6219762Y-20231810D02*
X6238809Y-20222286D01*
X6238809Y-20222286D02*
X6286428Y-20222286D01*
X6286428Y-20222286D02*
X6305476Y-20212762D01*
X6400714Y-20165143D02*
X6400714Y-20365143D01*
X6400714Y-20174667D02*
X6419762Y-20165143D01*
X6419762Y-20165143D02*
X6457857Y-20165143D01*
X6457857Y-20165143D02*
X6476905Y-20174667D01*
X6476905Y-20174667D02*
X6486428Y-20184190D01*
X6486428Y-20184190D02*
X6495952Y-20203238D01*
X6495952Y-20203238D02*
X6495952Y-20260381D01*
X6495952Y-20260381D02*
X6486428Y-20279429D01*
X6486428Y-20279429D02*
X6476905Y-20288952D01*
X6476905Y-20288952D02*
X6457857Y-20298476D01*
X6457857Y-20298476D02*
X6419762Y-20298476D01*
X6419762Y-20298476D02*
X6400714Y-20288952D01*
X6581667Y-20279429D02*
X6591190Y-20288952D01*
X6591190Y-20288952D02*
X6581667Y-20298476D01*
X6581667Y-20298476D02*
X6572143Y-20288952D01*
X6572143Y-20288952D02*
X6581667Y-20279429D01*
X6581667Y-20279429D02*
X6581667Y-20298476D01*
X6581667Y-20174667D02*
X6591190Y-20184190D01*
X6591190Y-20184190D02*
X6581667Y-20193714D01*
X6581667Y-20193714D02*
X6572143Y-20184190D01*
X6572143Y-20184190D02*
X6581667Y-20174667D01*
X6581667Y-20174667D02*
X6581667Y-20193714D01*
D12*
X4935000Y-20615000D02*
X4995000Y-20675000D01*
X4995000Y-20615000D02*
X4935000Y-20675000D01*
D11*
X5280714Y-20518476D02*
X5299762Y-20518476D01*
X5299762Y-20518476D02*
X5318810Y-20528000D01*
X5318810Y-20528000D02*
X5328333Y-20537524D01*
X5328333Y-20537524D02*
X5337857Y-20556571D01*
X5337857Y-20556571D02*
X5347381Y-20594667D01*
X5347381Y-20594667D02*
X5347381Y-20642286D01*
X5347381Y-20642286D02*
X5337857Y-20680381D01*
X5337857Y-20680381D02*
X5328333Y-20699429D01*
X5328333Y-20699429D02*
X5318810Y-20708952D01*
X5318810Y-20708952D02*
X5299762Y-20718476D01*
X5299762Y-20718476D02*
X5280714Y-20718476D01*
X5280714Y-20718476D02*
X5261667Y-20708952D01*
X5261667Y-20708952D02*
X5252143Y-20699429D01*
X5252143Y-20699429D02*
X5242619Y-20680381D01*
X5242619Y-20680381D02*
X5233095Y-20642286D01*
X5233095Y-20642286D02*
X5233095Y-20594667D01*
X5233095Y-20594667D02*
X5242619Y-20556571D01*
X5242619Y-20556571D02*
X5252143Y-20537524D01*
X5252143Y-20537524D02*
X5261667Y-20528000D01*
X5261667Y-20528000D02*
X5280714Y-20518476D01*
X5433095Y-20699429D02*
X5442619Y-20708952D01*
X5442619Y-20708952D02*
X5433095Y-20718476D01*
X5433095Y-20718476D02*
X5423571Y-20708952D01*
X5423571Y-20708952D02*
X5433095Y-20699429D01*
X5433095Y-20699429D02*
X5433095Y-20718476D01*
X5614048Y-20518476D02*
X5575952Y-20518476D01*
X5575952Y-20518476D02*
X5556905Y-20528000D01*
X5556905Y-20528000D02*
X5547381Y-20537524D01*
X5547381Y-20537524D02*
X5528333Y-20566095D01*
X5528333Y-20566095D02*
X5518810Y-20604190D01*
X5518810Y-20604190D02*
X5518810Y-20680381D01*
X5518810Y-20680381D02*
X5528333Y-20699429D01*
X5528333Y-20699429D02*
X5537857Y-20708952D01*
X5537857Y-20708952D02*
X5556905Y-20718476D01*
X5556905Y-20718476D02*
X5595000Y-20718476D01*
X5595000Y-20718476D02*
X5614048Y-20708952D01*
X5614048Y-20708952D02*
X5623571Y-20699429D01*
X5623571Y-20699429D02*
X5633095Y-20680381D01*
X5633095Y-20680381D02*
X5633095Y-20632762D01*
X5633095Y-20632762D02*
X5623571Y-20613714D01*
X5623571Y-20613714D02*
X5614048Y-20604190D01*
X5614048Y-20604190D02*
X5595000Y-20594667D01*
X5595000Y-20594667D02*
X5556905Y-20594667D01*
X5556905Y-20594667D02*
X5537857Y-20604190D01*
X5537857Y-20604190D02*
X5528333Y-20613714D01*
X5528333Y-20613714D02*
X5518810Y-20632762D01*
X5756905Y-20518476D02*
X5775952Y-20518476D01*
X5775952Y-20518476D02*
X5795000Y-20528000D01*
X5795000Y-20528000D02*
X5804524Y-20537524D01*
X5804524Y-20537524D02*
X5814048Y-20556571D01*
X5814048Y-20556571D02*
X5823571Y-20594667D01*
X5823571Y-20594667D02*
X5823571Y-20642286D01*
X5823571Y-20642286D02*
X5814048Y-20680381D01*
X5814048Y-20680381D02*
X5804524Y-20699429D01*
X5804524Y-20699429D02*
X5795000Y-20708952D01*
X5795000Y-20708952D02*
X5775952Y-20718476D01*
X5775952Y-20718476D02*
X5756905Y-20718476D01*
X5756905Y-20718476D02*
X5737857Y-20708952D01*
X5737857Y-20708952D02*
X5728333Y-20699429D01*
X5728333Y-20699429D02*
X5718809Y-20680381D01*
X5718809Y-20680381D02*
X5709286Y-20642286D01*
X5709286Y-20642286D02*
X5709286Y-20594667D01*
X5709286Y-20594667D02*
X5718809Y-20556571D01*
X5718809Y-20556571D02*
X5728333Y-20537524D01*
X5728333Y-20537524D02*
X5737857Y-20528000D01*
X5737857Y-20528000D02*
X5756905Y-20518476D01*
X5947381Y-20518476D02*
X5966429Y-20518476D01*
X5966429Y-20518476D02*
X5985476Y-20528000D01*
X5985476Y-20528000D02*
X5995000Y-20537524D01*
X5995000Y-20537524D02*
X6004524Y-20556571D01*
X6004524Y-20556571D02*
X6014048Y-20594667D01*
X6014048Y-20594667D02*
X6014048Y-20642286D01*
X6014048Y-20642286D02*
X6004524Y-20680381D01*
X6004524Y-20680381D02*
X5995000Y-20699429D01*
X5995000Y-20699429D02*
X5985476Y-20708952D01*
X5985476Y-20708952D02*
X5966429Y-20718476D01*
X5966429Y-20718476D02*
X5947381Y-20718476D01*
X5947381Y-20718476D02*
X5928333Y-20708952D01*
X5928333Y-20708952D02*
X5918809Y-20699429D01*
X5918809Y-20699429D02*
X5909286Y-20680381D01*
X5909286Y-20680381D02*
X5899762Y-20642286D01*
X5899762Y-20642286D02*
X5899762Y-20594667D01*
X5899762Y-20594667D02*
X5909286Y-20556571D01*
X5909286Y-20556571D02*
X5918809Y-20537524D01*
X5918809Y-20537524D02*
X5928333Y-20528000D01*
X5928333Y-20528000D02*
X5947381Y-20518476D01*
X6099762Y-20718476D02*
X6099762Y-20585143D01*
X6099762Y-20604190D02*
X6109286Y-20594667D01*
X6109286Y-20594667D02*
X6128333Y-20585143D01*
X6128333Y-20585143D02*
X6156905Y-20585143D01*
X6156905Y-20585143D02*
X6175952Y-20594667D01*
X6175952Y-20594667D02*
X6185476Y-20613714D01*
X6185476Y-20613714D02*
X6185476Y-20718476D01*
X6185476Y-20613714D02*
X6195000Y-20594667D01*
X6195000Y-20594667D02*
X6214048Y-20585143D01*
X6214048Y-20585143D02*
X6242619Y-20585143D01*
X6242619Y-20585143D02*
X6261667Y-20594667D01*
X6261667Y-20594667D02*
X6271190Y-20613714D01*
X6271190Y-20613714D02*
X6271190Y-20718476D01*
X6366429Y-20718476D02*
X6366429Y-20585143D01*
X6366429Y-20604190D02*
X6375952Y-20594667D01*
X6375952Y-20594667D02*
X6395000Y-20585143D01*
X6395000Y-20585143D02*
X6423571Y-20585143D01*
X6423571Y-20585143D02*
X6442619Y-20594667D01*
X6442619Y-20594667D02*
X6452143Y-20613714D01*
X6452143Y-20613714D02*
X6452143Y-20718476D01*
X6452143Y-20613714D02*
X6461667Y-20594667D01*
X6461667Y-20594667D02*
X6480714Y-20585143D01*
X6480714Y-20585143D02*
X6509286Y-20585143D01*
X6509286Y-20585143D02*
X6528333Y-20594667D01*
X6528333Y-20594667D02*
X6537857Y-20613714D01*
X6537857Y-20613714D02*
X6537857Y-20718476D01*
X6895952Y-20508952D02*
X6724524Y-20766095D01*
X7120714Y-20518476D02*
X7139762Y-20518476D01*
X7139762Y-20518476D02*
X7158810Y-20528000D01*
X7158810Y-20528000D02*
X7168333Y-20537524D01*
X7168333Y-20537524D02*
X7177857Y-20556571D01*
X7177857Y-20556571D02*
X7187381Y-20594667D01*
X7187381Y-20594667D02*
X7187381Y-20642286D01*
X7187381Y-20642286D02*
X7177857Y-20680381D01*
X7177857Y-20680381D02*
X7168333Y-20699429D01*
X7168333Y-20699429D02*
X7158810Y-20708952D01*
X7158810Y-20708952D02*
X7139762Y-20718476D01*
X7139762Y-20718476D02*
X7120714Y-20718476D01*
X7120714Y-20718476D02*
X7101667Y-20708952D01*
X7101667Y-20708952D02*
X7092143Y-20699429D01*
X7092143Y-20699429D02*
X7082619Y-20680381D01*
X7082619Y-20680381D02*
X7073095Y-20642286D01*
X7073095Y-20642286D02*
X7073095Y-20594667D01*
X7073095Y-20594667D02*
X7082619Y-20556571D01*
X7082619Y-20556571D02*
X7092143Y-20537524D01*
X7092143Y-20537524D02*
X7101667Y-20528000D01*
X7101667Y-20528000D02*
X7120714Y-20518476D01*
X7273095Y-20699429D02*
X7282619Y-20708952D01*
X7282619Y-20708952D02*
X7273095Y-20718476D01*
X7273095Y-20718476D02*
X7263571Y-20708952D01*
X7263571Y-20708952D02*
X7273095Y-20699429D01*
X7273095Y-20699429D02*
X7273095Y-20718476D01*
X7406429Y-20518476D02*
X7425476Y-20518476D01*
X7425476Y-20518476D02*
X7444524Y-20528000D01*
X7444524Y-20528000D02*
X7454048Y-20537524D01*
X7454048Y-20537524D02*
X7463571Y-20556571D01*
X7463571Y-20556571D02*
X7473095Y-20594667D01*
X7473095Y-20594667D02*
X7473095Y-20642286D01*
X7473095Y-20642286D02*
X7463571Y-20680381D01*
X7463571Y-20680381D02*
X7454048Y-20699429D01*
X7454048Y-20699429D02*
X7444524Y-20708952D01*
X7444524Y-20708952D02*
X7425476Y-20718476D01*
X7425476Y-20718476D02*
X7406429Y-20718476D01*
X7406429Y-20718476D02*
X7387381Y-20708952D01*
X7387381Y-20708952D02*
X7377857Y-20699429D01*
X7377857Y-20699429D02*
X7368333Y-20680381D01*
X7368333Y-20680381D02*
X7358810Y-20642286D01*
X7358810Y-20642286D02*
X7358810Y-20594667D01*
X7358810Y-20594667D02*
X7368333Y-20556571D01*
X7368333Y-20556571D02*
X7377857Y-20537524D01*
X7377857Y-20537524D02*
X7387381Y-20528000D01*
X7387381Y-20528000D02*
X7406429Y-20518476D01*
X7549286Y-20537524D02*
X7558810Y-20528000D01*
X7558810Y-20528000D02*
X7577857Y-20518476D01*
X7577857Y-20518476D02*
X7625476Y-20518476D01*
X7625476Y-20518476D02*
X7644524Y-20528000D01*
X7644524Y-20528000D02*
X7654048Y-20537524D01*
X7654048Y-20537524D02*
X7663571Y-20556571D01*
X7663571Y-20556571D02*
X7663571Y-20575619D01*
X7663571Y-20575619D02*
X7654048Y-20604190D01*
X7654048Y-20604190D02*
X7539762Y-20718476D01*
X7539762Y-20718476D02*
X7663571Y-20718476D01*
X7730238Y-20518476D02*
X7854048Y-20518476D01*
X7854048Y-20518476D02*
X7787381Y-20594667D01*
X7787381Y-20594667D02*
X7815952Y-20594667D01*
X7815952Y-20594667D02*
X7835000Y-20604190D01*
X7835000Y-20604190D02*
X7844524Y-20613714D01*
X7844524Y-20613714D02*
X7854048Y-20632762D01*
X7854048Y-20632762D02*
X7854048Y-20680381D01*
X7854048Y-20680381D02*
X7844524Y-20699429D01*
X7844524Y-20699429D02*
X7835000Y-20708952D01*
X7835000Y-20708952D02*
X7815952Y-20718476D01*
X7815952Y-20718476D02*
X7758810Y-20718476D01*
X7758810Y-20718476D02*
X7739762Y-20708952D01*
X7739762Y-20708952D02*
X7730238Y-20699429D01*
X8025476Y-20518476D02*
X7987381Y-20518476D01*
X7987381Y-20518476D02*
X7968333Y-20528000D01*
X7968333Y-20528000D02*
X7958810Y-20537524D01*
X7958810Y-20537524D02*
X7939762Y-20566095D01*
X7939762Y-20566095D02*
X7930238Y-20604190D01*
X7930238Y-20604190D02*
X7930238Y-20680381D01*
X7930238Y-20680381D02*
X7939762Y-20699429D01*
X7939762Y-20699429D02*
X7949286Y-20708952D01*
X7949286Y-20708952D02*
X7968333Y-20718476D01*
X7968333Y-20718476D02*
X8006429Y-20718476D01*
X8006429Y-20718476D02*
X8025476Y-20708952D01*
X8025476Y-20708952D02*
X8035000Y-20699429D01*
X8035000Y-20699429D02*
X8044524Y-20680381D01*
X8044524Y-20680381D02*
X8044524Y-20632762D01*
X8044524Y-20632762D02*
X8035000Y-20613714D01*
X8035000Y-20613714D02*
X8025476Y-20604190D01*
X8025476Y-20604190D02*
X8006429Y-20594667D01*
X8006429Y-20594667D02*
X7968333Y-20594667D01*
X7968333Y-20594667D02*
X7949286Y-20604190D01*
X7949286Y-20604190D02*
X7939762Y-20613714D01*
X7939762Y-20613714D02*
X7930238Y-20632762D01*
X8120714Y-20518476D02*
X8120714Y-20556571D01*
X8196905Y-20518476D02*
X8196905Y-20556571D01*
X8459762Y-20794667D02*
X8450238Y-20785143D01*
X8450238Y-20785143D02*
X8431191Y-20756571D01*
X8431191Y-20756571D02*
X8421667Y-20737524D01*
X8421667Y-20737524D02*
X8412143Y-20708952D01*
X8412143Y-20708952D02*
X8402619Y-20661333D01*
X8402619Y-20661333D02*
X8402619Y-20623238D01*
X8402619Y-20623238D02*
X8412143Y-20575619D01*
X8412143Y-20575619D02*
X8421667Y-20547048D01*
X8421667Y-20547048D02*
X8431191Y-20528000D01*
X8431191Y-20528000D02*
X8450238Y-20499429D01*
X8450238Y-20499429D02*
X8459762Y-20489905D01*
X8621667Y-20585143D02*
X8621667Y-20718476D01*
X8574048Y-20508952D02*
X8526429Y-20651810D01*
X8526429Y-20651810D02*
X8650238Y-20651810D01*
X8764524Y-20518476D02*
X8783572Y-20518476D01*
X8783572Y-20518476D02*
X8802619Y-20528000D01*
X8802619Y-20528000D02*
X8812143Y-20537524D01*
X8812143Y-20537524D02*
X8821667Y-20556571D01*
X8821667Y-20556571D02*
X8831191Y-20594667D01*
X8831191Y-20594667D02*
X8831191Y-20642286D01*
X8831191Y-20642286D02*
X8821667Y-20680381D01*
X8821667Y-20680381D02*
X8812143Y-20699429D01*
X8812143Y-20699429D02*
X8802619Y-20708952D01*
X8802619Y-20708952D02*
X8783572Y-20718476D01*
X8783572Y-20718476D02*
X8764524Y-20718476D01*
X8764524Y-20718476D02*
X8745476Y-20708952D01*
X8745476Y-20708952D02*
X8735953Y-20699429D01*
X8735953Y-20699429D02*
X8726429Y-20680381D01*
X8726429Y-20680381D02*
X8716905Y-20642286D01*
X8716905Y-20642286D02*
X8716905Y-20594667D01*
X8716905Y-20594667D02*
X8726429Y-20556571D01*
X8726429Y-20556571D02*
X8735953Y-20537524D01*
X8735953Y-20537524D02*
X8745476Y-20528000D01*
X8745476Y-20528000D02*
X8764524Y-20518476D01*
X9036905Y-20718476D02*
X9036905Y-20518476D01*
X9122619Y-20718476D02*
X9122619Y-20613714D01*
X9122619Y-20613714D02*
X9113095Y-20594667D01*
X9113095Y-20594667D02*
X9094048Y-20585143D01*
X9094048Y-20585143D02*
X9065476Y-20585143D01*
X9065476Y-20585143D02*
X9046429Y-20594667D01*
X9046429Y-20594667D02*
X9036905Y-20604190D01*
X9246429Y-20718476D02*
X9227381Y-20708952D01*
X9227381Y-20708952D02*
X9217857Y-20699429D01*
X9217857Y-20699429D02*
X9208334Y-20680381D01*
X9208334Y-20680381D02*
X9208334Y-20623238D01*
X9208334Y-20623238D02*
X9217857Y-20604190D01*
X9217857Y-20604190D02*
X9227381Y-20594667D01*
X9227381Y-20594667D02*
X9246429Y-20585143D01*
X9246429Y-20585143D02*
X9275000Y-20585143D01*
X9275000Y-20585143D02*
X9294048Y-20594667D01*
X9294048Y-20594667D02*
X9303572Y-20604190D01*
X9303572Y-20604190D02*
X9313095Y-20623238D01*
X9313095Y-20623238D02*
X9313095Y-20680381D01*
X9313095Y-20680381D02*
X9303572Y-20699429D01*
X9303572Y-20699429D02*
X9294048Y-20708952D01*
X9294048Y-20708952D02*
X9275000Y-20718476D01*
X9275000Y-20718476D02*
X9246429Y-20718476D01*
X9427381Y-20718476D02*
X9408334Y-20708952D01*
X9408334Y-20708952D02*
X9398810Y-20689905D01*
X9398810Y-20689905D02*
X9398810Y-20518476D01*
X9579762Y-20708952D02*
X9560715Y-20718476D01*
X9560715Y-20718476D02*
X9522619Y-20718476D01*
X9522619Y-20718476D02*
X9503572Y-20708952D01*
X9503572Y-20708952D02*
X9494048Y-20689905D01*
X9494048Y-20689905D02*
X9494048Y-20613714D01*
X9494048Y-20613714D02*
X9503572Y-20594667D01*
X9503572Y-20594667D02*
X9522619Y-20585143D01*
X9522619Y-20585143D02*
X9560715Y-20585143D01*
X9560715Y-20585143D02*
X9579762Y-20594667D01*
X9579762Y-20594667D02*
X9589286Y-20613714D01*
X9589286Y-20613714D02*
X9589286Y-20632762D01*
X9589286Y-20632762D02*
X9494048Y-20651810D01*
X9665476Y-20708952D02*
X9684524Y-20718476D01*
X9684524Y-20718476D02*
X9722619Y-20718476D01*
X9722619Y-20718476D02*
X9741667Y-20708952D01*
X9741667Y-20708952D02*
X9751191Y-20689905D01*
X9751191Y-20689905D02*
X9751191Y-20680381D01*
X9751191Y-20680381D02*
X9741667Y-20661333D01*
X9741667Y-20661333D02*
X9722619Y-20651810D01*
X9722619Y-20651810D02*
X9694048Y-20651810D01*
X9694048Y-20651810D02*
X9675000Y-20642286D01*
X9675000Y-20642286D02*
X9665476Y-20623238D01*
X9665476Y-20623238D02*
X9665476Y-20613714D01*
X9665476Y-20613714D02*
X9675000Y-20594667D01*
X9675000Y-20594667D02*
X9694048Y-20585143D01*
X9694048Y-20585143D02*
X9722619Y-20585143D01*
X9722619Y-20585143D02*
X9741667Y-20594667D01*
X9817857Y-20794667D02*
X9827381Y-20785143D01*
X9827381Y-20785143D02*
X9846429Y-20756571D01*
X9846429Y-20756571D02*
X9855953Y-20737524D01*
X9855953Y-20737524D02*
X9865476Y-20708952D01*
X9865476Y-20708952D02*
X9875000Y-20661333D01*
X9875000Y-20661333D02*
X9875000Y-20623238D01*
X9875000Y-20623238D02*
X9865476Y-20575619D01*
X9865476Y-20575619D02*
X9855953Y-20547048D01*
X9855953Y-20547048D02*
X9846429Y-20528000D01*
X9846429Y-20528000D02*
X9827381Y-20499429D01*
X9827381Y-20499429D02*
X9817857Y-20489905D01*
X4995000Y-20909000D02*
G75*
G03*
X4995000Y-20909000I-100000J0D01*
G01*
X5223571Y-20782476D02*
X5347381Y-20782476D01*
X5347381Y-20782476D02*
X5280714Y-20858667D01*
X5280714Y-20858667D02*
X5309286Y-20858667D01*
X5309286Y-20858667D02*
X5328333Y-20868190D01*
X5328333Y-20868190D02*
X5337857Y-20877714D01*
X5337857Y-20877714D02*
X5347381Y-20896762D01*
X5347381Y-20896762D02*
X5347381Y-20944381D01*
X5347381Y-20944381D02*
X5337857Y-20963429D01*
X5337857Y-20963429D02*
X5328333Y-20972952D01*
X5328333Y-20972952D02*
X5309286Y-20982476D01*
X5309286Y-20982476D02*
X5252143Y-20982476D01*
X5252143Y-20982476D02*
X5233095Y-20972952D01*
X5233095Y-20972952D02*
X5223571Y-20963429D01*
X5433095Y-20963429D02*
X5442619Y-20972952D01*
X5442619Y-20972952D02*
X5433095Y-20982476D01*
X5433095Y-20982476D02*
X5423571Y-20972952D01*
X5423571Y-20972952D02*
X5433095Y-20963429D01*
X5433095Y-20963429D02*
X5433095Y-20982476D01*
X5566429Y-20782476D02*
X5585476Y-20782476D01*
X5585476Y-20782476D02*
X5604524Y-20792000D01*
X5604524Y-20792000D02*
X5614048Y-20801524D01*
X5614048Y-20801524D02*
X5623571Y-20820571D01*
X5623571Y-20820571D02*
X5633095Y-20858667D01*
X5633095Y-20858667D02*
X5633095Y-20906286D01*
X5633095Y-20906286D02*
X5623571Y-20944381D01*
X5623571Y-20944381D02*
X5614048Y-20963429D01*
X5614048Y-20963429D02*
X5604524Y-20972952D01*
X5604524Y-20972952D02*
X5585476Y-20982476D01*
X5585476Y-20982476D02*
X5566429Y-20982476D01*
X5566429Y-20982476D02*
X5547381Y-20972952D01*
X5547381Y-20972952D02*
X5537857Y-20963429D01*
X5537857Y-20963429D02*
X5528333Y-20944381D01*
X5528333Y-20944381D02*
X5518810Y-20906286D01*
X5518810Y-20906286D02*
X5518810Y-20858667D01*
X5518810Y-20858667D02*
X5528333Y-20820571D01*
X5528333Y-20820571D02*
X5537857Y-20801524D01*
X5537857Y-20801524D02*
X5547381Y-20792000D01*
X5547381Y-20792000D02*
X5566429Y-20782476D01*
X5756905Y-20782476D02*
X5775952Y-20782476D01*
X5775952Y-20782476D02*
X5795000Y-20792000D01*
X5795000Y-20792000D02*
X5804524Y-20801524D01*
X5804524Y-20801524D02*
X5814048Y-20820571D01*
X5814048Y-20820571D02*
X5823571Y-20858667D01*
X5823571Y-20858667D02*
X5823571Y-20906286D01*
X5823571Y-20906286D02*
X5814048Y-20944381D01*
X5814048Y-20944381D02*
X5804524Y-20963429D01*
X5804524Y-20963429D02*
X5795000Y-20972952D01*
X5795000Y-20972952D02*
X5775952Y-20982476D01*
X5775952Y-20982476D02*
X5756905Y-20982476D01*
X5756905Y-20982476D02*
X5737857Y-20972952D01*
X5737857Y-20972952D02*
X5728333Y-20963429D01*
X5728333Y-20963429D02*
X5718809Y-20944381D01*
X5718809Y-20944381D02*
X5709286Y-20906286D01*
X5709286Y-20906286D02*
X5709286Y-20858667D01*
X5709286Y-20858667D02*
X5718809Y-20820571D01*
X5718809Y-20820571D02*
X5728333Y-20801524D01*
X5728333Y-20801524D02*
X5737857Y-20792000D01*
X5737857Y-20792000D02*
X5756905Y-20782476D01*
X5947381Y-20782476D02*
X5966429Y-20782476D01*
X5966429Y-20782476D02*
X5985476Y-20792000D01*
X5985476Y-20792000D02*
X5995000Y-20801524D01*
X5995000Y-20801524D02*
X6004524Y-20820571D01*
X6004524Y-20820571D02*
X6014048Y-20858667D01*
X6014048Y-20858667D02*
X6014048Y-20906286D01*
X6014048Y-20906286D02*
X6004524Y-20944381D01*
X6004524Y-20944381D02*
X5995000Y-20963429D01*
X5995000Y-20963429D02*
X5985476Y-20972952D01*
X5985476Y-20972952D02*
X5966429Y-20982476D01*
X5966429Y-20982476D02*
X5947381Y-20982476D01*
X5947381Y-20982476D02*
X5928333Y-20972952D01*
X5928333Y-20972952D02*
X5918809Y-20963429D01*
X5918809Y-20963429D02*
X5909286Y-20944381D01*
X5909286Y-20944381D02*
X5899762Y-20906286D01*
X5899762Y-20906286D02*
X5899762Y-20858667D01*
X5899762Y-20858667D02*
X5909286Y-20820571D01*
X5909286Y-20820571D02*
X5918809Y-20801524D01*
X5918809Y-20801524D02*
X5928333Y-20792000D01*
X5928333Y-20792000D02*
X5947381Y-20782476D01*
X6099762Y-20982476D02*
X6099762Y-20849143D01*
X6099762Y-20868190D02*
X6109286Y-20858667D01*
X6109286Y-20858667D02*
X6128333Y-20849143D01*
X6128333Y-20849143D02*
X6156905Y-20849143D01*
X6156905Y-20849143D02*
X6175952Y-20858667D01*
X6175952Y-20858667D02*
X6185476Y-20877714D01*
X6185476Y-20877714D02*
X6185476Y-20982476D01*
X6185476Y-20877714D02*
X6195000Y-20858667D01*
X6195000Y-20858667D02*
X6214048Y-20849143D01*
X6214048Y-20849143D02*
X6242619Y-20849143D01*
X6242619Y-20849143D02*
X6261667Y-20858667D01*
X6261667Y-20858667D02*
X6271190Y-20877714D01*
X6271190Y-20877714D02*
X6271190Y-20982476D01*
X6366429Y-20982476D02*
X6366429Y-20849143D01*
X6366429Y-20868190D02*
X6375952Y-20858667D01*
X6375952Y-20858667D02*
X6395000Y-20849143D01*
X6395000Y-20849143D02*
X6423571Y-20849143D01*
X6423571Y-20849143D02*
X6442619Y-20858667D01*
X6442619Y-20858667D02*
X6452143Y-20877714D01*
X6452143Y-20877714D02*
X6452143Y-20982476D01*
X6452143Y-20877714D02*
X6461667Y-20858667D01*
X6461667Y-20858667D02*
X6480714Y-20849143D01*
X6480714Y-20849143D02*
X6509286Y-20849143D01*
X6509286Y-20849143D02*
X6528333Y-20858667D01*
X6528333Y-20858667D02*
X6537857Y-20877714D01*
X6537857Y-20877714D02*
X6537857Y-20982476D01*
X6895952Y-20772952D02*
X6724524Y-21030095D01*
X7120714Y-20782476D02*
X7139762Y-20782476D01*
X7139762Y-20782476D02*
X7158810Y-20792000D01*
X7158810Y-20792000D02*
X7168333Y-20801524D01*
X7168333Y-20801524D02*
X7177857Y-20820571D01*
X7177857Y-20820571D02*
X7187381Y-20858667D01*
X7187381Y-20858667D02*
X7187381Y-20906286D01*
X7187381Y-20906286D02*
X7177857Y-20944381D01*
X7177857Y-20944381D02*
X7168333Y-20963429D01*
X7168333Y-20963429D02*
X7158810Y-20972952D01*
X7158810Y-20972952D02*
X7139762Y-20982476D01*
X7139762Y-20982476D02*
X7120714Y-20982476D01*
X7120714Y-20982476D02*
X7101667Y-20972952D01*
X7101667Y-20972952D02*
X7092143Y-20963429D01*
X7092143Y-20963429D02*
X7082619Y-20944381D01*
X7082619Y-20944381D02*
X7073095Y-20906286D01*
X7073095Y-20906286D02*
X7073095Y-20858667D01*
X7073095Y-20858667D02*
X7082619Y-20820571D01*
X7082619Y-20820571D02*
X7092143Y-20801524D01*
X7092143Y-20801524D02*
X7101667Y-20792000D01*
X7101667Y-20792000D02*
X7120714Y-20782476D01*
X7273095Y-20963429D02*
X7282619Y-20972952D01*
X7282619Y-20972952D02*
X7273095Y-20982476D01*
X7273095Y-20982476D02*
X7263571Y-20972952D01*
X7263571Y-20972952D02*
X7273095Y-20963429D01*
X7273095Y-20963429D02*
X7273095Y-20982476D01*
X7473095Y-20982476D02*
X7358810Y-20982476D01*
X7415952Y-20982476D02*
X7415952Y-20782476D01*
X7415952Y-20782476D02*
X7396905Y-20811048D01*
X7396905Y-20811048D02*
X7377857Y-20830095D01*
X7377857Y-20830095D02*
X7358810Y-20839619D01*
X7663571Y-20982476D02*
X7549286Y-20982476D01*
X7606429Y-20982476D02*
X7606429Y-20782476D01*
X7606429Y-20782476D02*
X7587381Y-20811048D01*
X7587381Y-20811048D02*
X7568333Y-20830095D01*
X7568333Y-20830095D02*
X7549286Y-20839619D01*
X7777857Y-20868190D02*
X7758810Y-20858667D01*
X7758810Y-20858667D02*
X7749286Y-20849143D01*
X7749286Y-20849143D02*
X7739762Y-20830095D01*
X7739762Y-20830095D02*
X7739762Y-20820571D01*
X7739762Y-20820571D02*
X7749286Y-20801524D01*
X7749286Y-20801524D02*
X7758810Y-20792000D01*
X7758810Y-20792000D02*
X7777857Y-20782476D01*
X7777857Y-20782476D02*
X7815952Y-20782476D01*
X7815952Y-20782476D02*
X7835000Y-20792000D01*
X7835000Y-20792000D02*
X7844524Y-20801524D01*
X7844524Y-20801524D02*
X7854048Y-20820571D01*
X7854048Y-20820571D02*
X7854048Y-20830095D01*
X7854048Y-20830095D02*
X7844524Y-20849143D01*
X7844524Y-20849143D02*
X7835000Y-20858667D01*
X7835000Y-20858667D02*
X7815952Y-20868190D01*
X7815952Y-20868190D02*
X7777857Y-20868190D01*
X7777857Y-20868190D02*
X7758810Y-20877714D01*
X7758810Y-20877714D02*
X7749286Y-20887238D01*
X7749286Y-20887238D02*
X7739762Y-20906286D01*
X7739762Y-20906286D02*
X7739762Y-20944381D01*
X7739762Y-20944381D02*
X7749286Y-20963429D01*
X7749286Y-20963429D02*
X7758810Y-20972952D01*
X7758810Y-20972952D02*
X7777857Y-20982476D01*
X7777857Y-20982476D02*
X7815952Y-20982476D01*
X7815952Y-20982476D02*
X7835000Y-20972952D01*
X7835000Y-20972952D02*
X7844524Y-20963429D01*
X7844524Y-20963429D02*
X7854048Y-20944381D01*
X7854048Y-20944381D02*
X7854048Y-20906286D01*
X7854048Y-20906286D02*
X7844524Y-20887238D01*
X7844524Y-20887238D02*
X7835000Y-20877714D01*
X7835000Y-20877714D02*
X7815952Y-20868190D01*
X8044524Y-20982476D02*
X7930238Y-20982476D01*
X7987381Y-20982476D02*
X7987381Y-20782476D01*
X7987381Y-20782476D02*
X7968333Y-20811048D01*
X7968333Y-20811048D02*
X7949286Y-20830095D01*
X7949286Y-20830095D02*
X7930238Y-20839619D01*
X8120714Y-20782476D02*
X8120714Y-20820571D01*
X8196905Y-20782476D02*
X8196905Y-20820571D01*
X8459762Y-21058667D02*
X8450238Y-21049143D01*
X8450238Y-21049143D02*
X8431191Y-21020571D01*
X8431191Y-21020571D02*
X8421667Y-21001524D01*
X8421667Y-21001524D02*
X8412143Y-20972952D01*
X8412143Y-20972952D02*
X8402619Y-20925333D01*
X8402619Y-20925333D02*
X8402619Y-20887238D01*
X8402619Y-20887238D02*
X8412143Y-20839619D01*
X8412143Y-20839619D02*
X8421667Y-20811048D01*
X8421667Y-20811048D02*
X8431191Y-20792000D01*
X8431191Y-20792000D02*
X8450238Y-20763429D01*
X8450238Y-20763429D02*
X8459762Y-20753905D01*
X8621667Y-20849143D02*
X8621667Y-20982476D01*
X8574048Y-20772952D02*
X8526429Y-20915810D01*
X8526429Y-20915810D02*
X8650238Y-20915810D01*
X8846429Y-20982476D02*
X8846429Y-20782476D01*
X8932143Y-20982476D02*
X8932143Y-20877714D01*
X8932143Y-20877714D02*
X8922619Y-20858667D01*
X8922619Y-20858667D02*
X8903572Y-20849143D01*
X8903572Y-20849143D02*
X8875000Y-20849143D01*
X8875000Y-20849143D02*
X8855953Y-20858667D01*
X8855953Y-20858667D02*
X8846429Y-20868190D01*
X9055953Y-20982476D02*
X9036905Y-20972952D01*
X9036905Y-20972952D02*
X9027381Y-20963429D01*
X9027381Y-20963429D02*
X9017857Y-20944381D01*
X9017857Y-20944381D02*
X9017857Y-20887238D01*
X9017857Y-20887238D02*
X9027381Y-20868190D01*
X9027381Y-20868190D02*
X9036905Y-20858667D01*
X9036905Y-20858667D02*
X9055953Y-20849143D01*
X9055953Y-20849143D02*
X9084524Y-20849143D01*
X9084524Y-20849143D02*
X9103572Y-20858667D01*
X9103572Y-20858667D02*
X9113095Y-20868190D01*
X9113095Y-20868190D02*
X9122619Y-20887238D01*
X9122619Y-20887238D02*
X9122619Y-20944381D01*
X9122619Y-20944381D02*
X9113095Y-20963429D01*
X9113095Y-20963429D02*
X9103572Y-20972952D01*
X9103572Y-20972952D02*
X9084524Y-20982476D01*
X9084524Y-20982476D02*
X9055953Y-20982476D01*
X9236905Y-20982476D02*
X9217857Y-20972952D01*
X9217857Y-20972952D02*
X9208334Y-20953905D01*
X9208334Y-20953905D02*
X9208334Y-20782476D01*
X9389286Y-20972952D02*
X9370238Y-20982476D01*
X9370238Y-20982476D02*
X9332143Y-20982476D01*
X9332143Y-20982476D02*
X9313095Y-20972952D01*
X9313095Y-20972952D02*
X9303572Y-20953905D01*
X9303572Y-20953905D02*
X9303572Y-20877714D01*
X9303572Y-20877714D02*
X9313095Y-20858667D01*
X9313095Y-20858667D02*
X9332143Y-20849143D01*
X9332143Y-20849143D02*
X9370238Y-20849143D01*
X9370238Y-20849143D02*
X9389286Y-20858667D01*
X9389286Y-20858667D02*
X9398810Y-20877714D01*
X9398810Y-20877714D02*
X9398810Y-20896762D01*
X9398810Y-20896762D02*
X9303572Y-20915810D01*
X9475000Y-20972952D02*
X9494048Y-20982476D01*
X9494048Y-20982476D02*
X9532143Y-20982476D01*
X9532143Y-20982476D02*
X9551191Y-20972952D01*
X9551191Y-20972952D02*
X9560715Y-20953905D01*
X9560715Y-20953905D02*
X9560715Y-20944381D01*
X9560715Y-20944381D02*
X9551191Y-20925333D01*
X9551191Y-20925333D02*
X9532143Y-20915810D01*
X9532143Y-20915810D02*
X9503572Y-20915810D01*
X9503572Y-20915810D02*
X9484524Y-20906286D01*
X9484524Y-20906286D02*
X9475000Y-20887238D01*
X9475000Y-20887238D02*
X9475000Y-20877714D01*
X9475000Y-20877714D02*
X9484524Y-20858667D01*
X9484524Y-20858667D02*
X9503572Y-20849143D01*
X9503572Y-20849143D02*
X9532143Y-20849143D01*
X9532143Y-20849143D02*
X9551191Y-20858667D01*
X9627381Y-21058667D02*
X9636905Y-21049143D01*
X9636905Y-21049143D02*
X9655953Y-21020571D01*
X9655953Y-21020571D02*
X9665476Y-21001524D01*
X9665476Y-21001524D02*
X9675000Y-20972952D01*
X9675000Y-20972952D02*
X9684524Y-20925333D01*
X9684524Y-20925333D02*
X9684524Y-20887238D01*
X9684524Y-20887238D02*
X9675000Y-20839619D01*
X9675000Y-20839619D02*
X9665476Y-20811048D01*
X9665476Y-20811048D02*
X9655953Y-20792000D01*
X9655953Y-20792000D02*
X9636905Y-20763429D01*
X9636905Y-20763429D02*
X9627381Y-20753905D01*
X4895000Y-21129000D02*
X4895000Y-21329000D01*
X4795000Y-21229000D02*
X4995000Y-21229000D01*
X5223571Y-21102476D02*
X5347381Y-21102476D01*
X5347381Y-21102476D02*
X5280714Y-21178667D01*
X5280714Y-21178667D02*
X5309286Y-21178667D01*
X5309286Y-21178667D02*
X5328333Y-21188190D01*
X5328333Y-21188190D02*
X5337857Y-21197714D01*
X5337857Y-21197714D02*
X5347381Y-21216762D01*
X5347381Y-21216762D02*
X5347381Y-21264381D01*
X5347381Y-21264381D02*
X5337857Y-21283429D01*
X5337857Y-21283429D02*
X5328333Y-21292952D01*
X5328333Y-21292952D02*
X5309286Y-21302476D01*
X5309286Y-21302476D02*
X5252143Y-21302476D01*
X5252143Y-21302476D02*
X5233095Y-21292952D01*
X5233095Y-21292952D02*
X5223571Y-21283429D01*
X5433095Y-21283429D02*
X5442619Y-21292952D01*
X5442619Y-21292952D02*
X5433095Y-21302476D01*
X5433095Y-21302476D02*
X5423571Y-21292952D01*
X5423571Y-21292952D02*
X5433095Y-21283429D01*
X5433095Y-21283429D02*
X5433095Y-21302476D01*
X5518810Y-21121524D02*
X5528333Y-21112000D01*
X5528333Y-21112000D02*
X5547381Y-21102476D01*
X5547381Y-21102476D02*
X5595000Y-21102476D01*
X5595000Y-21102476D02*
X5614048Y-21112000D01*
X5614048Y-21112000D02*
X5623571Y-21121524D01*
X5623571Y-21121524D02*
X5633095Y-21140571D01*
X5633095Y-21140571D02*
X5633095Y-21159619D01*
X5633095Y-21159619D02*
X5623571Y-21188190D01*
X5623571Y-21188190D02*
X5509286Y-21302476D01*
X5509286Y-21302476D02*
X5633095Y-21302476D01*
X5756905Y-21102476D02*
X5775952Y-21102476D01*
X5775952Y-21102476D02*
X5795000Y-21112000D01*
X5795000Y-21112000D02*
X5804524Y-21121524D01*
X5804524Y-21121524D02*
X5814048Y-21140571D01*
X5814048Y-21140571D02*
X5823571Y-21178667D01*
X5823571Y-21178667D02*
X5823571Y-21226286D01*
X5823571Y-21226286D02*
X5814048Y-21264381D01*
X5814048Y-21264381D02*
X5804524Y-21283429D01*
X5804524Y-21283429D02*
X5795000Y-21292952D01*
X5795000Y-21292952D02*
X5775952Y-21302476D01*
X5775952Y-21302476D02*
X5756905Y-21302476D01*
X5756905Y-21302476D02*
X5737857Y-21292952D01*
X5737857Y-21292952D02*
X5728333Y-21283429D01*
X5728333Y-21283429D02*
X5718809Y-21264381D01*
X5718809Y-21264381D02*
X5709286Y-21226286D01*
X5709286Y-21226286D02*
X5709286Y-21178667D01*
X5709286Y-21178667D02*
X5718809Y-21140571D01*
X5718809Y-21140571D02*
X5728333Y-21121524D01*
X5728333Y-21121524D02*
X5737857Y-21112000D01*
X5737857Y-21112000D02*
X5756905Y-21102476D01*
X5947381Y-21102476D02*
X5966429Y-21102476D01*
X5966429Y-21102476D02*
X5985476Y-21112000D01*
X5985476Y-21112000D02*
X5995000Y-21121524D01*
X5995000Y-21121524D02*
X6004524Y-21140571D01*
X6004524Y-21140571D02*
X6014048Y-21178667D01*
X6014048Y-21178667D02*
X6014048Y-21226286D01*
X6014048Y-21226286D02*
X6004524Y-21264381D01*
X6004524Y-21264381D02*
X5995000Y-21283429D01*
X5995000Y-21283429D02*
X5985476Y-21292952D01*
X5985476Y-21292952D02*
X5966429Y-21302476D01*
X5966429Y-21302476D02*
X5947381Y-21302476D01*
X5947381Y-21302476D02*
X5928333Y-21292952D01*
X5928333Y-21292952D02*
X5918809Y-21283429D01*
X5918809Y-21283429D02*
X5909286Y-21264381D01*
X5909286Y-21264381D02*
X5899762Y-21226286D01*
X5899762Y-21226286D02*
X5899762Y-21178667D01*
X5899762Y-21178667D02*
X5909286Y-21140571D01*
X5909286Y-21140571D02*
X5918809Y-21121524D01*
X5918809Y-21121524D02*
X5928333Y-21112000D01*
X5928333Y-21112000D02*
X5947381Y-21102476D01*
X6099762Y-21302476D02*
X6099762Y-21169143D01*
X6099762Y-21188190D02*
X6109286Y-21178667D01*
X6109286Y-21178667D02*
X6128333Y-21169143D01*
X6128333Y-21169143D02*
X6156905Y-21169143D01*
X6156905Y-21169143D02*
X6175952Y-21178667D01*
X6175952Y-21178667D02*
X6185476Y-21197714D01*
X6185476Y-21197714D02*
X6185476Y-21302476D01*
X6185476Y-21197714D02*
X6195000Y-21178667D01*
X6195000Y-21178667D02*
X6214048Y-21169143D01*
X6214048Y-21169143D02*
X6242619Y-21169143D01*
X6242619Y-21169143D02*
X6261667Y-21178667D01*
X6261667Y-21178667D02*
X6271190Y-21197714D01*
X6271190Y-21197714D02*
X6271190Y-21302476D01*
X6366429Y-21302476D02*
X6366429Y-21169143D01*
X6366429Y-21188190D02*
X6375952Y-21178667D01*
X6375952Y-21178667D02*
X6395000Y-21169143D01*
X6395000Y-21169143D02*
X6423571Y-21169143D01*
X6423571Y-21169143D02*
X6442619Y-21178667D01*
X6442619Y-21178667D02*
X6452143Y-21197714D01*
X6452143Y-21197714D02*
X6452143Y-21302476D01*
X6452143Y-21197714D02*
X6461667Y-21178667D01*
X6461667Y-21178667D02*
X6480714Y-21169143D01*
X6480714Y-21169143D02*
X6509286Y-21169143D01*
X6509286Y-21169143D02*
X6528333Y-21178667D01*
X6528333Y-21178667D02*
X6537857Y-21197714D01*
X6537857Y-21197714D02*
X6537857Y-21302476D01*
X6895952Y-21092952D02*
X6724524Y-21350095D01*
X7120714Y-21102476D02*
X7139762Y-21102476D01*
X7139762Y-21102476D02*
X7158810Y-21112000D01*
X7158810Y-21112000D02*
X7168333Y-21121524D01*
X7168333Y-21121524D02*
X7177857Y-21140571D01*
X7177857Y-21140571D02*
X7187381Y-21178667D01*
X7187381Y-21178667D02*
X7187381Y-21226286D01*
X7187381Y-21226286D02*
X7177857Y-21264381D01*
X7177857Y-21264381D02*
X7168333Y-21283429D01*
X7168333Y-21283429D02*
X7158810Y-21292952D01*
X7158810Y-21292952D02*
X7139762Y-21302476D01*
X7139762Y-21302476D02*
X7120714Y-21302476D01*
X7120714Y-21302476D02*
X7101667Y-21292952D01*
X7101667Y-21292952D02*
X7092143Y-21283429D01*
X7092143Y-21283429D02*
X7082619Y-21264381D01*
X7082619Y-21264381D02*
X7073095Y-21226286D01*
X7073095Y-21226286D02*
X7073095Y-21178667D01*
X7073095Y-21178667D02*
X7082619Y-21140571D01*
X7082619Y-21140571D02*
X7092143Y-21121524D01*
X7092143Y-21121524D02*
X7101667Y-21112000D01*
X7101667Y-21112000D02*
X7120714Y-21102476D01*
X7273095Y-21283429D02*
X7282619Y-21292952D01*
X7282619Y-21292952D02*
X7273095Y-21302476D01*
X7273095Y-21302476D02*
X7263571Y-21292952D01*
X7263571Y-21292952D02*
X7273095Y-21283429D01*
X7273095Y-21283429D02*
X7273095Y-21302476D01*
X7473095Y-21302476D02*
X7358810Y-21302476D01*
X7415952Y-21302476D02*
X7415952Y-21102476D01*
X7415952Y-21102476D02*
X7396905Y-21131048D01*
X7396905Y-21131048D02*
X7377857Y-21150095D01*
X7377857Y-21150095D02*
X7358810Y-21159619D01*
X7549286Y-21121524D02*
X7558810Y-21112000D01*
X7558810Y-21112000D02*
X7577857Y-21102476D01*
X7577857Y-21102476D02*
X7625476Y-21102476D01*
X7625476Y-21102476D02*
X7644524Y-21112000D01*
X7644524Y-21112000D02*
X7654048Y-21121524D01*
X7654048Y-21121524D02*
X7663571Y-21140571D01*
X7663571Y-21140571D02*
X7663571Y-21159619D01*
X7663571Y-21159619D02*
X7654048Y-21188190D01*
X7654048Y-21188190D02*
X7539762Y-21302476D01*
X7539762Y-21302476D02*
X7663571Y-21302476D01*
X7835000Y-21102476D02*
X7796905Y-21102476D01*
X7796905Y-21102476D02*
X7777857Y-21112000D01*
X7777857Y-21112000D02*
X7768333Y-21121524D01*
X7768333Y-21121524D02*
X7749286Y-21150095D01*
X7749286Y-21150095D02*
X7739762Y-21188190D01*
X7739762Y-21188190D02*
X7739762Y-21264381D01*
X7739762Y-21264381D02*
X7749286Y-21283429D01*
X7749286Y-21283429D02*
X7758810Y-21292952D01*
X7758810Y-21292952D02*
X7777857Y-21302476D01*
X7777857Y-21302476D02*
X7815952Y-21302476D01*
X7815952Y-21302476D02*
X7835000Y-21292952D01*
X7835000Y-21292952D02*
X7844524Y-21283429D01*
X7844524Y-21283429D02*
X7854048Y-21264381D01*
X7854048Y-21264381D02*
X7854048Y-21216762D01*
X7854048Y-21216762D02*
X7844524Y-21197714D01*
X7844524Y-21197714D02*
X7835000Y-21188190D01*
X7835000Y-21188190D02*
X7815952Y-21178667D01*
X7815952Y-21178667D02*
X7777857Y-21178667D01*
X7777857Y-21178667D02*
X7758810Y-21188190D01*
X7758810Y-21188190D02*
X7749286Y-21197714D01*
X7749286Y-21197714D02*
X7739762Y-21216762D01*
X7977857Y-21102476D02*
X7996905Y-21102476D01*
X7996905Y-21102476D02*
X8015952Y-21112000D01*
X8015952Y-21112000D02*
X8025476Y-21121524D01*
X8025476Y-21121524D02*
X8035000Y-21140571D01*
X8035000Y-21140571D02*
X8044524Y-21178667D01*
X8044524Y-21178667D02*
X8044524Y-21226286D01*
X8044524Y-21226286D02*
X8035000Y-21264381D01*
X8035000Y-21264381D02*
X8025476Y-21283429D01*
X8025476Y-21283429D02*
X8015952Y-21292952D01*
X8015952Y-21292952D02*
X7996905Y-21302476D01*
X7996905Y-21302476D02*
X7977857Y-21302476D01*
X7977857Y-21302476D02*
X7958810Y-21292952D01*
X7958810Y-21292952D02*
X7949286Y-21283429D01*
X7949286Y-21283429D02*
X7939762Y-21264381D01*
X7939762Y-21264381D02*
X7930238Y-21226286D01*
X7930238Y-21226286D02*
X7930238Y-21178667D01*
X7930238Y-21178667D02*
X7939762Y-21140571D01*
X7939762Y-21140571D02*
X7949286Y-21121524D01*
X7949286Y-21121524D02*
X7958810Y-21112000D01*
X7958810Y-21112000D02*
X7977857Y-21102476D01*
X8120714Y-21102476D02*
X8120714Y-21140571D01*
X8196905Y-21102476D02*
X8196905Y-21140571D01*
X8459762Y-21378667D02*
X8450238Y-21369143D01*
X8450238Y-21369143D02*
X8431191Y-21340571D01*
X8431191Y-21340571D02*
X8421667Y-21321524D01*
X8421667Y-21321524D02*
X8412143Y-21292952D01*
X8412143Y-21292952D02*
X8402619Y-21245333D01*
X8402619Y-21245333D02*
X8402619Y-21207238D01*
X8402619Y-21207238D02*
X8412143Y-21159619D01*
X8412143Y-21159619D02*
X8421667Y-21131048D01*
X8421667Y-21131048D02*
X8431191Y-21112000D01*
X8431191Y-21112000D02*
X8450238Y-21083429D01*
X8450238Y-21083429D02*
X8459762Y-21073905D01*
X8574048Y-21102476D02*
X8593095Y-21102476D01*
X8593095Y-21102476D02*
X8612143Y-21112000D01*
X8612143Y-21112000D02*
X8621667Y-21121524D01*
X8621667Y-21121524D02*
X8631191Y-21140571D01*
X8631191Y-21140571D02*
X8640714Y-21178667D01*
X8640714Y-21178667D02*
X8640714Y-21226286D01*
X8640714Y-21226286D02*
X8631191Y-21264381D01*
X8631191Y-21264381D02*
X8621667Y-21283429D01*
X8621667Y-21283429D02*
X8612143Y-21292952D01*
X8612143Y-21292952D02*
X8593095Y-21302476D01*
X8593095Y-21302476D02*
X8574048Y-21302476D01*
X8574048Y-21302476D02*
X8555000Y-21292952D01*
X8555000Y-21292952D02*
X8545476Y-21283429D01*
X8545476Y-21283429D02*
X8535953Y-21264381D01*
X8535953Y-21264381D02*
X8526429Y-21226286D01*
X8526429Y-21226286D02*
X8526429Y-21178667D01*
X8526429Y-21178667D02*
X8535953Y-21140571D01*
X8535953Y-21140571D02*
X8545476Y-21121524D01*
X8545476Y-21121524D02*
X8555000Y-21112000D01*
X8555000Y-21112000D02*
X8574048Y-21102476D01*
X8846429Y-21302476D02*
X8846429Y-21102476D01*
X8932143Y-21302476D02*
X8932143Y-21197714D01*
X8932143Y-21197714D02*
X8922619Y-21178667D01*
X8922619Y-21178667D02*
X8903572Y-21169143D01*
X8903572Y-21169143D02*
X8875000Y-21169143D01*
X8875000Y-21169143D02*
X8855953Y-21178667D01*
X8855953Y-21178667D02*
X8846429Y-21188190D01*
X9055953Y-21302476D02*
X9036905Y-21292952D01*
X9036905Y-21292952D02*
X9027381Y-21283429D01*
X9027381Y-21283429D02*
X9017857Y-21264381D01*
X9017857Y-21264381D02*
X9017857Y-21207238D01*
X9017857Y-21207238D02*
X9027381Y-21188190D01*
X9027381Y-21188190D02*
X9036905Y-21178667D01*
X9036905Y-21178667D02*
X9055953Y-21169143D01*
X9055953Y-21169143D02*
X9084524Y-21169143D01*
X9084524Y-21169143D02*
X9103572Y-21178667D01*
X9103572Y-21178667D02*
X9113095Y-21188190D01*
X9113095Y-21188190D02*
X9122619Y-21207238D01*
X9122619Y-21207238D02*
X9122619Y-21264381D01*
X9122619Y-21264381D02*
X9113095Y-21283429D01*
X9113095Y-21283429D02*
X9103572Y-21292952D01*
X9103572Y-21292952D02*
X9084524Y-21302476D01*
X9084524Y-21302476D02*
X9055953Y-21302476D01*
X9236905Y-21302476D02*
X9217857Y-21292952D01*
X9217857Y-21292952D02*
X9208334Y-21273905D01*
X9208334Y-21273905D02*
X9208334Y-21102476D01*
X9389286Y-21292952D02*
X9370238Y-21302476D01*
X9370238Y-21302476D02*
X9332143Y-21302476D01*
X9332143Y-21302476D02*
X9313095Y-21292952D01*
X9313095Y-21292952D02*
X9303572Y-21273905D01*
X9303572Y-21273905D02*
X9303572Y-21197714D01*
X9303572Y-21197714D02*
X9313095Y-21178667D01*
X9313095Y-21178667D02*
X9332143Y-21169143D01*
X9332143Y-21169143D02*
X9370238Y-21169143D01*
X9370238Y-21169143D02*
X9389286Y-21178667D01*
X9389286Y-21178667D02*
X9398810Y-21197714D01*
X9398810Y-21197714D02*
X9398810Y-21216762D01*
X9398810Y-21216762D02*
X9303572Y-21235810D01*
X9475000Y-21292952D02*
X9494048Y-21302476D01*
X9494048Y-21302476D02*
X9532143Y-21302476D01*
X9532143Y-21302476D02*
X9551191Y-21292952D01*
X9551191Y-21292952D02*
X9560715Y-21273905D01*
X9560715Y-21273905D02*
X9560715Y-21264381D01*
X9560715Y-21264381D02*
X9551191Y-21245333D01*
X9551191Y-21245333D02*
X9532143Y-21235810D01*
X9532143Y-21235810D02*
X9503572Y-21235810D01*
X9503572Y-21235810D02*
X9484524Y-21226286D01*
X9484524Y-21226286D02*
X9475000Y-21207238D01*
X9475000Y-21207238D02*
X9475000Y-21197714D01*
X9475000Y-21197714D02*
X9484524Y-21178667D01*
X9484524Y-21178667D02*
X9503572Y-21169143D01*
X9503572Y-21169143D02*
X9532143Y-21169143D01*
X9532143Y-21169143D02*
X9551191Y-21178667D01*
X9766429Y-21226286D02*
X9918810Y-21226286D01*
X9842619Y-21302476D02*
X9842619Y-21150095D01*
X10219762Y-21169143D02*
X10219762Y-21302476D01*
X10172143Y-21092952D02*
X10124524Y-21235810D01*
X10124524Y-21235810D02*
X10248334Y-21235810D01*
X10435000Y-21292952D02*
X10454048Y-21302476D01*
X10454048Y-21302476D02*
X10492143Y-21302476D01*
X10492143Y-21302476D02*
X10511191Y-21292952D01*
X10511191Y-21292952D02*
X10520715Y-21273905D01*
X10520715Y-21273905D02*
X10520715Y-21264381D01*
X10520715Y-21264381D02*
X10511191Y-21245333D01*
X10511191Y-21245333D02*
X10492143Y-21235810D01*
X10492143Y-21235810D02*
X10463572Y-21235810D01*
X10463572Y-21235810D02*
X10444524Y-21226286D01*
X10444524Y-21226286D02*
X10435000Y-21207238D01*
X10435000Y-21207238D02*
X10435000Y-21197714D01*
X10435000Y-21197714D02*
X10444524Y-21178667D01*
X10444524Y-21178667D02*
X10463572Y-21169143D01*
X10463572Y-21169143D02*
X10492143Y-21169143D01*
X10492143Y-21169143D02*
X10511191Y-21178667D01*
X10635000Y-21302476D02*
X10615953Y-21292952D01*
X10615953Y-21292952D02*
X10606429Y-21273905D01*
X10606429Y-21273905D02*
X10606429Y-21102476D01*
X10739762Y-21302476D02*
X10720715Y-21292952D01*
X10720715Y-21292952D02*
X10711191Y-21283429D01*
X10711191Y-21283429D02*
X10701667Y-21264381D01*
X10701667Y-21264381D02*
X10701667Y-21207238D01*
X10701667Y-21207238D02*
X10711191Y-21188190D01*
X10711191Y-21188190D02*
X10720715Y-21178667D01*
X10720715Y-21178667D02*
X10739762Y-21169143D01*
X10739762Y-21169143D02*
X10768334Y-21169143D01*
X10768334Y-21169143D02*
X10787381Y-21178667D01*
X10787381Y-21178667D02*
X10796905Y-21188190D01*
X10796905Y-21188190D02*
X10806429Y-21207238D01*
X10806429Y-21207238D02*
X10806429Y-21264381D01*
X10806429Y-21264381D02*
X10796905Y-21283429D01*
X10796905Y-21283429D02*
X10787381Y-21292952D01*
X10787381Y-21292952D02*
X10768334Y-21302476D01*
X10768334Y-21302476D02*
X10739762Y-21302476D01*
X10863572Y-21169143D02*
X10939762Y-21169143D01*
X10892143Y-21102476D02*
X10892143Y-21273905D01*
X10892143Y-21273905D02*
X10901667Y-21292952D01*
X10901667Y-21292952D02*
X10920715Y-21302476D01*
X10920715Y-21302476D02*
X10939762Y-21302476D01*
X10996905Y-21292952D02*
X11015953Y-21302476D01*
X11015953Y-21302476D02*
X11054048Y-21302476D01*
X11054048Y-21302476D02*
X11073096Y-21292952D01*
X11073096Y-21292952D02*
X11082619Y-21273905D01*
X11082619Y-21273905D02*
X11082619Y-21264381D01*
X11082619Y-21264381D02*
X11073096Y-21245333D01*
X11073096Y-21245333D02*
X11054048Y-21235810D01*
X11054048Y-21235810D02*
X11025476Y-21235810D01*
X11025476Y-21235810D02*
X11006429Y-21226286D01*
X11006429Y-21226286D02*
X10996905Y-21207238D01*
X10996905Y-21207238D02*
X10996905Y-21197714D01*
X10996905Y-21197714D02*
X11006429Y-21178667D01*
X11006429Y-21178667D02*
X11025476Y-21169143D01*
X11025476Y-21169143D02*
X11054048Y-21169143D01*
X11054048Y-21169143D02*
X11073096Y-21178667D01*
X11149286Y-21378667D02*
X11158810Y-21369143D01*
X11158810Y-21369143D02*
X11177857Y-21340571D01*
X11177857Y-21340571D02*
X11187381Y-21321524D01*
X11187381Y-21321524D02*
X11196905Y-21292952D01*
X11196905Y-21292952D02*
X11206429Y-21245333D01*
X11206429Y-21245333D02*
X11206429Y-21207238D01*
X11206429Y-21207238D02*
X11196905Y-21159619D01*
X11196905Y-21159619D02*
X11187381Y-21131048D01*
X11187381Y-21131048D02*
X11177857Y-21112000D01*
X11177857Y-21112000D02*
X11158810Y-21083429D01*
X11158810Y-21083429D02*
X11149286Y-21073905D01*
X4965711Y-21619711D02*
X4965711Y-21478289D01*
X4824289Y-21478289D01*
X4824289Y-21619711D01*
X4965711Y-21619711D01*
X5223571Y-21422476D02*
X5347381Y-21422476D01*
X5347381Y-21422476D02*
X5280714Y-21498667D01*
X5280714Y-21498667D02*
X5309286Y-21498667D01*
X5309286Y-21498667D02*
X5328333Y-21508190D01*
X5328333Y-21508190D02*
X5337857Y-21517714D01*
X5337857Y-21517714D02*
X5347381Y-21536762D01*
X5347381Y-21536762D02*
X5347381Y-21584381D01*
X5347381Y-21584381D02*
X5337857Y-21603429D01*
X5337857Y-21603429D02*
X5328333Y-21612952D01*
X5328333Y-21612952D02*
X5309286Y-21622476D01*
X5309286Y-21622476D02*
X5252143Y-21622476D01*
X5252143Y-21622476D02*
X5233095Y-21612952D01*
X5233095Y-21612952D02*
X5223571Y-21603429D01*
X5433095Y-21603429D02*
X5442619Y-21612952D01*
X5442619Y-21612952D02*
X5433095Y-21622476D01*
X5433095Y-21622476D02*
X5423571Y-21612952D01*
X5423571Y-21612952D02*
X5433095Y-21603429D01*
X5433095Y-21603429D02*
X5433095Y-21622476D01*
X5509286Y-21422476D02*
X5642619Y-21422476D01*
X5642619Y-21422476D02*
X5556905Y-21622476D01*
X5756905Y-21422476D02*
X5775952Y-21422476D01*
X5775952Y-21422476D02*
X5795000Y-21432000D01*
X5795000Y-21432000D02*
X5804524Y-21441524D01*
X5804524Y-21441524D02*
X5814048Y-21460571D01*
X5814048Y-21460571D02*
X5823571Y-21498667D01*
X5823571Y-21498667D02*
X5823571Y-21546286D01*
X5823571Y-21546286D02*
X5814048Y-21584381D01*
X5814048Y-21584381D02*
X5804524Y-21603429D01*
X5804524Y-21603429D02*
X5795000Y-21612952D01*
X5795000Y-21612952D02*
X5775952Y-21622476D01*
X5775952Y-21622476D02*
X5756905Y-21622476D01*
X5756905Y-21622476D02*
X5737857Y-21612952D01*
X5737857Y-21612952D02*
X5728333Y-21603429D01*
X5728333Y-21603429D02*
X5718809Y-21584381D01*
X5718809Y-21584381D02*
X5709286Y-21546286D01*
X5709286Y-21546286D02*
X5709286Y-21498667D01*
X5709286Y-21498667D02*
X5718809Y-21460571D01*
X5718809Y-21460571D02*
X5728333Y-21441524D01*
X5728333Y-21441524D02*
X5737857Y-21432000D01*
X5737857Y-21432000D02*
X5756905Y-21422476D01*
X5947381Y-21422476D02*
X5966429Y-21422476D01*
X5966429Y-21422476D02*
X5985476Y-21432000D01*
X5985476Y-21432000D02*
X5995000Y-21441524D01*
X5995000Y-21441524D02*
X6004524Y-21460571D01*
X6004524Y-21460571D02*
X6014048Y-21498667D01*
X6014048Y-21498667D02*
X6014048Y-21546286D01*
X6014048Y-21546286D02*
X6004524Y-21584381D01*
X6004524Y-21584381D02*
X5995000Y-21603429D01*
X5995000Y-21603429D02*
X5985476Y-21612952D01*
X5985476Y-21612952D02*
X5966429Y-21622476D01*
X5966429Y-21622476D02*
X5947381Y-21622476D01*
X5947381Y-21622476D02*
X5928333Y-21612952D01*
X5928333Y-21612952D02*
X5918809Y-21603429D01*
X5918809Y-21603429D02*
X5909286Y-21584381D01*
X5909286Y-21584381D02*
X5899762Y-21546286D01*
X5899762Y-21546286D02*
X5899762Y-21498667D01*
X5899762Y-21498667D02*
X5909286Y-21460571D01*
X5909286Y-21460571D02*
X5918809Y-21441524D01*
X5918809Y-21441524D02*
X5928333Y-21432000D01*
X5928333Y-21432000D02*
X5947381Y-21422476D01*
X6099762Y-21622476D02*
X6099762Y-21489143D01*
X6099762Y-21508190D02*
X6109286Y-21498667D01*
X6109286Y-21498667D02*
X6128333Y-21489143D01*
X6128333Y-21489143D02*
X6156905Y-21489143D01*
X6156905Y-21489143D02*
X6175952Y-21498667D01*
X6175952Y-21498667D02*
X6185476Y-21517714D01*
X6185476Y-21517714D02*
X6185476Y-21622476D01*
X6185476Y-21517714D02*
X6195000Y-21498667D01*
X6195000Y-21498667D02*
X6214048Y-21489143D01*
X6214048Y-21489143D02*
X6242619Y-21489143D01*
X6242619Y-21489143D02*
X6261667Y-21498667D01*
X6261667Y-21498667D02*
X6271190Y-21517714D01*
X6271190Y-21517714D02*
X6271190Y-21622476D01*
X6366429Y-21622476D02*
X6366429Y-21489143D01*
X6366429Y-21508190D02*
X6375952Y-21498667D01*
X6375952Y-21498667D02*
X6395000Y-21489143D01*
X6395000Y-21489143D02*
X6423571Y-21489143D01*
X6423571Y-21489143D02*
X6442619Y-21498667D01*
X6442619Y-21498667D02*
X6452143Y-21517714D01*
X6452143Y-21517714D02*
X6452143Y-21622476D01*
X6452143Y-21517714D02*
X6461667Y-21498667D01*
X6461667Y-21498667D02*
X6480714Y-21489143D01*
X6480714Y-21489143D02*
X6509286Y-21489143D01*
X6509286Y-21489143D02*
X6528333Y-21498667D01*
X6528333Y-21498667D02*
X6537857Y-21517714D01*
X6537857Y-21517714D02*
X6537857Y-21622476D01*
X6895952Y-21412952D02*
X6724524Y-21670095D01*
X7120714Y-21422476D02*
X7139762Y-21422476D01*
X7139762Y-21422476D02*
X7158810Y-21432000D01*
X7158810Y-21432000D02*
X7168333Y-21441524D01*
X7168333Y-21441524D02*
X7177857Y-21460571D01*
X7177857Y-21460571D02*
X7187381Y-21498667D01*
X7187381Y-21498667D02*
X7187381Y-21546286D01*
X7187381Y-21546286D02*
X7177857Y-21584381D01*
X7177857Y-21584381D02*
X7168333Y-21603429D01*
X7168333Y-21603429D02*
X7158810Y-21612952D01*
X7158810Y-21612952D02*
X7139762Y-21622476D01*
X7139762Y-21622476D02*
X7120714Y-21622476D01*
X7120714Y-21622476D02*
X7101667Y-21612952D01*
X7101667Y-21612952D02*
X7092143Y-21603429D01*
X7092143Y-21603429D02*
X7082619Y-21584381D01*
X7082619Y-21584381D02*
X7073095Y-21546286D01*
X7073095Y-21546286D02*
X7073095Y-21498667D01*
X7073095Y-21498667D02*
X7082619Y-21460571D01*
X7082619Y-21460571D02*
X7092143Y-21441524D01*
X7092143Y-21441524D02*
X7101667Y-21432000D01*
X7101667Y-21432000D02*
X7120714Y-21422476D01*
X7273095Y-21603429D02*
X7282619Y-21612952D01*
X7282619Y-21612952D02*
X7273095Y-21622476D01*
X7273095Y-21622476D02*
X7263571Y-21612952D01*
X7263571Y-21612952D02*
X7273095Y-21603429D01*
X7273095Y-21603429D02*
X7273095Y-21622476D01*
X7473095Y-21622476D02*
X7358810Y-21622476D01*
X7415952Y-21622476D02*
X7415952Y-21422476D01*
X7415952Y-21422476D02*
X7396905Y-21451048D01*
X7396905Y-21451048D02*
X7377857Y-21470095D01*
X7377857Y-21470095D02*
X7358810Y-21479619D01*
X7644524Y-21489143D02*
X7644524Y-21622476D01*
X7596905Y-21412952D02*
X7549286Y-21555810D01*
X7549286Y-21555810D02*
X7673095Y-21555810D01*
X7844524Y-21422476D02*
X7749286Y-21422476D01*
X7749286Y-21422476D02*
X7739762Y-21517714D01*
X7739762Y-21517714D02*
X7749286Y-21508190D01*
X7749286Y-21508190D02*
X7768333Y-21498667D01*
X7768333Y-21498667D02*
X7815952Y-21498667D01*
X7815952Y-21498667D02*
X7835000Y-21508190D01*
X7835000Y-21508190D02*
X7844524Y-21517714D01*
X7844524Y-21517714D02*
X7854048Y-21536762D01*
X7854048Y-21536762D02*
X7854048Y-21584381D01*
X7854048Y-21584381D02*
X7844524Y-21603429D01*
X7844524Y-21603429D02*
X7835000Y-21612952D01*
X7835000Y-21612952D02*
X7815952Y-21622476D01*
X7815952Y-21622476D02*
X7768333Y-21622476D01*
X7768333Y-21622476D02*
X7749286Y-21612952D01*
X7749286Y-21612952D02*
X7739762Y-21603429D01*
X7920714Y-21422476D02*
X8054048Y-21422476D01*
X8054048Y-21422476D02*
X7968333Y-21622476D01*
X8120714Y-21422476D02*
X8120714Y-21460571D01*
X8196905Y-21422476D02*
X8196905Y-21460571D01*
X8459762Y-21698667D02*
X8450238Y-21689143D01*
X8450238Y-21689143D02*
X8431191Y-21660571D01*
X8431191Y-21660571D02*
X8421667Y-21641524D01*
X8421667Y-21641524D02*
X8412143Y-21612952D01*
X8412143Y-21612952D02*
X8402619Y-21565333D01*
X8402619Y-21565333D02*
X8402619Y-21527238D01*
X8402619Y-21527238D02*
X8412143Y-21479619D01*
X8412143Y-21479619D02*
X8421667Y-21451048D01*
X8421667Y-21451048D02*
X8431191Y-21432000D01*
X8431191Y-21432000D02*
X8450238Y-21403429D01*
X8450238Y-21403429D02*
X8459762Y-21393905D01*
X8621667Y-21489143D02*
X8621667Y-21622476D01*
X8574048Y-21412952D02*
X8526429Y-21555810D01*
X8526429Y-21555810D02*
X8650238Y-21555810D01*
X8846429Y-21622476D02*
X8846429Y-21422476D01*
X8932143Y-21622476D02*
X8932143Y-21517714D01*
X8932143Y-21517714D02*
X8922619Y-21498667D01*
X8922619Y-21498667D02*
X8903572Y-21489143D01*
X8903572Y-21489143D02*
X8875000Y-21489143D01*
X8875000Y-21489143D02*
X8855953Y-21498667D01*
X8855953Y-21498667D02*
X8846429Y-21508190D01*
X9055953Y-21622476D02*
X9036905Y-21612952D01*
X9036905Y-21612952D02*
X9027381Y-21603429D01*
X9027381Y-21603429D02*
X9017857Y-21584381D01*
X9017857Y-21584381D02*
X9017857Y-21527238D01*
X9017857Y-21527238D02*
X9027381Y-21508190D01*
X9027381Y-21508190D02*
X9036905Y-21498667D01*
X9036905Y-21498667D02*
X9055953Y-21489143D01*
X9055953Y-21489143D02*
X9084524Y-21489143D01*
X9084524Y-21489143D02*
X9103572Y-21498667D01*
X9103572Y-21498667D02*
X9113095Y-21508190D01*
X9113095Y-21508190D02*
X9122619Y-21527238D01*
X9122619Y-21527238D02*
X9122619Y-21584381D01*
X9122619Y-21584381D02*
X9113095Y-21603429D01*
X9113095Y-21603429D02*
X9103572Y-21612952D01*
X9103572Y-21612952D02*
X9084524Y-21622476D01*
X9084524Y-21622476D02*
X9055953Y-21622476D01*
X9236905Y-21622476D02*
X9217857Y-21612952D01*
X9217857Y-21612952D02*
X9208334Y-21593905D01*
X9208334Y-21593905D02*
X9208334Y-21422476D01*
X9389286Y-21612952D02*
X9370238Y-21622476D01*
X9370238Y-21622476D02*
X9332143Y-21622476D01*
X9332143Y-21622476D02*
X9313095Y-21612952D01*
X9313095Y-21612952D02*
X9303572Y-21593905D01*
X9303572Y-21593905D02*
X9303572Y-21517714D01*
X9303572Y-21517714D02*
X9313095Y-21498667D01*
X9313095Y-21498667D02*
X9332143Y-21489143D01*
X9332143Y-21489143D02*
X9370238Y-21489143D01*
X9370238Y-21489143D02*
X9389286Y-21498667D01*
X9389286Y-21498667D02*
X9398810Y-21517714D01*
X9398810Y-21517714D02*
X9398810Y-21536762D01*
X9398810Y-21536762D02*
X9303572Y-21555810D01*
X9475000Y-21612952D02*
X9494048Y-21622476D01*
X9494048Y-21622476D02*
X9532143Y-21622476D01*
X9532143Y-21622476D02*
X9551191Y-21612952D01*
X9551191Y-21612952D02*
X9560715Y-21593905D01*
X9560715Y-21593905D02*
X9560715Y-21584381D01*
X9560715Y-21584381D02*
X9551191Y-21565333D01*
X9551191Y-21565333D02*
X9532143Y-21555810D01*
X9532143Y-21555810D02*
X9503572Y-21555810D01*
X9503572Y-21555810D02*
X9484524Y-21546286D01*
X9484524Y-21546286D02*
X9475000Y-21527238D01*
X9475000Y-21527238D02*
X9475000Y-21517714D01*
X9475000Y-21517714D02*
X9484524Y-21498667D01*
X9484524Y-21498667D02*
X9503572Y-21489143D01*
X9503572Y-21489143D02*
X9532143Y-21489143D01*
X9532143Y-21489143D02*
X9551191Y-21498667D01*
X9627381Y-21698667D02*
X9636905Y-21689143D01*
X9636905Y-21689143D02*
X9655953Y-21660571D01*
X9655953Y-21660571D02*
X9665476Y-21641524D01*
X9665476Y-21641524D02*
X9675000Y-21612952D01*
X9675000Y-21612952D02*
X9684524Y-21565333D01*
X9684524Y-21565333D02*
X9684524Y-21527238D01*
X9684524Y-21527238D02*
X9675000Y-21479619D01*
X9675000Y-21479619D02*
X9665476Y-21451048D01*
X9665476Y-21451048D02*
X9655953Y-21432000D01*
X9655953Y-21432000D02*
X9636905Y-21403429D01*
X9636905Y-21403429D02*
X9627381Y-21393905D01*
M02*
