%TF.GenerationSoftware,KiCad,Pcbnew,7.0.0-da2b9df05c~163~ubuntu22.04.1*%
%TF.CreationDate,2023-02-19T09:53:21-05:00*%
%TF.ProjectId,dso138_panel,64736f31-3338-45f7-9061-6e656c2e6b69,rev?*%
%TF.SameCoordinates,Original*%
%TF.FileFunction,Drillmap*%
%TF.FilePolarity,Positive*%
%FSLAX45Y45*%
G04 Gerber Fmt 4.5, Leading zero omitted, Abs format (unit mm)*
G04 Created by KiCad (PCBNEW 7.0.0-da2b9df05c~163~ubuntu22.04.1) date 2023-02-19 09:53:21*
%MOMM*%
%LPD*%
G01*
G04 APERTURE LIST*
%ADD10C,0.100000*%
%ADD11C,0.200000*%
%ADD12C,0.500000*%
G04 APERTURE END LIST*
D10*
X7510000Y-2980000D02*
X12510000Y-2980000D01*
X12510000Y-2980000D02*
X12510000Y-6980000D01*
X12510000Y-6980000D02*
X7510000Y-6980000D01*
X7510000Y-6980000D02*
X7510000Y-2980000D01*
X5000000Y0D02*
X15000000Y0D01*
X15000000Y0D02*
X15000000Y-20000000D01*
X15000000Y-20000000D02*
X5000000Y-20000000D01*
X5000000Y-20000000D02*
X5000000Y0D01*
D11*
D12*
X12250000Y-8550000D02*
X12750000Y-9050000D01*
X12750000Y-8550000D02*
X12250000Y-9050000D01*
D11*
X5242619Y-20298476D02*
X5242619Y-20098476D01*
X5242619Y-20098476D02*
X5290238Y-20098476D01*
X5290238Y-20098476D02*
X5318810Y-20108000D01*
X5318810Y-20108000D02*
X5337857Y-20127048D01*
X5337857Y-20127048D02*
X5347381Y-20146095D01*
X5347381Y-20146095D02*
X5356905Y-20184190D01*
X5356905Y-20184190D02*
X5356905Y-20212762D01*
X5356905Y-20212762D02*
X5347381Y-20250857D01*
X5347381Y-20250857D02*
X5337857Y-20269905D01*
X5337857Y-20269905D02*
X5318810Y-20288952D01*
X5318810Y-20288952D02*
X5290238Y-20298476D01*
X5290238Y-20298476D02*
X5242619Y-20298476D01*
X5442619Y-20298476D02*
X5442619Y-20165143D01*
X5442619Y-20203238D02*
X5452143Y-20184190D01*
X5452143Y-20184190D02*
X5461667Y-20174667D01*
X5461667Y-20174667D02*
X5480714Y-20165143D01*
X5480714Y-20165143D02*
X5499762Y-20165143D01*
X5566429Y-20298476D02*
X5566429Y-20165143D01*
X5566429Y-20098476D02*
X5556905Y-20108000D01*
X5556905Y-20108000D02*
X5566429Y-20117524D01*
X5566429Y-20117524D02*
X5575952Y-20108000D01*
X5575952Y-20108000D02*
X5566429Y-20098476D01*
X5566429Y-20098476D02*
X5566429Y-20117524D01*
X5690238Y-20298476D02*
X5671190Y-20288952D01*
X5671190Y-20288952D02*
X5661667Y-20269905D01*
X5661667Y-20269905D02*
X5661667Y-20098476D01*
X5795000Y-20298476D02*
X5775952Y-20288952D01*
X5775952Y-20288952D02*
X5766428Y-20269905D01*
X5766428Y-20269905D02*
X5766428Y-20098476D01*
X5991190Y-20298476D02*
X5991190Y-20098476D01*
X5991190Y-20098476D02*
X6057857Y-20241333D01*
X6057857Y-20241333D02*
X6124524Y-20098476D01*
X6124524Y-20098476D02*
X6124524Y-20298476D01*
X6305476Y-20298476D02*
X6305476Y-20193714D01*
X6305476Y-20193714D02*
X6295952Y-20174667D01*
X6295952Y-20174667D02*
X6276905Y-20165143D01*
X6276905Y-20165143D02*
X6238809Y-20165143D01*
X6238809Y-20165143D02*
X6219762Y-20174667D01*
X6305476Y-20288952D02*
X6286428Y-20298476D01*
X6286428Y-20298476D02*
X6238809Y-20298476D01*
X6238809Y-20298476D02*
X6219762Y-20288952D01*
X6219762Y-20288952D02*
X6210238Y-20269905D01*
X6210238Y-20269905D02*
X6210238Y-20250857D01*
X6210238Y-20250857D02*
X6219762Y-20231810D01*
X6219762Y-20231810D02*
X6238809Y-20222286D01*
X6238809Y-20222286D02*
X6286428Y-20222286D01*
X6286428Y-20222286D02*
X6305476Y-20212762D01*
X6400714Y-20165143D02*
X6400714Y-20365143D01*
X6400714Y-20174667D02*
X6419762Y-20165143D01*
X6419762Y-20165143D02*
X6457857Y-20165143D01*
X6457857Y-20165143D02*
X6476905Y-20174667D01*
X6476905Y-20174667D02*
X6486428Y-20184190D01*
X6486428Y-20184190D02*
X6495952Y-20203238D01*
X6495952Y-20203238D02*
X6495952Y-20260381D01*
X6495952Y-20260381D02*
X6486428Y-20279429D01*
X6486428Y-20279429D02*
X6476905Y-20288952D01*
X6476905Y-20288952D02*
X6457857Y-20298476D01*
X6457857Y-20298476D02*
X6419762Y-20298476D01*
X6419762Y-20298476D02*
X6400714Y-20288952D01*
X6581667Y-20279429D02*
X6591190Y-20288952D01*
X6591190Y-20288952D02*
X6581667Y-20298476D01*
X6581667Y-20298476D02*
X6572143Y-20288952D01*
X6572143Y-20288952D02*
X6581667Y-20279429D01*
X6581667Y-20279429D02*
X6581667Y-20298476D01*
X6581667Y-20174667D02*
X6591190Y-20184190D01*
X6591190Y-20184190D02*
X6581667Y-20193714D01*
X6581667Y-20193714D02*
X6572143Y-20184190D01*
X6572143Y-20184190D02*
X6581667Y-20174667D01*
X6581667Y-20174667D02*
X6581667Y-20193714D01*
X4795000Y-20545000D02*
X4995000Y-20745000D01*
X4995000Y-20545000D02*
X4795000Y-20745000D01*
X5337857Y-20518476D02*
X5242619Y-20518476D01*
X5242619Y-20518476D02*
X5233095Y-20613714D01*
X5233095Y-20613714D02*
X5242619Y-20604190D01*
X5242619Y-20604190D02*
X5261667Y-20594667D01*
X5261667Y-20594667D02*
X5309286Y-20594667D01*
X5309286Y-20594667D02*
X5328333Y-20604190D01*
X5328333Y-20604190D02*
X5337857Y-20613714D01*
X5337857Y-20613714D02*
X5347381Y-20632762D01*
X5347381Y-20632762D02*
X5347381Y-20680381D01*
X5347381Y-20680381D02*
X5337857Y-20699429D01*
X5337857Y-20699429D02*
X5328333Y-20708952D01*
X5328333Y-20708952D02*
X5309286Y-20718476D01*
X5309286Y-20718476D02*
X5261667Y-20718476D01*
X5261667Y-20718476D02*
X5242619Y-20708952D01*
X5242619Y-20708952D02*
X5233095Y-20699429D01*
X5433095Y-20699429D02*
X5442619Y-20708952D01*
X5442619Y-20708952D02*
X5433095Y-20718476D01*
X5433095Y-20718476D02*
X5423571Y-20708952D01*
X5423571Y-20708952D02*
X5433095Y-20699429D01*
X5433095Y-20699429D02*
X5433095Y-20718476D01*
X5566429Y-20518476D02*
X5585476Y-20518476D01*
X5585476Y-20518476D02*
X5604524Y-20528000D01*
X5604524Y-20528000D02*
X5614048Y-20537524D01*
X5614048Y-20537524D02*
X5623571Y-20556571D01*
X5623571Y-20556571D02*
X5633095Y-20594667D01*
X5633095Y-20594667D02*
X5633095Y-20642286D01*
X5633095Y-20642286D02*
X5623571Y-20680381D01*
X5623571Y-20680381D02*
X5614048Y-20699429D01*
X5614048Y-20699429D02*
X5604524Y-20708952D01*
X5604524Y-20708952D02*
X5585476Y-20718476D01*
X5585476Y-20718476D02*
X5566429Y-20718476D01*
X5566429Y-20718476D02*
X5547381Y-20708952D01*
X5547381Y-20708952D02*
X5537857Y-20699429D01*
X5537857Y-20699429D02*
X5528333Y-20680381D01*
X5528333Y-20680381D02*
X5518810Y-20642286D01*
X5518810Y-20642286D02*
X5518810Y-20594667D01*
X5518810Y-20594667D02*
X5528333Y-20556571D01*
X5528333Y-20556571D02*
X5537857Y-20537524D01*
X5537857Y-20537524D02*
X5547381Y-20528000D01*
X5547381Y-20528000D02*
X5566429Y-20518476D01*
X5756905Y-20518476D02*
X5775952Y-20518476D01*
X5775952Y-20518476D02*
X5795000Y-20528000D01*
X5795000Y-20528000D02*
X5804524Y-20537524D01*
X5804524Y-20537524D02*
X5814048Y-20556571D01*
X5814048Y-20556571D02*
X5823571Y-20594667D01*
X5823571Y-20594667D02*
X5823571Y-20642286D01*
X5823571Y-20642286D02*
X5814048Y-20680381D01*
X5814048Y-20680381D02*
X5804524Y-20699429D01*
X5804524Y-20699429D02*
X5795000Y-20708952D01*
X5795000Y-20708952D02*
X5775952Y-20718476D01*
X5775952Y-20718476D02*
X5756905Y-20718476D01*
X5756905Y-20718476D02*
X5737857Y-20708952D01*
X5737857Y-20708952D02*
X5728333Y-20699429D01*
X5728333Y-20699429D02*
X5718809Y-20680381D01*
X5718809Y-20680381D02*
X5709286Y-20642286D01*
X5709286Y-20642286D02*
X5709286Y-20594667D01*
X5709286Y-20594667D02*
X5718809Y-20556571D01*
X5718809Y-20556571D02*
X5728333Y-20537524D01*
X5728333Y-20537524D02*
X5737857Y-20528000D01*
X5737857Y-20528000D02*
X5756905Y-20518476D01*
X5947381Y-20518476D02*
X5966429Y-20518476D01*
X5966429Y-20518476D02*
X5985476Y-20528000D01*
X5985476Y-20528000D02*
X5995000Y-20537524D01*
X5995000Y-20537524D02*
X6004524Y-20556571D01*
X6004524Y-20556571D02*
X6014048Y-20594667D01*
X6014048Y-20594667D02*
X6014048Y-20642286D01*
X6014048Y-20642286D02*
X6004524Y-20680381D01*
X6004524Y-20680381D02*
X5995000Y-20699429D01*
X5995000Y-20699429D02*
X5985476Y-20708952D01*
X5985476Y-20708952D02*
X5966429Y-20718476D01*
X5966429Y-20718476D02*
X5947381Y-20718476D01*
X5947381Y-20718476D02*
X5928333Y-20708952D01*
X5928333Y-20708952D02*
X5918809Y-20699429D01*
X5918809Y-20699429D02*
X5909286Y-20680381D01*
X5909286Y-20680381D02*
X5899762Y-20642286D01*
X5899762Y-20642286D02*
X5899762Y-20594667D01*
X5899762Y-20594667D02*
X5909286Y-20556571D01*
X5909286Y-20556571D02*
X5918809Y-20537524D01*
X5918809Y-20537524D02*
X5928333Y-20528000D01*
X5928333Y-20528000D02*
X5947381Y-20518476D01*
X6099762Y-20718476D02*
X6099762Y-20585143D01*
X6099762Y-20604190D02*
X6109286Y-20594667D01*
X6109286Y-20594667D02*
X6128333Y-20585143D01*
X6128333Y-20585143D02*
X6156905Y-20585143D01*
X6156905Y-20585143D02*
X6175952Y-20594667D01*
X6175952Y-20594667D02*
X6185476Y-20613714D01*
X6185476Y-20613714D02*
X6185476Y-20718476D01*
X6185476Y-20613714D02*
X6195000Y-20594667D01*
X6195000Y-20594667D02*
X6214048Y-20585143D01*
X6214048Y-20585143D02*
X6242619Y-20585143D01*
X6242619Y-20585143D02*
X6261667Y-20594667D01*
X6261667Y-20594667D02*
X6271190Y-20613714D01*
X6271190Y-20613714D02*
X6271190Y-20718476D01*
X6366429Y-20718476D02*
X6366429Y-20585143D01*
X6366429Y-20604190D02*
X6375952Y-20594667D01*
X6375952Y-20594667D02*
X6395000Y-20585143D01*
X6395000Y-20585143D02*
X6423571Y-20585143D01*
X6423571Y-20585143D02*
X6442619Y-20594667D01*
X6442619Y-20594667D02*
X6452143Y-20613714D01*
X6452143Y-20613714D02*
X6452143Y-20718476D01*
X6452143Y-20613714D02*
X6461667Y-20594667D01*
X6461667Y-20594667D02*
X6480714Y-20585143D01*
X6480714Y-20585143D02*
X6509286Y-20585143D01*
X6509286Y-20585143D02*
X6528333Y-20594667D01*
X6528333Y-20594667D02*
X6537857Y-20613714D01*
X6537857Y-20613714D02*
X6537857Y-20718476D01*
X6895952Y-20508952D02*
X6724524Y-20766095D01*
X7120714Y-20518476D02*
X7139762Y-20518476D01*
X7139762Y-20518476D02*
X7158810Y-20528000D01*
X7158810Y-20528000D02*
X7168333Y-20537524D01*
X7168333Y-20537524D02*
X7177857Y-20556571D01*
X7177857Y-20556571D02*
X7187381Y-20594667D01*
X7187381Y-20594667D02*
X7187381Y-20642286D01*
X7187381Y-20642286D02*
X7177857Y-20680381D01*
X7177857Y-20680381D02*
X7168333Y-20699429D01*
X7168333Y-20699429D02*
X7158810Y-20708952D01*
X7158810Y-20708952D02*
X7139762Y-20718476D01*
X7139762Y-20718476D02*
X7120714Y-20718476D01*
X7120714Y-20718476D02*
X7101667Y-20708952D01*
X7101667Y-20708952D02*
X7092143Y-20699429D01*
X7092143Y-20699429D02*
X7082619Y-20680381D01*
X7082619Y-20680381D02*
X7073095Y-20642286D01*
X7073095Y-20642286D02*
X7073095Y-20594667D01*
X7073095Y-20594667D02*
X7082619Y-20556571D01*
X7082619Y-20556571D02*
X7092143Y-20537524D01*
X7092143Y-20537524D02*
X7101667Y-20528000D01*
X7101667Y-20528000D02*
X7120714Y-20518476D01*
X7273095Y-20699429D02*
X7282619Y-20708952D01*
X7282619Y-20708952D02*
X7273095Y-20718476D01*
X7273095Y-20718476D02*
X7263571Y-20708952D01*
X7263571Y-20708952D02*
X7273095Y-20699429D01*
X7273095Y-20699429D02*
X7273095Y-20718476D01*
X7473095Y-20718476D02*
X7358810Y-20718476D01*
X7415952Y-20718476D02*
X7415952Y-20518476D01*
X7415952Y-20518476D02*
X7396905Y-20547048D01*
X7396905Y-20547048D02*
X7377857Y-20566095D01*
X7377857Y-20566095D02*
X7358810Y-20575619D01*
X7568333Y-20718476D02*
X7606429Y-20718476D01*
X7606429Y-20718476D02*
X7625476Y-20708952D01*
X7625476Y-20708952D02*
X7635000Y-20699429D01*
X7635000Y-20699429D02*
X7654048Y-20670857D01*
X7654048Y-20670857D02*
X7663571Y-20632762D01*
X7663571Y-20632762D02*
X7663571Y-20556571D01*
X7663571Y-20556571D02*
X7654048Y-20537524D01*
X7654048Y-20537524D02*
X7644524Y-20528000D01*
X7644524Y-20528000D02*
X7625476Y-20518476D01*
X7625476Y-20518476D02*
X7587381Y-20518476D01*
X7587381Y-20518476D02*
X7568333Y-20528000D01*
X7568333Y-20528000D02*
X7558810Y-20537524D01*
X7558810Y-20537524D02*
X7549286Y-20556571D01*
X7549286Y-20556571D02*
X7549286Y-20604190D01*
X7549286Y-20604190D02*
X7558810Y-20623238D01*
X7558810Y-20623238D02*
X7568333Y-20632762D01*
X7568333Y-20632762D02*
X7587381Y-20642286D01*
X7587381Y-20642286D02*
X7625476Y-20642286D01*
X7625476Y-20642286D02*
X7644524Y-20632762D01*
X7644524Y-20632762D02*
X7654048Y-20623238D01*
X7654048Y-20623238D02*
X7663571Y-20604190D01*
X7835000Y-20518476D02*
X7796905Y-20518476D01*
X7796905Y-20518476D02*
X7777857Y-20528000D01*
X7777857Y-20528000D02*
X7768333Y-20537524D01*
X7768333Y-20537524D02*
X7749286Y-20566095D01*
X7749286Y-20566095D02*
X7739762Y-20604190D01*
X7739762Y-20604190D02*
X7739762Y-20680381D01*
X7739762Y-20680381D02*
X7749286Y-20699429D01*
X7749286Y-20699429D02*
X7758810Y-20708952D01*
X7758810Y-20708952D02*
X7777857Y-20718476D01*
X7777857Y-20718476D02*
X7815952Y-20718476D01*
X7815952Y-20718476D02*
X7835000Y-20708952D01*
X7835000Y-20708952D02*
X7844524Y-20699429D01*
X7844524Y-20699429D02*
X7854048Y-20680381D01*
X7854048Y-20680381D02*
X7854048Y-20632762D01*
X7854048Y-20632762D02*
X7844524Y-20613714D01*
X7844524Y-20613714D02*
X7835000Y-20604190D01*
X7835000Y-20604190D02*
X7815952Y-20594667D01*
X7815952Y-20594667D02*
X7777857Y-20594667D01*
X7777857Y-20594667D02*
X7758810Y-20604190D01*
X7758810Y-20604190D02*
X7749286Y-20613714D01*
X7749286Y-20613714D02*
X7739762Y-20632762D01*
X7949286Y-20718476D02*
X7987381Y-20718476D01*
X7987381Y-20718476D02*
X8006429Y-20708952D01*
X8006429Y-20708952D02*
X8015952Y-20699429D01*
X8015952Y-20699429D02*
X8035000Y-20670857D01*
X8035000Y-20670857D02*
X8044524Y-20632762D01*
X8044524Y-20632762D02*
X8044524Y-20556571D01*
X8044524Y-20556571D02*
X8035000Y-20537524D01*
X8035000Y-20537524D02*
X8025476Y-20528000D01*
X8025476Y-20528000D02*
X8006429Y-20518476D01*
X8006429Y-20518476D02*
X7968333Y-20518476D01*
X7968333Y-20518476D02*
X7949286Y-20528000D01*
X7949286Y-20528000D02*
X7939762Y-20537524D01*
X7939762Y-20537524D02*
X7930238Y-20556571D01*
X7930238Y-20556571D02*
X7930238Y-20604190D01*
X7930238Y-20604190D02*
X7939762Y-20623238D01*
X7939762Y-20623238D02*
X7949286Y-20632762D01*
X7949286Y-20632762D02*
X7968333Y-20642286D01*
X7968333Y-20642286D02*
X8006429Y-20642286D01*
X8006429Y-20642286D02*
X8025476Y-20632762D01*
X8025476Y-20632762D02*
X8035000Y-20623238D01*
X8035000Y-20623238D02*
X8044524Y-20604190D01*
X8120714Y-20518476D02*
X8120714Y-20556571D01*
X8196905Y-20518476D02*
X8196905Y-20556571D01*
X8459762Y-20794667D02*
X8450238Y-20785143D01*
X8450238Y-20785143D02*
X8431191Y-20756571D01*
X8431191Y-20756571D02*
X8421667Y-20737524D01*
X8421667Y-20737524D02*
X8412143Y-20708952D01*
X8412143Y-20708952D02*
X8402619Y-20661333D01*
X8402619Y-20661333D02*
X8402619Y-20623238D01*
X8402619Y-20623238D02*
X8412143Y-20575619D01*
X8412143Y-20575619D02*
X8421667Y-20547048D01*
X8421667Y-20547048D02*
X8431191Y-20528000D01*
X8431191Y-20528000D02*
X8450238Y-20499429D01*
X8450238Y-20499429D02*
X8459762Y-20489905D01*
X8640714Y-20718476D02*
X8526429Y-20718476D01*
X8583572Y-20718476D02*
X8583572Y-20518476D01*
X8583572Y-20518476D02*
X8564524Y-20547048D01*
X8564524Y-20547048D02*
X8545476Y-20566095D01*
X8545476Y-20566095D02*
X8526429Y-20575619D01*
X8846429Y-20718476D02*
X8846429Y-20518476D01*
X8932143Y-20718476D02*
X8932143Y-20613714D01*
X8932143Y-20613714D02*
X8922619Y-20594667D01*
X8922619Y-20594667D02*
X8903572Y-20585143D01*
X8903572Y-20585143D02*
X8875000Y-20585143D01*
X8875000Y-20585143D02*
X8855953Y-20594667D01*
X8855953Y-20594667D02*
X8846429Y-20604190D01*
X9055953Y-20718476D02*
X9036905Y-20708952D01*
X9036905Y-20708952D02*
X9027381Y-20699429D01*
X9027381Y-20699429D02*
X9017857Y-20680381D01*
X9017857Y-20680381D02*
X9017857Y-20623238D01*
X9017857Y-20623238D02*
X9027381Y-20604190D01*
X9027381Y-20604190D02*
X9036905Y-20594667D01*
X9036905Y-20594667D02*
X9055953Y-20585143D01*
X9055953Y-20585143D02*
X9084524Y-20585143D01*
X9084524Y-20585143D02*
X9103572Y-20594667D01*
X9103572Y-20594667D02*
X9113095Y-20604190D01*
X9113095Y-20604190D02*
X9122619Y-20623238D01*
X9122619Y-20623238D02*
X9122619Y-20680381D01*
X9122619Y-20680381D02*
X9113095Y-20699429D01*
X9113095Y-20699429D02*
X9103572Y-20708952D01*
X9103572Y-20708952D02*
X9084524Y-20718476D01*
X9084524Y-20718476D02*
X9055953Y-20718476D01*
X9236905Y-20718476D02*
X9217857Y-20708952D01*
X9217857Y-20708952D02*
X9208334Y-20689905D01*
X9208334Y-20689905D02*
X9208334Y-20518476D01*
X9389286Y-20708952D02*
X9370238Y-20718476D01*
X9370238Y-20718476D02*
X9332143Y-20718476D01*
X9332143Y-20718476D02*
X9313095Y-20708952D01*
X9313095Y-20708952D02*
X9303572Y-20689905D01*
X9303572Y-20689905D02*
X9303572Y-20613714D01*
X9303572Y-20613714D02*
X9313095Y-20594667D01*
X9313095Y-20594667D02*
X9332143Y-20585143D01*
X9332143Y-20585143D02*
X9370238Y-20585143D01*
X9370238Y-20585143D02*
X9389286Y-20594667D01*
X9389286Y-20594667D02*
X9398810Y-20613714D01*
X9398810Y-20613714D02*
X9398810Y-20632762D01*
X9398810Y-20632762D02*
X9303572Y-20651810D01*
X9465476Y-20794667D02*
X9475000Y-20785143D01*
X9475000Y-20785143D02*
X9494048Y-20756571D01*
X9494048Y-20756571D02*
X9503572Y-20737524D01*
X9503572Y-20737524D02*
X9513095Y-20708952D01*
X9513095Y-20708952D02*
X9522619Y-20661333D01*
X9522619Y-20661333D02*
X9522619Y-20623238D01*
X9522619Y-20623238D02*
X9513095Y-20575619D01*
X9513095Y-20575619D02*
X9503572Y-20547048D01*
X9503572Y-20547048D02*
X9494048Y-20528000D01*
X9494048Y-20528000D02*
X9475000Y-20499429D01*
X9475000Y-20499429D02*
X9465476Y-20489905D01*
X9795000Y-20794667D02*
X9785476Y-20785143D01*
X9785476Y-20785143D02*
X9766429Y-20756571D01*
X9766429Y-20756571D02*
X9756905Y-20737524D01*
X9756905Y-20737524D02*
X9747381Y-20708952D01*
X9747381Y-20708952D02*
X9737857Y-20661333D01*
X9737857Y-20661333D02*
X9737857Y-20623238D01*
X9737857Y-20623238D02*
X9747381Y-20575619D01*
X9747381Y-20575619D02*
X9756905Y-20547048D01*
X9756905Y-20547048D02*
X9766429Y-20528000D01*
X9766429Y-20528000D02*
X9785476Y-20499429D01*
X9785476Y-20499429D02*
X9795000Y-20489905D01*
X9871191Y-20585143D02*
X9871191Y-20718476D01*
X9871191Y-20604190D02*
X9880714Y-20594667D01*
X9880714Y-20594667D02*
X9899762Y-20585143D01*
X9899762Y-20585143D02*
X9928334Y-20585143D01*
X9928334Y-20585143D02*
X9947381Y-20594667D01*
X9947381Y-20594667D02*
X9956905Y-20613714D01*
X9956905Y-20613714D02*
X9956905Y-20718476D01*
X10080714Y-20718476D02*
X10061667Y-20708952D01*
X10061667Y-20708952D02*
X10052143Y-20699429D01*
X10052143Y-20699429D02*
X10042619Y-20680381D01*
X10042619Y-20680381D02*
X10042619Y-20623238D01*
X10042619Y-20623238D02*
X10052143Y-20604190D01*
X10052143Y-20604190D02*
X10061667Y-20594667D01*
X10061667Y-20594667D02*
X10080714Y-20585143D01*
X10080714Y-20585143D02*
X10109286Y-20585143D01*
X10109286Y-20585143D02*
X10128334Y-20594667D01*
X10128334Y-20594667D02*
X10137857Y-20604190D01*
X10137857Y-20604190D02*
X10147381Y-20623238D01*
X10147381Y-20623238D02*
X10147381Y-20680381D01*
X10147381Y-20680381D02*
X10137857Y-20699429D01*
X10137857Y-20699429D02*
X10128334Y-20708952D01*
X10128334Y-20708952D02*
X10109286Y-20718476D01*
X10109286Y-20718476D02*
X10080714Y-20718476D01*
X10204524Y-20585143D02*
X10280714Y-20585143D01*
X10233095Y-20518476D02*
X10233095Y-20689905D01*
X10233095Y-20689905D02*
X10242619Y-20708952D01*
X10242619Y-20708952D02*
X10261667Y-20718476D01*
X10261667Y-20718476D02*
X10280714Y-20718476D01*
X10467381Y-20585143D02*
X10467381Y-20785143D01*
X10467381Y-20594667D02*
X10486429Y-20585143D01*
X10486429Y-20585143D02*
X10524524Y-20585143D01*
X10524524Y-20585143D02*
X10543572Y-20594667D01*
X10543572Y-20594667D02*
X10553095Y-20604190D01*
X10553095Y-20604190D02*
X10562619Y-20623238D01*
X10562619Y-20623238D02*
X10562619Y-20680381D01*
X10562619Y-20680381D02*
X10553095Y-20699429D01*
X10553095Y-20699429D02*
X10543572Y-20708952D01*
X10543572Y-20708952D02*
X10524524Y-20718476D01*
X10524524Y-20718476D02*
X10486429Y-20718476D01*
X10486429Y-20718476D02*
X10467381Y-20708952D01*
X10676905Y-20718476D02*
X10657857Y-20708952D01*
X10657857Y-20708952D02*
X10648334Y-20689905D01*
X10648334Y-20689905D02*
X10648334Y-20518476D01*
X10838810Y-20718476D02*
X10838810Y-20613714D01*
X10838810Y-20613714D02*
X10829286Y-20594667D01*
X10829286Y-20594667D02*
X10810238Y-20585143D01*
X10810238Y-20585143D02*
X10772143Y-20585143D01*
X10772143Y-20585143D02*
X10753095Y-20594667D01*
X10838810Y-20708952D02*
X10819762Y-20718476D01*
X10819762Y-20718476D02*
X10772143Y-20718476D01*
X10772143Y-20718476D02*
X10753095Y-20708952D01*
X10753095Y-20708952D02*
X10743572Y-20689905D01*
X10743572Y-20689905D02*
X10743572Y-20670857D01*
X10743572Y-20670857D02*
X10753095Y-20651810D01*
X10753095Y-20651810D02*
X10772143Y-20642286D01*
X10772143Y-20642286D02*
X10819762Y-20642286D01*
X10819762Y-20642286D02*
X10838810Y-20632762D01*
X10905476Y-20585143D02*
X10981667Y-20585143D01*
X10934048Y-20518476D02*
X10934048Y-20689905D01*
X10934048Y-20689905D02*
X10943572Y-20708952D01*
X10943572Y-20708952D02*
X10962619Y-20718476D01*
X10962619Y-20718476D02*
X10981667Y-20718476D01*
X11124524Y-20708952D02*
X11105476Y-20718476D01*
X11105476Y-20718476D02*
X11067381Y-20718476D01*
X11067381Y-20718476D02*
X11048334Y-20708952D01*
X11048334Y-20708952D02*
X11038810Y-20689905D01*
X11038810Y-20689905D02*
X11038810Y-20613714D01*
X11038810Y-20613714D02*
X11048334Y-20594667D01*
X11048334Y-20594667D02*
X11067381Y-20585143D01*
X11067381Y-20585143D02*
X11105476Y-20585143D01*
X11105476Y-20585143D02*
X11124524Y-20594667D01*
X11124524Y-20594667D02*
X11134048Y-20613714D01*
X11134048Y-20613714D02*
X11134048Y-20632762D01*
X11134048Y-20632762D02*
X11038810Y-20651810D01*
X11305476Y-20718476D02*
X11305476Y-20518476D01*
X11305476Y-20708952D02*
X11286429Y-20718476D01*
X11286429Y-20718476D02*
X11248333Y-20718476D01*
X11248333Y-20718476D02*
X11229286Y-20708952D01*
X11229286Y-20708952D02*
X11219762Y-20699429D01*
X11219762Y-20699429D02*
X11210238Y-20680381D01*
X11210238Y-20680381D02*
X11210238Y-20623238D01*
X11210238Y-20623238D02*
X11219762Y-20604190D01*
X11219762Y-20604190D02*
X11229286Y-20594667D01*
X11229286Y-20594667D02*
X11248333Y-20585143D01*
X11248333Y-20585143D02*
X11286429Y-20585143D01*
X11286429Y-20585143D02*
X11305476Y-20594667D01*
X11381667Y-20794667D02*
X11391191Y-20785143D01*
X11391191Y-20785143D02*
X11410238Y-20756571D01*
X11410238Y-20756571D02*
X11419762Y-20737524D01*
X11419762Y-20737524D02*
X11429286Y-20708952D01*
X11429286Y-20708952D02*
X11438810Y-20661333D01*
X11438810Y-20661333D02*
X11438810Y-20623238D01*
X11438810Y-20623238D02*
X11429286Y-20575619D01*
X11429286Y-20575619D02*
X11419762Y-20547048D01*
X11419762Y-20547048D02*
X11410238Y-20528000D01*
X11410238Y-20528000D02*
X11391191Y-20499429D01*
X11391191Y-20499429D02*
X11381667Y-20489905D01*
M02*
