%TF.GenerationSoftware,KiCad,Pcbnew,7.0.0-da2b9df05c~163~ubuntu22.04.1*%
%TF.CreationDate,2023-02-19T09:56:45-05:00*%
%TF.ProjectId,dso138_panel,64736f31-3338-45f7-9061-6e656c2e6b69,rev?*%
%TF.SameCoordinates,Original*%
%TF.FileFunction,Copper,L2,Bot*%
%TF.FilePolarity,Positive*%
%FSLAX46Y46*%
G04 Gerber Fmt 4.6, Leading zero omitted, Abs format (unit mm)*
G04 Created by KiCad (PCBNEW 7.0.0-da2b9df05c~163~ubuntu22.04.1) date 2023-02-19 09:56:45*
%MOMM*%
%LPD*%
G01*
G04 APERTURE LIST*
G04 Aperture macros list*
%AMFreePoly0*
4,1,179,8.575837,8.706056,9.155382,8.628115,9.728426,8.511638,10.292411,8.357147,10.844818,8.165330,11.383179,7.937045,11.905090,7.673312,12.408221,7.375307,12.890323,7.044363,13.349244,6.681957,13.782934,6.289707,14.189456,5.869366,14.566995,5.422812,14.913864,4.952037,15.228514,4.459146,15.509540,3.946339,15.755687,3.415906,15.965855,2.870218,16.139105,2.311710,16.274665,1.742877,
16.371928,1.166261,16.430460,0.584436,16.450000,0.000000,16.430460,-0.584436,16.371928,-1.166261,16.274665,-1.742877,16.139105,-2.311710,15.965855,-2.870218,15.755687,-3.415906,15.509540,-3.946339,15.228514,-4.459146,14.913864,-4.952037,14.566995,-5.422812,14.189456,-5.869366,13.782934,-6.289707,13.349244,-6.681957,12.890323,-7.044363,12.408221,-7.375307,11.905090,-7.673312,11.383179,-7.937045,
10.844818,-8.165330,10.292411,-8.357147,9.728426,-8.511638,9.155382,-8.628115,8.575837,-8.706056,7.992381,-8.745114,7.407619,-8.745114,6.824163,-8.706056,6.244618,-8.628115,5.671574,-8.511638,5.107589,-8.357147,4.555182,-8.165330,4.016821,-7.937045,3.494910,-7.673312,2.991779,-7.375307,2.509677,-7.044363,2.050756,-6.681957,1.617066,-6.289707,1.210544,-5.869366,0.833005,-5.422812,
0.486136,-4.952037,0.171486,-4.459146,-0.109540,-3.946339,-0.355687,-3.415906,-0.565855,-2.870218,-0.739105,-2.311710,-0.874665,-1.742877,-0.971928,-1.166261,-1.030460,-0.584436,-1.050000,0.000000,1.045117,0.000000,1.064644,-0.509426,1.123109,-1.015863,1.220171,-1.516338,1.355259,-2.007915,1.527580,-2.487709,1.736123,-2.952904,1.979665,-3.400770,2.256776,-3.828678,2.565830,-4.234119,
2.905013,-4.614712,3.272335,-4.968224,3.665641,-5.292581,4.082622,-5.585879,4.520831,-5.846396,4.977696,-6.072605,5.450537,-6.263177,5.936579,-6.416994,6.432969,-6.533154,6.936795,-6.610975,7.445100,-6.650000,7.954900,-6.650000,8.463205,-6.610975,8.967031,-6.533154,9.463421,-6.416994,9.949463,-6.263177,10.422304,-6.072605,10.879169,-5.846396,11.317378,-5.585879,11.734359,-5.292581,
12.127665,-4.968224,12.494987,-4.614712,12.834170,-4.234119,13.143224,-3.828678,13.420335,-3.400770,13.663877,-2.952904,13.872420,-2.487709,14.044741,-2.007915,14.179829,-1.516338,14.276891,-1.015863,14.335356,-0.509426,14.354883,0.000000,14.335356,0.509426,14.276891,1.015863,14.179829,1.516338,14.044741,2.007915,13.872420,2.487709,13.663877,2.952904,13.420335,3.400770,13.143224,3.828678,
12.834170,4.234119,12.494987,4.614712,12.127665,4.968224,11.734359,5.292581,11.317378,5.585879,10.879169,5.846396,10.422304,6.072605,9.949463,6.263177,9.463421,6.416994,8.967031,6.533154,8.463205,6.610975,7.954900,6.650000,7.445100,6.650000,6.936795,6.610975,6.432969,6.533154,5.936579,6.416994,5.450537,6.263177,4.977696,6.072605,4.520831,5.846396,4.082622,5.585879,
3.665641,5.292581,3.272335,4.968224,2.905013,4.614712,2.565830,4.234119,2.256776,3.828678,1.979665,3.400770,1.736123,2.952904,1.527580,2.487709,1.355259,2.007915,1.220171,1.516338,1.123109,1.015863,1.064644,0.509426,1.045117,0.000000,-1.050000,0.000000,-1.030460,0.584436,-0.971928,1.166261,-0.874665,1.742877,-0.739105,2.311710,-0.565855,2.870218,-0.355687,3.415906,
-0.109540,3.946339,0.171486,4.459146,0.486136,4.952037,0.833005,5.422812,1.210544,5.869366,1.617066,6.289707,2.050756,6.681957,2.509677,7.044363,2.991779,7.375307,3.494910,7.673312,4.016821,7.937045,4.555182,8.165330,5.107589,8.357147,5.671574,8.511638,6.244618,8.628115,6.824163,8.706056,7.407619,8.745114,7.992381,8.745114,8.575837,8.706056,8.575837,8.706056,
$1*%
%AMFreePoly1*
4,1,159,6.626847,7.030287,7.150748,6.971257,7.668773,6.873242,8.178024,6.736788,8.675654,6.562660,9.158880,6.351831,9.625000,6.105479,10.071406,5.824983,10.495603,5.511912,10.895218,5.168016,11.268016,4.795218,11.611912,4.395603,11.924983,3.971406,12.205479,3.525000,12.451831,3.058880,12.662660,2.575654,12.836788,2.078024,12.973242,1.568773,13.071257,1.050748,13.130287,0.526847,
13.150000,0.000000,13.130287,-0.526847,13.071257,-1.050748,12.973242,-1.568773,12.836788,-2.078024,12.662660,-2.575654,12.451831,-3.058880,12.205479,-3.525000,11.924983,-3.971406,11.611912,-4.395603,11.268016,-4.795218,10.895218,-5.168016,10.495603,-5.511912,10.071406,-5.824983,9.625000,-6.105479,9.158880,-6.351831,8.675654,-6.562660,8.178024,-6.736788,7.668773,-6.873242,7.150748,-6.971257,
6.626847,-7.030287,6.100000,-7.050000,5.573153,-7.030287,5.049252,-6.971257,4.531227,-6.873242,4.021976,-6.736788,3.524346,-6.562660,3.041120,-6.351831,2.575000,-6.105479,2.128594,-5.824983,1.704397,-5.511912,1.304782,-5.168016,0.931984,-4.795218,0.588088,-4.395603,0.275017,-3.971406,-0.005479,-3.525000,-0.251831,-3.058880,-0.462660,-2.575654,-0.636788,-2.078024,-0.773242,-1.568773,
-0.871257,-1.050748,-0.930287,-0.526847,-0.950000,0.000000,0.945094,0.000000,0.964710,-0.449280,1.023409,-0.895140,1.120743,-1.334188,1.255973,-1.763082,1.428069,-2.178557,1.635720,-2.577453,1.877348,-2.956733,2.151113,-3.313510,2.454931,-3.645069,2.786490,-3.948887,3.143267,-4.222652,3.522547,-4.464280,3.921443,-4.671931,4.336918,-4.844027,4.765812,-4.979257,5.204860,-5.076591,
5.650720,-5.135290,6.100000,-5.154906,6.549280,-5.135290,6.995140,-5.076591,7.434188,-4.979257,7.863082,-4.844027,8.278557,-4.671931,8.677453,-4.464280,9.056733,-4.222652,9.413510,-3.948887,9.745069,-3.645069,10.048887,-3.313510,10.322652,-2.956733,10.564280,-2.577453,10.771931,-2.178557,10.944027,-1.763082,11.079257,-1.334188,11.176591,-0.895140,11.235290,-0.449280,11.254906,0.000000,
11.235290,0.449280,11.176591,0.895140,11.079257,1.334188,10.944027,1.763082,10.771931,2.178557,10.564280,2.577453,10.322652,2.956733,10.048887,3.313510,9.745069,3.645069,9.413510,3.948887,9.056733,4.222652,8.677453,4.464280,8.278557,4.671931,7.863082,4.844027,7.434188,4.979257,6.995140,5.076591,6.549280,5.135290,6.100000,5.154906,5.650720,5.135290,5.204860,5.076591,
4.765812,4.979257,4.336918,4.844027,3.921443,4.671931,3.522547,4.464280,3.143267,4.222652,2.786490,3.948887,2.454931,3.645069,2.151113,3.313510,1.877348,2.956733,1.635720,2.577453,1.428069,2.178557,1.255973,1.763082,1.120743,1.334188,1.023409,0.895140,0.964710,0.449280,0.945094,0.000000,-0.950000,0.000000,-0.930287,0.526847,-0.871257,1.050748,-0.773242,1.568773,
-0.636788,2.078024,-0.462660,2.575654,-0.251831,3.058880,-0.005479,3.525000,0.275017,3.971406,0.588088,4.395603,0.931984,4.795218,1.304782,5.168016,1.704397,5.511912,2.128594,5.824983,2.575000,6.105479,3.041120,6.351831,3.524346,6.562660,4.021976,6.736788,4.531227,6.873242,5.049252,6.971257,5.573153,7.030287,6.100000,7.050000,6.626847,7.030287,6.626847,7.030287,
$1*%
%AMFreePoly2*
4,1,137,5.198598,5.455452,5.658736,5.376554,6.110525,5.258917,6.550711,5.103390,6.976121,4.911092,7.383690,4.683410,7.770482,4.421984,8.133711,4.128698,8.470759,3.805664,8.779197,3.455210,9.056803,3.079861,9.301578,2.682322,9.511757,2.265457,9.685826,1.832269,9.822531,1.385879,9.920888,0.929505,9.980186,0.466433,10.000000,0.000000,9.980186,-0.466433,9.920888,-0.929505,
9.822531,-1.385879,9.685826,-1.832269,9.511757,-2.265457,9.301578,-2.682322,9.056803,-3.079861,8.779197,-3.455210,8.470759,-3.805664,8.133711,-4.128698,7.770482,-4.421984,7.383690,-4.683410,6.976121,-4.911092,6.550711,-5.103390,6.110525,-5.258917,5.658736,-5.376554,5.198598,-5.455452,4.733427,-5.495044,4.266573,-5.495044,3.801402,-5.455452,3.341264,-5.376554,2.889475,-5.258917,
2.449289,-5.103390,2.023879,-4.911092,1.616310,-4.683410,1.229518,-4.421984,0.866289,-4.128698,0.529241,-3.805664,0.220803,-3.455210,-0.056803,-3.079861,-0.301578,-2.682322,-0.511757,-2.265457,-0.685826,-1.832269,-0.822531,-1.385879,-0.920888,-0.929505,-0.980186,-0.466433,-1.000000,0.000000,0.995197,0.000000,1.014397,-0.366352,1.071785,-0.728690,1.166734,-1.083044,1.298203,-1.425532,
1.464752,-1.752402,1.664555,-2.060072,1.895424,-2.345171,2.154829,-2.604576,2.439928,-2.835445,2.747598,-3.035248,3.074468,-3.201797,3.416956,-3.333266,3.771310,-3.428215,4.133648,-3.485603,4.500000,-3.504803,4.866352,-3.485603,5.228690,-3.428215,5.583044,-3.333266,5.925532,-3.201797,6.252402,-3.035248,6.560072,-2.835445,6.845171,-2.604576,7.104576,-2.345171,7.335445,-2.060072,
7.535248,-1.752402,7.701797,-1.425532,7.833266,-1.083044,7.928215,-0.728690,7.985603,-0.366352,8.004803,0.000000,7.985603,0.366352,7.928215,0.728690,7.833266,1.083044,7.701797,1.425532,7.535248,1.752401,7.335445,2.060072,7.104576,2.345171,6.845171,2.604576,6.560072,2.835445,6.252402,3.035248,5.925532,3.201797,5.583044,3.333266,5.228690,3.428215,4.866352,3.485603,
4.500000,3.504803,4.133648,3.485603,3.771310,3.428215,3.416956,3.333266,3.074468,3.201797,2.747599,3.035248,2.439928,2.835445,2.154829,2.604576,1.895424,2.345171,1.664555,2.060072,1.464752,1.752401,1.298203,1.425532,1.166734,1.083044,1.071785,0.728690,1.014397,0.366352,0.995197,0.000000,-1.000000,0.000000,-0.980186,0.466433,-0.920888,0.929505,-0.822531,1.385879,
-0.685826,1.832269,-0.511757,2.265457,-0.301578,2.682322,-0.056803,3.079861,0.220803,3.455210,0.529241,3.805664,0.866289,4.128698,1.229518,4.421984,1.616310,4.683410,2.023879,4.911092,2.449289,5.103390,2.889475,5.258917,3.341264,5.376554,3.801402,5.455452,4.266573,5.495044,4.733427,5.495044,5.198598,5.455452,5.198598,5.455452,$1*%
G04 Aperture macros list end*
%TA.AperFunction,ComponentPad*%
%ADD10C,4.500000*%
%TD*%
%TA.AperFunction,ComponentPad*%
%ADD11C,5.400000*%
%TD*%
%TA.AperFunction,SMDPad,CuDef*%
%ADD12FreePoly0,0.000000*%
%TD*%
%TA.AperFunction,ComponentPad*%
%ADD13C,0.800000*%
%TD*%
%TA.AperFunction,SMDPad,CuDef*%
%ADD14FreePoly1,0.000000*%
%TD*%
%TA.AperFunction,SMDPad,CuDef*%
%ADD15FreePoly2,0.000000*%
%TD*%
%TA.AperFunction,ComponentPad*%
%ADD16O,6.800000X4.000000*%
%TD*%
G04 APERTURE END LIST*
D10*
%TO.P,H8,1,1*%
%TO.N,GND*%
X144000000Y-83000000D03*
%TD*%
%TO.P,H13,1,1*%
%TO.N,GND*%
X56000000Y-162000000D03*
%TD*%
%TO.P,H3,1,1*%
%TO.N,GND*%
X56000000Y-83000000D03*
%TD*%
D11*
%TO.P,H20,1,1*%
%TO.N,GND*%
X124880000Y-25800000D03*
%TD*%
%TO.P,H19,1,1*%
%TO.N,GND*%
X124880000Y-74030000D03*
%TD*%
D12*
%TO.P,H4,1*%
%TO.N,GND*%
X54800000Y-175000000D03*
D13*
X54800000Y-175000000D03*
X57100000Y-169600000D03*
X57100000Y-180400000D03*
X62500000Y-167300000D03*
X62500000Y-182700000D03*
X67800000Y-180500000D03*
X67900000Y-169600000D03*
X70200000Y-175000000D03*
%TD*%
D14*
%TO.P,H9,1*%
%TO.N,GND*%
X103900000Y-175000000D03*
D13*
X103900000Y-175000000D03*
X105700000Y-170700000D03*
X105700000Y-179300000D03*
X110000000Y-168900000D03*
X110000000Y-181100000D03*
X114200000Y-179400000D03*
X114300000Y-170700000D03*
X116100000Y-175000000D03*
%TD*%
D11*
%TO.P,H18,1,1*%
%TO.N,GND*%
X69000000Y-74030000D03*
%TD*%
D15*
%TO.P,H5,1*%
%TO.N,GND*%
X82750000Y-175000000D03*
D13*
X82750000Y-175000000D03*
X84050000Y-171800000D03*
X84050000Y-178200000D03*
X87250000Y-170500000D03*
X87250000Y-179500000D03*
X90350000Y-178300000D03*
X90450000Y-171800000D03*
X91750000Y-175000000D03*
%TD*%
D16*
%TO.P,H23,1*%
%TO.N,GND*%
X54399999Y-2999999D03*
X54399999Y-196999999D03*
%TD*%
D11*
%TO.P,H21,1,1*%
%TO.N,GND*%
X69000000Y-25800000D03*
%TD*%
D14*
%TO.P,H14,1*%
%TO.N,GND*%
X131400000Y-175000000D03*
D13*
X131400000Y-175000000D03*
X133200000Y-170700000D03*
X133200000Y-179300000D03*
X137500000Y-168900000D03*
X137500000Y-181100000D03*
X141700000Y-179400000D03*
X141800000Y-170700000D03*
X143600000Y-175000000D03*
%TD*%
D10*
%TO.P,H17,1,1*%
%TO.N,GND*%
X144000000Y-162000000D03*
%TD*%
D16*
%TO.P,H24,1*%
%TO.N,GND*%
X145599999Y-196999999D03*
X145599999Y-2999999D03*
%TD*%
D15*
%TO.P,H10,1*%
%TO.N,GND*%
X53000000Y-50000000D03*
D13*
X53000000Y-50000000D03*
X54300000Y-46800000D03*
X54300000Y-53200000D03*
X57500000Y-45500000D03*
X57500000Y-54500000D03*
X60600000Y-53300000D03*
X60700000Y-46800000D03*
X62000000Y-50000000D03*
%TD*%
%TA.AperFunction,Conductor*%
%TO.N,GND*%
G36*
X149886500Y-67381D02*
G01*
X149932619Y-113500D01*
X149949500Y-176500D01*
X149949500Y-199823500D01*
X149932619Y-199886500D01*
X149886500Y-199932619D01*
X149823500Y-199949500D01*
X50176500Y-199949500D01*
X50113500Y-199932619D01*
X50067381Y-199886500D01*
X50050500Y-199823500D01*
X50050500Y-183497497D01*
X62065652Y-183497497D01*
X62074820Y-183504628D01*
X62211841Y-183565634D01*
X62224319Y-183569688D01*
X62398107Y-183606627D01*
X62411168Y-183608000D01*
X62588832Y-183608000D01*
X62601892Y-183606627D01*
X62775680Y-183569688D01*
X62788158Y-183565634D01*
X62925177Y-183504628D01*
X62934346Y-183497497D01*
X62928341Y-183487551D01*
X62511729Y-183070939D01*
X62499999Y-183064167D01*
X62488271Y-183070938D01*
X62071657Y-183487551D01*
X62065652Y-183497497D01*
X50050500Y-183497497D01*
X50050500Y-182706565D01*
X61587688Y-182706565D01*
X61606259Y-182883260D01*
X61608988Y-182896101D01*
X61663888Y-183065066D01*
X61669235Y-183077074D01*
X61696570Y-183124419D01*
X61704372Y-183132750D01*
X61714065Y-183126723D01*
X62129059Y-182711730D01*
X62135832Y-182699999D01*
X62864167Y-182699999D01*
X62870939Y-182711729D01*
X63285929Y-183126719D01*
X63295626Y-183132749D01*
X63303429Y-183124418D01*
X63330770Y-183077064D01*
X63336108Y-183065074D01*
X63391011Y-182896101D01*
X63393740Y-182883260D01*
X63412312Y-182706565D01*
X63412312Y-182693435D01*
X63393740Y-182516739D01*
X63391011Y-182503898D01*
X63336111Y-182334933D01*
X63330764Y-182322926D01*
X63303429Y-182275579D01*
X63295626Y-182267248D01*
X63285932Y-182273276D01*
X62870938Y-182688271D01*
X62864167Y-182699999D01*
X62135832Y-182699999D01*
X62129060Y-182688270D01*
X61714067Y-182273277D01*
X61704372Y-182267248D01*
X61696570Y-182275578D01*
X61669234Y-182322927D01*
X61663889Y-182334933D01*
X61608988Y-182503898D01*
X61606259Y-182516739D01*
X61587688Y-182693435D01*
X61587688Y-182706565D01*
X50050500Y-182706565D01*
X50050500Y-181197497D01*
X56665652Y-181197497D01*
X56674820Y-181204628D01*
X56811841Y-181265634D01*
X56824319Y-181269688D01*
X56998107Y-181306627D01*
X57011168Y-181308000D01*
X57188832Y-181308000D01*
X57201892Y-181306627D01*
X57375680Y-181269688D01*
X57388158Y-181265634D01*
X57525177Y-181204628D01*
X57534346Y-181197497D01*
X57528341Y-181187551D01*
X57111729Y-180770939D01*
X57099999Y-180764167D01*
X57088271Y-180770938D01*
X56671657Y-181187551D01*
X56665652Y-181197497D01*
X50050500Y-181197497D01*
X50050500Y-180406565D01*
X56187688Y-180406565D01*
X56206259Y-180583260D01*
X56208988Y-180596101D01*
X56263888Y-180765066D01*
X56269235Y-180777074D01*
X56296570Y-180824419D01*
X56304372Y-180832750D01*
X56314065Y-180826723D01*
X56729059Y-180411730D01*
X56735832Y-180399999D01*
X56729060Y-180388270D01*
X56314067Y-179973277D01*
X56304372Y-179967248D01*
X56296570Y-179975578D01*
X56269234Y-180022927D01*
X56263889Y-180034933D01*
X56208988Y-180203898D01*
X56206259Y-180216739D01*
X56187688Y-180393435D01*
X56187688Y-180406565D01*
X50050500Y-180406565D01*
X50050500Y-175797497D01*
X54365652Y-175797497D01*
X54374820Y-175804628D01*
X54511841Y-175865634D01*
X54524319Y-175869688D01*
X54698107Y-175906627D01*
X54711168Y-175908000D01*
X54888832Y-175908000D01*
X54901892Y-175906627D01*
X55075680Y-175869688D01*
X55088158Y-175865634D01*
X55225177Y-175804628D01*
X55234346Y-175797497D01*
X55228341Y-175787551D01*
X54811729Y-175370939D01*
X54799999Y-175364167D01*
X54788271Y-175370938D01*
X54371657Y-175787551D01*
X54365652Y-175797497D01*
X50050500Y-175797497D01*
X50050500Y-175006565D01*
X53887688Y-175006565D01*
X53906259Y-175183260D01*
X53908988Y-175196101D01*
X53963888Y-175365066D01*
X53969235Y-175377074D01*
X53996570Y-175424419D01*
X54004372Y-175432750D01*
X54014065Y-175426723D01*
X54429059Y-175011730D01*
X54435832Y-174999999D01*
X55164167Y-174999999D01*
X55170939Y-175011729D01*
X55585929Y-175426719D01*
X55595626Y-175432749D01*
X55603429Y-175424418D01*
X55630770Y-175377064D01*
X55636108Y-175365074D01*
X55691011Y-175196101D01*
X55693740Y-175183260D01*
X55698847Y-175134674D01*
X55720472Y-175076250D01*
X55767444Y-175035328D01*
X55828279Y-175021910D01*
X55888106Y-175039277D01*
X55932301Y-175083184D01*
X55950060Y-175142896D01*
X55964557Y-175511871D01*
X55964558Y-175511893D01*
X55964655Y-175514343D01*
X55964944Y-175516787D01*
X55964945Y-175516796D01*
X56024865Y-176023063D01*
X56024868Y-176023082D01*
X56025156Y-176025515D01*
X56025635Y-176027927D01*
X56025638Y-176027941D01*
X56101416Y-176408905D01*
X56125576Y-176530364D01*
X56126247Y-176532746D01*
X56126249Y-176532751D01*
X56236224Y-176922693D01*
X56265298Y-177025778D01*
X56266152Y-177028094D01*
X56266156Y-177028105D01*
X56441171Y-177502502D01*
X56443458Y-177508702D01*
X56457506Y-177539175D01*
X56639953Y-177934933D01*
X56658959Y-177976159D01*
X56660162Y-177978307D01*
X56809367Y-178244734D01*
X56910471Y-178425268D01*
X57196445Y-178853258D01*
X57197972Y-178855195D01*
X57197980Y-178855206D01*
X57369894Y-179073277D01*
X57515118Y-179257492D01*
X57516795Y-179259306D01*
X57516800Y-179259312D01*
X57623121Y-179374329D01*
X57654110Y-179434953D01*
X57649035Y-179502849D01*
X57609377Y-179558192D01*
X57546716Y-179584823D01*
X57479348Y-179574965D01*
X57388163Y-179534367D01*
X57375680Y-179530311D01*
X57201892Y-179493372D01*
X57188832Y-179492000D01*
X57011168Y-179492000D01*
X56998107Y-179493372D01*
X56824326Y-179530310D01*
X56811833Y-179534369D01*
X56674823Y-179595369D01*
X56665652Y-179602502D01*
X56671657Y-179612447D01*
X57885929Y-180826719D01*
X57895626Y-180832749D01*
X57903429Y-180824418D01*
X57930770Y-180777064D01*
X57936108Y-180765074D01*
X57991011Y-180596101D01*
X57993740Y-180583260D01*
X58012312Y-180406565D01*
X58012312Y-180393435D01*
X57993740Y-180216739D01*
X57991011Y-180203898D01*
X57936109Y-180034929D01*
X57933054Y-180028067D01*
X57923194Y-179960699D01*
X57949823Y-179898036D01*
X58005166Y-179858377D01*
X58073063Y-179853301D01*
X58133688Y-179884290D01*
X58229953Y-179973277D01*
X58242508Y-179984882D01*
X58440276Y-180140790D01*
X58644793Y-180302019D01*
X58644800Y-180302024D01*
X58646742Y-180303555D01*
X59074732Y-180589529D01*
X59523841Y-180841041D01*
X59991298Y-181056542D01*
X60474222Y-181234702D01*
X60969636Y-181374424D01*
X61474485Y-181474844D01*
X61985657Y-181535345D01*
X62351078Y-181549702D01*
X62408891Y-181566349D01*
X62452396Y-181607905D01*
X62471673Y-181664897D01*
X62462326Y-181724331D01*
X62426487Y-181772655D01*
X62372326Y-181798852D01*
X62224324Y-181830310D01*
X62211833Y-181834369D01*
X62074823Y-181895369D01*
X62065652Y-181902502D01*
X62071657Y-181912447D01*
X62488270Y-182329060D01*
X62499999Y-182335832D01*
X62511730Y-182329059D01*
X62928343Y-181912445D01*
X62934347Y-181902502D01*
X62925178Y-181895370D01*
X62788159Y-181834366D01*
X62775681Y-181830311D01*
X62627673Y-181798852D01*
X62573512Y-181772655D01*
X62537673Y-181724331D01*
X62528326Y-181664897D01*
X62547603Y-181607905D01*
X62591108Y-181566349D01*
X62648920Y-181549702D01*
X63014343Y-181535345D01*
X63525515Y-181474844D01*
X64030364Y-181374424D01*
X64303125Y-181297497D01*
X67365652Y-181297497D01*
X67374820Y-181304628D01*
X67511841Y-181365634D01*
X67524319Y-181369688D01*
X67698107Y-181406627D01*
X67711168Y-181408000D01*
X67888832Y-181408000D01*
X67901892Y-181406627D01*
X68075680Y-181369688D01*
X68088158Y-181365634D01*
X68225177Y-181304628D01*
X68234346Y-181297497D01*
X68228341Y-181287551D01*
X67811729Y-180870939D01*
X67799999Y-180864167D01*
X67788271Y-180870938D01*
X67371657Y-181287551D01*
X67365652Y-181297497D01*
X64303125Y-181297497D01*
X64525778Y-181234702D01*
X65008702Y-181056542D01*
X65476159Y-180841041D01*
X65925268Y-180589529D01*
X66353258Y-180303555D01*
X66757492Y-179984882D01*
X66759326Y-179983187D01*
X66772508Y-179971002D01*
X66835721Y-179939517D01*
X66905945Y-179946988D01*
X66961120Y-179991067D01*
X66983913Y-180057908D01*
X66969747Y-180115931D01*
X66971919Y-180116898D01*
X66963888Y-180134933D01*
X66908988Y-180303898D01*
X66906259Y-180316739D01*
X66887688Y-180493435D01*
X66887688Y-180506565D01*
X66906259Y-180683260D01*
X66908988Y-180696101D01*
X66963888Y-180865066D01*
X66969235Y-180877074D01*
X66996570Y-180924419D01*
X67004372Y-180932750D01*
X67014065Y-180926723D01*
X67440790Y-180499999D01*
X68164167Y-180499999D01*
X68170939Y-180511729D01*
X68585929Y-180926719D01*
X68595626Y-180932749D01*
X68603429Y-180924418D01*
X68630770Y-180877064D01*
X68636108Y-180865074D01*
X68691011Y-180696101D01*
X68693740Y-180683260D01*
X68712312Y-180506565D01*
X68712312Y-180493435D01*
X68693740Y-180316739D01*
X68691011Y-180303898D01*
X68688931Y-180297497D01*
X86815652Y-180297497D01*
X86824820Y-180304628D01*
X86961841Y-180365634D01*
X86974319Y-180369688D01*
X87148107Y-180406627D01*
X87161168Y-180408000D01*
X87338832Y-180408000D01*
X87351892Y-180406627D01*
X87525680Y-180369688D01*
X87538158Y-180365634D01*
X87675177Y-180304628D01*
X87684346Y-180297497D01*
X87678341Y-180287551D01*
X87261729Y-179870939D01*
X87249999Y-179864167D01*
X87238271Y-179870938D01*
X86821657Y-180287551D01*
X86815652Y-180297497D01*
X68688931Y-180297497D01*
X68636111Y-180134933D01*
X68630764Y-180122926D01*
X68603429Y-180075579D01*
X68595626Y-180067248D01*
X68585932Y-180073276D01*
X68170938Y-180488271D01*
X68164167Y-180499999D01*
X67440790Y-180499999D01*
X67800000Y-180140790D01*
X67800000Y-180140791D01*
X67800001Y-180140790D01*
X67800000Y-180140790D01*
X68228343Y-179712445D01*
X68234347Y-179702502D01*
X68225178Y-179695370D01*
X68088159Y-179634366D01*
X68075680Y-179630311D01*
X67901892Y-179593372D01*
X67888832Y-179592000D01*
X67711168Y-179592000D01*
X67698107Y-179593372D01*
X67524319Y-179630311D01*
X67511832Y-179634368D01*
X67433499Y-179669244D01*
X67366132Y-179679102D01*
X67303471Y-179652471D01*
X67263813Y-179597127D01*
X67258738Y-179529232D01*
X67270325Y-179506565D01*
X86337688Y-179506565D01*
X86356259Y-179683260D01*
X86358988Y-179696101D01*
X86413888Y-179865066D01*
X86419235Y-179877074D01*
X86446570Y-179924419D01*
X86454372Y-179932750D01*
X86464065Y-179926723D01*
X86879059Y-179511730D01*
X86885832Y-179499999D01*
X87614167Y-179499999D01*
X87620939Y-179511729D01*
X88035929Y-179926719D01*
X88045626Y-179932749D01*
X88053429Y-179924418D01*
X88080770Y-179877064D01*
X88086108Y-179865074D01*
X88141011Y-179696101D01*
X88143740Y-179683260D01*
X88162312Y-179506565D01*
X88162312Y-179493435D01*
X88143740Y-179316739D01*
X88141011Y-179303898D01*
X88086111Y-179134933D01*
X88080764Y-179122926D01*
X88066083Y-179097497D01*
X89915652Y-179097497D01*
X89924820Y-179104628D01*
X90061841Y-179165634D01*
X90074319Y-179169688D01*
X90248107Y-179206627D01*
X90261168Y-179208000D01*
X90438832Y-179208000D01*
X90451892Y-179206627D01*
X90625680Y-179169688D01*
X90638158Y-179165634D01*
X90775177Y-179104628D01*
X90784346Y-179097497D01*
X90778341Y-179087551D01*
X90361729Y-178670939D01*
X90349999Y-178664167D01*
X90338271Y-178670938D01*
X89921657Y-179087551D01*
X89915652Y-179097497D01*
X88066083Y-179097497D01*
X88053429Y-179075579D01*
X88045626Y-179067248D01*
X88035932Y-179073276D01*
X87620938Y-179488271D01*
X87614167Y-179499999D01*
X86885832Y-179499999D01*
X86879060Y-179488270D01*
X86464067Y-179073277D01*
X86454372Y-179067248D01*
X86446570Y-179075578D01*
X86419234Y-179122927D01*
X86413889Y-179134933D01*
X86358988Y-179303898D01*
X86356259Y-179316739D01*
X86337688Y-179493435D01*
X86337688Y-179506565D01*
X67270325Y-179506565D01*
X67289727Y-179468609D01*
X67484882Y-179257492D01*
X67689846Y-178997497D01*
X83615652Y-178997497D01*
X83624820Y-179004628D01*
X83761841Y-179065634D01*
X83774319Y-179069688D01*
X83948107Y-179106627D01*
X83961168Y-179108000D01*
X84138832Y-179108000D01*
X84151892Y-179106627D01*
X84325680Y-179069688D01*
X84338158Y-179065634D01*
X84475177Y-179004628D01*
X84484346Y-178997497D01*
X84478341Y-178987551D01*
X84061729Y-178570939D01*
X84049999Y-178564167D01*
X84038271Y-178570938D01*
X83621657Y-178987551D01*
X83615652Y-178997497D01*
X67689846Y-178997497D01*
X67803555Y-178853258D01*
X68089529Y-178425268D01*
X68212008Y-178206565D01*
X83137688Y-178206565D01*
X83156259Y-178383260D01*
X83158988Y-178396101D01*
X83213888Y-178565066D01*
X83219235Y-178577074D01*
X83246570Y-178624419D01*
X83254372Y-178632750D01*
X83264065Y-178626723D01*
X83679059Y-178211730D01*
X83685832Y-178199999D01*
X84414167Y-178199999D01*
X84420939Y-178211729D01*
X84835929Y-178626719D01*
X84845626Y-178632749D01*
X84853429Y-178624418D01*
X84880770Y-178577064D01*
X84886108Y-178565074D01*
X84941011Y-178396101D01*
X84943740Y-178383260D01*
X84962312Y-178206565D01*
X84962312Y-178193435D01*
X84943740Y-178016739D01*
X84941011Y-178003898D01*
X84886111Y-177834933D01*
X84880764Y-177822926D01*
X84853429Y-177775579D01*
X84845626Y-177767248D01*
X84835932Y-177773276D01*
X84420938Y-178188271D01*
X84414167Y-178199999D01*
X83685832Y-178199999D01*
X83679060Y-178188270D01*
X83264067Y-177773277D01*
X83254372Y-177767248D01*
X83246570Y-177775578D01*
X83219234Y-177822927D01*
X83213889Y-177834933D01*
X83158988Y-178003898D01*
X83156259Y-178016739D01*
X83137688Y-178193435D01*
X83137688Y-178206565D01*
X68212008Y-178206565D01*
X68341041Y-177976159D01*
X68556542Y-177508702D01*
X68595721Y-177402502D01*
X83615652Y-177402502D01*
X83621657Y-177412447D01*
X84038270Y-177829060D01*
X84049999Y-177835832D01*
X84061730Y-177829059D01*
X84478343Y-177412445D01*
X84484347Y-177402502D01*
X84475178Y-177395370D01*
X84338159Y-177334366D01*
X84325680Y-177330311D01*
X84151892Y-177293372D01*
X84138832Y-177292000D01*
X83961168Y-177292000D01*
X83948107Y-177293372D01*
X83774326Y-177330310D01*
X83761833Y-177334369D01*
X83624823Y-177395369D01*
X83615652Y-177402502D01*
X68595721Y-177402502D01*
X68734702Y-177025778D01*
X68874424Y-176530364D01*
X68974844Y-176025515D01*
X69001832Y-175797497D01*
X69765652Y-175797497D01*
X69774820Y-175804628D01*
X69911841Y-175865634D01*
X69924319Y-175869688D01*
X70098107Y-175906627D01*
X70111168Y-175908000D01*
X70288832Y-175908000D01*
X70301892Y-175906627D01*
X70475680Y-175869688D01*
X70488158Y-175865634D01*
X70625177Y-175804628D01*
X70634346Y-175797497D01*
X82315652Y-175797497D01*
X82324820Y-175804628D01*
X82461841Y-175865634D01*
X82474319Y-175869688D01*
X82648107Y-175906627D01*
X82661168Y-175908000D01*
X82838832Y-175908000D01*
X82851892Y-175906627D01*
X83025680Y-175869688D01*
X83038158Y-175865634D01*
X83175177Y-175804628D01*
X83184346Y-175797497D01*
X83178341Y-175787551D01*
X82761729Y-175370939D01*
X82749999Y-175364167D01*
X82738271Y-175370938D01*
X82321657Y-175787551D01*
X82315652Y-175797497D01*
X70634346Y-175797497D01*
X70628341Y-175787551D01*
X70211729Y-175370939D01*
X70199999Y-175364167D01*
X70188271Y-175370938D01*
X69771657Y-175787551D01*
X69765652Y-175797497D01*
X69001832Y-175797497D01*
X69035345Y-175514343D01*
X69049939Y-175142894D01*
X69067697Y-175083184D01*
X69111892Y-175039278D01*
X69171719Y-175021910D01*
X69232554Y-175035327D01*
X69279526Y-175076249D01*
X69301152Y-175134672D01*
X69306259Y-175183261D01*
X69308988Y-175196101D01*
X69363888Y-175365066D01*
X69369235Y-175377074D01*
X69396570Y-175424419D01*
X69404372Y-175432750D01*
X69414065Y-175426723D01*
X69829059Y-175011730D01*
X69835832Y-174999999D01*
X70564167Y-174999999D01*
X70570939Y-175011729D01*
X70985929Y-175426719D01*
X70995626Y-175432749D01*
X71003429Y-175424418D01*
X71030770Y-175377064D01*
X71036108Y-175365074D01*
X71091011Y-175196101D01*
X71093740Y-175183260D01*
X71112312Y-175006565D01*
X81837688Y-175006565D01*
X81856259Y-175183260D01*
X81858988Y-175196101D01*
X81913888Y-175365066D01*
X81919235Y-175377074D01*
X81946570Y-175424419D01*
X81954372Y-175432750D01*
X81964065Y-175426723D01*
X82379059Y-175011730D01*
X82385832Y-174999999D01*
X83114167Y-174999999D01*
X83120939Y-175011729D01*
X83535929Y-175426719D01*
X83545626Y-175432749D01*
X83553429Y-175424418D01*
X83580770Y-175377064D01*
X83586108Y-175365074D01*
X83641011Y-175196101D01*
X83643740Y-175183260D01*
X83650333Y-175120535D01*
X83671781Y-175062369D01*
X83718372Y-175021472D01*
X83778827Y-175007744D01*
X83838511Y-175024509D01*
X83882976Y-175067707D01*
X83901458Y-175126882D01*
X83904515Y-175183260D01*
X83914249Y-175362785D01*
X83914799Y-175366139D01*
X83914800Y-175366149D01*
X83972474Y-175717947D01*
X83972476Y-175717959D01*
X83973027Y-175721316D01*
X83973935Y-175724588D01*
X83973939Y-175724604D01*
X84069312Y-176068104D01*
X84070225Y-176071391D01*
X84071483Y-176074549D01*
X84071487Y-176074560D01*
X84203440Y-176405738D01*
X84204702Y-176408905D01*
X84206295Y-176411911D01*
X84206298Y-176411916D01*
X84270361Y-176532751D01*
X84374883Y-176729900D01*
X84376793Y-176732717D01*
X84376796Y-176732722D01*
X84576855Y-177027786D01*
X84576860Y-177027792D01*
X84578773Y-177030614D01*
X84580981Y-177033213D01*
X84580986Y-177033220D01*
X84800795Y-177292000D01*
X84813979Y-177307521D01*
X84816448Y-177309860D01*
X84816454Y-177309866D01*
X85003774Y-177487305D01*
X85077746Y-177557375D01*
X85366981Y-177777245D01*
X85678292Y-177964555D01*
X86008031Y-178117108D01*
X86352330Y-178233116D01*
X86707153Y-178311218D01*
X87068341Y-178350500D01*
X87071756Y-178350500D01*
X87091921Y-178350500D01*
X87151074Y-178365249D01*
X87196380Y-178406042D01*
X87217231Y-178463330D01*
X87208746Y-178523701D01*
X87172912Y-178573022D01*
X87118117Y-178599747D01*
X86974326Y-178630310D01*
X86961833Y-178634369D01*
X86824823Y-178695369D01*
X86815652Y-178702502D01*
X86821657Y-178712447D01*
X87238270Y-179129060D01*
X87249999Y-179135832D01*
X87261730Y-179129059D01*
X87678343Y-178712445D01*
X87684347Y-178702502D01*
X87675178Y-178695370D01*
X87538159Y-178634366D01*
X87525680Y-178630311D01*
X87381883Y-178599747D01*
X87327088Y-178573022D01*
X87291254Y-178523701D01*
X87282769Y-178463330D01*
X87303620Y-178406042D01*
X87348926Y-178365249D01*
X87408079Y-178350500D01*
X87428244Y-178350500D01*
X87431659Y-178350500D01*
X87792847Y-178311218D01*
X87813986Y-178306565D01*
X89437688Y-178306565D01*
X89456259Y-178483260D01*
X89458988Y-178496101D01*
X89513888Y-178665066D01*
X89519235Y-178677074D01*
X89546570Y-178724419D01*
X89554372Y-178732750D01*
X89564065Y-178726723D01*
X89979059Y-178311730D01*
X89985832Y-178299999D01*
X90714167Y-178299999D01*
X90720939Y-178311729D01*
X91135929Y-178726719D01*
X91145626Y-178732749D01*
X91153429Y-178724418D01*
X91180770Y-178677064D01*
X91186108Y-178665074D01*
X91241011Y-178496101D01*
X91243740Y-178483260D01*
X91262312Y-178306565D01*
X91262312Y-178293435D01*
X91243740Y-178116739D01*
X91241011Y-178103898D01*
X91186111Y-177934933D01*
X91180764Y-177922926D01*
X91153429Y-177875579D01*
X91145626Y-177867248D01*
X91135932Y-177873276D01*
X90720938Y-178288271D01*
X90714167Y-178299999D01*
X89985832Y-178299999D01*
X89979060Y-178288270D01*
X89564067Y-177873277D01*
X89554372Y-177867248D01*
X89546570Y-177875578D01*
X89519234Y-177922927D01*
X89513889Y-177934933D01*
X89458988Y-178103898D01*
X89456259Y-178116739D01*
X89437688Y-178293435D01*
X89437688Y-178306565D01*
X87813986Y-178306565D01*
X88147670Y-178233116D01*
X88491969Y-178117108D01*
X88821708Y-177964555D01*
X89133019Y-177777245D01*
X89422254Y-177557375D01*
X89480183Y-177502502D01*
X89915652Y-177502502D01*
X89921657Y-177512447D01*
X90338270Y-177929060D01*
X90349999Y-177935832D01*
X90361730Y-177929059D01*
X90778343Y-177512445D01*
X90784347Y-177502502D01*
X90775178Y-177495370D01*
X90638159Y-177434366D01*
X90625680Y-177430311D01*
X90451892Y-177393372D01*
X90438832Y-177392000D01*
X90261168Y-177392000D01*
X90248107Y-177393372D01*
X90074326Y-177430310D01*
X90061833Y-177434369D01*
X89924823Y-177495369D01*
X89915652Y-177502502D01*
X89480183Y-177502502D01*
X89686021Y-177307521D01*
X89921227Y-177030614D01*
X90125117Y-176729900D01*
X90295298Y-176408905D01*
X90429775Y-176071391D01*
X90505821Y-175797497D01*
X91315652Y-175797497D01*
X91324820Y-175804628D01*
X91461841Y-175865634D01*
X91474319Y-175869688D01*
X91648107Y-175906627D01*
X91661168Y-175908000D01*
X91838832Y-175908000D01*
X91851892Y-175906627D01*
X92025680Y-175869688D01*
X92038158Y-175865634D01*
X92175177Y-175804628D01*
X92184346Y-175797497D01*
X92178341Y-175787551D01*
X91761729Y-175370939D01*
X91749999Y-175364167D01*
X91738271Y-175370938D01*
X91321657Y-175787551D01*
X91315652Y-175797497D01*
X90505821Y-175797497D01*
X90526973Y-175721316D01*
X90585751Y-175362785D01*
X90598541Y-175126881D01*
X90617022Y-175067708D01*
X90661487Y-175024509D01*
X90721171Y-175007744D01*
X90781626Y-175021471D01*
X90828217Y-175062368D01*
X90849666Y-175120533D01*
X90856259Y-175183261D01*
X90858988Y-175196101D01*
X90913888Y-175365066D01*
X90919235Y-175377074D01*
X90946570Y-175424419D01*
X90954372Y-175432750D01*
X90964065Y-175426723D01*
X91379059Y-175011730D01*
X91385832Y-174999999D01*
X92114167Y-174999999D01*
X92120939Y-175011729D01*
X92535929Y-175426719D01*
X92545626Y-175432749D01*
X92553429Y-175424418D01*
X92580770Y-175377064D01*
X92586108Y-175365074D01*
X92641011Y-175196101D01*
X92643740Y-175183260D01*
X92662312Y-175006565D01*
X92662312Y-175000000D01*
X105044510Y-175000000D01*
X105044637Y-175002828D01*
X105063673Y-175426723D01*
X105064459Y-175444207D01*
X105073625Y-175511871D01*
X105121545Y-175865634D01*
X105124147Y-175884837D01*
X105223092Y-176318343D01*
X105223958Y-176321010D01*
X105223963Y-176321026D01*
X105356814Y-176729900D01*
X105360497Y-176741234D01*
X105361606Y-176743830D01*
X105361610Y-176743839D01*
X105534140Y-177147492D01*
X105535258Y-177150107D01*
X105536599Y-177152600D01*
X105536601Y-177152603D01*
X105666165Y-177393372D01*
X105745966Y-177541667D01*
X105747519Y-177544020D01*
X105747527Y-177544033D01*
X105949801Y-177850465D01*
X105990924Y-177912764D01*
X106075413Y-178018710D01*
X106266399Y-178258199D01*
X106266405Y-178258206D01*
X106268162Y-178260409D01*
X106270116Y-178262452D01*
X106270118Y-178262455D01*
X106397897Y-178396101D01*
X106575446Y-178581803D01*
X106910303Y-178874358D01*
X106912595Y-178876023D01*
X106912596Y-178876024D01*
X107260870Y-179129060D01*
X107270036Y-179135719D01*
X107272454Y-179137163D01*
X107272456Y-179137165D01*
X107476895Y-179259312D01*
X107651749Y-179363782D01*
X108052368Y-179556711D01*
X108468669Y-179712951D01*
X108897300Y-179831246D01*
X109334808Y-179910642D01*
X109777673Y-179950500D01*
X110219505Y-179950500D01*
X110222327Y-179950500D01*
X110665192Y-179910642D01*
X111102700Y-179831246D01*
X111531331Y-179712951D01*
X111947632Y-179556711D01*
X112348251Y-179363782D01*
X112729964Y-179135719D01*
X113089697Y-178874358D01*
X113424554Y-178581803D01*
X113731838Y-178260409D01*
X114009076Y-177912764D01*
X114254034Y-177541667D01*
X114464742Y-177150107D01*
X114639503Y-176741234D01*
X114776908Y-176318343D01*
X114875853Y-175884837D01*
X114935541Y-175444207D01*
X114955490Y-175000000D01*
X132544510Y-175000000D01*
X132544637Y-175002828D01*
X132563673Y-175426723D01*
X132564459Y-175444207D01*
X132573625Y-175511871D01*
X132621545Y-175865634D01*
X132624147Y-175884837D01*
X132723092Y-176318343D01*
X132723958Y-176321010D01*
X132723963Y-176321026D01*
X132856814Y-176729900D01*
X132860497Y-176741234D01*
X132861606Y-176743830D01*
X132861610Y-176743839D01*
X133034140Y-177147492D01*
X133035258Y-177150107D01*
X133036599Y-177152600D01*
X133036601Y-177152603D01*
X133166165Y-177393372D01*
X133245966Y-177541667D01*
X133247519Y-177544020D01*
X133247527Y-177544033D01*
X133449801Y-177850465D01*
X133490924Y-177912764D01*
X133575413Y-178018710D01*
X133766399Y-178258199D01*
X133766405Y-178258206D01*
X133768162Y-178260409D01*
X133770116Y-178262452D01*
X133770118Y-178262455D01*
X133897897Y-178396101D01*
X134075446Y-178581803D01*
X134410303Y-178874358D01*
X134412595Y-178876023D01*
X134412596Y-178876024D01*
X134760870Y-179129060D01*
X134770036Y-179135719D01*
X134772454Y-179137163D01*
X134772456Y-179137165D01*
X134976895Y-179259312D01*
X135151749Y-179363782D01*
X135552368Y-179556711D01*
X135968669Y-179712951D01*
X136397300Y-179831246D01*
X136834808Y-179910642D01*
X137277673Y-179950500D01*
X137719505Y-179950500D01*
X137722327Y-179950500D01*
X138165192Y-179910642D01*
X138602700Y-179831246D01*
X139031331Y-179712951D01*
X139447632Y-179556711D01*
X139848251Y-179363782D01*
X140229964Y-179135719D01*
X140589697Y-178874358D01*
X140924554Y-178581803D01*
X141231838Y-178260409D01*
X141509076Y-177912764D01*
X141754034Y-177541667D01*
X141964742Y-177150107D01*
X142139503Y-176741234D01*
X142276908Y-176318343D01*
X142375853Y-175884837D01*
X142435541Y-175444207D01*
X142455490Y-175000000D01*
X142435541Y-174555793D01*
X142375853Y-174115163D01*
X142276908Y-173681657D01*
X142261933Y-173635570D01*
X142208808Y-173472066D01*
X142139503Y-173258766D01*
X141964742Y-172849893D01*
X141754034Y-172458333D01*
X141743665Y-172442625D01*
X141550199Y-172149535D01*
X141509076Y-172087236D01*
X141254473Y-171767974D01*
X141233600Y-171741800D01*
X141233595Y-171741795D01*
X141231838Y-171739591D01*
X141183960Y-171689515D01*
X140926509Y-171420242D01*
X140924554Y-171418197D01*
X140589697Y-171125642D01*
X140587403Y-171123975D01*
X140232248Y-170865940D01*
X140232241Y-170865935D01*
X140229964Y-170864281D01*
X140227551Y-170862839D01*
X140227543Y-170862834D01*
X139850669Y-170637662D01*
X139850657Y-170637655D01*
X139848251Y-170636218D01*
X139845716Y-170634997D01*
X139845712Y-170634995D01*
X139450172Y-170444512D01*
X139450168Y-170444510D01*
X139447632Y-170443289D01*
X139444995Y-170442299D01*
X139444992Y-170442298D01*
X139033978Y-170288042D01*
X139033969Y-170288039D01*
X139031331Y-170287049D01*
X138977118Y-170272087D01*
X138605434Y-170169508D01*
X138605422Y-170169505D01*
X138602700Y-170168754D01*
X138599924Y-170168250D01*
X138599910Y-170168247D01*
X138167972Y-170089862D01*
X138167961Y-170089860D01*
X138165192Y-170089358D01*
X138162381Y-170089105D01*
X137725135Y-170049752D01*
X137725119Y-170049751D01*
X137722327Y-170049500D01*
X137277673Y-170049500D01*
X137274881Y-170049751D01*
X137274864Y-170049752D01*
X136837618Y-170089105D01*
X136837615Y-170089105D01*
X136834808Y-170089358D01*
X136832041Y-170089860D01*
X136832027Y-170089862D01*
X136400089Y-170168247D01*
X136400070Y-170168251D01*
X136397300Y-170168754D01*
X136394582Y-170169504D01*
X136394565Y-170169508D01*
X135971400Y-170286295D01*
X135971394Y-170286296D01*
X135968669Y-170287049D01*
X135966037Y-170288036D01*
X135966021Y-170288042D01*
X135555007Y-170442298D01*
X135554996Y-170442302D01*
X135552368Y-170443289D01*
X135549839Y-170444506D01*
X135549827Y-170444512D01*
X135154287Y-170634995D01*
X135154273Y-170635002D01*
X135151749Y-170636218D01*
X135149351Y-170637650D01*
X135149330Y-170637662D01*
X134772456Y-170862834D01*
X134772438Y-170862845D01*
X134770036Y-170864281D01*
X134767768Y-170865928D01*
X134767751Y-170865940D01*
X134412596Y-171123975D01*
X134412581Y-171123986D01*
X134410303Y-171125642D01*
X134408182Y-171127494D01*
X134408167Y-171127507D01*
X134077578Y-171416334D01*
X134075446Y-171418197D01*
X134073499Y-171420233D01*
X134073490Y-171420242D01*
X133770118Y-171737544D01*
X133770105Y-171737557D01*
X133768162Y-171739591D01*
X133766414Y-171741781D01*
X133766399Y-171741800D01*
X133503084Y-172071988D01*
X133490924Y-172087236D01*
X133489371Y-172089587D01*
X133489362Y-172089601D01*
X133247527Y-172455966D01*
X133247513Y-172455988D01*
X133245966Y-172458333D01*
X133244630Y-172460815D01*
X133244625Y-172460824D01*
X133036601Y-172847396D01*
X133036595Y-172847408D01*
X133035258Y-172849893D01*
X133034146Y-172852493D01*
X133034140Y-172852507D01*
X132861610Y-173256160D01*
X132861603Y-173256176D01*
X132860497Y-173258766D01*
X132859626Y-173261444D01*
X132859622Y-173261457D01*
X132723963Y-173678973D01*
X132723956Y-173678995D01*
X132723092Y-173681657D01*
X132722466Y-173684397D01*
X132722465Y-173684403D01*
X132624777Y-174112402D01*
X132624147Y-174115163D01*
X132623768Y-174117955D01*
X132623767Y-174117965D01*
X132602442Y-174275395D01*
X132564459Y-174555793D01*
X132564332Y-174558603D01*
X132564332Y-174558612D01*
X132560649Y-174640620D01*
X132544510Y-175000000D01*
X114955490Y-175000000D01*
X114935541Y-174555793D01*
X114875853Y-174115163D01*
X114776908Y-173681657D01*
X114761933Y-173635570D01*
X114708808Y-173472066D01*
X114639503Y-173258766D01*
X114464742Y-172849893D01*
X114254034Y-172458333D01*
X114243665Y-172442625D01*
X114050199Y-172149535D01*
X114009076Y-172087236D01*
X113754473Y-171767974D01*
X113733600Y-171741800D01*
X113733595Y-171741795D01*
X113731838Y-171739591D01*
X113683960Y-171689515D01*
X113426509Y-171420242D01*
X113424554Y-171418197D01*
X113089697Y-171125642D01*
X113087403Y-171123975D01*
X112732248Y-170865940D01*
X112732241Y-170865935D01*
X112729964Y-170864281D01*
X112727551Y-170862839D01*
X112727543Y-170862834D01*
X112350669Y-170637662D01*
X112350657Y-170637655D01*
X112348251Y-170636218D01*
X112345716Y-170634997D01*
X112345712Y-170634995D01*
X111950172Y-170444512D01*
X111950168Y-170444510D01*
X111947632Y-170443289D01*
X111944995Y-170442299D01*
X111944992Y-170442298D01*
X111533978Y-170288042D01*
X111533969Y-170288039D01*
X111531331Y-170287049D01*
X111477118Y-170272087D01*
X111105434Y-170169508D01*
X111105422Y-170169505D01*
X111102700Y-170168754D01*
X111099924Y-170168250D01*
X111099910Y-170168247D01*
X110667972Y-170089862D01*
X110667961Y-170089860D01*
X110665192Y-170089358D01*
X110662381Y-170089105D01*
X110225135Y-170049752D01*
X110225119Y-170049751D01*
X110222327Y-170049500D01*
X109777673Y-170049500D01*
X109774881Y-170049751D01*
X109774864Y-170049752D01*
X109337618Y-170089105D01*
X109337615Y-170089105D01*
X109334808Y-170089358D01*
X109332041Y-170089860D01*
X109332027Y-170089862D01*
X108900089Y-170168247D01*
X108900070Y-170168251D01*
X108897300Y-170168754D01*
X108894582Y-170169504D01*
X108894565Y-170169508D01*
X108471400Y-170286295D01*
X108471394Y-170286296D01*
X108468669Y-170287049D01*
X108466037Y-170288036D01*
X108466021Y-170288042D01*
X108055007Y-170442298D01*
X108054996Y-170442302D01*
X108052368Y-170443289D01*
X108049839Y-170444506D01*
X108049827Y-170444512D01*
X107654287Y-170634995D01*
X107654273Y-170635002D01*
X107651749Y-170636218D01*
X107649351Y-170637650D01*
X107649330Y-170637662D01*
X107272456Y-170862834D01*
X107272438Y-170862845D01*
X107270036Y-170864281D01*
X107267768Y-170865928D01*
X107267751Y-170865940D01*
X106912596Y-171123975D01*
X106912581Y-171123986D01*
X106910303Y-171125642D01*
X106908182Y-171127494D01*
X106908167Y-171127507D01*
X106577578Y-171416334D01*
X106575446Y-171418197D01*
X106573499Y-171420233D01*
X106573490Y-171420242D01*
X106270118Y-171737544D01*
X106270105Y-171737557D01*
X106268162Y-171739591D01*
X106266414Y-171741781D01*
X106266399Y-171741800D01*
X106003084Y-172071988D01*
X105990924Y-172087236D01*
X105989371Y-172089587D01*
X105989362Y-172089601D01*
X105747527Y-172455966D01*
X105747513Y-172455988D01*
X105745966Y-172458333D01*
X105744630Y-172460815D01*
X105744625Y-172460824D01*
X105536601Y-172847396D01*
X105536595Y-172847408D01*
X105535258Y-172849893D01*
X105534146Y-172852493D01*
X105534140Y-172852507D01*
X105361610Y-173256160D01*
X105361603Y-173256176D01*
X105360497Y-173258766D01*
X105359626Y-173261444D01*
X105359622Y-173261457D01*
X105223963Y-173678973D01*
X105223956Y-173678995D01*
X105223092Y-173681657D01*
X105222466Y-173684397D01*
X105222465Y-173684403D01*
X105124777Y-174112402D01*
X105124147Y-174115163D01*
X105123768Y-174117955D01*
X105123767Y-174117965D01*
X105102442Y-174275395D01*
X105064459Y-174555793D01*
X105064332Y-174558603D01*
X105064332Y-174558612D01*
X105060649Y-174640620D01*
X105044510Y-175000000D01*
X92662312Y-175000000D01*
X92662312Y-174993435D01*
X92643740Y-174816739D01*
X92641011Y-174803898D01*
X92586111Y-174634933D01*
X92580764Y-174622926D01*
X92553429Y-174575579D01*
X92545626Y-174567248D01*
X92535932Y-174573276D01*
X92120938Y-174988271D01*
X92114167Y-174999999D01*
X91385832Y-174999999D01*
X91379060Y-174988270D01*
X90964067Y-174573277D01*
X90954372Y-174567248D01*
X90946570Y-174575578D01*
X90919234Y-174622927D01*
X90913889Y-174634933D01*
X90858988Y-174803898D01*
X90856259Y-174816738D01*
X90849666Y-174879466D01*
X90828217Y-174937631D01*
X90781626Y-174978528D01*
X90721171Y-174992255D01*
X90661487Y-174975490D01*
X90617022Y-174932291D01*
X90598541Y-174873116D01*
X90597673Y-174857103D01*
X90585751Y-174637215D01*
X90526973Y-174278684D01*
X90505821Y-174202502D01*
X91315652Y-174202502D01*
X91321657Y-174212447D01*
X91738270Y-174629060D01*
X91749999Y-174635832D01*
X91761730Y-174629059D01*
X92178343Y-174212445D01*
X92184347Y-174202502D01*
X92175178Y-174195370D01*
X92038159Y-174134366D01*
X92025680Y-174130311D01*
X91851892Y-174093372D01*
X91838832Y-174092000D01*
X91661168Y-174092000D01*
X91648107Y-174093372D01*
X91474326Y-174130310D01*
X91461833Y-174134369D01*
X91324823Y-174195369D01*
X91315652Y-174202502D01*
X90505821Y-174202502D01*
X90429775Y-173928609D01*
X90295298Y-173591095D01*
X90125117Y-173270100D01*
X89921227Y-172969386D01*
X89821949Y-172852507D01*
X89688226Y-172695075D01*
X89686021Y-172692479D01*
X89683550Y-172690138D01*
X89683545Y-172690133D01*
X89585750Y-172597497D01*
X90015652Y-172597497D01*
X90024820Y-172604628D01*
X90161841Y-172665634D01*
X90174319Y-172669688D01*
X90348107Y-172706627D01*
X90361168Y-172708000D01*
X90538832Y-172708000D01*
X90551892Y-172706627D01*
X90725680Y-172669688D01*
X90738158Y-172665634D01*
X90875177Y-172604628D01*
X90884346Y-172597497D01*
X90878341Y-172587551D01*
X90461729Y-172170939D01*
X90449999Y-172164167D01*
X90438271Y-172170938D01*
X90021657Y-172587551D01*
X90015652Y-172597497D01*
X89585750Y-172597497D01*
X89424737Y-172444977D01*
X89424736Y-172444976D01*
X89422254Y-172442625D01*
X89133019Y-172222755D01*
X89057097Y-172177074D01*
X88824627Y-172037201D01*
X88824622Y-172037198D01*
X88821708Y-172035445D01*
X88818624Y-172034018D01*
X88818618Y-172034015D01*
X88495068Y-171884325D01*
X88495056Y-171884320D01*
X88491969Y-171882892D01*
X88488730Y-171881800D01*
X88488726Y-171881799D01*
X88265440Y-171806565D01*
X89537688Y-171806565D01*
X89556259Y-171983260D01*
X89558988Y-171996101D01*
X89613888Y-172165066D01*
X89619235Y-172177074D01*
X89646570Y-172224419D01*
X89654372Y-172232750D01*
X89664065Y-172226723D01*
X90079059Y-171811730D01*
X90085832Y-171799999D01*
X90814167Y-171799999D01*
X90820939Y-171811729D01*
X91235929Y-172226719D01*
X91245626Y-172232749D01*
X91253429Y-172224418D01*
X91280770Y-172177064D01*
X91286108Y-172165074D01*
X91341011Y-171996101D01*
X91343740Y-171983260D01*
X91362312Y-171806565D01*
X91362312Y-171793435D01*
X91343740Y-171616739D01*
X91341011Y-171603898D01*
X91286111Y-171434933D01*
X91280764Y-171422926D01*
X91253429Y-171375579D01*
X91245626Y-171367248D01*
X91235932Y-171373276D01*
X90820938Y-171788271D01*
X90814167Y-171799999D01*
X90085832Y-171799999D01*
X90079060Y-171788270D01*
X89664067Y-171373277D01*
X89654372Y-171367248D01*
X89646570Y-171375578D01*
X89619234Y-171422927D01*
X89613889Y-171434933D01*
X89558988Y-171603898D01*
X89556259Y-171616739D01*
X89537688Y-171793435D01*
X89537688Y-171806565D01*
X88265440Y-171806565D01*
X88150906Y-171767974D01*
X88150900Y-171767972D01*
X88147670Y-171766884D01*
X88144346Y-171766152D01*
X88144334Y-171766149D01*
X87796178Y-171689515D01*
X87796174Y-171689514D01*
X87792847Y-171688782D01*
X87780130Y-171687399D01*
X87435057Y-171649869D01*
X87435046Y-171649868D01*
X87431659Y-171649500D01*
X87408079Y-171649500D01*
X87348926Y-171634751D01*
X87303620Y-171593958D01*
X87282769Y-171536670D01*
X87291254Y-171476299D01*
X87327088Y-171426978D01*
X87381883Y-171400253D01*
X87525680Y-171369688D01*
X87538158Y-171365634D01*
X87675177Y-171304628D01*
X87684346Y-171297497D01*
X87678341Y-171287551D01*
X87393292Y-171002502D01*
X90015652Y-171002502D01*
X90021657Y-171012447D01*
X90438270Y-171429060D01*
X90449999Y-171435832D01*
X90461730Y-171429059D01*
X90878343Y-171012445D01*
X90884347Y-171002502D01*
X90875178Y-170995370D01*
X90738159Y-170934366D01*
X90725680Y-170930311D01*
X90551892Y-170893372D01*
X90538832Y-170892000D01*
X90361168Y-170892000D01*
X90348107Y-170893372D01*
X90174326Y-170930310D01*
X90161833Y-170934369D01*
X90024823Y-170995369D01*
X90015652Y-171002502D01*
X87393292Y-171002502D01*
X87261729Y-170870939D01*
X87249999Y-170864167D01*
X87238271Y-170870938D01*
X86821657Y-171287551D01*
X86815652Y-171297497D01*
X86824820Y-171304628D01*
X86961841Y-171365634D01*
X86974319Y-171369688D01*
X87118117Y-171400253D01*
X87172912Y-171426978D01*
X87208746Y-171476299D01*
X87217231Y-171536670D01*
X87196380Y-171593958D01*
X87151074Y-171634751D01*
X87091921Y-171649500D01*
X87068341Y-171649500D01*
X87064954Y-171649868D01*
X87064942Y-171649869D01*
X86710545Y-171688413D01*
X86710543Y-171688413D01*
X86707153Y-171688782D01*
X86703828Y-171689513D01*
X86703821Y-171689515D01*
X86355665Y-171766149D01*
X86355649Y-171766153D01*
X86352330Y-171766884D01*
X86349104Y-171767970D01*
X86349093Y-171767974D01*
X86011273Y-171881799D01*
X86011262Y-171881803D01*
X86008031Y-171882892D01*
X86004949Y-171884317D01*
X86004931Y-171884325D01*
X85681381Y-172034015D01*
X85681367Y-172034021D01*
X85678292Y-172035445D01*
X85675384Y-172037194D01*
X85675372Y-172037201D01*
X85369913Y-172220990D01*
X85369901Y-172220997D01*
X85366981Y-172222755D01*
X85364265Y-172224819D01*
X85364257Y-172224825D01*
X85080464Y-172440558D01*
X85080454Y-172440565D01*
X85077746Y-172442625D01*
X85075271Y-172444968D01*
X85075262Y-172444977D01*
X84816454Y-172690133D01*
X84816439Y-172690148D01*
X84813979Y-172692479D01*
X84811782Y-172695065D01*
X84811773Y-172695075D01*
X84580986Y-172966779D01*
X84580974Y-172966794D01*
X84578773Y-172969386D01*
X84576866Y-172972197D01*
X84576855Y-172972213D01*
X84376796Y-173267277D01*
X84376787Y-173267290D01*
X84374883Y-173270100D01*
X84373287Y-173273110D01*
X84373283Y-173273117D01*
X84206298Y-173588083D01*
X84206292Y-173588095D01*
X84204702Y-173591095D01*
X84203444Y-173594252D01*
X84203440Y-173594261D01*
X84071487Y-173925439D01*
X84071481Y-173925455D01*
X84070225Y-173928609D01*
X84069315Y-173931884D01*
X84069312Y-173931895D01*
X83973939Y-174275395D01*
X83973934Y-174275415D01*
X83973027Y-174278684D01*
X83972477Y-174282036D01*
X83972474Y-174282052D01*
X83914800Y-174633850D01*
X83914798Y-174633861D01*
X83914249Y-174637215D01*
X83914064Y-174640610D01*
X83914064Y-174640619D01*
X83901458Y-174873117D01*
X83882976Y-174932292D01*
X83838511Y-174975490D01*
X83778827Y-174992255D01*
X83718372Y-174978527D01*
X83671781Y-174937630D01*
X83650333Y-174879465D01*
X83643740Y-174816738D01*
X83641011Y-174803898D01*
X83586111Y-174634933D01*
X83580764Y-174622926D01*
X83553429Y-174575579D01*
X83545626Y-174567248D01*
X83535932Y-174573276D01*
X83120938Y-174988271D01*
X83114167Y-174999999D01*
X82385832Y-174999999D01*
X82379060Y-174988270D01*
X81964067Y-174573277D01*
X81954372Y-174567248D01*
X81946570Y-174575578D01*
X81919234Y-174622927D01*
X81913889Y-174634933D01*
X81858988Y-174803898D01*
X81856259Y-174816739D01*
X81837688Y-174993435D01*
X81837688Y-175006565D01*
X71112312Y-175006565D01*
X71112312Y-174993435D01*
X71093740Y-174816739D01*
X71091011Y-174803898D01*
X71036111Y-174634933D01*
X71030764Y-174622926D01*
X71003429Y-174575579D01*
X70995626Y-174567248D01*
X70985932Y-174573276D01*
X70570938Y-174988271D01*
X70564167Y-174999999D01*
X69835832Y-174999999D01*
X69829060Y-174988270D01*
X69414067Y-174573277D01*
X69404372Y-174567248D01*
X69396570Y-174575578D01*
X69369234Y-174622927D01*
X69363889Y-174634933D01*
X69308988Y-174803898D01*
X69306259Y-174816738D01*
X69301152Y-174865328D01*
X69279525Y-174923750D01*
X69232554Y-174964672D01*
X69171719Y-174978089D01*
X69111892Y-174960721D01*
X69067697Y-174916815D01*
X69049939Y-174857103D01*
X69048353Y-174816739D01*
X69035345Y-174485657D01*
X69001832Y-174202502D01*
X69765652Y-174202502D01*
X69771657Y-174212447D01*
X70188270Y-174629060D01*
X70199999Y-174635832D01*
X70211730Y-174629059D01*
X70628343Y-174212445D01*
X70634347Y-174202502D01*
X82315652Y-174202502D01*
X82321657Y-174212447D01*
X82738270Y-174629060D01*
X82749999Y-174635832D01*
X82761730Y-174629059D01*
X83178343Y-174212445D01*
X83184347Y-174202502D01*
X83175178Y-174195370D01*
X83038159Y-174134366D01*
X83025680Y-174130311D01*
X82851892Y-174093372D01*
X82838832Y-174092000D01*
X82661168Y-174092000D01*
X82648107Y-174093372D01*
X82474326Y-174130310D01*
X82461833Y-174134369D01*
X82324823Y-174195369D01*
X82315652Y-174202502D01*
X70634347Y-174202502D01*
X70625178Y-174195370D01*
X70488159Y-174134366D01*
X70475680Y-174130311D01*
X70301892Y-174093372D01*
X70288832Y-174092000D01*
X70111168Y-174092000D01*
X70098107Y-174093372D01*
X69924326Y-174130310D01*
X69911833Y-174134369D01*
X69774823Y-174195369D01*
X69765652Y-174202502D01*
X69001832Y-174202502D01*
X68974844Y-173974485D01*
X68874424Y-173469636D01*
X68734702Y-172974222D01*
X68595721Y-172597497D01*
X83615652Y-172597497D01*
X83624820Y-172604628D01*
X83761841Y-172665634D01*
X83774319Y-172669688D01*
X83948107Y-172706627D01*
X83961168Y-172708000D01*
X84138832Y-172708000D01*
X84151892Y-172706627D01*
X84325680Y-172669688D01*
X84338158Y-172665634D01*
X84475177Y-172604628D01*
X84484346Y-172597497D01*
X84478341Y-172587551D01*
X84061729Y-172170939D01*
X84049999Y-172164167D01*
X84038271Y-172170938D01*
X83621657Y-172587551D01*
X83615652Y-172597497D01*
X68595721Y-172597497D01*
X68556542Y-172491298D01*
X68341041Y-172023841D01*
X68219361Y-171806565D01*
X83137688Y-171806565D01*
X83156259Y-171983260D01*
X83158988Y-171996101D01*
X83213888Y-172165066D01*
X83219235Y-172177074D01*
X83246570Y-172224419D01*
X83254372Y-172232750D01*
X83264065Y-172226723D01*
X83679059Y-171811730D01*
X83685832Y-171799999D01*
X84414167Y-171799999D01*
X84420939Y-171811729D01*
X84835929Y-172226719D01*
X84845626Y-172232749D01*
X84853429Y-172224418D01*
X84880770Y-172177064D01*
X84886108Y-172165074D01*
X84941011Y-171996101D01*
X84943740Y-171983260D01*
X84962312Y-171806565D01*
X84962312Y-171793435D01*
X84943740Y-171616739D01*
X84941011Y-171603898D01*
X84886111Y-171434933D01*
X84880764Y-171422926D01*
X84853429Y-171375579D01*
X84845626Y-171367248D01*
X84835932Y-171373276D01*
X84420938Y-171788271D01*
X84414167Y-171799999D01*
X83685832Y-171799999D01*
X83679060Y-171788270D01*
X83264067Y-171373277D01*
X83254372Y-171367248D01*
X83246570Y-171375578D01*
X83219234Y-171422927D01*
X83213889Y-171434933D01*
X83158988Y-171603898D01*
X83156259Y-171616739D01*
X83137688Y-171793435D01*
X83137688Y-171806565D01*
X68219361Y-171806565D01*
X68089529Y-171574732D01*
X67803555Y-171146742D01*
X67788391Y-171127507D01*
X67689845Y-171002502D01*
X83615652Y-171002502D01*
X83621657Y-171012447D01*
X84038270Y-171429060D01*
X84049999Y-171435832D01*
X84061730Y-171429059D01*
X84478343Y-171012445D01*
X84484347Y-171002502D01*
X84475178Y-170995370D01*
X84338159Y-170934366D01*
X84325680Y-170930311D01*
X84151892Y-170893372D01*
X84138832Y-170892000D01*
X83961168Y-170892000D01*
X83948107Y-170893372D01*
X83774326Y-170930310D01*
X83761833Y-170934369D01*
X83624823Y-170995369D01*
X83615652Y-171002502D01*
X67689845Y-171002502D01*
X67630106Y-170926723D01*
X67484882Y-170742508D01*
X67376877Y-170625669D01*
X67345889Y-170565046D01*
X67350964Y-170497150D01*
X67390622Y-170441807D01*
X67453284Y-170415176D01*
X67520652Y-170425034D01*
X67611840Y-170465634D01*
X67624319Y-170469688D01*
X67798107Y-170506627D01*
X67811168Y-170508000D01*
X67988832Y-170508000D01*
X68001892Y-170506627D01*
X68002184Y-170506565D01*
X86337688Y-170506565D01*
X86356259Y-170683260D01*
X86358988Y-170696101D01*
X86413888Y-170865066D01*
X86419235Y-170877074D01*
X86446570Y-170924419D01*
X86454372Y-170932750D01*
X86464065Y-170926723D01*
X86879059Y-170511730D01*
X86885832Y-170499999D01*
X87614167Y-170499999D01*
X87620939Y-170511729D01*
X88035929Y-170926719D01*
X88045626Y-170932749D01*
X88053429Y-170924418D01*
X88080770Y-170877064D01*
X88086108Y-170865074D01*
X88141011Y-170696101D01*
X88143740Y-170683260D01*
X88162312Y-170506565D01*
X88162312Y-170493435D01*
X88143740Y-170316739D01*
X88141011Y-170303898D01*
X88086111Y-170134933D01*
X88080764Y-170122926D01*
X88053429Y-170075579D01*
X88045626Y-170067248D01*
X88035932Y-170073276D01*
X87620938Y-170488271D01*
X87614167Y-170499999D01*
X86885832Y-170499999D01*
X86879060Y-170488270D01*
X86464067Y-170073277D01*
X86454372Y-170067248D01*
X86446570Y-170075578D01*
X86419234Y-170122927D01*
X86413889Y-170134933D01*
X86358988Y-170303898D01*
X86356259Y-170316739D01*
X86337688Y-170493435D01*
X86337688Y-170506565D01*
X68002184Y-170506565D01*
X68175680Y-170469688D01*
X68188158Y-170465634D01*
X68325177Y-170404628D01*
X68334346Y-170397497D01*
X68328341Y-170387551D01*
X67540789Y-169599999D01*
X68264167Y-169599999D01*
X68270939Y-169611729D01*
X68685929Y-170026719D01*
X68695626Y-170032749D01*
X68703429Y-170024418D01*
X68730770Y-169977064D01*
X68736108Y-169965074D01*
X68791011Y-169796101D01*
X68793740Y-169783260D01*
X68802228Y-169702502D01*
X86815652Y-169702502D01*
X86821657Y-169712447D01*
X87238270Y-170129060D01*
X87249999Y-170135832D01*
X87261730Y-170129059D01*
X87678343Y-169712445D01*
X87684347Y-169702502D01*
X87675178Y-169695370D01*
X87538159Y-169634366D01*
X87525680Y-169630311D01*
X87351892Y-169593372D01*
X87338832Y-169592000D01*
X87161168Y-169592000D01*
X87148107Y-169593372D01*
X86974326Y-169630310D01*
X86961833Y-169634369D01*
X86824823Y-169695369D01*
X86815652Y-169702502D01*
X68802228Y-169702502D01*
X68812312Y-169606565D01*
X68812312Y-169593435D01*
X68793740Y-169416739D01*
X68791011Y-169403898D01*
X68736111Y-169234933D01*
X68730764Y-169222926D01*
X68703429Y-169175579D01*
X68695626Y-169167248D01*
X68685932Y-169173276D01*
X68270938Y-169588271D01*
X68264167Y-169599999D01*
X67540789Y-169599999D01*
X67114067Y-169173277D01*
X67104372Y-169167248D01*
X67096570Y-169175578D01*
X67069234Y-169222927D01*
X67063889Y-169234933D01*
X67008988Y-169403898D01*
X67006259Y-169416739D01*
X66987688Y-169593435D01*
X66987688Y-169606565D01*
X67006259Y-169783260D01*
X67008988Y-169796101D01*
X67063890Y-169965070D01*
X67066947Y-169971936D01*
X67076805Y-170039304D01*
X67050174Y-170101965D01*
X66994831Y-170141623D01*
X66926935Y-170146698D01*
X66866311Y-170115709D01*
X66759312Y-170016800D01*
X66759306Y-170016795D01*
X66757492Y-170015118D01*
X66479671Y-169796101D01*
X66355206Y-169697980D01*
X66355195Y-169697972D01*
X66353258Y-169696445D01*
X65925268Y-169410471D01*
X65476159Y-169158959D01*
X65473925Y-169157929D01*
X65473917Y-169157925D01*
X65189961Y-169027019D01*
X65008702Y-168943458D01*
X65006390Y-168942605D01*
X64626625Y-168802502D01*
X67465652Y-168802502D01*
X67471657Y-168812447D01*
X67888270Y-169229060D01*
X67899999Y-169235832D01*
X67911730Y-169229059D01*
X68328343Y-168812445D01*
X68334347Y-168802502D01*
X68325178Y-168795370D01*
X68188159Y-168734366D01*
X68175680Y-168730311D01*
X68001892Y-168693372D01*
X67988832Y-168692000D01*
X67811168Y-168692000D01*
X67798107Y-168693372D01*
X67624326Y-168730310D01*
X67611833Y-168734369D01*
X67474823Y-168795369D01*
X67465652Y-168802502D01*
X64626625Y-168802502D01*
X64528105Y-168766156D01*
X64528094Y-168766152D01*
X64525778Y-168765298D01*
X64270749Y-168693372D01*
X64032751Y-168626249D01*
X64032746Y-168626247D01*
X64030364Y-168625576D01*
X64027943Y-168625094D01*
X64027933Y-168625092D01*
X63527941Y-168525638D01*
X63527927Y-168525635D01*
X63525515Y-168525156D01*
X63523082Y-168524868D01*
X63523063Y-168524865D01*
X63016796Y-168464945D01*
X63016787Y-168464944D01*
X63014343Y-168464655D01*
X63011893Y-168464558D01*
X63011871Y-168464557D01*
X62648923Y-168450297D01*
X62591108Y-168433650D01*
X62547602Y-168392093D01*
X62528326Y-168335101D01*
X62537673Y-168275668D01*
X62573513Y-168227344D01*
X62627674Y-168201147D01*
X62775680Y-168169688D01*
X62788158Y-168165634D01*
X62925177Y-168104628D01*
X62934346Y-168097497D01*
X62928341Y-168087551D01*
X62511729Y-167670939D01*
X62499999Y-167664167D01*
X62488271Y-167670938D01*
X62071657Y-168087551D01*
X62065652Y-168097497D01*
X62074820Y-168104628D01*
X62211841Y-168165634D01*
X62224319Y-168169688D01*
X62372325Y-168201147D01*
X62426486Y-168227344D01*
X62462326Y-168275668D01*
X62471673Y-168335101D01*
X62452397Y-168392093D01*
X62408891Y-168433650D01*
X62351076Y-168450297D01*
X61988128Y-168464557D01*
X61988104Y-168464558D01*
X61985657Y-168464655D01*
X61983214Y-168464944D01*
X61983203Y-168464945D01*
X61476936Y-168524865D01*
X61476913Y-168524868D01*
X61474485Y-168525156D01*
X61472076Y-168525635D01*
X61472058Y-168525638D01*
X60972066Y-168625092D01*
X60972050Y-168625095D01*
X60969636Y-168625576D01*
X60967259Y-168626246D01*
X60967248Y-168626249D01*
X60476611Y-168764624D01*
X60476605Y-168764625D01*
X60474222Y-168765298D01*
X60471913Y-168766149D01*
X60471894Y-168766156D01*
X59993609Y-168942605D01*
X59993599Y-168942608D01*
X59991298Y-168943458D01*
X59989063Y-168944488D01*
X59989059Y-168944490D01*
X59526082Y-169157925D01*
X59526063Y-169157934D01*
X59523841Y-169158959D01*
X59521701Y-169160157D01*
X59521692Y-169160162D01*
X59076884Y-169409265D01*
X59076868Y-169409274D01*
X59074732Y-169410471D01*
X59072690Y-169411835D01*
X59072676Y-169411844D01*
X58739645Y-169634369D01*
X58646742Y-169696445D01*
X58644816Y-169697962D01*
X58644793Y-169697980D01*
X58290779Y-169977064D01*
X58242508Y-170015118D01*
X58240706Y-170016782D01*
X58240674Y-170016811D01*
X58133687Y-170115709D01*
X58073062Y-170146699D01*
X58005165Y-170141622D01*
X57949822Y-170101961D01*
X57923194Y-170039297D01*
X57933055Y-169971929D01*
X57936111Y-169965065D01*
X57991011Y-169796101D01*
X57993740Y-169783260D01*
X58012312Y-169606565D01*
X58012312Y-169593435D01*
X57993740Y-169416739D01*
X57991011Y-169403898D01*
X57936111Y-169234933D01*
X57930764Y-169222926D01*
X57903429Y-169175579D01*
X57895626Y-169167248D01*
X57885931Y-169173277D01*
X57100000Y-169959210D01*
X57099999Y-169959211D01*
X56671657Y-170387551D01*
X56665652Y-170397497D01*
X56674820Y-170404628D01*
X56811841Y-170465634D01*
X56824319Y-170469688D01*
X56998107Y-170506627D01*
X57011168Y-170508000D01*
X57188832Y-170508000D01*
X57201892Y-170506627D01*
X57375680Y-170469688D01*
X57388167Y-170465631D01*
X57479347Y-170425035D01*
X57546715Y-170415176D01*
X57609376Y-170441806D01*
X57649035Y-170497149D01*
X57654110Y-170565045D01*
X57623121Y-170625669D01*
X57516811Y-170740674D01*
X57516782Y-170740706D01*
X57515118Y-170742508D01*
X57513586Y-170744451D01*
X57513582Y-170744456D01*
X57197980Y-171144793D01*
X57197962Y-171144816D01*
X57196445Y-171146742D01*
X57195067Y-171148803D01*
X57195065Y-171148807D01*
X56911844Y-171572676D01*
X56911835Y-171572690D01*
X56910471Y-171574732D01*
X56909274Y-171576868D01*
X56909265Y-171576884D01*
X56681685Y-171983260D01*
X56658959Y-172023841D01*
X56657934Y-172026063D01*
X56657925Y-172026082D01*
X56444490Y-172489059D01*
X56443458Y-172491298D01*
X56442608Y-172493599D01*
X56442605Y-172493609D01*
X56266156Y-172971894D01*
X56266149Y-172971913D01*
X56265298Y-172974222D01*
X56264625Y-172976605D01*
X56264624Y-172976611D01*
X56185048Y-173258766D01*
X56125576Y-173469636D01*
X56125095Y-173472050D01*
X56125092Y-173472066D01*
X56025638Y-173972058D01*
X56025635Y-173972076D01*
X56025156Y-173974485D01*
X56024868Y-173976913D01*
X56024865Y-173976936D01*
X55964945Y-174483203D01*
X55964655Y-174485657D01*
X55964558Y-174488104D01*
X55964557Y-174488128D01*
X55950060Y-174857103D01*
X55932301Y-174916815D01*
X55888106Y-174960722D01*
X55828279Y-174978089D01*
X55767444Y-174964671D01*
X55720472Y-174923749D01*
X55698847Y-174865325D01*
X55693740Y-174816739D01*
X55691011Y-174803898D01*
X55636111Y-174634933D01*
X55630764Y-174622926D01*
X55603429Y-174575579D01*
X55595626Y-174567248D01*
X55585932Y-174573276D01*
X55170938Y-174988271D01*
X55164167Y-174999999D01*
X54435832Y-174999999D01*
X54429060Y-174988270D01*
X54014067Y-174573277D01*
X54004372Y-174567248D01*
X53996570Y-174575578D01*
X53969234Y-174622927D01*
X53963889Y-174634933D01*
X53908988Y-174803898D01*
X53906259Y-174816739D01*
X53887688Y-174993435D01*
X53887688Y-175006565D01*
X50050500Y-175006565D01*
X50050500Y-174202502D01*
X54365652Y-174202502D01*
X54371657Y-174212447D01*
X54788270Y-174629060D01*
X54799999Y-174635832D01*
X54811730Y-174629059D01*
X55228343Y-174212445D01*
X55234347Y-174202502D01*
X55225178Y-174195370D01*
X55088159Y-174134366D01*
X55075680Y-174130311D01*
X54901892Y-174093372D01*
X54888832Y-174092000D01*
X54711168Y-174092000D01*
X54698107Y-174093372D01*
X54524326Y-174130310D01*
X54511833Y-174134369D01*
X54374823Y-174195369D01*
X54365652Y-174202502D01*
X50050500Y-174202502D01*
X50050500Y-169606565D01*
X56187688Y-169606565D01*
X56206259Y-169783260D01*
X56208988Y-169796101D01*
X56263888Y-169965066D01*
X56269235Y-169977074D01*
X56296570Y-170024419D01*
X56304372Y-170032750D01*
X56314065Y-170026723D01*
X56729059Y-169611730D01*
X56735832Y-169599999D01*
X56729060Y-169588270D01*
X56314067Y-169173277D01*
X56304372Y-169167248D01*
X56296570Y-169175578D01*
X56269234Y-169222927D01*
X56263889Y-169234933D01*
X56208988Y-169403898D01*
X56206259Y-169416739D01*
X56187688Y-169593435D01*
X56187688Y-169606565D01*
X50050500Y-169606565D01*
X50050500Y-168802502D01*
X56665652Y-168802502D01*
X56671657Y-168812447D01*
X57088270Y-169229060D01*
X57099999Y-169235832D01*
X57111730Y-169229059D01*
X57528343Y-168812445D01*
X57534347Y-168802502D01*
X57525178Y-168795370D01*
X57388159Y-168734366D01*
X57375680Y-168730311D01*
X57201892Y-168693372D01*
X57188832Y-168692000D01*
X57011168Y-168692000D01*
X56998107Y-168693372D01*
X56824326Y-168730310D01*
X56811833Y-168734369D01*
X56674823Y-168795369D01*
X56665652Y-168802502D01*
X50050500Y-168802502D01*
X50050500Y-167306565D01*
X61587688Y-167306565D01*
X61606259Y-167483260D01*
X61608988Y-167496101D01*
X61663888Y-167665066D01*
X61669235Y-167677074D01*
X61696570Y-167724419D01*
X61704372Y-167732750D01*
X61714065Y-167726723D01*
X62129059Y-167311730D01*
X62135832Y-167299999D01*
X62864167Y-167299999D01*
X62870939Y-167311729D01*
X63285929Y-167726719D01*
X63295626Y-167732749D01*
X63303429Y-167724418D01*
X63330770Y-167677064D01*
X63336108Y-167665074D01*
X63391011Y-167496101D01*
X63393740Y-167483260D01*
X63412312Y-167306565D01*
X63412312Y-167293435D01*
X63393740Y-167116739D01*
X63391011Y-167103898D01*
X63336111Y-166934933D01*
X63330764Y-166922926D01*
X63303429Y-166875579D01*
X63295626Y-166867248D01*
X63285932Y-166873276D01*
X62870938Y-167288271D01*
X62864167Y-167299999D01*
X62135832Y-167299999D01*
X62129060Y-167288270D01*
X61714067Y-166873277D01*
X61704372Y-166867248D01*
X61696570Y-166875578D01*
X61669234Y-166922927D01*
X61663889Y-166934933D01*
X61608988Y-167103898D01*
X61606259Y-167116739D01*
X61587688Y-167293435D01*
X61587688Y-167306565D01*
X50050500Y-167306565D01*
X50050500Y-166502502D01*
X62065652Y-166502502D01*
X62071657Y-166512447D01*
X62488270Y-166929060D01*
X62499999Y-166935832D01*
X62511730Y-166929059D01*
X62928343Y-166512445D01*
X62934347Y-166502502D01*
X62925178Y-166495370D01*
X62788159Y-166434366D01*
X62775680Y-166430311D01*
X62601892Y-166393372D01*
X62588832Y-166392000D01*
X62411168Y-166392000D01*
X62398107Y-166393372D01*
X62224326Y-166430310D01*
X62211833Y-166434369D01*
X62074823Y-166495369D01*
X62065652Y-166502502D01*
X50050500Y-166502502D01*
X50050500Y-164121965D01*
X54242763Y-164121965D01*
X54250964Y-164133349D01*
X54427408Y-164271583D01*
X54433678Y-164275911D01*
X54712690Y-164444579D01*
X54719426Y-164448115D01*
X55016736Y-164581923D01*
X55023848Y-164584621D01*
X55335128Y-164681619D01*
X55342505Y-164683438D01*
X55663209Y-164742209D01*
X55670749Y-164743124D01*
X55996198Y-164762811D01*
X56003802Y-164762811D01*
X56329250Y-164743124D01*
X56336790Y-164742209D01*
X56657494Y-164683438D01*
X56664871Y-164681619D01*
X56976151Y-164584621D01*
X56983263Y-164581923D01*
X57280573Y-164448115D01*
X57287309Y-164444579D01*
X57566332Y-164275904D01*
X57572577Y-164271594D01*
X57749035Y-164133348D01*
X57757235Y-164121965D01*
X142242763Y-164121965D01*
X142250964Y-164133349D01*
X142427408Y-164271583D01*
X142433678Y-164275911D01*
X142712690Y-164444579D01*
X142719426Y-164448115D01*
X143016736Y-164581923D01*
X143023848Y-164584621D01*
X143335128Y-164681619D01*
X143342505Y-164683438D01*
X143663209Y-164742209D01*
X143670749Y-164743124D01*
X143996198Y-164762811D01*
X144003802Y-164762811D01*
X144329250Y-164743124D01*
X144336790Y-164742209D01*
X144657494Y-164683438D01*
X144664871Y-164681619D01*
X144976151Y-164584621D01*
X144983263Y-164581923D01*
X145280573Y-164448115D01*
X145287309Y-164444579D01*
X145566332Y-164275904D01*
X145572577Y-164271594D01*
X145749035Y-164133348D01*
X145757235Y-164121965D01*
X145750466Y-164109676D01*
X144011729Y-162370939D01*
X144000000Y-162364167D01*
X143988270Y-162370939D01*
X142249532Y-164109676D01*
X142242763Y-164121965D01*
X57757235Y-164121965D01*
X57750466Y-164109676D01*
X56011729Y-162370939D01*
X56000000Y-162364167D01*
X55988270Y-162370939D01*
X54249532Y-164109676D01*
X54242763Y-164121965D01*
X50050500Y-164121965D01*
X50050500Y-162003802D01*
X53237189Y-162003802D01*
X53256875Y-162329250D01*
X53257790Y-162336790D01*
X53316561Y-162657494D01*
X53318380Y-162664871D01*
X53415378Y-162976151D01*
X53418076Y-162983263D01*
X53551884Y-163280573D01*
X53555420Y-163287309D01*
X53724088Y-163566321D01*
X53728416Y-163572591D01*
X53866649Y-163749034D01*
X53878033Y-163757235D01*
X53890322Y-163750466D01*
X55629060Y-162011729D01*
X55635832Y-162000000D01*
X56364167Y-162000000D01*
X56370939Y-162011729D01*
X58109676Y-163750466D01*
X58121965Y-163757235D01*
X58133348Y-163749035D01*
X58271594Y-163572577D01*
X58275904Y-163566332D01*
X58444579Y-163287309D01*
X58448115Y-163280573D01*
X58581923Y-162983263D01*
X58584621Y-162976151D01*
X58681619Y-162664871D01*
X58683438Y-162657494D01*
X58742209Y-162336790D01*
X58743124Y-162329250D01*
X58762811Y-162003802D01*
X141237189Y-162003802D01*
X141256875Y-162329250D01*
X141257790Y-162336790D01*
X141316561Y-162657494D01*
X141318380Y-162664871D01*
X141415378Y-162976151D01*
X141418076Y-162983263D01*
X141551884Y-163280573D01*
X141555420Y-163287309D01*
X141724088Y-163566321D01*
X141728416Y-163572591D01*
X141866649Y-163749034D01*
X141878033Y-163757235D01*
X141890322Y-163750466D01*
X143629060Y-162011729D01*
X143635832Y-162000000D01*
X144364167Y-162000000D01*
X144370939Y-162011729D01*
X146109676Y-163750466D01*
X146121965Y-163757235D01*
X146133348Y-163749035D01*
X146271594Y-163572577D01*
X146275904Y-163566332D01*
X146444579Y-163287309D01*
X146448115Y-163280573D01*
X146581923Y-162983263D01*
X146584621Y-162976151D01*
X146681619Y-162664871D01*
X146683438Y-162657494D01*
X146742209Y-162336790D01*
X146743124Y-162329250D01*
X146762811Y-162003802D01*
X146762811Y-161996198D01*
X146743124Y-161670749D01*
X146742209Y-161663209D01*
X146683438Y-161342505D01*
X146681619Y-161335128D01*
X146584621Y-161023848D01*
X146581923Y-161016736D01*
X146448115Y-160719426D01*
X146444579Y-160712690D01*
X146275911Y-160433678D01*
X146271583Y-160427408D01*
X146133349Y-160250964D01*
X146121965Y-160242763D01*
X146109676Y-160249532D01*
X144370939Y-161988270D01*
X144364167Y-162000000D01*
X143635832Y-162000000D01*
X143629060Y-161988270D01*
X141890322Y-160249532D01*
X141878032Y-160242763D01*
X141866651Y-160250961D01*
X141728406Y-160427421D01*
X141724093Y-160433670D01*
X141555420Y-160712690D01*
X141551884Y-160719426D01*
X141418076Y-161016736D01*
X141415378Y-161023848D01*
X141318380Y-161335128D01*
X141316561Y-161342505D01*
X141257790Y-161663209D01*
X141256875Y-161670749D01*
X141237189Y-161996198D01*
X141237189Y-162003802D01*
X58762811Y-162003802D01*
X58762811Y-161996198D01*
X58743124Y-161670749D01*
X58742209Y-161663209D01*
X58683438Y-161342505D01*
X58681619Y-161335128D01*
X58584621Y-161023848D01*
X58581923Y-161016736D01*
X58448115Y-160719426D01*
X58444579Y-160712690D01*
X58275911Y-160433678D01*
X58271583Y-160427408D01*
X58133349Y-160250964D01*
X58121965Y-160242763D01*
X58109676Y-160249532D01*
X56370939Y-161988270D01*
X56364167Y-162000000D01*
X55635832Y-162000000D01*
X55629060Y-161988270D01*
X53890322Y-160249532D01*
X53878032Y-160242763D01*
X53866651Y-160250961D01*
X53728406Y-160427421D01*
X53724093Y-160433670D01*
X53555420Y-160712690D01*
X53551884Y-160719426D01*
X53418076Y-161016736D01*
X53415378Y-161023848D01*
X53318380Y-161335128D01*
X53316561Y-161342505D01*
X53257790Y-161663209D01*
X53256875Y-161670749D01*
X53237189Y-161996198D01*
X53237189Y-162003802D01*
X50050500Y-162003802D01*
X50050500Y-159878032D01*
X54242763Y-159878032D01*
X54249532Y-159890322D01*
X55988270Y-161629060D01*
X56000000Y-161635832D01*
X56011729Y-161629060D01*
X57750466Y-159890322D01*
X57757235Y-159878033D01*
X57757234Y-159878032D01*
X142242763Y-159878032D01*
X142249532Y-159890322D01*
X143988270Y-161629060D01*
X144000000Y-161635832D01*
X144011729Y-161629060D01*
X145750466Y-159890322D01*
X145757235Y-159878033D01*
X145749034Y-159866649D01*
X145572591Y-159728416D01*
X145566321Y-159724088D01*
X145287309Y-159555420D01*
X145280573Y-159551884D01*
X144983263Y-159418076D01*
X144976151Y-159415378D01*
X144664871Y-159318380D01*
X144657494Y-159316561D01*
X144336790Y-159257790D01*
X144329250Y-159256875D01*
X144003802Y-159237189D01*
X143996198Y-159237189D01*
X143670749Y-159256875D01*
X143663209Y-159257790D01*
X143342505Y-159316561D01*
X143335128Y-159318380D01*
X143023848Y-159415378D01*
X143016736Y-159418076D01*
X142719426Y-159551884D01*
X142712690Y-159555420D01*
X142433670Y-159724093D01*
X142427421Y-159728406D01*
X142250961Y-159866651D01*
X142242763Y-159878032D01*
X57757234Y-159878032D01*
X57749034Y-159866649D01*
X57572591Y-159728416D01*
X57566321Y-159724088D01*
X57287309Y-159555420D01*
X57280573Y-159551884D01*
X56983263Y-159418076D01*
X56976151Y-159415378D01*
X56664871Y-159318380D01*
X56657494Y-159316561D01*
X56336790Y-159257790D01*
X56329250Y-159256875D01*
X56003802Y-159237189D01*
X55996198Y-159237189D01*
X55670749Y-159256875D01*
X55663209Y-159257790D01*
X55342505Y-159316561D01*
X55335128Y-159318380D01*
X55023848Y-159415378D01*
X55016736Y-159418076D01*
X54719426Y-159551884D01*
X54712690Y-159555420D01*
X54433670Y-159724093D01*
X54427421Y-159728406D01*
X54250961Y-159866651D01*
X54242763Y-159878032D01*
X50050500Y-159878032D01*
X50050500Y-141500000D01*
X130945339Y-141500000D01*
X130949500Y-141510045D01*
X130961349Y-141538651D01*
X131000000Y-141554661D01*
X131006654Y-141551904D01*
X131020918Y-141550500D01*
X143979082Y-141550500D01*
X143993345Y-141551904D01*
X144000000Y-141554661D01*
X144038651Y-141538651D01*
X144050500Y-141510045D01*
X144054661Y-141500000D01*
X144051904Y-141493345D01*
X144050500Y-141479082D01*
X144050500Y-128520918D01*
X144051904Y-128506654D01*
X144054661Y-128500000D01*
X144038651Y-128461349D01*
X144010045Y-128449500D01*
X144000000Y-128445339D01*
X143993348Y-128448094D01*
X143979082Y-128449500D01*
X131020918Y-128449500D01*
X131006651Y-128448094D01*
X131000000Y-128445339D01*
X130989955Y-128449500D01*
X130988536Y-128450087D01*
X130988534Y-128450088D01*
X130972813Y-128456600D01*
X130972811Y-128456601D01*
X130961349Y-128461349D01*
X130956602Y-128472807D01*
X130956601Y-128472810D01*
X130950087Y-128488537D01*
X130945339Y-128500000D01*
X130948094Y-128506652D01*
X130949500Y-128520918D01*
X130949500Y-141479082D01*
X130948094Y-141493348D01*
X130945339Y-141500000D01*
X50050500Y-141500000D01*
X50050500Y-137000000D01*
X56945339Y-137000000D01*
X56949500Y-137010045D01*
X56961349Y-137038651D01*
X57000000Y-137054661D01*
X57006654Y-137051904D01*
X57020918Y-137050500D01*
X67979082Y-137050500D01*
X67993345Y-137051904D01*
X68000000Y-137054661D01*
X68038651Y-137038651D01*
X68050500Y-137010045D01*
X68054661Y-137000000D01*
X81945339Y-137000000D01*
X81949500Y-137010045D01*
X81961349Y-137038651D01*
X82000000Y-137054661D01*
X82006654Y-137051904D01*
X82020918Y-137050500D01*
X92979082Y-137050500D01*
X92993345Y-137051904D01*
X93000000Y-137054661D01*
X93038651Y-137038651D01*
X93050500Y-137010045D01*
X93054661Y-137000000D01*
X106945339Y-137000000D01*
X106949500Y-137010045D01*
X106961349Y-137038651D01*
X107000000Y-137054661D01*
X107006654Y-137051904D01*
X107020918Y-137050500D01*
X117979082Y-137050500D01*
X117993345Y-137051904D01*
X118000000Y-137054661D01*
X118038651Y-137038651D01*
X118050500Y-137010045D01*
X118054661Y-137000000D01*
X118051904Y-136993345D01*
X118050500Y-136979082D01*
X118050500Y-133020918D01*
X118051904Y-133006654D01*
X118054661Y-133000000D01*
X118038651Y-132961349D01*
X118010045Y-132949500D01*
X118000000Y-132945339D01*
X117993348Y-132948094D01*
X117979082Y-132949500D01*
X107020918Y-132949500D01*
X107006651Y-132948094D01*
X107000000Y-132945339D01*
X106989955Y-132949500D01*
X106988536Y-132950087D01*
X106988534Y-132950088D01*
X106972813Y-132956600D01*
X106972811Y-132956601D01*
X106961349Y-132961349D01*
X106956602Y-132972807D01*
X106956601Y-132972810D01*
X106950087Y-132988537D01*
X106945339Y-133000000D01*
X106948094Y-133006652D01*
X106949500Y-133020918D01*
X106949500Y-136979082D01*
X106948094Y-136993348D01*
X106945339Y-137000000D01*
X93054661Y-137000000D01*
X93051904Y-136993345D01*
X93050500Y-136979082D01*
X93050500Y-133020918D01*
X93051904Y-133006654D01*
X93054661Y-133000000D01*
X93038651Y-132961349D01*
X93010045Y-132949500D01*
X93000000Y-132945339D01*
X92993348Y-132948094D01*
X92979082Y-132949500D01*
X82020918Y-132949500D01*
X82006651Y-132948094D01*
X82000000Y-132945339D01*
X81989955Y-132949500D01*
X81988536Y-132950087D01*
X81988534Y-132950088D01*
X81972813Y-132956600D01*
X81972811Y-132956601D01*
X81961349Y-132961349D01*
X81956602Y-132972807D01*
X81956601Y-132972810D01*
X81950087Y-132988537D01*
X81945339Y-133000000D01*
X81948094Y-133006652D01*
X81949500Y-133020918D01*
X81949500Y-136979082D01*
X81948094Y-136993348D01*
X81945339Y-137000000D01*
X68054661Y-137000000D01*
X68051904Y-136993345D01*
X68050500Y-136979082D01*
X68050500Y-133020918D01*
X68051904Y-133006654D01*
X68054661Y-133000000D01*
X68038651Y-132961349D01*
X68010045Y-132949500D01*
X68000000Y-132945339D01*
X67993348Y-132948094D01*
X67979082Y-132949500D01*
X57020918Y-132949500D01*
X57006651Y-132948094D01*
X57000000Y-132945339D01*
X56989955Y-132949500D01*
X56988536Y-132950087D01*
X56988534Y-132950088D01*
X56972813Y-132956600D01*
X56972811Y-132956601D01*
X56961349Y-132961349D01*
X56956602Y-132972807D01*
X56956601Y-132972810D01*
X56950087Y-132988537D01*
X56945339Y-133000000D01*
X56948094Y-133006652D01*
X56949500Y-133020918D01*
X56949500Y-136979082D01*
X56948094Y-136993348D01*
X56945339Y-137000000D01*
X50050500Y-137000000D01*
X50050500Y-111500000D01*
X55945339Y-111500000D01*
X55949500Y-111510045D01*
X55961349Y-111538651D01*
X56000000Y-111554661D01*
X56006654Y-111551904D01*
X56020918Y-111550500D01*
X68979082Y-111550500D01*
X68993345Y-111551904D01*
X69000000Y-111554661D01*
X69038651Y-111538651D01*
X69050500Y-111510045D01*
X69054661Y-111500000D01*
X80945339Y-111500000D01*
X80949500Y-111510045D01*
X80961349Y-111538651D01*
X81000000Y-111554661D01*
X81006654Y-111551904D01*
X81020918Y-111550500D01*
X93979082Y-111550500D01*
X93993345Y-111551904D01*
X94000000Y-111554661D01*
X94038651Y-111538651D01*
X94050500Y-111510045D01*
X94054661Y-111500000D01*
X105945339Y-111500000D01*
X105949500Y-111510045D01*
X105961349Y-111538651D01*
X106000000Y-111554661D01*
X106006654Y-111551904D01*
X106020918Y-111550500D01*
X118979082Y-111550500D01*
X118993345Y-111551904D01*
X119000000Y-111554661D01*
X119038651Y-111538651D01*
X119050500Y-111510045D01*
X119054661Y-111500000D01*
X130945339Y-111500000D01*
X130949500Y-111510045D01*
X130961349Y-111538651D01*
X131000000Y-111554661D01*
X131006654Y-111551904D01*
X131020918Y-111550500D01*
X143979082Y-111550500D01*
X143993345Y-111551904D01*
X144000000Y-111554661D01*
X144038651Y-111538651D01*
X144050500Y-111510045D01*
X144054661Y-111500000D01*
X144051904Y-111493345D01*
X144050500Y-111479082D01*
X144050500Y-98520918D01*
X144051904Y-98506654D01*
X144054661Y-98500000D01*
X144038651Y-98461349D01*
X144010045Y-98449500D01*
X144000000Y-98445339D01*
X143993348Y-98448094D01*
X143979082Y-98449500D01*
X131020918Y-98449500D01*
X131006651Y-98448094D01*
X131000000Y-98445339D01*
X130989955Y-98449500D01*
X130988536Y-98450087D01*
X130988534Y-98450088D01*
X130972813Y-98456600D01*
X130972811Y-98456601D01*
X130961349Y-98461349D01*
X130956602Y-98472807D01*
X130956601Y-98472810D01*
X130950087Y-98488537D01*
X130945339Y-98500000D01*
X130948094Y-98506652D01*
X130949500Y-98520918D01*
X130949500Y-111479082D01*
X130948094Y-111493348D01*
X130945339Y-111500000D01*
X119054661Y-111500000D01*
X119051904Y-111493345D01*
X119050500Y-111479082D01*
X119050500Y-98520918D01*
X119051904Y-98506654D01*
X119054661Y-98500000D01*
X119038651Y-98461349D01*
X119010045Y-98449500D01*
X119000000Y-98445339D01*
X118993348Y-98448094D01*
X118979082Y-98449500D01*
X106020918Y-98449500D01*
X106006651Y-98448094D01*
X106000000Y-98445339D01*
X105989955Y-98449500D01*
X105988536Y-98450087D01*
X105988534Y-98450088D01*
X105972813Y-98456600D01*
X105972811Y-98456601D01*
X105961349Y-98461349D01*
X105956602Y-98472807D01*
X105956601Y-98472810D01*
X105950087Y-98488537D01*
X105945339Y-98500000D01*
X105948094Y-98506652D01*
X105949500Y-98520918D01*
X105949500Y-111479082D01*
X105948094Y-111493348D01*
X105945339Y-111500000D01*
X94054661Y-111500000D01*
X94051904Y-111493345D01*
X94050500Y-111479082D01*
X94050500Y-98520918D01*
X94051904Y-98506654D01*
X94054661Y-98500000D01*
X94038651Y-98461349D01*
X94010045Y-98449500D01*
X94000000Y-98445339D01*
X93993348Y-98448094D01*
X93979082Y-98449500D01*
X81020918Y-98449500D01*
X81006651Y-98448094D01*
X81000000Y-98445339D01*
X80989955Y-98449500D01*
X80988536Y-98450087D01*
X80988534Y-98450088D01*
X80972813Y-98456600D01*
X80972811Y-98456601D01*
X80961349Y-98461349D01*
X80956602Y-98472807D01*
X80956601Y-98472810D01*
X80950087Y-98488537D01*
X80945339Y-98500000D01*
X80948094Y-98506652D01*
X80949500Y-98520918D01*
X80949500Y-111479082D01*
X80948094Y-111493348D01*
X80945339Y-111500000D01*
X69054661Y-111500000D01*
X69051904Y-111493345D01*
X69050500Y-111479082D01*
X69050500Y-98520918D01*
X69051904Y-98506654D01*
X69054661Y-98500000D01*
X69038651Y-98461349D01*
X69010045Y-98449500D01*
X69000000Y-98445339D01*
X68993348Y-98448094D01*
X68979082Y-98449500D01*
X56020918Y-98449500D01*
X56006651Y-98448094D01*
X56000000Y-98445339D01*
X55989955Y-98449500D01*
X55988536Y-98450087D01*
X55988534Y-98450088D01*
X55972813Y-98456600D01*
X55972811Y-98456601D01*
X55961349Y-98461349D01*
X55956602Y-98472807D01*
X55956601Y-98472810D01*
X55950087Y-98488537D01*
X55945339Y-98500000D01*
X55948094Y-98506652D01*
X55949500Y-98520918D01*
X55949500Y-111479082D01*
X55948094Y-111493348D01*
X55945339Y-111500000D01*
X50050500Y-111500000D01*
X50050500Y-88000000D01*
X122244473Y-88000000D01*
X122264564Y-88332142D01*
X122265247Y-88335871D01*
X122265249Y-88335884D01*
X122323857Y-88655696D01*
X122323859Y-88655707D01*
X122324544Y-88659441D01*
X122325675Y-88663072D01*
X122325676Y-88663074D01*
X122422403Y-88973486D01*
X122422406Y-88973495D01*
X122423537Y-88977123D01*
X122425101Y-88980598D01*
X122558537Y-89277081D01*
X122558541Y-89277088D01*
X122560102Y-89280557D01*
X122732246Y-89565318D01*
X122937458Y-89827252D01*
X123172748Y-90062542D01*
X123434682Y-90267754D01*
X123719443Y-90439898D01*
X124022877Y-90576463D01*
X124340559Y-90675456D01*
X124667858Y-90735436D01*
X124916894Y-90750500D01*
X125081218Y-90750500D01*
X125083106Y-90750500D01*
X125332142Y-90735436D01*
X125659441Y-90675456D01*
X125977123Y-90576463D01*
X126280557Y-90439898D01*
X126565318Y-90267754D01*
X126827252Y-90062542D01*
X127062542Y-89827252D01*
X127267754Y-89565318D01*
X127439898Y-89280557D01*
X127576463Y-88977123D01*
X127675456Y-88659441D01*
X127735436Y-88332142D01*
X127755527Y-88000000D01*
X127735436Y-87667858D01*
X127675456Y-87340559D01*
X127576463Y-87022877D01*
X127439898Y-86719443D01*
X127267754Y-86434682D01*
X127062542Y-86172748D01*
X126827252Y-85937458D01*
X126604331Y-85762811D01*
X126568309Y-85734589D01*
X126568305Y-85734586D01*
X126565318Y-85732246D01*
X126280557Y-85560102D01*
X126277088Y-85558541D01*
X126277081Y-85558537D01*
X125980598Y-85425101D01*
X125977123Y-85423537D01*
X125973495Y-85422406D01*
X125973486Y-85422403D01*
X125663074Y-85325676D01*
X125663072Y-85325675D01*
X125659441Y-85324544D01*
X125655707Y-85323859D01*
X125655696Y-85323857D01*
X125335884Y-85265249D01*
X125335871Y-85265247D01*
X125332142Y-85264564D01*
X125328348Y-85264334D01*
X125328344Y-85264334D01*
X125084992Y-85249614D01*
X125084989Y-85249613D01*
X125083106Y-85249500D01*
X124916894Y-85249500D01*
X124915011Y-85249613D01*
X124915007Y-85249614D01*
X124671655Y-85264334D01*
X124671649Y-85264334D01*
X124667858Y-85264564D01*
X124664130Y-85265247D01*
X124664115Y-85265249D01*
X124344303Y-85323857D01*
X124344289Y-85323860D01*
X124340559Y-85324544D01*
X124336931Y-85325674D01*
X124336925Y-85325676D01*
X124026513Y-85422403D01*
X124026498Y-85422408D01*
X124022877Y-85423537D01*
X124019407Y-85425098D01*
X124019401Y-85425101D01*
X123722918Y-85558537D01*
X123722904Y-85558544D01*
X123719443Y-85560102D01*
X123716186Y-85562070D01*
X123716182Y-85562073D01*
X123437935Y-85730279D01*
X123437929Y-85730282D01*
X123434682Y-85732246D01*
X123431701Y-85734581D01*
X123431690Y-85734589D01*
X123175750Y-85935105D01*
X123175739Y-85935114D01*
X123172748Y-85937458D01*
X123170053Y-85940152D01*
X123170045Y-85940160D01*
X122940160Y-86170045D01*
X122940152Y-86170053D01*
X122937458Y-86172748D01*
X122935114Y-86175739D01*
X122935105Y-86175750D01*
X122734589Y-86431690D01*
X122734581Y-86431701D01*
X122732246Y-86434682D01*
X122560102Y-86719443D01*
X122558544Y-86722904D01*
X122558537Y-86722918D01*
X122425101Y-87019401D01*
X122423537Y-87022877D01*
X122422408Y-87026498D01*
X122422403Y-87026513D01*
X122325676Y-87336925D01*
X122324544Y-87340559D01*
X122323860Y-87344289D01*
X122323857Y-87344303D01*
X122265249Y-87664115D01*
X122265247Y-87664130D01*
X122264564Y-87667858D01*
X122244473Y-88000000D01*
X50050500Y-88000000D01*
X50050500Y-85121965D01*
X54242763Y-85121965D01*
X54250964Y-85133349D01*
X54427408Y-85271583D01*
X54433678Y-85275911D01*
X54712690Y-85444579D01*
X54719426Y-85448115D01*
X55016736Y-85581923D01*
X55023848Y-85584621D01*
X55335128Y-85681619D01*
X55342505Y-85683438D01*
X55663209Y-85742209D01*
X55670749Y-85743124D01*
X55996198Y-85762811D01*
X56003802Y-85762811D01*
X56329250Y-85743124D01*
X56336790Y-85742209D01*
X56657494Y-85683438D01*
X56664871Y-85681619D01*
X56976151Y-85584621D01*
X56983263Y-85581923D01*
X57280573Y-85448115D01*
X57287309Y-85444579D01*
X57566332Y-85275904D01*
X57572577Y-85271594D01*
X57749035Y-85133348D01*
X57757235Y-85121965D01*
X142242763Y-85121965D01*
X142250964Y-85133349D01*
X142427408Y-85271583D01*
X142433678Y-85275911D01*
X142712690Y-85444579D01*
X142719426Y-85448115D01*
X143016736Y-85581923D01*
X143023848Y-85584621D01*
X143335128Y-85681619D01*
X143342505Y-85683438D01*
X143663209Y-85742209D01*
X143670749Y-85743124D01*
X143996198Y-85762811D01*
X144003802Y-85762811D01*
X144329250Y-85743124D01*
X144336790Y-85742209D01*
X144657494Y-85683438D01*
X144664871Y-85681619D01*
X144976151Y-85584621D01*
X144983263Y-85581923D01*
X145280573Y-85448115D01*
X145287309Y-85444579D01*
X145566332Y-85275904D01*
X145572577Y-85271594D01*
X145749035Y-85133348D01*
X145757235Y-85121965D01*
X145750466Y-85109676D01*
X144011729Y-83370939D01*
X144000000Y-83364167D01*
X143988270Y-83370939D01*
X142249532Y-85109676D01*
X142242763Y-85121965D01*
X57757235Y-85121965D01*
X57750466Y-85109676D01*
X56011729Y-83370939D01*
X56000000Y-83364167D01*
X55988270Y-83370939D01*
X54249532Y-85109676D01*
X54242763Y-85121965D01*
X50050500Y-85121965D01*
X50050500Y-83003802D01*
X53237189Y-83003802D01*
X53256875Y-83329250D01*
X53257790Y-83336790D01*
X53316561Y-83657494D01*
X53318380Y-83664871D01*
X53415378Y-83976151D01*
X53418076Y-83983263D01*
X53551884Y-84280573D01*
X53555420Y-84287309D01*
X53724088Y-84566321D01*
X53728416Y-84572591D01*
X53866649Y-84749034D01*
X53878033Y-84757235D01*
X53890322Y-84750466D01*
X55629060Y-83011729D01*
X55635832Y-83000000D01*
X56364167Y-83000000D01*
X56370939Y-83011729D01*
X58109676Y-84750466D01*
X58121965Y-84757235D01*
X58133348Y-84749035D01*
X58271594Y-84572577D01*
X58275904Y-84566332D01*
X58444579Y-84287309D01*
X58448115Y-84280573D01*
X58581923Y-83983263D01*
X58584621Y-83976151D01*
X58681619Y-83664871D01*
X58683438Y-83657494D01*
X58742209Y-83336790D01*
X58743124Y-83329250D01*
X58762811Y-83003802D01*
X141237189Y-83003802D01*
X141256875Y-83329250D01*
X141257790Y-83336790D01*
X141316561Y-83657494D01*
X141318380Y-83664871D01*
X141415378Y-83976151D01*
X141418076Y-83983263D01*
X141551884Y-84280573D01*
X141555420Y-84287309D01*
X141724088Y-84566321D01*
X141728416Y-84572591D01*
X141866649Y-84749034D01*
X141878033Y-84757235D01*
X141890322Y-84750466D01*
X143629060Y-83011729D01*
X143635832Y-83000000D01*
X144364167Y-83000000D01*
X144370939Y-83011729D01*
X146109676Y-84750466D01*
X146121965Y-84757235D01*
X146133348Y-84749035D01*
X146271594Y-84572577D01*
X146275904Y-84566332D01*
X146444579Y-84287309D01*
X146448115Y-84280573D01*
X146581923Y-83983263D01*
X146584621Y-83976151D01*
X146681619Y-83664871D01*
X146683438Y-83657494D01*
X146742209Y-83336790D01*
X146743124Y-83329250D01*
X146762811Y-83003802D01*
X146762811Y-82996198D01*
X146743124Y-82670749D01*
X146742209Y-82663209D01*
X146683438Y-82342505D01*
X146681619Y-82335128D01*
X146584621Y-82023848D01*
X146581923Y-82016736D01*
X146448115Y-81719426D01*
X146444579Y-81712690D01*
X146275911Y-81433678D01*
X146271583Y-81427408D01*
X146133349Y-81250964D01*
X146121965Y-81242763D01*
X146109676Y-81249532D01*
X144370939Y-82988270D01*
X144364167Y-83000000D01*
X143635832Y-83000000D01*
X143629060Y-82988270D01*
X141890322Y-81249532D01*
X141878032Y-81242763D01*
X141866651Y-81250961D01*
X141728406Y-81427421D01*
X141724093Y-81433670D01*
X141555420Y-81712690D01*
X141551884Y-81719426D01*
X141418076Y-82016736D01*
X141415378Y-82023848D01*
X141318380Y-82335128D01*
X141316561Y-82342505D01*
X141257790Y-82663209D01*
X141256875Y-82670749D01*
X141237189Y-82996198D01*
X141237189Y-83003802D01*
X58762811Y-83003802D01*
X58762811Y-82996198D01*
X58743124Y-82670749D01*
X58742209Y-82663209D01*
X58683438Y-82342505D01*
X58681619Y-82335128D01*
X58584621Y-82023848D01*
X58581923Y-82016736D01*
X58448115Y-81719426D01*
X58444579Y-81712690D01*
X58275911Y-81433678D01*
X58271583Y-81427408D01*
X58133349Y-81250964D01*
X58121965Y-81242763D01*
X58109676Y-81249532D01*
X56370939Y-82988270D01*
X56364167Y-83000000D01*
X55635832Y-83000000D01*
X55629060Y-82988270D01*
X53890322Y-81249532D01*
X53878032Y-81242763D01*
X53866651Y-81250961D01*
X53728406Y-81427421D01*
X53724093Y-81433670D01*
X53555420Y-81712690D01*
X53551884Y-81719426D01*
X53418076Y-82016736D01*
X53415378Y-82023848D01*
X53318380Y-82335128D01*
X53316561Y-82342505D01*
X53257790Y-82663209D01*
X53256875Y-82670749D01*
X53237189Y-82996198D01*
X53237189Y-83003802D01*
X50050500Y-83003802D01*
X50050500Y-80878032D01*
X54242763Y-80878032D01*
X54249532Y-80890322D01*
X55988270Y-82629060D01*
X56000000Y-82635832D01*
X56011729Y-82629060D01*
X57750466Y-80890322D01*
X57757235Y-80878033D01*
X57757234Y-80878032D01*
X142242763Y-80878032D01*
X142249532Y-80890322D01*
X143988270Y-82629060D01*
X143999999Y-82635832D01*
X144011729Y-82629060D01*
X145750466Y-80890322D01*
X145757235Y-80878033D01*
X145749034Y-80866649D01*
X145572591Y-80728416D01*
X145566321Y-80724088D01*
X145287309Y-80555420D01*
X145280573Y-80551884D01*
X144983263Y-80418076D01*
X144976151Y-80415378D01*
X144664871Y-80318380D01*
X144657494Y-80316561D01*
X144336790Y-80257790D01*
X144329250Y-80256875D01*
X144003802Y-80237189D01*
X143996198Y-80237189D01*
X143670749Y-80256875D01*
X143663209Y-80257790D01*
X143342505Y-80316561D01*
X143335128Y-80318380D01*
X143023848Y-80415378D01*
X143016736Y-80418076D01*
X142719426Y-80551884D01*
X142712690Y-80555420D01*
X142433670Y-80724093D01*
X142427421Y-80728406D01*
X142250961Y-80866651D01*
X142242763Y-80878032D01*
X57757234Y-80878032D01*
X57749034Y-80866649D01*
X57572591Y-80728416D01*
X57566321Y-80724088D01*
X57287309Y-80555420D01*
X57280573Y-80551884D01*
X56983263Y-80418076D01*
X56976151Y-80415378D01*
X56664871Y-80318380D01*
X56657494Y-80316561D01*
X56336790Y-80257790D01*
X56329250Y-80256875D01*
X56003802Y-80237189D01*
X55996198Y-80237189D01*
X55670749Y-80256875D01*
X55663209Y-80257790D01*
X55342505Y-80316561D01*
X55335128Y-80318380D01*
X55023848Y-80415378D01*
X55016736Y-80418076D01*
X54719426Y-80551884D01*
X54712690Y-80555420D01*
X54433670Y-80724093D01*
X54427421Y-80728406D01*
X54250961Y-80866651D01*
X54242763Y-80878032D01*
X50050500Y-80878032D01*
X50050500Y-76471340D01*
X66923090Y-76471340D01*
X66930533Y-76482943D01*
X66994058Y-76539713D01*
X66999576Y-76544114D01*
X67287664Y-76748522D01*
X67293649Y-76752283D01*
X67602811Y-76923151D01*
X67609175Y-76926216D01*
X67935526Y-77061395D01*
X67942193Y-77063727D01*
X68281637Y-77161520D01*
X68288506Y-77163088D01*
X68636767Y-77222260D01*
X68643780Y-77223050D01*
X68996474Y-77242857D01*
X69003526Y-77242857D01*
X69356219Y-77223050D01*
X69363232Y-77222260D01*
X69711493Y-77163088D01*
X69718362Y-77161520D01*
X70057806Y-77063727D01*
X70064473Y-77061395D01*
X70390824Y-76926216D01*
X70397188Y-76923151D01*
X70706350Y-76752283D01*
X70712335Y-76748522D01*
X71000424Y-76544113D01*
X71005940Y-76539714D01*
X71069466Y-76482942D01*
X71076908Y-76471341D01*
X71076907Y-76471340D01*
X122803090Y-76471340D01*
X122810533Y-76482943D01*
X122874058Y-76539713D01*
X122879576Y-76544114D01*
X123167664Y-76748522D01*
X123173649Y-76752283D01*
X123482811Y-76923151D01*
X123489175Y-76926216D01*
X123815526Y-77061395D01*
X123822193Y-77063727D01*
X124161637Y-77161520D01*
X124168506Y-77163088D01*
X124516767Y-77222260D01*
X124523780Y-77223050D01*
X124876474Y-77242857D01*
X124883526Y-77242857D01*
X125236219Y-77223050D01*
X125243232Y-77222260D01*
X125591493Y-77163088D01*
X125598362Y-77161520D01*
X125937806Y-77063727D01*
X125944473Y-77061395D01*
X126270824Y-76926216D01*
X126277188Y-76923151D01*
X126586350Y-76752283D01*
X126592335Y-76748522D01*
X126880424Y-76544113D01*
X126885940Y-76539714D01*
X126949466Y-76482942D01*
X126956908Y-76471341D01*
X126950125Y-76459335D01*
X124891729Y-74400939D01*
X124880000Y-74394167D01*
X124868270Y-74400939D01*
X122809873Y-76459335D01*
X122803090Y-76471340D01*
X71076907Y-76471340D01*
X71070125Y-76459335D01*
X69011729Y-74400939D01*
X69000000Y-74394167D01*
X68988270Y-74400939D01*
X66929873Y-76459335D01*
X66923090Y-76471340D01*
X50050500Y-76471340D01*
X50050500Y-74033526D01*
X65787143Y-74033526D01*
X65806949Y-74386219D01*
X65807739Y-74393232D01*
X65866911Y-74741493D01*
X65868479Y-74748362D01*
X65966272Y-75087806D01*
X65968604Y-75094473D01*
X66103783Y-75420824D01*
X66106848Y-75427188D01*
X66277716Y-75736350D01*
X66281477Y-75742335D01*
X66485885Y-76030423D01*
X66490286Y-76035941D01*
X66547055Y-76099465D01*
X66558658Y-76106908D01*
X66570663Y-76100125D01*
X68629060Y-74041729D01*
X68635832Y-74030000D01*
X69364167Y-74030000D01*
X69370939Y-74041729D01*
X71429335Y-76100125D01*
X71441341Y-76106908D01*
X71452942Y-76099466D01*
X71509714Y-76035940D01*
X71514113Y-76030424D01*
X71718522Y-75742335D01*
X71722283Y-75736350D01*
X71893151Y-75427188D01*
X71896216Y-75420824D01*
X72031395Y-75094473D01*
X72033727Y-75087806D01*
X72131520Y-74748362D01*
X72133088Y-74741493D01*
X72192260Y-74393232D01*
X72193050Y-74386219D01*
X72212857Y-74033526D01*
X121667143Y-74033526D01*
X121686949Y-74386219D01*
X121687739Y-74393232D01*
X121746911Y-74741493D01*
X121748479Y-74748362D01*
X121846272Y-75087806D01*
X121848604Y-75094473D01*
X121983783Y-75420824D01*
X121986848Y-75427188D01*
X122157716Y-75736350D01*
X122161477Y-75742335D01*
X122365885Y-76030423D01*
X122370286Y-76035941D01*
X122427055Y-76099465D01*
X122438658Y-76106908D01*
X122450663Y-76100125D01*
X124509060Y-74041729D01*
X124515832Y-74030000D01*
X124515831Y-74029999D01*
X125244167Y-74029999D01*
X125250939Y-74041729D01*
X127309335Y-76100125D01*
X127321341Y-76106908D01*
X127332942Y-76099466D01*
X127389714Y-76035940D01*
X127394113Y-76030424D01*
X127598522Y-75742335D01*
X127602283Y-75736350D01*
X127773151Y-75427188D01*
X127776216Y-75420824D01*
X127911395Y-75094473D01*
X127913727Y-75087806D01*
X128011520Y-74748362D01*
X128013088Y-74741493D01*
X128072260Y-74393232D01*
X128073050Y-74386219D01*
X128092857Y-74033526D01*
X128092857Y-74026474D01*
X128073050Y-73673780D01*
X128072260Y-73666767D01*
X128013088Y-73318506D01*
X128011520Y-73311637D01*
X127913727Y-72972193D01*
X127911395Y-72965526D01*
X127776216Y-72639175D01*
X127773151Y-72632811D01*
X127602283Y-72323649D01*
X127598522Y-72317664D01*
X127394114Y-72029576D01*
X127389713Y-72024058D01*
X127332943Y-71960533D01*
X127321340Y-71953090D01*
X127309335Y-71959873D01*
X125250939Y-74018270D01*
X125244167Y-74029999D01*
X124515831Y-74029999D01*
X124509060Y-74018270D01*
X122450663Y-71959873D01*
X122438659Y-71953091D01*
X122427053Y-71960536D01*
X122370284Y-72024060D01*
X122365890Y-72029570D01*
X122161477Y-72317664D01*
X122157716Y-72323649D01*
X121986848Y-72632811D01*
X121983783Y-72639175D01*
X121848604Y-72965526D01*
X121846272Y-72972193D01*
X121748479Y-73311637D01*
X121746911Y-73318506D01*
X121687739Y-73666767D01*
X121686949Y-73673780D01*
X121667143Y-74026474D01*
X121667143Y-74033526D01*
X72212857Y-74033526D01*
X72212857Y-74026474D01*
X72193050Y-73673780D01*
X72192260Y-73666767D01*
X72133088Y-73318506D01*
X72131520Y-73311637D01*
X72033727Y-72972193D01*
X72031395Y-72965526D01*
X71896216Y-72639175D01*
X71893151Y-72632811D01*
X71722283Y-72323649D01*
X71718522Y-72317664D01*
X71514114Y-72029576D01*
X71509713Y-72024058D01*
X71452943Y-71960533D01*
X71441340Y-71953090D01*
X71429335Y-71959873D01*
X69370939Y-74018270D01*
X69364167Y-74030000D01*
X68635832Y-74030000D01*
X68629060Y-74018270D01*
X66570663Y-71959873D01*
X66558659Y-71953091D01*
X66547053Y-71960536D01*
X66490284Y-72024060D01*
X66485890Y-72029570D01*
X66281477Y-72317664D01*
X66277716Y-72323649D01*
X66106848Y-72632811D01*
X66103783Y-72639175D01*
X65968604Y-72965526D01*
X65966272Y-72972193D01*
X65868479Y-73311637D01*
X65866911Y-73318506D01*
X65807739Y-73666767D01*
X65806949Y-73673780D01*
X65787143Y-74026474D01*
X65787143Y-74033526D01*
X50050500Y-74033526D01*
X50050500Y-71588659D01*
X66923091Y-71588659D01*
X66929873Y-71600663D01*
X68988270Y-73659060D01*
X68999999Y-73665832D01*
X69011729Y-73659060D01*
X71070125Y-71600663D01*
X71076907Y-71588659D01*
X122803091Y-71588659D01*
X122809873Y-71600663D01*
X124868270Y-73659060D01*
X124879999Y-73665832D01*
X124891729Y-73659060D01*
X126950125Y-71600663D01*
X126956908Y-71588658D01*
X126949465Y-71577055D01*
X126885941Y-71520286D01*
X126880423Y-71515885D01*
X126592335Y-71311477D01*
X126586350Y-71307716D01*
X126277188Y-71136848D01*
X126270824Y-71133783D01*
X125944473Y-70998604D01*
X125937806Y-70996272D01*
X125598362Y-70898479D01*
X125591493Y-70896911D01*
X125243232Y-70837739D01*
X125236219Y-70836949D01*
X124883526Y-70817143D01*
X124876474Y-70817143D01*
X124523780Y-70836949D01*
X124516767Y-70837739D01*
X124168506Y-70896911D01*
X124161637Y-70898479D01*
X123822193Y-70996272D01*
X123815526Y-70998604D01*
X123489175Y-71133783D01*
X123482811Y-71136848D01*
X123173649Y-71307716D01*
X123167664Y-71311477D01*
X122879570Y-71515890D01*
X122874060Y-71520284D01*
X122810536Y-71577053D01*
X122803091Y-71588659D01*
X71076907Y-71588659D01*
X71076908Y-71588658D01*
X71069465Y-71577055D01*
X71005941Y-71520286D01*
X71000423Y-71515885D01*
X70712335Y-71311477D01*
X70706350Y-71307716D01*
X70397188Y-71136848D01*
X70390824Y-71133783D01*
X70064473Y-70998604D01*
X70057806Y-70996272D01*
X69718362Y-70898479D01*
X69711493Y-70896911D01*
X69363232Y-70837739D01*
X69356219Y-70836949D01*
X69003526Y-70817143D01*
X68996474Y-70817143D01*
X68643780Y-70836949D01*
X68636767Y-70837739D01*
X68288506Y-70896911D01*
X68281637Y-70898479D01*
X67942193Y-70996272D01*
X67935526Y-70998604D01*
X67609175Y-71133783D01*
X67602811Y-71136848D01*
X67293649Y-71307716D01*
X67287664Y-71311477D01*
X66999570Y-71515890D01*
X66994060Y-71520284D01*
X66930536Y-71577053D01*
X66923091Y-71588659D01*
X50050500Y-71588659D01*
X50050500Y-69800000D01*
X75045339Y-69800000D01*
X75049500Y-69810045D01*
X75061349Y-69838651D01*
X75100000Y-69854661D01*
X75106654Y-69851904D01*
X75120918Y-69850500D01*
X125079082Y-69850500D01*
X125093345Y-69851904D01*
X125100000Y-69854661D01*
X125138651Y-69838651D01*
X125150500Y-69810045D01*
X125154661Y-69800000D01*
X125151904Y-69793345D01*
X125150500Y-69779082D01*
X125150500Y-29820918D01*
X125151904Y-29806654D01*
X125154661Y-29800000D01*
X125138651Y-29761349D01*
X125110045Y-29749500D01*
X125100000Y-29745339D01*
X125093348Y-29748094D01*
X125079082Y-29749500D01*
X75120918Y-29749500D01*
X75106651Y-29748094D01*
X75100000Y-29745339D01*
X75089955Y-29749500D01*
X75088536Y-29750087D01*
X75088534Y-29750088D01*
X75072813Y-29756600D01*
X75072811Y-29756601D01*
X75061349Y-29761349D01*
X75056602Y-29772807D01*
X75056601Y-29772810D01*
X75050087Y-29788537D01*
X75045339Y-29800000D01*
X75048094Y-29806652D01*
X75049500Y-29820918D01*
X75049500Y-69779082D01*
X75048094Y-69793348D01*
X75045339Y-69800000D01*
X50050500Y-69800000D01*
X50050500Y-55297497D01*
X57065652Y-55297497D01*
X57074820Y-55304628D01*
X57211841Y-55365634D01*
X57224319Y-55369688D01*
X57398107Y-55406627D01*
X57411168Y-55408000D01*
X57588832Y-55408000D01*
X57601892Y-55406627D01*
X57775680Y-55369688D01*
X57788158Y-55365634D01*
X57925177Y-55304628D01*
X57934346Y-55297497D01*
X57928341Y-55287551D01*
X57511729Y-54870939D01*
X57499999Y-54864167D01*
X57488271Y-54870938D01*
X57071657Y-55287551D01*
X57065652Y-55297497D01*
X50050500Y-55297497D01*
X50050500Y-54506565D01*
X56587688Y-54506565D01*
X56606259Y-54683260D01*
X56608988Y-54696101D01*
X56663888Y-54865066D01*
X56669235Y-54877074D01*
X56696570Y-54924419D01*
X56704372Y-54932750D01*
X56714065Y-54926723D01*
X57129059Y-54511730D01*
X57135832Y-54499999D01*
X57864167Y-54499999D01*
X57870939Y-54511729D01*
X58285929Y-54926719D01*
X58295626Y-54932749D01*
X58303429Y-54924418D01*
X58330770Y-54877064D01*
X58336108Y-54865074D01*
X58391011Y-54696101D01*
X58393740Y-54683260D01*
X58412312Y-54506565D01*
X58412312Y-54493435D01*
X58393740Y-54316739D01*
X58391011Y-54303898D01*
X58336111Y-54134933D01*
X58330764Y-54122926D01*
X58316083Y-54097497D01*
X60165652Y-54097497D01*
X60174820Y-54104628D01*
X60311841Y-54165634D01*
X60324319Y-54169688D01*
X60498107Y-54206627D01*
X60511168Y-54208000D01*
X60688832Y-54208000D01*
X60701892Y-54206627D01*
X60875680Y-54169688D01*
X60888158Y-54165634D01*
X61025177Y-54104628D01*
X61034346Y-54097497D01*
X61028341Y-54087551D01*
X60611729Y-53670939D01*
X60599999Y-53664167D01*
X60588271Y-53670938D01*
X60171657Y-54087551D01*
X60165652Y-54097497D01*
X58316083Y-54097497D01*
X58303429Y-54075579D01*
X58295626Y-54067248D01*
X58285932Y-54073276D01*
X57870938Y-54488271D01*
X57864167Y-54499999D01*
X57135832Y-54499999D01*
X57129060Y-54488270D01*
X56714067Y-54073277D01*
X56704372Y-54067248D01*
X56696570Y-54075578D01*
X56669234Y-54122927D01*
X56663889Y-54134933D01*
X56608988Y-54303898D01*
X56606259Y-54316739D01*
X56587688Y-54493435D01*
X56587688Y-54506565D01*
X50050500Y-54506565D01*
X50050500Y-53997497D01*
X53865652Y-53997497D01*
X53874820Y-54004628D01*
X54011841Y-54065634D01*
X54024319Y-54069688D01*
X54198107Y-54106627D01*
X54211168Y-54108000D01*
X54388832Y-54108000D01*
X54401892Y-54106627D01*
X54575680Y-54069688D01*
X54588158Y-54065634D01*
X54725177Y-54004628D01*
X54734346Y-53997497D01*
X54728341Y-53987551D01*
X54311729Y-53570939D01*
X54299999Y-53564167D01*
X54288271Y-53570938D01*
X53871657Y-53987551D01*
X53865652Y-53997497D01*
X50050500Y-53997497D01*
X50050500Y-53206565D01*
X53387688Y-53206565D01*
X53406259Y-53383260D01*
X53408988Y-53396101D01*
X53463888Y-53565066D01*
X53469235Y-53577074D01*
X53496570Y-53624419D01*
X53504372Y-53632750D01*
X53514065Y-53626723D01*
X53929059Y-53211730D01*
X53935832Y-53199999D01*
X54664167Y-53199999D01*
X54670939Y-53211729D01*
X55085929Y-53626719D01*
X55095626Y-53632749D01*
X55103429Y-53624418D01*
X55130770Y-53577064D01*
X55136108Y-53565074D01*
X55191011Y-53396101D01*
X55193740Y-53383260D01*
X55212312Y-53206565D01*
X55212312Y-53193435D01*
X55193740Y-53016739D01*
X55191011Y-53003898D01*
X55136111Y-52834933D01*
X55130764Y-52822926D01*
X55103429Y-52775579D01*
X55095626Y-52767248D01*
X55085932Y-52773276D01*
X54670938Y-53188271D01*
X54664167Y-53199999D01*
X53935832Y-53199999D01*
X53929060Y-53188270D01*
X53514067Y-52773277D01*
X53504372Y-52767248D01*
X53496570Y-52775578D01*
X53469234Y-52822927D01*
X53463889Y-52834933D01*
X53408988Y-53003898D01*
X53406259Y-53016739D01*
X53387688Y-53193435D01*
X53387688Y-53206565D01*
X50050500Y-53206565D01*
X50050500Y-52402502D01*
X53865652Y-52402502D01*
X53871657Y-52412447D01*
X54288270Y-52829060D01*
X54299999Y-52835832D01*
X54311730Y-52829059D01*
X54728343Y-52412445D01*
X54734347Y-52402502D01*
X54725178Y-52395370D01*
X54588159Y-52334366D01*
X54575680Y-52330311D01*
X54401892Y-52293372D01*
X54388832Y-52292000D01*
X54211168Y-52292000D01*
X54198107Y-52293372D01*
X54024326Y-52330310D01*
X54011833Y-52334369D01*
X53874823Y-52395369D01*
X53865652Y-52402502D01*
X50050500Y-52402502D01*
X50050500Y-50797497D01*
X52565652Y-50797497D01*
X52574820Y-50804628D01*
X52711841Y-50865634D01*
X52724319Y-50869688D01*
X52898107Y-50906627D01*
X52911168Y-50908000D01*
X53088832Y-50908000D01*
X53101892Y-50906627D01*
X53275680Y-50869688D01*
X53288158Y-50865634D01*
X53425177Y-50804628D01*
X53434346Y-50797497D01*
X53428341Y-50787551D01*
X53011729Y-50370939D01*
X52999999Y-50364167D01*
X52988271Y-50370938D01*
X52571657Y-50787551D01*
X52565652Y-50797497D01*
X50050500Y-50797497D01*
X50050500Y-50006565D01*
X52087688Y-50006565D01*
X52106259Y-50183260D01*
X52108988Y-50196101D01*
X52163888Y-50365066D01*
X52169235Y-50377074D01*
X52196570Y-50424419D01*
X52204372Y-50432750D01*
X52214065Y-50426723D01*
X52629059Y-50011730D01*
X52635832Y-49999999D01*
X53364167Y-49999999D01*
X53370939Y-50011729D01*
X53785929Y-50426719D01*
X53795626Y-50432749D01*
X53803429Y-50424418D01*
X53830770Y-50377064D01*
X53836108Y-50365074D01*
X53891011Y-50196101D01*
X53893740Y-50183260D01*
X53900333Y-50120535D01*
X53921781Y-50062369D01*
X53968372Y-50021472D01*
X54028827Y-50007744D01*
X54088511Y-50024509D01*
X54132976Y-50067707D01*
X54151458Y-50126882D01*
X54154515Y-50183260D01*
X54164249Y-50362785D01*
X54164799Y-50366139D01*
X54164800Y-50366149D01*
X54222474Y-50717947D01*
X54222476Y-50717959D01*
X54223027Y-50721316D01*
X54223935Y-50724588D01*
X54223939Y-50724604D01*
X54319312Y-51068104D01*
X54320225Y-51071391D01*
X54321483Y-51074549D01*
X54321487Y-51074560D01*
X54453440Y-51405738D01*
X54454702Y-51408905D01*
X54624883Y-51729900D01*
X54626793Y-51732717D01*
X54626796Y-51732722D01*
X54826855Y-52027786D01*
X54826860Y-52027792D01*
X54828773Y-52030614D01*
X54830981Y-52033213D01*
X54830986Y-52033220D01*
X55050795Y-52292000D01*
X55063979Y-52307521D01*
X55066448Y-52309860D01*
X55066454Y-52309866D01*
X55262287Y-52495369D01*
X55327746Y-52557375D01*
X55616981Y-52777245D01*
X55928292Y-52964555D01*
X56258031Y-53117108D01*
X56602330Y-53233116D01*
X56957153Y-53311218D01*
X57318341Y-53350500D01*
X57321756Y-53350500D01*
X57341921Y-53350500D01*
X57401074Y-53365249D01*
X57446380Y-53406042D01*
X57467231Y-53463330D01*
X57458746Y-53523701D01*
X57422912Y-53573022D01*
X57368117Y-53599747D01*
X57224326Y-53630310D01*
X57211833Y-53634369D01*
X57074823Y-53695369D01*
X57065652Y-53702502D01*
X57071657Y-53712447D01*
X57488270Y-54129060D01*
X57499999Y-54135832D01*
X57511730Y-54129059D01*
X57928343Y-53712445D01*
X57934347Y-53702502D01*
X57925178Y-53695370D01*
X57788159Y-53634366D01*
X57775680Y-53630311D01*
X57631883Y-53599747D01*
X57577088Y-53573022D01*
X57541254Y-53523701D01*
X57532769Y-53463330D01*
X57553620Y-53406042D01*
X57598926Y-53365249D01*
X57658079Y-53350500D01*
X57678244Y-53350500D01*
X57681659Y-53350500D01*
X58042847Y-53311218D01*
X58063986Y-53306565D01*
X59687688Y-53306565D01*
X59706259Y-53483260D01*
X59708988Y-53496101D01*
X59763888Y-53665066D01*
X59769235Y-53677074D01*
X59796570Y-53724419D01*
X59804372Y-53732750D01*
X59814065Y-53726723D01*
X60229059Y-53311730D01*
X60235832Y-53299999D01*
X60964167Y-53299999D01*
X60970939Y-53311729D01*
X61385929Y-53726719D01*
X61395626Y-53732749D01*
X61403429Y-53724418D01*
X61430770Y-53677064D01*
X61436108Y-53665074D01*
X61491011Y-53496101D01*
X61493740Y-53483260D01*
X61512312Y-53306565D01*
X61512312Y-53293435D01*
X61493740Y-53116739D01*
X61491011Y-53103898D01*
X61436111Y-52934933D01*
X61430764Y-52922926D01*
X61403429Y-52875579D01*
X61395626Y-52867248D01*
X61385932Y-52873276D01*
X60970938Y-53288271D01*
X60964167Y-53299999D01*
X60235832Y-53299999D01*
X60229060Y-53288270D01*
X59814067Y-52873277D01*
X59804372Y-52867248D01*
X59796570Y-52875578D01*
X59769234Y-52922927D01*
X59763889Y-52934933D01*
X59708988Y-53103898D01*
X59706259Y-53116739D01*
X59687688Y-53293435D01*
X59687688Y-53306565D01*
X58063986Y-53306565D01*
X58397670Y-53233116D01*
X58741969Y-53117108D01*
X59071708Y-52964555D01*
X59383019Y-52777245D01*
X59672254Y-52557375D01*
X59730183Y-52502502D01*
X60165652Y-52502502D01*
X60171657Y-52512447D01*
X60588270Y-52929060D01*
X60599999Y-52935832D01*
X60611730Y-52929059D01*
X61028343Y-52512445D01*
X61034347Y-52502502D01*
X61025178Y-52495370D01*
X60888159Y-52434366D01*
X60875680Y-52430311D01*
X60701892Y-52393372D01*
X60688832Y-52392000D01*
X60511168Y-52392000D01*
X60498107Y-52393372D01*
X60324326Y-52430310D01*
X60311833Y-52434369D01*
X60174823Y-52495369D01*
X60165652Y-52502502D01*
X59730183Y-52502502D01*
X59936021Y-52307521D01*
X60171227Y-52030614D01*
X60375117Y-51729900D01*
X60545298Y-51408905D01*
X60679775Y-51071391D01*
X60755821Y-50797497D01*
X61565652Y-50797497D01*
X61574820Y-50804628D01*
X61711841Y-50865634D01*
X61724319Y-50869688D01*
X61898107Y-50906627D01*
X61911168Y-50908000D01*
X62088832Y-50908000D01*
X62101892Y-50906627D01*
X62275680Y-50869688D01*
X62288158Y-50865634D01*
X62425177Y-50804628D01*
X62434346Y-50797497D01*
X62428341Y-50787551D01*
X62011729Y-50370939D01*
X61999999Y-50364167D01*
X61988271Y-50370938D01*
X61571657Y-50787551D01*
X61565652Y-50797497D01*
X60755821Y-50797497D01*
X60776973Y-50721316D01*
X60835751Y-50362785D01*
X60848541Y-50126881D01*
X60867022Y-50067708D01*
X60911487Y-50024509D01*
X60971171Y-50007744D01*
X61031626Y-50021471D01*
X61078217Y-50062368D01*
X61099666Y-50120533D01*
X61106259Y-50183261D01*
X61108988Y-50196101D01*
X61163888Y-50365066D01*
X61169235Y-50377074D01*
X61196570Y-50424419D01*
X61204372Y-50432750D01*
X61214065Y-50426723D01*
X61629059Y-50011730D01*
X61635832Y-49999999D01*
X62364167Y-49999999D01*
X62370939Y-50011729D01*
X62785929Y-50426719D01*
X62795626Y-50432749D01*
X62803429Y-50424418D01*
X62830770Y-50377064D01*
X62836108Y-50365074D01*
X62891011Y-50196101D01*
X62893740Y-50183260D01*
X62912312Y-50006565D01*
X62912312Y-49993435D01*
X62893740Y-49816739D01*
X62891011Y-49803898D01*
X62836111Y-49634933D01*
X62830764Y-49622926D01*
X62803429Y-49575579D01*
X62795626Y-49567248D01*
X62785932Y-49573276D01*
X62370938Y-49988271D01*
X62364167Y-49999999D01*
X61635832Y-49999999D01*
X61629060Y-49988270D01*
X61214067Y-49573277D01*
X61204372Y-49567248D01*
X61196570Y-49575578D01*
X61169234Y-49622927D01*
X61163889Y-49634933D01*
X61108988Y-49803898D01*
X61106259Y-49816738D01*
X61099666Y-49879466D01*
X61078217Y-49937631D01*
X61031626Y-49978528D01*
X60971171Y-49992255D01*
X60911487Y-49975490D01*
X60867022Y-49932291D01*
X60848541Y-49873116D01*
X60835751Y-49637215D01*
X60776973Y-49278684D01*
X60755821Y-49202502D01*
X61565652Y-49202502D01*
X61571657Y-49212447D01*
X61988270Y-49629060D01*
X61999999Y-49635832D01*
X62011730Y-49629059D01*
X62428343Y-49212445D01*
X62434347Y-49202502D01*
X62425178Y-49195370D01*
X62288159Y-49134366D01*
X62275680Y-49130311D01*
X62101892Y-49093372D01*
X62088832Y-49092000D01*
X61911168Y-49092000D01*
X61898107Y-49093372D01*
X61724326Y-49130310D01*
X61711833Y-49134369D01*
X61574823Y-49195369D01*
X61565652Y-49202502D01*
X60755821Y-49202502D01*
X60679775Y-48928609D01*
X60545298Y-48591095D01*
X60375117Y-48270100D01*
X60171227Y-47969386D01*
X59936021Y-47692479D01*
X59933550Y-47690138D01*
X59933545Y-47690133D01*
X59835750Y-47597497D01*
X60265652Y-47597497D01*
X60274820Y-47604628D01*
X60411841Y-47665634D01*
X60424319Y-47669688D01*
X60598107Y-47706627D01*
X60611168Y-47708000D01*
X60788832Y-47708000D01*
X60801892Y-47706627D01*
X60975680Y-47669688D01*
X60988158Y-47665634D01*
X61125177Y-47604628D01*
X61134346Y-47597497D01*
X61128341Y-47587551D01*
X60711729Y-47170939D01*
X60699999Y-47164167D01*
X60688271Y-47170938D01*
X60271657Y-47587551D01*
X60265652Y-47597497D01*
X59835750Y-47597497D01*
X59674737Y-47444977D01*
X59674736Y-47444976D01*
X59672254Y-47442625D01*
X59383019Y-47222755D01*
X59307097Y-47177074D01*
X59074627Y-47037201D01*
X59074622Y-47037198D01*
X59071708Y-47035445D01*
X59068624Y-47034018D01*
X59068618Y-47034015D01*
X58745068Y-46884325D01*
X58745056Y-46884320D01*
X58741969Y-46882892D01*
X58738730Y-46881800D01*
X58738726Y-46881799D01*
X58515440Y-46806565D01*
X59787688Y-46806565D01*
X59806259Y-46983260D01*
X59808988Y-46996101D01*
X59863888Y-47165066D01*
X59869235Y-47177074D01*
X59896570Y-47224419D01*
X59904372Y-47232750D01*
X59914065Y-47226723D01*
X60329059Y-46811730D01*
X60335832Y-46799999D01*
X61064167Y-46799999D01*
X61070939Y-46811729D01*
X61485929Y-47226719D01*
X61495626Y-47232749D01*
X61503429Y-47224418D01*
X61530770Y-47177064D01*
X61536108Y-47165074D01*
X61591011Y-46996101D01*
X61593740Y-46983260D01*
X61612312Y-46806565D01*
X61612312Y-46793435D01*
X61593740Y-46616739D01*
X61591011Y-46603898D01*
X61536111Y-46434933D01*
X61530764Y-46422926D01*
X61503429Y-46375579D01*
X61495626Y-46367248D01*
X61485932Y-46373276D01*
X61070938Y-46788271D01*
X61064167Y-46799999D01*
X60335832Y-46799999D01*
X60329060Y-46788270D01*
X59914067Y-46373277D01*
X59904372Y-46367248D01*
X59896570Y-46375578D01*
X59869234Y-46422927D01*
X59863889Y-46434933D01*
X59808988Y-46603898D01*
X59806259Y-46616739D01*
X59787688Y-46793435D01*
X59787688Y-46806565D01*
X58515440Y-46806565D01*
X58400906Y-46767974D01*
X58400900Y-46767972D01*
X58397670Y-46766884D01*
X58394346Y-46766152D01*
X58394334Y-46766149D01*
X58046178Y-46689515D01*
X58046174Y-46689514D01*
X58042847Y-46688782D01*
X58030130Y-46687399D01*
X57685057Y-46649869D01*
X57685046Y-46649868D01*
X57681659Y-46649500D01*
X57658079Y-46649500D01*
X57598926Y-46634751D01*
X57553620Y-46593958D01*
X57532769Y-46536670D01*
X57541254Y-46476299D01*
X57577088Y-46426978D01*
X57631883Y-46400253D01*
X57775680Y-46369688D01*
X57788158Y-46365634D01*
X57925177Y-46304628D01*
X57934346Y-46297497D01*
X57928341Y-46287551D01*
X57643292Y-46002502D01*
X60265652Y-46002502D01*
X60271657Y-46012447D01*
X60688270Y-46429060D01*
X60699999Y-46435832D01*
X60711730Y-46429059D01*
X61128343Y-46012445D01*
X61134347Y-46002502D01*
X61125178Y-45995370D01*
X60988159Y-45934366D01*
X60975680Y-45930311D01*
X60801892Y-45893372D01*
X60788832Y-45892000D01*
X60611168Y-45892000D01*
X60598107Y-45893372D01*
X60424326Y-45930310D01*
X60411833Y-45934369D01*
X60274823Y-45995369D01*
X60265652Y-46002502D01*
X57643292Y-46002502D01*
X57511729Y-45870939D01*
X57499999Y-45864167D01*
X57488271Y-45870938D01*
X57071657Y-46287551D01*
X57065652Y-46297497D01*
X57074820Y-46304628D01*
X57211841Y-46365634D01*
X57224319Y-46369688D01*
X57368117Y-46400253D01*
X57422912Y-46426978D01*
X57458746Y-46476299D01*
X57467231Y-46536670D01*
X57446380Y-46593958D01*
X57401074Y-46634751D01*
X57341921Y-46649500D01*
X57318341Y-46649500D01*
X57314954Y-46649868D01*
X57314942Y-46649869D01*
X56960545Y-46688413D01*
X56960543Y-46688413D01*
X56957153Y-46688782D01*
X56953828Y-46689513D01*
X56953821Y-46689515D01*
X56605665Y-46766149D01*
X56605649Y-46766153D01*
X56602330Y-46766884D01*
X56599104Y-46767970D01*
X56599093Y-46767974D01*
X56261273Y-46881799D01*
X56261262Y-46881803D01*
X56258031Y-46882892D01*
X56254949Y-46884317D01*
X56254931Y-46884325D01*
X55931381Y-47034015D01*
X55931367Y-47034021D01*
X55928292Y-47035445D01*
X55925384Y-47037194D01*
X55925372Y-47037201D01*
X55619913Y-47220990D01*
X55619901Y-47220997D01*
X55616981Y-47222755D01*
X55614265Y-47224819D01*
X55614257Y-47224825D01*
X55330464Y-47440558D01*
X55330454Y-47440565D01*
X55327746Y-47442625D01*
X55325271Y-47444968D01*
X55325262Y-47444977D01*
X55066454Y-47690133D01*
X55066439Y-47690148D01*
X55063979Y-47692479D01*
X55061782Y-47695065D01*
X55061773Y-47695075D01*
X54830986Y-47966779D01*
X54830974Y-47966794D01*
X54828773Y-47969386D01*
X54826866Y-47972197D01*
X54826855Y-47972213D01*
X54626796Y-48267277D01*
X54626787Y-48267290D01*
X54624883Y-48270100D01*
X54623287Y-48273110D01*
X54623283Y-48273117D01*
X54456298Y-48588083D01*
X54456292Y-48588095D01*
X54454702Y-48591095D01*
X54453444Y-48594252D01*
X54453440Y-48594261D01*
X54321487Y-48925439D01*
X54321481Y-48925455D01*
X54320225Y-48928609D01*
X54319315Y-48931884D01*
X54319312Y-48931895D01*
X54223939Y-49275395D01*
X54223934Y-49275415D01*
X54223027Y-49278684D01*
X54222477Y-49282036D01*
X54222474Y-49282052D01*
X54164800Y-49633850D01*
X54164798Y-49633861D01*
X54164249Y-49637215D01*
X54164064Y-49640610D01*
X54164064Y-49640619D01*
X54151458Y-49873117D01*
X54132976Y-49932292D01*
X54088511Y-49975490D01*
X54028827Y-49992255D01*
X53968372Y-49978527D01*
X53921781Y-49937630D01*
X53900333Y-49879465D01*
X53893740Y-49816738D01*
X53891011Y-49803898D01*
X53836111Y-49634933D01*
X53830764Y-49622926D01*
X53803429Y-49575579D01*
X53795626Y-49567248D01*
X53785932Y-49573276D01*
X53370938Y-49988271D01*
X53364167Y-49999999D01*
X52635832Y-49999999D01*
X52629060Y-49988270D01*
X52214067Y-49573277D01*
X52204372Y-49567248D01*
X52196570Y-49575578D01*
X52169234Y-49622927D01*
X52163889Y-49634933D01*
X52108988Y-49803898D01*
X52106259Y-49816739D01*
X52087688Y-49993435D01*
X52087688Y-50006565D01*
X50050500Y-50006565D01*
X50050500Y-49202502D01*
X52565652Y-49202502D01*
X52571657Y-49212447D01*
X52988270Y-49629060D01*
X52999999Y-49635832D01*
X53011730Y-49629059D01*
X53428343Y-49212445D01*
X53434347Y-49202502D01*
X53425178Y-49195370D01*
X53288159Y-49134366D01*
X53275680Y-49130311D01*
X53101892Y-49093372D01*
X53088832Y-49092000D01*
X52911168Y-49092000D01*
X52898107Y-49093372D01*
X52724326Y-49130310D01*
X52711833Y-49134369D01*
X52574823Y-49195369D01*
X52565652Y-49202502D01*
X50050500Y-49202502D01*
X50050500Y-47597497D01*
X53865652Y-47597497D01*
X53874820Y-47604628D01*
X54011841Y-47665634D01*
X54024319Y-47669688D01*
X54198107Y-47706627D01*
X54211168Y-47708000D01*
X54388832Y-47708000D01*
X54401892Y-47706627D01*
X54575680Y-47669688D01*
X54588158Y-47665634D01*
X54725177Y-47604628D01*
X54734346Y-47597497D01*
X54728341Y-47587551D01*
X54311729Y-47170939D01*
X54299999Y-47164167D01*
X54288271Y-47170938D01*
X53871657Y-47587551D01*
X53865652Y-47597497D01*
X50050500Y-47597497D01*
X50050500Y-46806565D01*
X53387688Y-46806565D01*
X53406259Y-46983260D01*
X53408988Y-46996101D01*
X53463888Y-47165066D01*
X53469235Y-47177074D01*
X53496570Y-47224419D01*
X53504372Y-47232750D01*
X53514065Y-47226723D01*
X53929059Y-46811730D01*
X53935832Y-46799999D01*
X54664167Y-46799999D01*
X54670939Y-46811729D01*
X55085929Y-47226719D01*
X55095626Y-47232749D01*
X55103429Y-47224418D01*
X55130770Y-47177064D01*
X55136108Y-47165074D01*
X55191011Y-46996101D01*
X55193740Y-46983260D01*
X55212312Y-46806565D01*
X55212312Y-46793435D01*
X55193740Y-46616739D01*
X55191011Y-46603898D01*
X55136111Y-46434933D01*
X55130764Y-46422926D01*
X55103429Y-46375579D01*
X55095626Y-46367248D01*
X55085932Y-46373276D01*
X54670938Y-46788271D01*
X54664167Y-46799999D01*
X53935832Y-46799999D01*
X53929060Y-46788270D01*
X53514067Y-46373277D01*
X53504372Y-46367248D01*
X53496570Y-46375578D01*
X53469234Y-46422927D01*
X53463889Y-46434933D01*
X53408988Y-46603898D01*
X53406259Y-46616739D01*
X53387688Y-46793435D01*
X53387688Y-46806565D01*
X50050500Y-46806565D01*
X50050500Y-46002502D01*
X53865652Y-46002502D01*
X53871657Y-46012447D01*
X54288270Y-46429060D01*
X54299999Y-46435832D01*
X54311730Y-46429059D01*
X54728343Y-46012445D01*
X54734347Y-46002502D01*
X54725178Y-45995370D01*
X54588159Y-45934366D01*
X54575680Y-45930311D01*
X54401892Y-45893372D01*
X54388832Y-45892000D01*
X54211168Y-45892000D01*
X54198107Y-45893372D01*
X54024326Y-45930310D01*
X54011833Y-45934369D01*
X53874823Y-45995369D01*
X53865652Y-46002502D01*
X50050500Y-46002502D01*
X50050500Y-45506565D01*
X56587688Y-45506565D01*
X56606259Y-45683260D01*
X56608988Y-45696101D01*
X56663888Y-45865066D01*
X56669235Y-45877074D01*
X56696570Y-45924419D01*
X56704372Y-45932750D01*
X56714065Y-45926723D01*
X57129059Y-45511730D01*
X57135832Y-45499999D01*
X57864167Y-45499999D01*
X57870939Y-45511729D01*
X58285929Y-45926719D01*
X58295626Y-45932749D01*
X58303429Y-45924418D01*
X58330770Y-45877064D01*
X58336108Y-45865074D01*
X58391011Y-45696101D01*
X58393740Y-45683260D01*
X58412312Y-45506565D01*
X58412312Y-45493435D01*
X58393740Y-45316739D01*
X58391011Y-45303898D01*
X58336111Y-45134933D01*
X58330764Y-45122926D01*
X58303429Y-45075579D01*
X58295626Y-45067248D01*
X58285932Y-45073276D01*
X57870938Y-45488271D01*
X57864167Y-45499999D01*
X57135832Y-45499999D01*
X57129060Y-45488270D01*
X56714067Y-45073277D01*
X56704372Y-45067248D01*
X56696570Y-45075578D01*
X56669234Y-45122927D01*
X56663889Y-45134933D01*
X56608988Y-45303898D01*
X56606259Y-45316739D01*
X56587688Y-45493435D01*
X56587688Y-45506565D01*
X50050500Y-45506565D01*
X50050500Y-44702502D01*
X57065652Y-44702502D01*
X57071657Y-44712447D01*
X57488270Y-45129060D01*
X57499999Y-45135832D01*
X57511730Y-45129059D01*
X57928343Y-44712445D01*
X57934347Y-44702502D01*
X57925178Y-44695370D01*
X57788159Y-44634366D01*
X57775680Y-44630311D01*
X57601892Y-44593372D01*
X57588832Y-44592000D01*
X57411168Y-44592000D01*
X57398107Y-44593372D01*
X57224326Y-44630310D01*
X57211833Y-44634369D01*
X57074823Y-44695369D01*
X57065652Y-44702502D01*
X50050500Y-44702502D01*
X50050500Y-28241340D01*
X66923090Y-28241340D01*
X66930533Y-28252943D01*
X66994058Y-28309713D01*
X66999576Y-28314114D01*
X67287664Y-28518522D01*
X67293649Y-28522283D01*
X67602811Y-28693151D01*
X67609175Y-28696216D01*
X67935526Y-28831395D01*
X67942193Y-28833727D01*
X68281637Y-28931520D01*
X68288506Y-28933088D01*
X68636767Y-28992260D01*
X68643780Y-28993050D01*
X68996474Y-29012857D01*
X69003526Y-29012857D01*
X69356219Y-28993050D01*
X69363232Y-28992260D01*
X69711493Y-28933088D01*
X69718362Y-28931520D01*
X70057806Y-28833727D01*
X70064473Y-28831395D01*
X70390824Y-28696216D01*
X70397188Y-28693151D01*
X70706350Y-28522283D01*
X70712335Y-28518522D01*
X71000424Y-28314113D01*
X71005940Y-28309714D01*
X71069466Y-28252942D01*
X71076908Y-28241341D01*
X71076907Y-28241340D01*
X122803090Y-28241340D01*
X122810533Y-28252943D01*
X122874058Y-28309713D01*
X122879576Y-28314114D01*
X123167664Y-28518522D01*
X123173649Y-28522283D01*
X123482811Y-28693151D01*
X123489175Y-28696216D01*
X123815526Y-28831395D01*
X123822193Y-28833727D01*
X124161637Y-28931520D01*
X124168506Y-28933088D01*
X124516767Y-28992260D01*
X124523780Y-28993050D01*
X124876474Y-29012857D01*
X124883526Y-29012857D01*
X125236219Y-28993050D01*
X125243232Y-28992260D01*
X125591493Y-28933088D01*
X125598362Y-28931520D01*
X125937806Y-28833727D01*
X125944473Y-28831395D01*
X126270824Y-28696216D01*
X126277188Y-28693151D01*
X126586350Y-28522283D01*
X126592335Y-28518522D01*
X126880424Y-28314113D01*
X126885940Y-28309714D01*
X126949466Y-28252942D01*
X126956908Y-28241341D01*
X126950125Y-28229335D01*
X124891729Y-26170939D01*
X124880000Y-26164167D01*
X124868270Y-26170939D01*
X122809873Y-28229335D01*
X122803090Y-28241340D01*
X71076907Y-28241340D01*
X71070125Y-28229335D01*
X69011729Y-26170939D01*
X69000000Y-26164167D01*
X68988270Y-26170939D01*
X66929873Y-28229335D01*
X66923090Y-28241340D01*
X50050500Y-28241340D01*
X50050500Y-25803526D01*
X65787143Y-25803526D01*
X65806949Y-26156219D01*
X65807739Y-26163232D01*
X65866911Y-26511493D01*
X65868479Y-26518362D01*
X65966272Y-26857806D01*
X65968604Y-26864473D01*
X66103783Y-27190824D01*
X66106848Y-27197188D01*
X66277716Y-27506350D01*
X66281477Y-27512335D01*
X66485885Y-27800423D01*
X66490286Y-27805941D01*
X66547055Y-27869465D01*
X66558658Y-27876908D01*
X66570663Y-27870125D01*
X68629060Y-25811729D01*
X68635831Y-25800000D01*
X69364167Y-25800000D01*
X69370939Y-25811729D01*
X71429335Y-27870125D01*
X71441341Y-27876908D01*
X71452942Y-27869466D01*
X71509714Y-27805940D01*
X71514113Y-27800424D01*
X71718522Y-27512335D01*
X71722283Y-27506350D01*
X71893151Y-27197188D01*
X71896216Y-27190824D01*
X72031395Y-26864473D01*
X72033727Y-26857806D01*
X72131520Y-26518362D01*
X72133088Y-26511493D01*
X72192260Y-26163232D01*
X72193050Y-26156219D01*
X72212857Y-25803526D01*
X121667143Y-25803526D01*
X121686949Y-26156219D01*
X121687739Y-26163232D01*
X121746911Y-26511493D01*
X121748479Y-26518362D01*
X121846272Y-26857806D01*
X121848604Y-26864473D01*
X121983783Y-27190824D01*
X121986848Y-27197188D01*
X122157716Y-27506350D01*
X122161477Y-27512335D01*
X122365885Y-27800423D01*
X122370286Y-27805941D01*
X122427055Y-27869465D01*
X122438658Y-27876908D01*
X122450663Y-27870125D01*
X124509060Y-25811729D01*
X124515832Y-25799999D01*
X125244167Y-25799999D01*
X125250939Y-25811729D01*
X127309335Y-27870125D01*
X127321341Y-27876908D01*
X127332942Y-27869466D01*
X127389714Y-27805940D01*
X127394113Y-27800424D01*
X127598522Y-27512335D01*
X127602283Y-27506350D01*
X127773151Y-27197188D01*
X127776216Y-27190824D01*
X127911395Y-26864473D01*
X127913727Y-26857806D01*
X128011520Y-26518362D01*
X128013088Y-26511493D01*
X128072260Y-26163232D01*
X128073050Y-26156219D01*
X128092857Y-25803526D01*
X128092857Y-25796474D01*
X128073050Y-25443780D01*
X128072260Y-25436767D01*
X128013088Y-25088506D01*
X128011520Y-25081637D01*
X127913727Y-24742193D01*
X127911395Y-24735526D01*
X127776216Y-24409175D01*
X127773151Y-24402811D01*
X127602283Y-24093649D01*
X127598522Y-24087664D01*
X127394114Y-23799576D01*
X127389713Y-23794058D01*
X127332943Y-23730533D01*
X127321340Y-23723090D01*
X127309335Y-23729873D01*
X125250939Y-25788270D01*
X125244167Y-25799999D01*
X124515832Y-25799999D01*
X124509060Y-25788270D01*
X122450663Y-23729873D01*
X122438659Y-23723091D01*
X122427053Y-23730536D01*
X122370284Y-23794060D01*
X122365890Y-23799570D01*
X122161477Y-24087664D01*
X122157716Y-24093649D01*
X121986848Y-24402811D01*
X121983783Y-24409175D01*
X121848604Y-24735526D01*
X121846272Y-24742193D01*
X121748479Y-25081637D01*
X121746911Y-25088506D01*
X121687739Y-25436767D01*
X121686949Y-25443780D01*
X121667143Y-25796474D01*
X121667143Y-25803526D01*
X72212857Y-25803526D01*
X72212857Y-25796474D01*
X72193050Y-25443780D01*
X72192260Y-25436767D01*
X72133088Y-25088506D01*
X72131520Y-25081637D01*
X72033727Y-24742193D01*
X72031395Y-24735526D01*
X71896216Y-24409175D01*
X71893151Y-24402811D01*
X71722283Y-24093649D01*
X71718522Y-24087664D01*
X71514114Y-23799576D01*
X71509713Y-23794058D01*
X71452943Y-23730533D01*
X71441340Y-23723090D01*
X71429335Y-23729873D01*
X69370939Y-25788270D01*
X69364167Y-25800000D01*
X68635831Y-25800000D01*
X68635832Y-25799999D01*
X68629060Y-25788270D01*
X66570663Y-23729873D01*
X66558659Y-23723091D01*
X66547053Y-23730536D01*
X66490284Y-23794060D01*
X66485890Y-23799570D01*
X66281477Y-24087664D01*
X66277716Y-24093649D01*
X66106848Y-24402811D01*
X66103783Y-24409175D01*
X65968604Y-24735526D01*
X65966272Y-24742193D01*
X65868479Y-25081637D01*
X65866911Y-25088506D01*
X65807739Y-25436767D01*
X65806949Y-25443780D01*
X65787143Y-25796474D01*
X65787143Y-25803526D01*
X50050500Y-25803526D01*
X50050500Y-23358659D01*
X66923091Y-23358659D01*
X66929873Y-23370663D01*
X68988270Y-25429060D01*
X69000000Y-25435832D01*
X69011729Y-25429060D01*
X71070125Y-23370663D01*
X71076907Y-23358659D01*
X122803091Y-23358659D01*
X122809873Y-23370663D01*
X124868270Y-25429060D01*
X124880000Y-25435832D01*
X124891729Y-25429060D01*
X126950125Y-23370663D01*
X126956908Y-23358658D01*
X126949465Y-23347055D01*
X126885941Y-23290286D01*
X126880423Y-23285885D01*
X126592335Y-23081477D01*
X126586350Y-23077716D01*
X126277188Y-22906848D01*
X126270824Y-22903783D01*
X125944473Y-22768604D01*
X125937806Y-22766272D01*
X125598362Y-22668479D01*
X125591493Y-22666911D01*
X125243232Y-22607739D01*
X125236219Y-22606949D01*
X124883526Y-22587143D01*
X124876474Y-22587143D01*
X124523780Y-22606949D01*
X124516767Y-22607739D01*
X124168506Y-22666911D01*
X124161637Y-22668479D01*
X123822193Y-22766272D01*
X123815526Y-22768604D01*
X123489175Y-22903783D01*
X123482811Y-22906848D01*
X123173649Y-23077716D01*
X123167664Y-23081477D01*
X122879570Y-23285890D01*
X122874060Y-23290284D01*
X122810536Y-23347053D01*
X122803091Y-23358659D01*
X71076907Y-23358659D01*
X71076908Y-23358658D01*
X71069465Y-23347055D01*
X71005941Y-23290286D01*
X71000423Y-23285885D01*
X70712335Y-23081477D01*
X70706350Y-23077716D01*
X70397188Y-22906848D01*
X70390824Y-22903783D01*
X70064473Y-22768604D01*
X70057806Y-22766272D01*
X69718362Y-22668479D01*
X69711493Y-22666911D01*
X69363232Y-22607739D01*
X69356219Y-22606949D01*
X69003526Y-22587143D01*
X68996474Y-22587143D01*
X68643780Y-22606949D01*
X68636767Y-22607739D01*
X68288506Y-22666911D01*
X68281637Y-22668479D01*
X67942193Y-22766272D01*
X67935526Y-22768604D01*
X67609175Y-22903783D01*
X67602811Y-22906848D01*
X67293649Y-23077716D01*
X67287664Y-23081477D01*
X66999570Y-23285890D01*
X66994060Y-23290284D01*
X66930536Y-23347053D01*
X66923091Y-23358659D01*
X50050500Y-23358659D01*
X50050500Y-176500D01*
X50067381Y-113500D01*
X50113500Y-67381D01*
X50176500Y-50500D01*
X149823500Y-50500D01*
X149886500Y-67381D01*
G37*
%TD.AperFunction*%
%TD*%
M02*
