G04 #@! TF.GenerationSoftware,KiCad,Pcbnew,6.0.9-8da3e8f707~116~ubuntu22.04.1*
G04 #@! TF.CreationDate,2022-11-12T12:35:46-05:00*
G04 #@! TF.ProjectId,dso138_testpanel,64736f31-3338-45f7-9465-737470616e65,rev?*
G04 #@! TF.SameCoordinates,Original*
G04 #@! TF.FileFunction,Legend,Bot*
G04 #@! TF.FilePolarity,Positive*
%FSLAX46Y46*%
G04 Gerber Fmt 4.6, Leading zero omitted, Abs format (unit mm)*
G04 Created by KiCad (PCBNEW 6.0.9-8da3e8f707~116~ubuntu22.04.1) date 2022-11-12 12:35:46*
%MOMM*%
%LPD*%
G01*
G04 APERTURE LIST*
%ADD10C,0.150000*%
G04 APERTURE END LIST*
D10*
X61800000Y40527620D02*
X61800000Y41527620D01*
X61419047Y41527620D01*
X61323809Y41480000D01*
X61276190Y41432381D01*
X61228571Y41337143D01*
X61228571Y41194286D01*
X61276190Y41099048D01*
X61323809Y41051429D01*
X61419047Y41003810D01*
X61800000Y41003810D01*
X60371428Y40527620D02*
X60371428Y41051429D01*
X60419047Y41146667D01*
X60514285Y41194286D01*
X60704761Y41194286D01*
X60800000Y41146667D01*
X60371428Y40575239D02*
X60466666Y40527620D01*
X60704761Y40527620D01*
X60800000Y40575239D01*
X60847619Y40670477D01*
X60847619Y40765715D01*
X60800000Y40860953D01*
X60704761Y40908572D01*
X60466666Y40908572D01*
X60371428Y40956191D01*
X59895238Y41194286D02*
X59895238Y40527620D01*
X59895238Y41099048D02*
X59847619Y41146667D01*
X59752380Y41194286D01*
X59609523Y41194286D01*
X59514285Y41146667D01*
X59466666Y41051429D01*
X59466666Y40527620D01*
X58609523Y40575239D02*
X58704761Y40527620D01*
X58895238Y40527620D01*
X58990476Y40575239D01*
X59038095Y40670477D01*
X59038095Y41051429D01*
X58990476Y41146667D01*
X58895238Y41194286D01*
X58704761Y41194286D01*
X58609523Y41146667D01*
X58561904Y41051429D01*
X58561904Y40956191D01*
X59038095Y40860953D01*
X57990476Y40527620D02*
X58085714Y40575239D01*
X58133333Y40670477D01*
X58133333Y41527620D01*
X56419047Y40527620D02*
X56419047Y41527620D01*
X56419047Y40575239D02*
X56514285Y40527620D01*
X56704761Y40527620D01*
X56800000Y40575239D01*
X56847619Y40622858D01*
X56895238Y40718096D01*
X56895238Y41003810D01*
X56847619Y41099048D01*
X56800000Y41146667D01*
X56704761Y41194286D01*
X56514285Y41194286D01*
X56419047Y41146667D01*
X55561904Y40575239D02*
X55657142Y40527620D01*
X55847619Y40527620D01*
X55942857Y40575239D01*
X55990476Y40670477D01*
X55990476Y41051429D01*
X55942857Y41146667D01*
X55847619Y41194286D01*
X55657142Y41194286D01*
X55561904Y41146667D01*
X55514285Y41051429D01*
X55514285Y40956191D01*
X55990476Y40860953D01*
X55133333Y40575239D02*
X55038095Y40527620D01*
X54847619Y40527620D01*
X54752380Y40575239D01*
X54704761Y40670477D01*
X54704761Y40718096D01*
X54752380Y40813334D01*
X54847619Y40860953D01*
X54990476Y40860953D01*
X55085714Y40908572D01*
X55133333Y41003810D01*
X55133333Y41051429D01*
X55085714Y41146667D01*
X54990476Y41194286D01*
X54847619Y41194286D01*
X54752380Y41146667D01*
X54276190Y40527620D02*
X54276190Y41194286D01*
X54276190Y41527620D02*
X54323809Y41480000D01*
X54276190Y41432381D01*
X54228571Y41480000D01*
X54276190Y41527620D01*
X54276190Y41432381D01*
X53371428Y41194286D02*
X53371428Y40384762D01*
X53419047Y40289524D01*
X53466666Y40241905D01*
X53561904Y40194286D01*
X53704761Y40194286D01*
X53800000Y40241905D01*
X53371428Y40575239D02*
X53466666Y40527620D01*
X53657142Y40527620D01*
X53752380Y40575239D01*
X53800000Y40622858D01*
X53847619Y40718096D01*
X53847619Y41003810D01*
X53800000Y41099048D01*
X53752380Y41146667D01*
X53657142Y41194286D01*
X53466666Y41194286D01*
X53371428Y41146667D01*
X52895238Y41194286D02*
X52895238Y40527620D01*
X52895238Y41099048D02*
X52847619Y41146667D01*
X52752380Y41194286D01*
X52609523Y41194286D01*
X52514285Y41146667D01*
X52466666Y41051429D01*
X52466666Y40527620D01*
X51228571Y40527620D02*
X51228571Y41527620D01*
X51228571Y41146667D02*
X51133333Y41194286D01*
X50942857Y41194286D01*
X50847619Y41146667D01*
X50800000Y41099048D01*
X50752380Y41003810D01*
X50752380Y40718096D01*
X50800000Y40622858D01*
X50847619Y40575239D01*
X50942857Y40527620D01*
X51133333Y40527620D01*
X51228571Y40575239D01*
X50419047Y41194286D02*
X50180952Y40527620D01*
X49942857Y41194286D02*
X50180952Y40527620D01*
X50276190Y40289524D01*
X50323809Y40241905D01*
X50419047Y40194286D01*
X48228571Y40527620D02*
X48561904Y41003810D01*
X48800000Y40527620D02*
X48800000Y41527620D01*
X48419047Y41527620D01*
X48323809Y41480000D01*
X48276190Y41432381D01*
X48228571Y41337143D01*
X48228571Y41194286D01*
X48276190Y41099048D01*
X48323809Y41051429D01*
X48419047Y41003810D01*
X48800000Y41003810D01*
X47800000Y40527620D02*
X47800000Y41194286D01*
X47800000Y41527620D02*
X47847619Y41480000D01*
X47800000Y41432381D01*
X47752380Y41480000D01*
X47800000Y41527620D01*
X47800000Y41432381D01*
X46895238Y40575239D02*
X46990476Y40527620D01*
X47180952Y40527620D01*
X47276190Y40575239D01*
X47323809Y40622858D01*
X47371428Y40718096D01*
X47371428Y41003810D01*
X47323809Y41099048D01*
X47276190Y41146667D01*
X47180952Y41194286D01*
X46990476Y41194286D01*
X46895238Y41146667D01*
X46466666Y40527620D02*
X46466666Y41527620D01*
X46038095Y40527620D02*
X46038095Y41051429D01*
X46085714Y41146667D01*
X46180952Y41194286D01*
X46323809Y41194286D01*
X46419047Y41146667D01*
X46466666Y41099048D01*
X44800000Y40527620D02*
X44800000Y41527620D01*
X44800000Y41051429D02*
X44228571Y41051429D01*
X44228571Y40527620D02*
X44228571Y41527620D01*
X43609523Y40527620D02*
X43704761Y40575239D01*
X43752380Y40622858D01*
X43800000Y40718096D01*
X43800000Y41003810D01*
X43752380Y41099048D01*
X43704761Y41146667D01*
X43609523Y41194286D01*
X43466666Y41194286D01*
X43371428Y41146667D01*
X43323809Y41099048D01*
X43276190Y41003810D01*
X43276190Y40718096D01*
X43323809Y40622858D01*
X43371428Y40575239D01*
X43466666Y40527620D01*
X43609523Y40527620D01*
X42704761Y40527620D02*
X42800000Y40575239D01*
X42847619Y40670477D01*
X42847619Y41527620D01*
X42323809Y40527620D02*
X42323809Y41194286D01*
X42323809Y41099048D02*
X42276190Y41146667D01*
X42180952Y41194286D01*
X42038095Y41194286D01*
X41942857Y41146667D01*
X41895238Y41051429D01*
X41895238Y40527620D01*
X41895238Y41051429D02*
X41847619Y41146667D01*
X41752380Y41194286D01*
X41609523Y41194286D01*
X41514285Y41146667D01*
X41466666Y41051429D01*
X41466666Y40527620D01*
X40609523Y40575239D02*
X40704761Y40527620D01*
X40895238Y40527620D01*
X40990476Y40575239D01*
X41038095Y40670477D01*
X41038095Y41051429D01*
X40990476Y41146667D01*
X40895238Y41194286D01*
X40704761Y41194286D01*
X40609523Y41146667D01*
X40561904Y41051429D01*
X40561904Y40956191D01*
X41038095Y40860953D01*
X40180952Y40575239D02*
X40085714Y40527620D01*
X39895238Y40527620D01*
X39800000Y40575239D01*
X39752380Y40670477D01*
X39752380Y40718096D01*
X39800000Y40813334D01*
X39895238Y40860953D01*
X40038095Y40860953D01*
X40133333Y40908572D01*
X40180952Y41003810D01*
X40180952Y41051429D01*
X40133333Y41146667D01*
X40038095Y41194286D01*
X39895238Y41194286D01*
X39800000Y41146667D01*
X56847619Y38917620D02*
X57419047Y38917620D01*
X57133333Y38917620D02*
X57133333Y39917620D01*
X57228571Y39774762D01*
X57323809Y39679524D01*
X57419047Y39631905D01*
X55895238Y38917620D02*
X56466666Y38917620D01*
X56180952Y38917620D02*
X56180952Y39917620D01*
X56276190Y39774762D01*
X56371428Y39679524D01*
X56466666Y39631905D01*
X54752380Y39965239D02*
X55609523Y38679524D01*
X54466666Y39822381D02*
X54419047Y39870000D01*
X54323809Y39917620D01*
X54085714Y39917620D01*
X53990476Y39870000D01*
X53942857Y39822381D01*
X53895238Y39727143D01*
X53895238Y39631905D01*
X53942857Y39489048D01*
X54514285Y38917620D01*
X53895238Y38917620D01*
X53276190Y39917620D02*
X53180952Y39917620D01*
X53085714Y39870000D01*
X53038095Y39822381D01*
X52990476Y39727143D01*
X52942857Y39536667D01*
X52942857Y39298572D01*
X52990476Y39108096D01*
X53038095Y39012858D01*
X53085714Y38965239D01*
X53180952Y38917620D01*
X53276190Y38917620D01*
X53371428Y38965239D01*
X53419047Y39012858D01*
X53466666Y39108096D01*
X53514285Y39298572D01*
X53514285Y39536667D01*
X53466666Y39727143D01*
X53419047Y39822381D01*
X53371428Y39870000D01*
X53276190Y39917620D01*
X52561904Y39822381D02*
X52514285Y39870000D01*
X52419047Y39917620D01*
X52180952Y39917620D01*
X52085714Y39870000D01*
X52038095Y39822381D01*
X51990476Y39727143D01*
X51990476Y39631905D01*
X52038095Y39489048D01*
X52609523Y38917620D01*
X51990476Y38917620D01*
X51609523Y39822381D02*
X51561904Y39870000D01*
X51466666Y39917620D01*
X51228571Y39917620D01*
X51133333Y39870000D01*
X51085714Y39822381D01*
X51038095Y39727143D01*
X51038095Y39631905D01*
X51085714Y39489048D01*
X51657142Y38917620D01*
X51038095Y38917620D01*
X49276190Y39012858D02*
X49323809Y38965239D01*
X49466666Y38917620D01*
X49561904Y38917620D01*
X49704761Y38965239D01*
X49800000Y39060477D01*
X49847619Y39155715D01*
X49895238Y39346191D01*
X49895238Y39489048D01*
X49847619Y39679524D01*
X49800000Y39774762D01*
X49704761Y39870000D01*
X49561904Y39917620D01*
X49466666Y39917620D01*
X49323809Y39870000D01*
X49276190Y39822381D01*
X48276190Y39012858D02*
X48323809Y38965239D01*
X48466666Y38917620D01*
X48561904Y38917620D01*
X48704761Y38965239D01*
X48800000Y39060477D01*
X48847619Y39155715D01*
X48895238Y39346191D01*
X48895238Y39489048D01*
X48847619Y39679524D01*
X48800000Y39774762D01*
X48704761Y39870000D01*
X48561904Y39917620D01*
X48466666Y39917620D01*
X48323809Y39870000D01*
X48276190Y39822381D01*
X47657142Y39917620D02*
X47561904Y39917620D01*
X47466666Y39870000D01*
X47419047Y39822381D01*
X47371428Y39727143D01*
X47323809Y39536667D01*
X47323809Y39298572D01*
X47371428Y39108096D01*
X47419047Y39012858D01*
X47466666Y38965239D01*
X47561904Y38917620D01*
X47657142Y38917620D01*
X47752380Y38965239D01*
X47800000Y39012858D01*
X47847619Y39108096D01*
X47895238Y39298572D01*
X47895238Y39536667D01*
X47847619Y39727143D01*
X47800000Y39822381D01*
X47752380Y39870000D01*
X47657142Y39917620D01*
X45609523Y38917620D02*
X46180952Y38917620D01*
X45895238Y38917620D02*
X45895238Y39917620D01*
X45990476Y39774762D01*
X46085714Y39679524D01*
X46180952Y39631905D01*
X45180952Y39012858D02*
X45133333Y38965239D01*
X45180952Y38917620D01*
X45228571Y38965239D01*
X45180952Y39012858D01*
X45180952Y38917620D01*
X44514285Y39917620D02*
X44419047Y39917620D01*
X44323809Y39870000D01*
X44276190Y39822381D01*
X44228571Y39727143D01*
X44180952Y39536667D01*
X44180952Y39298572D01*
X44228571Y39108096D01*
X44276190Y39012858D01*
X44323809Y38965239D01*
X44419047Y38917620D01*
X44514285Y38917620D01*
X44609523Y38965239D01*
X44657142Y39012858D01*
X44704761Y39108096D01*
X44752380Y39298572D01*
X44752380Y39536667D01*
X44704761Y39727143D01*
X44657142Y39822381D01*
X44609523Y39870000D01*
X44514285Y39917620D01*
X55419047Y38307620D02*
X55419047Y37593334D01*
X55466666Y37450477D01*
X55561904Y37355239D01*
X55704761Y37307620D01*
X55800000Y37307620D01*
X54466666Y37307620D02*
X54942857Y37307620D01*
X54942857Y38307620D01*
X53561904Y37402858D02*
X53609523Y37355239D01*
X53752380Y37307620D01*
X53847619Y37307620D01*
X53990476Y37355239D01*
X54085714Y37450477D01*
X54133333Y37545715D01*
X54180952Y37736191D01*
X54180952Y37879048D01*
X54133333Y38069524D01*
X54085714Y38164762D01*
X53990476Y38260000D01*
X53847619Y38307620D01*
X53752380Y38307620D01*
X53609523Y38260000D01*
X53561904Y38212381D01*
X52847619Y38307620D02*
X52847619Y37593334D01*
X52895238Y37450477D01*
X52990476Y37355239D01*
X53133333Y37307620D01*
X53228571Y37307620D01*
X51895238Y37307620D02*
X52371428Y37307620D01*
X52371428Y38307620D01*
X50990476Y37402858D02*
X51038095Y37355239D01*
X51180952Y37307620D01*
X51276190Y37307620D01*
X51419047Y37355239D01*
X51514285Y37450477D01*
X51561904Y37545715D01*
X51609523Y37736191D01*
X51609523Y37879048D01*
X51561904Y38069524D01*
X51514285Y38164762D01*
X51419047Y38260000D01*
X51276190Y38307620D01*
X51180952Y38307620D01*
X51038095Y38260000D01*
X50990476Y38212381D01*
X50276190Y38307620D02*
X50276190Y37593334D01*
X50323809Y37450477D01*
X50419047Y37355239D01*
X50561904Y37307620D01*
X50657142Y37307620D01*
X49323809Y37307620D02*
X49800000Y37307620D01*
X49800000Y38307620D01*
X48419047Y37402858D02*
X48466666Y37355239D01*
X48609523Y37307620D01*
X48704761Y37307620D01*
X48847619Y37355239D01*
X48942857Y37450477D01*
X48990476Y37545715D01*
X49038095Y37736191D01*
X49038095Y37879048D01*
X48990476Y38069524D01*
X48942857Y38164762D01*
X48847619Y38260000D01*
X48704761Y38307620D01*
X48609523Y38307620D01*
X48466666Y38260000D01*
X48419047Y38212381D01*
X47704761Y38307620D02*
X47704761Y37593334D01*
X47752380Y37450477D01*
X47847619Y37355239D01*
X47990476Y37307620D01*
X48085714Y37307620D01*
X46752380Y37307620D02*
X47228571Y37307620D01*
X47228571Y38307620D01*
X45847619Y37402858D02*
X45895238Y37355239D01*
X46038095Y37307620D01*
X46133333Y37307620D01*
X46276190Y37355239D01*
X46371428Y37450477D01*
X46419047Y37545715D01*
X46466666Y37736191D01*
X46466666Y37879048D01*
X46419047Y38069524D01*
X46371428Y38164762D01*
X46276190Y38260000D01*
X46133333Y38307620D01*
X46038095Y38307620D01*
X45895238Y38260000D01*
X45847619Y38212381D01*
M02*
