G04 #@! TF.GenerationSoftware,KiCad,Pcbnew,6.0.9-8da3e8f707~116~ubuntu22.04.1*
G04 #@! TF.CreationDate,2022-11-12T12:35:46-05:00*
G04 #@! TF.ProjectId,dso138_testpanel,64736f31-3338-45f7-9465-737470616e65,rev?*
G04 #@! TF.SameCoordinates,Original*
G04 #@! TF.FileFunction,Profile,NP*
%FSLAX46Y46*%
G04 Gerber Fmt 4.6, Leading zero omitted, Abs format (unit mm)*
G04 Created by KiCad (PCBNEW 6.0.9-8da3e8f707~116~ubuntu22.04.1) date 2022-11-12 12:35:46*
%MOMM*%
%LPD*%
G01*
G04 APERTURE LIST*
G04 #@! TA.AperFunction,Profile*
%ADD10C,0.100000*%
G04 #@! TD*
G04 #@! TA.AperFunction,Profile*
%ADD11C,0.050000*%
G04 #@! TD*
G04 APERTURE END LIST*
D10*
X0Y33000000D02*
X0Y133000000D01*
X100000000Y33000000D02*
X0Y33000000D01*
X100000000Y133000000D02*
X100000000Y33000000D01*
X0Y133000000D02*
X20500000Y133000000D01*
X79400000Y133000000D02*
X100000000Y133000000D01*
X79400000Y133000000D02*
X79400000Y129250000D01*
X20500000Y133000000D02*
X20500000Y129250000D01*
X20500000Y129250000D02*
X79400000Y129250000D01*
G04 #@! TO.C,H1*
X6000000Y101500000D02*
X19000000Y101500000D01*
X19000000Y101500000D02*
X19000000Y88500000D01*
X19000000Y88500000D02*
X6000000Y88500000D01*
X6000000Y88500000D02*
X6000000Y101500000D01*
G04 #@! TO.C,H11*
X81000000Y71500000D02*
X94000000Y71500000D01*
X94000000Y71500000D02*
X94000000Y58500000D01*
X94000000Y58500000D02*
X81000000Y58500000D01*
X81000000Y58500000D02*
X81000000Y71500000D01*
G04 #@! TO.C,H10*
X81000000Y101500000D02*
X94000000Y101500000D01*
X94000000Y101500000D02*
X94000000Y88500000D01*
X94000000Y88500000D02*
X81000000Y88500000D01*
X81000000Y88500000D02*
X81000000Y101500000D01*
D11*
G04 #@! TO.C,H2*
X7000000Y67000000D02*
X18000000Y67000000D01*
X18000000Y67000000D02*
X18000000Y63000000D01*
X18000000Y63000000D02*
X7000000Y63000000D01*
X7000000Y63000000D02*
X7000000Y67000000D01*
D10*
G04 #@! TO.C,H7*
X56000000Y101500000D02*
X69000000Y101500000D01*
X69000000Y101500000D02*
X69000000Y88500000D01*
X69000000Y88500000D02*
X56000000Y88500000D01*
X56000000Y88500000D02*
X56000000Y101500000D01*
G04 #@! TO.C,H4*
X31000000Y101500000D02*
X44000000Y101500000D01*
X44000000Y101500000D02*
X44000000Y88500000D01*
X44000000Y88500000D02*
X31000000Y88500000D01*
X31000000Y88500000D02*
X31000000Y101500000D01*
D11*
G04 #@! TO.C,H5*
X32000000Y67000000D02*
X43000000Y67000000D01*
X43000000Y67000000D02*
X43000000Y63000000D01*
X43000000Y63000000D02*
X32000000Y63000000D01*
X32000000Y63000000D02*
X32000000Y67000000D01*
G04 #@! TO.C,H8*
X57000000Y67000000D02*
X68000000Y67000000D01*
X68000000Y67000000D02*
X68000000Y63000000D01*
X68000000Y63000000D02*
X57000000Y63000000D01*
X57000000Y63000000D02*
X57000000Y67000000D01*
G04 #@! TD*
M02*
